g S_wpn_funnel_0011_vfx_01_lod0
v -0.059940416 0.02273758 1.4701306E-08
v -0.060135588 0.02254241 0.0008310146
v -0.060135588 0.02254241 -0.0008309854
v -0.060507476 0.022169523 -0.0013219857
v -0.060507476 0.022169521 0.0013220143
v -0.061140344 0.021536652 -0.001695986
v -0.061140344 0.02153665 0.0016960137
v -0.07611505 0.0065882397 0.0016960041
v -0.07611505 0.006588242 -0.0016959957
v -0.07651601 0.0060445103 -0.001695996
v -0.07651601 0.006044508 0.0016960038
v -0.07664634 0.0052783317 -0.0016959966
v -0.07664634 0.00527833 0.0016960031
v -0.07664634 -0.009222015 -0.001696006
v -0.07664634 -0.009222018 0.0016959938
v -0.07651601 -0.009988204 0.0016959934
v -0.07651601 -0.009988201 -0.0016960065
v -0.07611505 -0.010531926 -0.0016960069
v -0.07611505 -0.010531927 0.0016959929
v -0.061140344 -0.02548034 0.0016959832
v -0.061140344 -0.025480337 -0.0016960166
v -0.060507476 -0.026113207 -0.0013220172
v -0.060507476 -0.026113208 0.0013219828
v -0.060135588 -0.026486099 0.0008309826
v -0.060135588 -0.026486099 -0.0008310173
v -0.059940416 -0.026681265 -1.7504103E-08
v 0.059940416 0.02273758 1.47013175E-08
v 0.060135588 0.02254241 -0.0008309854
v 0.060135588 0.02254241 0.0008310146
v 0.060507476 0.022169523 -0.0013219857
v 0.060507476 0.022169521 0.0013220143
v 0.061140344 0.021536652 -0.001695986
v 0.061140344 0.02153665 0.0016960137
v 0.07611505 0.0065882397 0.0016960041
v 0.07611505 0.006588242 -0.0016959957
v 0.07651601 0.0060445103 -0.001695996
v 0.07651601 0.006044508 0.0016960038
v 0.07664634 0.0052783317 -0.0016959966
v 0.07664634 0.00527833 0.0016960031
v 0.07664634 -0.009222015 -0.001696006
v 0.07664634 -0.009222018 0.0016959938
v 0.07651601 -0.009988204 0.0016959934
v 0.07651601 -0.009988201 -0.0016960065
v 0.07611505 -0.010531926 -0.0016960069
v 0.07611505 -0.010531927 0.0016959929
v 0.061140344 -0.02548034 0.0016959832
v 0.061140344 -0.025480337 -0.0016960166
v 0.060507476 -0.026113207 -0.0013220172
v 0.060507476 -0.026113208 0.0013219828
v 0.060135588 -0.026486099 0.0008309826
v 0.060135588 -0.026486099 -0.0008310173
v 0.059940416 -0.026681265 -1.750409E-08
vt 0.023306 0.937576
vt 0.02471 0.941789
vt 0.02471 0.933363
vt 0.027303 0.930879
vt 0.027303 0.944274
vt 0.031839 0.928935
vt 0.031839 0.94611
vt 0.138998 0.94611
vt 0.138998 0.928935
vt 0.14213 0.928935
vt 0.14213 0.94611
vt 0.145803 0.928935
vt 0.145803 0.94611
vt 0.219042 0.928935
vt 0.219042 0.94611
vt 0.222715 0.94611
vt 0.222715 0.928935
vt 0.225739 0.928935
vt 0.225739 0.94611
vt 0.332898 0.94611
vt 0.332898 0.928935
vt 0.337435 0.930879
vt 0.337435 0.944274
vt 0.340135 0.941789
vt 0.340135 0.933363
vt 0.341539 0.937576
vt 0.023306 0.937576
vt 0.02471 0.933363
vt 0.02471 0.941789
vt 0.027303 0.930879
vt 0.027303 0.944274
vt 0.031839 0.928935
vt 0.031839 0.94611
vt 0.138998 0.94611
vt 0.138998 0.928935
vt 0.14213 0.928935
vt 0.14213 0.94611
vt 0.145803 0.928935
vt 0.145803 0.94611
vt 0.219042 0.928935
vt 0.219042 0.94611
vt 0.222715 0.94611
vt 0.222715 0.928935
vt 0.225739 0.928935
vt 0.225739 0.94611
vt 0.332898 0.94611
vt 0.332898 0.928935
vt 0.337435 0.930879
vt 0.337435 0.944274
vt 0.340135 0.941789
vt 0.340135 0.933363
vt 0.341539 0.937576
vn -0.70710677 0.70710677 4.608092E-07
vn -0.70793957 0.706273 4.6026588E-07
vn -0.70793957 0.706273 4.6026588E-07
vn -0.70738685 0.70682657 4.606266E-07
vn -0.70738685 0.70682657 4.606266E-07
vn -0.70675176 0.70746154 4.6104043E-07
vn -0.70675176 0.70746154 4.6104043E-07
vn -0.7578129 0.65247184 4.2520458E-07
vn -0.7578129 0.65247184 4.2520458E-07
vn -0.92029935 0.39121482 2.5494788E-07
vn -0.92029935 0.39121482 2.5494788E-07
vn -0.9964533 0.08414844 0
vn -0.9964533 0.08414844 0
vn -0.9964533 -0.08414762 0
vn -0.9964533 -0.08414762 0
vn -0.92029846 -0.39121696 -2.5494944E-07
vn -0.92029846 -0.39121696 -2.5494944E-07
vn -0.75781095 -0.65247416 -4.2520628E-07
vn -0.75781095 -0.65247416 -4.2520628E-07
vn -0.70675176 -0.70746154 -4.6104054E-07
vn -0.70675176 -0.70746154 -4.6104054E-07
vn -0.7073868 -0.7068266 -4.6062678E-07
vn -0.7073868 -0.7068266 -4.6062678E-07
vn -0.707939 -0.70627356 -4.6026636E-07
vn -0.707939 -0.70627356 -4.6026636E-07
vn -0.7071024 -0.70711106 -4.6081215E-07
vn 0.70710677 0.70710677 4.6080936E-07
vn 0.70793957 0.706273 4.60266E-07
vn 0.70793957 0.706273 4.60266E-07
vn 0.7073868 0.7068266 4.6062678E-07
vn 0.7073868 0.7068266 4.6062678E-07
vn 0.70675176 0.70746154 4.6104054E-07
vn 0.70675176 0.70746154 4.6104054E-07
vn 0.7578129 0.65247184 4.2520472E-07
vn 0.7578129 0.65247184 4.2520472E-07
vn 0.92029935 0.39121482 2.5494802E-07
vn 0.92029935 0.39121482 2.5494802E-07
vn 0.9964533 0.08414843 0
vn 0.9964533 0.08414843 0
vn 0.9964533 -0.08414762 0
vn 0.9964533 -0.08414762 0
vn 0.92029846 -0.39121696 -2.5494927E-07
vn 0.92029846 -0.39121696 -2.5494927E-07
vn 0.75781095 -0.65247416 -4.252061E-07
vn 0.75781095 -0.65247416 -4.252061E-07
vn 0.70675176 -0.70746154 -4.6104043E-07
vn 0.70675176 -0.70746154 -4.6104043E-07
vn 0.7073868 -0.7068266 -4.6062667E-07
vn 0.7073868 -0.7068266 -4.6062667E-07
vn 0.707939 -0.70627356 -4.602662E-07
vn 0.707939 -0.70627356 -4.602662E-07
vn 0.7071024 -0.70711106 -4.60812E-07
g S_wpn_funnel_0011_vfx_01_lod0_0
f 3/3/3 2/2/2 1/1/1
f 3/3/3 4/4/4 2/2/2
f 4/4/4 5/5/5 2/2/2
f 4/4/4 6/6/6 5/5/5
f 6/6/6 7/7/7 5/5/5
f 8/8/8 7/7/7 6/6/6
f 9/9/9 8/8/8 6/6/6
f 8/8/8 9/9/9 10/10/10
f 11/11/11 8/8/8 10/10/10
f 11/11/11 10/10/10 12/12/12
f 13/13/13 11/11/11 12/12/12
f 13/13/13 12/12/12 14/14/14
f 15/15/15 13/13/13 14/14/14
f 15/15/15 14/14/14 16/16/16
f 14/14/14 17/17/17 16/16/16
f 17/17/17 18/18/18 16/16/16
f 18/18/18 19/19/19 16/16/16
f 20/20/20 19/19/19 18/18/18
f 21/21/21 20/20/20 18/18/18
f 21/21/21 22/22/22 20/20/20
f 22/22/22 23/23/23 20/20/20
f 24/24/24 23/23/23 22/22/22
f 25/25/25 24/24/24 22/22/22
f 24/24/24 25/25/25 26/26/26
f 29/29/29 28/28/28 27/27/27
f 30/30/30 28/28/28 29/29/29
f 31/31/31 30/30/30 29/29/29
f 32/32/32 30/30/30 31/31/31
f 33/33/33 32/32/32 31/31/31
f 33/33/33 34/34/34 32/32/32
f 34/34/34 35/35/35 32/32/32
f 35/35/35 34/34/34 36/36/36
f 34/34/34 37/37/37 36/36/36
f 36/36/36 37/37/37 38/38/38
f 37/37/37 39/39/39 38/38/38
f 38/38/38 39/39/39 40/40/40
f 39/39/39 41/41/41 40/40/40
f 40/40/40 41/41/41 42/42/42
f 43/43/43 40/40/40 42/42/42
f 44/44/44 43/43/43 42/42/42
f 45/45/45 44/44/44 42/42/42
f 45/45/45 46/46/46 44/44/44
f 46/46/46 47/47/47 44/44/44
f 48/48/48 47/47/47 46/46/46
f 49/49/49 48/48/48 46/46/46
f 49/49/49 50/50/50 48/48/48
f 50/50/50 51/51/51 48/48/48
f 51/51/51 50/50/50 52/52/52
