g S_wpn_sword_0017_vfx_01_lod0
v 0.017654294 0.0047305184 -0.13245288
v 0.018277066 1.4263364E-07 -0.13643928
v 0.018277066 1.4180993E-07 -0.13245288
v 0.01765429 0.0047305194 -0.13643928
v 0.015828408 0.00913863 -0.13245288
v 0.015828408 0.009138631 -0.13643928
v 0.012923851 0.012923877 -0.13245286
v 0.012923851 0.012923878 -0.13643928
v 0.009138565 0.01582854 -0.13245286
v 0.009138565 0.01582854 -0.13643928
v 0.0047304914 0.017654406 -0.13245286
v 0.0047304914 0.017654408 -0.13643928
v 3.8146972E-08 0.018277118 -0.13245286
v 3.8146972E-08 0.01827712 -0.13643928
v -0.004730377 0.017654406 -0.13245288
v -0.004730377 0.017654408 -0.13643928
v -0.00913845 0.01582854 -0.13245288
v -0.00913845 0.01582854 -0.13643928
v -0.012923756 0.012923877 -0.13245286
v -0.012923756 0.012923878 -0.1364393
v -0.015828304 0.00913863 -0.13245288
v -0.015828304 0.009138631 -0.1364393
v -0.01765419 0.0047305184 -0.13245288
v -0.0176542 0.0047305194 -0.13643928
v -0.018276965 1.4180993E-07 -0.13245288
v -0.018276965 1.4263364E-07 -0.13643928
v -0.01765419 -0.0047302353 -0.13245288
v -0.01765419 -0.004730234 -0.13643928
v -0.015828313 -0.009138346 -0.13245288
v -0.015828313 -0.009138346 -0.13643928
v -0.012923756 -0.012923594 -0.13245286
v -0.012923756 -0.012923592 -0.1364393
v -0.00913847 -0.015828256 -0.13245288
v -0.00913845 -0.015828256 -0.13643928
v -0.004730377 -0.017654123 -0.13245288
v -0.004730377 -0.01765412 -0.13643928
v 3.8146972E-08 -0.018276835 -0.13245286
v 3.8146972E-08 -0.018276833 -0.13643928
v 0.0047304914 -0.017654123 -0.13245286
v 0.0047304914 -0.01765412 -0.13643928
v 0.009138546 -0.015828256 -0.13245286
v 0.009138565 -0.015828256 -0.13643928
v 0.012923851 -0.012923594 -0.13245286
v 0.012923851 -0.012923592 -0.13643928
v 0.015828418 -0.009138346 -0.13245288
v 0.015828418 -0.009138346 -0.13643928
v 0.017654285 -0.0047302353 -0.13245288
v 0.017654294 -0.004730234 -0.13643928
v 0.018277066 1.4180993E-07 -0.13245288
v 0.018277066 1.4263364E-07 -0.13643928
v -0.006167545 0.010128436 0.28234053
v 0.006167774 0.010128436 0.28234053
v 1.14440915E-07 0.010128436 0.29256
v 0.00200346 0.010128435 0.2751278
v -0.002003231 0.010128435 0.2751278
v -0.002003231 0.010128432 0.2556393
v 0.00200346 0.010128432 0.2556393
v -0.006167545 -0.01012846 0.28234053
v 1.14440915E-07 -0.010128462 0.29256
v 0.006167774 -0.01012846 0.28234053
v 0.00200346 -0.010128459 0.2751278
v -0.002003231 -0.010128459 0.2751278
v -0.002003231 -0.010128453 0.2556393
v 0.00200346 -0.010128453 0.2556393
vt 0.7317927 0.9074242
vt 0.720307 0.8967889
vt 0.720307 0.9074242
vt 0.7317927 0.89678884
vt 0.7432787 0.9074242
vt 0.7432787 0.8967889
vt 0.7547645 0.9074242
vt 0.75476444 0.8967889
vt 0.7662505 0.9074242
vt 0.7662505 0.8967889
vt 0.7777364 0.9074242
vt 0.7777364 0.8967889
vt 0.78922224 0.9074242
vt 0.7892223 0.8967889
vt 0.80070806 0.9074242
vt 0.80070806 0.8967889
vt 0.8121939 0.9074242
vt 0.8121939 0.8967889
vt 0.82368 0.9074242
vt 0.82368 0.8967889
vt 0.83516574 0.9074242
vt 0.83516574 0.8967889
vt 0.84665173 0.9074242
vt 0.84665173 0.8967889
vt 0.8581374 0.9074242
vt 0.8581374 0.89678884
vt 0.8696232 0.9074242
vt 0.8696232 0.89678895
vt 0.8811091 0.9074242
vt 0.8811092 0.8967889
vt 0.89259493 0.9074242
vt 0.89259493 0.89678884
vt 0.904081 0.9074242
vt 0.904081 0.89678884
vt 0.91556686 0.9074242
vt 0.9155669 0.8967889
vt 0.9270527 0.9074242
vt 0.92705274 0.89678895
vt 0.93853855 0.9074242
vt 0.93853855 0.8967889
vt 0.95002437 0.9074242
vt 0.9500244 0.8967889
vt 0.9615104 0.9074242
vt 0.9615104 0.8967889
vt 0.97299623 0.9074242
vt 0.97299623 0.8967889
vt 0.98448217 0.9074242
vt 0.9844822 0.8967889
vt 0.9959679 0.9074242
vt 0.9959679 0.89678884
vt 0.25772703 0.49516892
vt 0.22628415 0.49516892
vt 0.24200475 0.52207685
vt 0.23690093 0.47617745
vt 0.24711144 0.47617745
vt 0.24711144 0.42486504
vt 0.23690093 0.42486504
vt 0.22628415 0.49516892
vt 0.24200642 0.52207685
vt 0.25772703 0.49516892
vt 0.24711025 0.47617745
vt 0.23689973 0.47617745
vt 0.23689973 0.42486504
vt 0.24711025 0.42486504
vn 0.96592605 0.25881827 -5.889499E-07
vn 1 -2.2485348E-07 1.5063408E-07
vn 1 -2.6312645E-07 1.5063432E-07
vn 0.96592593 0.25881836 -5.8894983E-07
vn 0.8660246 0.5000013 -1.6297672E-07
vn 0.8660246 0.5000013 -1.6297668E-07
vn 0.7071111 0.70710236 1.8767105E-07
vn 0.7071111 0.70710236 1.8767105E-07
vn 0.50000656 0.8660216 2.5681328E-07
vn 0.50000656 0.8660217 2.5681334E-07
vn 0.258811 0.96592796 2.8768176E-07
vn 0.25881106 0.96592796 2.8768173E-07
vn -4.3535405E-07 1 2.9879473E-07
vn -4.353535E-07 1 2.9879473E-07
vn -0.25881132 0.96592796 2.8768395E-07
vn -0.25881144 0.96592784 2.8768395E-07
vn -0.50000566 0.8660222 2.568136E-07
vn -0.50000566 0.8660222 2.568136E-07
vn -0.7071109 0.7071026 1.8767042E-07
vn -0.707111 0.70710254 1.876704E-07
vn -0.86602473 0.5000012 6.667257E-07
vn -0.8660246 0.5000013 6.6672567E-07
vn -0.96592593 0.25881872 1.2124673E-06
vn -0.9659258 0.2588188 1.2124668E-06
vn -1 -5.023322E-07 5.9883286E-07
vn -1 -4.7362755E-07 5.9883297E-07
vn -0.9659262 -0.25881785 0
vn -0.9659262 -0.2588178 0
vn -0.8660249 -0.50000083 -1.086527E-07
vn -0.8660249 -0.50000083 -1.086527E-07
vn -0.7071107 -0.70710284 -9.136542E-07
vn -0.7071107 -0.7071028 -9.13654E-07
vn -0.50000614 -0.8660219 -1.4495123E-06
vn -0.50000554 -0.8660223 -1.4495107E-06
vn -0.25881097 -0.96592796 -7.494559E-07
vn -0.25881097 -0.96592796 -7.4945604E-07
vn -4.497064E-07 -1 -2.987942E-07
vn -5.2625177E-07 -1 -2.987942E-07
vn 0.25881132 -0.96592796 1.691527E-07
vn 0.25881132 -0.96592796 1.6915274E-07
vn 0.500006 -0.86602193 9.3094485E-07
vn 0.50000674 -0.8660216 9.309465E-07
vn 0.70711017 -0.7071034 5.383131E-07
vn 0.70711017 -0.7071034 5.38313E-07
vn 0.8660248 -0.50000095 4.395456E-07
vn 0.8660248 -0.50000095 4.3954572E-07
vn 0.9659263 -0.25881752 1.0210912E-06
vn 0.9659263 -0.2588174 1.0210911E-06
vn 1 -2.6312645E-07 1.5063432E-07
vn 1 -2.2485348E-07 1.5063408E-07
vn -0 1 0
vn -0 1 0
vn -0 1 0
vn -0 1 -1.4687396E-07
vn -0 1 -1.4687396E-07
vn -0 1 -1.2233829E-07
vn -0 1 -1.2233829E-07
vn -0 -1 -1.9896893E-07
vn -0 -1 -2.3329818E-07
vn -0 -1 -1.9896893E-07
vn -0 -1 -1.9930465E-07
vn -0 -1 -1.9930465E-07
vn -0 -1 -2.4467658E-07
vn -0 -1 -2.4467658E-07
g S_wpn_sword_0017_vfx_01_lod0_0
f 3/3/3 2/2/2 1/1/1
f 2/2/2 4/4/4 1/1/1
f 1/1/1 4/4/4 5/5/5
f 4/4/4 6/6/6 5/5/5
f 5/5/5 6/6/6 7/7/7
f 6/6/6 8/8/8 7/7/7
f 7/7/7 8/8/8 9/9/9
f 8/8/8 10/10/10 9/9/9
f 9/9/9 10/10/10 11/11/11
f 10/10/10 12/12/12 11/11/11
f 11/11/11 12/12/12 13/13/13
f 12/12/12 14/14/14 13/13/13
f 13/13/13 14/14/14 15/15/15
f 14/14/14 16/16/16 15/15/15
f 15/15/15 16/16/16 17/17/17
f 16/16/16 18/18/18 17/17/17
f 17/17/17 18/18/18 19/19/19
f 18/18/18 20/20/20 19/19/19
f 19/19/19 20/20/20 21/21/21
f 20/20/20 22/22/22 21/21/21
f 21/21/21 22/22/22 23/23/23
f 22/22/22 24/24/24 23/23/23
f 23/23/23 24/24/24 25/25/25
f 24/24/24 26/26/26 25/25/25
f 25/25/25 26/26/26 27/27/27
f 26/26/26 28/28/28 27/27/27
f 27/27/27 28/28/28 29/29/29
f 28/28/28 30/30/30 29/29/29
f 29/29/29 30/30/30 31/31/31
f 30/30/30 32/32/32 31/31/31
f 31/31/31 32/32/32 33/33/33
f 32/32/32 34/34/34 33/33/33
f 33/33/33 34/34/34 35/35/35
f 34/34/34 36/36/36 35/35/35
f 35/35/35 36/36/36 37/37/37
f 36/36/36 38/38/38 37/37/37
f 37/37/37 38/38/38 39/39/39
f 38/38/38 40/40/40 39/39/39
f 39/39/39 40/40/40 41/41/41
f 40/40/40 42/42/42 41/41/41
f 41/41/41 42/42/42 43/43/43
f 42/42/42 44/44/44 43/43/43
f 43/43/43 44/44/44 45/45/45
f 44/44/44 46/46/46 45/45/45
f 45/45/45 46/46/46 47/47/47
f 46/46/46 48/48/48 47/47/47
f 47/47/47 48/48/48 49/49/49
f 48/48/48 50/50/50 49/49/49
f 53/53/53 52/52/52 51/51/51
f 52/52/52 54/54/54 51/51/51
f 54/54/54 55/55/55 51/51/51
f 56/56/56 55/55/55 54/54/54
f 57/57/57 56/56/56 54/54/54
f 60/60/60 59/59/59 58/58/58
f 61/61/61 60/60/60 58/58/58
f 62/62/62 61/61/61 58/58/58
f 62/62/62 63/63/63 61/61/61
f 63/63/63 64/64/64 61/61/61
