g S_wpn_sword_0016_vfx_01_lod0
v 0.016559433 -0.01013092 0.19073857
v 0.025138216 -0.01013092 0.17633949
v 0.02227441 -0.01013092 0.1765524
v 0.013902664 -0.01013092 0.19059828
v 0.013902664 -0.01013092 0.19059828
v 0.013902664 -0.0082246205 0.1905983
v 0.016559433 -0.0082246205 0.1907386
v 0.016559433 -0.01013092 0.19073857
v 0.022274029 -0.00822464 0.17655243
v 0.02227441 -0.01013092 0.1765524
v 0.025138216 -0.01013092 0.17633949
v 0.025138218 -0.00822464 0.17633946
v 0.013902664 -0.0082246205 0.1905983
v 0.022274029 -0.00822464 0.17655243
v 0.025138218 -0.00822464 0.17633946
v 0.016559433 -0.0082246205 0.1907386
v 0.013902664 -0.01013092 0.19059828
v 0.02227441 -0.01013092 0.1765524
v 0.022274029 -0.00822464 0.17655243
v 0.013902664 -0.0082246205 0.1905983
v 0.016559433 -0.0082246205 0.1907386
v 0.025138218 -0.00822464 0.17633946
v 0.025138216 -0.01013092 0.17633949
v 0.016559433 -0.01013092 0.19073857
v -0.016615182 -0.01013092 0.19073856
v -0.013958413 -0.01013092 0.19059825
v -0.02233013 -0.01013092 0.17655239
v -0.025193933 -0.01013092 0.17633945
v -0.013958413 -0.01013092 0.19059825
v -0.016615182 -0.01013092 0.19073856
v -0.016615182 -0.0082246205 0.19073856
v -0.013958413 -0.0082246205 0.19059825
v -0.022329742 -0.0082246205 0.17655237
v -0.025193932 -0.0082246205 0.17633942
v -0.025193933 -0.01013092 0.17633945
v -0.02233013 -0.01013092 0.17655239
v -0.013958413 -0.0082246205 0.19059825
v -0.016615182 -0.0082246205 0.19073856
v -0.025193932 -0.0082246205 0.17633942
v -0.022329742 -0.0082246205 0.17655237
v -0.013958413 -0.01013092 0.19059825
v -0.013958413 -0.0082246205 0.19059825
v -0.022329742 -0.0082246205 0.17655237
v -0.02233013 -0.01013092 0.17655239
v -0.016615182 -0.0082246205 0.19073856
v -0.016615182 -0.01013092 0.19073856
v -0.025193933 -0.01013092 0.17633945
v -0.025193932 -0.0082246205 0.17633942
v 0.016559435 0.0101395035 0.19073857
v 0.013902666 0.0101395035 0.19059828
v 0.022274414 0.010139484 0.1765524
v 0.02513822 0.010139484 0.17633946
v 0.013902666 0.0101395035 0.19059828
v 0.016559435 0.0101395035 0.19073857
v 0.016559435 0.008233204 0.19073857
v 0.013902666 0.008233204 0.19059828
v 0.022274029 0.008233204 0.1765524
v 0.025138218 0.008233204 0.17633945
v 0.02513822 0.010139484 0.17633946
v 0.022274414 0.010139484 0.1765524
v 0.013902666 0.008233204 0.19059828
v 0.016559435 0.008233204 0.19073857
v 0.025138218 0.008233204 0.17633945
v 0.022274029 0.008233204 0.1765524
v 0.013902666 0.0101395035 0.19059828
v 0.013902666 0.008233204 0.19059828
v 0.022274029 0.008233204 0.1765524
v 0.022274414 0.010139484 0.1765524
v 0.016559435 0.008233204 0.19073857
v 0.016559435 0.0101395035 0.19073857
v 0.02513822 0.010139484 0.17633946
v 0.025138218 0.008233204 0.17633945
v -0.01661518 0.0101395035 0.19073854
v -0.02519393 0.0101395035 0.17633943
v -0.022330124 0.0101395035 0.17655237
v -0.013958411 0.0101395035 0.19059823
v -0.013958411 0.0101395035 0.19059823
v -0.013958411 0.008233204 0.19059825
v -0.01661518 0.008233204 0.19073856
v -0.01661518 0.0101395035 0.19073854
v -0.022329742 0.008233204 0.17655239
v -0.022330124 0.0101395035 0.17655237
v -0.02519393 0.0101395035 0.17633943
v -0.025193932 0.008233204 0.17633942
v -0.013958411 0.008233204 0.19059825
v -0.022329742 0.008233204 0.17655239
v -0.025193932 0.008233204 0.17633942
v -0.01661518 0.008233204 0.19073856
v -0.013958411 0.0101395035 0.19059823
v -0.022330124 0.0101395035 0.17655237
v -0.022329742 0.008233204 0.17655239
v -0.013958411 0.008233204 0.19059825
v -0.01661518 0.008233204 0.19073856
v -0.025193932 0.008233204 0.17633942
v -0.02519393 0.0101395035 0.17633943
v -0.01661518 0.0101395035 0.19073854
v -0.022961399 -6.7949295E-06 0.05547561
v -0.022937732 -6.275177E-06 0.054506123
v -0.02252504 0.004975047 0.05450613
v -0.022548119 0.0049745417 0.05547561
v -0.021362798 0.0092581315 0.05450612
v -0.021385424 0.009257636 0.055475608
v -0.019519141 0.012741575 0.05450612
v -0.019541789 0.012741065 0.055475608
v -0.017070929 0.015504317 0.054506123
v -0.017093334 0.015503826 0.055475608
v -0.014153621 0.017524041 0.054506123
v -0.014175589 0.01752356 0.055475608
v -0.0108478805 0.018910078 0.055475608
v -0.01082525 0.018910699 0.05450612
v -0.0072157877 0.019627595 0.05450612
v -0.007238569 0.019627098 0.055475608
v -0.00011258354 0.019720783 0.057888053
v -0.00012513781 0.019720191 0.059125654
v 0.0071789073 0.01963389 0.0554756
v 0.007198786 0.01963437 0.05450612
v 0.010788234 0.01892034 0.055475596
v 0.010807906 0.018920902 0.054506116
v 0.0141342115 0.017537441 0.05450611
v 0.014114444 0.017536998 0.055475596
v 0.017049627 0.015520429 0.054506116
v 0.017029624 0.015520009 0.055475596
v 0.019475782 0.012759566 0.055475593
v 0.019495703 0.012760005 0.054506116
v 0.021316197 0.009277911 0.055475596
v 0.021336064 0.009278345 0.05450611
v 0.022494579 0.004996357 0.05450611
v 0.022474002 0.004995904 0.055475593
v 0.022902442 1.540184E-05 0.05450611
v 0.022881927 1.4953613E-05 0.055475593
v -0.022529935 -0.0049872207 0.05450613
v -0.022937732 -6.275177E-06 0.054506123
v -0.022961399 -6.7949295E-06 0.05547561
v -0.022553071 -0.0049877306 0.055475608
v -0.021371936 -0.009269223 0.05450612
v -0.021394525 -0.009269719 0.0554756
v -0.01953165 -0.012750907 0.05450612
v -0.019554337 -0.012751407 0.05547561
v -0.017086195 -0.015511357 0.054506123
v -0.0171086 -0.015511837 0.05547561
v -0.01417084 -0.017528333 0.05450612
v -0.014192809 -0.017528841 0.055475608
v -0.010866495 -0.018912166 0.055475608
v -0.010843852 -0.018911798 0.054506123
v -0.007235076 -0.019625254 0.054506123
v -0.0072578643 -0.019625757 0.0554756
v -0.00013196957 -0.019715104 0.057915363
v -0.00014452013 -0.019715691 0.0591528
v 0.0071596154 -0.019618906 0.055475596
v 0.0071794894 -0.019618478 0.05450612
v 0.010769656 -0.01890191 0.0554756
v 0.010789343 -0.01890156 0.05450612
v 0.014116952 -0.017514937 0.054506116
v 0.014097182 -0.017515369 0.055475596
v 0.017034363 -0.015495204 0.05450612
v 0.017014373 -0.015495663 0.055475596
v 0.019483155 -0.0127324145 0.054506116
v 0.019463234 -0.012732868 0.055475593
v 0.021307055 -0.009249453 0.055475593
v 0.021326927 -0.009249029 0.05450611
v 0.022489691 -0.00496593 0.054506116
v 0.02246911 -0.004966378 0.055475596
v 0.022902442 1.540184E-05 0.05450611
v 0.022881927 1.4953613E-05 0.055475593
vt 0.46599606 0.14958043
vt 0.46599606 0.20717265
vt 0.47409716 0.2015347
vt 0.47409716 0.1453513
vt 0.44426736 0.28778076
vt 0.4377117 0.28778076
vt 0.4377117 0.29691714
vt 0.44426736 0.29691714
vt 0.44022197 0.3369975
vt 0.4336607 0.3369975
vt 0.4336607 0.3468541
vt 0.44022197 0.3468541
vt 0.46812508 0.07282072
vt 0.46812508 0.12900108
vt 0.4762592 0.13458633
vt 0.4762592 0.07699746
vt 0.37730178 0.3397777
vt 0.37730178 0.28017998
vt 0.3703538 0.28017998
vt 0.3703538 0.3397777
vt 0.3572831 0.27954292
vt 0.3572831 0.3406549
vt 0.36423358 0.3406549
vt 0.36423358 0.27954292
vt 1.465996 0.14958043
vt 1.4740971 0.1453513
vt 1.4740971 0.2015347
vt 1.465996 0.20717265
vt 1.4442674 0.28778076
vt 1.4442674 0.29691714
vt 1.4377117 0.29691714
vt 1.4377117 0.28778076
vt 1.440222 0.3369975
vt 1.440222 0.3468541
vt 1.4336607 0.3468541
vt 1.4336607 0.3369975
vt 1.4681251 0.07282072
vt 1.4762592 0.07699746
vt 1.4762592 0.13458633
vt 1.4681251 0.12900108
vt 1.3773018 0.3397777
vt 1.3703538 0.3397777
vt 1.3703538 0.28017998
vt 1.3773018 0.28017998
vt 1.3572831 0.27954292
vt 1.3642336 0.27954292
vt 1.3642336 0.3406549
vt 1.3572831 0.3406549
vt 1.465996 0.14958043
vt 1.4740971 0.1453513
vt 1.4740971 0.2015347
vt 1.465996 0.20717265
vt 1.4442674 0.28778076
vt 1.4442674 0.29691714
vt 1.4377117 0.29691714
vt 1.4377117 0.28778076
vt 1.440222 0.3369975
vt 1.440222 0.3468541
vt 1.4336607 0.3468541
vt 1.4336607 0.3369975
vt 1.4681251 0.07282072
vt 1.4762592 0.07699746
vt 1.4762592 0.13458633
vt 1.4681251 0.12900108
vt 1.3773018 0.3397777
vt 1.3703538 0.3397777
vt 1.3703538 0.28017998
vt 1.3773018 0.28017998
vt 1.3572831 0.27954292
vt 1.3642336 0.27954292
vt 1.3642336 0.3406549
vt 1.3572831 0.3406549
vt 1.465996 0.14958043
vt 1.465996 0.20717265
vt 1.4740971 0.2015347
vt 1.4740971 0.1453513
vt 1.4442674 0.28778076
vt 1.4377117 0.28778076
vt 1.4377117 0.29691714
vt 1.4442674 0.29691714
vt 1.440222 0.3369975
vt 1.4336607 0.3369975
vt 1.4336607 0.3468541
vt 1.440222 0.3468541
vt 1.4681251 0.07282072
vt 1.4681251 0.12900108
vt 1.4762592 0.13458633
vt 1.4762592 0.07699746
vt 1.3773018 0.3397777
vt 1.3773018 0.28017998
vt 1.3703538 0.28017998
vt 1.3703538 0.3397777
vt 1.3572831 0.27954292
vt 1.3572831 0.3406549
vt 1.3642336 0.3406549
vt 1.3642336 0.27954292
vt 0.84483624 0.09721936
vt 0.84482497 0.0956918
vt 0.83336556 0.0956918
vt 0.83336556 0.09721936
vt 0.82284117 0.0956918
vt 0.82284117 0.09721936
vt 0.81339324 0.0956918
vt 0.8133994 0.09721936
vt 0.8046142 0.0956918
vt 0.8046142 0.09721936
vt 0.7963724 0.0956918
vt 0.79637253 0.09721936
vt 0.788398 0.09721936
vt 0.788398 0.0956918
vt 0.77941173 0.0956918
vt 0.77941173 0.09721936
vt 0.76515687 0.103181936
vt 0.76515687 0.10462075
vt 0.7507423 0.09721936
vt 0.75072986 0.09577637
vt 0.7425381 0.09721936
vt 0.742538 0.09577637
vt 0.73457545 0.09577637
vt 0.73457545 0.09721936
vt 0.72625875 0.09577637
vt 0.72625875 0.09721936
vt 0.7174822 0.09721936
vt 0.7174822 0.09577637
vt 0.7079033 0.09721936
vt 0.7079033 0.09577637
vt 0.69741607 0.09577637
vt 0.69741607 0.09721936
vt 0.6858983 0.09577637
vt 0.6858983 0.09721936
vt 0.83336556 0.0956918
vt 0.84482497 0.0956918
vt 0.84483624 0.09721936
vt 0.83336556 0.09721936
vt 0.82284117 0.0956918
vt 0.82284117 0.09721936
vt 0.81339324 0.0956918
vt 0.8133994 0.09721936
vt 0.8046142 0.0956918
vt 0.8046142 0.09721936
vt 0.7963724 0.0956918
vt 0.79637253 0.09721936
vt 0.788398 0.09721936
vt 0.788398 0.0956918
vt 0.77941173 0.0956918
vt 0.77941173 0.09721936
vt 0.76515687 0.103181936
vt 0.76515687 0.10462075
vt 0.7507423 0.09721936
vt 0.75072986 0.09577637
vt 0.7425381 0.09721936
vt 0.742538 0.09577637
vt 0.73457545 0.09577637
vt 0.73457545 0.09721936
vt 0.72625875 0.09577637
vt 0.72625875 0.09721936
vt 0.7174822 0.09577637
vt 0.7174822 0.09721936
vt 0.7079033 0.09721936
vt 0.7079033 0.09577637
vt 0.69741607 0.09577637
vt 0.69741607 0.09721936
vt 0.6858983 0.09577637
vt 0.6858983 0.09721936
vn -0 -1 6.7067197E-07
vn -0 -1 6.7067197E-07
vn -0 -1 6.7067197E-07
vn -0 -1 6.7067197E-07
vn -0.05273746 4.166519E-07 0.9986084
vn -0.05273746 4.166519E-07 0.9986084
vn -0.05273746 4.166519E-07 0.9986084
vn -0.05273746 4.166519E-07 0.9986084
vn -0.074147284 -1.2778076E-05 -0.9972473
vn -0.074147284 -1.2778076E-05 -0.9972473
vn -0.07414729 -1.2778077E-05 -0.9972473
vn -0.074147284 -1.2778077E-05 -0.9972473
vn 1.06312946E-07 1 -5.4247084E-07
vn 1.06312946E-07 1 -5.4247084E-07
vn 1.06312946E-07 1 -5.4247084E-07
vn 1.06312946E-07 1 -5.4247084E-07
vn -0.8589991 -8.60717E-05 -0.511977
vn -0.8589992 -8.607173E-05 -0.5119771
vn -0.8589991 -8.6071705E-05 -0.511977
vn -0.8589991 -8.6071705E-05 -0.511977
vn 0.8590861 2.2655854E-06 0.51183116
vn 0.8590861 2.2655854E-06 0.51183116
vn 0.8590861 2.2655852E-06 0.51183116
vn 0.8590861 2.2655856E-06 0.51183116
vn -0 -1 5.017123E-07
vn -0 -1 5.017123E-07
vn -0 -1 5.017123E-07
vn -0 -1 5.017123E-07
vn 0.052735988 4.1665194E-07 0.9986085
vn 0.052735988 4.1665194E-07 0.9986085
vn 0.05273599 4.1665191E-07 0.9986085
vn 0.052735996 4.1665194E-07 0.9986085
vn 0.074148774 -1.2964142E-05 -0.99724716
vn 0.07414877 -1.2964142E-05 -0.99724716
vn 0.07414878 -1.2964143E-05 -0.99724716
vn 0.07414877 -1.2964142E-05 -0.99724716
vn 3.2672003E-07 1 -6.3287575E-07
vn 3.2672003E-07 1 -6.3287575E-07
vn 3.2672008E-07 1 -6.3287575E-07
vn 3.2672003E-07 1 -6.3287575E-07
vn 0.8590002 -8.721913E-05 -0.5119752
vn 0.8590002 -8.721913E-05 -0.5119752
vn 0.8590002 -8.721913E-05 -0.5119752
vn 0.8590002 -8.7219116E-05 -0.5119752
vn -0.85908717 3.2449655E-06 0.5118293
vn -0.85908717 3.2449655E-06 0.5118294
vn -0.85908717 3.2449655E-06 0.5118293
vn -0.85908717 3.2449657E-06 0.5118294
vn -0 1 -6.7067185E-07
vn -0 1 -6.7067185E-07
vn -0 1 -6.7067185E-07
vn -0 1 -6.7067197E-07
vn -0.052737456 4.1665186E-07 0.9986084
vn -0.052737456 4.1665186E-07 0.9986084
vn -0.052737456 4.1665186E-07 0.9986084
vn -0.052737456 4.1665186E-07 0.9986084
vn -0.074147284 1.2130912E-05 -0.9972473
vn -0.074147284 1.2130912E-05 -0.9972473
vn -0.07414729 1.2130912E-05 -0.9972473
vn -0.07414728 1.2130911E-05 -0.9972473
vn -1.0631294E-07 -1 5.4247084E-07
vn -1.0631294E-07 -1 5.4247084E-07
vn -1.06312946E-07 -1 5.4247084E-07
vn -1.06312946E-07 -1 5.4247084E-07
vn -0.8589991 8.679179E-05 -0.511977
vn -0.8589991 8.679179E-05 -0.511977
vn -0.8589992 8.67918E-05 -0.511977
vn -0.8589992 8.67918E-05 -0.511977
vn 0.85908616 -2.9111332E-06 0.51183105
vn 0.8590861 -2.911133E-06 0.51183116
vn 0.8590861 -2.911133E-06 0.51183116
vn 0.8590861 -2.9111325E-06 0.5118311
vn -0 1 -5.017123E-07
vn -0 1 -5.017123E-07
vn -0 1 -5.017123E-07
vn -0 1 -5.017123E-07
vn 0.052735988 4.1665191E-07 0.9986085
vn 0.052735988 4.1665191E-07 0.9986085
vn 0.052735988 4.1665194E-07 0.9986085
vn 0.052735988 4.1665191E-07 0.9986085
vn 0.07414877 1.1945909E-05 -0.99724716
vn 0.074148774 1.1945909E-05 -0.99724716
vn 0.07414878 1.194591E-05 -0.99724716
vn 0.07414877 1.194591E-05 -0.99724716
vn -3.2672003E-07 -1 6.3287575E-07
vn -3.2672003E-07 -1 6.328758E-07
vn -3.2672003E-07 -1 6.3287575E-07
vn -3.2672003E-07 -1 6.3287575E-07
vn 0.8590002 8.574007E-05 -0.5119752
vn 0.85900015 8.574006E-05 -0.5119753
vn 0.8590002 8.574007E-05 -0.5119752
vn 0.8590002 8.574007E-05 -0.5119752
vn -0.8590872 -1.8384814E-06 0.5118293
vn -0.8590872 -1.8384811E-06 0.5118293
vn -0.8590872 -1.8384814E-06 0.5118293
vn -0.8590872 -1.8384814E-06 0.5118293
vn -1 -5.165067E-07 1.8663519E-06
vn -1 -4.785699E-07 1.8663522E-06
vn -0.9892669 0.14612052 1.4109609E-06
vn -0.9892485 0.14624377 1.4102831E-06
vn -0.9480807 0.3180295 3.5999452E-07
vn -0.94805545 0.31810492 3.5949188E-07
vn -0.8602612 0.50985366 -4.995253E-07
vn -0.8602671 0.5098437 -4.9950154E-07
vn -0.7178847 0.6961619 -7.057385E-07
vn -0.71765715 0.6963967 -7.0567484E-07
vn -0.5351082 0.8447835 3.0495967E-05
vn -0.5351799 0.84473807 3.0472534E-05
vn -0.3334412 0.94277096 6.385727E-05
vn -0.33318713 0.9428608 6.3862615E-05
vn -0.13401309 0.9909797 3.8571634E-05
vn -0.09775629 0.99521047 2.7858021E-05
vn -2.9041937E-07 1 -7.217376E-07
vn -2.9349053E-07 1 -7.1325144E-07
vn 0.09787331 0.9951989 3.0225101E-05
vn 0.13279009 0.9911442 4.1156873E-05
vn 0.3333007 0.94282055 6.7560024E-05
vn 0.3336177 0.94270843 6.755067E-05
vn 0.5350377 0.8448282 3.097757E-05
vn 0.53543043 0.84457934 3.083961E-05
vn 0.7176473 0.69640666 -2.6659532E-06
vn 0.71772385 0.69632775 -2.666044E-06
vn 0.8601081 0.510112 -1.7153197E-06
vn 0.8603651 0.50967824 -1.7106015E-06
vn 0.9480845 0.3180186 2.509159E-07
vn 0.9480745 0.31804842 2.506286E-07
vn 0.98923534 0.1463329 1.2938347E-06
vn 0.9892691 0.14610496 1.29424E-06
vn 1 5.033993E-07 1.4556576E-06
vn 1 4.6399182E-07 1.4556579E-06
vn -0.98926675 -0.1461213 1.5504263E-06
vn -1 -4.785699E-07 1.8663522E-06
vn -1 -5.165067E-07 1.8663519E-06
vn -0.9892484 -0.14624453 1.5498621E-06
vn -0.94808066 -0.31803018 6.3762184E-07
vn -0.9480553 -0.31810546 6.371727E-07
vn -0.86026084 -0.5098544 -2.7053034E-07
vn -0.86026675 -0.50984424 -2.7049444E-07
vn -0.7178842 -0.6961625 -5.9325464E-07
vn -0.7176563 -0.6963975 -5.9319325E-07
vn -0.5351075 -0.8447839 3.1246498E-05
vn -0.53517914 -0.8447386 3.122261E-05
vn -0.33344054 -0.94277114 6.562596E-05
vn -0.33318642 -0.9428609 6.56322E-05
vn -0.13401231 -0.9909797 4.043168E-05
vn -0.09775562 -0.99521047 2.9605957E-05
vn 4.0407195E-07 -1 4.1460936E-07
vn 4.0400354E-07 -1 4.1460763E-07
vn 0.097874135 -0.9951988 3.1056523E-05
vn 0.13279085 -0.99114406 4.1987172E-05
vn 0.33330137 -0.9428203 6.835147E-05
vn 0.33361834 -0.9427082 6.834199E-05
vn 0.53503835 -0.84482783 3.1388972E-05
vn 0.535431 -0.8445789 3.1249623E-05
vn 0.7176481 -0.6964059 -2.6015605E-06
vn 0.7177244 -0.6963274 -2.6016537E-06
vn 0.86036557 -0.5096775 -1.5068838E-06
vn 0.8601084 -0.51011115 -1.5122342E-06
vn 0.9480847 -0.3180179 5.232018E-07
vn 0.94807476 -0.31804785 5.2293655E-07
vn 0.98923546 -0.14633214 1.4198056E-06
vn 0.9892692 -0.1461042 1.419991E-06
vn 1 5.033993E-07 1.4556576E-06
vn 1 4.6399182E-07 1.4556579E-06
g S_wpn_sword_0016_vfx_01_lod0_0
f 3/3/3 2/2/2 1/1/1
f 4/4/4 3/3/3 1/1/1
f 7/7/7 6/6/6 5/5/5
f 8/8/8 7/7/7 5/5/5
f 11/11/11 10/10/10 9/9/9
f 12/12/12 11/11/11 9/9/9
f 15/15/15 14/14/14 13/13/13
f 16/16/16 15/15/15 13/13/13
f 19/19/19 18/18/18 17/17/17
f 20/20/20 19/19/19 17/17/17
f 23/23/23 22/22/22 21/21/21
f 24/24/24 23/23/23 21/21/21
f 27/27/27 26/26/26 25/25/25
f 28/28/28 27/27/27 25/25/25
f 31/31/31 30/30/30 29/29/29
f 32/32/32 31/31/31 29/29/29
f 35/35/35 34/34/34 33/33/33
f 36/36/36 35/35/35 33/33/33
f 39/39/39 38/38/38 37/37/37
f 40/40/40 39/39/39 37/37/37
f 43/43/43 42/42/42 41/41/41
f 44/44/44 43/43/43 41/41/41
f 47/47/47 46/46/46 45/45/45
f 48/48/48 47/47/47 45/45/45
f 51/51/51 50/50/50 49/49/49
f 52/52/52 51/51/51 49/49/49
f 55/55/55 54/54/54 53/53/53
f 56/56/56 55/55/55 53/53/53
f 59/59/59 58/58/58 57/57/57
f 60/60/60 59/59/59 57/57/57
f 63/63/63 62/62/62 61/61/61
f 64/64/64 63/63/63 61/61/61
f 67/67/67 66/66/66 65/65/65
f 68/68/68 67/67/67 65/65/65
f 71/71/71 70/70/70 69/69/69
f 72/72/72 71/71/71 69/69/69
f 75/75/75 74/74/74 73/73/73
f 76/76/76 75/75/75 73/73/73
f 79/79/79 78/78/78 77/77/77
f 80/80/80 79/79/79 77/77/77
f 83/83/83 82/82/82 81/81/81
f 84/84/84 83/83/83 81/81/81
f 87/87/87 86/86/86 85/85/85
f 88/88/88 87/87/87 85/85/85
f 91/91/91 90/90/90 89/89/89
f 92/92/92 91/91/91 89/89/89
f 95/95/95 94/94/94 93/93/93
f 96/96/96 95/95/95 93/93/93
f 99/99/99 98/98/98 97/97/97
f 100/100/100 99/99/99 97/97/97
f 101/101/101 99/99/99 100/100/100
f 102/102/102 101/101/101 100/100/100
f 103/103/103 101/101/101 102/102/102
f 104/104/104 103/103/103 102/102/102
f 105/105/105 103/103/103 104/104/104
f 106/106/106 105/105/105 104/104/104
f 107/107/107 105/105/105 106/106/106
f 108/108/108 107/107/107 106/106/106
f 108/108/108 109/109/109 107/107/107
f 109/109/109 110/110/110 107/107/107
f 111/111/111 110/110/110 109/109/109
f 112/112/112 111/111/111 109/109/109
f 111/111/111 112/112/112 113/113/113
f 112/112/112 114/114/114 113/113/113
f 114/114/114 115/115/115 113/113/113
f 115/115/115 116/116/116 113/113/113
f 115/115/115 117/117/117 116/116/116
f 117/117/117 118/118/118 116/116/116
f 119/119/119 118/118/118 117/117/117
f 120/120/120 119/119/119 117/117/117
f 121/121/121 119/119/119 120/120/120
f 122/122/122 121/121/121 120/120/120
f 122/122/122 123/123/123 121/121/121
f 123/123/123 124/124/124 121/121/121
f 123/123/123 125/125/125 124/124/124
f 125/125/125 126/126/126 124/124/124
f 127/127/127 126/126/126 125/125/125
f 128/128/128 127/127/127 125/125/125
f 129/129/129 127/127/127 128/128/128
f 130/130/130 129/129/129 128/128/128
f 133/133/133 132/132/132 131/131/131
f 134/134/134 133/133/133 131/131/131
f 134/134/134 131/131/131 135/135/135
f 136/136/136 134/134/134 135/135/135
f 136/136/136 135/135/135 137/137/137
f 138/138/138 136/136/136 137/137/137
f 138/138/138 137/137/137 139/139/139
f 140/140/140 138/138/138 139/139/139
f 140/140/140 139/139/139 141/141/141
f 142/142/142 140/140/140 141/141/141
f 143/143/143 142/142/142 141/141/141
f 144/144/144 143/143/143 141/141/141
f 143/143/143 144/144/144 145/145/145
f 146/146/146 143/143/143 145/145/145
f 146/146/146 145/145/145 147/147/147
f 148/148/148 146/146/146 147/147/147
f 149/149/149 148/148/148 147/147/147
f 150/150/150 149/149/149 147/147/147
f 151/151/151 149/149/149 150/150/150
f 152/152/152 151/151/151 150/150/150
f 151/151/151 152/152/152 153/153/153
f 154/154/154 151/151/151 153/153/153
f 154/154/154 153/153/153 155/155/155
f 156/156/156 154/154/154 155/155/155
f 156/156/156 155/155/155 157/157/157
f 158/158/158 156/156/156 157/157/157
f 159/159/159 158/158/158 157/157/157
f 160/160/160 159/159/159 157/157/157
f 159/159/159 160/160/160 161/161/161
f 162/162/162 159/159/159 161/161/161
f 162/162/162 161/161/161 163/163/163
f 164/164/164 162/162/162 163/163/163
