g S_wpn_misc_0022_03_lod0
v 0.38287833 -0.27897787 0.40101463
v 0.15792547 -0.2852817 0.34474474
v 0.09510643 -0.2849394 0.5816254
v 0.31993347 -0.27847433 0.6466076
v 0.20198104 -0.2922127 0.19515702
v 0.014624776 -0.29707652 0.19315585
v 0.012756068 -0.29669392 0.3486521
v 0.19926561 -0.29165563 0.42365134
v 0.091304526 -0.27509195 0.41434333
v 0.04791677 -0.27509192 0.41041183
v 0.07295708 -0.27509195 0.4460621
v 0.11634488 -0.27509195 0.44999358
v -0.20198104 -0.2922127 0.19515702
v -0.19926561 -0.29165563 0.42365134
v -0.012756068 -0.29669392 0.3486521
v -0.014624776 -0.29707652 0.19315585
v -0.091304526 -0.27509195 0.41434333
v -0.11634488 -0.27509195 0.44999358
v -0.07295708 -0.27509195 0.4460621
v -0.04791677 -0.27509192 0.41041183
vt 0.51005137 0.991814
vt 0.7592799 0.99181396
vt 0.7592798 0.72520053
vt 0.51005125 0.7252006
vt 0.9881276 0.76124644
vt 0.8375522 0.76124644
vt 0.8375522 0.88037014
vt 0.9881277 0.9417041
vt 0.83645 0.7044169
vt 0.7722802 0.70441693
vt 0.81268907 0.75428516
vt 0.87685853 0.7542851
vt 0.9881276 0.76124644
vt 0.9881277 0.9417041
vt 0.8375522 0.88037014
vt 0.8375522 0.76124644
vt 0.83645 0.7044169
vt 0.87685853 0.7542851
vt 0.81268907 0.75428516
vt 0.7722802 0.70441693
vn 0.026073799 -0.9996234 0.00854898
vn 0.0260738 -0.9996234 0.008548981
vn 0.026073799 -0.9996234 0.008548981
vn 0.0260738 -0.9996234 0.008548981
vn 0.025909215 -0.9996605 0.002755607
vn 0.025909215 -0.9996605 0.002755607
vn 0.025909217 -0.9996605 0.0027556072
vn 0.025909219 -0.9996605 0.0027556072
vn -4.17711E-07 -1 -2.4162142E-07
vn -4.17711E-07 -1 -2.4162142E-07
vn -4.17711E-07 -1 -2.4162142E-07
vn -4.17711E-07 -1 -2.416214E-07
vn -0.025909215 -0.9996605 0.0027556068
vn -0.025909219 -0.9996605 0.002755607
vn -0.025909217 -0.9996605 0.0027556068
vn -0.025909215 -0.9996605 0.0027556068
vn 4.17711E-07 -1 -2.4162142E-07
vn 4.17711E-07 -1 -2.416214E-07
vn 4.17711E-07 -1 -2.4162142E-07
vn 4.17711E-07 -1 -2.4162142E-07
g S_wpn_misc_0022_03_lod0_0
f 3/3/3 2/2/2 1/1/1
f 4/4/4 3/3/3 1/1/1
f 7/7/7 6/6/6 5/5/5
f 8/8/8 7/7/7 5/5/5
f 11/11/11 10/10/10 9/9/9
f 12/12/12 11/11/11 9/9/9
f 15/15/15 14/14/14 13/13/13
f 16/16/16 15/15/15 13/13/13
f 19/19/19 18/18/18 17/17/17
f 20/20/20 19/19/19 17/17/17
