g S_wpn_pistol_0010_vxf_01_lod0
v 0.15044703 -0.008245987 0.0046233027
v 0.15029712 -0.007594281 0.007067437
v 0.15241754 -0.0061978674 0.009037922
v 0.15932846 -0.0063406113 -0.0007443999
v 0.15692507 -0.008041056 -0.004449485
v 0.16062035 -0.006450984 -0.001958532
v 0.15831545 -0.008047444 -0.0054708165
v 0.16284591 -0.006642257 -0.0025953986
v 0.15998337 -0.008104849 -0.005988043
v 0.18059215 -0.0070163314 -0.0034451573
v 0.18127197 -0.008155673 -0.00674712
v 0.18319136 -0.008233585 -0.006393603
v 0.1832276 -0.006868884 -0.002126079
v 0.18502827 -0.007936604 -0.0048413402
v 0.19567136 -0.00682689 0.008861219
v 0.19937742 -0.007754344 0.007871416
v 0.19648774 -0.0066920538 0.0107482625
v 0.20029035 -0.0077226036 0.010060413
v 0.1964224 -0.00675757 0.03295368
v 0.19956425 -0.0073368996 0.034995828
v 0.19392674 -0.006677286 0.035750635
v 0.19729178 -0.0075169 0.039395846
v 0.19022936 -0.0063193385 0.036969867
v 0.19330448 -0.0075735333 0.041500695
v 0.1357156 -0.006547433 0.038050607
v 0.13282907 -0.007866453 0.042575613
v 0.15044703 0.008245987 0.0046233027
v 0.15241754 0.0061978674 0.009037922
v 0.15029712 0.007594281 0.007067437
v 0.15932846 0.0063406113 -0.0007443999
v 0.15692507 0.008041056 -0.004449485
v 0.16062035 0.006450984 -0.001958532
v 0.15831545 0.008047444 -0.0054708165
v 0.16284591 0.006642257 -0.0025953986
v 0.15998337 0.008104849 -0.005988043
v 0.18059215 0.0070163314 -0.0034451573
v 0.18127197 0.008155673 -0.00674712
v 0.18319136 0.008233585 -0.006393603
v 0.1832276 0.006868884 -0.002126079
v 0.18502827 0.007936604 -0.0048413402
v 0.19567136 0.00682689 0.008861219
v 0.19937742 0.007754344 0.007871416
v 0.19648774 0.0066920538 0.0107482625
v 0.20029035 0.0077226036 0.010060413
v 0.1964224 0.00675757 0.03295368
v 0.19956425 0.0073368996 0.034995828
v 0.19392674 0.006677286 0.035750635
v 0.19729178 0.0075169 0.039395846
v 0.19022936 0.0063193385 0.036969867
v 0.19330448 0.0075735333 0.041500695
v 0.1357156 0.006547433 0.038050607
v 0.13282907 0.007866453 0.042575613
vt 0.14646071 0.09877956
vt 0.14370573 0.122198135
vt 0.16371055 0.14508282
vt 0.24431211 0.05566587
vt 0.23411907 0.019990347
vt 0.25614044 0.05052983
vt 0.25485948 0.012953123
vt 0.26609552 0.04440493
vt 0.25909138 0.0107852565
vt 0.43844223 0.03453433
vt 0.4465291 0.0048828125
vt 0.465035 0.009520712
vt 0.46347278 0.048492257
vt 0.48220712 0.025021778
vt 0.5540167 0.14291866
vt 0.5707838 0.12556355
vt 0.5777924 0.1918294
vt 0.6067546 0.1877712
vt 0.574981 0.41028073
vt 0.59437937 0.42763746
vt 0.55872494 0.42674285
vt 0.58191824 0.45889488
vt 0.51384246 0.444795
vt 0.5426232 0.4875374
vt 0.0048828125 0.45579112
vt 0.0073262304 0.49807432
vt 0.14646071 0.59582245
vt 0.16371055 0.64212567
vt 0.14370573 0.619241
vt 0.24431211 0.55270875
vt 0.23411907 0.5170332
vt 0.25614044 0.54757273
vt 0.25485948 0.509996
vt 0.26609552 0.5414478
vt 0.25909138 0.5078281
vt 0.43844223 0.5315772
vt 0.4465291 0.5019257
vt 0.465035 0.5065636
vt 0.46347278 0.54553515
vt 0.48220712 0.5220647
vt 0.5540167 0.63996154
vt 0.5707838 0.6226064
vt 0.5777924 0.6888723
vt 0.6067546 0.6848141
vt 0.574981 0.9073236
vt 0.59437937 0.92468035
vt 0.55872494 0.92378575
vt 0.58191824 0.95593774
vt 0.51384246 0.9418379
vt 0.5426232 0.9845803
vt 0.0048828125 0.952834
vt 0.0073262304 0.9951172
vn 0.33907697 -0.91015834 0.23798864
vn 0.34963843 -0.899698 0.26133603
vn 0.33914438 -0.9100946 0.23813643
vn 0.3259743 -0.9135065 0.24340606
vn 0.31677297 -0.91566074 0.24742743
vn 0.12271295 -0.933514 0.3368875
vn 0.12949091 -0.93384933 0.33340278
vn 0.0077136145 -0.93227226 0.36167523
vn 0.014189805 -0.9315638 0.3633008
vn -0.00244657 -0.93404245 0.35715374
vn -0.00077594543 -0.93369174 0.3580769
vn -0.0991709 -0.94720966 0.30489177
vn -0.18570201 -0.95447946 0.23341751
vn -0.18631348 -0.9544391 0.23309508
vn -0.19563007 -0.95591456 0.21898893
vn -0.1988046 -0.95747894 0.20907149
vn -0.22610815 -0.97398335 0.015215072
vn -0.22611204 -0.9739853 0.015030399
vn -0.21177839 -0.9772356 -0.012673562
vn -0.20088847 -0.9793158 -0.02417484
vn -0.11771356 -0.9835292 -0.13716367
vn -0.118239686 -0.98371696 -0.13535261
vn -0.005725338 -0.9632604 -0.26850832
vn -0.013451044 -0.9652465 -0.26099476
vn -0.0007652547 -0.9619243 -0.2733149
vn -0.0007652546 -0.9619243 -0.27331486
vn 0.33907697 0.91015834 0.23798877
vn 0.33914435 0.91009456 0.23813654
vn 0.3496383 0.8996974 0.26133788
vn 0.3259743 0.9135065 0.24340636
vn 0.3167729 0.9156606 0.24742772
vn 0.12271272 0.93351376 0.3368883
vn 0.12949067 0.93384916 0.3334037
vn 0.007713592 0.93227226 0.36167523
vn 0.014189748 0.9315638 0.3633008
vn -0.0024465781 0.93404245 0.35715362
vn -0.0007759547 0.93369174 0.35807705
vn -0.09917097 0.9472098 0.30489126
vn -0.18570201 0.95447946 0.2334174
vn -0.18631351 0.95443916 0.23309496
vn -0.19563013 0.9559147 0.21898882
vn -0.19880453 0.95747894 0.2090711
vn -0.22610815 0.97398335 0.015214841
vn -0.22611207 0.9739853 0.015030169
vn -0.21177839 0.9772356 -0.012673524
vn -0.20088845 0.9793158 -0.024174716
vn -0.117713556 0.9835292 -0.13716327
vn -0.11823969 0.9837171 -0.13535222
vn -0.0057253367 0.9632604 -0.26850834
vn -0.013451047 0.9652465 -0.2609948
vn -0.00076525204 0.9619243 -0.27331492
vn -0.00076525204 0.9619243 -0.2733149
g S_wpn_pistol_0010_vxf_01_lod0_0
f 3/3/3 2/2/2 1/1/1
f 3/3/3 1/1/1 4/4/4
f 1/1/1 5/5/5 4/4/4
f 6/6/6 4/4/4 5/5/5
f 7/7/7 6/6/6 5/5/5
f 6/6/6 7/7/7 8/8/8
f 7/7/7 9/9/9 8/8/8
f 10/10/10 8/8/8 9/9/9
f 11/11/11 10/10/10 9/9/9
f 10/10/10 11/11/11 12/12/12
f 10/10/10 12/12/12 13/13/13
f 12/12/12 14/14/14 13/13/13
f 13/13/13 14/14/14 15/15/15
f 14/14/14 16/16/16 15/15/15
f 17/17/17 15/15/15 16/16/16
f 18/18/18 17/17/17 16/16/16
f 17/17/17 18/18/18 19/19/19
f 18/18/18 20/20/20 19/19/19
f 19/19/19 20/20/20 21/21/21
f 20/20/20 22/22/22 21/21/21
f 23/23/23 21/21/21 22/22/22
f 24/24/24 23/23/23 22/22/22
f 25/25/25 23/23/23 24/24/24
f 26/26/26 25/25/25 24/24/24
f 29/29/29 28/28/28 27/27/27
f 27/27/27 28/28/28 30/30/30
f 31/31/31 27/27/27 30/30/30
f 30/30/30 32/32/32 31/31/31
f 32/32/32 33/33/33 31/31/31
f 33/33/33 32/32/32 34/34/34
f 35/35/35 33/33/33 34/34/34
f 34/34/34 36/36/36 35/35/35
f 36/36/36 37/37/37 35/35/35
f 37/37/37 36/36/36 38/38/38
f 38/38/38 36/36/36 39/39/39
f 40/40/40 38/38/38 39/39/39
f 40/40/40 39/39/39 41/41/41
f 42/42/42 40/40/40 41/41/41
f 41/41/41 43/43/43 42/42/42
f 43/43/43 44/44/44 42/42/42
f 44/44/44 43/43/43 45/45/45
f 46/46/46 44/44/44 45/45/45
f 46/46/46 45/45/45 47/47/47
f 48/48/48 46/46/46 47/47/47
f 47/47/47 49/49/49 48/48/48
f 49/49/49 50/50/50 48/48/48
f 49/49/49 51/51/51 50/50/50
f 51/51/51 52/52/52 50/50/50
