g S_wpn_pistol_0011_vfx_01_lod0
v 0.045472622 0.018071232 0.06631226
v 0.08610723 0.018071232 0.06631226
v 0.08610723 0.018071236 0.07517019
v 0.045472622 0.018071234 0.07517018
v 0.08610723 -0.01807126 0.07517019
v 0.08610723 -0.018071262 0.06631225
v 0.045472622 -0.018071262 0.06631225
v 0.045472622 -0.018071258 0.075170174
vt 1.0530087 0.010996984
vt 1.0530087 0.99664325
vt 1.3288662 0.99664325
vt 1.3288662 0.010996984
vt 1.3288662 0.99664325
vt 1.0530087 0.99664325
vt 1.0530087 0.010996984
vt 1.3288662 0.010996984
vn -0 1 -3.3644812E-07
vn -0 1 -3.3644812E-07
vn -0 1 -3.3644812E-07
vn -0 1 -3.3644815E-07
vn -0 -1 3.3644804E-07
vn -0 -1 3.3644807E-07
vn -0 -1 3.3644807E-07
vn -0 -1 3.3644807E-07
g S_wpn_pistol_0011_vfx_01_lod0_0
f 3/3/3 2/2/2 1/1/1
f 4/4/4 3/3/3 1/1/1
f 7/7/7 6/6/6 5/5/5
f 8/8/8 7/7/7 5/5/5
