g S_wpn_funnel_0013_vfx_01_lod0
v 0.06604065 0.06016612 0.00055700814
v 0.06603199 0.060174096 -0.0010890587
v 0.06612212 0.06009121 -0.0002973942
v 0.0657327 0.060449388 0.0010136408
v 0.06603199 0.060174096 -0.0010890587
v 0.06572824 0.06045349 -0.0016966108
v 0.06535891 0.060793206 0.0012948789
v 0.06535891 0.060793206 -0.0019468353
v 0.060484342 0.06527677 -0.0019313043
v 0.060484342 0.06527681 0.0012793317
v 0.060376536 0.06537597 0.0011905206
v 0.060380954 0.06537186 -0.0018854052
v 0.060304455 0.06544223 0.0009850487
v 0.060380954 0.06537186 -0.0018854052
v 0.06030451 0.06544223 -0.0017410084
v -0.074271895 0.020464327 0.0031888457
v -0.072447196 0.02993482 -0.0006942436
v -0.07180136 0.02993482 0.0031844059
v -0.06834518 0.038921688 0.003195223
v -0.06346859 0.049093597 -0.0006942436
v -0.062371086 0.04908901 0.003214596
v -0.06346859 0.049093597 -0.0006942436
v -0.06834518 0.038921688 0.003195223
v -0.069227435 0.038921688 -0.0006942436
v -0.07180136 0.02993482 0.0031844059
v -0.069227435 0.038921688 -0.0006942436
v -0.06834518 0.038921688 0.003195223
v -0.069227435 0.038921688 -0.0006942436
v -0.07180136 0.02993482 0.0031844059
v -0.072447196 0.02993482 -0.0006942436
v -0.072447196 0.02993482 -0.0006942436
v -0.07426922 0.020462906 -0.0046131737
v -0.0717954 0.02993482 -0.004608653
v -0.06346859 0.049093597 -0.0006942436
v -0.06833705 0.038921688 -0.0046195667
v -0.06236097 0.04908898 -0.004639134
v -0.06833705 0.038921688 -0.0046195667
v -0.06346859 0.049093597 -0.0006942436
v -0.069227435 0.038921688 -0.0006942436
v -0.069227435 0.038921688 -0.0006942436
v -0.0717954 0.02993482 -0.004608653
v -0.06833705 0.038921688 -0.0046195667
v -0.0717954 0.02993482 -0.004608653
v -0.069227435 0.038921688 -0.0006942436
v -0.072447196 0.02993482 -0.0006942436
v -0.061340928 0.051523775 -0.0006942436
v -0.062371086 0.04908901 0.003214596
v -0.06346859 0.049093597 -0.0006942436
v -0.06236097 0.04908898 -0.004639134
v -0.061340928 0.051523775 -0.0006942436
v -0.06346859 0.049093597 -0.0006942436
v -0.060303573 0.06544223 0.0009850487
v -0.06038007 0.06537186 -0.0018854052
v -0.060303625 0.06544223 -0.0017410084
v -0.06038007 0.06537186 -0.0018854052
v -0.06037566 0.06537597 0.0011905206
v -0.06037566 0.06537597 0.0011905206
v -0.060483463 0.06527677 -0.0019313043
v -0.06048346 0.06527681 0.0012793317
v -0.06535803 0.060793206 0.0012948789
v -0.06535802 0.060793206 -0.0019468353
v -0.06572737 0.06045349 -0.0016966108
v -0.06573182 0.060449388 0.0010136408
v -0.06603111 0.060174096 -0.0010890587
v -0.06603978 0.06016612 0.00055700814
v -0.06603978 0.06016612 0.00055700814
v -0.06612124 0.06009121 -0.0002973942
v 0.07244808 0.02993482 -0.0006942436
v 0.07427278 0.020464327 0.0031888457
v 0.07180224 0.02993482 0.0031844059
v 0.06834607 0.038921688 0.003195223
v 0.06346947 0.049093597 -0.0006942436
v 0.06922832 0.038921688 -0.0006942436
v 0.06346947 0.049093597 -0.0006942436
v 0.06834607 0.038921688 0.003195223
v 0.06237197 0.04908901 0.003214596
v 0.07180224 0.02993482 0.0031844059
v 0.06922832 0.038921688 -0.0006942436
v 0.07244808 0.02993482 -0.0006942436
v 0.06922832 0.038921688 -0.0006942436
v 0.07180224 0.02993482 0.0031844059
v 0.06834607 0.038921688 0.003195223
v 0.07427011 0.020462872 -0.0046131737
v 0.07244808 0.02993482 -0.0006942436
v 0.07179629 0.02993482 -0.004608653
v 0.06346947 0.049093597 -0.0006942436
v 0.06833795 0.038921688 -0.0046195667
v 0.06922832 0.038921688 -0.0006942436
v 0.06833795 0.038921688 -0.0046195667
v 0.06346947 0.049093597 -0.0006942436
v 0.062361855 0.04908898 -0.004639134
v 0.06922832 0.038921688 -0.0006942436
v 0.07179629 0.02993482 -0.004608653
v 0.07244808 0.02993482 -0.0006942436
v 0.07179629 0.02993482 -0.004608653
v 0.06922832 0.038921688 -0.0006942436
v 0.06833795 0.038921688 -0.0046195667
v 0.06237197 0.04908901 0.003214596
v 0.061341804 0.051523775 -0.0006942436
v 0.06346947 0.049093597 -0.0006942436
v 0.061341804 0.051523775 -0.0006942436
v 0.062361855 0.04908898 -0.004639134
v 0.06346947 0.049093597 -0.0006942436
v 0.08509169 0.002188977 0.065513246
v 0.08328401 0.0019523627 0.06762771
v 0.0842211 0.0022365067 0.066685855
v 0.08509169 0.002188977 0.065513246
v 0.08534866 0.0016396425 0.064655595
v 0.08238002 0.001269448 0.06814558
v 0.08536187 0.0009364178 0.06396652
v 0.08181527 0.00050419563 0.06814556
v 0.07799201 -0.0091529945 0.06386746
v 0.08150459 -0.008725002 0.05972846
v 0.081322506 -0.008950412 0.05974877
v 0.07796076 -0.009351767 0.06371796
v 0.081040904 -0.009120641 0.05995069
v 0.07805852 -0.009484023 0.06346508
v 0.08509169 0.0021889447 -0.06690385
v 0.0842211 0.0022364422 -0.06807643
v 0.08328401 0.0019523305 -0.069018275
v 0.08534866 0.0016396102 -0.066046156
v 0.08509169 0.0021889447 -0.06690385
v 0.08238002 0.0012694153 -0.06953619
v 0.08536187 0.0009363856 -0.065357044
v 0.08181527 0.00050416344 -0.06953612
v 0.07799201 -0.009153027 -0.06525804
v 0.08150459 -0.008725034 -0.061119
v 0.081322506 -0.008950446 -0.061139345
v 0.07796076 -0.009351798 -0.065108545
v 0.081040904 -0.009120673 -0.061341275
v 0.07805852 -0.009484055 -0.06485562
v -0.085090786 0.0021889447 -0.06690385
v -0.08328313 0.0019523305 -0.069018275
v -0.084220216 0.0022364748 -0.06807643
v -0.085090786 0.0021889447 -0.06690385
v -0.08534777 0.0016396102 -0.066046156
v -0.08237913 0.0012694153 -0.06953619
v -0.085360974 0.0009364178 -0.065357044
v -0.081814386 0.00050416344 -0.06953612
v -0.07799111 -0.009153027 -0.06525804
v -0.081503704 -0.008725034 -0.061119
v -0.08132162 -0.008950446 -0.061139345
v -0.07795987 -0.009351798 -0.065108545
v -0.08104002 -0.009120673 -0.061341275
v -0.078057624 -0.009484055 -0.06485562
v -0.018515998 0.07924376 -0.01609709
v -0.017834624 0.079143524 -0.016591242
v -0.01887373 0.07956303 -0.015398158
v -0.017080335 0.079281695 -0.016727727
v -0.018808749 0.079979435 -0.014743206
v -0.01857401 0.08032735 -0.014283119
v -0.014504843 0.08083613 -0.015409202
v -0.016583052 0.0816751 -0.013023003
v -0.01459209 0.08302284 -0.011762888
v -0.01227917 0.082531765 -0.013688999
v -0.014007586 0.08322953 -0.011704445
v -0.013253316 0.08336769 -0.011840899
v -0.012214212 0.08294819 -0.013033981
v -0.012571991 0.083267495 -0.012335019
v -0.016495802 0.079488344 -0.016669316
v -0.014504843 0.08083613 -0.015409202
v -0.012513881 0.082183875 -0.014149053
v -0.072447196 0.02993482 -0.0006942436
v -0.074271895 0.020464327 0.0031888457
v -0.07456336 0.02061757 -0.0006942436
v -0.07699493 0.0068949866 -0.0006942274
v -0.07696301 0.0061421013 0.002883213
v -0.07711327 0.0061706775 -0.00069448573
v -0.07681636 0.0068928557 0.0032585415
v -0.074271895 0.020464327 0.0031888457
v -0.07426922 0.020462906 -0.0046131737
v -0.072447196 0.02993482 -0.0006942436
v -0.07456336 0.02061757 -0.0006942436
v -0.07699493 0.0068949866 -0.0006942274
v -0.07426922 0.020462906 -0.0046131737
v -0.07699493 0.0068949866 -0.0006942274
v -0.07681472 0.0068928236 -0.004683467
v -0.07711327 0.0061706775 -0.00069448573
v -0.07696152 0.0061421334 -0.0043064267
v -0.060511168 0.051173728 0.0032462236
v -0.060841274 0.05211434 -0.0006950346
v -0.060111046 0.051758002 0.0029101097
v -0.061340928 0.051523775 -0.0006942436
v -0.062371086 0.04908901 0.003214596
v -0.060841274 0.05211434 -0.0006950346
v -0.06052133 0.05114825 -0.0046706805
v -0.060122464 0.051732037 -0.0043330654
v -0.061340928 0.051523775 -0.0006942436
v -0.06236097 0.04908898 -0.004639134
v 0.018516881 0.07924372 -0.01609709
v 0.01887461 0.07956303 -0.015398158
v 0.017835505 0.079143524 -0.016591242
v 0.017081216 0.079281695 -0.016727727
v 0.018809633 0.079979435 -0.014743206
v 0.018574892 0.080327384 -0.014283119
v 0.014505721 0.08083613 -0.015409202
v 0.01658393 0.0816751 -0.013023003
v 0.014592969 0.08302284 -0.011762888
v 0.012280047 0.082531765 -0.013688999
v 0.014008463 0.08322953 -0.011704445
v 0.013254196 0.08336769 -0.011840899
v 0.012215091 0.08294819 -0.013033981
v 0.01257287 0.083267435 -0.012335019
v 0.014505721 0.08083613 -0.015409202
v 0.016496683 0.079488344 -0.016669316
v 0.01251476 0.08218381 -0.014149087
v -0.01807377 0.07948912 0.014568078
v -0.018507058 0.07978537 0.013902487
v -0.017345676 0.079419665 0.014996394
v -0.018519048 0.08019377 0.013239333
v -0.016587233 0.07958544 0.015058923
v -0.01601853 0.079810984 0.014942729
v -0.016527174 0.081937715 0.011295335
v -0.018341301 0.08054239 0.0127548985
v -0.014204405 0.08120629 0.013483165
v -0.012390283 0.0826016 0.012023583
v -0.01414432 0.08355853 0.009719593
v -0.014713052 0.083332986 0.009835754
v -0.0122125065 0.08295023 0.011539183
v -0.0122244675 0.08335859 0.010876093
v -0.013385852 0.08372429 0.009782154
v -0.012657707 0.08365481 0.010210533
v 0.018074648 0.07948912 0.01456811
v 0.017346555 0.079419665 0.014996426
v 0.01850794 0.07978534 0.0139024705
v 0.017346555 0.079419665 0.014996426
v 0.01851993 0.08019377 0.013239365
v 0.016588116 0.0795854 0.015058953
v 0.016019408 0.079810984 0.014942729
v 0.016528055 0.081937715 0.011295383
v 0.018342182 0.08054239 0.012754948
v 0.014205285 0.08120629 0.013483165
v 0.012391162 0.0826016 0.012023583
v 0.014145199 0.08355853 0.009719642
v 0.014713931 0.083332986 0.009835769
v 0.012213384 0.08295023 0.01153923
v 0.012225348 0.08335859 0.010876077
v 0.013386732 0.08372429 0.009782203
v 0.012658585 0.083654776 0.010210565
v 0.07427278 0.020464327 0.0031888457
v 0.07244808 0.02993482 -0.0006942436
v 0.07456425 0.02061757 -0.0006942436
v 0.076995835 0.0068949545 -0.0006942274
v 0.07244808 0.02993482 -0.0006942436
v 0.07427011 0.020462872 -0.0046131737
v 0.07456425 0.02061757 -0.0006942436
v 0.076995835 0.0068949545 -0.0006942274
v 0.076995835 0.0068949545 -0.0006942274
v 0.07427011 0.020462872 -0.0046131737
v 0.076815605 0.0068928236 -0.004683467
v 0.07711416 0.0061706775 -0.00069448573
v 0.076962404 0.0061421334 -0.0043064267
v 0.06084215 0.05211434 -0.0006950346
v 0.060512055 0.051173702 0.0032462236
v 0.060111925 0.051758002 0.0029101097
v 0.061341804 0.051523775 -0.0006942436
v 0.06237197 0.04908901 0.003214596
v 0.060522217 0.05114825 -0.0046706805
v 0.06084215 0.05211434 -0.0006950346
v 0.060123347 0.051732037 -0.0043330654
v 0.061341804 0.051523775 -0.0006942436
v 0.062361855 0.04908898 -0.004639134
v 0.076963894 0.0061421013 0.002883213
v 0.076995835 0.0068949545 -0.0006942274
v 0.07711416 0.0061706775 -0.00069448573
v 0.07681725 0.0068928236 0.0032585415
v 0.07427278 0.020464327 0.0031888457
v -0.08104002 -0.009120641 0.05995069
v -0.07795987 -0.009351767 0.06371796
v -0.078057624 -0.00948399 0.06346508
v -0.08132162 -0.008950381 0.05974877
v -0.07799111 -0.0091529945 0.06386746
v -0.081503704 -0.008724938 0.05972846
v -0.085360974 0.00093645015 0.06396652
v -0.081814386 0.00050422794 0.06814556
v -0.08237913 0.001269448 0.06814558
v -0.08534777 0.0016396425 0.064655595
v -0.08328313 0.0019523627 0.06762771
v -0.085090786 0.002188977 0.065513246
v -0.084220216 0.0022365067 0.066685855
vt 1.6001481 0.24944213
vt 1.5917947 0.24944213
vt 1.5958086 0.25003272
vt 1.6024758 0.24733159
vt 1.5917947 0.24944213
vt 1.5887208 0.24733159
vt 1.603915 0.2447698
vt 1.5875413 0.2447698
vt 1.5875413 0.21115667
vt 1.603915 0.21115667
vt 1.6034677 0.21042834
vt 1.5878565 0.21042834
vt 1.6024253 0.2099159
vt 1.5878565 0.21042834
vt 1.58859 0.2099159
vt 1.0016044 0.7164213
vt 1.0082781 0.7356978
vt 1.0016044 0.73569655
vt 1.0016044 0.75529444
vt 1.0082781 0.7792597
vt 1.0016044 0.7792569
vt 1.0082781 0.7792597
vt 1.0016044 0.75529444
vt 1.0082781 0.755296
vt 1.0016044 0.73569655
vt 1.0082781 0.755296
vt 1.0016044 0.75529444
vt 1.0082781 0.755296
vt 1.0016044 0.73569655
vt 1.0082781 0.7356978
vt 1.0082781 0.7356978
vt 1.0150135 0.71642196
vt 1.0150135 0.7356991
vt 1.0082781 0.7792597
vt 1.0150135 0.7552976
vt 1.0150135 0.7792624
vt 1.0150135 0.7552976
vt 1.0082781 0.7792597
vt 1.0082781 0.755296
vt 1.0082781 0.755296
vt 1.0150135 0.7356991
vt 1.0150135 0.7552976
vt 1.0150135 0.7356991
vt 1.0082781 0.755296
vt 1.0082781 0.7356978
vt 1.0082781 0.785903
vt 1.0016044 0.7792569
vt 1.0082781 0.7792597
vt 1.0150135 0.7792624
vt 1.0082781 0.785903
vt 1.0082781 0.7792597
vt 1.6024253 0.2099159
vt 1.5878565 0.21042834
vt 1.58859 0.2099159
vt 1.5878565 0.21042834
vt 1.6034677 0.21042834
vt 1.6034677 0.21042834
vt 1.5875413 0.21115667
vt 1.603915 0.21115667
vt 1.603915 0.2447698
vt 1.5875413 0.2447698
vt 1.5887208 0.24733159
vt 1.6024758 0.24733159
vt 1.5917947 0.24944213
vt 1.6001481 0.24944213
vt 1.6001481 0.24944213
vt 1.5958086 0.25003272
vt 0.008278126 0.7356978
vt 0.0016044149 0.7164213
vt 0.0016044149 0.73569655
vt 0.0016044149 0.75529444
vt 0.008278126 0.7792597
vt 0.008278126 0.755296
vt 0.008278126 0.7792597
vt 0.0016044149 0.75529444
vt 0.0016044149 0.7792569
vt 0.0016044149 0.73569655
vt 0.008278126 0.755296
vt 0.008278126 0.7356978
vt 0.008278126 0.755296
vt 0.0016044149 0.73569655
vt 0.0016044149 0.75529444
vt 0.015013399 0.71642196
vt 0.008278126 0.7356978
vt 0.015013399 0.7356991
vt 0.008278126 0.7792597
vt 0.015013399 0.7552976
vt 0.008278126 0.755296
vt 0.015013399 0.7552976
vt 0.008278126 0.7792597
vt 0.015013399 0.7792624
vt 0.008278126 0.755296
vt 0.015013399 0.7356991
vt 0.008278126 0.7356978
vt 0.015013399 0.7356991
vt 0.008278126 0.755296
vt 0.015013399 0.7552976
vt 0.0016044149 0.7792569
vt 0.008278126 0.785903
vt 0.008278126 0.7792597
vt 0.008278126 0.785903
vt 0.015013399 0.7792624
vt 0.008278126 0.7792597
vt 0.6001481 0.24944213
vt 0.59179467 0.24944213
vt 0.5958086 0.25003272
vt 0.6001481 0.24944213
vt 0.60247576 0.24733159
vt 0.58872074 0.24733159
vt 0.603915 0.2447698
vt 0.58754134 0.2447698
vt 0.58754134 0.21115667
vt 0.603915 0.21115667
vt 0.60346764 0.21042834
vt 0.58785653 0.21042834
vt 0.6024254 0.2099159
vt 0.58859 0.2099159
vt 1.6001481 0.24944213
vt 1.5958086 0.25003272
vt 1.5917947 0.24944213
vt 1.6024758 0.24733159
vt 1.6001481 0.24944213
vt 1.5887208 0.24733159
vt 1.603915 0.2447698
vt 1.5875413 0.2447698
vt 1.5875413 0.21115667
vt 1.603915 0.21115667
vt 1.6034677 0.21042834
vt 1.5878565 0.21042834
vt 1.6024253 0.2099159
vt 1.58859 0.2099159
vt 1.6001481 0.24944213
vt 1.5917947 0.24944213
vt 1.5958086 0.25003272
vt 1.6001481 0.24944213
vt 1.6024758 0.24733159
vt 1.5887208 0.24733159
vt 1.603915 0.2447698
vt 1.5875413 0.2447698
vt 1.5875413 0.21115667
vt 1.603915 0.21115667
vt 1.6034677 0.21042834
vt 1.5878565 0.21042834
vt 1.6024253 0.2099159
vt 1.58859 0.2099159
vt 1.1923019 0.392763
vt 1.1969898 0.39402643
vt 1.1876144 0.39402643
vt 1.2000995 0.3972247
vt 1.1845053 0.3972258
vt 1.1829281 0.40042493
vt 1.2016795 0.4159701
vt 1.1829296 0.41597205
vt 1.1829317 0.4315192
vt 1.2001036 0.43471575
vt 1.18451 0.4347177
vt 1.1876197 0.43791586
vt 1.1969945 0.4379148
vt 1.192307 0.43917876
vt 1.2016779 0.40042317
vt 1.2016795 0.4159701
vt 1.2016814 0.43151698
vt 1.0082781 0.7356978
vt 1.0016044 0.7164213
vt 1.0082781 0.71642166
vt 1.0082781 0.688567
vt 1.0016044 0.68733823
vt 1.0082781 0.6873385
vt 1.0016044 0.6885667
vt 1.0016044 0.7164213
vt 1.0150135 0.71642196
vt 1.0082781 0.7356978
vt 1.0082781 0.71642166
vt 1.0082781 0.688567
vt 1.0150135 0.71642196
vt 1.0082781 0.688567
vt 1.0150135 0.6885672
vt 1.0082781 0.6873385
vt 1.0150135 0.6873387
vt 1.0016044 0.7859168
vt 1.0082781 0.78666896
vt 1.0016044 0.78668463
vt 1.0082781 0.785903
vt 1.0016044 0.7792569
vt 1.0082781 0.78666896
vt 1.0150135 0.78588927
vt 1.0150135 0.78665334
vt 1.0082781 0.785903
vt 1.0150135 0.7792624
vt 0.1923019 0.392763
vt 0.18761449 0.39402643
vt 0.1969898 0.39402643
vt 0.20009951 0.3972247
vt 0.18450536 0.3972258
vt 0.18292807 0.40042493
vt 0.20167941 0.4159701
vt 0.18292968 0.41597205
vt 0.18293166 0.4315192
vt 0.20010367 0.43471575
vt 0.18450993 0.4347177
vt 0.18761972 0.43791586
vt 0.19699456 0.4379148
vt 0.19230705 0.43917876
vt 0.20167941 0.4159701
vt 0.20167787 0.40042317
vt 0.20168132 0.43151698
vt 1.0676762 0.47538313
vt 1.0723641 0.47664657
vt 1.0629888 0.47664657
vt 1.0754738 0.47984484
vt 1.0598797 0.47984594
vt 1.0583024 0.48304507
vt 1.0770538 0.49859023
vt 1.0770522 0.4830433
vt 1.058304 0.4985922
vt 1.058306 0.51413935
vt 1.075478 0.5173359
vt 1.0770557 0.51413715
vt 1.0598843 0.51733786
vt 1.062994 0.520536
vt 1.0723689 0.52053493
vt 1.0676813 0.5217989
vt 0.06767622 0.47538313
vt 0.0629888 0.47664657
vt 0.07236412 0.47664657
vt 0.0629888 0.47664657
vt 0.07547383 0.47984484
vt 0.059879676 0.47984594
vt 0.058302388 0.48304507
vt 0.077053726 0.49859023
vt 0.07705219 0.4830433
vt 0.058303997 0.4985922
vt 0.05830598 0.51413935
vt 0.07547799 0.5173359
vt 0.07705563 0.51413715
vt 0.05988425 0.51733786
vt 0.06299403 0.520536
vt 0.072368875 0.52053493
vt 0.06768137 0.5217989
vt 0.0016044149 0.7164213
vt 0.008278126 0.7356978
vt 0.008278126 0.71642166
vt 0.008278126 0.688567
vt 0.008278126 0.7356978
vt 0.015013399 0.71642196
vt 0.008278126 0.71642166
vt 0.008278126 0.688567
vt 0.008278126 0.688567
vt 0.015013399 0.71642196
vt 0.015013399 0.6885672
vt 0.008278126 0.6873385
vt 0.015013399 0.6873387
vt 0.008278126 0.78666896
vt 0.0016044149 0.7859168
vt 0.0016044149 0.78668463
vt 0.008278126 0.785903
vt 0.0016044149 0.7792569
vt 0.015013399 0.78588927
vt 0.008278126 0.78666896
vt 0.015013399 0.78665334
vt 0.008278126 0.785903
vt 0.015013399 0.7792624
vt 0.0016044149 0.68733823
vt 0.008278126 0.688567
vt 0.008278126 0.6873385
vt 0.0016044149 0.6885667
vt 0.0016044149 0.7164213
vt 1.6024253 0.2099159
vt 1.5878565 0.21042834
vt 1.58859 0.2099159
vt 1.6034677 0.21042834
vt 1.5875413 0.21115667
vt 1.603915 0.21115667
vt 1.603915 0.2447698
vt 1.5875413 0.2447698
vt 1.5887208 0.24733159
vt 1.6024758 0.24733159
vt 1.5917947 0.24944213
vt 1.6001481 0.24944213
vt 1.5958086 0.25003272
vn 0.6783082 0.73477757 0
vn 0.8320503 0.55470026 0
vn 0.6833998 0.7300444 0
vn 0.66678566 0.74524957 0
vn 0.6772293 0.735772 0
vn 0.6809281 0.7323503 0
vn 0.67692375 0.73605317 0
vn 0.67706436 0.7359238 0
vn 0.6772293 0.735772 0
vn 0.676995 0.7359876 -8.450044E-06
vn 0.67572665 0.7371523 0
vn 0.65494937 0.7556727 0
vn 0.68006384 0.733153 0
vn 0.70710677 0.70710677 0
vn 0.6762428 0.7366788 0
vn -0.9554 0.24888891 0.15894978
vn -0.95527524 0.2492855 0.15907851
vn -0.9552863 0.24924336 0.15907826
vn -0.8380165 0.4920654 0.23579636
vn -0.8380313 0.49200255 0.23587517
vn -0.8380296 0.49200156 0.23588315
vn -0.8538124 0.4832186 0.19365981
vn -0.85373265 0.48335966 0.19365935
vn -0.8537773 0.48328888 0.19363917
vn -0.9131735 0.3509519 0.20723625
vn -0.9132042 0.35094118 0.2071193
vn -0.9132042 0.35094118 0.2071193
vn -0.930059 0.3331844 0.15484929
vn -0.930055 0.33318296 0.1548768
vn -0.9300473 0.33320272 0.15488043
vn -0.9552262 0.24948727 -0.15905672
vn -0.95522 0.24951996 -0.15904276
vn -0.9552116 0.2495403 -0.15906109
vn -0.83798176 0.49209005 -0.23586828
vn -0.8380004 0.4920295 -0.23592845
vn -0.83799356 0.49207056 -0.23586738
vn -0.8537127 0.48339346 -0.19366328
vn -0.8538985 0.48308113 -0.19362298
vn -0.85375005 0.48334405 -0.19362208
vn -0.91308385 0.35124502 -0.20713498
vn -0.9131095 0.35116473 -0.20715769
vn -0.91310304 0.35120738 -0.20711397
vn -0.93006027 0.3331687 -0.15487579
vn -0.930042 0.33323953 -0.15483284
vn -0.93003535 0.33323714 -0.15487818
vn -0.7357546 0.6447148 0.20738378
vn -0.7358827 0.644579 0.20735148
vn -0.73604333 0.6443759 0.20741217
vn -0.73623466 0.6441659 -0.20738566
vn -0.735748 0.64470905 -0.2074249
vn -0.7358984 0.64454764 -0.2073932
vn -0.70710677 0.70710677 0
vn -0.65492374 0.755695 0
vn -0.68277097 0.7306325 0
vn -0.70710677 0.70710677 0
vn -0.6401888 0.76821756 0
vn -0.44724965 0.8944092 0
vn -0.67683 0.73613936 0
vn -0.676995 0.7359876 -8.450044E-06
vn -0.6770888 0.73590136 0
vn -0.67692375 0.73605317 -7.041899E-06
vn -0.6739615 0.7387664 0
vn -0.6726392 0.7399707 0
vn -0.6757491 0.7371317 0
vn -0.6783082 0.73477757 0
vn -0.55470026 0.8320503 0
vn -0.6750202 0.73779917 0
vn 0.95529014 0.24924433 0.15905353
vn 0.9554 0.24888891 0.15894978
vn 0.9552863 0.24924336 0.15907826
vn 0.8537449 0.48334113 0.19365191
vn 0.8538124 0.4832186 0.19365981
vn 0.8537773 0.48328888 0.19363917
vn 0.8380313 0.49200255 0.23587517
vn 0.8380165 0.4920654 0.23579636
vn 0.8380296 0.49200156 0.23588315
vn 0.9300567 0.33318356 0.1548658
vn 0.93006516 0.33317044 0.1548428
vn 0.930041 0.333223 0.15487444
vn 0.9132042 0.35094118 0.2071193
vn 0.9131735 0.3509519 0.20723625
vn 0.9132042 0.35094118 0.2071193
vn 0.95522 0.24951996 -0.15904276
vn 0.9552257 0.24948715 -0.15905946
vn 0.9552046 0.24955024 -0.15908715
vn 0.8538985 0.48308113 -0.19362298
vn 0.8537004 0.483412 -0.1936707
vn 0.8537495 0.48334372 -0.1936248
vn 0.837987 0.49204808 -0.23593736
vn 0.83798254 0.4920905 -0.23586495
vn 0.8379801 0.49208912 -0.23587628
vn 0.930047 0.33322513 -0.15483458
vn 0.9300542 0.33318263 -0.15488227
vn 0.9300583 0.33318415 -0.1548541
vn 0.91310203 0.35117918 -0.20716624
vn 0.9130849 0.3512454 -0.20712957
vn 0.91309553 0.3512218 -0.2071225
vn 0.7362604 0.6441885 0.20722394
vn 0.73575604 0.6447161 0.20737433
vn 0.7360446 0.64437705 0.20740478
vn 0.735748 0.64470905 -0.2074249
vn 0.7362141 0.6441873 -0.2073926
vn 0.7360774 0.6443663 -0.20732106
vn 0.76733077 -0.42564356 0.47961554
vn 0.68312085 -0.50444555 0.52809143
vn 0.6842087 -0.5030587 0.52800614
vn 0.68413895 -0.5040342 0.5271656
vn 0.6862718 -0.5027105 0.52565503
vn 0.68423504 -0.5041344 0.5269449
vn 0.6834099 -0.5043691 0.52779037
vn 0.683404 -0.5043818 0.5277859
vn 0.683379 -0.50439936 0.52780133
vn 0.68339455 -0.504355 0.5278237
vn 0.67982274 -0.5042278 0.5325368
vn 0.67902863 -0.5061731 0.5317037
vn 0.6834991 -0.50486135 0.52720374
vn 0.6823388 -0.50420505 0.52933073
vn 0.8012185 -0.4444379 -0.4006543
vn 0.686282 -0.504239 -0.5241756
vn 0.68312085 -0.50444555 -0.52809143
vn 0.68538994 -0.50224596 -0.52724725
vn 0.68413895 -0.5040342 -0.5271656
vn 0.6842957 -0.50398165 -0.52701217
vn 0.68340844 -0.5043723 -0.52778924
vn 0.68332744 -0.5043804 -0.5278864
vn 0.683379 -0.50439936 -0.52780133
vn 0.6834233 -0.50438744 -0.52775556
vn 0.68441087 -0.5061986 -0.524733
vn 0.67902863 -0.5061731 -0.5317037
vn 0.6827397 -0.50450635 -0.5285262
vn 0.6830677 -0.5047127 -0.5279049
vn -0.7086265 -0.52407616 -0.47243267
vn -0.68312085 -0.50444555 -0.52809143
vn -0.68617994 -0.50448096 -0.52407634
vn -0.68339676 -0.50449187 -0.5276901
vn -0.6830531 -0.50376344 -0.5288298
vn -0.6842957 -0.50398165 -0.52701217
vn -0.6834099 -0.5043691 -0.52779037
vn -0.6833269 -0.5043815 -0.5278861
vn -0.6833551 -0.5044149 -0.52781767
vn -0.6834109 -0.50436705 -0.52779114
vn -0.68441087 -0.5061986 -0.524733
vn -0.67902863 -0.5061731 -0.5317037
vn -0.6827397 -0.50450635 -0.5285262
vn -0.6830436 -0.50472826 -0.5279212
vn -0.24340954 0.82807016 -0.50502634
vn -0.23188958 0.8432841 -0.48487028
vn -0.23190026 0.84328187 -0.48486906
vn -0.24509877 0.8272562 -0.505543
vn -0.24204971 0.8298332 -0.502781
vn -0.24106589 0.83167505 -0.5002038
vn -0.24309115 0.82927036 -0.50320715
vn -0.24282198 0.82941645 -0.5030962
vn -0.24265349 0.82965004 -0.50279224
vn -0.24606454 0.83043826 -0.49982458
vn -0.24325174 0.82882947 -0.50385535
vn -0.23188958 0.8432841 -0.48487028
vn -0.24936742 0.8160746 -0.521381
vn -0.24555884 0.8276105 -0.5047392
vn -0.24249125 0.8295314 -0.50306624
vn -0.21521555 0.86081713 -0.46116814
vn -0.24247308 0.8295595 -0.5030286
vn -0.9719064 0.22074649 0.081663765
vn -0.97192466 0.22067277 0.081645325
vn -0.9719064 0.22074647 0.081662364
vn -0.9859898 0.16125028 0.042690482
vn -0.98593926 0.16162853 0.042425316
vn -0.98603547 0.16096872 0.042698253
vn -0.9844022 0.1701589 0.044703044
vn -0.98190135 0.18410368 0.044448532
vn -0.97190654 0.2207465 -0.08166167
vn -0.97191995 0.22069424 -0.08164422
vn -0.9719134 0.22071527 -0.0816641
vn -0.98148054 0.17382544 -0.08050328
vn -0.98188305 0.18420447 -0.0444344
vn -0.9818449 0.18440291 -0.044453014
vn -0.9818433 0.1844111 -0.044456393
vn -0.98596144 0.16090547 -0.04460434
vn -0.98434585 0.17097382 -0.04279275
vn -0.7449582 0.63211036 0.21324597
vn -0.73417115 0.6447095 0.21293752
vn -0.74454635 0.63263905 0.21311627
vn -0.74492747 0.6322577 0.21291628
vn -0.7306685 0.6491426 0.2115127
vn -0.73445964 0.6449112 -0.2113256
vn -0.74361277 0.6336482 -0.21337745
vn -0.7448233 0.6322008 -0.21344888
vn -0.74508625 0.63196224 -0.21323712
vn -0.73018384 0.64955807 -0.21191028
vn 0.24159011 0.83088434 -0.501264
vn 0.25169528 0.83899176 -0.48243377
vn 0.25169528 0.83899176 -0.48243377
vn 0.2451094 0.827254 -0.50554156
vn 0.24206032 0.8298309 -0.50277966
vn 0.24287388 0.8293112 -0.50324476
vn 0.24310176 0.8292681 -0.5032057
vn 0.24283259 0.8294142 -0.5030949
vn 0.24229804 0.830749 -0.5011466
vn 0.24606454 0.83043826 -0.49982458
vn 0.24390636 0.8287047 -0.5037441
vn 0.23188958 0.8432841 -0.48487028
vn 0.2704254 0.8112987 -0.51832855
vn 0.24160068 0.830882 -0.5012626
vn 0.24423034 0.8547836 -0.45792624
vn 0.24248065 0.8295337 -0.5030676
vn 0.2416011 0.830896 -0.5012392
vn -0.22506838 0.8282553 0.51316404
vn -0.2118116 0.8472464 0.48714414
vn -0.20960085 0.83844846 0.5030623
vn -0.22247198 0.82845885 0.5139672
vn -0.22432956 0.8280927 0.51374966
vn -0.22367914 0.8281943 0.51386946
vn -0.22365342 0.8279121 0.5143353
vn -0.2222068 0.8296562 0.5121471
vn -0.22354832 0.8280786 0.5141127
vn -0.22345005 0.82822865 0.5139137
vn -0.23566805 0.8169795 0.52631253
vn -0.22235793 0.8300761 0.5114007
vn -0.22301845 0.8283478 0.5139091
vn -0.20367156 0.814596 0.5430941
vn -0.19144602 0.85087126 0.48925093
vn -0.22104296 0.83004624 0.51201886
vn 0.22319187 0.82962614 0.51176727
vn 0.19145687 0.85086936 0.4892499
vn 0.1914471 0.85087603 0.4892424
vn 0.22533904 0.8261831 0.51637566
vn 0.22245997 0.82845604 0.5139767
vn 0.22349744 0.8276548 0.51481694
vn 0.22368246 0.827846 0.51442915
vn 0.2073975 0.8295449 0.5184994
vn 0.22233935 0.83009696 0.51137483
vn 0.2233912 0.8281293 0.5140995
vn 0.22257228 0.8300772 0.5113056
vn 0.23566736 0.81697714 0.52631664
vn 0.22329856 0.8296457 0.51168925
vn 0.22359134 0.82793915 0.51431865
vn 0.20615779 0.82458615 0.52683645
vn 0.21180081 0.8472484 0.48714527
vn 0.22425294 0.82382303 0.52060163
vn 0.97192717 0.2206631 0.08164174
vn 0.97193605 0.2206303 0.081624456
vn 0.9719062 0.22074641 0.081666574
vn 0.98146147 0.17391783 0.0805355
vn 0.97191995 0.22069424 -0.08164422
vn 0.97190905 0.22073683 -0.0816581
vn 0.97191286 0.22071517 -0.0816711
vn 0.98148054 0.17382544 -0.08050328
vn 0.9818419 0.18441647 -0.04446408
vn 0.98188305 0.18420447 -0.0444344
vn 0.9818433 0.1844111 -0.044456393
vn 0.98463285 0.16948165 -0.042119727
vn 0.98434585 0.17097382 -0.04279275
vn 0.74531144 0.6318269 0.21285115
vn 0.745965 0.6311769 0.21248984
vn 0.74454635 0.63263905 0.21311627
vn 0.7457369 0.63139987 0.21262778
vn 0.7306685 0.6491426 0.2115127
vn 0.7456586 0.6309592 -0.21420501
vn 0.7457972 0.63118744 -0.2130469
vn 0.7448233 0.6322008 -0.21344888
vn 0.74508625 0.63196224 -0.21323712
vn 0.7301628 0.6495794 -0.21191722
vn 0.98443377 0.1700192 0.04453983
vn 0.9848083 0.1680105 0.04387573
vn 0.98603547 0.16096872 0.042698253
vn 0.9844022 0.1701589 0.044703044
vn 0.98190296 0.18409553 0.044446565
vn -0.6834991 -0.50486135 0.52720374
vn -0.67902863 -0.5061731 0.5317037
vn -0.68231463 -0.50422055 0.5293471
vn -0.6802808 -0.5031741 0.53294814
vn -0.683357 -0.50441074 0.52781916
vn -0.68339455 -0.504355 0.5278237
vn -0.6834094 -0.50437015 0.52779
vn -0.683404 -0.5043818 0.5277859
vn -0.68423504 -0.5041344 0.5269449
vn -0.6838705 -0.5042553 0.52730227
vn -0.6831306 -0.5044245 0.528099
vn -0.68339676 -0.50449187 0.5276901
vn -0.6842087 -0.5030587 0.52800614
g S_wpn_funnel_0013_vfx_01_lod0_0
f 3/3/3 2/2/2 1/1/1
f 1/1/1 5/5/5 4/4/4
f 6/6/6 4/4/4 5/5/5
f 4/4/4 6/6/6 7/7/7
f 8/8/8 7/7/7 6/6/6
f 8/8/8 9/9/9 7/7/7
f 10/10/10 7/7/7 9/9/9
f 10/10/10 9/9/9 11/11/11
f 12/12/12 11/11/11 9/9/9
f 11/11/11 14/14/14 13/13/13
f 15/15/15 13/13/13 12/12/12
f 18/18/18 17/17/17 16/16/16
f 21/21/21 20/20/20 19/19/19
f 24/24/24 23/23/23 22/22/22
f 27/27/27 26/26/26 25/25/25
f 30/30/30 29/29/29 28/28/28
f 33/33/33 32/32/32 31/31/31
f 36/36/36 35/35/35 34/34/34
f 39/39/39 38/38/38 37/37/37
f 42/42/42 41/41/41 40/40/40
f 45/45/45 44/44/44 43/43/43
f 48/48/48 47/47/47 46/46/46
f 51/51/51 50/50/50 49/49/49
f 54/54/54 53/53/53 52/52/52
f 56/56/56 52/52/52 55/55/55
f 55/55/55 58/58/58 57/57/57
f 59/59/59 56/56/56 58/58/58
f 59/59/59 58/58/58 60/60/60
f 61/61/61 60/60/60 58/58/58
f 61/61/61 62/62/62 60/60/60
f 63/63/63 60/60/60 62/62/62
f 62/62/62 64/64/64 63/63/63
f 65/65/65 63/63/63 64/64/64
f 64/64/64 67/67/67 66/66/66
f 70/70/70 69/69/69 68/68/68
f 73/73/73 72/72/72 71/71/71
f 76/76/76 75/75/75 74/74/74
f 79/79/79 78/78/78 77/77/77
f 82/82/82 81/81/81 80/80/80
f 85/85/85 84/84/84 83/83/83
f 88/88/88 87/87/87 86/86/86
f 91/91/91 90/90/90 89/89/89
f 94/94/94 93/93/93 92/92/92
f 97/97/97 96/96/96 95/95/95
f 100/100/100 99/99/99 98/98/98
f 103/103/103 102/102/102 101/101/101
f 106/106/106 105/105/105 104/104/104
f 108/108/108 107/107/107 105/105/105
f 109/109/109 108/108/108 105/105/105
f 110/110/110 108/108/108 109/109/109
f 111/111/111 110/110/110 109/109/109
f 111/111/111 112/112/112 110/110/110
f 112/112/112 113/113/113 110/110/110
f 113/113/113 112/112/112 114/114/114
f 112/112/112 115/115/115 114/114/114
f 114/114/114 115/115/115 116/116/116
f 115/115/115 117/117/117 116/116/116
f 120/120/120 119/119/119 118/118/118
f 120/120/120 122/122/122 121/121/121
f 123/123/123 120/120/120 121/121/121
f 121/121/121 124/124/124 123/123/123
f 124/124/124 125/125/125 123/123/123
f 126/126/126 125/125/125 124/124/124
f 127/127/127 126/126/126 124/124/124
f 126/126/126 127/127/127 128/128/128
f 129/129/129 126/126/126 128/128/128
f 129/129/129 128/128/128 130/130/130
f 131/131/131 129/129/129 130/130/130
f 134/134/134 133/133/133 132/132/132
f 136/136/136 135/135/135 133/133/133
f 137/137/137 136/136/136 133/133/133
f 138/138/138 136/136/136 137/137/137
f 139/139/139 138/138/138 137/137/137
f 139/139/139 140/140/140 138/138/138
f 140/140/140 141/141/141 138/138/138
f 141/141/141 140/140/140 142/142/142
f 140/140/140 143/143/143 142/142/142
f 142/142/142 143/143/143 144/144/144
f 143/143/143 145/145/145 144/144/144
f 148/148/148 147/147/147 146/146/146
f 147/147/147 148/148/148 149/149/149
f 150/150/150 149/149/149 148/148/148
f 150/150/150 151/151/151 149/149/149
f 151/151/151 152/152/152 149/149/149
f 153/153/153 152/152/152 151/151/151
f 153/153/153 154/154/154 152/152/152
f 152/152/152 154/154/154 155/155/155
f 154/154/154 156/156/156 155/155/155
f 156/156/156 157/157/157 155/155/155
f 158/158/158 155/155/155 157/157/157
f 158/158/158 157/157/157 159/159/159
f 161/161/161 160/160/160 149/149/149
f 162/162/162 161/161/161 155/155/155
f 165/165/165 164/164/164 163/163/163
f 165/165/165 166/166/166 164/164/164
f 168/168/168 167/167/167 166/166/166
f 169/169/169 166/166/166 167/167/167
f 169/169/169 170/170/170 166/166/166
f 173/173/173 172/172/172 171/171/171
f 173/173/173 171/171/171 174/174/174
f 177/177/177 176/176/176 175/175/175
f 176/176/176 177/177/177 178/178/178
f 179/179/179 178/178/178 177/177/177
f 182/182/182 181/181/181 180/180/180
f 183/183/183 180/180/180 181/181/181
f 180/180/180 183/183/183 184/184/184
f 187/187/187 186/186/186 185/185/185
f 188/188/188 185/185/185 186/186/186
f 186/186/186 189/189/189 188/188/188
f 192/192/192 191/191/191 190/190/190
f 192/192/192 193/193/193 191/191/191
f 194/194/194 191/191/191 193/193/193
f 195/195/195 194/194/194 193/193/193
f 196/196/196 195/195/195 193/193/193
f 197/197/197 195/195/195 196/196/196
f 197/197/197 196/196/196 198/198/198
f 198/198/198 196/196/196 199/199/199
f 200/200/200 198/198/198 199/199/199
f 200/200/200 199/199/199 201/201/201
f 202/202/202 201/201/201 199/199/199
f 201/201/201 202/202/202 203/203/203
f 205/205/205 204/204/204 193/193/193
f 204/204/204 206/206/206 199/199/199
f 209/209/209 208/208/208 207/207/207
f 208/208/208 209/209/209 210/210/210
f 211/211/211 210/210/210 209/209/209
f 211/211/211 212/212/212 210/210/210
f 212/212/212 213/213/213 210/210/210
f 213/213/213 214/214/214 210/210/210
f 215/215/215 213/213/213 212/212/212
f 215/215/215 216/216/216 213/213/213
f 213/213/213 216/216/216 217/217/217
f 218/218/218 213/213/213 217/217/217
f 216/216/216 219/219/219 217/217/217
f 219/219/219 220/220/220 217/217/217
f 221/221/221 217/217/217 220/220/220
f 221/221/221 220/220/220 222/222/222
f 225/225/225 224/224/224 223/223/223
f 225/225/225 227/227/227 226/226/226
f 228/228/228 224/224/224 227/227/227
f 229/229/229 228/228/228 227/227/227
f 230/230/230 229/229/229 227/227/227
f 231/231/231 230/230/230 227/227/227
f 232/232/232 229/229/229 230/230/230
f 232/232/232 230/230/230 233/233/233
f 233/233/233 230/230/230 234/234/234
f 230/230/230 235/235/235 234/234/234
f 236/236/236 233/233/233 234/234/234
f 236/236/236 234/234/234 237/237/237
f 238/238/238 237/237/237 234/234/234
f 237/237/237 238/238/238 239/239/239
f 242/242/242 241/241/241 240/240/240
f 242/242/242 240/240/240 243/243/243
f 246/246/246 245/245/245 244/244/244
f 246/246/246 247/247/247 245/245/245
f 250/250/250 249/249/249 248/248/248
f 248/248/248 251/251/251 250/250/250
f 252/252/252 250/250/250 251/251/251
f 255/255/255 254/254/254 253/253/253
f 256/256/256 253/253/253 254/254/254
f 254/254/254 257/257/257 256/256/256
f 260/260/260 259/259/259 258/258/258
f 261/261/261 258/258/258 259/259/259
f 258/258/258 261/261/261 262/262/262
f 265/265/265 264/264/264 263/263/263
f 266/266/266 263/263/263 264/264/264
f 266/266/266 264/264/264 267/267/267
f 270/270/270 269/269/269 268/268/268
f 269/269/269 271/271/271 268/268/268
f 269/269/269 272/272/272 271/271/271
f 272/272/272 273/273/273 271/271/271
f 273/273/273 272/272/272 274/274/274
f 272/272/272 275/275/275 274/274/274
f 274/274/274 275/275/275 276/276/276
f 277/277/277 274/274/274 276/276/276
f 276/276/276 278/278/278 277/277/277
f 278/278/278 279/279/279 277/277/277
f 278/278/278 280/280/280 279/279/279
