g S_wpn_pistol_0008_02_lod0
v 0.11664583 -0.025159191 0.138301
v 0.11664583 -0.023955086 0.13871597
v 0.11664583 -0.025508635 0.13721298
v 0.11664583 -0.025508635 0.11545099
v 0.11664583 -0.023955086 0.11395032
v 0.11664583 -0.025159191 0.114317626
v 0.11664583 0.020682454 0.11394182
v 0.11664583 0.020682454 0.13871597
v 0.11664583 0.025980271 0.116721325
v 0.11664583 0.025980271 0.13611534
v 0.11664583 0.029188618 0.12187824
v 0.11664583 0.029188618 0.13082165
v 0.11401099 0.029188618 0.13082165
v 0.11401099 0.025980271 0.116721325
v 0.11401099 0.029188618 0.12187824
v 0.11401099 0.025980271 0.13611534
v 0.11401099 0.020682454 0.11394181
v 0.11401099 0.020682454 0.13871597
v 0.11401098 -0.023955086 0.11395032
v 0.11401098 -0.023955086 0.13871597
v 0.11401097 -0.025508635 0.13721299
v 0.11401097 -0.025159191 0.138301
v 0.11401097 -0.025508635 0.11545099
v 0.11401097 -0.025159191 0.114317626
vt 0.3062268 0.891793
vt 0.3044644 0.8913315
vt 0.3068123 0.8933613
vt 0.3068123 0.9247658
vt 0.3044644 0.92707956
vt 0.3062268 0.92640305
vt 0.23700431 0.92707956
vt 0.23700431 0.8913315
vt 0.22905527 0.9231882
vt 0.22893955 0.89520097
vt 0.22417608 0.9157655
vt 0.22412217 0.90285945
vt 0.22417608 0.9157655
vt 0.22893955 0.89520097
vt 0.22412217 0.90285945
vt 0.22905527 0.9231882
vt 0.23700431 0.8913315
vt 0.23700431 0.92707956
vt 0.3044644 0.8913315
vt 0.3044644 0.92707956
vt 0.3068123 0.9247658
vt 0.3062268 0.92640305
vt 0.3068123 0.8933613
vt 0.3062268 0.891793
vn 1 0 0
vn 1 0 0
vn 1 0 0
vn 1 0 0
vn 1 0 0
vn 1 0 0
vn 1 0 0
vn 1 0 0
vn 1 0 0
vn 1 0 0
vn 1 0 0
vn 1 0 0
vn -1 0 0
vn -1 0 0
vn -1 0 0
vn -1 0 0
vn -1 1.2623357E-07 0
vn -1 1.2497787E-07 0
vn -1 3.2996136E-06 4.4709435E-07
vn -1 3.2566177E-06 -4.4485463E-07
vn -1 6.6188304E-06 -4.962966E-07
vn -1 8.905942E-06 -2.8603547E-06
vn -1 6.600018E-06 4.775847E-07
vn -1 8.7424505E-06 2.6955006E-06
g S_wpn_pistol_0008_02_lod0_0
f 3/3/3 2/2/2 1/1/1
f 2/2/2 3/3/3 4/4/4
f 5/5/5 2/2/2 4/4/4
f 6/6/6 5/5/5 4/4/4
f 5/5/5 7/7/7 2/2/2
f 7/7/7 8/8/8 2/2/2
f 7/7/7 9/9/9 8/8/8
f 9/9/9 10/10/10 8/8/8
f 9/9/9 11/11/11 10/10/10
f 11/11/11 12/12/12 10/10/10
f 15/15/15 14/14/14 13/13/13
f 14/14/14 16/16/16 13/13/13
f 14/14/14 17/17/17 16/16/16
f 17/17/17 18/18/18 16/16/16
f 17/17/17 19/19/19 18/18/18
f 19/19/19 20/20/20 18/18/18
f 20/20/20 19/19/19 21/21/21
f 22/22/22 20/20/20 21/21/21
f 19/19/19 23/23/23 21/21/21
f 24/24/24 23/23/23 19/19/19
