g S_wpn_claym_0013_vfx_01_lod0
v -0.009674862 0.043680325 0.7518739
v 0.01022442 0.043680314 0.75057966
v 0.009674862 0.043680325 0.7518739
v -0.01022442 0.043680314 0.75057966
v 0.0026449934 0.043680497 0.7400149
v -0.0026449934 0.043680497 0.7400149
v -0.0026449934 0.043680497 0.72255677
v 0.0026449934 0.043680497 0.72255677
v 0.013363924 0.043680497 0.70697963
v -0.013363924 0.043680497 0.70697963
v -0.00265324 0.043680485 0.69220954
v 0.00265324 0.043680485 0.69220954
v -0.0026703656 0.043680497 0.6733026
v 0.0026703656 0.043680497 0.6733026
v 0.013943026 0.043680668 0.6590765
v -0.013943026 0.043680668 0.6590765
v -0.0026314592 0.043680657 0.6441551
v 0.0026314592 0.043680657 0.6441551
v 0.0026485848 0.043680657 0.62597305
v -0.0026485848 0.043680657 0.62597305
v 0.013727513 0.043680657 0.6111739
v -0.013727513 0.043680657 0.6111739
v -0.0026485848 0.043680668 0.5963749
v 0.0026485848 0.043680668 0.5963749
v -0.0026314592 0.043680668 0.5781929
v 0.0026314592 0.043680668 0.5781929
v 0.013943026 0.043680668 0.56327146
v -0.013943026 0.043680668 0.56327146
v -0.0026703656 0.043680485 0.5490455
v 0.0026703656 0.043680485 0.5490455
v 0.00265324 0.043680497 0.53013843
v -0.00265324 0.043680497 0.53013843
v 0.014231774 0.043680497 0.51536846
v -0.014231774 0.043680497 0.51536846
v -0.0026213168 0.043680497 0.49979147
v 0.0026213168 0.043680497 0.49979147
v 0.0026213168 0.043680497 0.48233283
v -0.0026213168 0.043680497 0.48233283
v -0.010974277 0.043680325 0.4716075
v 0.010974277 0.043680325 0.4716075
v -0.009674862 -0.04365484 0.7518739
v 0.009674862 -0.04365484 0.7518739
v 0.01022442 -0.04365485 0.75057966
v -0.01022442 -0.04365485 0.75057966
v 0.0026449934 -0.04365501 0.7400149
v -0.0026449934 -0.04365501 0.7400149
v -0.0026449934 -0.04365501 0.72255677
v 0.0026449934 -0.04365501 0.72255677
v 0.013363924 -0.04365501 0.70697963
v -0.013363924 -0.04365501 0.70697963
v -0.00265324 -0.04365501 0.69220954
v 0.00265324 -0.04365501 0.69220954
v -0.0026703656 -0.04365501 0.6733026
v 0.0026703656 -0.04365501 0.6733026
v 0.013943026 -0.043655176 0.6590765
v -0.013943026 -0.043655176 0.6590765
v -0.0026314592 -0.043655176 0.6441551
v 0.0026314592 -0.043655176 0.6441551
v 0.0026485848 -0.043655176 0.62597305
v -0.0026485848 -0.043655176 0.62597305
v 0.013727513 -0.043655183 0.6111739
v -0.013727513 -0.043655183 0.6111739
v -0.0026485848 -0.043655176 0.5963749
v 0.0026485848 -0.043655176 0.5963749
v -0.0026314592 -0.043655183 0.5781929
v 0.0026314592 -0.043655183 0.5781929
v 0.013943026 -0.043655176 0.56327146
v -0.013943026 -0.043655176 0.56327146
v -0.0026703656 -0.04365501 0.5490455
v 0.0026703656 -0.04365501 0.5490455
v 0.00265324 -0.04365501 0.53013843
v -0.00265324 -0.04365501 0.53013843
v 0.014231774 -0.043655023 0.51536846
v -0.014231774 -0.043655023 0.51536846
v -0.0026213168 -0.04365501 0.49979147
v 0.0026213168 -0.04365501 0.49979147
v 0.0026213168 -0.04365501 0.48233283
v -0.0026213168 -0.04365501 0.48233283
v -0.010974277 -0.04365484 0.4716075
v 0.010974277 -0.04365484 0.4716075
vt 0.9819789 0.9236015
vt 0.9145552 0.982792
vt 0.9204205 0.9851608
vt 0.9796102 0.9177358
vt 0.90505767 0.9250697
vt 0.92188716 0.9082384
vt 0.86634403 0.8526966
vt 0.84951484 0.86953056
vt 0.7658557 0.8540868
vt 0.8508804 0.76903385
vt 0.7698177 0.7561454
vt 0.75292873 0.7730388
vt 0.70971465 0.69594944
vt 0.6927304 0.7129336
vt 0.6116066 0.70351714
vt 0.70032936 0.6148065
vt 0.61687636 0.60333335
vt 0.6001256 0.62007856
vt 0.5422402 0.5622699
vt 0.55908734 0.54543656
vt 0.45991567 0.5503834
vt 0.54728687 0.4630952
vt 0.4649625 0.451208
vt 0.44811556 0.46804124
vt 0.40707788 0.393399
vt 0.39032695 0.41014355
vt 0.3068746 0.39866656
vt 0.39560112 0.30995914
vt 0.3144791 0.30054
vt 0.29749438 0.31752306
vt 0.2373929 0.2573226
vt 0.25428325 0.24043053
vt 0.15357196 0.24718878
vt 0.24412528 0.15661913
vt 0.1576322 0.14400557
vt 0.14095399 0.16068673
vt 0.085415244 0.10513818
vt 0.10209015 0.08846252
vt 0.08825275 0.021489054
vt 0.01845355 0.091288224
vt 0.98197985 0.9236007
vt 0.92042136 0.98516
vt 0.91455615 0.98279107
vt 0.97961116 0.9177351
vt 0.9050586 0.92506886
vt 0.9218881 0.90823734
vt 0.8663449 0.8526957
vt 0.84951586 0.8695295
vt 0.7658566 0.8540859
vt 0.8508813 0.76903296
vt 0.7698186 0.7561445
vt 0.7529296 0.7730379
vt 0.70971555 0.69594854
vt 0.69273144 0.71293265
vt 0.6116076 0.70351624
vt 0.70033026 0.6148055
vt 0.61687726 0.6033324
vt 0.60012656 0.62007755
vt 0.54224116 0.56226903
vt 0.55908823 0.54543567
vt 0.45991662 0.5503825
vt 0.54728776 0.46309423
vt 0.4649634 0.4512071
vt 0.44811645 0.4680403
vt 0.40707883 0.3933981
vt 0.39032784 0.41014266
vt 0.30687556 0.3986656
vt 0.39560202 0.30995822
vt 0.31448 0.30053905
vt 0.29749528 0.3175221
vt 0.23739383 0.25732172
vt 0.25428417 0.24042961
vt 0.15357292 0.24718782
vt 0.2441262 0.15661824
vt 0.1576331 0.14400464
vt 0.14095488 0.16068581
vt 0.08541615 0.10513726
vt 0.10209106 0.08846161
vt 0.08825366 0.021488145
vt 0.018454503 0.0912873
vn -0 1 -7.368546E-06
vn -0 1 3.613191E-06
vn -0 1 -7.368546E-06
vn -0 1 3.613191E-06
vn -0 1 9.993511E-06
vn -0 1 9.993511E-06
vn -0 1 0
vn -0 1 0
vn -0 1 -3.1866668E-07
vn -0 1 -3.1866668E-07
vn -0 1 -1.6620044E-07
vn -0 1 -1.6620044E-07
vn -0 1 7.3034666E-06
vn -0 1 7.3034666E-06
vn -0 1 5.639061E-06
vn -0 1 5.639061E-06
vn -0 1 -3.741621E-07
vn -0 1 -3.741621E-07
vn -0 1 0
vn -0 1 0
vn -0 1 3.2220902E-07
vn -0 1 3.2220902E-07
vn -0 1 3.7702029E-07
vn -0 1 3.7702029E-07
vn -0 1 0
vn -0 1 0
vn -0 1 -6.2936533E-06
vn -0 1 -6.2936533E-06
vn -0 1 -7.282125E-06
vn -0 1 -7.282125E-06
vn -0 1 2.082205E-07
vn -0 1 2.082205E-07
vn -0 1 0
vn -0 1 0
vn -0 1 0
vn -0 1 0
vn -0 1 -9.394893E-06
vn -0 1 -9.394893E-06
vn -0 1 -1.6005235E-05
vn -0 1 -1.6005235E-05
vn -0 -1 7.368546E-06
vn -0 -1 7.368546E-06
vn -0 -1 1.0941357E-05
vn -0 -1 1.0941357E-05
vn -0 -1 8.941562E-06
vn -0 -1 8.941562E-06
vn -0 -1 0
vn -0 -1 0
vn -0 -1 0
vn -0 -1 0
vn -0 -1 0
vn -0 -1 0
vn -0 -1 6.7014676E-06
vn -0 -1 6.7014676E-06
vn -0 -1 5.6311414E-06
vn -0 -1 5.6311414E-06
vn -0 -1 0
vn -0 -1 0
vn -0 -1 3.7701605E-07
vn -0 -1 3.7701605E-07
vn -0 -1 0
vn -0 -1 0
vn -0 -1 -1.5937539E-07
vn -0 -1 -1.5937539E-07
vn -0 -1 -1.5671068E-07
vn -0 -1 -1.5671068E-07
vn -0 -1 -5.9544877E-06
vn -0 -1 -5.9544877E-06
vn -0 -1 -6.7015067E-06
vn -0 -1 -6.7015067E-06
vn -0 -1 3.7914185E-07
vn -0 -1 3.7914185E-07
vn -0 -1 0
vn -0 -1 0
vn -0 -1 -3.5795853E-07
vn -0 -1 -3.5795853E-07
vn -0 -1 -9.394893E-06
vn -0 -1 -9.394893E-06
vn -0 -1 -1.6005235E-05
vn -0 -1 -1.6005235E-05
g S_wpn_claym_0013_vfx_01_lod0_0
f 3/3/3 2/2/2 1/1/1
f 2/2/2 4/4/4 1/1/1
f 2/2/2 5/5/5 4/4/4
f 5/5/5 6/6/6 4/4/4
f 7/7/7 6/6/6 5/5/5
f 8/8/8 7/7/7 5/5/5
f 7/7/7 8/8/8 9/9/9
f 10/10/10 7/7/7 9/9/9
f 11/11/11 10/10/10 9/9/9
f 12/12/12 11/11/11 9/9/9
f 13/13/13 11/11/11 12/12/12
f 14/14/14 13/13/13 12/12/12
f 13/13/13 14/14/14 15/15/15
f 16/16/16 13/13/13 15/15/15
f 17/17/17 16/16/16 15/15/15
f 18/18/18 17/17/17 15/15/15
f 17/17/17 18/18/18 19/19/19
f 20/20/20 17/17/17 19/19/19
f 19/19/19 21/21/21 20/20/20
f 21/21/21 22/22/22 20/20/20
f 23/23/23 22/22/22 21/21/21
f 24/24/24 23/23/23 21/21/21
f 23/23/23 24/24/24 25/25/25
f 24/24/24 26/26/26 25/25/25
f 26/26/26 27/27/27 25/25/25
f 27/27/27 28/28/28 25/25/25
f 28/28/28 27/27/27 29/29/29
f 27/27/27 30/30/30 29/29/29
f 30/30/30 31/31/31 29/29/29
f 31/31/31 32/32/32 29/29/29
f 31/31/31 33/33/33 32/32/32
f 33/33/33 34/34/34 32/32/32
f 34/34/34 33/33/33 35/35/35
f 33/33/33 36/36/36 35/35/35
f 36/36/36 37/37/37 35/35/35
f 37/37/37 38/38/38 35/35/35
f 39/39/39 38/38/38 37/37/37
f 40/40/40 39/39/39 37/37/37
f 43/43/43 42/42/42 41/41/41
f 44/44/44 43/43/43 41/41/41
f 45/45/45 43/43/43 44/44/44
f 46/46/46 45/45/45 44/44/44
f 46/46/46 47/47/47 45/45/45
f 47/47/47 48/48/48 45/45/45
f 48/48/48 47/47/47 49/49/49
f 47/47/47 50/50/50 49/49/49
f 50/50/50 51/51/51 49/49/49
f 51/51/51 52/52/52 49/49/49
f 51/51/51 53/53/53 52/52/52
f 53/53/53 54/54/54 52/52/52
f 54/54/54 53/53/53 55/55/55
f 53/53/53 56/56/56 55/55/55
f 56/56/56 57/57/57 55/55/55
f 57/57/57 58/58/58 55/55/55
f 58/58/58 57/57/57 59/59/59
f 57/57/57 60/60/60 59/59/59
f 61/61/61 59/59/59 60/60/60
f 62/62/62 61/61/61 60/60/60
f 62/62/62 63/63/63 61/61/61
f 63/63/63 64/64/64 61/61/61
f 64/64/64 63/63/63 65/65/65
f 66/66/66 64/64/64 65/65/65
f 67/67/67 66/66/66 65/65/65
f 68/68/68 67/67/67 65/65/65
f 67/67/67 68/68/68 69/69/69
f 70/70/70 67/67/67 69/69/69
f 71/71/71 70/70/70 69/69/69
f 72/72/72 71/71/71 69/69/69
f 73/73/73 71/71/71 72/72/72
f 74/74/74 73/73/73 72/72/72
f 73/73/73 74/74/74 75/75/75
f 76/76/76 73/73/73 75/75/75
f 77/77/77 76/76/76 75/75/75
f 78/78/78 77/77/77 75/75/75
f 78/78/78 79/79/79 77/77/77
f 79/79/79 80/80/80 77/77/77
