g S_wpn_sword_0021_02_lod0
v -0.022634322 -0.019856507 0.25853595
v -0.022634318 -0.019856509 0.23312828
v -0.06037236 -0.019856468 0.23312828
v -0.06037237 -0.019856464 0.25853592
v 0.05587848 -0.019856596 0.23312828
v 0.024419563 -0.019856555 0.23312828
v 0.024419554 -0.019856554 0.25853598
v 0.05587848 -0.019856593 0.25853598
v -0.020416396 -0.028763646 0.33528998
v -0.020416409 -0.028763644 0.35345748
v 0.021772742 -0.028763628 0.3534575
v 0.021772755 -0.028763628 0.33529
v -0.025887826 -0.022180934 0.3356988
v -0.045467384 -0.022180924 0.3356988
v -0.04546738 -0.022180922 0.3540928
v -0.025887817 -0.022180934 0.35409278
v -0.026969315 -0.021730058 0.36803845
v 0.028325662 -0.021730008 0.3680384
v 0.02832566 -0.02173001 0.35745788
v -0.026969315 -0.02173006 0.35745797
v 0.046823725 -0.022180967 0.33569878
v 0.02724416 -0.022180954 0.3356988
v 0.027244164 -0.022180954 0.35409278
v 0.04682373 -0.022180967 0.35409278
v 0.022634324 0.019856418 0.25853592
v 0.02263432 0.019856429 0.23312823
v 0.06037236 0.019856384 0.23312823
v 0.06037237 0.019856373 0.25853586
v -0.05587848 0.019856522 0.23312823
v -0.02441956 0.019856479 0.23312823
v -0.02441955 0.019856468 0.25853595
v -0.05587848 0.019856509 0.25853595
v 0.020416398 0.028763533 0.33528996
v 0.020416413 0.028763525 0.35345745
v -0.021772739 0.02876351 0.35345748
v -0.021772753 0.028763518 0.33528998
v 0.02588783 0.02218082 0.33569878
v 0.045467384 0.022180807 0.33569878
v 0.04546738 0.0221808 0.35409278
v 0.02588782 0.022180814 0.35409275
v 0.026969317 0.021729933 0.3680384
v -0.02832566 0.021729888 0.36803836
v -0.028325656 0.021729894 0.35745785
v 0.026969317 0.021729939 0.3574579
v -0.046823725 0.022180859 0.33569872
v -0.027244158 0.022180846 0.33569878
v -0.027244162 0.02218084 0.35409275
v -0.04682373 0.022180852 0.35409275
v -0.016638963 0.019856406 0.8404071
v 0.0152826095 0.01985646 0.840407
v 0.015282619 0.019856462 0.8759255
v -0.016638959 0.019856408 0.8759256
v 0.016638963 -0.019856406 0.840407
v -0.01528261 -0.019856457 0.84040695
v -0.01528262 -0.019856459 0.87592536
v 0.016638957 -0.019856406 0.8759254
vt 0.696208 0.072287
vt 0.696208 0.00461
vt 0.595687 0.00461
vt 0.595687 0.072287
vt 0.784661 0.005043
vt 0.700865 0.005043
vt 0.700865 0.07272
vt 0.784661 0.07272
vt 0.607515 0.079385
vt 0.607515 0.127777
vt 0.719893 0.127777
vt 0.719893 0.079385
vt 0.783043 0.077917
vt 0.73089 0.077917
vt 0.73089 0.126912
vt 0.783043 0.126912
vt 0.638626 0.160305
vt 0.785913 0.160305
vt 0.785913 0.132122
vt 0.638626 0.132123
vt -0.216957 0.077917
vt -0.26911 0.077917
vt -0.26911 0.126912
vt -0.216957 0.126912
vt 0.696208 0.072287
vt 0.696208 0.00461
vt 0.595687 0.00461
vt 0.595687 0.072287
vt 0.784661 0.005043
vt 0.700865 0.005043
vt 0.700865 0.07272
vt 0.784661 0.07272
vt 0.607515 0.079385
vt 0.607515 0.127777
vt 0.719893 0.127777
vt 0.719893 0.079385
vt 0.783043 0.077917
vt 0.73089 0.077917
vt 0.73089 0.126912
vt 0.783043 0.126912
vt 0.638626 0.160305
vt 0.785913 0.160305
vt 0.785913 0.132122
vt 0.638626 0.132123
vt -0.216957 0.077917
vt -0.26911 0.077917
vt -0.26911 0.126912
vt -0.216957 0.126912
vt 0.78485 0.16417
vt 0.699823 0.164171
vt 0.699823 0.258779
vt 0.784851 0.25878
vt 0.78485 0.16417
vt 0.699823 0.164171
vt 0.699823 0.258779
vt 0.784851 0.25878
vn -1.1056019E-06 -1 1.4075563E-07
vn -1.1056019E-06 -1 1.4075563E-07
vn -1.1056019E-06 -1 1.4075563E-07
vn -1.1056019E-06 -1 1.4075563E-07
vn -1.2504898E-06 -1 1.407554E-07
vn -1.2504901E-06 -1 1.407554E-07
vn -1.2504901E-06 -1 1.407554E-07
vn -1.2504898E-06 -1 1.407554E-07
vn 4.2383857E-07 -1 0
vn 4.2383857E-07 -1 0
vn 4.2383857E-07 -1 0
vn 4.2383857E-07 -1 0
vn -5.4796095E-07 -1 0
vn -5.4796095E-07 -1 0
vn -5.4796095E-07 -1 0
vn -5.479609E-07 -1 0
vn 9.054695E-07 -1 2.2533759E-07
vn 9.054695E-07 -1 2.2533759E-07
vn 9.054695E-07 -1 2.2533759E-07
vn 9.054695E-07 -1 2.2533759E-07
vn -6.088454E-07 -1 0
vn -6.088455E-07 -1 0
vn -6.088455E-07 -1 0
vn -6.088455E-07 -1 0
vn 1.1687794E-06 1 4.6918615E-07
vn 1.1687794E-06 1 4.6918615E-07
vn 1.1687794E-06 1 4.6918615E-07
vn 1.1687794E-06 1 4.6918615E-07
vn 1.3262771E-06 1 4.691852E-07
vn 1.3262771E-06 1 4.691852E-07
vn 1.3262771E-06 1 4.691852E-07
vn 1.3262771E-06 1 4.691852E-07
vn -3.3907057E-07 1 3.9370107E-07
vn -3.3907054E-07 1 3.9370107E-07
vn -3.3907057E-07 1 3.9370107E-07
vn -3.3907054E-07 1 3.9370107E-07
vn 6.697299E-07 1 3.240443E-07
vn 6.697299E-07 1 3.240443E-07
vn 6.697299E-07 1 3.240443E-07
vn 6.697299E-07 1 3.2404432E-07
vn -8.192346E-07 1 4.5067526E-07
vn -8.192346E-07 1 4.506753E-07
vn -8.192346E-07 1 4.506752E-07
vn -8.192346E-07 1 4.506752E-07
vn 6.6972956E-07 1 3.2404427E-07
vn 6.6972973E-07 1 3.2404427E-07
vn 6.697296E-07 1 3.2404427E-07
vn 6.697297E-07 1 3.240443E-07
vn -1.6618271E-06 1 0
vn -1.6618272E-06 1 0
vn -1.6618271E-06 1 0
vn -1.6618272E-06 1 0
vn 1.5871383E-06 -1 0
vn 1.5871383E-06 -1 0
vn 1.5871384E-06 -1 0
vn 1.5871384E-06 -1 0
g S_wpn_sword_0021_02_lod0_0
f 3/3/3 2/2/2 1/1/1
f 4/4/4 3/3/3 1/1/1
f 7/7/7 6/6/6 5/5/5
f 8/8/8 7/7/7 5/5/5
f 11/11/11 10/10/10 9/9/9
f 12/12/12 11/11/11 9/9/9
f 15/15/15 14/14/14 13/13/13
f 16/16/16 15/15/15 13/13/13
f 19/19/19 18/18/18 17/17/17
f 20/20/20 19/19/19 17/17/17
f 23/23/23 22/22/22 21/21/21
f 24/24/24 23/23/23 21/21/21
f 27/27/27 26/26/26 25/25/25
f 28/28/28 27/27/27 25/25/25
f 31/31/31 30/30/30 29/29/29
f 32/32/32 31/31/31 29/29/29
f 35/35/35 34/34/34 33/33/33
f 36/36/36 35/35/35 33/33/33
f 39/39/39 38/38/38 37/37/37
f 40/40/40 39/39/39 37/37/37
f 43/43/43 42/42/42 41/41/41
f 44/44/44 43/43/43 41/41/41
f 47/47/47 46/46/46 45/45/45
f 48/48/48 47/47/47 45/45/45
f 51/51/51 50/50/50 49/49/49
f 52/52/52 51/51/51 49/49/49
f 55/55/55 54/54/54 53/53/53
f 56/56/56 55/55/55 53/53/53
