g S_wpn_misc_0022_04_lod0
v 0.34390494 -0.26391706 0.37144968
v 0.09455726 -0.27106944 0.45686063
v 0.22402513 -0.270495 0.85747963
v 0.48061255 -0.2630454 0.78151727
v 0.21419899 -0.2842946 0.20409082
v 0.034934707 -0.28884393 0.18775423
v 0.00021201394 -0.28848615 0.46656054
v 0.17426483 -0.28377363 0.49136734
v -0.21419899 -0.2842946 0.20409082
v -0.17426483 -0.28377363 0.49136734
v -0.00021201394 -0.28848615 0.46656054
v -0.034934707 -0.28884393 0.18775423
v 0.07734037 -0.27509195 0.48650095
v 0.04398014 -0.27509192 0.5145197
v 0.08692129 -0.27509195 0.5218692
v 0.12028153 -0.27509195 0.49385038
v -0.07734037 -0.27509195 0.48650095
v -0.12028153 -0.27509195 0.49385038
v -0.08692129 -0.27509195 0.5218692
v -0.04398014 -0.27509192 0.5145197
vt 0.9924004 0.6947479
vt 0.9924003 0.5103052
vt 0.6962203 0.5103053
vt 0.6962203 0.694748
vt 0.9881276 0.76124644
vt 0.83751184 0.76124644
vt 0.83751196 0.9931307
vt 0.9881277 0.9931307
vt 0.9881276 0.76124644
vt 0.9881277 0.9931307
vt 0.83751196 0.9931307
vt 0.83751184 0.76124644
vt 0.83645 0.7044169
vt 0.7722802 0.70441693
vt 0.81268907 0.75428516
vt 0.87685853 0.7542851
vt 0.83645 0.7044169
vt 0.87685853 0.7542851
vt 0.81268907 0.75428516
vt 0.7722802 0.70441693
vn 0.026630335 -0.99962115 -0.006960514
vn 0.026630335 -0.99962115 -0.0069605145
vn 0.026630336 -0.99962115 -0.0069605145
vn 0.026630336 -0.99962115 -0.0069605145
vn 0.025630632 -0.9996593 0.0049320627
vn 0.025630632 -0.9996593 0.0049320627
vn 0.025630632 -0.9996593 0.0049320627
vn 0.025630632 -0.9996593 0.0049320622
vn -0.025630634 -0.9996593 0.0049320646
vn -0.025630634 -0.9996593 0.004932064
vn -0.025630632 -0.9996593 0.004932064
vn -0.025630632 -0.9996593 0.004932064
vn -4.6577208E-07 -1 1.261732E-07
vn -4.6577208E-07 -1 1.261732E-07
vn -4.6577208E-07 -1 1.261732E-07
vn -4.6577208E-07 -1 1.2617322E-07
vn 4.6577208E-07 -1 1.261732E-07
vn 4.6577208E-07 -1 1.2617322E-07
vn 4.6577208E-07 -1 1.261732E-07
vn 4.6577208E-07 -1 1.261732E-07
g S_wpn_misc_0022_04_lod0_0
f 3/3/3 2/2/2 1/1/1
f 4/4/4 3/3/3 1/1/1
f 7/7/7 6/6/6 5/5/5
f 8/8/8 7/7/7 5/5/5
f 11/11/11 10/10/10 9/9/9
f 12/12/12 11/11/11 9/9/9
f 15/15/15 14/14/14 13/13/13
f 16/16/16 15/15/15 13/13/13
f 19/19/19 18/18/18 17/17/17
f 20/20/20 19/19/19 17/17/17
