g S_wpn_misc_0033_04_lod0
v 0.07881233 0.3492702 1.7310772
v 0.21640918 0.31018776 1.6230175
v 0.2164092 0.3092481 1.7310772
v 0.07881233 0.35340548 1.6230175
v 0.21640918 0.31077406 1.4831108
v -0.083076656 0.35093063 1.6230175
v -0.08307669 0.3459003 1.7310772
v 0.07881233 0.35598522 1.4831108
v 0.21640915 0.31129023 1.3335583
v -0.21473804 0.31166556 1.6230175
v -0.21473813 0.31199345 1.7310776
v -0.08307668 0.3540686 1.4831108
v -0.2147381 0.31146124 1.4831108
v 0.07881233 0.35825226 1.3335583
v 0.21640915 0.31130844 1.1745936
v -0.08307669 0.35682502 1.3335583
v -0.21473813 0.31128445 1.3335583
v 0.07881232 0.35829693 1.1745936
v -0.0830767 0.35686868 1.1745936
v -0.21473813 0.3113047 1.1745936
v -0.21473818 0.31149033 1.0094155
v -0.083076745 0.35670093 1.0094155
v -0.21473819 0.3132643 0.8442376
v 0.07881234 0.35822517 1.0094155
v 0.21640915 0.31135303 1.0094155
v 0.2164091 0.31177908 0.8442376
v -0.08307673 0.3550978 0.8442376
v 0.07881235 0.35753962 0.8442376
v 0.2164091 0.31262988 0.6847391
v 0.07881235 0.3561708 0.6847391
v -0.083076656 0.35189673 0.6847391
v -0.21473813 0.31680655 0.6847391
v 0.43467316 0.20529935 1.6778638
v 0.4339131 0.19019982 1.7569625
v 0.32862982 0.22308646 1.7592678
v 0.4576215 0.26623988 1.6230175
v 0.33594897 0.30640465 1.6230175
v 0.2246758 0.26261225 1.786383
v 0.23170376 0.30588576 1.6230175
v 0.33709365 0.29948848 1.4831108
v 0.45169836 0.25664854 1.4831108
v 0.2159411 0.30492416 1.4831108
v 0.44652697 0.26933548 1.3335583
v 0.33806777 0.29805866 1.3335583
v 0.20217653 0.30489135 1.3335583
v 0.33788756 0.29836354 1.1745936
v 0.44653463 0.27010474 1.1745936
v 0.2021765 0.30486214 1.1745936
v 0.33674136 0.3013595 1.0094155
v 0.20217651 0.30464163 1.0094155
v 0.44659317 0.26021296 1.0094155
v 0.20217651 0.30236408 0.84423774
v 0.33657807 0.29556403 0.84423774
v 0.44719777 0.24992217 0.84423774
v 0.20217651 0.2975441 0.68473923
v 0.33808342 0.28778785 0.68473923
v 0.44853023 0.24858348 0.68473923
v 0.32101184 0.27388722 0.51321274
v 0.44928944 0.25069782 0.51321274
v 0.44521087 0.24938796 0.3416863
v 0.3974939 0.25651836 0.3416863
v 0.43620524 0.24456947 0.16859794
v -0.43467316 0.20529932 1.6778638
v -0.32862982 0.22308646 1.7592678
v -0.4339131 0.19019979 1.7569625
v -0.4576215 0.26623982 1.6230175
v -0.33594897 0.30640465 1.6230175
v -0.22467583 0.26261225 1.786383
v -0.23170379 0.30588576 1.6230175
v -0.33709365 0.29948848 1.4831107
v -0.45169836 0.25664848 1.4831107
v -0.21594113 0.30492416 1.4831107
v -0.44652697 0.2693354 1.3335583
v -0.33806777 0.29805866 1.3335583
v -0.20217657 0.30489135 1.3335583
v -0.33788756 0.29836354 1.1745936
v -0.44653463 0.27010468 1.1745936
v -0.20217653 0.30486214 1.1745936
v -0.33674136 0.3013595 1.0094155
v -0.20217654 0.30464163 1.0094155
v -0.44659317 0.2602129 1.0094155
v -0.20217654 0.30236408 0.84423774
v -0.33657807 0.29556403 0.84423774
v -0.44719777 0.2499221 0.84423774
v -0.20217654 0.2975441 0.68473923
v -0.33808342 0.28778785 0.68473923
v -0.44853023 0.2485834 0.68473923
v -0.32101184 0.27388722 0.51321274
v -0.44928944 0.25069773 0.51321274
v -0.44521087 0.24938789 0.3416863
v -0.3974939 0.25651836 0.3416863
v -0.43620524 0.24456947 0.16859794
vt 0.424956 0.77533
vt 0.38237733 0.74353886
vt 0.38237733 0.77533
vt 0.424956 0.74353886
vt 0.38237733 0.70238864
vt 0.47260404 0.74353886
vt 0.47260404 0.77533
vt 0.424956 0.70238864
vt 0.38237733 0.6584047
vt 0.51320165 0.74353886
vt 0.51320165 0.77533
vt 0.47260404 0.70238864
vt 0.51320165 0.70238864
vt 0.424956 0.6584047
vt 0.38237733 0.61165595
vt 0.47260404 0.6584047
vt 0.51320165 0.6584047
vt 0.424956 0.61165595
vt 0.47260404 0.61165595
vt 0.51320165 0.61165595
vt 0.51320165 0.563079
vt 0.47260404 0.563079
vt 0.51320165 0.51450056
vt 0.424956 0.563079
vt 0.38237733 0.563079
vt 0.38237733 0.51450056
vt 0.47260404 0.51450056
vt 0.424956 0.51450056
vt 0.38237733 0.46759027
vt 0.424956 0.46759027
vt 0.47260404 0.46759027
vt 0.51320165 0.46759027
vt 0.20482056 0.72347856
vt 0.20482056 0.7480118
vt 0.2407825 0.7480118
vt 0.20482056 0.69681084
vt 0.2407825 0.69615877
vt 0.2812805 0.7480118
vt 0.2812805 0.6963366
vt 0.2407825 0.6522099
vt 0.20482056 0.65229714
vt 0.2812805 0.6521547
vt 0.20482056 0.6049435
vt 0.2407825 0.6049577
vt 0.2812805 0.6049435
vt 0.2407825 0.5547168
vt 0.20482056 0.5547346
vt 0.2812805 0.5547166
vt 0.2407825 0.50252604
vt 0.2812805 0.50251913
vt 0.20482056 0.5025224
vt 0.2812805 0.45031685
vt 0.2407825 0.45030615
vt 0.20482056 0.45026857
vt 0.2812805 0.3999046
vt 0.2407825 0.39989108
vt 0.20482056 0.39982596
vt 0.2449299 0.345579
vt 0.20482056 0.345579
vt 0.20482056 0.29137582
vt 0.22012809 0.29137582
vt 0.20482056 0.23665427
vt 1.2048205 0.72347856
vt 1.2407825 0.7480118
vt 1.2048205 0.7480118
vt 1.2048205 0.69681084
vt 1.2407825 0.69615877
vt 1.2812805 0.7480118
vt 1.2812805 0.6963366
vt 1.2407825 0.6522099
vt 1.2048205 0.65229714
vt 1.2812805 0.6521547
vt 1.2048205 0.6049435
vt 1.2407825 0.6049577
vt 1.2812805 0.6049435
vt 1.2407825 0.5547168
vt 1.2048205 0.5547346
vt 1.2812805 0.5547166
vt 1.2407825 0.50252604
vt 1.2812805 0.50251913
vt 1.2048205 0.5025224
vt 1.2812805 0.45031685
vt 1.2407825 0.45030615
vt 1.2048205 0.45026857
vt 1.2812805 0.3999046
vt 1.2407825 0.39989108
vt 1.2048205 0.39982596
vt 1.2449299 0.345579
vt 1.2048205 0.345579
vt 1.2048205 0.29137582
vt 1.220128 0.29137582
vt 1.2048205 0.23665427
vn 0.13786715 0.989908 0.03278543
vn 0.29768524 0.9545192 0.016629335
vn 0.28944945 0.95692945 0.022470782
vn 0.14263579 0.9894767 0.024306921
vn 0.31174895 0.950114 0.009798269
vn -0.15032205 0.9883541 0.023653649
vn -0.1445135 0.9889893 0.03187577
vn 0.15194105 0.9882847 0.014397135
vn 0.32034022 0.9472919 0.0045066816
vn -0.28232342 0.9591943 0.015485079
vn -0.26767567 0.9632811 0.020959446
vn -0.16136256 0.98679566 0.014009696
vn -0.30717748 0.95160884 0.009094953
vn 0.15747847 0.9875003 0.006610865
vn 0.32294986 0.9464161 5.4665135E-05
vn -0.16786596 0.98578876 0.0064395573
vn -0.32220328 0.9466612 0.0041837557
vn 0.15925099 0.98723817 -8.567909E-05
vn -0.16990966 0.9854596 -5.2171566E-05
vn -0.32643536 0.9452196 0.00012061974
vn -0.31989554 0.94745284 0.00027085587
vn -0.16728657 0.9859067 -0.0018009213
vn -0.29723078 0.9548054 0.00075806706
vn 0.15732004 0.9875453 -0.0021493458
vn 0.32091722 0.9471071 -0.00041101367
vn 0.3138486 0.9494723 -0.0011442383
vn -0.15838711 0.9873645 -0.004987501
vn 0.15076563 0.9885515 -0.005969084
vn 0.30865914 0.9511714 -0.0015446574
vn 0.14612757 0.989233 -0.008040529
vn -0.15212889 0.98833805 -0.0066916533
vn -0.2804068 0.95988077 0.00102653
vn 0.3710117 0.79705966 0.47649378
vn 0.29681188 0.9374688 0.18180995
vn 0.39235377 0.79003865 0.47105998
vn 0.38446194 0.878711 0.2829418
vn 0.23033515 0.9471356 0.22333795
vn 0.26937625 0.86842024 0.4162723
vn 0.008866385 0.9937298 0.11145558
vn 0.17931393 0.9836411 -0.017230526
vn 0.32833105 0.9442303 -0.025055418
vn 0.03558468 0.9992156 -0.017372511
vn 0.28017792 0.95978695 0.017589862
vn 0.16553475 0.9861773 0.0072468403
vn 0.04836976 0.99882525 -0.0029258179
vn 0.16199389 0.9867893 -0.002225736
vn 0.278488 0.96039814 -0.008935797
vn 0.042595275 0.9990821 0.004554271
vn 0.18705946 0.9821321 -0.020624693
vn 0.036810063 0.99928963 -0.008079772
vn 0.3349806 0.94164586 -0.033028744
vn 0.04926424 0.99828064 -0.031760905
vn 0.2077638 0.97760665 -0.03345656
vn 0.3620489 0.9315389 -0.034001466
vn 0.064990744 0.9962268 -0.057518035
vn 0.19077812 0.9804308 -0.0485713
vn 0.3057211 0.95149785 -0.03444228
vn 0.18652329 0.9814245 -0.044890035
vn 0.21165468 0.9768322 -0.03163947
vn 0.15898594 0.98693 -0.026319988
vn 0.16089946 0.9866588 -0.024811432
vn 0.14769843 0.9884058 -0.035200205
vn -0.37101197 0.7970596 0.47649363
vn -0.392354 0.7900385 0.4710598
vn -0.29681218 0.9374687 0.18180993
vn -0.38446236 0.87871087 0.28294176
vn -0.23033538 0.9471356 0.22333789
vn -0.26937643 0.8684202 0.4162724
vn -0.008866387 0.9937298 0.11145559
vn -0.17931421 0.98364097 -0.017230501
vn -0.3283317 0.9442301 -0.02505537
vn -0.0355847 0.9992156 -0.017372502
vn -0.2801785 0.9597867 0.017589869
vn -0.16553508 0.9861773 0.007246845
vn -0.048369776 0.99882525 -0.0029258218
vn -0.16199419 0.98678917 -0.0022257352
vn -0.2784886 0.960398 -0.008935796
vn -0.042595282 0.9990821 0.004554271
vn -0.18705975 0.98213196 -0.020624688
vn -0.036810063 0.99928963 -0.008079771
vn -0.3349812 0.94164574 -0.03302874
vn -0.049264256 0.99828064 -0.0317609
vn -0.20776413 0.97760665 -0.033456556
vn -0.3620494 0.9315385 -0.034001455
vn -0.06499077 0.9962268 -0.05751803
vn -0.1907784 0.98043066 -0.0485713
vn -0.3057217 0.9514978 -0.034442287
vn -0.18652384 0.9814244 -0.044889987
vn -0.21165535 0.9768321 -0.031639382
vn -0.15898709 0.9869298 -0.026319716
vn -0.16090055 0.98665875 -0.024811177
vn -0.14770001 0.9884057 -0.03519985
g S_wpn_misc_0033_04_lod0_0
f 3/3/3 2/2/2 1/1/1
f 2/2/2 4/4/4 1/1/1
f 4/4/4 2/2/2 5/5/5
f 4/4/4 6/6/6 1/1/1
f 6/6/6 7/7/7 1/1/1
f 8/8/8 4/4/4 5/5/5
f 6/6/6 4/4/4 8/8/8
f 8/8/8 5/5/5 9/9/9
f 6/6/6 10/10/10 7/7/7
f 10/10/10 11/11/11 7/7/7
f 10/10/10 6/6/6 12/12/12
f 12/12/12 6/6/6 8/8/8
f 13/13/13 10/10/10 12/12/12
f 14/14/14 8/8/8 9/9/9
f 12/12/12 8/8/8 14/14/14
f 14/14/14 9/9/9 15/15/15
f 13/13/13 12/12/12 16/16/16
f 16/16/16 12/12/12 14/14/14
f 17/17/17 13/13/13 16/16/16
f 18/18/18 14/14/14 15/15/15
f 16/16/16 14/14/14 18/18/18
f 17/17/17 16/16/16 19/19/19
f 19/19/19 16/16/16 18/18/18
f 20/20/20 17/17/17 19/19/19
f 21/21/21 20/20/20 19/19/19
f 22/22/22 21/21/21 19/19/19
f 22/22/22 19/19/19 18/18/18
f 23/23/23 21/21/21 22/22/22
f 24/24/24 18/18/18 15/15/15
f 24/24/24 22/22/22 18/18/18
f 25/25/25 24/24/24 15/15/15
f 24/24/24 25/25/25 26/26/26
f 27/27/27 23/23/23 22/22/22
f 27/27/27 22/22/22 24/24/24
f 28/28/28 24/24/24 26/26/26
f 28/28/28 27/27/27 24/24/24
f 28/28/28 26/26/26 29/29/29
f 30/30/30 28/28/28 29/29/29
f 27/27/27 28/28/28 30/30/30
f 31/31/31 27/27/27 30/30/30
f 23/23/23 27/27/27 31/31/31
f 32/32/32 23/23/23 31/31/31
f 35/35/35 34/34/34 33/33/33
f 33/33/33 36/36/36 35/35/35
f 36/36/36 37/37/37 35/35/35
f 38/38/38 35/35/35 37/37/37
f 39/39/39 38/38/38 37/37/37
f 36/36/36 40/40/40 37/37/37
f 37/37/37 40/40/40 39/39/39
f 40/40/40 36/36/36 41/41/41
f 40/40/40 42/42/42 39/39/39
f 40/40/40 41/41/41 43/43/43
f 40/40/40 44/44/44 42/42/42
f 44/44/44 40/40/40 43/43/43
f 44/44/44 45/45/45 42/42/42
f 46/46/46 44/44/44 43/43/43
f 44/44/44 46/46/46 45/45/45
f 47/47/47 46/46/46 43/43/43
f 46/46/46 48/48/48 45/45/45
f 49/49/49 46/46/46 47/47/47
f 46/46/46 49/49/49 48/48/48
f 49/49/49 50/50/50 48/48/48
f 51/51/51 49/49/49 47/47/47
f 50/50/50 49/49/49 52/52/52
f 49/49/49 51/51/51 53/53/53
f 49/49/49 53/53/53 52/52/52
f 51/51/51 54/54/54 53/53/53
f 52/52/52 53/53/53 55/55/55
f 53/53/53 54/54/54 56/56/56
f 53/53/53 56/56/56 55/55/55
f 54/54/54 57/57/57 56/56/56
f 58/58/58 55/55/55 56/56/56
f 58/58/58 56/56/56 57/57/57
f 59/59/59 58/58/58 57/57/57
f 59/59/59 60/60/60 58/58/58
f 60/60/60 61/61/61 58/58/58
f 60/60/60 62/62/62 61/61/61
f 65/65/65 64/64/64 63/63/63
f 66/66/66 63/63/63 64/64/64
f 67/67/67 66/66/66 64/64/64
f 64/64/64 68/68/68 67/67/67
f 68/68/68 69/69/69 67/67/67
f 70/70/70 66/66/66 67/67/67
f 70/70/70 67/67/67 69/69/69
f 66/66/66 70/70/70 71/71/71
f 72/72/72 70/70/70 69/69/69
f 71/71/71 70/70/70 73/73/73
f 74/74/74 70/70/70 72/72/72
f 70/70/70 74/74/74 73/73/73
f 75/75/75 74/74/74 72/72/72
f 74/74/74 76/76/76 73/73/73
f 76/76/76 74/74/74 75/75/75
f 76/76/76 77/77/77 73/73/73
f 78/78/78 76/76/76 75/75/75
f 76/76/76 79/79/79 77/77/77
f 79/79/79 76/76/76 78/78/78
f 80/80/80 79/79/79 78/78/78
f 79/79/79 81/81/81 77/77/77
f 79/79/79 80/80/80 82/82/82
f 81/81/81 79/79/79 83/83/83
f 83/83/83 79/79/79 82/82/82
f 84/84/84 81/81/81 83/83/83
f 83/83/83 82/82/82 85/85/85
f 84/84/84 83/83/83 86/86/86
f 86/86/86 83/83/83 85/85/85
f 87/87/87 84/84/84 86/86/86
f 85/85/85 88/88/88 86/86/86
f 86/86/86 88/88/88 87/87/87
f 88/88/88 89/89/89 87/87/87
f 90/90/90 89/89/89 88/88/88
f 91/91/91 90/90/90 88/88/88
f 92/92/92 90/90/90 91/91/91
