g S_wpn_funnel_0006_02_lod0
v 9.427523E-10 0.006295221 -0.024312353
v -0 -1.5481094E-18 -0.025282545
v 0.0062952437 4.8222563E-12 -0.024312353
v 0.0061064796 0.0061064796 -0.023493754
v 0.012737748 0.005701247 -0.020801242
v 0.013097389 -7.1851713E-10 -0.021435102
v 0.017824935 -1.0914624E-18 -0.017824935
v 0.011807685 0.011807685 -0.01870585
v 0.017347092 0.005490389 -0.017347092
v 0.020801242 0.005701247 -0.012737748
v 0.021435102 -1.9337283E-09 -0.013097389
v 0.024312353 -1.9337283E-09 -0.006295221
v 0.005701247 0.012737748 -0.020801242
v 0.015903374 0.011259837 -0.015903374
v 0.011259837 0.015903374 -0.015903374
v 0.023493754 0.0061064796 -0.0061064796
v 0.024382718 0.006316632 -4.467961E-05
v 0.025282545 1.4751306E-26 2.409071E-10
v 0.020801242 0.012737748 -0.005701247
v 0.01870585 0.011807685 -0.011807685
v 0.023561513 0.0061269854 0.0060847425
v 0.024382718 3.842026E-19 0.0062745046
v 0.02086884 0.005720411 0.01273759
v 0.021503896 8.020178E-19 0.013097944
v 0.017405204 0.005508768 0.017359622
v 0.017884437 1.0923092E-18 0.017838761
v 0.01278246 0.005720411 0.020825978
v 0.013143451 1.3141014E-18 0.021460904
v 0.006316632 1.4905769E-18 0.024342967
v 0.018766966 0.011844839 0.011805292
v 0.02086884 0.01278246 0.0056782835
v 0.021503896 0.013143451 -4.4679757E-05
v 0.015957415 0.011294094 0.015913311
v 0.017884437 0.017884437 -4.46799E-05
v 0.017405204 0.017405204 0.005466247
v 0.015957415 0.015957415 0.011255948
v 0.01460499 0.01460499 0.014557709
v 0.011294094 0.015957415 0.015913311
v 0.011844839 0.018766966 0.011805292
v 0.011844839 0.011844839 0.01872281
v 0.017347092 0.017347092 -0.005490389
v 0.01278246 0.02086884 0.0056782835
v 0.013143451 0.021503896 -4.4680102E-05
v 0.015903374 0.015903374 -0.011259837
v 0.012737748 0.020801242 -0.005701247
v 0.006316632 0.024382718 -4.46805E-05
v 0.0061269854 0.023561513 0.0060847425
v 0.0057203937 0.02086884 0.01273759
v 0.005508768 0.017405204 0.017359622
v 0.014554005 0.014554005 -0.014554005
v 0.011807695 0.01870585 -0.011807685
v 0.0057203937 0.01278246 0.020825978
v 0.005490389 0.017347092 -0.017347092
v 0.005701259 0.020801242 -0.012737748
v 1.09706475E-08 0.024382718 0.0062745046
v 7.956734E-09 0.017884437 0.017838761
v 0.0061064796 0.023493754 -0.0061064796
v 1.1302178E-08 0.025282545 1.6554376E-14
v -1.166984E-09 0.024312353 -0.0062952437
v -8.7765256E-10 0.021435102 -0.013097389
v 2.7004554E-09 0.017824935 -0.017824935
v 9.523968E-09 0.021503896 0.013097944
v -0.005701247 0.020801242 -0.012737748
v 1.1814528E-09 0.013097389 -0.021435102
v -0.005490389 0.017347092 -0.017347092
v -0.005701247 0.012737748 -0.020801242
v -0.0061064796 0.0061064796 -0.023493754
v -0 -1.5481094E-18 -0.025282545
v -0.006295221 1.1573508E-10 -0.024312353
v -0.012737748 0.005701247 -0.020801242
v -0.011807685 0.011807685 -0.01870585
v -0.011259837 0.015903374 -0.015903374
v -0.0061064796 0.023493754 -0.0061064796
v -0.011807685 0.01870585 -0.011807695
v -0.006316632 0.024382718 -4.4680884E-05
v -0.012737748 0.020801242 -0.005701259
v -0.0061269854 0.023561513 0.0060847425
v -0.0057203937 0.02086884 0.01273759
v -0.01278246 0.02086884 0.0056782835
v -0.005508768 0.017405204 0.017359622
v -0.013143451 0.021503896 -4.468109E-05
v -0.011844839 0.018766966 0.011805292
v 5.786715E-09 0.013143451 0.021460904
v -0.017347092 0.017347092 -0.005490389
v -0.017884437 0.017884437 -4.468167E-05
v -0.017405204 0.017405204 0.005466247
v -0.015957415 0.015957415 0.011255948
v -0.015903374 0.015903374 -0.011259837
v -0.014554005 0.014554005 -0.014554005
v -0.015903374 0.011259837 -0.015903374
v -0.01870585 0.011807685 -0.011807695
v -0.020801242 0.012737748 -0.005701259
v -0.021503896 0.013143451 -4.468169E-05
v -0.02086884 0.01278246 0.0056782723
v -0.017347092 0.005490389 -0.017347092
v -0.024382718 0.006316632 -4.468183E-05
v -0.023493754 0.0061064796 -0.0061064796
v -0.018766966 0.011844839 0.011805281
v -0.02086884 0.0057203937 0.01273759
v -0.015957415 0.011294094 0.015913311
v -0.013097389 -1.6926134E-09 -0.021435102
v -0.020801242 0.005701247 -0.012737748
v -0.023561513 0.0061269854 0.0060847425
v -0.024382718 8.07729E-09 0.0062744813
v -0.025282545 8.288263E-09 -2.409071E-10
v -0.024312353 2.415951E-09 -0.0062952437
v -0.021435102 2.415951E-09 -0.013097389
v -0.020801242 -0.005701247 -0.012737748
v -0.017824935 -1.928905E-09 -0.017824935
v -0.012737748 -0.005701247 -0.020801242
v -0.017347092 -0.005490389 -0.017347092
v -0.024436975 -0.0061180857 7.1742373E-13
v -0.023561513 -0.0061269854 0.0060847425
v -0.023493754 -0.0061064796 -0.0061064796
v -0.020801242 -0.012737748 -0.005701259
v -0.021605743 -0.012953492 1.3024002E-12
v -0.0061064796 -0.0061064796 -0.023493754
v -0.011807685 -0.011807685 -0.01870585
v -0.015903374 -0.011259837 -0.015903374
v 1.0633117E-09 -0.006295221 -0.024312353
v -0 -1.5481094E-18 -0.025282545
v -0.005701247 -0.012737748 -0.020801242
v -0.01870585 -0.011807685 -0.011807695
v -0.011259837 -0.015903374 -0.015903374
v -0.017347092 -0.017347092 -0.005490389
v -0.015903374 -0.015903374 -0.011259837
v -0.0178774 -0.0178774 -1.5820095E-12
v -0.014554005 -0.014554005 -0.014554005
v -0.011807695 -0.01870585 -0.011807695
v -0.012737748 -0.020801242 -0.005701259
v -0.005490389 -0.017347092 -0.017347092
v -0.012953492 -0.021605743 -1.0899304E-12
v -0.0057012415 -0.020801242 -0.012737748
v -0.0061064796 -0.023493754 -0.0061064796
v -0.017405204 -0.017405204 0.005466247
v -0.01278246 -0.02086884 0.0056782835
v -0.0061180857 -0.024436975 -1.2651472E-12
v -0.02086884 -0.01278246 0.0056782723
v -2.8933576E-09 -0.017824935 -0.017824935
v -3.4888556E-09 -0.021435102 -0.013097389
v -4.0055457E-09 -0.024312353 -0.0062952437
v -4.1441024E-09 -0.025282545 -4.822428E-10
v -1.5551789E-09 -0.013097389 -0.021435102
v 0.00570123 -0.020801242 -0.012737748
v 0.005490389 -0.017347092 -0.017347092
v 0.005701247 -0.012737748 -0.020801242
v 0.0061064796 -0.0061064796 -0.023493754
v -0 -1.5481094E-18 -0.025282545
v 0.0062952437 4.8222563E-12 -0.024312353
v 0.012737748 -0.005701247 -0.020801242
v 0.013097389 -7.1851713E-10 -0.021435102
v 0.011807685 -0.011807685 -0.01870585
v 0.017347092 -0.005490389 -0.017347092
v 0.017824935 -1.0914624E-18 -0.017824935
v 0.021435102 -1.9337283E-09 -0.013097389
v 0.011259837 -0.015903374 -0.015903374
v 0.015903374 -0.011259837 -0.015903374
v 0.020801242 -0.005701259 -0.012737748
v 0.024312353 -1.9337283E-09 -0.006295221
v 0.014554005 -0.014554005 -0.014554005
v 0.01870585 -0.011807695 -0.011807685
v 0.023493754 -0.0061064796 -0.0061064796
v 0.025282545 1.4751306E-26 2.409071E-10
v 0.015903374 -0.015903374 -0.011259837
v 0.011807685 -0.01870585 -0.011807685
v 0.020801242 -0.012737748 -0.005701247
v 0.024436975 -0.0061180857 -7.1742303E-13
v 0.024382718 3.842026E-19 0.0062745046
v 0.017347092 -0.017347092 -0.005490389
v 0.021605743 -0.012953492 -1.3189545E-12
v 0.0061064796 -0.023493754 -0.0061064796
v 0.012737748 -0.020801242 -0.005701247
v 0.0061180857 -0.024436975 1.2589416E-12
v 0.0178774 -0.0178774 1.5820118E-12
v 0.02086884 -0.01278246 0.0056782835
v 0.012953492 -0.021605743 1.089933E-12
v 0.0061269854 -0.023561513 0.0060847425
v 0.017405204 -0.017405204 0.005466247
v 0.023561513 -0.0061269854 0.0060847425
v 0.02086884 -0.005720411 0.01273759
v 0.021503896 8.020178E-19 0.013097944
v 0.017884437 1.0923092E-18 0.017838761
v -3.85781E-09 -0.024382718 0.0062745046
v 0.01278246 -0.02086884 0.0056782835
v 0.018766966 -0.011844839 0.011805292
v 0.017405204 -0.005508768 0.017359622
v 0.013143451 1.3141014E-18 0.021460904
v 0.015957415 -0.015957415 0.011255948
v 0.015957415 -0.011294094 0.015913311
v 0.005720411 -0.02086884 0.01273759
v 0.01278246 -0.005720411 0.020825978
v 0.006316632 1.4905769E-18 0.024342967
v 0.011844839 -0.011844839 0.01872281
v 0.0061269854 -0.0061269854 0.02352363
v -2.409071E-10 2.4111313E-10 0.025282545
v -9.795221E-10 -0.006316632 0.024342967
v 0.01460499 -0.01460499 0.014557709
v 0.011844839 -0.018766966 0.011805292
v 0.005720411 -0.01278246 0.020825978
v 0.011294094 -0.015957415 0.015913311
v 0.005508768 -0.017405204 0.017359622
v -2.2001574E-09 -0.013143451 0.021460904
v -3.4961405E-09 -0.021503896 0.013097944
v -2.8933576E-09 -0.017884437 0.017838761
v -0.005720411 -0.02086884 0.01273759
v -0.005720411 -0.01278246 0.020825978
v -0.0061269854 -0.023561513 0.0060847425
v -0.011844839 -0.018766966 0.011805292
v -0.005508768 -0.017405204 0.017359622
v -0.015957415 -0.015957415 0.011255948
v -0.011294094 -0.015957415 0.015913311
v -0.018766966 -0.011844839 0.011805281
v -0.011844839 -0.011844839 0.01872281
v -0.01278246 -0.005720411 0.020825978
v -0.01460499 -0.01460499 0.014557709
v -0.015957415 -0.011294094 0.015913311
v -0.02086884 -0.005720411 0.01273759
v -0.017405204 -0.005508768 0.017359622
v -0.021503896 6.992281E-09 0.013097944
v -0.017884437 5.786715E-09 0.017838761
v -0.017405204 0.005508768 0.017359622
v -0.013143451 4.21948E-09 0.021460904
v -0.011844839 0.011844839 0.01872281
v -0.01278246 0.005720411 0.020825978
v -0.0063166553 2.0042528E-09 0.024342967
v -0.01460499 0.01460499 0.014557709
v -0.011294094 0.015957415 0.015913311
v -0.005720411 0.01278246 0.020825978
v -0.0061269854 0.0061269854 0.02352363
v 2.7577314E-09 0.006316632 0.024342967
v -2.409071E-10 2.4111313E-10 0.025282545
v 0.0061269854 0.0061269854 0.02352363
v -2.409071E-10 2.4111313E-10 0.025282545
v -2.409071E-10 2.4111313E-10 0.025282545
v -0.0061269854 -0.0061269854 0.02352363
vt 0.25045162 0.06734807
vt 0.12097719 0.0031841397
vt 0.000637857 0.07477577
vt 0.12623042 0.11547078
vt 0.067854285 0.19049741
vt 0.000637857 0.17885056
vt 0.000637857 0.24526852
vt 0.12554474 0.23329648
vt 0.0491449 0.25206524
vt 0.043151073 0.31763786
vt 0.000637857 0.31252196
vt 0.000637857 0.40928873
vt 0.18323517 0.19026156
vt 0.09833103 0.27260426
vt 0.15275843 0.27260423
vt 0.041088253 0.41197407
vt 0.040952235 0.49884456
vt 0.000637857 0.49884456
vt 0.08799155 0.41773885
vt 0.090105005 0.33086872
vt 0.041088253 0.58571506
vt 0.000637857 0.58840036
vt 0.043151073 0.6800512
vt 0.000637857 0.6851671
vt 0.0491449 0.7456239
vt 0.000637857 0.7524205
vt 0.067854285 0.7998234
vt 0.000637857 0.81065124
vt 0.000637857 0.92910653
vt 0.09010502 0.6668204
vt 0.08799155 0.5799502
vt 0.08784916 0.49884456
vt 0.09833103 0.72508484
vt 0.12554476 0.49884456
vt 0.12554476 0.5769506
vt 0.12554476 0.6590269
vt 0.12554476 0.7058886
vt 0.15275845 0.72508484
vt 0.16098446 0.6668204
vt 0.12554474 0.76495314
vt 0.12554476 0.42073858
vt 0.16309792 0.5799502
vt 0.16324031 0.49884456
vt 0.12554476 0.3386623
vt 0.16309792 0.41773888
vt 0.21013725 0.49884456
vt 0.2100012 0.58571506
vt 0.20793843 0.6800512
vt 0.20194453 0.7456239
vt 0.12554476 0.29180056
vt 0.16098446 0.33086872
vt 0.18323515 0.7998234
vt 0.20194453 0.25206524
vt 0.20793843 0.31763786
vt 0.25045162 0.58840036
vt 0.25045162 0.7524205
vt 0.21000122 0.41197407
vt 0.25045162 0.49884456
vt 0.25045162 0.40928873
vt 0.25045162 0.31252196
vt 0.25045162 0.24526852
vt 0.25045162 0.6851671
vt 0.29296482 0.31763786
vt 0.25045162 0.17913273
vt 0.29895866 0.25206524
vt 0.31766808 0.19075842
vt 0.3746728 0.108256966
vt 0.37501737 0.0031841397
vt 0.50026536 0.062190264
vt 0.4330489 0.1885573
vt 0.37535846 0.23361984
vt 0.34814483 0.27260423
vt 0.29090205 0.41197407
vt 0.33991876 0.33086872
vt 0.290766 0.49884456
vt 0.33780536 0.41773888
vt 0.29090202 0.58571506
vt 0.29296482 0.6800512
vt 0.33780533 0.5799502
vt 0.29895872 0.7456239
vt 0.33766294 0.49884456
vt 0.33991876 0.6668204
vt 0.25045162 0.81065124
vt 0.3753585 0.42073858
vt 0.3753585 0.49884456
vt 0.3753585 0.5769506
vt 0.3753585 0.6590269
vt 0.3753585 0.3386623
vt 0.3753585 0.29180056
vt 0.4025722 0.27260423
vt 0.41079822 0.33086872
vt 0.41291168 0.41773885
vt 0.41305408 0.49884456
vt 0.41291168 0.5799502
vt 0.45175833 0.25206524
vt 0.459951 0.49884456
vt 0.45981497 0.41197407
vt 0.41079822 0.6668204
vt 0.45775217 0.6800512
vt 0.4025722 0.72508484
vt 0.50026536 0.1777811
vt 0.4577522 0.31763786
vt 0.45981497 0.58571506
vt 0.50026536 0.58840036
vt 0.50026536 0.49884456
vt 0.50026536 0.40928873
vt 0.50026536 0.31252196
vt 0.54277855 0.31763786
vt 0.50026536 0.24526852
vt 0.5674818 0.1897264
vt 0.5487724 0.25206524
vt 0.54057974 0.49884456
vt 0.5407158 0.58571506
vt 0.5407158 0.41197407
vt 0.58761907 0.41773885
vt 0.5874767 0.49884456
vt 0.62037265 0.107918195
vt 0.62517226 0.23361984
vt 0.59795856 0.27260417
vt 0.7500792 0.06959449
vt 0.6239766 -0.0011398066
vt 0.68286276 0.1902177
vt 0.5897324 0.33086872
vt 0.65238595 0.27260423
vt 0.6251723 0.42073858
vt 0.6251723 0.3386623
vt 0.6251723 0.49884456
vt 0.6251723 0.29180056
vt 0.6606121 0.33086872
vt 0.66272545 0.41773888
vt 0.70157206 0.25206524
vt 0.6628679 0.49884456
vt 0.70756596 0.31763786
vt 0.7096288 0.41197407
vt 0.6251723 0.5769506
vt 0.66272545 0.5799502
vt 0.7097648 0.49884456
vt 0.58761907 0.5799502
vt 0.7500792 0.24526852
vt 0.7500792 0.31252196
vt 0.7500792 0.40928873
vt 0.7500792 0.49884456
vt 0.7500792 0.17913273
vt 0.7925924 0.31763786
vt 0.79858613 0.25206524
vt 0.81729555 0.18963319
vt 0.8797858 0.11315763
vt 0.8754763 0.0017428156
vt 0.9998929 0.06830889
vt 0.9326765 0.19049741
vt 0.9998929 0.17885056
vt 0.87498605 0.23329648
vt 0.951386 0.25206524
vt 0.9998929 0.24526852
vt 0.9998929 0.31252196
vt 0.84777224 0.2726042
vt 0.9021997 0.2726043
vt 0.9573797 0.31763786
vt 0.9998929 0.40928873
vt 0.874986 0.29180056
vt 0.91042566 0.33086872
vt 0.95944256 0.41197407
vt 0.9998929 0.49884456
vt 0.874986 0.3386623
vt 0.8395463 0.33086872
vt 0.91253924 0.41773885
vt 0.9595786 0.49884456
vt 0.9998929 0.58840036
vt 0.874986 0.42073858
vt 0.9126817 0.49884456
vt 0.79052955 0.41197407
vt 0.83743286 0.41773888
vt 0.79039353 0.49884456
vt 0.874986 0.49884456
vt 0.91253924 0.5799502
vt 0.8372904 0.49884456
vt 0.7905295 0.58571506
vt 0.874986 0.5769506
vt 0.95944256 0.58571506
vt 0.9573797 0.6800512
vt 0.9998929 0.6851671
vt 0.9998929 0.7524205
vt 0.7500792 0.58840036
vt 0.83743286 0.5799502
vt 0.91042566 0.6668204
vt 0.951386 0.7456239
vt 0.9998929 0.81065124
vt 0.874986 0.6590269
vt 0.90219975 0.72508484
vt 0.7925924 0.6800512
vt 0.93267655 0.7998234
vt 0.9995378 0.92660356
vt 0.87498605 0.76495314
vt 0.87498605 0.889053
vt 0.8766394 1.0000358
vt 0.750182 0.9290354
vt 0.874986 0.70588857
vt 0.8395463 0.6668204
vt 0.81729555 0.7998234
vt 0.8477723 0.72508484
vt 0.79858613 0.7456239
vt 0.7500792 0.81065124
vt 0.7500792 0.6851671
vt 0.7500792 0.7524205
vt 0.70756596 0.6800512
vt 0.68286276 0.7998234
vt 0.7096288 0.58571506
vt 0.6606121 0.6668204
vt 0.70157206 0.7456239
vt 0.6251723 0.6590269
vt 0.65238595 0.72508484
vt 0.5897325 0.6668204
vt 0.62517226 0.7649532
vt 0.5674818 0.7998234
vt 0.6251723 0.70588857
vt 0.59795856 0.72508484
vt 0.5427786 0.6800512
vt 0.5487724 0.7456238
vt 0.50026536 0.6851671
vt 0.50026536 0.7524205
vt 0.45175833 0.7456239
vt 0.50026536 0.81065124
vt 0.37535852 0.76495314
vt 0.4330489 0.7998234
vt 0.50026536 0.92910653
vt 0.3753585 0.70588857
vt 0.34814483 0.72508484
vt 0.31766808 0.7998234
vt 0.3753585 0.8852136
vt 0.25045162 0.92910653
vt 0.38634208 0.9985945
vt 0.12554474 0.8852136
vt 0.13103178 0.9985945
vt 0.6213291 1.0029182
vt 0.62517226 0.8852136
vn -0 0.26734504 -0.9636009
vn -1.3520359E-07 0 -1
vn 0.26734546 0 -0.96360075
vn 0.25687042 0.25687078 -0.9316839
vn 0.48418534 0.23848888 -0.84183574
vn 0.49972653 0 -0.8661833
vn 0.70710677 0 -0.70710677
vn 0.4472833 0.4472833 -0.77451617
vn 0.68830657 0.22905938 -0.68830657
vn 0.8418359 0.23848872 -0.4841853
vn 0.86618346 0 -0.4997263
vn 0.9626723 0.00039562443 -0.27066934
vn 0.23848872 0.48418525 -0.8418359
vn 0.64106345 0.42198983 -0.64106345
vn 0.42198983 0.64106315 -0.6410637
vn 0.9308587 0.25488496 -0.2617932
vn 0.9644364 0.2642299 -0.0067069186
vn 0.99998605 0.0010251739 -0.0051883985
vn 0.8402609 0.48324654 -0.24583401
vn 0.77451617 0.44728336 -0.44728336
vn 0.9326119 0.25515807 0.25520465
vn 0.96428764 0.0006559045 0.2648564
vn 0.8420921 0.23828845 0.4838384
vn 0.8664489 0 0.49926588
vn 0.68836224 0.22904566 0.68825537
vn 0.70722 0 0.7069936
vn 0.4840648 0.23844585 0.8419173
vn 0.4995637 0 0.86627716
vn 0.26566103 0 0.9640665
vn 0.7747934 0.4468888 0.44719753
vn 0.8421477 0.48371604 0.23834017
vn 0.8662896 0.4994868 -0.007436032
vn 0.64102054 0.4217792 0.6412448
vn 0.7070848 0.7070848 -0.007887977
vn 0.68831277 0.6883127 0.22902225
vn 0.6410401 0.6410401 0.4220608
vn 0.5772117 0.57721156 0.5776275
vn 0.42177904 0.64102054 0.64124495
vn 0.44688857 0.77479345 0.44719756
vn 0.44715533 0.44715557 0.7746638
vn 0.6869588 0.68695873 -0.23701358
vn 0.483716 0.8421477 0.23834029
vn 0.49948683 0.8662895 -0.0074360403
vn 0.6410636 0.6410633 -0.42198974
vn 0.48324662 0.840261 -0.24583375
vn 0.2642301 0.9644364 -0.0067069093
vn 0.2551582 0.9326119 0.25520477
vn 0.23828824 0.84209216 0.48383838
vn 0.22904588 0.68836224 0.68825537
vn 0.5773504 0.57734996 -0.5773504
vn 0.44728372 0.7745159 -0.44728327
vn 0.23844552 0.48406488 0.84191746
vn 0.2290593 0.6883064 -0.6883066
vn 0.23848896 0.84183574 -0.4841854
vn 2.3668508E-07 0.9644564 0.26424226
vn 2.2177052E-07 0.7072201 0.7069935
vn 0.2548852 0.9308587 -0.261793
vn 2.6732081E-07 0.9999869 -0.005125023
vn -0 0.9627753 -0.27030313
vn -0 0.8661833 -0.49972647
vn -0 0.70710677 -0.7071068
vn 2.1185203E-07 0.8664489 0.49926588
vn -0.23848866 0.84183574 -0.4841855
vn -0 0.49972624 -0.86618346
vn -0.22905928 0.68830657 -0.6883066
vn -0.23848872 0.4841853 -0.8418359
vn -0.25687057 0.2568705 -0.931684
vn -1.3520359E-07 0 -1
vn -0.26734504 0 -0.9636009
vn -0.48418525 0.23848869 -0.8418359
vn -0.44728336 0.44728336 -0.77451617
vn -0.4219898 0.6410633 -0.64106363
vn -0.2548851 0.9308588 -0.26179305
vn -0.44728327 0.7745159 -0.44728372
vn -0.2642299 0.9644364 -0.006706824
vn -0.48324654 0.84026086 -0.24583411
vn -0.25515792 0.9326119 0.25520477
vn -0.23828803 0.84209216 0.48383838
vn -0.483716 0.8421477 0.23834029
vn -0.22904561 0.6883624 0.6882552
vn -0.4994868 0.8662896 -0.0074360026
vn -0.44688857 0.77479345 0.44719756
vn 2.0941641E-07 0.49956375 0.8662771
vn -0.68695873 0.6869588 -0.23701353
vn -0.7070848 0.7070848 -0.007887926
vn -0.6883129 0.6883126 0.22902231
vn -0.6410404 0.64103985 0.42206076
vn -0.64106345 0.64106345 -0.42198983
vn -0.57735014 0.57735014 -0.5773505
vn -0.6410632 0.42198974 -0.6410637
vn -0.77451587 0.44728333 -0.44728377
vn -0.84026086 0.48324654 -0.24583408
vn -0.8662896 0.4994868 -0.0074359584
vn -0.84214777 0.4837159 0.23834018
vn -0.6883064 0.22905923 -0.6883067
vn -0.9644364 0.26423 -0.0067067905
vn -0.9308588 0.2548851 -0.26179305
vn -0.77479374 0.44688857 0.44719714
vn -0.8420922 0.23828822 0.48383817
vn -0.6410209 0.42177916 0.64124453
vn -0.49972633 0 -0.86618334
vn -0.84183586 0.23848864 -0.48418546
vn -0.9326119 0.25515807 0.2552049
vn -0.96428776 0.00065613625 0.26485595
vn -0.99998605 0.0010253579 -0.0051881517
vn -0.9626722 0.00039567574 -0.27066976
vn -0.8661833 0 -0.49972647
vn -0.84183586 -0.23848864 -0.48418552
vn -0.70710677 0 -0.7071068
vn -0.4841853 -0.23848873 -0.8418359
vn -0.68830657 -0.2290593 -0.6883066
vn -0.9658319 -0.25910905 -0.0055928365
vn -0.9324423 -0.25502598 0.2559553
vn -0.93081796 -0.2550431 -0.26178414
vn -0.8405371 -0.48357633 -0.24423613
vn -0.86910594 -0.49458468 -0.006391374
vn -0.25687054 -0.25687054 -0.931684
vn -0.4472833 -0.4472833 -0.77451617
vn -0.6410633 -0.4219897 -0.64106363
vn -0 -0.26734507 -0.9636009
vn -1.3520359E-07 0 -1
vn -0.23848872 -0.4841853 -0.8418359
vn -0.7745159 -0.44728327 -0.44728372
vn -0.42198968 -0.64106303 -0.6410638
vn -0.687381 -0.68738085 -0.23455246
vn -0.64106363 -0.64106315 -0.4219898
vn -0.70709014 -0.7070901 -0.006864136
vn -0.57735026 -0.5773499 -0.5773507
vn -0.4472835 -0.7745158 -0.44728374
vn -0.48357642 -0.8405372 -0.24423604
vn -0.22905928 -0.68830657 -0.6883066
vn -0.49458474 -0.86910594 -0.0063914414
vn -0.23848845 -0.84183586 -0.48418558
vn -0.25504306 -0.93081796 -0.26178408
vn -0.6885484 -0.6885481 0.22760154
vn -0.48395213 -0.84217584 0.2377607
vn -0.2591093 -0.9658319 -0.0055929464
vn -0.84217584 -0.48395213 0.23776057
vn -0 -0.7071068 -0.70710677
vn -0 -0.86618316 -0.49972653
vn -0 -0.9625691 -0.27103636
vn -0 -0.9999863 -0.0052515217
vn -0 -0.49972624 -0.86618346
vn 0.23848854 -0.8418359 -0.4841854
vn 0.2290594 -0.6883066 -0.6883064
vn 0.23848872 -0.4841853 -0.8418359
vn 0.25687048 -0.25687078 -0.9316839
vn -1.3520359E-07 0 -1
vn 0.26734546 0 -0.96360075
vn 0.48418534 -0.23848887 -0.84183574
vn 0.49972653 0 -0.8661833
vn 0.44728336 -0.44728336 -0.77451617
vn 0.6883064 -0.22905928 -0.6883066
vn 0.70710677 0 -0.70710677
vn 0.86618346 0 -0.4997263
vn 0.42198968 -0.64106363 -0.64106333
vn 0.64106315 -0.42198983 -0.6410637
vn 0.84183586 -0.23848882 -0.48418528
vn 0.9626723 0.00039562443 -0.27066934
vn 0.57734996 -0.5773504 -0.5773504
vn 0.77451587 -0.44728377 -0.44728333
vn 0.93081796 -0.2550429 -0.2617841
vn 0.99998605 0.0010251739 -0.0051883985
vn 0.6410633 -0.6410636 -0.42198974
vn 0.44728312 -0.7745162 -0.44728333
vn 0.8405371 -0.48357645 -0.2442358
vn 0.9658319 -0.25910917 -0.005593046
vn 0.96428764 0.0006559045 0.2648564
vn 0.68738085 -0.687381 -0.23455264
vn 0.86910594 -0.49458468 -0.0063915
vn 0.25504324 -0.9308179 -0.26178432
vn 0.4835763 -0.8405371 -0.2442362
vn 0.25910923 -0.9658319 -0.005592978
vn 0.7070901 -0.7070901 -0.0068642385
vn 0.84217584 -0.48395216 0.23776072
vn 0.49458468 -0.86910594 -0.006391512
vn 0.25502607 -0.9324423 0.25595513
vn 0.6885483 -0.68854827 0.22760147
vn 0.9324423 -0.25502616 0.25595513
vn 0.8420921 -0.23828845 0.4838384
vn 0.8664489 0 0.49926588
vn 0.70722 0 0.7069936
vn -0 -0.9641191 0.2654704
vn 0.48395213 -0.84217584 0.23776066
vn 0.7747934 -0.4468888 0.44719753
vn 0.68836224 -0.22904564 0.68825537
vn 0.4995637 0 0.86627716
vn 0.6410401 -0.6410401 0.4220608
vn 0.6410205 -0.4217792 0.6412449
vn 0.23828839 -0.8420921 0.48383844
vn 0.48406485 -0.23844576 0.8419174
vn 0.26566103 0 0.9640665
vn 0.44715548 -0.44715548 0.77466375
vn 0.25596946 -0.2559695 0.9321798
vn 1.2023521E-07 0 1
vn -0 -0.26566103 0.9640665
vn 0.57721156 -0.5772117 0.5776275
vn 0.4468888 -0.7747934 0.44719753
vn 0.23844574 -0.48406494 0.8419173
vn 0.4217792 -0.64102054 0.6412448
vn 0.22904564 -0.68836224 0.68825537
vn -0 -0.49956384 0.8662771
vn -0 -0.8664489 0.49926588
vn -0 -0.70722 0.7069936
vn -0.23828845 -0.8420921 0.48383835
vn -0.23844579 -0.48406485 0.8419174
vn -0.2550262 -0.9324423 0.25595513
vn -0.4468888 -0.7747934 0.44719753
vn -0.22904567 -0.68836224 0.68825537
vn -0.6410404 -0.64103985 0.42206076
vn -0.4217792 -0.6410205 0.6412449
vn -0.77479357 -0.44688883 0.44719702
vn -0.44715548 -0.44715548 0.77466375
vn -0.48406506 -0.23844591 0.8419172
vn -0.5772119 -0.5772115 0.57762736
vn -0.64102083 -0.4217792 0.6412446
vn -0.84209216 -0.23828839 0.48383823
vn -0.6883624 -0.22904573 0.6882552
vn -0.86644906 2.41073E-07 0.49926555
vn -0.70722014 1.705927E-07 0.70699346
vn -0.6883625 0.2290459 0.68825513
vn -0.499564 0 0.866277
vn -0.44715548 0.44715548 0.77466375
vn -0.484065 0.23844598 0.8419172
vn -0.26566142 0 0.96406645
vn -0.57721186 0.5772115 0.57762736
vn -0.42177907 0.6410207 0.6412448
vn -0.2384457 0.48406494 0.8419173
vn -0.25596935 0.2559698 0.93217975
vn 1.780846E-07 0.2656611 0.9640665
vn 1.2023521E-07 0 1
vn 0.2559695 0.2559696 0.93217975
vn 1.2023521E-07 0 1
vn 1.2023521E-07 0 1
vn -0.2559694 -0.25596967 0.9321798
g S_wpn_funnel_0006_02_lod0_0
f 3/3/3 2/2/2 1/1/1
f 4/4/4 3/3/3 1/1/1
f 3/3/3 4/4/4 5/5/5
f 6/6/6 3/3/3 5/5/5
f 7/7/7 6/6/6 5/5/5
f 5/5/5 4/4/4 8/8/8
f 9/9/9 7/7/7 5/5/5
f 5/5/5 8/8/8 9/9/9
f 9/9/9 10/10/10 7/7/7
f 10/10/10 11/11/11 7/7/7
f 12/12/12 11/11/11 10/10/10
f 4/4/4 1/1/1 13/13/13
f 4/4/4 13/13/13 8/8/8
f 8/8/8 14/14/14 9/9/9
f 10/10/10 9/9/9 14/14/14
f 8/8/8 13/13/13 15/15/15
f 14/14/14 8/8/8 15/15/15
f 16/16/16 12/12/12 10/10/10
f 16/16/16 17/17/17 12/12/12
f 17/17/17 18/18/18 12/12/12
f 16/16/16 10/10/10 19/19/19
f 17/17/17 16/16/16 19/19/19
f 20/20/20 10/10/10 14/14/14
f 10/10/10 20/20/20 19/19/19
f 18/18/18 17/17/17 21/21/21
f 22/22/22 18/18/18 21/21/21
f 21/21/21 23/23/23 22/22/22
f 23/23/23 24/24/24 22/22/22
f 24/24/24 23/23/23 25/25/25
f 26/26/26 24/24/24 25/25/25
f 25/25/25 27/27/27 26/26/26
f 27/27/27 28/28/28 26/26/26
f 29/29/29 28/28/28 27/27/27
f 30/30/30 23/23/23 21/21/21
f 23/23/23 30/30/30 25/25/25
f 21/21/21 17/17/17 31/31/31
f 31/31/31 30/30/30 21/21/21
f 32/32/32 17/17/17 19/19/19
f 17/17/17 32/32/32 31/31/31
f 27/27/27 25/25/25 33/33/33
f 30/30/30 33/33/33 25/25/25
f 34/34/34 32/32/32 19/19/19
f 31/31/31 32/32/32 35/35/35
f 32/32/32 34/34/34 35/35/35
f 36/36/36 30/30/30 31/31/31
f 35/35/35 36/36/36 31/31/31
f 33/33/33 30/30/30 37/37/37
f 30/30/30 36/36/36 37/37/37
f 37/37/37 38/38/38 33/33/33
f 37/37/37 36/36/36 38/38/38
f 39/39/39 36/36/36 35/35/35
f 36/36/36 39/39/39 38/38/38
f 40/40/40 27/27/27 33/33/33
f 38/38/38 40/40/40 33/33/33
f 41/41/41 34/34/34 19/19/19
f 19/19/19 20/20/20 41/41/41
f 35/35/35 34/34/34 42/42/42
f 42/42/42 39/39/39 35/35/35
f 43/43/43 34/34/34 41/41/41
f 34/34/34 43/43/43 42/42/42
f 20/20/20 44/44/44 41/41/41
f 44/44/44 20/20/20 14/14/14
f 45/45/45 43/43/43 41/41/41
f 41/41/41 44/44/44 45/45/45
f 43/43/43 46/46/46 42/42/42
f 46/46/46 43/43/43 45/45/45
f 42/42/42 47/47/47 39/39/39
f 46/46/46 47/47/47 42/42/42
f 39/39/39 48/48/48 38/38/38
f 47/47/47 48/48/48 39/39/39
f 40/40/40 38/38/38 49/49/49
f 48/48/48 49/49/49 38/38/38
f 50/50/50 44/44/44 14/14/14
f 50/50/50 14/14/14 15/15/15
f 51/51/51 44/44/44 50/50/50
f 15/15/15 51/51/51 50/50/50
f 44/44/44 51/51/51 45/45/45
f 52/52/52 40/40/40 49/49/49
f 27/27/27 40/40/40 52/52/52
f 51/51/51 15/15/15 53/53/53
f 13/13/13 53/53/53 15/15/15
f 45/45/45 51/51/51 54/54/54
f 54/54/54 51/51/51 53/53/53
f 47/47/47 55/55/55 48/48/48
f 47/47/47 46/46/46 55/55/55
f 49/49/49 48/48/48 56/56/56
f 49/49/49 56/56/56 52/52/52
f 57/57/57 46/46/46 45/45/45
f 57/57/57 45/45/45 54/54/54
f 58/58/58 46/46/46 57/57/57
f 46/46/46 58/58/58 55/55/55
f 57/57/57 54/54/54 59/59/59
f 59/59/59 58/58/58 57/57/57
f 60/60/60 54/54/54 53/53/53
f 54/54/54 60/60/60 59/59/59
f 53/53/53 13/13/13 61/61/61
f 61/61/61 60/60/60 53/53/53
f 48/48/48 62/62/62 56/56/56
f 55/55/55 62/62/62 48/48/48
f 59/59/59 60/60/60 63/63/63
f 63/63/63 60/60/60 61/61/61
f 13/13/13 64/64/64 61/61/61
f 1/1/1 64/64/64 13/13/13
f 61/61/61 64/64/64 65/65/65
f 65/65/65 63/63/63 61/61/61
f 66/66/66 64/64/64 1/1/1
f 64/64/64 66/66/66 65/65/65
f 67/67/67 66/66/66 1/1/1
f 1/1/1 68/68/68 67/67/67
f 68/68/68 69/69/69 67/67/67
f 67/67/67 70/70/70 66/66/66
f 67/67/67 69/69/69 70/70/70
f 66/66/66 71/71/71 65/65/65
f 70/70/70 71/71/71 66/66/66
f 63/63/63 65/65/65 72/72/72
f 71/71/71 72/72/72 65/65/65
f 73/73/73 59/59/59 63/63/63
f 74/74/74 63/63/63 72/72/72
f 73/73/73 63/63/63 74/74/74
f 73/73/73 75/75/75 59/59/59
f 75/75/75 58/58/58 59/59/59
f 76/76/76 73/73/73 74/74/74
f 75/75/75 73/73/73 76/76/76
f 58/58/58 75/75/75 77/77/77
f 55/55/55 58/58/58 77/77/77
f 77/77/77 78/78/78 55/55/55
f 78/78/78 62/62/62 55/55/55
f 77/77/77 75/75/75 79/79/79
f 77/77/77 79/79/79 78/78/78
f 62/62/62 78/78/78 80/80/80
f 56/56/56 62/62/62 80/80/80
f 81/81/81 75/75/75 76/76/76
f 75/75/75 81/81/81 79/79/79
f 78/78/78 82/82/82 80/80/80
f 79/79/79 82/82/82 78/78/78
f 83/83/83 56/56/56 80/80/80
f 56/56/56 83/83/83 52/52/52
f 76/76/76 74/74/74 84/84/84
f 85/85/85 81/81/81 76/76/76
f 84/84/84 85/85/85 76/76/76
f 79/79/79 81/81/81 86/86/86
f 81/81/81 85/85/85 86/86/86
f 87/87/87 82/82/82 79/79/79
f 86/86/86 87/87/87 79/79/79
f 74/74/74 88/88/88 84/84/84
f 88/88/88 74/74/74 72/72/72
f 89/89/89 88/88/88 72/72/72
f 72/72/72 71/71/71 89/89/89
f 71/71/71 90/90/90 89/89/89
f 90/90/90 71/71/71 70/70/70
f 91/91/91 88/88/88 89/89/89
f 90/90/90 91/91/91 89/89/89
f 84/84/84 88/88/88 92/92/92
f 88/88/88 91/91/91 92/92/92
f 93/93/93 85/85/85 84/84/84
f 92/92/92 93/93/93 84/84/84
f 86/86/86 85/85/85 94/94/94
f 85/85/85 93/93/93 94/94/94
f 95/95/95 90/90/90 70/70/70
f 91/91/91 90/90/90 95/95/95
f 96/96/96 93/93/93 92/92/92
f 93/93/93 96/96/96 94/94/94
f 92/92/92 91/91/91 97/97/97
f 97/97/97 96/96/96 92/92/92
f 94/94/94 98/98/98 86/86/86
f 99/99/99 98/98/98 94/94/94
f 98/98/98 87/87/87 86/86/86
f 87/87/87 98/98/98 100/100/100
f 98/98/98 99/99/99 100/100/100
f 70/70/70 101/101/101 95/95/95
f 69/69/69 101/101/101 70/70/70
f 91/91/91 102/102/102 97/97/97
f 102/102/102 91/91/91 95/95/95
f 96/96/96 103/103/103 94/94/94
f 103/103/103 99/99/99 94/94/94
f 103/103/103 96/96/96 104/104/104
f 103/103/103 104/104/104 99/99/99
f 105/105/105 96/96/96 97/97/97
f 96/96/96 105/105/105 104/104/104
f 97/97/97 102/102/102 106/106/106
f 106/106/106 105/105/105 97/97/97
f 107/107/107 102/102/102 95/95/95
f 102/102/102 107/107/107 106/106/106
f 106/106/106 107/107/107 108/108/108
f 109/109/109 107/107/107 95/95/95
f 101/101/101 109/109/109 95/95/95
f 108/108/108 107/107/107 109/109/109
f 109/109/109 101/101/101 110/110/110
f 101/101/101 69/69/69 110/110/110
f 111/111/111 108/108/108 109/109/109
f 111/111/111 109/109/109 110/110/110
f 112/112/112 105/105/105 106/106/106
f 104/104/104 105/105/105 113/113/113
f 105/105/105 112/112/112 113/113/113
f 114/114/114 106/106/106 108/108/108
f 114/114/114 112/112/112 106/106/106
f 112/112/112 114/114/114 115/115/115
f 114/114/114 108/108/108 115/115/115
f 112/112/112 116/116/116 113/113/113
f 116/116/116 112/112/112 115/115/115
f 69/69/69 117/117/117 110/110/110
f 110/110/110 118/118/118 111/111/111
f 110/110/110 117/117/117 118/118/118
f 108/108/108 111/111/111 119/119/119
f 118/118/118 119/119/119 111/111/111
f 117/117/117 69/69/69 120/120/120
f 69/69/69 121/121/121 120/120/120
f 117/117/117 122/122/122 118/118/118
f 117/117/117 120/120/120 122/122/122
f 108/108/108 123/123/123 115/115/115
f 123/123/123 108/108/108 119/119/119
f 119/119/119 118/118/118 124/124/124
f 118/118/118 122/122/122 124/124/124
f 115/115/115 123/123/123 125/125/125
f 126/126/126 123/123/123 119/119/119
f 123/123/123 126/126/126 125/125/125
f 127/127/127 116/116/116 115/115/115
f 125/125/125 127/127/127 115/115/115
f 128/128/128 119/119/119 124/124/124
f 128/128/128 126/126/126 119/119/119
f 124/124/124 129/129/129 128/128/128
f 129/129/129 126/126/126 128/128/128
f 125/125/125 126/126/126 130/130/130
f 126/126/126 129/129/129 130/130/130
f 129/129/129 124/124/124 131/131/131
f 122/122/122 131/131/131 124/124/124
f 132/132/132 127/127/127 125/125/125
f 130/130/130 132/132/132 125/125/125
f 130/130/130 129/129/129 133/133/133
f 133/133/133 129/129/129 131/131/131
f 132/132/132 130/130/130 134/134/134
f 134/134/134 130/130/130 133/133/133
f 116/116/116 127/127/127 135/135/135
f 127/127/127 132/132/132 136/136/136
f 135/135/135 127/127/127 136/136/136
f 137/137/137 132/132/132 134/134/134
f 132/132/132 137/137/137 136/136/136
f 138/138/138 116/116/116 135/135/135
f 116/116/116 138/138/138 113/113/113
f 131/131/131 122/122/122 139/139/139
f 140/140/140 133/133/133 131/131/131
f 139/139/139 140/140/140 131/131/131
f 134/134/134 133/133/133 141/141/141
f 133/133/133 140/140/140 141/141/141
f 142/142/142 137/137/137 134/134/134
f 141/141/141 142/142/142 134/134/134
f 122/122/122 143/143/143 139/139/139
f 120/120/120 143/143/143 122/122/122
f 144/144/144 140/140/140 139/139/139
f 141/141/141 140/140/140 144/144/144
f 139/139/139 143/143/143 145/145/145
f 145/145/145 144/144/144 139/139/139
f 146/146/146 143/143/143 120/120/120
f 143/143/143 146/146/146 145/145/145
f 147/147/147 146/146/146 120/120/120
f 120/120/120 148/148/148 147/147/147
f 148/148/148 149/149/149 147/147/147
f 147/147/147 149/149/149 150/150/150
f 147/147/147 150/150/150 146/146/146
f 149/149/149 151/151/151 150/150/150
f 146/146/146 152/152/152 145/145/145
f 150/150/150 152/152/152 146/146/146
f 150/150/150 151/151/151 153/153/153
f 151/151/151 154/154/154 153/153/153
f 154/154/154 155/155/155 153/153/153
f 144/144/144 145/145/145 156/156/156
f 152/152/152 156/156/156 145/145/145
f 157/157/157 152/152/152 150/150/150
f 153/153/153 157/157/157 150/150/150
f 155/155/155 158/158/158 153/153/153
f 158/158/158 155/155/155 159/159/159
f 152/152/152 157/157/157 160/160/160
f 156/156/156 152/152/152 160/160/160
f 161/161/161 157/157/157 153/153/153
f 158/158/158 161/161/161 153/153/153
f 157/157/157 161/161/161 160/160/160
f 162/162/162 158/158/158 159/159/159
f 161/161/161 158/158/158 162/162/162
f 159/159/159 163/163/163 162/162/162
f 160/160/160 164/164/164 156/156/156
f 161/161/161 164/164/164 160/160/160
f 165/165/165 144/144/144 156/156/156
f 164/164/164 165/165/165 156/156/156
f 164/164/164 161/161/161 166/166/166
f 166/166/166 161/161/161 162/162/162
f 163/163/163 167/167/167 162/162/162
f 167/167/167 163/163/163 168/168/168
f 169/169/169 164/164/164 166/166/166
f 165/165/165 164/164/164 169/169/169
f 170/170/170 166/166/166 162/162/162
f 167/167/167 170/170/170 162/162/162
f 166/166/166 170/170/170 169/169/169
f 171/171/171 144/144/144 165/165/165
f 171/171/171 141/141/141 144/144/144
f 172/172/172 165/165/165 169/169/169
f 172/172/172 171/171/171 165/165/165
f 171/171/171 173/173/173 141/141/141
f 173/173/173 171/171/171 172/172/172
f 173/173/173 142/142/142 141/141/141
f 170/170/170 174/174/174 169/169/169
f 169/169/169 174/174/174 172/172/172
f 170/170/170 167/167/167 175/175/175
f 174/174/174 170/170/170 175/175/175
f 176/176/176 173/173/173 172/172/172
f 174/174/174 176/176/176 172/172/172
f 142/142/142 173/173/173 177/177/177
f 173/173/173 176/176/176 177/177/177
f 176/176/176 174/174/174 178/178/178
f 178/178/178 174/174/174 175/175/175
f 167/167/167 179/179/179 175/175/175
f 179/179/179 180/180/180 175/175/175
f 179/179/179 167/167/167 168/168/168
f 179/179/179 168/168/168 180/180/180
f 168/168/168 181/181/181 180/180/180
f 180/180/180 181/181/181 182/182/182
f 183/183/183 142/142/142 177/177/177
f 137/137/137 142/142/142 183/183/183
f 176/176/176 184/184/184 177/177/177
f 184/184/184 176/176/176 178/178/178
f 175/175/175 185/185/185 178/178/178
f 180/180/180 185/185/185 175/175/175
f 186/186/186 180/180/180 182/182/182
f 182/182/182 187/187/187 186/186/186
f 185/185/185 188/188/188 178/178/178
f 178/178/178 188/188/188 184/184/184
f 185/185/185 180/180/180 189/189/189
f 180/180/180 186/186/186 189/189/189
f 188/188/188 185/185/185 189/189/189
f 177/177/177 184/184/184 190/190/190
f 177/177/177 190/190/190 183/183/183
f 187/187/187 191/191/191 186/186/186
f 191/191/191 187/187/187 192/192/192
f 193/193/193 189/189/189 186/186/186
f 191/191/191 193/193/193 186/186/186
f 194/194/194 191/191/191 192/192/192
f 193/193/193 191/191/191 194/194/194
f 192/192/192 195/195/195 194/194/194
f 195/195/195 196/196/196 194/194/194
f 197/197/197 188/188/188 189/189/189
f 189/189/189 193/193/193 197/197/197
f 188/188/188 198/198/198 184/184/184
f 198/198/198 188/188/188 197/197/197
f 184/184/184 198/198/198 190/190/190
f 199/199/199 193/193/193 194/194/194
f 194/194/194 196/196/196 199/199/199
f 193/193/193 200/200/200 197/197/197
f 200/200/200 198/198/198 197/197/197
f 200/200/200 193/193/193 199/199/199
f 198/198/198 200/200/200 201/201/201
f 190/190/190 198/198/198 201/201/201
f 201/201/201 200/200/200 199/199/199
f 196/196/196 202/202/202 199/199/199
f 199/199/199 202/202/202 201/201/201
f 203/203/203 190/190/190 201/201/201
f 190/190/190 203/203/203 183/183/183
f 202/202/202 204/204/204 201/201/201
f 204/204/204 203/203/203 201/201/201
f 183/183/183 203/203/203 205/205/205
f 205/205/205 203/203/203 204/204/204
f 204/204/204 202/202/202 206/206/206
f 202/202/202 196/196/196 206/206/206
f 207/207/207 183/183/183 205/205/205
f 207/207/207 137/137/137 183/183/183
f 137/137/137 207/207/207 136/136/136
f 136/136/136 207/207/207 208/208/208
f 207/207/207 205/205/205 208/208/208
f 136/136/136 208/208/208 135/135/135
f 209/209/209 205/205/205 204/204/204
f 209/209/209 204/204/204 206/206/206
f 208/208/208 210/210/210 135/135/135
f 135/135/135 210/210/210 138/138/138
f 208/208/208 205/205/205 211/211/211
f 205/205/205 209/209/209 211/211/211
f 210/210/210 208/208/208 211/211/211
f 210/210/210 212/212/212 138/138/138
f 138/138/138 212/212/212 113/113/113
f 206/206/206 213/213/213 209/209/209
f 213/213/213 211/211/211 209/209/209
f 214/214/214 213/213/213 206/206/206
f 215/215/215 210/210/210 211/211/211
f 212/212/212 210/210/210 215/215/215
f 211/211/211 213/213/213 216/216/216
f 215/215/215 211/211/211 216/216/216
f 213/213/213 214/214/214 216/216/216
f 216/216/216 212/212/212 215/215/215
f 212/212/212 217/217/217 113/113/113
f 113/113/113 217/217/217 104/104/104
f 212/212/212 216/216/216 218/218/218
f 217/217/217 212/212/212 218/218/218
f 214/214/214 218/218/218 216/216/216
f 217/217/217 219/219/219 104/104/104
f 219/219/219 217/217/217 218/218/218
f 104/104/104 219/219/219 99/99/99
f 220/220/220 219/219/219 218/218/218
f 99/99/99 219/219/219 220/220/220
f 218/218/218 214/214/214 220/220/220
f 221/221/221 99/99/99 220/220/220
f 99/99/99 221/221/221 100/100/100
f 214/214/214 222/222/222 220/220/220
f 220/220/220 222/222/222 221/221/221
f 223/223/223 100/100/100 221/221/221
f 222/222/222 224/224/224 221/221/221
f 224/224/224 223/223/223 221/221/221
f 225/225/225 222/222/222 214/214/214
f 224/224/224 222/222/222 225/225/225
f 100/100/100 223/223/223 226/226/226
f 226/226/226 87/87/87 100/100/100
f 82/82/82 87/87/87 226/226/226
f 227/227/227 82/82/82 226/226/226
f 223/223/223 227/227/227 226/226/226
f 82/82/82 227/227/227 80/80/80
f 80/80/80 227/227/227 228/228/228
f 227/227/227 223/223/223 228/228/228
f 228/228/228 83/83/83 80/80/80
f 223/223/223 224/224/224 229/229/229
f 228/228/228 223/223/223 229/229/229
f 229/229/229 224/224/224 225/225/225
f 230/230/230 83/83/83 228/228/228
f 229/229/229 230/230/230 228/228/228
f 83/83/83 230/230/230 52/52/52
f 225/225/225 231/231/231 229/229/229
f 231/231/231 230/230/230 229/229/229
f 230/230/230 232/232/232 52/52/52
f 232/232/232 27/27/27 52/52/52
f 232/232/232 29/29/29 27/27/27
f 232/232/232 230/230/230 29/29/29
f 230/230/230 233/233/233 29/29/29
f 196/196/196 234/234/234 225/225/225
f 235/235/235 196/196/196 225/225/225
f 235/235/235 225/225/225 214/214/214
f 196/196/196 235/235/235 206/206/206
f 235/235/235 214/214/214 206/206/206
