g S_wpn_funnel_0008_03_lod0
v 0.032311182 -0.010498669 1.7104502E-09
v 0.029234752 -0.014981063 -0.008667767
v 0.027486239 -0.01996969 3.253476E-09
v 0.032589775 -0.0054569235 -0.007897035
v 0.03397406 0 0
v 0.023282435 -0.023175122 -0.008667766
v 0.01996969 -0.027486239 4.4780766E-09
v 0.032589775 0.005456921 -0.007897036
v 0.032311182 0.010498669 -1.7104502E-09
v 0.015260737 -0.029308468 -0.0078970315
v 0.010498669 -0.032311182 5.2641598E-09
v 0.029234752 0.014981061 -0.008667772
v 0.027486239 0.01996969 -3.253476E-09
v 0.0048813117 -0.032681916 -0.007897031
v -0 -0.03397406 5.535077E-09
v 0.023282435 0.02317403 -0.008667773
v 0.01996969 0.027486239 -4.4780766E-09
v -0.0052141035 -0.032433677 -0.008667764
v -0.010498669 -0.032311182 5.2641598E-09
v 0.015260737 0.029308464 -0.007897041
v 0.010498669 0.032311182 -5.2641598E-09
v -0.01484556 -0.02930413 -0.008667764
v -0.01996969 -0.027486239 4.4780766E-09
v 0.0048813117 0.032680828 -0.007897041
v -0 0.03397406 -5.535077E-09
v -0.023158858 -0.023570785 -0.007897032
v -0.027486239 -0.01996969 3.253476E-09
v -0.0052141035 0.032433674 -0.0086677745
v -0.010498669 0.032311182 -5.2641598E-09
v -0.029572966 -0.014741495 -0.007897033
v -0.032311182 -0.010498669 1.7104502E-09
v -0.01484556 0.029304124 -0.008667774
v -0.01996969 0.027486239 -4.4780766E-09
v -0.032457523 -0.005063427 -0.008667769
v -0.03397406 0 0
v -0.023158858 0.02357078 -0.00789704
v -0.027486239 0.01996969 -3.253476E-09
v -0.032457523 0.005063425 -0.00866777
v -0.032311182 0.010498669 -1.7104502E-09
v -0.029572966 0.014741493 -0.007897038
v -0.024584336 -0.017861288 -0.015193527
v -0.027800603 -0.009284576 -0.017181607
v -0.028900875 -2.909973E-09 -0.017861284
v -0.027800603 0.009283486 -0.017181609
v -0.024584336 0.017861282 -0.015193531
v -0.01742009 0.02357078 -0.017181613
v -0.01742009 -0.023570785 -0.017181605
v -0.020289475 -0.014741498 -0.022919288
v -0.022267796 -0.00506343 -0.025154525
v -0.020289475 0.014741491 -0.022919292
v -0.022267796 0.0050634216 -0.025154525
v -0.008931184 0.027486235 -0.01786129
v -0.008931184 -0.02748624 -0.01786128
v -0.011697587 -0.019613054 -0.025154524
v -0.014449895 -0.010498674 -0.028900873
v -0.011697587 0.019613046 -0.025154527
v -0.014449895 0.010498664 -0.028900879
v -0.0151935285 -4.950857E-09 -0.03038814
v 0.00023848288 0.029308464 -0.017181613
v -0.0020650453 0.022742594 -0.025154531
v -0.004694861 0.014449891 -0.030388143
v -0.0075111273 0.005456917 -0.03268083
v -0.0075111273 -0.0054569277 -0.03268083
v 0.009390806 0.028899789 -0.015193533
v 0.0077496106 0.023851538 -0.022919293
v 0.017034184 0.02385154 -0.017181613
v 0.0055197948 0.016987566 -0.028900879
v 0.0028693827 0.008829282 -0.03268083
v 0.015038515 0.017184857 -0.025154527
v 0.02338108 0.01698757 -0.017861288
v 0.012291625 0.0089300955 -0.030388143
v -0 -5.535077E-09 -0.03397406
v 0.020991916 0.008991885 -0.025154527
v 0.027948031 0.008829284 -0.017181609
v 0.009284573 -5.324383E-09 -0.03268083
v 0.0028693827 -0.008829293 -0.032680828
v 0.017861284 -4.7085504E-09 -0.028900875
v 0.025078645 -3.7340264E-09 -0.02291929
v 0.03038814 -2.4753402E-09 -0.0151935285
v 0.027948031 -0.00882929 -0.017181607
v 0.012291625 -0.008931189 -0.030388137
v 0.020991916 -0.008991893 -0.025154524
v 0.02338108 -0.016987573 -0.017861282
v 0.015038515 -0.017185949 -0.025154524
v 0.017034184 -0.023851544 -0.017181605
v 0.0055197948 -0.016987575 -0.028900873
v 0.0077496106 -0.023851547 -0.022919284
v 0.009390806 -0.028900879 -0.015193524
v 0.00023848288 -0.029308468 -0.017181603
v -0.0020650453 -0.022742603 -0.025154522
v -0.004694861 -0.0144499 -0.030388137
v 0.032311182 -0.010498669 1.7104502E-09
v 0.027486239 -0.01996969 3.253476E-09
v 0.029234752 -0.014981061 0.008667772
v 0.032589775 -0.005456921 0.007897036
v 0.03397406 0 0
v 0.023282435 -0.023175117 0.008667773
v 0.01996969 -0.027486239 4.4780766E-09
v 0.032589775 0.0054569235 0.007897035
v 0.032311182 0.010498669 -1.7104502E-09
v 0.015260737 -0.029308464 0.007897041
v 0.010498669 -0.032311182 5.2641598E-09
v 0.029234752 0.014981063 0.008667767
v 0.027486239 0.01996969 -3.253476E-09
v 0.0048813117 -0.03268191 0.007897041
v -0 -0.03397406 5.535077E-09
v 0.023282435 0.023174034 0.008667766
v 0.01996969 0.027486239 -4.4780766E-09
v -0.0052141035 -0.032433674 0.0086677745
v -0.010498669 -0.032311182 5.2641598E-09
v 0.015260737 0.029308468 0.0078970315
v 0.010498669 0.032311182 -5.2641598E-09
v -0.01484556 -0.029304124 0.008667774
v -0.01996969 -0.027486239 4.4780766E-09
v 0.0048813117 0.03268083 0.007897031
v -0 0.03397406 -5.535077E-09
v -0.023158858 -0.02357078 0.00789704
v -0.027486239 -0.01996969 3.253476E-09
v -0.0052141035 0.032433677 0.008667764
v -0.010498669 0.032311182 -5.2641598E-09
v -0.029572966 -0.014741493 0.007897038
v -0.032311182 -0.010498669 1.7104502E-09
v -0.01484556 0.02930413 0.008667764
v -0.01996969 0.027486239 -4.4780766E-09
v -0.032457523 -0.005063425 0.00866777
v -0.03397406 0 0
v -0.023158858 0.023570785 0.007897032
v -0.027486239 0.01996969 -3.253476E-09
v -0.032457523 0.005063427 0.008667769
v -0.032311182 0.010498669 -1.7104502E-09
v -0.029572966 0.014741495 0.007897033
v -0.024584336 -0.017861282 0.015193531
v -0.027800603 -0.00928457 0.017181609
v -0.028900875 2.909973E-09 0.017861284
v -0.027800603 0.009283491 0.017181607
v -0.024584336 0.017861288 0.015193527
v -0.01742009 0.023570785 0.017181605
v -0.01742009 -0.02357078 0.017181613
v -0.020289475 -0.014741491 0.022919292
v -0.022267796 -0.0050634216 0.025154525
v -0.020289475 0.014741498 0.022919288
v -0.022267796 0.00506343 0.025154525
v -0.008931184 0.02748624 0.01786128
v -0.008931184 -0.027486235 0.01786129
v -0.011697587 -0.019613046 0.025154527
v -0.014449895 -0.010498664 0.028900879
v -0.011697587 0.019613054 0.025154524
v -0.014449895 0.010498674 0.028900873
v -0.0151935285 4.950857E-09 0.03038814
v 0.00023848288 0.029308468 0.017181603
v -0.0020650453 0.022742603 0.025154522
v -0.004694861 0.0144499 0.030388137
v -0.0075111273 0.0054569277 0.03268083
v -0.0075111273 -0.005456917 0.03268083
v 0.009390806 0.028899793 0.015193524
v 0.0077496106 0.023851547 0.022919284
v 0.017034184 0.023851544 0.017181605
v 0.0055197948 0.016987575 0.028900873
v 0.0028693827 0.008829293 0.032680828
v 0.02338108 0.016987573 0.017861282
v 0.015038515 0.017184865 0.025154524
v 0.027948031 0.00882929 0.017181607
v 0.012291625 0.008930106 0.030388137
v 0.020991916 0.008991893 0.025154524
v -0 5.535077E-09 0.03397406
v 0.03038814 2.4753402E-09 0.0151935285
v 0.009284573 5.324383E-09 0.03268083
v 0.017861284 4.7085504E-09 0.028900875
v 0.025078645 3.7340264E-09 0.02291929
v 0.027948031 -0.008829284 0.017181609
v 0.0028693827 -0.008829282 0.03268083
v 0.012291625 -0.0089311795 0.030388143
v 0.020991916 -0.008991885 0.025154527
v 0.02338108 -0.01698757 0.017861288
v -0.004694861 -0.014449891 0.030388143
v 0.0055197948 -0.016987566 0.028900879
v 0.015038515 -0.017185941 0.025154527
v 0.017034184 -0.02385154 0.017181613
v -0.0020650453 -0.022742594 0.025154531
v 0.0077496106 -0.023851538 0.022919293
v 0.009390806 -0.028900873 0.015193533
v 0.00023848288 -0.029308464 0.017181613
vt 0.02 0.6917194
vt 0.0734 0.6569194
vt 0.0372 0.6059194
vt 0.0663 0.7281194
vt 0.0302 0.7786194
vt 0.0984 0.5897194
vt 0.0801 0.5296194
vt 0.0867 0.8013194
vt 0.0667 0.85811937
vt 0.1397 0.53121936
vt 0.1444 0.4703194
vt 0.1296 0.8586194
vt 0.126 0.9225194
vt 0.203 0.4892194
vt 0.224 0.43381938
vt 0.1857 0.9032194
vt 0.2023 0.9653194
vt 0.2729 0.4739194
vt 0.3109 0.4236194
vt 0.2513 0.9319194
vt 0.2881 0.9825194
vt 0.3445 0.47691938
vt 0.3967 0.44081938
vt 0.3272 0.9351194
vt 0.3751 0.9724194
vt 0.4129 0.49811938
vt 0.473 0.48371938
vt 0.395 0.9120194
vt 0.4546 0.9358194
vt 0.4724 0.5453194
vt 0.5323 0.5480194
vt 0.4547 0.8724194
vt 0.5189 0.8765194
vt 0.5086 0.6071194
vt 0.5688 0.62751937
vt 0.5023 0.8189194
vt 0.5618 0.8002194
vt 0.5278 0.6761194
vt 0.5789 0.71441936
vt 0.5288 0.7477194
vt 0.418 0.5528194
vt 0.4483 0.6019194
vt 0.4689 0.6554194
vt 0.4789 0.7118194
vt 0.4784 0.7695194
vt 0.441 0.8135194
vt 0.3632 0.5345194
vt 0.3875 0.5913194
vt 0.4102 0.6428194
vt 0.4324 0.7523194
vt 0.4252 0.6965194
vt 0.3965 0.8496194
vt 0.3065 0.5266194
vt 0.3321 0.5809194
vt 0.3583 0.6281194
vt 0.3904 0.7899194
vt 0.3883 0.7359194
vt 0.3752 0.6815194
vt 0.346 0.8765194
vt 0.3439 0.8207194
vt 0.3428 0.7686194
vt 0.3443 0.7196194
vt 0.3291 0.6648194
vt 0.291 0.8939194
vt 0.293 0.84481937
vt 0.2376 0.8719194
vt 0.295 0.7979194
vt 0.297 0.7510194
vt 0.2443 0.8165194
vt 0.1895 0.8408194
vt 0.2499 0.7646194
vt 0.2991 0.7027194
vt 0.2007 0.7818194
vt 0.1483 0.8011194
vt 0.2525 0.7157194
vt 0.2723 0.6624194
vt 0.2073 0.7283194
vt 0.162 0.7409194
vt 0.1147 0.7541194
vt 0.1191 0.6965194
vt 0.225 0.6751194
vt 0.174 0.6858194
vt 0.1339 0.6412194
vt 0.1934 0.63361937
vt 0.1589 0.5897194
vt 0.2464 0.6233194
vt 0.2204 0.5842194
vt 0.1933 0.5433194
vt 0.2494 0.5297194
vt 0.2765 0.5785194
vt 0.3024 0.6237194
vt 0.4273961 0.28509647
vt 0.44456646 0.19929056
vt 0.480684 0.25017807
vt 0.47370863 0.32148048
vt 0.4375261 0.37199298
vt 0.50566083 0.18306947
vt 0.48734012 0.12297579
vt 0.49413395 0.39467347
vt 0.47415355 0.45148036
vt 0.5469406 0.124555215
vt 0.5517196 0.06365356
vt 0.5369537 0.4519587
vt 0.5334757 0.5157598
vt 0.61022615 0.08253336
vt 0.6312069 0.027026113
vt 0.593069 0.4964393
vt 0.60979056 0.5586335
vt 0.6801208 0.06710923
vt 0.7181035 0.016896108
vt 0.65867895 0.5251166
vt 0.69559646 0.5758039
vt 0.7517219 0.07018451
vt 0.8039095 0.034066483
vt 0.7346801 0.5283904
vt 0.78249294 0.5655739
vt 0.8201292 0.09136088
vt 0.88022417 0.07684013
vt 0.8023721 0.505267
vt 0.8619803 0.5290464
vt 0.8796455 0.13854034
vt 0.9395464 0.14121965
vt 0.86205846 0.46564645
vt 0.9262598 0.46972427
vt 0.91586685 0.20032783
vt 0.9760739 0.22070704
vt 0.90964 0.41213
vt 0.9691335 0.39340946
vt 0.9350907 0.2693212
vt 0.98630387 0.3076035
vt 0.9361154 0.34092084
vt 0.82524806 0.14605911
vt 0.8555651 0.19514865
vt 0.8761835 0.24854155
vt 0.886203 0.30493808
vt 0.8857229 0.36263824
vt 0.84833807 0.40665114
vt 0.7705418 0.127678
vt 0.79476136 0.18446964
vt 0.8174792 0.23606181
vt 0.839717 0.34555414
vt 0.83249766 0.2896566
vt 0.80395055 0.4427665
vt 0.71383905 0.11979759
vt 0.73935777 0.17408878
vt 0.7655741 0.22127974
vt 0.7977299 0.38306862
vt 0.7956113 0.32916936
vt 0.7824925 0.27467388
vt 0.75335985 0.46978396
vt 0.75134057 0.41388464
vt 0.7501226 0.36178505
vt 0.75170565 0.3127845
vt 0.7363868 0.2580898
vt 0.69836587 0.48710296
vt 0.70044893 0.43810225
vt 0.6449583 0.4652214
vt 0.7024327 0.39110154
vt 0.7043165 0.34420088
vt 0.5968476 0.434138
vt 0.6517391 0.40971905
vt 0.5556338 0.39435223
vt 0.6573212 0.3579171
vt 0.60802716 0.3751341
vt 0.70639986 0.29600015
vt 0.52211756 0.34736377
vt 0.6598043 0.30891624
vt 0.61460865 0.32153186
vt 0.569413 0.33414745
vt 0.5264977 0.28986225
vt 0.67968595 0.25570938
vt 0.63229036 0.26842576
vt 0.58129406 0.27914336
vt 0.5411786 0.23445721
vt 0.7096726 0.21699902
vt 0.65367246 0.21661836
vt 0.600676 0.22693665
vt 0.5661608 0.18294857
vt 0.68375695 0.17170797
vt 0.6276589 0.17742734
vt 0.6005448 0.1365367
vt 0.6566401 0.12291734
vn 0.9496592 -0.31328458 0
vn 0.8588116 -0.4416996 -0.25950754
vn 0.8090024 -0.5878054 0
vn 0.9584094 -0.16150224 -0.23530485
vn 1 0 0
vn 0.6854894 -0.68027395 -0.25948334
vn 0.5913908 -0.8063851 1.3137745E-07
vn 0.9584094 0.16150224 -0.23530485
vn 0.9496592 0.31328458 0
vn 0.44970533 -0.8616248 -0.23530366
vn 0.3089621 -0.95107436 1.5495033E-07
vn 0.8588116 0.4416996 -0.25950754
vn 0.8090024 0.5878054 0
vn 0.14259788 -0.9614032 -0.23530816
vn -0.0044999523 -0.99998987 1.6291982E-07
vn 0.6854894 0.68027395 -0.25948334
vn 0.5913908 0.8063851 -1.3137745E-07
vn -0.15470336 -0.9532734 -0.2594932
vn -0.3089621 -0.95107436 1.5495033E-07
vn 0.44970533 0.8616248 -0.23530366
vn 0.3089621 0.95107436 -1.5495033E-07
vn -0.4350953 -0.8621812 -0.25949124
vn -0.58414805 -0.81164706 1.3223281E-07
vn 0.14259788 0.9614032 -0.23530816
vn -0.0044999523 0.99998987 -1.6291982E-07
vn -0.68047607 -0.6939669 -0.23529151
vn -0.8090024 -0.5878054 0
vn -0.15470336 0.9532734 -0.2594932
vn -0.3089621 0.95107436 -1.5495033E-07
vn -0.87027943 -0.4327182 -0.2353054
vn -0.95244545 -0.3047091 0
vn -0.4350953 0.8621812 -0.25949124
vn -0.58414805 0.81164706 -1.3223281E-07
vn -0.9544241 -0.14739995 -0.2595149
vn -1 0 0
vn -0.68047607 0.6939669 -0.23529151
vn -0.8090024 0.5878054 0
vn -0.9544241 0.14739995 -0.2595149
vn -0.95244545 0.3047091 0
vn -0.87027943 0.4327182 -0.2353054
vn -0.72361296 -0.52571243 -0.44722545
vn -0.81869996 -0.27149853 -0.505983
vn -0.85067236 0 -0.5256963
vn -0.81869996 0.27149853 -0.505983
vn -0.72361296 0.52571243 -0.44722545
vn -0.51121444 0.6947024 -0.5060122
vn -0.51121444 -0.6947024 -0.5060122
vn -0.59821457 -0.43463093 -0.67322755
vn -0.65894645 -0.14740013 -0.737606
vn -0.59821457 0.43463093 -0.67322755
vn -0.65894645 0.14740013 -0.737606
vn -0.2629058 0.8090208 -0.5257052
vn -0.2629058 -0.8090208 -0.5257052
vn -0.3438198 -0.5811314 -0.73761386
vn -0.42478403 -0.30856612 -0.8510848
vn -0.3438198 0.5811314 -0.73761386
vn -0.42478403 0.30856612 -0.8510848
vn -0.4496919 -1.455184E-07 -0.8931837
vn 0.005300163 0.8625085 -0.50601494
vn -0.06340294 0.6722354 -0.73761755
vn -0.13899863 0.4276932 -0.893173
vn -0.2195 0.15949425 -0.96248704
vn -0.2195 -0.15949425 -0.96248704
vn 0.27638978 0.8506635 -0.4471917
vn 0.22851124 0.7032159 -0.67325336
vn 0.5027078 0.7008958 -0.5059941
vn 0.16220666 0.49929285 -0.8511143
vn 0.08380321 0.25800237 -0.96250284
vn 0.44641 0.5066152 -0.73760366
vn 0.6882068 0.5000097 -0.52570134
vn 0.3638108 0.264303 -0.8931885
vn -0 -1.6292148E-07 -1
vn 0.61972564 0.26801825 -0.7376357
vn 0.821921 0.26150697 -0.5060237
vn 0.27129883 -1.568144E-07 -0.96249515
vn 0.08380321 -0.25800237 -0.96250284
vn 0.52499306 -1.3865906E-07 -0.8511064
vn 0.7394342 -1.0968308E-07 -0.6732289
vn 0.8944272 0 -0.4472136
vn 0.821921 -0.26150697 -0.5060237
vn 0.3638108 -0.264303 -0.8931885
vn 0.61972564 -0.26801825 -0.7376357
vn 0.6882068 -0.5000097 -0.52570134
vn 0.4464206 -0.5066122 -0.73759925
vn 0.5027078 -0.7008958 -0.5059941
vn 0.16220666 -0.49929285 -0.8511143
vn 0.22851124 -0.7032159 -0.67325336
vn 0.27638978 -0.8506635 -0.4471917
vn 0.005300163 -0.8625085 -0.50601494
vn -0.06340294 -0.6722354 -0.73761755
vn -0.13899863 -0.4276932 -0.893173
vn 0.9496592 -0.31328458 0
vn 0.8090024 -0.5878054 0
vn 0.8588116 -0.4416996 0.25950754
vn 0.9584094 -0.16150224 0.23530485
vn 1 0 0
vn 0.6854894 -0.68027395 0.25948334
vn 0.5913908 -0.8063851 1.3137745E-07
vn 0.9584094 0.16150224 0.23530485
vn 0.9496592 0.31328458 0
vn 0.44970533 -0.8616248 0.23530366
vn 0.3089621 -0.95107436 1.5495033E-07
vn 0.8588116 0.4416996 0.25950754
vn 0.8090024 0.5878054 0
vn 0.14259788 -0.9614032 0.23530816
vn -0.0044999523 -0.99998987 1.6291982E-07
vn 0.6854894 0.68027395 0.25948334
vn 0.5913908 0.8063851 -1.3137745E-07
vn -0.15470336 -0.9532734 0.2594932
vn -0.3089621 -0.95107436 1.5495033E-07
vn 0.44970533 0.8616248 0.23530366
vn 0.3089621 0.95107436 -1.5495033E-07
vn -0.4350953 -0.8621812 0.25949124
vn -0.58414805 -0.81164706 1.3223281E-07
vn 0.14259788 0.9614032 0.23530816
vn -0.0044999523 0.99998987 -1.6291982E-07
vn -0.68047607 -0.6939669 0.23529151
vn -0.8090024 -0.5878054 0
vn -0.15470336 0.9532734 0.2594932
vn -0.3089621 0.95107436 -1.5495033E-07
vn -0.87027943 -0.4327182 0.2353054
vn -0.95244545 -0.3047091 0
vn -0.4350953 0.8621812 0.25949124
vn -0.58414805 0.81164706 -1.3223281E-07
vn -0.9544241 -0.14739995 0.2595149
vn -1 0 0
vn -0.68047607 0.6939669 0.23529151
vn -0.8090024 0.5878054 0
vn -0.9544241 0.14739995 0.2595149
vn -0.95244545 0.3047091 0
vn -0.87027943 0.4327182 0.2353054
vn -0.72361296 -0.52571243 0.44722545
vn -0.81869996 -0.27149853 0.505983
vn -0.85067236 0 0.5256963
vn -0.81869996 0.27149853 0.505983
vn -0.72361296 0.52571243 0.44722545
vn -0.51121444 0.6947024 0.5060122
vn -0.51121444 -0.6947024 0.5060122
vn -0.59821457 -0.43463093 0.67322755
vn -0.65894645 -0.14740013 0.737606
vn -0.59821457 0.43463093 0.67322755
vn -0.65894645 0.14740013 0.737606
vn -0.2629058 0.8090208 0.5257052
vn -0.2629058 -0.8090208 0.5257052
vn -0.3438198 -0.5811314 0.73761386
vn -0.42478403 -0.30856612 0.8510848
vn -0.3438198 0.5811314 0.73761386
vn -0.42478403 0.30856612 0.8510848
vn -0.4496919 1.455184E-07 0.8931837
vn 0.005300163 0.8625085 0.50601494
vn -0.06340294 0.6722354 0.73761755
vn -0.13899863 0.4276932 0.893173
vn -0.2195 0.15949425 0.96248704
vn -0.2195 -0.15949425 0.96248704
vn 0.27638978 0.8506635 0.4471917
vn 0.22851124 0.7032159 0.67325336
vn 0.5027078 0.7008958 0.5059941
vn 0.16220666 0.49929285 0.8511143
vn 0.08380321 0.25800237 0.96250284
vn 0.6882068 0.5000097 0.52570134
vn 0.44641 0.5066152 0.73760366
vn 0.821921 0.26150697 0.5060237
vn 0.3638108 0.264303 0.8931885
vn 0.61972564 0.26801825 0.7376357
vn -0 1.6292148E-07 1
vn 0.8944272 0 0.4472136
vn 0.27129883 1.568144E-07 0.96249515
vn 0.52499306 1.3865906E-07 0.8511064
vn 0.7394342 1.0968308E-07 0.6732289
vn 0.821921 -0.26150697 0.5060237
vn 0.08380321 -0.25800237 0.96250284
vn 0.3638108 -0.264303 0.8931885
vn 0.61972564 -0.26801825 0.7376357
vn 0.6882068 -0.5000097 0.52570134
vn -0.13899863 -0.4276932 0.893173
vn 0.16220666 -0.49929285 0.8511143
vn 0.4464206 -0.5066122 0.73759925
vn 0.5027078 -0.7008958 0.5059941
vn -0.06340294 -0.6722354 0.73761755
vn 0.22851124 -0.7032159 0.67325336
vn 0.27638978 -0.8506635 0.4471917
vn 0.005300163 -0.8625085 0.50601494
g S_wpn_funnel_0008_03_lod0_0
f 3/3/3 2/2/2 1/1/1
f 2/2/2 4/4/4 1/1/1
f 5/5/5 1/1/1 4/4/4
f 6/6/6 2/2/2 3/3/3
f 7/7/7 6/6/6 3/3/3
f 8/8/8 5/5/5 4/4/4
f 9/9/9 5/5/5 8/8/8
f 10/10/10 6/6/6 7/7/7
f 7/7/7 11/11/11 10/10/10
f 8/8/8 12/12/12 9/9/9
f 9/9/9 12/12/12 13/13/13
f 10/10/10 11/11/11 14/14/14
f 11/11/11 15/15/15 14/14/14
f 12/12/12 16/16/16 13/13/13
f 13/13/13 16/16/16 17/17/17
f 18/18/18 14/14/14 15/15/15
f 19/19/19 18/18/18 15/15/15
f 16/16/16 20/20/20 17/17/17
f 21/21/21 17/17/17 20/20/20
f 22/22/22 18/18/18 19/19/19
f 23/23/23 22/22/22 19/19/19
f 24/24/24 21/21/21 20/20/20
f 25/25/25 21/21/21 24/24/24
f 26/26/26 22/22/22 23/23/23
f 23/23/23 27/27/27 26/26/26
f 24/24/24 28/28/28 25/25/25
f 25/25/25 28/28/28 29/29/29
f 26/26/26 27/27/27 30/30/30
f 27/27/27 31/31/31 30/30/30
f 28/28/28 32/32/32 29/29/29
f 29/29/29 32/32/32 33/33/33
f 34/34/34 30/30/30 31/31/31
f 35/35/35 34/34/34 31/31/31
f 32/32/32 36/36/36 33/33/33
f 37/37/37 33/33/33 36/36/36
f 38/38/38 34/34/34 35/35/35
f 39/39/39 38/38/38 35/35/35
f 39/39/39 37/37/37 40/40/40
f 40/40/40 37/37/37 36/36/36
f 40/40/40 38/38/38 39/39/39
f 26/26/26 30/30/30 41/41/41
f 34/34/34 42/42/42 30/30/30
f 42/42/42 41/41/41 30/30/30
f 38/38/38 43/43/43 34/34/34
f 43/43/43 42/42/42 34/34/34
f 40/40/40 44/44/44 38/38/38
f 44/44/44 43/43/43 38/38/38
f 40/40/40 36/36/36 45/45/45
f 45/45/45 44/44/44 40/40/40
f 32/32/32 46/46/46 36/36/36
f 46/46/46 45/45/45 36/36/36
f 41/41/41 47/47/47 26/26/26
f 26/26/26 47/47/47 22/22/22
f 41/41/41 42/42/42 48/48/48
f 47/47/47 41/41/41 48/48/48
f 42/42/42 43/43/43 49/49/49
f 48/48/48 42/42/42 49/49/49
f 44/44/44 45/45/45 50/50/50
f 45/45/45 46/46/46 50/50/50
f 43/43/43 44/44/44 51/51/51
f 49/49/49 43/43/43 51/51/51
f 51/51/51 44/44/44 50/50/50
f 52/52/52 46/46/46 32/32/32
f 28/28/28 52/52/52 32/32/32
f 47/47/47 53/53/53 22/22/22
f 22/22/22 53/53/53 18/18/18
f 54/54/54 47/47/47 48/48/48
f 53/53/53 47/47/47 54/54/54
f 48/48/48 49/49/49 55/55/55
f 54/54/54 48/48/48 55/55/55
f 50/50/50 46/46/46 56/56/56
f 46/46/46 52/52/52 56/56/56
f 51/51/51 50/50/50 57/57/57
f 50/50/50 56/56/56 57/57/57
f 49/49/49 51/51/51 58/58/58
f 55/55/55 49/49/49 58/58/58
f 58/58/58 51/51/51 57/57/57
f 59/59/59 52/52/52 28/28/28
f 24/24/24 59/59/59 28/28/28
f 56/56/56 52/52/52 60/60/60
f 52/52/52 59/59/59 60/60/60
f 57/57/57 56/56/56 61/61/61
f 56/56/56 60/60/60 61/61/61
f 58/58/58 57/57/57 62/62/62
f 57/57/57 61/61/61 62/62/62
f 55/55/55 58/58/58 63/63/63
f 63/63/63 58/58/58 62/62/62
f 64/64/64 59/59/59 24/24/24
f 24/24/24 20/20/20 64/64/64
f 60/60/60 59/59/59 65/65/65
f 59/59/59 64/64/64 65/65/65
f 66/66/66 64/64/64 20/20/20
f 64/64/64 66/66/66 65/65/65
f 16/16/16 66/66/66 20/20/20
f 61/61/61 60/60/60 67/67/67
f 60/60/60 65/65/65 67/67/67
f 62/62/62 61/61/61 68/68/68
f 61/61/61 67/67/67 68/68/68
f 65/65/65 66/66/66 69/69/69
f 65/65/65 69/69/69 67/67/67
f 70/70/70 66/66/66 16/16/16
f 66/66/66 70/70/70 69/69/69
f 12/12/12 70/70/70 16/16/16
f 67/67/67 69/69/69 71/71/71
f 67/67/67 71/71/71 68/68/68
f 62/62/62 68/68/68 72/72/72
f 63/63/63 62/62/62 72/72/72
f 69/69/69 70/70/70 73/73/73
f 69/69/69 73/73/73 71/71/71
f 74/74/74 70/70/70 12/12/12
f 70/70/70 74/74/74 73/73/73
f 8/8/8 74/74/74 12/12/12
f 68/68/68 75/75/75 72/72/72
f 68/68/68 71/71/71 75/75/75
f 76/76/76 63/63/63 72/72/72
f 75/75/75 76/76/76 72/72/72
f 71/71/71 73/73/73 77/77/77
f 71/71/71 77/77/77 75/75/75
f 73/73/73 74/74/74 78/78/78
f 73/73/73 78/78/78 77/77/77
f 79/79/79 74/74/74 8/8/8
f 74/74/74 79/79/79 78/78/78
f 8/8/8 4/4/4 79/79/79
f 80/80/80 79/79/79 4/4/4
f 79/79/79 80/80/80 78/78/78
f 2/2/2 80/80/80 4/4/4
f 77/77/77 81/81/81 75/75/75
f 75/75/75 81/81/81 76/76/76
f 78/78/78 82/82/82 77/77/77
f 78/78/78 80/80/80 82/82/82
f 77/77/77 82/82/82 81/81/81
f 83/83/83 80/80/80 2/2/2
f 80/80/80 83/83/83 82/82/82
f 6/6/6 83/83/83 2/2/2
f 82/82/82 84/84/84 81/81/81
f 82/82/82 83/83/83 84/84/84
f 85/85/85 83/83/83 6/6/6
f 83/83/83 85/85/85 84/84/84
f 10/10/10 85/85/85 6/6/6
f 81/81/81 86/86/86 76/76/76
f 81/81/81 84/84/84 86/86/86
f 84/84/84 85/85/85 87/87/87
f 84/84/84 87/87/87 86/86/86
f 88/88/88 85/85/85 10/10/10
f 85/85/85 88/88/88 87/87/87
f 10/10/10 14/14/14 88/88/88
f 89/89/89 88/88/88 14/14/14
f 88/88/88 89/89/89 87/87/87
f 18/18/18 89/89/89 14/14/14
f 53/53/53 89/89/89 18/18/18
f 87/87/87 89/89/89 90/90/90
f 89/89/89 53/53/53 90/90/90
f 87/87/87 90/90/90 86/86/86
f 90/90/90 53/53/53 54/54/54
f 86/86/86 91/91/91 76/76/76
f 86/86/86 90/90/90 91/91/91
f 90/90/90 54/54/54 91/91/91
f 76/76/76 91/91/91 63/63/63
f 91/91/91 54/54/54 55/55/55
f 91/91/91 55/55/55 63/63/63
f 94/94/94 93/93/93 92/92/92
f 95/95/95 94/94/94 92/92/92
f 92/92/92 96/96/96 95/95/95
f 94/94/94 97/97/97 93/93/93
f 97/97/97 98/98/98 93/93/93
f 96/96/96 99/99/99 95/95/95
f 96/96/96 100/100/100 99/99/99
f 97/97/97 101/101/101 98/98/98
f 102/102/102 98/98/98 101/101/101
f 103/103/103 99/99/99 100/100/100
f 103/103/103 100/100/100 104/104/104
f 102/102/102 101/101/101 105/105/105
f 106/106/106 102/102/102 105/105/105
f 107/107/107 103/103/103 104/104/104
f 107/107/107 104/104/104 108/108/108
f 105/105/105 109/109/109 106/106/106
f 109/109/109 110/110/110 106/106/106
f 111/111/111 107/107/107 108/108/108
f 108/108/108 112/112/112 111/111/111
f 109/109/109 113/113/113 110/110/110
f 113/113/113 114/114/114 110/110/110
f 112/112/112 115/115/115 111/111/111
f 112/112/112 116/116/116 115/115/115
f 113/113/113 117/117/117 114/114/114
f 118/118/118 114/114/114 117/117/117
f 119/119/119 115/115/115 116/116/116
f 119/119/119 116/116/116 120/120/120
f 118/118/118 117/117/117 121/121/121
f 122/122/122 118/118/118 121/121/121
f 123/123/123 119/119/119 120/120/120
f 123/123/123 120/120/120 124/124/124
f 121/121/121 125/125/125 122/122/122
f 125/125/125 126/126/126 122/122/122
f 127/127/127 123/123/123 124/124/124
f 124/124/124 128/128/128 127/127/127
f 125/125/125 129/129/129 126/126/126
f 129/129/129 130/130/130 126/126/126
f 128/128/128 130/130/130 131/131/131
f 128/128/128 131/131/131 127/127/127
f 129/129/129 131/131/131 130/130/130
f 121/121/121 117/117/117 132/132/132
f 133/133/133 125/125/125 121/121/121
f 132/132/132 133/133/133 121/121/121
f 134/134/134 129/129/129 125/125/125
f 133/133/133 134/134/134 125/125/125
f 135/135/135 131/131/131 129/129/129
f 134/134/134 135/135/135 129/129/129
f 127/127/127 131/131/131 136/136/136
f 135/135/135 136/136/136 131/131/131
f 137/137/137 123/123/123 127/127/127
f 136/136/136 137/137/137 127/127/127
f 138/138/138 132/132/132 117/117/117
f 138/138/138 117/117/117 113/113/113
f 133/133/133 132/132/132 139/139/139
f 132/132/132 138/138/138 139/139/139
f 134/134/134 133/133/133 140/140/140
f 133/133/133 139/139/139 140/140/140
f 136/136/136 135/135/135 141/141/141
f 137/137/137 136/136/136 141/141/141
f 135/135/135 134/134/134 142/142/142
f 134/134/134 140/140/140 142/142/142
f 135/135/135 142/142/142 141/141/141
f 137/137/137 143/143/143 123/123/123
f 143/143/143 119/119/119 123/123/123
f 144/144/144 138/138/138 113/113/113
f 144/144/144 113/113/113 109/109/109
f 138/138/138 145/145/145 139/139/139
f 138/138/138 144/144/144 145/145/145
f 140/140/140 139/139/139 146/146/146
f 139/139/139 145/145/145 146/146/146
f 137/137/137 141/141/141 147/147/147
f 143/143/143 137/137/137 147/147/147
f 141/141/141 142/142/142 148/148/148
f 147/147/147 141/141/141 148/148/148
f 142/142/142 140/140/140 149/149/149
f 140/140/140 146/146/146 149/149/149
f 142/142/142 149/149/149 148/148/148
f 143/143/143 150/150/150 119/119/119
f 150/150/150 115/115/115 119/119/119
f 143/143/143 147/147/147 151/151/151
f 150/150/150 143/143/143 151/151/151
f 147/147/147 148/148/148 152/152/152
f 151/151/151 147/147/147 152/152/152
f 148/148/148 149/149/149 153/153/153
f 152/152/152 148/148/148 153/153/153
f 149/149/149 146/146/146 154/154/154
f 149/149/149 154/154/154 153/153/153
f 150/150/150 155/155/155 115/115/115
f 111/111/111 115/115/115 155/155/155
f 150/150/150 151/151/151 156/156/156
f 155/155/155 150/150/150 156/156/156
f 155/155/155 157/157/157 111/111/111
f 157/157/157 155/155/155 156/156/156
f 157/157/157 107/107/107 111/111/111
f 151/151/151 152/152/152 158/158/158
f 156/156/156 151/151/151 158/158/158
f 152/152/152 153/153/153 159/159/159
f 158/158/158 152/152/152 159/159/159
f 157/157/157 160/160/160 107/107/107
f 160/160/160 103/103/103 107/107/107
f 157/157/157 156/156/156 161/161/161
f 161/161/161 156/156/156 158/158/158
f 160/160/160 157/157/157 161/161/161
f 160/160/160 162/162/162 103/103/103
f 162/162/162 99/99/99 103/103/103
f 161/161/161 158/158/158 163/163/163
f 163/163/163 158/158/158 159/159/159
f 160/160/160 161/161/161 164/164/164
f 162/162/162 160/160/160 164/164/164
f 164/164/164 161/161/161 163/163/163
f 159/159/159 153/153/153 165/165/165
f 153/153/153 154/154/154 165/165/165
f 162/162/162 166/166/166 99/99/99
f 95/95/95 99/99/99 166/166/166
f 163/163/163 159/159/159 167/167/167
f 167/167/167 159/159/159 165/165/165
f 164/164/164 163/163/163 168/168/168
f 168/168/168 163/163/163 167/167/167
f 162/162/162 164/164/164 169/169/169
f 166/166/166 162/162/162 169/169/169
f 169/169/169 164/164/164 168/168/168
f 166/166/166 170/170/170 95/95/95
f 170/170/170 166/166/166 169/169/169
f 170/170/170 94/94/94 95/95/95
f 154/154/154 171/171/171 165/165/165
f 171/171/171 167/167/167 165/165/165
f 172/172/172 168/168/168 167/167/167
f 172/172/172 167/167/167 171/171/171
f 173/173/173 169/169/169 168/168/168
f 170/170/170 169/169/169 173/173/173
f 173/173/173 168/168/168 172/172/172
f 170/170/170 174/174/174 94/94/94
f 174/174/174 170/170/170 173/173/173
f 174/174/174 97/97/97 94/94/94
f 175/175/175 171/171/171 154/154/154
f 146/146/146 175/175/175 154/154/154
f 145/145/145 175/175/175 146/146/146
f 176/176/176 172/172/172 171/171/171
f 175/175/175 176/176/176 171/171/171
f 177/177/177 173/173/173 172/172/172
f 174/174/174 173/173/173 177/177/177
f 177/177/177 172/172/172 176/176/176
f 174/174/174 178/178/178 97/97/97
f 178/178/178 174/174/174 177/177/177
f 178/178/178 101/101/101 97/97/97
f 145/145/145 179/179/179 175/175/175
f 179/179/179 176/176/176 175/175/175
f 144/144/144 179/179/179 145/145/145
f 180/180/180 177/177/177 176/176/176
f 178/178/178 177/177/177 180/180/180
f 179/179/179 180/180/180 176/176/176
f 178/178/178 181/181/181 101/101/101
f 181/181/181 178/178/178 180/180/180
f 105/105/105 101/101/101 181/181/181
f 144/144/144 182/182/182 179/179/179
f 182/182/182 180/180/180 179/179/179
f 182/182/182 181/181/181 180/180/180
f 181/181/181 182/182/182 105/105/105
f 182/182/182 144/144/144 109/109/109
f 182/182/182 109/109/109 105/105/105
