g S_wpn_funnel_0010_02_lod0
v 0.005776052 0.0057760547 0.022176327
v 0.0059548584 3.7388195E-09 0.02294871
v -0 3.883132E-09 0.023834493
v -0 0.0059548616 0.02294871
v 0.01205034 0.005392795 0.019633187
v 0.012390649 3.2961656E-09 0.02023172
v 0.016408334 0.0051932526 0.016365336
v 0.016860094 2.7398448E-09 0.016817048
v 0.020272288 2.0117032E-09 0.012347746
v 0.019673565 0.005392794 0.012008055
v 0.022986226 9.637002E-10 0.00591515
v 0.015043477 0.010647205 0.015001907
v 0.011166415 0.011166416 0.017650442
v 0.022212038 0.0057760524 0.0057362467
v 0.023834495 0 0
v 0.017692108 0.011166416 0.011129134
v 0.0053927456 0.012050343 0.019633187
v 0.013768474 0.013768475 0.0137239
v 0.01064725 0.0150434775 0.015001906
v 0.022986226 0.005954858 -4.2140353E-05
v 0.019673565 0.01205034 0.0053530824
v 0.015043477 0.015043477 0.0106112575
v 0.011166415 0.01769211 0.011129134
v 0.022148158 0.005756744 -0.0057567465
v 0.02291987 -9.668766E-10 -0.005934647
v 0.019609882 0.005374724 -0.012008202
v 0.020207413 -2.0116178E-09 -0.012347221
v 0.016353562 0.0051759444 -0.016353562
v 0.016804036 -2.7377245E-09 -0.016804034
v 0.012347222 -3.292205E-09 -0.020207409
v 0.012008202 0.005374723 -0.019609882
v 0.0059346943 -3.734121E-09 -0.022919869
v 0.014992518 0.010614928 -0.014992518
v 0.017634476 0.011131421 -0.011131425
v 0.019609882 0.0120081995 -0.005374728
v 0.0057567456 0.005756742 -0.022148157
v -0 -3.883132E-09 -0.023834493
v -0 0.005934643 -0.022919869
v 0.011131424 0.011131421 -0.017634477
v 0.013720424 0.01372042 -0.013720425
v 0.0053747264 0.012008197 -0.019609882
v 0.020272288 0.012390648 -4.2141404E-05
v 0.014992518 0.014992516 -0.0106149325
v 0.010614932 0.014992515 -0.014992519
v 0.016408334 0.016408334 0.005153158
v 0.016353562 0.01635356 -0.005175949
v 0.011131424 0.017634472 -0.01113138
v 0.01205034 0.019673565 0.005353081
v 0.016860094 0.016860092 -4.2142132E-05
v 0.012390649 0.020272285 -4.2142685E-05
v 0.012008202 0.01960988 -0.0053747287
v 0.0059548584 0.022986224 -4.214313E-05
v 0.005776052 0.022212036 0.0057362444
v -0 0.023834493 -3.883132E-09
v 0.0057567456 0.022148157 -0.005756749
v 0.0053747264 0.019609878 -0.012008204
v 0.0053927456 0.019673567 0.012008053
v -0 0.022919869 -0.005934697
v 0.005175947 0.016353559 -0.016353564
v -0 0.022986224 0.0059151463
v 0.0051932507 0.016408335 0.016365334
v -0 0.020207407 -0.012347225
v -0 0.012347218 -0.020207413
v -0 0.020272288 0.012347742
v -0 0.012390652 0.020231718
v -0 0.016804032 -0.016804038
v -0.005175947 0.016353559 -0.016353564
v -0.0053747264 0.019609878 -0.012008204
v -0.0053747264 0.012008197 -0.019609882
v -0 0.016860096 0.016817046
v -0.0051932507 0.016408335 0.016365334
v -0.0053927926 0.012050343 0.019633187
v -0.0053927456 0.019673567 0.012008053
v -0.0057567456 0.022148157 -0.005756749
v -0.010614932 0.014992515 -0.014992519
v -0.005776052 0.022212036 0.0057362444
v -0.01064725 0.0150434775 0.015001906
v -0.005776052 0.0057760547 0.022176327
v -0 3.883132E-09 0.023834493
v -0.0059548584 3.7388195E-09 0.02294871
v -0.011166415 0.011166416 0.017650442
v -0.011166415 0.01769211 0.011129134
v -0.0059548584 0.022986224 -4.214313E-05
v -0.01205034 0.005392795 0.019633187
v -0.013768474 0.013768475 0.0137239
v -0.01205034 0.019673565 0.005353081
v -0.015043477 0.010647205 0.015001907
v -0.015043477 0.015043477 0.0106112575
v -0.017692108 0.011166416 0.011129134
v -0.012008202 0.01960988 -0.0053747287
v -0.012390649 0.020272285 -4.2142685E-05
v -0.016408334 0.016408334 0.005153158
v -0.019673565 0.01205034 0.0053530354
v -0.011131424 0.017634472 -0.011131425
v -0.019673565 0.005392747 0.012008055
v -0.022212038 0.0057760524 0.0057362467
v -0.016408334 0.0051932526 0.016365336
v -0.012390649 3.2961656E-09 0.02023172
v -0.020272288 0.012390648 -4.2141404E-05
v -0.022986226 0.005954858 -4.2140353E-05
v -0.016860094 0.016860092 -4.2142132E-05
v -0.016353562 0.01635356 -0.005175949
v -0.019609882 0.0120081995 -0.005374728
v -0.014992518 0.014992516 -0.0106149325
v -0.013720424 0.01372042 -0.013720425
v -0.017634476 0.011131421 -0.011131425
v -0.022148158 0.005756744 -0.0057567465
v -0.023834495 0 0
v -0.011131424 0.011131421 -0.017634477
v -0.014992518 0.010614928 -0.014992518
v -0.019609882 0.005374724 -0.012008202
v -0.0057567456 0.005756742 -0.022148157
v -0 -3.883132E-09 -0.023834493
v -0.0059346473 -3.734121E-09 -0.022919869
v -0.012008202 0.005374723 -0.019609882
v -0.016353562 0.0051759444 -0.016353562
v -0.02291987 -9.668844E-10 -0.005934694
v -0.012347222 -3.292205E-09 -0.020207409
v -0.020207413 -2.0116178E-09 -0.012347221
v -0.016804036 -2.7377245E-09 -0.016804034
v -0.016353562 -0.005175949 -0.01635356
v -0.012008202 -0.0053747287 -0.01960988
v -0.019609882 -0.005374728 -0.0120081995
v -0.022148158 -0.0057567465 -0.005756744
v -0.014992518 -0.0106149325 -0.014992516
v -0.0057567456 -0.005756749 -0.022148157
v -0 -3.883132E-09 -0.023834493
v -0 -0.00593465 -0.022919869
v -0.011131424 -0.01113138 -0.017634472
v -0.017634476 -0.011131425 -0.011131421
v -0.0053747264 -0.012008204 -0.019609878
v -0.013720424 -0.013720425 -0.01372042
v -0.010614932 -0.014992519 -0.014992515
v -0.014992518 -0.014992518 -0.010614928
v -0.019609882 -0.012008202 -0.005374724
v -0.011131424 -0.017634477 -0.011131421
v -0.005175947 -0.016353564 -0.016353559
v -0 -0.012347225 -0.020207407
v -0.0053747264 -0.019609882 -0.012008197
v -0.020368291 -0.012211604 1.9895228E-09
v -0.016353562 -0.016353562 -0.0051759444
v -0.012008202 -0.019609882 -0.005374723
v -0.0057567456 -0.022148157 -0.005756742
v -0.016853468 -0.016853467 2.7457783E-09
v -0.023037376 -0.005767661 9.396713E-10
v -0.022986226 9.636925E-10 0.0059151016
v -0.022212038 -0.00577605 0.005736249
v -0.020272288 2.0117032E-09 0.012347746
v -0.012211605 -0.02036829 3.3184158E-09
v -0.019673565 -0.012050337 0.0053530387
v -0.019673565 -0.0053927903 0.012008058
v -0.016860094 2.7398448E-09 0.016817048
v -0.016408334 -0.0051932475 0.016365338
v -0.017692108 -0.011166411 0.011129139
v -0.016408334 -0.016408332 0.005153163
v -0.01205034 -0.005392789 0.01963319
v -0.015043477 -0.010647247 0.01500186
v -0.015043477 -0.015043474 0.010611262
v -0.005776052 -0.0057760477 0.022176327
v -0 3.883132E-09 0.023834493
v -0 -0.005954854 0.02294871
v -0.011166415 -0.011166411 0.017650448
v -0.013768474 -0.01376847 0.013723905
v -0.01205034 -0.019673564 0.00535304
v -0.0053927926 -0.012050335 0.01963319
v -0.01064725 -0.015043473 0.015001861
v -0.011166415 -0.017692104 0.011129139
v -0.005776052 -0.022212036 0.0057362514
v -0.0053927926 -0.019673562 0.01200806
v -0.0051932507 -0.01640833 0.01636534
v -0 -0.012390644 0.020231724
v -0.0057676616 -0.023037374 3.753265E-09
v -0 -0.022919869 -0.00593469
v -0 -0.023834493 3.883132E-09
v -0 -0.022986224 0.0059151533
v -0 -0.020272283 0.012347749
v -0 -0.01686009 0.01681705
v 0.0051932507 -0.01640833 0.01636534
v 0.0053927926 -0.012050335 0.01963319
v 0.0053927926 -0.019673562 0.01200806
v -0 -0.020207413 -0.012347218
v 0.005776052 -0.0057760477 0.022176327
v -0 3.883132E-09 0.023834493
v 0.0059548584 3.7388195E-09 0.02294871
v 0.01064725 -0.015043473 0.015001861
v 0.011166415 -0.011166411 0.017650448
v 0.01205034 -0.005392789 0.01963319
v 0.012390649 3.2961656E-09 0.02023172
v 0.016408334 -0.0051932475 0.016365338
v 0.016860094 2.7398448E-09 0.016817048
v 0.020272288 2.0117032E-09 0.012347746
v 0.015043477 -0.010647247 0.01500186
v 0.019673565 -0.0053927903 0.012008058
v 0.022986226 9.637002E-10 0.00591515
v 0.013768474 -0.01376847 0.013723905
v 0.011166415 -0.017692104 0.011129139
v 0.017692108 -0.011166411 0.011129139
v 0.022212038 -0.00577605 0.005736249
v 0.023834495 0 0
v 0.015043477 -0.015043474 0.010611262
v 0.005776052 -0.022212036 0.0057362514
v 0.023037376 -0.005767661 9.396713E-10
v 0.02291987 -9.668766E-10 -0.005934647
v 0.019673565 -0.012050337 0.0053530387
v 0.01205034 -0.019673564 0.00535304
v 0.0057676616 -0.023037374 3.753265E-09
v 0.020368291 -0.012211604 1.9895228E-09
v 0.016408334 -0.016408332 0.005153163
v 0.022148158 -0.0057567465 -0.005756744
v 0.012211605 -0.02036829 3.3184158E-09
v 0.0057567456 -0.022148157 -0.005756742
v 0.016853468 -0.016853467 2.7457783E-09
v 0.019609882 -0.012008202 -0.005374724
v 0.019609882 -0.005374728 -0.0120081995
v 0.020207413 -2.0116178E-09 -0.012347221
v 0.016353562 -0.016353562 -0.0051759444
v 0.017634476 -0.011131425 -0.011131421
v 0.016353562 -0.005175949 -0.01635356
v 0.016804036 -2.7377245E-09 -0.016804034
v 0.012347222 -3.292205E-09 -0.020207409
v 0.012008202 -0.019609882 -0.005374723
v 0.014992518 -0.014992518 -0.010614928
v 0.014992518 -0.0106149325 -0.014992516
v 0.012008202 -0.0053747287 -0.01960988
v 0.0059346943 -3.734121E-09 -0.022919869
v 0.011131424 -0.017634477 -0.011131421
v 0.013720424 -0.013720425 -0.01372042
v 0.0057567456 -0.005756749 -0.022148157
v -0 -3.883132E-09 -0.023834493
v 0.011131424 -0.01113138 -0.017634472
v 0.0053747264 -0.012008204 -0.019609878
v 0.010614932 -0.014992519 -0.014992515
v 0.005374679 -0.019609882 -0.012008197
v 0.005175947 -0.016353564 -0.016353559
v -0 -0.016804038 -0.016804032
vt 0.1255 0.8852
vt 0.0006 0.9291
vt 0.131 0.9986
vt 0.2505 0.9291
vt 0.0679 0.7998
vt 0.0006 0.8107
vt 0.0491 0.7456
vt 0.0006 0.7524
vt 0.0006 0.6852
vt 0.0432 0.6801
vt 0.0006 0.5884
vt 0.0983 0.7251
vt 0.1255 0.765
vt 0.0411 0.5857
vt 0.0006 0.4988
vt 0.0901 0.6668
vt 0.1832 0.7998
vt 0.1255 0.7059
vt 0.1528 0.7251
vt 0.041 0.4988
vt 0.088 0.58
vt 0.1255 0.659
vt 0.161 0.6668
vt 0.0411 0.412
vt 0.0006 0.4093
vt 0.0432 0.3176
vt 0.0006 0.3125
vt 0.0491 0.2521
vt 0.0006 0.2453
vt 0.0006 0.1789
vt 0.0679 0.1905
vt 0.0006 0.0748
vt 0.0983 0.2726
vt 0.0901 0.3309
vt 0.088 0.4177
vt 0.1262 0.1155
vt 0.121 0.0032
vt 0.2505 0.0673
vt 0.1255 0.2333
vt 0.1255 0.2918
vt 0.1832 0.1903
vt 0.0878 0.4988
vt 0.1255 0.3387
vt 0.1528 0.2726
vt 0.1255 0.577
vt 0.1255 0.4207
vt 0.161 0.3309
vt 0.1631 0.58
vt 0.1255 0.4988
vt 0.1632 0.4988
vt 0.1631 0.4177
vt 0.2101 0.4988
vt 0.21 0.5857
vt 0.2505 0.4988
vt 0.21 0.412
vt 0.2079 0.3176
vt 0.2079 0.6801
vt 0.2505 0.4093
vt 0.2019 0.2521
vt 0.2505 0.5884
vt 0.2019 0.7456
vt 0.2505 0.3125
vt 0.2505 0.1791
vt 0.2505 0.6852
vt 0.2505 0.8107
vt 0.2505 0.2453
vt 0.299 0.2521
vt 0.293 0.3176
vt 0.3177 0.1908
vt 0.2505 0.7524
vt 0.299 0.7456
vt 0.3177 0.7998
vt 0.293 0.6801
vt 0.2909 0.412
vt 0.3481 0.2726
vt 0.2909 0.5857
vt 0.3481 0.7251
vt 0.3754 0.8852
vt 0.3863 0.9986
vt 0.5003 0.9291
vt 0.3754 0.765
vt 0.3399 0.6668
vt 0.2908 0.4988
vt 0.433 0.7998
vt 0.3754 0.7059
vt 0.3378 0.58
vt 0.4026 0.7251
vt 0.3754 0.659
vt 0.4108 0.6668
vt 0.3378 0.4177
vt 0.3377 0.4988
vt 0.3754 0.577
vt 0.4129 0.58
vt 0.3399 0.3309
vt 0.4578 0.6801
vt 0.4598 0.5857
vt 0.4518 0.7456
vt 0.5003 0.8107
vt 0.4131 0.4988
vt 0.46 0.4988
vt 0.3754 0.4988
vt 0.3754 0.4207
vt 0.4129 0.4177
vt 0.3754 0.3387
vt 0.3754 0.2918
vt 0.4108 0.3309
vt 0.4598 0.412
vt 0.5003 0.4988
vt 0.3754 0.2336
vt 0.4026 0.2726
vt 0.4578 0.3176
vt 0.3747 0.1083
vt 0.375 0.0032
vt 0.5003 0.0622
vt 0.433 0.1886
vt 0.4518 0.2521
vt 0.5003 0.4093
vt 0.5003 0.1778
vt 0.5003 0.3125
vt 0.5003 0.2453
vt 0.5488 0.2521
vt 0.5675 0.1897
vt 0.5428 0.3176
vt 0.5407 0.412
vt 0.598 0.2726
vt 0.6204 0.1079
vt 0.624 -0.0011
vt 0.7501 0.0696
vt 0.6252 0.2336
vt 0.5897 0.3309
vt 0.6829 0.1902
vt 0.6252 0.2918
vt 0.6524 0.2726
vt 0.6252 0.3387
vt 0.5876 0.4177
vt 0.6606 0.3309
vt 0.7016 0.2521
vt 0.7501 0.1791
vt 0.7076 0.3176
vt 0.5875 0.4988
vt 0.6252 0.4207
vt 0.6627 0.4177
vt 0.7096 0.412
vt 0.6252 0.4988
vt 0.5406 0.4988
vt 0.5003 0.5884
vt 0.5407 0.5857
vt 0.5003 0.6852
vt 0.6629 0.4988
vt 0.5876 0.58
vt 0.5428 0.6801
vt 0.5003 0.7524
vt 0.5488 0.7456
vt 0.5897 0.6668
vt 0.6252 0.577
vt 0.5675 0.7998
vt 0.598 0.7251
vt 0.6252 0.659
vt 0.6252 0.8852
vt 0.6213 1.0029
vt 0.7502 0.929
vt 0.6252 0.765
vt 0.6252 0.7059
vt 0.6627 0.58
vt 0.6829 0.7998
vt 0.6524 0.7251
vt 0.6606 0.6668
vt 0.7096 0.5857
vt 0.7076 0.6801
vt 0.7016 0.7456
vt 0.7501 0.8107
vt 0.7098 0.4988
vt 0.7501 0.4093
vt 0.7501 0.4988
vt 0.7501 0.5884
vt 0.7501 0.6852
vt 0.7501 0.7524
vt 0.7986 0.7456
vt 0.8173 0.7998
vt 0.7926 0.6801
vt 0.7501 0.3125
vt 0.875 0.8891
vt 0.8766 1
vt 0.9995 0.9266
vt 0.8478 0.7251
vt 0.875 0.765
vt 0.9327 0.7998
vt 0.9999 0.8107
vt 0.9514 0.7456
vt 0.9999 0.7524
vt 0.9999 0.6852
vt 0.9022 0.7251
vt 0.9574 0.6801
vt 0.9999 0.5884
vt 0.875 0.7059
vt 0.8395 0.6668
vt 0.9104 0.6668
vt 0.9594 0.5857
vt 0.9999 0.4988
vt 0.875 0.659
vt 0.7905 0.5857
vt 0.9596 0.4988
vt 0.9999 0.4093
vt 0.9125 0.58
vt 0.8374 0.58
vt 0.7904 0.4988
vt 0.9127 0.4988
vt 0.875 0.577
vt 0.9594 0.412
vt 0.8373 0.4988
vt 0.7905 0.412
vt 0.875 0.4988
vt 0.9125 0.4177
vt 0.9574 0.3176
vt 0.9999 0.3125
vt 0.875 0.4207
vt 0.9104 0.3309
vt 0.9514 0.2521
vt 0.9999 0.2453
vt 0.9999 0.1789
vt 0.8374 0.4177
vt 0.875 0.3387
vt 0.9022 0.2726
vt 0.9327 0.1905
vt 0.9999 0.0683
vt 0.8395 0.3309
vt 0.875 0.2918
vt 0.8798 0.1132
vt 0.8755 0.0017
vt 0.875 0.2333
vt 0.8173 0.1896
vt 0.8478 0.2726
vt 0.7926 0.3176
vt 0.7986 0.2521
vt 0.7501 0.2453
vn 0.25687864 0.25687864 0.93167955
vn 0.26978675 1.5688012E-07 0.9629202
vn -0 1.6291634E-07 1
vn -0 0.26978675 0.9629202
vn 0.4860991 0.23706809 0.8411341
vn 0.50188506 1.4092E-07 0.8649343
vn 0.6890409 0.22460009 0.6890409
vn 0.70733756 1.15167275E-07 0.7068759
vn 0.8651486 0 0.50151557
vn 0.84135264 0.23690535 0.48580006
vn 0.9636896 0 0.26702476
vn 0.64485914 0.40955436 0.6453076
vn 0.44713372 0.44713372 0.77468884
vn 0.9317575 0.25679323 0.25668108
vn 0.9999865 0.0020001286 -0.004800311
vn 0.77484876 0.44677094 0.44721937
vn 0.23706187 0.4860998 0.8411353
vn 0.5772008 0.5772008 0.5776492
vn 0.40956536 0.6448557 0.64530414
vn 0.96384734 0.266371 -0.006697689
vn 0.84135264 0.48580006 0.23690535
vn 0.6450799 0.6450799 0.40956533
vn 0.44677094 0.77484876 0.44721937
vn 0.9297632 0.25708562 -0.26352873
vn 0.96214956 0 -0.27252197
vn 0.8410418 0.23694655 -0.48631778
vn 0.8647389 0 -0.5022217
vn 0.6890249 0.22469808 -0.6890249
vn 0.70710677 -1.1520295E-07 -0.70710677
vn 0.5022217 -1.4088364E-07 -0.8647389
vn 0.48631778 0.23694655 -0.8410418
vn 0.27252197 -1.5675026E-07 -0.96214956
vn 0.6449624 0.40993538 -0.6449624
vn 0.7747767 0.44705763 -0.44705763
vn 0.8392601 0.48564446 -0.24452369
vn 0.25716835 0.25716835 -0.93151975
vn -0 -1.6291634E-07 -1
vn -0 0.27252197 -0.96214956
vn 0.44705763 0.44705763 -0.7747767
vn 0.57735026 0.57735026 -0.57735026
vn 0.23694655 0.48631778 -0.8410418
vn 0.86512774 0.50149244 -0.007699904
vn 0.6449624 0.6449624 -0.40993538
vn 0.40993538 0.6449624 -0.6449624
vn 0.6890419 0.6890419 0.22459382
vn 0.6876846 0.6876846 -0.23276524
vn 0.4470603 0.7747813 -0.44704705
vn 0.48580006 0.84135264 0.23690535
vn 0.7070836 0.7070836 -0.008099162
vn 0.50149244 0.86512774 -0.0077000074
vn 0.48564446 0.8392601 -0.24452369
vn 0.266371 0.96384734 -0.006697792
vn 0.25679323 0.9317575 0.25668108
vn -0 0.99998987 -0.004500365
vn 0.25708562 0.9297632 -0.26352873
vn 0.23694655 0.8410418 -0.48631778
vn 0.2368005 0.8413813 0.4858014
vn -0 0.96214956 -0.27252197
vn 0.22469808 0.6890249 -0.6890249
vn -0 0.9636896 0.26702476
vn 0.22460009 0.6890409 0.6890409
vn -0 0.8647389 -0.5022217
vn -0 0.5022217 -0.8647389
vn -0 0.8651486 0.50151557
vn -0 0.50188506 0.8649343
vn -0 0.70710677 -0.70710677
vn -0.22469808 0.6890249 -0.6890249
vn -0.23694655 0.8410418 -0.48631778
vn -0.23694655 0.48631778 -0.8410418
vn -0 0.70733756 0.7068759
vn -0.22460009 0.6890409 0.6890409
vn -0.23706809 0.4860991 0.8411341
vn -0.2368005 0.8413813 0.4858014
vn -0.25708562 0.9297632 -0.26352873
vn -0.40993538 0.6449624 -0.6449624
vn -0.25679323 0.9317575 0.25668108
vn -0.40956536 0.6448557 0.64530414
vn -0.25687864 0.25687864 0.93167955
vn -0 1.6291634E-07 1
vn -0.26978675 1.5688012E-07 0.9629202
vn -0.44713372 0.44713372 0.77468884
vn -0.44677094 0.77484876 0.44721937
vn -0.266371 0.96384734 -0.006697792
vn -0.4860991 0.23706809 0.8411341
vn -0.5772008 0.5772008 0.5776492
vn -0.48580006 0.84135264 0.23690535
vn -0.64485914 0.40955436 0.6453076
vn -0.6450799 0.6450799 0.40956533
vn -0.77484876 0.44677094 0.44721937
vn -0.48564446 0.8392601 -0.24452369
vn -0.50149244 0.86512774 -0.0077000074
vn -0.6890419 0.6890419 0.22459382
vn -0.84135264 0.48580006 0.23690535
vn -0.44705763 0.7747767 -0.44705763
vn -0.8413813 0.2368005 0.4858014
vn -0.9317575 0.25679323 0.25668108
vn -0.6890409 0.22460009 0.6890409
vn -0.50188506 1.4092E-07 0.8649343
vn -0.86512774 0.50149244 -0.007699904
vn -0.96384734 0.266371 -0.006697689
vn -0.7070836 0.7070836 -0.008099162
vn -0.6876846 0.6876846 -0.23276524
vn -0.8392601 0.48564446 -0.24452369
vn -0.6449624 0.6449624 -0.40993538
vn -0.57735026 0.57735026 -0.57735026
vn -0.7747767 0.44705763 -0.44705763
vn -0.9297632 0.25708562 -0.26352873
vn -0.9999865 0.0020001286 -0.004800311
vn -0.44705763 0.44705763 -0.7747767
vn -0.6449624 0.40993538 -0.6449624
vn -0.8410418 0.23694655 -0.48631778
vn -0.25716835 0.25716835 -0.93151975
vn -0 -1.6291634E-07 -1
vn -0.27252197 -1.5675026E-07 -0.96214956
vn -0.48631778 0.23694655 -0.8410418
vn -0.6890249 0.22469808 -0.6890249
vn -0.96214956 0 -0.27252197
vn -0.5022217 -1.4088364E-07 -0.8647389
vn -0.8647389 0 -0.5022217
vn -0.70710677 -1.1520295E-07 -0.70710677
vn -0.6890249 -0.22469808 -0.6890249
vn -0.48631778 -0.23694655 -0.8410418
vn -0.8410418 -0.23694655 -0.48631778
vn -0.92952025 -0.25848877 -0.26301277
vn -0.6449624 -0.40993538 -0.6449624
vn -0.25716835 -0.25716835 -0.93151975
vn -0 -1.6291634E-07 -1
vn -0 -0.27252197 -0.96214956
vn -0.4470603 -0.44704705 -0.7747813
vn -0.7747767 -0.44705763 -0.44705763
vn -0.23694655 -0.48631778 -0.8410418
vn -0.57735026 -0.57735026 -0.57735026
vn -0.40993538 -0.6449624 -0.6449624
vn -0.6449624 -0.6449624 -0.40993538
vn -0.83870935 -0.48717633 -0.24336393
vn -0.44705763 -0.7747767 -0.44705763
vn -0.22469808 -0.6890249 -0.6890249
vn -0 -0.5022217 -0.8647389
vn -0.23694655 -0.8410418 -0.48631778
vn -0.869178 -0.49445546 -0.006598913
vn -0.6879185 -0.6879185 -0.23137912
vn -0.48717633 -0.83870935 -0.24336393
vn -0.25848877 -0.92952025 -0.26301277
vn -0.7070894 -0.7070894 -0.006998485
vn -0.9658652 -0.25898898 -0.005399189
vn -0.9636625 0 0.26712278
vn -0.9312088 -0.25812614 0.25733474
vn -0.8651486 0 0.50151557
vn -0.49445546 -0.869178 -0.0065988507
vn -0.84066993 -0.4870153 0.23683369
vn -0.84135264 -0.23690535 0.48580006
vn -0.70733756 1.15167275E-07 0.7068759
vn -0.6890409 -0.22460009 0.6890409
vn -0.77484876 -0.44677094 0.44721937
vn -0.6890925 -0.6890925 0.22428317
vn -0.4860991 -0.23706809 0.8411341
vn -0.6448557 -0.40956536 0.64530414
vn -0.6450799 -0.6450799 0.40956533
vn -0.25687864 -0.25687864 0.93167955
vn -0 1.6291634E-07 1
vn -0 -0.26978675 0.9629202
vn -0.44713372 -0.44713372 0.77468884
vn -0.5772008 -0.5772008 0.5776492
vn -0.48701537 -0.84066993 0.23683369
vn -0.23706809 -0.4860991 0.8411341
vn -0.40956536 -0.6448557 0.64530414
vn -0.44677094 -0.77484876 0.44721937
vn -0.25812614 -0.9312088 0.25733474
vn -0.23690535 -0.84135264 0.48580006
vn -0.22460009 -0.6890409 0.6890409
vn -0 -0.50188506 0.8649343
vn -0.25898898 -0.9658652 -0.005399074
vn -0 -0.96214956 -0.27252197
vn -0 -0.9999865 -0.0052001737
vn -0 -0.9636896 0.26702476
vn -0 -0.8651486 0.50151557
vn -0 -0.70733756 0.7068759
vn 0.22460009 -0.6890409 0.6890409
vn 0.23706809 -0.4860991 0.8411341
vn 0.23690535 -0.84135264 0.48580006
vn -0 -0.8647389 -0.5022217
vn 0.25687864 -0.25687864 0.93167955
vn -0 1.6291634E-07 1
vn 0.26978675 1.5688012E-07 0.9629202
vn 0.40956536 -0.6448557 0.64530414
vn 0.44713372 -0.44713372 0.77468884
vn 0.4860991 -0.23706809 0.8411341
vn 0.50188506 1.4092E-07 0.8649343
vn 0.6890409 -0.22460009 0.6890409
vn 0.70733756 1.15167275E-07 0.7068759
vn 0.8651486 0 0.50151557
vn 0.6448557 -0.40956536 0.64530414
vn 0.84135264 -0.23690535 0.48580006
vn 0.9636896 0 0.26702476
vn 0.5772008 -0.5772008 0.5776492
vn 0.44677094 -0.77484876 0.44721937
vn 0.77484876 -0.44677094 0.44721937
vn 0.9312088 -0.25812614 0.25733474
vn 0.9999865 0.0020001286 -0.004800311
vn 0.6450799 -0.6450799 0.40956533
vn 0.25812614 -0.9312088 0.25733474
vn 0.9658652 -0.25898898 -0.005399189
vn 0.96214956 0 -0.27252197
vn 0.84066993 -0.4870153 0.23683369
vn 0.48701537 -0.84066993 0.23683369
vn 0.25898898 -0.9658652 -0.005399074
vn 0.869178 -0.49445546 -0.006598913
vn 0.6890925 -0.6890925 0.22428317
vn 0.92952025 -0.25848877 -0.26301277
vn 0.49445546 -0.869178 -0.0065988507
vn 0.25848877 -0.92952025 -0.26301277
vn 0.7070894 -0.7070894 -0.006998485
vn 0.83870935 -0.48717633 -0.24336393
vn 0.8410418 -0.23694655 -0.48631778
vn 0.8647389 0 -0.5022217
vn 0.6879185 -0.6879185 -0.23137912
vn 0.7747767 -0.44705763 -0.44705763
vn 0.6890249 -0.22469808 -0.6890249
vn 0.70710677 -1.1520295E-07 -0.70710677
vn 0.5022217 -1.4088364E-07 -0.8647389
vn 0.48717633 -0.83870935 -0.24336393
vn 0.6449624 -0.6449624 -0.40993538
vn 0.6449624 -0.40993538 -0.6449624
vn 0.48631778 -0.23694655 -0.8410418
vn 0.27252197 -1.5675026E-07 -0.96214956
vn 0.44705763 -0.7747767 -0.44705763
vn 0.57735026 -0.57735026 -0.57735026
vn 0.25716835 -0.25716835 -0.93151975
vn -0 -1.6291634E-07 -1
vn 0.4470603 -0.44704705 -0.7747813
vn 0.23694655 -0.48631778 -0.8410418
vn 0.40993538 -0.6449624 -0.6449624
vn 0.23694031 -0.8410431 -0.48631853
vn 0.22469808 -0.6890249 -0.6890249
vn -0 -0.70710677 -0.70710677
g S_wpn_funnel_0010_02_lod0_0
f 3/3/3 2/2/2 1/1/1
f 4/4/4 3/3/3 1/1/1
f 1/1/1 2/2/2 5/5/5
f 2/2/2 6/6/6 5/5/5
f 5/5/5 6/6/6 7/7/7
f 6/6/6 8/8/8 7/7/7
f 8/8/8 9/9/9 7/7/7
f 9/9/9 10/10/10 7/7/7
f 10/10/10 9/9/9 11/11/11
f 5/5/5 7/7/7 12/12/12
f 7/7/7 10/10/10 12/12/12
f 5/5/5 13/13/13 1/1/1
f 13/13/13 5/5/5 12/12/12
f 14/14/14 10/10/10 11/11/11
f 11/11/11 15/15/15 14/14/14
f 10/10/10 16/16/16 12/12/12
f 16/16/16 10/10/10 14/14/14
f 4/4/4 1/1/1 17/17/17
f 13/13/13 17/17/17 1/1/1
f 13/13/13 12/12/12 18/18/18
f 12/12/12 16/16/16 18/18/18
f 17/17/17 13/13/13 19/19/19
f 19/19/19 13/13/13 18/18/18
f 15/15/15 20/20/20 14/14/14
f 21/21/21 16/16/16 14/14/14
f 14/14/14 20/20/20 21/21/21
f 16/16/16 22/22/22 18/18/18
f 22/22/22 16/16/16 21/21/21
f 23/23/23 19/19/19 18/18/18
f 22/22/22 23/23/23 18/18/18
f 20/20/20 15/15/15 24/24/24
f 15/15/15 25/25/25 24/24/24
f 24/24/24 25/25/25 26/26/26
f 25/25/25 27/27/27 26/26/26
f 26/26/26 27/27/27 28/28/28
f 27/27/27 29/29/29 28/28/28
f 29/29/29 30/30/30 28/28/28
f 30/30/30 31/31/31 28/28/28
f 30/30/30 32/32/32 31/31/31
f 26/26/26 28/28/28 33/33/33
f 28/28/28 31/31/31 33/33/33
f 26/26/26 34/34/34 24/24/24
f 34/34/34 26/26/26 33/33/33
f 20/20/20 24/24/24 35/35/35
f 34/34/34 35/35/35 24/24/24
f 32/32/32 36/36/36 31/31/31
f 32/32/32 37/37/37 36/36/36
f 37/37/37 38/38/38 36/36/36
f 31/31/31 39/39/39 33/33/33
f 31/31/31 36/36/36 39/39/39
f 34/34/34 33/33/33 40/40/40
f 33/33/33 39/39/39 40/40/40
f 36/36/36 41/41/41 39/39/39
f 36/36/36 38/38/38 41/41/41
f 42/42/42 20/20/20 35/35/35
f 20/20/20 42/42/42 21/21/21
f 35/35/35 34/34/34 43/43/43
f 43/43/43 34/34/34 40/40/40
f 39/39/39 44/44/44 40/40/40
f 39/39/39 41/41/41 44/44/44
f 21/21/21 42/42/42 45/45/45
f 45/45/45 22/22/22 21/21/21
f 42/42/42 35/35/35 46/46/46
f 46/46/46 35/35/35 43/43/43
f 47/47/47 43/43/43 40/40/40
f 44/44/44 47/47/47 40/40/40
f 45/45/45 48/48/48 22/22/22
f 48/48/48 23/23/23 22/22/22
f 42/42/42 49/49/49 45/45/45
f 49/49/49 42/42/42 46/46/46
f 49/49/49 50/50/50 45/45/45
f 50/50/50 49/49/49 46/46/46
f 50/50/50 48/48/48 45/45/45
f 46/46/46 43/43/43 51/51/51
f 51/51/51 50/50/50 46/46/46
f 43/43/43 47/47/47 51/51/51
f 50/50/50 52/52/52 48/48/48
f 52/52/52 50/50/50 51/51/51
f 48/48/48 53/53/53 23/23/23
f 52/52/52 53/53/53 48/48/48
f 52/52/52 54/54/54 53/53/53
f 55/55/55 52/52/52 51/51/51
f 51/51/51 47/47/47 55/55/55
f 54/54/54 52/52/52 55/55/55
f 56/56/56 47/47/47 44/44/44
f 47/47/47 56/56/56 55/55/55
f 53/53/53 57/57/57 23/23/23
f 23/23/23 57/57/57 19/19/19
f 58/58/58 54/54/54 55/55/55
f 55/55/55 56/56/56 58/58/58
f 59/59/59 56/56/56 44/44/44
f 41/41/41 59/59/59 44/44/44
f 54/54/54 60/60/60 53/53/53
f 53/53/53 60/60/60 57/57/57
f 57/57/57 61/61/61 19/19/19
f 61/61/61 17/17/17 19/19/19
f 56/56/56 62/62/62 58/58/58
f 62/62/62 56/56/56 59/59/59
f 41/41/41 63/63/63 59/59/59
f 38/38/38 63/63/63 41/41/41
f 60/60/60 64/64/64 57/57/57
f 57/57/57 64/64/64 61/61/61
f 65/65/65 17/17/17 61/61/61
f 65/65/65 4/4/4 17/17/17
f 66/66/66 62/62/62 59/59/59
f 63/63/63 66/66/66 59/59/59
f 62/62/62 66/66/66 67/67/67
f 66/66/66 63/63/63 67/67/67
f 58/58/58 62/62/62 68/68/68
f 68/68/68 62/62/62 67/67/67
f 69/69/69 63/63/63 38/38/38
f 63/63/63 69/69/69 67/67/67
f 64/64/64 70/70/70 61/61/61
f 70/70/70 65/65/65 61/61/61
f 70/70/70 64/64/64 71/71/71
f 65/65/65 70/70/70 71/71/71
f 4/4/4 65/65/65 72/72/72
f 72/72/72 65/65/65 71/71/71
f 64/64/64 73/73/73 71/71/71
f 73/73/73 64/64/64 60/60/60
f 74/74/74 58/58/58 68/68/68
f 54/54/54 58/58/58 74/74/74
f 68/68/68 67/67/67 75/75/75
f 67/67/67 69/69/69 75/75/75
f 60/60/60 54/54/54 76/76/76
f 76/76/76 73/73/73 60/60/60
f 71/71/71 73/73/73 77/77/77
f 71/71/71 77/77/77 72/72/72
f 78/78/78 4/4/4 72/72/72
f 79/79/79 4/4/4 78/78/78
f 80/80/80 79/79/79 78/78/78
f 72/72/72 81/81/81 78/78/78
f 77/77/77 81/81/81 72/72/72
f 73/73/73 82/82/82 77/77/77
f 82/82/82 73/73/73 76/76/76
f 54/54/54 83/83/83 76/76/76
f 83/83/83 54/54/54 74/74/74
f 78/78/78 84/84/84 80/80/80
f 81/81/81 84/84/84 78/78/78
f 81/81/81 77/77/77 85/85/85
f 77/77/77 82/82/82 85/85/85
f 86/86/86 82/82/82 76/76/76
f 76/76/76 83/83/83 86/86/86
f 84/84/84 81/81/81 87/87/87
f 87/87/87 81/81/81 85/85/85
f 82/82/82 88/88/88 85/85/85
f 88/88/88 82/82/82 86/86/86
f 89/89/89 87/87/87 85/85/85
f 88/88/88 89/89/89 85/85/85
f 83/83/83 74/74/74 90/90/90
f 83/83/83 91/91/91 86/86/86
f 91/91/91 83/83/83 90/90/90
f 92/92/92 88/88/88 86/86/86
f 86/86/86 91/91/91 92/92/92
f 93/93/93 89/89/89 88/88/88
f 92/92/92 93/93/93 88/88/88
f 90/90/90 74/74/74 94/94/94
f 74/74/74 68/68/68 94/94/94
f 94/94/94 68/68/68 75/75/75
f 89/89/89 95/95/95 87/87/87
f 89/89/89 93/93/93 96/96/96
f 95/95/95 89/89/89 96/96/96
f 95/95/95 97/97/97 87/87/87
f 97/97/97 84/84/84 87/87/87
f 98/98/98 84/84/84 97/97/97
f 84/84/84 98/98/98 80/80/80
f 99/99/99 93/93/93 92/92/92
f 100/100/100 96/96/96 93/93/93
f 99/99/99 100/100/100 93/93/93
f 101/101/101 99/99/99 92/92/92
f 91/91/91 101/101/101 92/92/92
f 101/101/101 91/91/91 102/102/102
f 99/99/99 101/101/101 102/102/102
f 91/91/91 90/90/90 102/102/102
f 103/103/103 99/99/99 102/102/102
f 100/100/100 99/99/99 103/103/103
f 102/102/102 90/90/90 104/104/104
f 102/102/102 104/104/104 103/103/103
f 90/90/90 94/94/94 104/104/104
f 104/104/104 94/94/94 105/105/105
f 94/94/94 75/75/75 105/105/105
f 104/104/104 106/106/106 103/103/103
f 106/106/106 104/104/104 105/105/105
f 107/107/107 100/100/100 103/103/103
f 103/103/103 106/106/106 107/107/107
f 100/100/100 108/108/108 96/96/96
f 108/108/108 100/100/100 107/107/107
f 75/75/75 109/109/109 105/105/105
f 69/69/69 109/109/109 75/75/75
f 110/110/110 106/106/106 105/105/105
f 109/109/109 110/110/110 105/105/105
f 106/106/106 111/111/111 107/107/107
f 111/111/111 106/106/106 110/110/110
f 109/109/109 69/69/69 112/112/112
f 112/112/112 69/69/69 38/38/38
f 38/38/38 113/113/113 112/112/112
f 113/113/113 114/114/114 112/112/112
f 115/115/115 109/109/109 112/112/112
f 110/110/110 109/109/109 115/115/115
f 112/112/112 114/114/114 115/115/115
f 116/116/116 110/110/110 115/115/115
f 116/116/116 111/111/111 110/110/110
f 107/107/107 111/111/111 117/117/117
f 117/117/117 108/108/108 107/107/107
f 114/114/114 118/118/118 115/115/115
f 115/115/115 118/118/118 116/116/116
f 119/119/119 111/111/111 116/116/116
f 111/111/111 119/119/119 117/117/117
f 118/118/118 120/120/120 116/116/116
f 120/120/120 119/119/119 116/116/116
f 120/120/120 118/118/118 121/121/121
f 119/119/119 120/120/120 121/121/121
f 118/118/118 114/114/114 122/122/122
f 118/118/118 122/122/122 121/121/121
f 117/117/117 119/119/119 123/123/123
f 123/123/123 119/119/119 121/121/121
f 108/108/108 117/117/117 124/124/124
f 124/124/124 117/117/117 123/123/123
f 123/123/123 121/121/121 125/125/125
f 121/121/121 122/122/122 125/125/125
f 114/114/114 126/126/126 122/122/122
f 114/114/114 127/127/127 126/126/126
f 127/127/127 128/128/128 126/126/126
f 122/122/122 126/126/126 129/129/129
f 122/122/122 129/129/129 125/125/125
f 130/130/130 123/123/123 125/125/125
f 123/123/123 130/130/130 124/124/124
f 126/126/126 128/128/128 131/131/131
f 126/126/126 131/131/131 129/129/129
f 125/125/125 129/129/129 132/132/132
f 130/130/130 125/125/125 132/132/132
f 129/129/129 131/131/131 133/133/133
f 129/129/129 133/133/133 132/132/132
f 134/134/134 130/130/130 132/132/132
f 130/130/130 135/135/135 124/124/124
f 135/135/135 130/130/130 134/134/134
f 133/133/133 136/136/136 132/132/132
f 136/136/136 134/134/134 132/132/132
f 131/131/131 137/137/137 133/133/133
f 128/128/128 138/138/138 131/131/131
f 131/131/131 138/138/138 137/137/137
f 139/139/139 136/136/136 133/133/133
f 137/137/137 139/139/139 133/133/133
f 124/124/124 135/135/135 140/140/140
f 141/141/141 135/135/135 134/134/134
f 140/140/140 135/135/135 141/141/141
f 134/134/134 136/136/136 142/142/142
f 141/141/141 134/134/134 142/142/142
f 136/136/136 139/139/139 143/143/143
f 142/142/142 136/136/136 143/143/143
f 144/144/144 141/141/141 142/142/142
f 144/144/144 140/140/140 141/141/141
f 145/145/145 124/124/124 140/140/140
f 145/145/145 108/108/108 124/124/124
f 108/108/108 145/145/145 146/146/146
f 108/108/108 146/146/146 96/96/96
f 96/96/96 146/146/146 95/95/95
f 145/145/145 140/140/140 147/147/147
f 145/145/145 147/147/147 146/146/146
f 146/146/146 148/148/148 95/95/95
f 95/95/95 148/148/148 97/97/97
f 149/149/149 142/142/142 143/143/143
f 149/149/149 144/144/144 142/142/142
f 140/140/140 144/144/144 150/150/150
f 140/140/140 150/150/150 147/147/147
f 147/147/147 151/151/151 146/146/146
f 151/151/151 148/148/148 146/146/146
f 148/148/148 152/152/152 97/97/97
f 152/152/152 98/98/98 97/97/97
f 152/152/152 148/148/148 153/153/153
f 98/98/98 152/152/152 153/153/153
f 148/148/148 151/151/151 153/153/153
f 154/154/154 151/151/151 147/147/147
f 150/150/150 154/154/154 147/147/147
f 144/144/144 155/155/155 150/150/150
f 144/144/144 149/149/149 155/155/155
f 156/156/156 98/98/98 153/153/153
f 80/80/80 98/98/98 156/156/156
f 153/153/153 151/151/151 157/157/157
f 151/151/151 154/154/154 157/157/157
f 156/156/156 153/153/153 157/157/157
f 158/158/158 154/154/154 150/150/150
f 155/155/155 158/158/158 150/150/150
f 159/159/159 80/80/80 156/156/156
f 160/160/160 80/80/80 159/159/159
f 161/161/161 160/160/160 159/159/159
f 162/162/162 156/156/156 157/157/157
f 156/156/156 162/162/162 159/159/159
f 157/157/157 154/154/154 163/163/163
f 154/154/154 158/158/158 163/163/163
f 162/162/162 157/157/157 163/163/163
f 155/155/155 164/164/164 158/158/158
f 149/149/149 164/164/164 155/155/155
f 162/162/162 165/165/165 159/159/159
f 161/161/161 159/159/159 165/165/165
f 166/166/166 162/162/162 163/163/163
f 165/165/165 162/162/162 166/166/166
f 158/158/158 167/167/167 163/163/163
f 164/164/164 167/167/167 158/158/158
f 167/167/167 166/166/166 163/163/163
f 168/168/168 164/164/164 149/149/149
f 164/164/164 168/168/168 167/167/167
f 167/167/167 169/169/169 166/166/166
f 168/168/168 169/169/169 167/167/167
f 170/170/170 165/165/165 166/166/166
f 169/169/169 170/170/170 166/166/166
f 171/171/171 161/161/161 165/165/165
f 171/171/171 165/165/165 170/170/170
f 172/172/172 168/168/168 149/149/149
f 172/172/172 149/149/149 143/143/143
f 172/172/172 143/143/143 173/173/173
f 143/143/143 139/139/139 173/173/173
f 172/172/172 174/174/174 168/168/168
f 174/174/174 172/172/172 173/173/173
f 168/168/168 175/175/175 169/169/169
f 174/174/174 175/175/175 168/168/168
f 169/169/169 176/176/176 170/170/170
f 175/175/175 176/176/176 169/169/169
f 177/177/177 171/171/171 170/170/170
f 176/176/176 177/177/177 170/170/170
f 171/171/171 177/177/177 178/178/178
f 177/177/177 176/176/176 178/178/178
f 161/161/161 171/171/171 179/179/179
f 179/179/179 171/171/171 178/178/178
f 176/176/176 180/180/180 178/178/178
f 180/180/180 176/176/176 175/175/175
f 139/139/139 181/181/181 173/173/173
f 181/181/181 139/139/139 137/137/137
f 182/182/182 161/161/161 179/179/179
f 183/183/183 161/161/161 182/182/182
f 184/184/184 183/183/183 182/182/182
f 178/178/178 185/185/185 179/179/179
f 178/178/178 180/180/180 185/185/185
f 179/179/179 186/186/186 182/182/182
f 185/185/185 186/186/186 179/179/179
f 182/182/182 187/187/187 184/184/184
f 186/186/186 187/187/187 182/182/182
f 187/187/187 188/188/188 184/184/184
f 188/188/188 187/187/187 189/189/189
f 190/190/190 188/188/188 189/189/189
f 191/191/191 190/190/190 189/189/189
f 187/187/187 186/186/186 192/192/192
f 189/189/189 187/187/187 192/192/192
f 193/193/193 191/191/191 189/189/189
f 193/193/193 189/189/189 192/192/192
f 194/194/194 191/191/191 193/193/193
f 186/186/186 185/185/185 195/195/195
f 192/192/192 186/186/186 195/195/195
f 180/180/180 196/196/196 185/185/185
f 185/185/185 196/196/196 195/195/195
f 197/197/197 193/193/193 192/192/192
f 197/197/197 192/192/192 195/195/195
f 198/198/198 194/194/194 193/193/193
f 193/193/193 197/197/197 198/198/198
f 199/199/199 194/194/194 198/198/198
f 200/200/200 197/197/197 195/195/195
f 196/196/196 200/200/200 195/195/195
f 196/196/196 180/180/180 201/201/201
f 201/201/201 180/180/180 175/175/175
f 202/202/202 199/199/199 198/198/198
f 199/199/199 202/202/202 203/203/203
f 197/197/197 204/204/204 198/198/198
f 204/204/204 197/197/197 200/200/200
f 200/200/200 196/196/196 205/205/205
f 205/205/205 196/196/196 201/201/201
f 206/206/206 201/201/201 175/175/175
f 174/174/174 206/206/206 175/175/175
f 202/202/202 198/198/198 207/207/207
f 198/198/198 204/204/204 207/207/207
f 208/208/208 204/204/204 200/200/200
f 208/208/208 200/200/200 205/205/205
f 207/207/207 204/204/204 208/208/208
f 202/202/202 209/209/209 203/203/203
f 202/202/202 207/207/207 209/209/209
f 210/210/210 205/205/205 201/201/201
f 206/206/206 210/210/210 201/201/201
f 206/206/206 174/174/174 211/211/211
f 206/206/206 211/211/211 210/210/210
f 174/174/174 173/173/173 211/211/211
f 212/212/212 208/208/208 205/205/205
f 212/212/212 207/207/207 208/208/208
f 210/210/210 212/212/212 205/205/205
f 207/207/207 212/212/212 213/213/213
f 207/207/207 213/213/213 209/209/209
f 209/209/209 214/214/214 203/203/203
f 214/214/214 215/215/215 203/203/203
f 212/212/212 210/210/210 216/216/216
f 212/212/212 216/216/216 213/213/213
f 213/213/213 217/217/217 209/209/209
f 217/217/217 214/214/214 209/209/209
f 215/215/215 214/214/214 218/218/218
f 219/219/219 215/215/215 218/218/218
f 220/220/220 219/219/219 218/218/218
f 210/210/210 221/221/221 216/216/216
f 211/211/211 221/221/221 210/210/210
f 216/216/216 222/222/222 213/213/213
f 216/216/216 221/221/221 222/222/222
f 222/222/222 217/217/217 213/213/213
f 214/214/214 217/217/217 223/223/223
f 218/218/218 214/214/214 223/223/223
f 224/224/224 220/220/220 218/218/218
f 218/218/218 223/223/223 224/224/224
f 225/225/225 220/220/220 224/224/224
f 221/221/221 211/211/211 226/226/226
f 221/221/221 226/226/226 222/222/222
f 217/217/217 222/222/222 227/227/227
f 223/223/223 217/217/217 227/227/227
f 222/222/222 226/226/226 227/227/227
f 228/228/228 225/225/225 224/224/224
f 229/229/229 225/225/225 228/228/228
f 128/128/128 229/229/229 228/228/228
f 223/223/223 230/230/230 224/224/224
f 230/230/230 223/223/223 227/227/227
f 224/224/224 230/230/230 228/228/228
f 228/228/228 231/231/231 128/128/128
f 230/230/230 231/231/231 228/228/228
f 231/231/231 138/138/138 128/128/128
f 232/232/232 230/230/230 227/227/227
f 226/226/226 232/232/232 227/227/227
f 231/231/231 230/230/230 232/232/232
f 211/211/211 233/233/233 226/226/226
f 226/226/226 233/233/233 232/232/232
f 211/211/211 173/173/173 233/233/233
f 173/173/173 181/181/181 233/233/233
f 234/234/234 231/231/231 232/232/232
f 233/233/233 234/234/234 232/232/232
f 138/138/138 231/231/231 234/234/234
f 233/233/233 181/181/181 234/234/234
f 235/235/235 138/138/138 234/234/234
f 181/181/181 235/235/235 234/234/234
f 138/138/138 235/235/235 137/137/137
f 235/235/235 181/181/181 137/137/137
