g S_wpn_misc_0036_03_lod0
v -7.6293944E-08 -0.074995674 -0.8368749
v -7.6293944E-08 -0.07499887 -0.94
v -7.6293944E-08 0.075010285 -0.94
v -7.6293944E-08 0.07500586 -0.83687496
v -7.6293944E-08 -0.074996285 -0.73375
v -7.6293944E-08 0.07500524 -0.73375
v -7.6293944E-08 -0.07499499 -0.630625
v -7.6293944E-08 0.07500463 -0.630625
v -7.6293944E-08 -0.074997514 -0.5275
v -7.6293944E-08 0.07500401 -0.52750003
v -7.6293944E-08 -0.074998125 -0.42437494
v -7.6293944E-08 0.0750034 -0.424375
v -7.6293944E-08 -0.07499778 -0.32124996
v -7.6293944E-08 0.07500278 -0.32125002
v -7.6293944E-08 -0.0749984 -0.21812502
v -7.6293944E-08 0.07500217 -0.218125
v -7.6293944E-08 -0.07499902 -0.114999995
v -7.6293944E-08 0.075001076 -0.114999995
v -7.6293944E-08 -0.07499981 -0.011875
v -7.6293944E-08 0.07500016 -0.011874999
v -7.6293944E-08 -0.07500025 0.091249995
v -7.6293944E-08 0.07499937 0.091249995
v -7.6293944E-08 -0.07500087 0.194375
v -7.6293944E-08 0.07499875 0.194375
v -7.6293944E-08 -0.07500148 0.29749998
v -7.6293944E-08 0.07499814 0.2975
v -7.6293944E-08 -0.07500305 0.40062502
v -7.6293944E-08 0.07499848 0.40062496
v -7.6293944E-08 -0.07500366 0.50374997
v -7.6293944E-08 0.074997865 0.50374997
v -7.6293944E-08 -0.07500618 0.606875
v -7.6293944E-08 0.07499725 0.60687494
v -7.6293944E-08 -0.07500489 0.71
v -7.6293944E-08 0.074996635 0.71
v -7.6293944E-08 -0.07500551 0.81312495
v -7.6293944E-08 0.07499602 0.81312495
v -7.6293944E-08 -0.07500611 0.91625
v -7.6293944E-08 0.074995406 0.91625
v -7.6293944E-08 -0.07501055 1.019375
v -7.6293944E-08 0.07499479 1.0193751
v -7.6293944E-08 -0.07500735 1.1225
v -7.6293944E-08 0.07499418 1.1225
v -7.6293944E-08 -0.07501178 1.2256249
v -7.6293944E-08 0.07499356 1.2256249
v -7.6293944E-08 -0.075004764 1.32875
v -7.6293944E-08 0.07499676 1.3287501
v -7.6293944E-08 -0.07500538 1.431875
v -7.6293944E-08 0.074988514 1.431875
v -7.6293944E-08 -0.07500599 1.5349998
v -7.6293944E-08 0.0749879 1.5350001
v -7.6293944E-08 -0.075006604 1.638125
v -7.6293944E-08 0.074994914 1.638125
v -7.6293944E-08 -0.07501485 1.7412498
v -7.6293944E-08 0.0749943 1.7412499
v -7.6293944E-08 -0.07500021 1.844375
v -7.6293944E-08 0.074986055 1.844375
v -7.6293944E-08 -0.075016074 1.9475
v -7.6293944E-08 0.074985445 1.9475001
v -7.6293944E-08 -0.0750167 2.0506248
v -7.6293944E-08 0.074984826 2.0506248
v -7.6293944E-08 -0.07500968 2.1537497
v -7.6293944E-08 0.074984215 2.15375
v -7.6293944E-08 -0.0750103 2.256875
v -7.6293944E-08 0.0749836 2.256875
v -7.6293944E-08 -0.07501091 2.36
v -7.6293944E-08 0.07497536 2.36
v -7.6293944E-08 -0.07501915 2.4631248
v -7.6293944E-08 0.07499 2.463125
v -7.6293944E-08 -0.0750274 2.5662496
v -7.6293944E-08 0.07498176 2.5662503
v -7.6293944E-08 -0.07502802 2.669375
v -7.6293944E-08 0.07498114 2.669375
v -7.6293944E-08 -0.07502863 2.7725
v -7.6293944E-08 0.07498053 2.7725003
v -7.6293944E-08 -0.07502924 2.875625
v -7.6293944E-08 0.07497991 2.875625
v -7.6293944E-08 -0.07502985 2.97875
v -7.6293944E-08 0.0749793 2.97875
v -7.6293944E-08 -0.07499996 3.0818753
v -7.6293944E-08 0.07499394 3.0818753
v -7.6293944E-08 -0.07501583 3.185
v -7.6293944E-08 0.07499333 3.185
v -7.6293944E-08 -0.07500119 3.288125
v -7.6293944E-08 0.07497745 3.288125
v -7.6293944E-08 -0.075032316 3.39125
v -7.6293944E-08 0.07496158 3.39125
v -7.6293944E-08 -0.075017676 3.494375
v -7.6293944E-08 0.07497622 3.494375
v -7.6293944E-08 -0.07501829 3.5975003
v -7.6293944E-08 0.07499087 3.5974998
v -7.6293944E-08 -0.0750189 3.7006247
v -7.6293944E-08 0.07497499 3.7006252
v -7.6293944E-08 -0.075019516 3.8037498
v -7.6293944E-08 0.07498964 3.8037498
v -7.6293944E-08 -0.07502013 3.906875
v -7.6293944E-08 0.07498902 3.906875
v -7.6293944E-08 -0.075036 4.0099998
v -7.6293944E-08 0.07495789 4.01
v -7.6293944E-08 -0.0750061 4.1131244
v -7.6293944E-08 0.0749878 4.1131244
v -7.6293944E-08 -0.07502197 4.21625
v -7.6293944E-08 0.07498718 4.2162495
v -7.6293944E-08 -0.07502259 4.319375
v -7.6293944E-08 0.0749713 4.319375
v -7.6293944E-08 -0.07503846 4.4225
v -7.6293944E-08 0.07497069 4.4225
v -7.6293944E-08 -0.07503908 4.5256248
v -7.6293944E-08 0.07498533 4.525625
v -7.6293944E-08 -0.07502443 4.6287494
v -7.6293944E-08 0.074954204 4.6287503
v -7.6293944E-08 -0.07502505 4.731875
v -7.6293944E-08 0.07498411 4.7318745
v -7.6293944E-08 -0.07504092 4.835
v -7.6293944E-08 0.074952975 4.835
v -7.6293944E-08 -0.075011015 4.9381247
v -7.6293944E-08 0.074967615 4.938125
v -7.6293944E-08 -0.07504215 5.0412498
v -7.6293944E-08 0.074951746 5.0412498
v -7.6293944E-08 -0.07504277 5.1443753
v -7.6293944E-08 0.07495113 5.144375
v -7.6293944E-08 -0.07504337 5.2475004
v -7.6293944E-08 0.074981034 5.2474995
v -7.6293944E-08 -0.075044 5.3506255
v -7.6293944E-08 0.07498042 5.350624
v -7.6293944E-08 -0.07504461 5.4537506
v -7.6293944E-08 0.074979804 5.453749
v -7.6293944E-08 -0.07504523 5.5568748
v -7.6293944E-08 0.074979186 5.5568748
v -7.6293944E-08 -0.07504584 5.6600003
v -7.6293944E-08 0.074978575 5.66
v 0.07499993 5.091323E-06 -0.8368751
v 0.07499993 1.891298E-06 -0.9399999
v -0.07500008 1.891298E-06 -0.9399999
v -0.07500008 5.091323E-06 -0.8368751
v 0.07499993 4.47665E-06 -0.73375
v -0.07500008 4.47665E-06 -0.73375
v 0.07499993 3.861977E-06 -0.630625
v -0.07500008 3.861977E-06 -0.630625
v 0.07499993 3.247304E-06 -0.5275
v -0.07500008 3.247304E-06 -0.5275
v 0.07499993 2.632631E-06 -0.424375
v -0.07500008 2.632631E-06 -0.424375
v 0.07499993 2.0179582E-06 -0.32125
v -0.07500008 2.0179582E-06 -0.32125
v 0.07499993 1.4032853E-06 -0.21812497
v -0.07500008 1.4032853E-06 -0.21812497
v 0.07499993 7.8861257E-07 -0.11500001
v -0.07500008 7.8861257E-07 -0.11500001
v 0.07499993 1.7393963E-07 -0.011875
v -0.07500008 1.7393963E-07 -0.011875
v 0.07499993 -4.4073326E-07 0.091249995
v -0.07500008 -4.4073326E-07 0.091249995
v 0.07499993 -2.0090808E-06 0.19437501
v -0.07500008 -2.0090808E-06 0.19437501
v 0.07499993 -1.6700791E-06 0.29749998
v -0.07500008 -1.6700791E-06 0.29749998
v 0.07499993 -2.2847519E-06 0.400625
v -0.07500008 -2.2847519E-06 0.400625
v 0.07499993 -2.899425E-06 0.50375
v -0.07500008 -2.899425E-06 0.50375
v 0.07499993 -3.5140977E-06 0.606875
v -0.07500008 -3.5140977E-06 0.606875
v 0.07499993 -4.128771E-06 0.71
v -0.07500008 -4.128771E-06 0.71
v 0.07499993 -4.7434432E-06 0.81312495
v -0.07500008 -4.7434432E-06 0.81312495
v 0.07499993 -5.358116E-06 0.91625
v -0.07500008 -5.358116E-06 0.91625
v 0.07499993 -9.787486E-06 1.019375
v -0.07500008 -9.787486E-06 1.019375
v 0.07499993 -6.587462E-06 1.1225
v -0.07500008 -6.587462E-06 1.1225
v 0.07499993 -1.1016832E-05 1.2256249
v -0.07500008 -1.1016832E-05 1.2256249
v 0.07499993 -7.816808E-06 1.32875
v -0.07500008 -7.816808E-06 1.32875
v 0.07499993 -8.431481E-06 1.431875
v -0.07500008 -8.431481E-06 1.431875
v 0.07499993 -9.0461535E-06 1.535
v -0.07500008 -9.0461535E-06 1.535
v 0.07499993 -9.660826E-06 1.638125
v -0.07500008 -9.660826E-06 1.638125
v 0.07499993 -1.0275499E-05 1.7412499
v -0.07500008 -1.0275499E-05 1.7412499
v 0.07499993 -1.0890172E-05 1.844375
v -0.07500008 -1.0890172E-05 1.844375
v 0.07499993 -1.1504845E-05 1.9475
v -0.07500008 -1.1504845E-05 1.9475
v 0.07499993 -1.2119517E-05 2.0506248
v -0.07500008 -1.2119517E-05 2.0506248
v 0.07499993 -1.2734191E-05 2.15375
v -0.07500008 -1.2734191E-05 2.15375
v 0.07499993 -1.3348864E-05 2.256875
v -0.07500008 -1.3348864E-05 2.256875
v 0.07499993 -1.3963537E-05 2.36
v -0.07500008 -1.3963537E-05 2.36
v 0.07499993 -1.457821E-05 2.463125
v -0.07500008 -1.457821E-05 2.463125
v 0.07499993 -1.51928825E-05 2.5662498
v -0.07500008 -1.51928825E-05 2.5662498
v 0.07499993 -1.5807555E-05 2.669375
v -0.07500008 -1.5807555E-05 2.669375
v 0.07499993 -1.6422226E-05 2.7724996
v -0.07500008 -1.6422226E-05 2.7724996
v 0.07499993 -1.70369E-05 2.875625
v -0.07500008 -1.70369E-05 2.875625
v 0.07499993 -1.7651573E-05 2.97875
v -0.07500008 -1.7651573E-05 2.97875
v 0.07499993 -1.8266246E-05 3.0818748
v -0.07500008 -1.8266246E-05 3.0818748
v 0.07499993 -1.8880923E-05 3.1850002
v -0.07500008 -1.8880923E-05 3.1850002
v 0.07499993 -1.9495592E-05 3.288125
v -0.07500008 -1.9495592E-05 3.288125
v 0.07499993 -2.0110263E-05 3.3912497
v -0.07500008 -2.0110263E-05 3.3912497
v 0.07499993 -2.072494E-05 3.4943752
v -0.07500008 -2.072494E-05 3.4943752
v 0.07499993 -2.133961E-05 3.5974998
v -0.07500008 -2.133961E-05 3.5974998
v 0.07499993 -2.1954284E-05 3.700625
v -0.07500008 -2.1954284E-05 3.700625
v 0.07499993 -2.2568958E-05 3.8037503
v -0.07500008 -2.2568958E-05 3.8037503
v 0.07499993 -2.318363E-05 3.906875
v -0.07500008 -2.318363E-05 3.906875
v 0.07499993 -2.3798302E-05 4.0099998
v -0.07500008 -2.3798302E-05 4.0099998
v 0.07499993 -2.4412977E-05 4.1131253
v -0.07500008 -2.4412977E-05 4.1131253
v 0.07499993 -2.5027648E-05 4.21625
v -0.07500008 -2.5027648E-05 4.21625
v 0.07499993 -2.564232E-05 4.319375
v -0.07500008 -2.564232E-05 4.319375
v 0.07499993 -1.0998204E-05 4.4224997
v -0.07500008 -1.0998204E-05 4.4224997
v 0.07499993 -2.6871663E-05 4.5256248
v -0.07500008 -2.6871663E-05 4.5256248
v 0.07499993 -2.748634E-05 4.62875
v -0.07500008 -2.748634E-05 4.62875
v 0.07499993 -2.8101013E-05 4.731875
v -0.07500008 -2.8101013E-05 4.731875
v 0.07499993 -1.3456897E-05 4.835
v -0.07500008 -1.3456897E-05 4.835
v 0.07499993 -2.933036E-05 4.938125
v -0.07500008 -2.933036E-05 4.938125
v 0.07499993 -2.9945033E-05 5.04125
v -0.07500008 -2.9945033E-05 5.04125
v 0.07499993 -3.0559702E-05 5.144375
v -0.07500008 -3.0559702E-05 5.144375
v 0.07499993 -3.1174375E-05 5.2475
v -0.07500008 -3.1174375E-05 5.2475
v 0.07499993 -3.1789048E-05 5.350625
v -0.07500008 -3.1789048E-05 5.350625
v 0.07499993 -3.240372E-05 5.4537497
v -0.07500008 -3.240372E-05 5.4537497
v 0.07499993 -3.3018394E-05 5.5568748
v -0.07500008 -3.3018394E-05 5.5568748
v 0.07499993 -3.3633067E-05 5.66
v -0.07500008 -3.3633067E-05 5.66
vt 0.99958867 0.016492128
vt 0.99958867 1.3411045E-06
vt 0.0021790266 1.8179417E-06
vt 0.0021800995 0.016492873
vt 0.99958915 0.032089323
vt 0.0021805763 0.0320898
vt 0.99958926 0.04768625
vt 0.0021810532 0.047686726
vt 0.9995901 0.063283175
vt 0.00218153 0.06328392
vt 0.9995906 0.0788801
vt 0.0021820068 0.07888085
vt 0.9995908 0.094477296
vt 0.0021824837 0.09447777
vt 0.9995913 0.11007422
vt 0.0021829605 0.11007497
vt 0.99959177 0.12567127
vt 0.0021834373 0.1256719
vt 0.99959236 0.14126834
vt 0.0021840334 0.14126894
vt 0.99959284 0.15686527
vt 0.0021845102 0.15686586
vt 0.9995933 0.17246231
vt 0.002184987 0.17246294
vt 0.9995937 0.18805939
vt 0.002185464 0.18805999
vt 0.9995944 0.20365644
vt 0.0021858215 0.20365691
vt 0.99959487 0.21925336
vt 0.0021862984 0.21925399
vt 0.9995956 0.23485044
vt 0.0021867752 0.23485103
vt 0.9995958 0.25044736
vt 0.002187252 0.2504481
vt 0.9995963 0.2660444
vt 0.0021877289 0.26604503
vt 0.9995968 0.28164148
vt 0.0021882057 0.28164214
vt 0.9995977 0.29723847
vt 0.0021886826 0.297239
vt 0.9995977 0.31283545
vt 0.0021891594 0.3128361
vt 0.9995988 0.3284325
vt 0.0021896362 0.32843313
vt 0.9995981 0.34402955
vt 0.002189517 0.34403017
vt 0.99959856 0.35962656
vt 0.002191186 0.35962713
vt 0.99959904 0.37522352
vt 0.0021916628 0.37522417
vt 0.9995995 0.39082062
vt 0.0021909475 0.39082113
vt 0.9996012 0.4064176
vt 0.0021914244 0.40641817
vt 0.9995994 0.42201462
vt 0.0021930933 0.4220152
vt 0.99960214 0.43761164
vt 0.0021935701 0.4376122
vt 0.9996026 0.45320866
vt 0.002194047 0.4532092
vt 0.9996019 0.46880564
vt 0.0021945238 0.46880627
vt 0.9996024 0.4844027
vt 0.0021950006 0.48440328
vt 0.99960285 0.4999997
vt 0.0021965504 0.5000003
vt 0.9996045 0.5155967
vt 0.0021947622 0.5155973
vt 0.9996061 0.5311937
vt 0.0021964312 0.5311943
vt 0.99960655 0.5467907
vt 0.002196908 0.5467913
vt 0.999607 0.5623878
vt 0.0021973848 0.5623884
vt 0.9996075 0.5779848
vt 0.0021978617 0.5779854
vt 0.999608 0.59358186
vt 0.0021983385 0.5935824
vt 0.9996039 0.6091789
vt 0.0021965504 0.60917944
vt 0.99960667 0.6247758
vt 0.0021970272 0.6247764
vt 0.9996049 0.6403729
vt 0.002199769 0.64037347
vt 0.9996099 0.65596986
vt 0.0022025108 0.65597045
vt 0.9996081 0.67156684
vt 0.0022007227 0.6715675
vt 0.9996086 0.68716395
vt 0.0021989346 0.6871644
vt 0.99960905 0.7027609
vt 0.0022016764 0.7027616
vt 0.99960953 0.7183579
vt 0.0021998882 0.7183585
vt 0.99961 0.73395497
vt 0.002200365 0.73395544
vt 0.99961275 0.7495519
vt 0.0022053719 0.7495526
vt 0.9996087 0.765149
vt 0.0022013187 0.7651496
vt 0.99961144 0.780746
vt 0.0022017956 0.7807465
vt 0.9996119 0.79634297
vt 0.0022045374 0.7963437
vt 0.99961466 0.81194
vt 0.0022050142 0.8119406
vt 0.99961513 0.82753706
vt 0.002203226 0.82753766
vt 0.99961334 0.843134
vt 0.0022082329 0.84313476
vt 0.9996138 0.85873115
vt 0.0022041798 0.8587316
vt 0.99961656 0.87432814
vt 0.0022091866 0.8743286
vt 0.9996126 0.88992524
vt 0.0022073984 0.8899258
vt 0.9996175 0.9055222
vt 0.0022101402 0.9055227
vt 0.999618 0.92111915
vt 0.002210617 0.92111987
vt 0.9996186 0.9367163
vt 0.002206564 0.93671656
vt 0.99961907 0.9523133
vt 0.0022070408 0.9523138
vt 0.9996194 0.9679102
vt 0.0022075176 0.96791065
vt 0.99962 0.9835074
vt 0.0022079945 0.9835079
vt 0.9996205 0.9999981
vt 0.0022084713 0.99999857
vt 0.9995925 0.01648897
vt 0.9995921 -1.8179417E-06
vt 0.0021835566 -1.3411045E-06
vt 0.0021839142 0.016489446
vt 0.99959284 0.032086134
vt 0.0021842718 0.03208664
vt 0.9995932 0.04768333
vt 0.0021846294 0.047683805
vt 0.99959356 0.06328049
vt 0.002184987 0.063281
vt 0.9995939 0.07887742
vt 0.0021853447 0.078878164
vt 0.9995943 0.09447461
vt 0.0021857023 0.09447509
vt 0.9995946 0.11007178
vt 0.00218606 0.110072285
vt 0.999595 0.12566885
vt 0.0021864176 0.12566945
vt 0.99959534 0.14126602
vt 0.0021867752 0.1412665
vt 0.9995957 0.15686306
vt 0.0021871328 0.15686369
vt 0.99959606 0.17246026
vt 0.0021874905 0.17246073
vt 0.9995964 0.1880573
vt 0.002187848 0.18805793
vt 0.9995968 0.2036545
vt 0.0021882057 0.20365497
vt 0.99959713 0.21925154
vt 0.0021885633 0.21925214
vt 0.9995975 0.23484871
vt 0.002188921 0.23484921
vt 0.99959785 0.25044578
vt 0.0021892786 0.25044638
vt 0.9995982 0.26604295
vt 0.0021896362 0.26604342
vt 0.99959856 0.2816401
vt 0.0021899939 0.28164056
vt 0.9995989 0.2972372
vt 0.0021903515 0.29723772
vt 0.99959916 0.3128343
vt 0.002190709 0.31283486
vt 0.9995995 0.32843143
vt 0.0021910667 0.32843196
vt 0.9996 0.34402853
vt 0.0021914244 0.34402907
vt 0.99960023 0.35962564
vt 0.002191782 0.35962617
vt 0.9996006 0.3752228
vt 0.0021921396 0.37522328
vt 0.99960095 0.39081988
vt 0.0021924973 0.39082044
vt 0.9996013 0.406417
vt 0.0021928549 0.40641755
vt 0.99960166 0.42201415
vt 0.0021932125 0.42201465
vt 0.999602 0.43761125
vt 0.0021935701 0.4376118
vt 0.9996024 0.45320836
vt 0.0021939278 0.4532089
vt 0.99960274 0.4688055
vt 0.0021942854 0.468806
vt 0.9996031 0.4844026
vt 0.002194643 0.48440313
vt 0.99960345 0.49999973
vt 0.0021950006 0.50000024
vt 0.9996038 0.51559687
vt 0.0021953583 0.51559734
vt 0.99960417 0.531194
vt 0.002195716 0.53119445
vt 0.9996045 0.5467911
vt 0.0021960735 0.5467917
vt 0.9996049 0.5623882
vt 0.0021964312 0.5623887
vt 0.99960524 0.57798535
vt 0.0021967888 0.5779859
vt 0.9996056 0.59358245
vt 0.0021971464 0.5935829
vt 0.99960595 0.60917956
vt 0.002197504 0.6091801
vt 0.9996063 0.6247767
vt 0.0021978617 0.6247773
vt 0.99960667 0.6403738
vt 0.0021982193 0.64037436
vt 0.999607 0.65597093
vt 0.002198577 0.6559714
vt 0.9996074 0.6715681
vt 0.0021989346 0.67156863
vt 0.99960774 0.68716514
vt 0.0021992922 0.6871656
vt 0.9996081 0.7027623
vt 0.0021996498 0.70276284
vt 0.99960846 0.7183595
vt 0.0022000074 0.71836
vt 0.9996088 0.7339566
vt 0.002200365 0.73395705
vt 0.9996092 0.7495536
vt 0.0022007227 0.7495541
vt 0.99960953 0.7651508
vt 0.0022010803 0.76515126
vt 0.9996099 0.7807479
vt 0.002201438 0.7807485
vt 0.99961025 0.796345
vt 0.0022017956 0.7963455
vt 0.9996106 0.8119421
vt 0.0022021532 0.8119426
vt 0.99961096 0.82753927
vt 0.0022025108 0.82753974
vt 0.9996113 0.8431363
vt 0.0022028685 0.8431369
vt 0.9996117 0.85873365
vt 0.002203226 0.85873413
vt 0.99961203 0.8743305
vt 0.0022035837 0.874331
vt 0.9996124 0.88992774
vt 0.0022039413 0.8899282
vt 0.99961275 0.9055249
vt 0.002204299 0.9055254
vt 0.9996131 0.9211221
vt 0.0022046566 0.9211223
vt 0.99961346 0.936719
vt 0.0022050142 0.93671954
vt 0.9996138 0.95231616
vt 0.0022053719 0.95231664
vt 0.9996142 0.9679134
vt 0.0022057295 0.96791387
vt 0.99961454 0.98351026
vt 0.002206087 0.98351103
vt 0.9996149 1.0000012
vt 0.0022064447 1.0000019
vn -1 0 0
vn -1 0 0
vn -1 0 0
vn -1 0 0
vn -1 0 0
vn -1 0 0
vn -1 0 0
vn -1 0 0
vn -1 0 0
vn -1 0 0
vn -1 0 0
vn -1 0 0
vn -1 0 0
vn -1 0 0
vn -1 0 0
vn -1 0 0
vn -1 0 0
vn -1 0 0
vn -1 0 0
vn -1 0 0
vn -1 0 0
vn -1 0 0
vn -1 0 0
vn -1 0 0
vn -1 0 0
vn -1 0 0
vn -1 0 0
vn -1 0 0
vn -1 0 0
vn -1 0 0
vn -1 0 0
vn -1 0 0
vn -1 0 0
vn -1 0 0
vn -1 0 0
vn -1 0 0
vn -1 0 0
vn -1 0 0
vn -1 0 0
vn -1 0 0
vn -1 0 0
vn -1 0 0
vn -1 0 0
vn -1 0 0
vn -1 0 0
vn -1 0 0
vn -1 0 0
vn -1 0 0
vn -1 0 0
vn -1 0 0
vn -1 0 0
vn -1 0 0
vn -1 0 0
vn -1 0 0
vn -1 0 0
vn -1 0 0
vn -1 0 0
vn -1 0 0
vn -1 0 0
vn -1 0 0
vn -1 0 0
vn -1 0 0
vn -1 0 0
vn -1 0 0
vn -1 0 0
vn -1 0 0
vn -1 0 0
vn -1 0 0
vn -1 0 0
vn -1 0 0
vn -1 0 0
vn -1 0 0
vn -1 0 0
vn -1 0 0
vn -1 0 0
vn -1 0 0
vn -1 0 0
vn -1 0 0
vn -1 0 0
vn -1 0 0
vn -1 0 0
vn -1 0 0
vn -1 0 0
vn -1 0 0
vn -1 0 0
vn -1 0 0
vn -1 0 0
vn -1 0 0
vn -1 0 0
vn -1 0 0
vn -1 0 0
vn -1 0 0
vn -1 0 0
vn -1 0 0
vn -1 0 0
vn -1 0 0
vn -1 0 0
vn -1 0 0
vn -1 0 0
vn -1 0 0
vn -1 0 0
vn -1 0 0
vn -1 0 0
vn -1 0 0
vn -1 0 0
vn -1 0 0
vn -1 0 0
vn -1 0 0
vn -1 0 0
vn -1 0 0
vn -1 0 0
vn -1 0 0
vn -1 0 0
vn -1 0 0
vn -1 0 0
vn -1 0 0
vn -1 0 0
vn -1 0 0
vn -1 0 0
vn -1 0 0
vn -1 0 0
vn -1 0 0
vn -1 0 0
vn -1 0 0
vn -1 0 0
vn -1 0 0
vn -1 0 0
vn -1 0 0
vn -1 0 0
vn -1 0 0
vn -0 -1 1.2535045E-05
vn -0 -1 3.10306E-05
vn -0 -1 3.10306E-05
vn -0 -1 1.2535045E-05
vn -0 -1 -5.9604645E-06
vn -0 -1 -5.9604645E-06
vn -0 -1 -5.9604645E-06
vn -0 -1 -5.9604645E-06
vn -0 -1 -5.9604645E-06
vn -0 -1 -5.9604645E-06
vn -0 -1 -5.9604645E-06
vn -0 -1 -5.9604645E-06
vn -0 -1 -5.9604645E-06
vn -0 -1 -5.9604645E-06
vn -0 -1 -5.9604645E-06
vn -0 -1 -5.9604645E-06
vn -0 -1 -5.9604645E-06
vn -0 -1 -5.9604645E-06
vn -0 -1 -5.9604645E-06
vn -0 -1 -5.9604645E-06
vn -0 -1 -1.058434E-05
vn -0 -1 -1.058434E-05
vn -0 -1 -5.9604645E-06
vn -0 -1 -5.9604645E-06
vn -0 -1 -1.3365884E-06
vn -0 -1 -1.3365884E-06
vn -0 -1 -5.9604645E-06
vn -0 -1 -5.9604645E-06
vn -0 -1 -5.9604645E-06
vn -0 -1 -5.9604645E-06
vn -0 -1 -5.9604645E-06
vn -0 -1 -5.9604645E-06
vn -0 -1 -5.9604645E-06
vn -0 -1 -5.9604645E-06
vn -0 -1 -5.9604645E-06
vn -0 -1 -5.9604645E-06
vn -0 -1 -2.4455965E-05
vn -0 -1 -2.4455965E-05
vn -0 -1 -5.9604645E-06
vn -0 -1 -5.9604645E-06
vn -0 -1 -5.9604645E-06
vn -0 -1 -5.9604645E-06
vn -0 -1 -5.9604645E-06
vn -0 -1 -5.9604645E-06
vn -0 -1 1.2535035E-05
vn -0 -1 1.2535035E-05
vn -0 -1 -5.9604645E-06
vn -0 -1 -5.9604645E-06
vn -0 -1 -5.9604645E-06
vn -0 -1 -5.9604645E-06
vn -0 -1 -5.9604645E-06
vn -0 -1 -5.9604645E-06
vn -0 -1 -5.9604645E-06
vn -0 -1 -5.9604645E-06
vn -0 -1 -5.9604645E-06
vn -0 -1 -5.9604645E-06
vn -0 -1 -5.9604645E-06
vn -0 -1 -5.9604645E-06
vn -0 -1 -5.9604645E-06
vn -0 -1 -5.9604645E-06
vn -0 -1 -5.9604645E-06
vn -0 -1 -5.9604645E-06
vn -0 -1 -5.9604645E-06
vn -0 -1 -5.9604645E-06
vn -0 -1 -5.9604645E-06
vn -0 -1 -5.9604645E-06
vn -0 -1 -5.9604645E-06
vn -0 -1 -5.9604645E-06
vn -0 -1 -5.9604645E-06
vn -0 -1 -5.9604645E-06
vn -0 -1 -5.9604645E-06
vn -0 -1 -5.9604645E-06
vn -0 -1 -5.9604645E-06
vn -0 -1 -5.9604645E-06
vn -0 -1 -5.9604645E-06
vn -0 -1 -5.9604645E-06
vn -0 -1 -5.9604645E-06
vn -0 -1 -5.9604645E-06
vn -0 -1 -5.9604645E-06
vn -0 -1 -5.9604645E-06
vn -0 -1 -5.9604645E-06
vn -0 -1 -5.9604645E-06
vn -0 -1 -5.9604645E-06
vn -0 -1 -5.9604645E-06
vn -0 -1 -5.9604645E-06
vn -0 -1 -5.9604645E-06
vn -0 -1 -5.9604645E-06
vn -0 -1 -5.9604645E-06
vn -0 -1 -5.9604645E-06
vn -0 -1 -5.9604645E-06
vn -0 -1 -5.9604645E-06
vn -0 -1 -5.9604645E-06
vn -0 -1 -5.9604645E-06
vn -0 -1 -5.9604645E-06
vn -0 -1 -5.9604645E-06
vn -0 -1 -5.9604645E-06
vn -0 -1 -5.9604645E-06
vn -0 -1 -5.9604645E-06
vn -0 -1 -5.9604645E-06
vn -0 -1 -5.9604645E-06
vn -0 -1 -5.9604645E-06
vn -0 -1 -5.9604645E-06
vn -0 -1 6.8021654E-05
vn -0 -1 6.8021654E-05
vn -0 -1 -5.96046E-06
vn -0 -1 -5.96046E-06
vn -0 -1 -7.9942365E-05
vn -0 -1 -7.9942365E-05
vn -0 -1 -5.9604645E-06
vn -0 -1 -5.9604645E-06
vn -0 -1 6.802154E-05
vn -0 -1 6.802154E-05
vn -0 -1 -5.9604645E-06
vn -0 -1 -5.9604645E-06
vn -0 -1 -7.9942365E-05
vn -0 -1 -7.9942365E-05
vn -0 -1 -5.9604645E-06
vn -0 -1 -5.9604645E-06
vn -0 -1 -5.9604645E-06
vn -0 -1 -5.9604645E-06
vn -0 -1 -5.9604645E-06
vn -0 -1 -5.9604645E-06
vn -0 -1 -5.9604645E-06
vn -0 -1 -5.9604645E-06
vn -0 -1 -5.9604645E-06
vn -0 -1 -5.9604645E-06
vn -0 -1 -5.9604645E-06
vn -0 -1 -5.9604645E-06
vn -0 -1 -5.9604645E-06
vn -0 -1 -5.9604645E-06
g S_wpn_misc_0036_03_lod0_0
f 3/3/3 2/2/2 1/1/1
f 4/4/4 3/3/3 1/1/1
f 4/4/4 1/1/1 5/5/5
f 6/6/6 4/4/4 5/5/5
f 6/6/6 5/5/5 7/7/7
f 8/8/8 6/6/6 7/7/7
f 8/8/8 7/7/7 9/9/9
f 10/10/10 8/8/8 9/9/9
f 10/10/10 9/9/9 11/11/11
f 12/12/12 10/10/10 11/11/11
f 12/12/12 11/11/11 13/13/13
f 14/14/14 12/12/12 13/13/13
f 14/14/14 13/13/13 15/15/15
f 16/16/16 14/14/14 15/15/15
f 16/16/16 15/15/15 17/17/17
f 18/18/18 16/16/16 17/17/17
f 18/18/18 17/17/17 19/19/19
f 20/20/20 18/18/18 19/19/19
f 20/20/20 19/19/19 21/21/21
f 22/22/22 20/20/20 21/21/21
f 22/22/22 21/21/21 23/23/23
f 24/24/24 22/22/22 23/23/23
f 24/24/24 23/23/23 25/25/25
f 26/26/26 24/24/24 25/25/25
f 26/26/26 25/25/25 27/27/27
f 28/28/28 26/26/26 27/27/27
f 28/28/28 27/27/27 29/29/29
f 30/30/30 28/28/28 29/29/29
f 30/30/30 29/29/29 31/31/31
f 32/32/32 30/30/30 31/31/31
f 32/32/32 31/31/31 33/33/33
f 34/34/34 32/32/32 33/33/33
f 34/34/34 33/33/33 35/35/35
f 36/36/36 34/34/34 35/35/35
f 36/36/36 35/35/35 37/37/37
f 38/38/38 36/36/36 37/37/37
f 38/38/38 37/37/37 39/39/39
f 40/40/40 38/38/38 39/39/39
f 40/40/40 39/39/39 41/41/41
f 42/42/42 40/40/40 41/41/41
f 42/42/42 41/41/41 43/43/43
f 44/44/44 42/42/42 43/43/43
f 44/44/44 43/43/43 45/45/45
f 46/46/46 44/44/44 45/45/45
f 46/46/46 45/45/45 47/47/47
f 48/48/48 46/46/46 47/47/47
f 48/48/48 47/47/47 49/49/49
f 50/50/50 48/48/48 49/49/49
f 50/50/50 49/49/49 51/51/51
f 52/52/52 50/50/50 51/51/51
f 52/52/52 51/51/51 53/53/53
f 54/54/54 52/52/52 53/53/53
f 54/54/54 53/53/53 55/55/55
f 56/56/56 54/54/54 55/55/55
f 56/56/56 55/55/55 57/57/57
f 58/58/58 56/56/56 57/57/57
f 58/58/58 57/57/57 59/59/59
f 60/60/60 58/58/58 59/59/59
f 60/60/60 59/59/59 61/61/61
f 62/62/62 60/60/60 61/61/61
f 62/62/62 61/61/61 63/63/63
f 64/64/64 62/62/62 63/63/63
f 64/64/64 63/63/63 65/65/65
f 66/66/66 64/64/64 65/65/65
f 66/66/66 65/65/65 67/67/67
f 68/68/68 66/66/66 67/67/67
f 68/68/68 67/67/67 69/69/69
f 70/70/70 68/68/68 69/69/69
f 70/70/70 69/69/69 71/71/71
f 72/72/72 70/70/70 71/71/71
f 72/72/72 71/71/71 73/73/73
f 74/74/74 72/72/72 73/73/73
f 74/74/74 73/73/73 75/75/75
f 76/76/76 74/74/74 75/75/75
f 76/76/76 75/75/75 77/77/77
f 78/78/78 76/76/76 77/77/77
f 78/78/78 77/77/77 79/79/79
f 80/80/80 78/78/78 79/79/79
f 80/80/80 79/79/79 81/81/81
f 82/82/82 80/80/80 81/81/81
f 82/82/82 81/81/81 83/83/83
f 84/84/84 82/82/82 83/83/83
f 84/84/84 83/83/83 85/85/85
f 86/86/86 84/84/84 85/85/85
f 86/86/86 85/85/85 87/87/87
f 88/88/88 86/86/86 87/87/87
f 88/88/88 87/87/87 89/89/89
f 90/90/90 88/88/88 89/89/89
f 90/90/90 89/89/89 91/91/91
f 92/92/92 90/90/90 91/91/91
f 92/92/92 91/91/91 93/93/93
f 94/94/94 92/92/92 93/93/93
f 94/94/94 93/93/93 95/95/95
f 96/96/96 94/94/94 95/95/95
f 96/96/96 95/95/95 97/97/97
f 98/98/98 96/96/96 97/97/97
f 98/98/98 97/97/97 99/99/99
f 100/100/100 98/98/98 99/99/99
f 100/100/100 99/99/99 101/101/101
f 102/102/102 100/100/100 101/101/101
f 102/102/102 101/101/101 103/103/103
f 104/104/104 102/102/102 103/103/103
f 104/104/104 103/103/103 105/105/105
f 106/106/106 104/104/104 105/105/105
f 106/106/106 105/105/105 107/107/107
f 108/108/108 106/106/106 107/107/107
f 108/108/108 107/107/107 109/109/109
f 110/110/110 108/108/108 109/109/109
f 110/110/110 109/109/109 111/111/111
f 112/112/112 110/110/110 111/111/111
f 112/112/112 111/111/111 113/113/113
f 114/114/114 112/112/112 113/113/113
f 114/114/114 113/113/113 115/115/115
f 116/116/116 114/114/114 115/115/115
f 116/116/116 115/115/115 117/117/117
f 118/118/118 116/116/116 117/117/117
f 118/118/118 117/117/117 119/119/119
f 120/120/120 118/118/118 119/119/119
f 120/120/120 119/119/119 121/121/121
f 122/122/122 120/120/120 121/121/121
f 122/122/122 121/121/121 123/123/123
f 124/124/124 122/122/122 123/123/123
f 124/124/124 123/123/123 125/125/125
f 126/126/126 124/124/124 125/125/125
f 126/126/126 125/125/125 127/127/127
f 128/128/128 126/126/126 127/127/127
f 128/128/128 127/127/127 129/129/129
f 130/130/130 128/128/128 129/129/129
f 133/133/133 132/132/132 131/131/131
f 134/134/134 133/133/133 131/131/131
f 134/134/134 131/131/131 135/135/135
f 136/136/136 134/134/134 135/135/135
f 136/136/136 135/135/135 137/137/137
f 138/138/138 136/136/136 137/137/137
f 138/138/138 137/137/137 139/139/139
f 140/140/140 138/138/138 139/139/139
f 140/140/140 139/139/139 141/141/141
f 142/142/142 140/140/140 141/141/141
f 142/142/142 141/141/141 143/143/143
f 144/144/144 142/142/142 143/143/143
f 144/144/144 143/143/143 145/145/145
f 146/146/146 144/144/144 145/145/145
f 146/146/146 145/145/145 147/147/147
f 148/148/148 146/146/146 147/147/147
f 148/148/148 147/147/147 149/149/149
f 150/150/150 148/148/148 149/149/149
f 150/150/150 149/149/149 151/151/151
f 152/152/152 150/150/150 151/151/151
f 152/152/152 151/151/151 153/153/153
f 154/154/154 152/152/152 153/153/153
f 154/154/154 153/153/153 155/155/155
f 156/156/156 154/154/154 155/155/155
f 156/156/156 155/155/155 157/157/157
f 158/158/158 156/156/156 157/157/157
f 158/158/158 157/157/157 159/159/159
f 160/160/160 158/158/158 159/159/159
f 160/160/160 159/159/159 161/161/161
f 162/162/162 160/160/160 161/161/161
f 162/162/162 161/161/161 163/163/163
f 164/164/164 162/162/162 163/163/163
f 164/164/164 163/163/163 165/165/165
f 166/166/166 164/164/164 165/165/165
f 166/166/166 165/165/165 167/167/167
f 168/168/168 166/166/166 167/167/167
f 168/168/168 167/167/167 169/169/169
f 170/170/170 168/168/168 169/169/169
f 170/170/170 169/169/169 171/171/171
f 172/172/172 170/170/170 171/171/171
f 172/172/172 171/171/171 173/173/173
f 174/174/174 172/172/172 173/173/173
f 174/174/174 173/173/173 175/175/175
f 176/176/176 174/174/174 175/175/175
f 176/176/176 175/175/175 177/177/177
f 178/178/178 176/176/176 177/177/177
f 178/178/178 177/177/177 179/179/179
f 180/180/180 178/178/178 179/179/179
f 180/180/180 179/179/179 181/181/181
f 182/182/182 180/180/180 181/181/181
f 182/182/182 181/181/181 183/183/183
f 184/184/184 182/182/182 183/183/183
f 184/184/184 183/183/183 185/185/185
f 186/186/186 184/184/184 185/185/185
f 186/186/186 185/185/185 187/187/187
f 188/188/188 186/186/186 187/187/187
f 188/188/188 187/187/187 189/189/189
f 190/190/190 188/188/188 189/189/189
f 190/190/190 189/189/189 191/191/191
f 192/192/192 190/190/190 191/191/191
f 192/192/192 191/191/191 193/193/193
f 194/194/194 192/192/192 193/193/193
f 194/194/194 193/193/193 195/195/195
f 196/196/196 194/194/194 195/195/195
f 196/196/196 195/195/195 197/197/197
f 198/198/198 196/196/196 197/197/197
f 198/198/198 197/197/197 199/199/199
f 200/200/200 198/198/198 199/199/199
f 200/200/200 199/199/199 201/201/201
f 202/202/202 200/200/200 201/201/201
f 202/202/202 201/201/201 203/203/203
f 204/204/204 202/202/202 203/203/203
f 204/204/204 203/203/203 205/205/205
f 206/206/206 204/204/204 205/205/205
f 206/206/206 205/205/205 207/207/207
f 208/208/208 206/206/206 207/207/207
f 208/208/208 207/207/207 209/209/209
f 210/210/210 208/208/208 209/209/209
f 210/210/210 209/209/209 211/211/211
f 212/212/212 210/210/210 211/211/211
f 212/212/212 211/211/211 213/213/213
f 214/214/214 212/212/212 213/213/213
f 214/214/214 213/213/213 215/215/215
f 216/216/216 214/214/214 215/215/215
f 216/216/216 215/215/215 217/217/217
f 218/218/218 216/216/216 217/217/217
f 218/218/218 217/217/217 219/219/219
f 220/220/220 218/218/218 219/219/219
f 220/220/220 219/219/219 221/221/221
f 222/222/222 220/220/220 221/221/221
f 222/222/222 221/221/221 223/223/223
f 224/224/224 222/222/222 223/223/223
f 224/224/224 223/223/223 225/225/225
f 226/226/226 224/224/224 225/225/225
f 226/226/226 225/225/225 227/227/227
f 228/228/228 226/226/226 227/227/227
f 228/228/228 227/227/227 229/229/229
f 230/230/230 228/228/228 229/229/229
f 230/230/230 229/229/229 231/231/231
f 232/232/232 230/230/230 231/231/231
f 232/232/232 231/231/231 233/233/233
f 234/234/234 232/232/232 233/233/233
f 234/234/234 233/233/233 235/235/235
f 236/236/236 234/234/234 235/235/235
f 236/236/236 235/235/235 237/237/237
f 238/238/238 236/236/236 237/237/237
f 238/238/238 237/237/237 239/239/239
f 240/240/240 238/238/238 239/239/239
f 240/240/240 239/239/239 241/241/241
f 242/242/242 240/240/240 241/241/241
f 242/242/242 241/241/241 243/243/243
f 244/244/244 242/242/242 243/243/243
f 244/244/244 243/243/243 245/245/245
f 246/246/246 244/244/244 245/245/245
f 246/246/246 245/245/245 247/247/247
f 248/248/248 246/246/246 247/247/247
f 248/248/248 247/247/247 249/249/249
f 250/250/250 248/248/248 249/249/249
f 250/250/250 249/249/249 251/251/251
f 252/252/252 250/250/250 251/251/251
f 252/252/252 251/251/251 253/253/253
f 254/254/254 252/252/252 253/253/253
f 254/254/254 253/253/253 255/255/255
f 256/256/256 254/254/254 255/255/255
f 256/256/256 255/255/255 257/257/257
f 258/258/258 256/256/256 257/257/257
f 258/258/258 257/257/257 259/259/259
f 260/260/260 258/258/258 259/259/259
