g S_wpn_misc_0036_02_lod0
v -0.014491729 -0.0006210363 -0.9796562
v -0.013598022 -0.00058353733 -0.98213005
v -0.013448868 0.001652142 -0.9820751
v -0.012659226 -0.00054239586 -0.9822995
v -0.014326935 0.0012771189 -0.9795779
v -0.015365905 -0.0006576197 -0.97710675
v -0.015283432 0.0004496725 -0.9771636
v -0.014449234 -0.0006170694 -0.9767209
v -0.013888702 0.0022973402 -0.9769674
v -0.013254852 0.0025219119 -0.9793914
v -0.012662429 0.002318188 -0.98191017
v -0.014736176 0.0021174198 -0.97646034
v -0.01100235 0.0023316336 -0.97173816
v -0.015147095 -0.0006473393 -0.9762357
v -0.011138381 0.0028741225 -0.9784266
v -0.010766372 0.0030971875 -0.9807998
v -0.006585617 0.0044325804 -0.98673683
v -0.012759704 0.0018820545 -0.9843273
v -0.012333221 -0.00052904425 -0.983629
v -0.007327118 0.0019335705 -0.976621
v -0.013618697 0.0010353065 -0.98610586
v -0.01347229 -0.0005805994 -0.98574483
v -0.016338196 -0.00070713286 -0.9865405
v -0.009741745 0.002138689 -0.9893498
v -0.014197769 -0.0006159228 -0.9905769
v -0.009286728 -0.00040361506 -0.9954897
v -0.005286789 0.0035496121 -0.9922393
v -0.0031261444 0.0021032705 -0.99571157
v -0 -6.13363E-17 -1.0016979
v 0.00046066282 0.003767336 -0.9910919
v 0.0043613426 0.0029063784 -0.99470615
v 0.004010543 0.00017724975 -1.0003605
v 0.011181411 0.0004967296 -0.9942274
v 0.010323639 0.002354963 -0.9895391
v 0.0136640165 0.00060893816 -0.98998594
v 0.018080218 0.0008085218 -0.9822874
v 0.012800903 0.003019749 -0.9801915
v 0.004439391 0.0031413627 -0.98868597
v 0.0011789703 0.002131593 -0.98595786
v 0.008206328 0.003086526 -0.98485917
v -0.004276123 0.0030615397 -0.9858126
v -0.006851425 0.0017882884 -0.9803002
v 0.016831512 0.002264572 -0.977092
v 0.018126452 0.0008152157 -0.9757836
v 0.01782265 0.0008075851 -0.967814
v 0.012200851 0.0027562652 -0.96555716
v 0.010209808 0.0004806064 -0.9572474
v 0.009027099 0.00042249096 -0.9657714
v 0.0063703917 0.00030026928 -0.97338295
v -0.0020454407 -7.637337E-05 -0.98285836
v -0.0049829865 0.00036080956 -0.98008657
v -0.0057183076 1.4841557E-07 -0.97586006
v -0.0070056915 -0.00028660297 -0.9720436
v 0.0020830529 0.00010385231 -0.9845394
v -0.007698822 -0.00031132356 -0.9640748
v 0.0066782376 0.0010031861 -0.9832295
v 0.006228943 0.00028745338 -0.9826997
v 0.010811081 0.00049375114 -0.97572
v 0.006435318 0.0020134896 -0.98281187
v 0.009704055 0.0023241958 -0.97824454
v 0.01108757 0.00257711 -0.9757852
v 0.00994316 0.00045730127 -0.9734356
v 0.013538971 0.0031127888 -0.97633374
v 0.009687652 0.0022340345 -0.9731111
v -0.014379653 -0.00060007826 -0.9572551
v -0.010583343 0.0012407416 -0.95484525
v -0.011779938 -0.0004843597 -0.95529294
v -0.00951065 -0.00038281275 -0.95271236
v -0.012858429 0.0016161083 -0.95751095
v -0.0095274355 0.0016730615 -0.95624304
v -0.014388199 0.001268857 -0.9604771
v -0.01665886 -0.0007036845 -0.9621172
v -0.007130661 0.0017866242 -0.9513073
v -0.016083831 0.000109056244 -0.96536934
v -0.018887024 -0.0008054789 -0.96747327
v -0.012455139 0.0012706125 -0.9642725
v -0.017811507 0.00013221234 -0.97036755
v -0.018897247 -0.00080784346 -0.9701605
v -0.01858612 -0.00079763844 -0.97492635
v -0.01750618 0.00071200874 -0.9742237
v -0.018174056 -0.00078112044 -0.9772347
v -0.0071754456 0.0009903436 -0.94764197
v -0.0074513243 -0.00033785746 -0.9476959
v -0.0074237823 -0.0002862258 -0.94586957
v -0.006735687 0.0017722994 -0.9460142
v -0.0065380856 -0.00024546622 -0.94332725
v -0.015646895 0.0015762087 -0.97010136
v -0.017812958 -0.00021694585 -0.97713506
v -0.014776458 0.0027403021 -0.97148395
v -0.016677627 0.00060990884 -0.9766204
v -0.011688232 0.002494673 -0.96821845
v -0.009985886 0.0008768022 -0.96422493
v -0.0075816344 0.0015019348 -0.9593511
v -0.005766754 -0.00022349089 -0.9599675
v -0.0050661466 0.0017413637 -0.95661384
v -0.0037088012 -0.00013073697 -0.95668554
v -0.0020719909 -5.657986E-05 -0.95354474
v -0.0029141235 0.001705066 -0.9502153
v 0.0014567566 0.000100928555 -0.95019484
v -0.006035614 0.0025307375 -0.94735634
v -0.00054214476 0.0018590268 -0.9476728
v 0.0011375427 8.8988105E-05 -0.947381
v -0.004583206 0.0023513322 -0.9474024
v -0.0028129576 0.0020000369 -0.94685936
v -0.0051572416 0.0027994828 -0.9472376
v -0.00012405396 0.0014664179 -0.9460343
v -0.0023399352 0.003245936 -0.9466194
v -0.0027960967 0.0027881335 -0.94245505
v 2.807617E-05 0.0031341452 -0.9397086
v -0.0043966672 0.0015954492 -0.94078773
v -0.00500206 -0.00017525732 -0.9396085
v -0.0013334656 -1.2732446E-05 -0.9377886
v -0.0006616211 0.002250337 -0.93858254
v 0.0027181238 0.0018044367 -0.937838
v 0.0027336876 0.00016652003 -0.9370041
v 0.0063462066 0.0011566058 -0.9371415
v 0.0060874172 0.00031416788 -0.9366058
v 0.007931289 0.0003950967 -0.9367451
v 0.0036850732 0.0031598562 -0.939403
v 0.006521835 0.0023065466 -0.93859035
v 0.008499526 0.0016037836 -0.9383843
v 0.008447189 0.00041693597 -0.9380134
v 0.009350432 0.00045527398 -0.9397884
v 0.006739883 0.0031916136 -0.93979955
v 0.008171233 0.002193727 -0.9407665
v 0.008925399 0.0004357621 -0.94104946
v 0.008507842 0.00041653618 -0.9422693
v 0.0042244713 0.003931589 -0.9417862
v 0.0068147276 0.0021005915 -0.9433527
v 0.00725151 0.00036025062 -0.94375074
v 0.0066461945 0.0031824969 -0.9416317
v 0.0015934753 0.003583784 -0.943702
v 0.004880294 0.0034905528 -0.94330734
v 0.004088439 0.0018398955 -0.9455373
v 0.004609145 0.00024275824 -0.94569045
v -0.00044128418 0.0031869607 -0.9459487
v 0.0008163452 0.0028371338 -0.9459005
v 0.00139534 0.0016115098 -0.94750065
v 0.0027073664 0.0001580149 -0.9471717
v -0.014491729 -0.0006210363 -0.9796562
v -0.0132533265 -0.002797378 -0.9820719
v -0.013598022 -0.00058353733 -0.98213005
v -0.012659226 -0.00054239586 -0.9822995
v -0.014161072 -0.0024972952 -0.9795753
v -0.015365905 -0.0006576197 -0.97710675
v -0.015186614 -0.001753544 -0.977162
v -0.014449234 -0.0006170694 -0.9767209
v -0.013635177 -0.0034713596 -0.9769632
v -0.012983856 -0.003642906 -0.979387
v -0.012411498 -0.0033916505 -0.98190606
v -0.014495239 -0.0033657115 -0.9764564
v -0.010757294 -0.0032448624 -0.9717342
v -0.015147095 -0.0006473393 -0.9762357
v -0.010844726 -0.0038067661 -0.97842175
v -0.010454482 -0.0039996756 -0.9807947
v -0.0061723324 -0.0049716593 -0.9867301
v -0.012546539 -0.0029691532 -0.98432386
v -0.012333221 -0.00052904425 -0.983629
v -0.0071308133 -0.0025329632 -0.9766178
v -0.013476334 -0.0022036578 -0.9861036
v -0.01347229 -0.0005805994 -0.98574483
v -0.016338196 -0.00070713286 -0.9865405
v -0.009517364 -0.0029672831 -0.98934615
v -0.014197769 -0.0006159228 -0.9905769
v -0.009286728 -0.00040361506 -0.9954897
v -0.0049555968 -0.003986093 -0.99223393
v -0.0029299925 -0.0023607453 -0.99570835
v -0 -6.13363E-17 -1.0016979
v 0.0007887268 -0.0036971872 -0.99108654
v 0.004599075 -0.002502595 -0.9947022
v 0.004010543 0.00017724975 -1.0003605
v 0.011181411 0.0004967296 -0.9942274
v 0.010489655 -0.0014227314 -0.9895364
v 0.0136640165 0.00060893816 -0.98998594
v 0.018080218 0.0008085218 -0.9822874
v 0.01301506 -0.0018542705 -0.9801881
v 0.004697036 -0.002721102 -0.9886818
v 0.0013604736 -0.0019973398 -0.98595494
v 0.008444442 -0.002330592 -0.98485523
v -0.0039920807 -0.0034021018 -0.98580796
v -0.006669464 -0.002351707 -0.98029727
v 0.01696373 -0.00074407976 -0.9770899
v 0.018126452 0.0008152157 -0.9757836
v 0.01782265 0.0008075851 -0.967814
v 0.0123933405 -0.0016236174 -0.965554
v 0.010209808 0.0004806064 -0.9572474
v 0.009027099 0.00042249096 -0.9657714
v 0.0063703917 0.00030026928 -0.97338295
v -0.0020454407 -7.637337E-05 -0.98285836
v -0.004933472 -0.0007654988 -0.98008573
v -0.0056978604 -0.0004647678 -0.97585964
v -0.0070056915 -0.00028660297 -0.9720436
v 0.0020830529 0.00010385231 -0.9845394
v -0.007698822 -0.00031132356 -0.9640748
v 0.006739349 -0.00038694678 -0.9832285
v 0.006228943 0.00028745338 -0.9826997
v 0.010811081 0.00049375114 -0.97572
v 0.006585922 -0.0014140921 -0.98280936
v 0.009869003 -0.0014303246 -0.9782418
v 0.011269226 -0.0015573924 -0.9757822
v 0.00994316 0.00045730127 -0.9734356
v 0.013758239 -0.0018767398 -0.97633016
v 0.009844435 -0.0013346528 -0.9731086
v -0.0074555967 -0.00023981972 -0.947696
v -0.007064285 -0.0015387242 -0.9476401
v -0.00951065 -0.00038281275 -0.95271236
v -0.0074237823 -0.0002862258 -0.94586957
v -0.0065576932 -0.0022766013 -0.9460113
v -0.0065380856 -0.00024546622 -0.94332725
v -0.0042435452 -0.0018877892 -0.9407853
v -0.00500206 -0.00017525732 -0.9396085
v -0.0013334656 -1.2732446E-05 -0.9377886
v -0.006949615 -0.0023330578 -0.9513043
v -0.005793762 -0.0029726308 -0.94735235
v -0.0027565765 -0.0018804442 -0.95021266
v -0.01043663 -0.0020973661 -0.95484287
v -0.009346771 -0.0024372938 -0.95624006
v -0.011779938 -0.0004843597 -0.95529294
v -0.014379653 -0.00060007826 -0.9572551
v -0.01266983 -0.0026746439 -0.9575079
v -0.014224014 -0.0024671622 -0.96047443
v -0.01665886 -0.0007036845 -0.9621172
v -0.016014557 -0.0014675009 -0.96536815
v -0.018887024 -0.0008054789 -0.96747327
v -0.012297973 -0.0023046746 -0.96426994
v -0.01773323 -0.0016492512 -0.97036624
v -0.018897247 -0.00080784346 -0.9701605
v -0.01858612 -0.00079763844 -0.97492635
v -0.01737793 -0.0022056242 -0.9742215
v -0.018174056 -0.00078112044 -0.9772347
v -0.015450287 -0.0028974775 -0.9700982
v -0.017764892 -0.0013112681 -0.9771343
v -0.014481048 -0.003982797 -0.9714792
v -0.016561432 -0.0020345917 -0.97661847
v -0.011426467 -0.0034624152 -0.96821415
v -0.009872817 -0.0016958488 -0.9642231
v -0.0074233245 -0.0021006842 -0.9593485
v -0.005766754 -0.00022349089 -0.9599675
v -0.004896698 -0.002114513 -0.956611
v -0.0037088012 -0.00013073697 -0.95668554
v -0.0020719909 -5.657986E-05 -0.95354474
v 0.0014567566 0.000100928555 -0.95019484
v -0.0003803253 -0.0018220417 -0.94767016
v 0.0011375427 8.8988105E-05 -0.947381
v -0.002630081 -0.0021606153 -0.94685626
v 1.6021728E-06 -0.0013919539 -0.9460323
v -0.0043626404 -0.0026665968 -0.94739884
v -0.004895172 -0.0031631368 -0.9472333
v -0.0020496368 -0.0033598035 -0.9466147
v -0.0025444792 -0.0029378794 -0.94245094
v 0.00029899596 -0.0030309777 -0.9397042
v 0.0015279388 -0.0014053432 -0.9474985
v 0.0027073664 0.0001580149 -0.9471717
v 0.004609145 0.00024275824 -0.94569045
v 0.0042305747 -0.0013938041 -0.945535
v 0.00725151 0.00036025062 -0.94375074
v 0.0010585785 -0.002674722 -0.9458965
v -0.00016349793 -0.0031336492 -0.9459442
v 0.0018980408 -0.0033471202 -0.94369704
v 0.00696907 -0.0014112187 -0.9433502
v 0.008507842 0.00041653618 -0.9422693
v 0.005164032 -0.0029654216 -0.9433027
v 0.008328322 -0.0013811782 -0.9407639
v 0.008925399 0.0004357621 -0.94104946
v 0.009350432 0.00045527398 -0.9397884
v 0.0045492547 -0.0034601307 -0.941781
v 0.006895981 -0.0025012305 -0.9416276
v 0.008603515 -0.00076140475 -0.93838257
v 0.008447189 0.00041693597 -0.9380134
v 0.007931289 0.0003950967 -0.9367451
v 0.006989975 -0.0024994188 -0.9397955
v 0.0066950987 -0.0016352184 -0.93858755
v 0.003944091 -0.0027352625 -0.9393987
v 0.0064191436 -0.0005030166 -0.93714035
v 0.0060874172 0.00031416788 -0.9366058
v 0.0027336876 0.00016652003 -0.9370041
v 0.0028618616 -0.0014676771 -0.93783575
v -0.00046562194 -0.0022093111 -0.9385793
vt -0.039981008 0.9475901
vt -0.037356913 0.94843745
vt -0.03805083 0.9509495
vt -0.03649497 0.9489141
vt -0.040732086 0.95006
vt -0.042610347 0.9468162
vt -0.042872548 0.94842774
vt -0.043657184 0.9473226
vt -0.04426056 0.9508693
vt -0.041051567 0.9518294
vt -0.0377388 0.952073
vt -0.045256495 0.950007
vt -0.04974675 0.95575947
vt -0.044276476 0.9468807
vt -0.042000294 0.9541818
vt -0.03905022 0.9545863
vt -0.03222269 0.9595972
vt -0.03464085 0.951866
vt -0.035202146 0.9490351
vt -0.043744206 0.95891815
vt -0.032146215 0.9506613
vt -0.032950282 0.949001
vt -0.030722499 0.94733834
vt -0.028979361 0.95556504
vt -0.026532292 0.9501113
vt -0.021307766 0.95557785
vt -0.026078999 0.9609531
vt -0.021714568 0.9629536
vt -0.014256656 0.9657673
vt -0.02704084 0.9675205
vt -0.022400498 0.9712855
vt -0.015314996 0.9703377
vt -0.020870686 0.9790239
vt -0.02673465 0.9787755
vt -0.024675071 0.9825542
vt -0.031127632 0.9893621
vt -0.036010206 0.9843968
vt -0.02917093 0.97247773
vt -0.033020914 0.9692006
vt -0.0325315 0.977789
vt -0.03343731 0.9625428
vt -0.039781213 0.9594799
vt -0.03694129 0.99002165
vt -0.036990047 0.9926713
vt -0.044454575 0.99735177
vt -0.050211847 0.9931769
vt -0.05908239 0.9977796
vt -0.05316609 0.9899372
vt -0.048445225 0.9824481
vt -0.037623286 0.96573377
vt -0.040333748 0.9621894
vt -0.044624746 0.9617947
vt -0.048752308 0.961177
vt -0.03584987 0.9702719
vt -0.059583127 0.96128523
vt -0.036596775 0.9756821
vt -0.037572205 0.9751622
vt -0.042936206 0.98287636
vt -0.03554952 0.9763389
vt -0.039468467 0.9819299
vt -0.041709542 0.9849262
vt -0.045128822 0.9835324
vt -0.03961754 0.9870953
vt -0.04543358 0.98553526
vt -0.06719893 0.9504994
vt -0.0703066 0.95515287
vt -0.07018435 0.9525657
vt -0.07343346 0.95412624
vt -0.06697309 0.9535628
vt -0.068956554 0.956955
vt -0.06350422 0.9524389
vt -0.061835647 0.9491392
vt -0.07545662 0.95759463
vt -0.058585227 0.95039356
vt -0.056781948 0.9469557
vt -0.059180915 0.9550788
vt -0.053385437 0.94781375
vt -0.054106236 0.9463127
vt -0.049130917 0.94507647
vt -0.049233437 0.94727606
vt -0.04646784 0.9447521
vt -0.079545975 0.95575416
vt -0.07945728 0.954159
vt -0.081410706 0.95370364
vt -0.08148366 0.95619
vt -0.08447319 0.95332766
vt -0.05291444 0.9507155
vt -0.046434402 0.94553405
vt -0.05085683 0.9517535
vt -0.046298623 0.94709355
vt -0.05432087 0.955541
vt -0.059387207 0.9581157
vt -0.06582433 0.9599609
vt -0.06546247 0.962979
vt -0.070034325 0.9617622
vt -0.070212305 0.96444315
vt -0.07442337 0.9651499
vt -0.07790673 0.96234334
vt -0.07948983 0.9679152
vt -0.08038682 0.9578937
vt -0.081715465 0.9646038
vt -0.08305031 0.96753436
vt -0.08073217 0.9596499
vt -0.081706166 0.96174216
vt -0.08099121 0.9588371
vt -0.083643615 0.9646724
vt -0.08318651 0.9614703
vt -0.086894035 0.95838
vt -0.091048956 0.95938915
vt -0.08788264 0.95547616
vt -0.08918217 0.95320225
vt -0.09328699 0.9552993
vt -0.09188807 0.95780337
vt -0.09505534 0.959796
vt -0.096832186 0.9585748
vt -0.09831321 0.96246445
vt -0.09920597 0.961754
vt -0.10001743 0.9636625
vt -0.09381986 0.9620702
vt -0.096681595 0.9637715
vt -0.09833169 0.96534
vt -0.099738896 0.9652403
vt -0.098749876 0.96750265
vt -0.09542072 0.964888
vt -0.09607649 0.96694845
vt -0.09743881 0.96857923
vt -0.09599155 0.96947354
vt -0.091917574 0.9642948
vt -0.09294665 0.9681894
vt -0.09345251 0.9701493
vt -0.093907475 0.96618426
vt -0.08828515 0.96353704
vt -0.09118146 0.96603835
vt -0.08858085 0.96789664
vt -0.08892566 0.9698983
vt -0.08491409 0.96305937
vt -0.08567786 0.9645873
vt -0.08466011 0.9668059
vt -0.085460246 0.96907574
vt 0.960019 0.9475901
vt 0.96194917 0.9509495
vt 0.9626431 0.94843745
vt 0.963505 0.9489141
vt 0.9592679 0.95006
vt 0.95738965 0.9468162
vt 0.95712745 0.94842774
vt 0.9563428 0.9473226
vt 0.95573944 0.9508693
vt 0.95894843 0.9518294
vt 0.9622612 0.952073
vt 0.9547435 0.950007
vt 0.95025325 0.95575947
vt 0.9557235 0.9468807
vt 0.9579997 0.9541818
vt 0.9609498 0.9545863
vt 0.9677773 0.9595972
vt 0.96535915 0.951866
vt 0.96479785 0.9490351
vt 0.9562558 0.95891815
vt 0.9678538 0.9506613
vt 0.9670497 0.949001
vt 0.9692775 0.94733834
vt 0.97102064 0.95556504
vt 0.9734677 0.9501113
vt 0.97869223 0.95557785
vt 0.973921 0.9609531
vt 0.97828543 0.9629536
vt 0.98574334 0.9657673
vt 0.97295916 0.9675205
vt 0.9775995 0.9712855
vt 0.984685 0.9703377
vt 0.9791293 0.9790239
vt 0.97326535 0.9787755
vt 0.9753249 0.9825542
vt 0.96887237 0.9893621
vt 0.9639898 0.9843968
vt 0.97082907 0.97247773
vt 0.9669791 0.9692006
vt 0.9674685 0.977789
vt 0.9665627 0.9625428
vt 0.9602188 0.9594799
vt 0.9630587 0.99002165
vt 0.96300995 0.9926713
vt 0.9555454 0.99735177
vt 0.94978815 0.9931769
vt 0.9409176 0.9977796
vt 0.9468339 0.9899372
vt 0.9515548 0.9824481
vt 0.9623767 0.96573377
vt 0.95966625 0.9621894
vt 0.95537525 0.9617947
vt 0.9512477 0.961177
vt 0.96415013 0.9702719
vt 0.9404169 0.96128523
vt 0.9634032 0.9756821
vt 0.9624278 0.9751622
vt 0.9570638 0.98287636
vt 0.9644505 0.9763389
vt 0.96053153 0.9819299
vt 0.95829046 0.9849262
vt 0.9548712 0.9835324
vt 0.96038246 0.9870953
vt 0.9545664 0.98553526
vt 0.9205427 0.954159
vt 0.920454 0.95575416
vt 0.92656654 0.95412624
vt 0.9185893 0.95370364
vt 0.91851634 0.95619
vt 0.9155268 0.95332766
vt 0.91211736 0.95547616
vt 0.91081786 0.95320225
vt 0.906713 0.9552993
vt 0.9245434 0.95759463
vt 0.9196132 0.9578937
vt 0.9220933 0.96234334
vt 0.9296934 0.95515287
vt 0.93104345 0.956955
vt 0.92981565 0.9525657
vt 0.93280107 0.9504994
vt 0.9330269 0.9535628
vt 0.9364958 0.9524389
vt 0.93816435 0.9491392
vt 0.9414148 0.95039356
vt 0.94321805 0.9469557
vt 0.9408191 0.9550788
vt 0.94661456 0.94781375
vt 0.94589376 0.9463127
vt 0.9508691 0.94507647
vt 0.95076656 0.94727606
vt 0.95353216 0.9447521
vt 0.94708556 0.9507155
vt 0.9535656 0.94553405
vt 0.9491432 0.9517535
vt 0.9537014 0.94709355
vt 0.9456791 0.955541
vt 0.9406128 0.9581157
vt 0.93417567 0.9599609
vt 0.93453753 0.962979
vt 0.9299657 0.9617622
vt 0.9297877 0.96444315
vt 0.9255766 0.9651499
vt 0.9205102 0.9679152
vt 0.91828454 0.9646038
vt 0.9169497 0.96753436
vt 0.91829383 0.96174216
vt 0.9163564 0.9646724
vt 0.91926783 0.9596499
vt 0.9190088 0.9588371
vt 0.9168135 0.9614703
vt 0.91310596 0.95838
vt 0.90895104 0.95938915
vt 0.9153399 0.9668059
vt 0.91453975 0.96907574
vt 0.91107434 0.9698983
vt 0.91141915 0.96789664
vt 0.9065475 0.9701493
vt 0.91432214 0.9645873
vt 0.9150859 0.96305937
vt 0.91171485 0.96353704
vt 0.90705335 0.9681894
vt 0.90400845 0.96947354
vt 0.90881854 0.96603835
vt 0.9039235 0.96694845
vt 0.9025612 0.96857923
vt 0.9012501 0.96750265
vt 0.9080824 0.9642948
vt 0.9060925 0.96618426
vt 0.9016683 0.96534
vt 0.9002611 0.9652403
vt 0.8999826 0.9636625
vt 0.9045793 0.964888
vt 0.9033184 0.9637715
vt 0.90618014 0.9620702
vt 0.9016868 0.96246445
vt 0.900794 0.961754
vt 0.90316784 0.9585748
vt 0.90494466 0.959796
vt 0.90811193 0.95780337
vn -0.94028324 0.081162095 -0.33057556
vn -0.82970107 0.06896433 -0.5539314
vn -0.72762156 0.35503328 -0.5869567
vn -0.9148539 -0.056572527 -0.3998023
vn -0.90091586 0.35375613 -0.25141048
vn -0.97539264 0.088568725 -0.2019026
vn -0.9617762 0.27350903 0.0133905
vn -0.98866326 0.14763604 -0.027359353
vn -0.31766492 0.9479797 0.020578701
vn -0.44191784 0.8947047 -0.0649018
vn -0.524393 0.8412999 -0.1312494
vn -0.35483715 0.8961492 -0.26647186
vn 0.3540065 0.93234384 0.073582225
vn -0.04448218 -0.030670498 -0.9985392
vn 0.11869968 0.99084586 0.064303786
vn 0.054351013 0.99125224 0.12027031
vn -0.07379284 0.99679106 0.031018615
vn -0.65865237 0.74933064 -0.068415776
vn -0.96750957 -0.08957279 0.23643577
vn 0.441964 0.8857511 0.14181899
vn -0.67582476 0.7370554 0.0032137982
vn -0.75648665 0.056149427 0.65159434
vn -0.49341443 0.8576024 -0.14512156
vn -0.44759777 0.84371394 -0.2963158
vn -0.4414485 0.84658074 -0.29736194
vn -0.4027265 0.80940306 -0.42740852
vn -0.22467633 0.91576403 -0.3330116
vn -0.19119063 0.886285 -0.42183527
vn -0.105886735 0.9064436 -0.40883735
vn 0.05535884 0.99645895 -0.06328474
vn 0.15797482 0.93885064 -0.30594692
vn 0.20804697 0.8757668 -0.43560165
vn 0.34621742 0.87557334 -0.33690497
vn 0.2752782 0.9441735 -0.18099207
vn 0.41879195 0.86880916 -0.2641665
vn 0.3560637 0.91943735 -0.16689382
vn 0.13360006 0.98931915 -0.058298837
vn 0.008620707 0.99520206 0.09746049
vn -0.016214406 0.8896391 0.4563763
vn -0.062127374 0.9951676 0.07603691
vn 0.32150993 0.8445566 0.42820022
vn 0.41437703 0.87606233 0.2465896
vn 0.4240094 0.90562755 -0.00740192
vn 0.73683923 0.67579144 0.01933833
vn 0.38957593 0.9072959 0.15825543
vn 0.058948614 0.97479147 0.21519007
vn 0.017123722 0.963294 0.26790178
vn -0.59265006 0.7930068 0.14108934
vn -0.533912 0.8442236 0.04716458
vn 0.35401398 0.75108683 0.55726355
vn 0.6248906 0.74426526 0.23575577
vn 0.67763823 0.711047 0.18766643
vn 0.5585225 0.812758 0.16576208
vn -0.19850492 0.34632406 0.9168726
vn 0.53637946 0.8295525 -0.15536982
vn -0.66652435 0.23790735 0.70650214
vn -0.7453525 0.42283085 0.5154257
vn -0.93589556 0.25464308 0.24342611
vn -0.3025985 0.87335634 0.38168404
vn -0.51781726 0.7995868 0.30418125
vn -0.31941804 0.94746107 0.017021336
vn -0.5443749 0.1121062 -0.83131707
vn 0.04956942 0.9985013 0.02319634
vn -0.3623889 0.93159366 -0.028417492
vn -0.70415366 0.49524498 0.508822
vn -0.5304877 0.68913513 0.49363497
vn -0.6365402 0.3864141 0.6674584
vn -0.74100816 0.45224264 0.49637032
vn -0.4920213 0.7778873 0.3909045
vn -0.05028492 0.9986903 -0.0094429115
vn -0.35384434 0.93284625 0.067765355
vn -0.65720385 0.7378258 0.15393533
vn -0.22043712 0.9748447 0.03294224
vn -0.38147277 0.9206163 0.08333112
vn -0.42083782 0.8967128 0.13712
vn -0.13415568 0.9872121 0.08610761
vn -0.5559178 0.82228136 0.12169105
vn -0.6569443 0.7535722 -0.023516282
vn -0.78319335 0.61896896 -0.059038006
vn -0.6215161 0.7788965 -0.08389256
vn -0.6746742 0.5725797 -0.46579733
vn -0.8838134 0.44296813 0.15050924
vn -0.94449025 0.22003168 0.24397597
vn -0.9363321 0.299664 0.18298548
vn -0.7025232 0.6739496 0.22858958
vn -0.82933474 0.424088 0.36380404
vn -0.46996158 0.83398896 0.28913403
vn -0.39452934 0.68800527 -0.60909384
vn -0.21007203 0.9771086 0.033596646
vn -0.42495978 0.74617255 -0.51248
vn 0.11543536 0.9764039 0.18251087
vn 0.21628152 0.9762632 -0.011510858
vn 0.29658568 0.91752017 -0.2649408
vn 0.5652538 0.7216017 -0.39972368
vn 0.33199832 0.91265714 -0.23839895
vn 0.6568684 0.59905565 -0.45788234
vn 0.55933845 0.77604693 -0.29136172
vn 0.21996745 0.9541887 -0.20282555
vn 0.4011727 0.86589104 -0.29881957
vn -0.15742195 0.97995317 -0.122106865
vn 0.351217 0.92666984 -0.13390188
vn 0.59258884 0.7099827 -0.3804775
vn 0.11312231 0.97213924 -0.2053017
vn 0.20825271 0.85767853 -0.47012585
vn -0.30020657 0.95204073 0.05911368
vn 0.12769587 0.73786384 -0.6627599
vn -0.1068768 0.9885589 -0.106436916
vn -0.24529628 0.96068245 0.13007315
vn -0.17669085 0.95971227 0.21847807
vn -0.562829 0.7104798 0.4224238
vn -0.57999223 0.57954824 0.5724796
vn -0.3647062 0.4437534 0.81857944
vn -0.31939217 0.59394366 0.7383898
vn -0.0836687 0.6174826 0.7821219
vn -0.14488783 0.45277888 0.87977207
vn 0.036614932 0.68128264 0.7311043
vn -0.07848333 0.55199045 0.8301487
vn 0.29532614 0.6809178 0.67017424
vn -0.008149379 0.87872595 0.47725695
vn 0.119458005 0.77876717 0.615834
vn 0.61228245 0.6733377 0.41439903
vn 0.9054698 0.08971865 0.41481924
vn 0.8798918 0.47509402 0.008718649
vn 0.29089358 0.9117454 0.2900022
vn 0.7354527 0.6587448 -0.15863378
vn 0.8588496 0.41645458 -0.2982332
vn 0.77699745 0.4466754 -0.44357207
vn 0.004677591 0.9975229 0.070186794
vn 0.60447544 0.4752108 -0.63936234
vn 0.6059631 0.29874757 -0.7372643
vn 0.4817617 0.85175085 -0.20597592
vn -0.11448022 0.99333835 -0.013163017
vn 0.30459103 0.83311224 -0.46167988
vn 0.47417393 0.49656627 -0.7270357
vn 0.5663902 0.29116514 -0.7709896
vn 0.24232735 0.66901296 -0.70263726
vn 0.1337597 0.79608697 -0.590215
vn 0.15735681 0.5131602 -0.8437449
vn 0.5303677 0.26048416 -0.80675775
vn -0.9295177 -0.16380352 -0.33040154
vn -0.69363445 -0.41834068 -0.5863978
vn -0.82041717 -0.14227667 -0.5537806
vn -0.91626805 -0.024469791 -0.39981756
vn -0.8663851 -0.43179902 -0.25085175
vn -0.9638515 -0.17407423 -0.20171368
vn -0.9340749 -0.35680887 0.013841841
vn -0.97190034 -0.23382577 -0.027116442
vn -0.2332825 -0.972161 0.021959795
vn -0.36170757 -0.9301199 -0.06359688
vn -0.44855338 -0.88425064 -0.13000272
vn -0.27482507 -0.9241988 -0.26519388
vn 0.43442607 -0.8975886 0.074891716
vn -0.046927065 0.02522088 -0.99857986
vn 0.2051525 -0.9765222 0.06570272
vn 0.14109175 -0.98249036 0.12167904
vn 0.013922154 -0.9993765 0.032449353
vn -0.5903738 -0.8043194 -0.06729791
vn -0.9716545 0.004700955 0.23635869
vn 0.5179517 -0.8433637 0.14305161
vn -0.6085494 -0.79350424 0.0043092724
vn -0.7486842 -0.12136648 0.65172243
vn -0.41626972 -0.8977862 -0.14387348
vn -0.37183705 -0.8801507 -0.29507947
vn -0.36546332 -0.88246334 -0.29613367
vn -0.33014667 -0.8422208 -0.42622465
vn -0.14345789 -0.93241906 -0.33168438
vn -0.11268723 -0.9002433 -0.4205516
vn -0.025937995 -0.91282284 -0.40753117
vn 0.1425584 -0.98785156 -0.061858036
vn 0.23974326 -0.92181087 -0.30461112
vn 0.28410885 -0.85475224 -0.43437392
vn 0.42171437 -0.8423107 -0.33566293
vn 0.35705867 -0.9166433 -0.17964998
vn 0.493408 -0.82910144 -0.2629435
vn 0.43535212 -0.88489807 -0.16560192
vn 0.21987295 -0.973868 -0.05689356
vn 0.095886186 -0.99046785 0.098890476
vn 0.06186443 -0.8869788 0.45764762
vn 0.02541432 -0.99667144 0.07746058
vn 0.39431968 -0.8124905 0.42938456
vn 0.48961523 -0.83598274 0.24780971
vn 0.5018228 -0.86494863 -0.0061379173
vn 0.793291 -0.6085054 0.020260176
vn 0.46767172 -0.8693857 0.15953581
vn 0.1442293 -0.96554995 0.21658991
vn 0.1015539 -0.9576888 0.26929337
vn -0.5208174 -0.84172994 0.14226721
vn -0.45780522 -0.88773423 0.04839717
vn 0.41849974 -0.7163386 0.5583162
vn 0.68776095 -0.6862352 0.23678263
vn 0.7373937 -0.648589 0.18863451
vn 0.6276505 -0.7603952 0.16689472
vn -0.16741766 -0.3610947 0.9173777
vn 0.60710925 -0.77950734 -0.1542297
vn -0.6431409 -0.2944393 0.7068771
vn -0.7054254 -0.48582837 0.5160871
vn -0.90997064 -0.33539537 0.24385129
vn -0.22484295 -0.895987 0.38295308
vn -0.44570524 -0.8414878 0.30536044
vn -0.23506813 -0.971805 0.018390011
vn -0.53238416 -0.16059709 -0.83112913
vn 0.1369627 -0.9902704 0.02461347
vn -0.27926654 -0.95983195 -0.027069576
vn -0.92156315 -0.30167776 0.24435984
vn -0.84155226 -0.51858246 0.15120228
vn -0.6985108 -0.51478356 0.49707195
vn -0.90643775 -0.3804029 0.18347804
vn -0.64070994 -0.7326481 0.22960304
vn -0.788948 -0.4947033 0.3644579
vn -0.49836838 -0.7564993 0.42348287
vn -0.52695674 -0.62736386 0.5733509
vn -0.32442948 -0.47285858 0.8192377
vn -0.1340744 -0.99037594 0.034345824
vn -0.07083343 -0.9901584 -0.12070173
vn 0.30282018 -0.9315099 -0.20146807
vn -0.4680125 -0.73230875 0.4946596
vn 0.03752477 -0.9992636 -0.0080087315
vn -0.6002367 -0.43979374 0.66805506
vn -0.658028 -0.5543703 0.50958097
vn -0.4219102 -0.8174862 0.3920561
vn -0.2706437 -0.96019566 0.06911092
vn -0.5899653 -0.7924056 0.15503009
vn -0.29923734 -0.95041513 0.084665015
vn -0.34053373 -0.9299874 0.13842046
vn -0.047056217 -0.99505013 0.087526955
vn -0.48164123 -0.8677065 0.122910745
vn -0.58827424 -0.8083515 -0.022388058
vn -0.7258401 -0.68540466 -0.058108993
vn -0.55078757 -0.83053476 -0.082735114
vn -0.62177396 -0.6302364 -0.46497226
vn -0.3950302 -0.87156975 0.29037434
vn -0.33260295 -0.72082204 -0.60810435
vn -0.12353958 -0.99172217 0.035001818
vn -0.3578067 -0.7812994 -0.51141524
vn 0.20062748 -0.96225166 0.18390313
vn 0.3010906 -0.95354176 -0.0101378225
vn 0.3759542 -0.88834125 -0.26364413
vn 0.62641364 -0.66979086 -0.3987307
vn 0.41079152 -0.8803576 -0.23710944
vn 0.706911 -0.5397833 -0.45706743
vn 0.6252605 -0.7244241 -0.29027408
vn 0.4756054 -0.8277945 -0.29758337
vn 0.4311746 -0.8924728 -0.1325926
vn 0.6526282 -0.6557959 -0.3794841
vn 0.28272325 -0.836782 -0.46889603
vn 0.19196081 -0.7247531 -0.6617281
vn 0.19796361 -0.95876217 -0.20392546
vn -0.21554263 -0.97461885 0.060494132
vn -0.01973054 -0.9942731 -0.10503106
vn -0.16008835 -0.97831136 0.13144761
vn -0.09183992 -0.97119856 0.21986096
vn 0.20180342 -0.4985878 -0.8430217
vn 0.55122954 -0.21409929 -0.8064165
vn 0.58980185 -0.24144632 -0.77060854
vn 0.5159549 -0.4540911 -0.7263552
vn 0.6298827 -0.24547403 -0.7368787
vn 0.20311712 -0.7821326 -0.5890772
vn 0.30009398 -0.64622766 -0.70166475
vn -0.02690027 -0.999569 -0.011752272
vn 0.6438792 -0.4212528 -0.6387219
vn 0.81322336 -0.37741604 -0.4429728
vn 0.37652096 -0.80384743 -0.46050104
vn 0.7904156 -0.59191054 -0.15775035
vn 0.89208186 -0.33994037 -0.29770878
vn 0.91817707 -0.39606062 0.009319674
vn 0.09216518 -0.993166 0.07160284
vn 0.5546451 -0.8064996 -0.20476142
vn 0.66897124 -0.6164362 0.41531163
vn 0.90982366 -0.009305214 0.41489077
vn 0.35389864 -0.6514181 0.67112607
vn 0.36974317 -0.8822969 0.2912768
vn 0.1872728 -0.7644101 0.61693275
vn 0.06895452 -0.87536526 0.4785195
vn 0.09618483 -0.67440045 0.73207414
vn -0.029814841 -0.55558455 0.8309254
vn -0.10467037 -0.46248078 0.8804293
vn -0.029227259 -0.62131405 0.7830163
vn -0.26611856 -0.6185841 0.7392798
g S_wpn_misc_0036_02_lod0_0
f 3/3/3 2/2/2 1/1/1
f 4/4/4 2/2/2 3/3/3
f 5/5/5 3/3/3 1/1/1
f 5/5/5 1/1/1 6/6/6
f 7/7/7 5/5/5 6/6/6
f 6/6/6 8/8/8 7/7/7
f 7/7/7 9/9/9 5/5/5
f 8/8/8 9/9/9 7/7/7
f 5/5/5 10/10/10 3/3/3
f 10/10/10 5/5/5 9/9/9
f 3/3/3 11/11/11 4/4/4
f 10/10/10 11/11/11 3/3/3
f 9/9/9 8/8/8 12/12/12
f 13/13/13 9/9/9 12/12/12
f 12/12/12 8/8/8 14/14/14
f 15/15/15 10/10/10 9/9/9
f 9/9/9 13/13/13 15/15/15
f 15/15/15 16/16/16 10/10/10
f 10/10/10 16/16/16 11/11/11
f 17/17/17 11/11/11 16/16/16
f 18/18/18 4/4/4 11/11/11
f 11/11/11 17/17/17 18/18/18
f 18/18/18 19/19/19 4/4/4
f 15/15/15 20/20/20 16/16/16
f 15/15/15 13/13/13 20/20/20
f 18/18/18 21/21/21 19/19/19
f 21/21/21 22/22/22 19/19/19
f 21/21/21 23/23/23 22/22/22
f 21/21/21 18/18/18 24/24/24
f 21/21/21 24/24/24 23/23/23
f 24/24/24 18/18/18 17/17/17
f 23/23/23 24/24/24 25/25/25
f 25/25/25 24/24/24 26/26/26
f 24/24/24 27/27/27 26/26/26
f 17/17/17 27/27/27 24/24/24
f 26/26/26 27/27/27 28/28/28
f 26/26/26 28/28/28 29/29/29
f 30/30/30 28/28/28 27/27/27
f 30/30/30 27/27/27 17/17/17
f 31/31/31 29/29/29 28/28/28
f 31/31/31 28/28/28 30/30/30
f 32/32/32 29/29/29 31/31/31
f 33/33/33 32/32/32 31/31/31
f 34/34/34 33/33/33 31/31/31
f 34/34/34 35/35/35 33/33/33
f 34/34/34 36/36/36 35/35/35
f 36/36/36 34/34/34 37/37/37
f 34/34/34 31/31/31 38/38/38
f 30/30/30 38/38/38 31/31/31
f 38/38/38 30/30/30 39/39/39
f 40/40/40 34/34/34 38/38/38
f 40/40/40 37/37/37 34/34/34
f 38/38/38 39/39/39 40/40/40
f 41/41/41 30/30/30 17/17/17
f 30/30/30 41/41/41 39/39/39
f 17/17/17 42/42/42 41/41/41
f 17/17/17 16/16/16 42/42/42
f 20/20/20 42/42/42 16/16/16
f 37/37/37 43/43/43 36/36/36
f 43/43/43 44/44/44 36/36/36
f 43/43/43 45/45/45 44/44/44
f 46/46/46 45/45/45 43/43/43
f 47/47/47 45/45/45 46/46/46
f 48/48/48 47/47/47 46/46/46
f 48/48/48 46/46/46 49/49/49
f 41/41/41 50/50/50 39/39/39
f 41/41/41 42/42/42 50/50/50
f 51/51/51 50/50/50 42/42/42
f 52/52/52 51/51/51 42/42/42
f 20/20/20 52/52/52 42/42/42
f 20/20/20 53/53/53 52/52/52
f 20/20/20 13/13/13 53/53/53
f 50/50/50 54/54/54 39/39/39
f 55/55/55 53/53/53 13/13/13
f 39/39/39 54/54/54 56/56/56
f 57/57/57 56/56/56 54/54/54
f 57/57/57 58/58/58 56/56/56
f 59/59/59 39/39/39 56/56/56
f 39/39/39 59/59/59 40/40/40
f 40/40/40 59/59/59 37/37/37
f 59/59/59 56/56/56 60/60/60
f 58/58/58 60/60/60 56/56/56
f 59/59/59 60/60/60 37/37/37
f 60/60/60 58/58/58 61/61/61
f 60/60/60 61/61/61 37/37/37
f 61/61/61 58/58/58 62/62/62
f 63/63/63 37/37/37 61/61/61
f 63/63/63 43/43/43 37/37/37
f 43/43/43 63/63/63 46/46/46
f 63/63/63 61/61/61 46/46/46
f 64/64/64 61/61/61 62/62/62
f 61/61/61 64/64/64 46/46/46
f 49/49/49 64/64/64 62/62/62
f 46/46/46 64/64/64 49/49/49
f 67/67/67 66/66/66 65/65/65
f 67/67/67 68/68/68 66/66/66
f 66/66/66 69/69/69 65/65/65
f 66/66/66 70/70/70 69/69/69
f 71/71/71 65/65/65 69/69/69
f 71/71/71 69/69/69 70/70/70
f 71/71/71 72/72/72 65/65/65
f 66/66/66 68/68/68 73/73/73
f 70/70/70 66/66/66 73/73/73
f 72/72/72 71/71/71 74/74/74
f 72/72/72 74/74/74 75/75/75
f 74/74/74 71/71/71 76/76/76
f 70/70/70 76/76/76 71/71/71
f 74/74/74 77/77/77 75/75/75
f 74/74/74 76/76/76 77/77/77
f 77/77/77 78/78/78 75/75/75
f 77/77/77 79/79/79 78/78/78
f 80/80/80 79/79/79 77/77/77
f 79/79/79 80/80/80 81/81/81
f 68/68/68 82/82/82 73/73/73
f 82/82/82 68/68/68 83/83/83
f 82/82/82 83/83/83 84/84/84
f 85/85/85 82/82/82 84/84/84
f 85/85/85 84/84/84 86/86/86
f 76/76/76 87/87/87 77/77/77
f 77/77/77 87/87/87 80/80/80
f 80/80/80 88/88/88 81/81/81
f 14/14/14 81/81/81 88/88/88
f 87/87/87 89/89/89 80/80/80
f 88/88/88 80/80/80 89/89/89
f 88/88/88 90/90/90 14/14/14
f 90/90/90 88/88/88 89/89/89
f 90/90/90 12/12/12 14/14/14
f 89/89/89 12/12/12 90/90/90
f 12/12/12 89/89/89 13/13/13
f 91/91/91 89/89/89 87/87/87
f 91/91/91 13/13/13 89/89/89
f 87/87/87 76/76/76 91/91/91
f 91/91/91 55/55/55 13/13/13
f 76/76/76 92/92/92 91/91/91
f 91/91/91 92/92/92 55/55/55
f 70/70/70 92/92/92 76/76/76
f 55/55/55 92/92/92 93/93/93
f 93/93/93 92/92/92 70/70/70
f 94/94/94 55/55/55 93/93/93
f 95/95/95 93/93/93 70/70/70
f 94/94/94 93/93/93 95/95/95
f 96/96/96 94/94/94 95/95/95
f 97/97/97 96/96/96 95/95/95
f 97/97/97 95/95/95 98/98/98
f 73/73/73 95/95/95 70/70/70
f 95/95/95 73/73/73 98/98/98
f 97/97/97 98/98/98 99/99/99
f 73/73/73 100/100/100 98/98/98
f 82/82/82 100/100/100 73/73/73
f 100/100/100 82/82/82 85/85/85
f 99/99/99 98/98/98 101/101/101
f 102/102/102 99/99/99 101/101/101
f 100/100/100 103/103/103 98/98/98
f 98/98/98 104/104/104 101/101/101
f 98/98/98 103/103/103 104/104/104
f 100/100/100 105/105/105 103/103/103
f 85/85/85 105/105/105 100/100/100
f 104/104/104 103/103/103 105/105/105
f 101/101/101 106/106/106 102/102/102
f 104/104/104 106/106/106 101/101/101
f 104/104/104 105/105/105 107/107/107
f 104/104/104 107/107/107 106/106/106
f 108/108/108 105/105/105 85/85/85
f 108/108/108 107/107/107 105/105/105
f 107/107/107 108/108/108 109/109/109
f 85/85/85 110/110/110 108/108/108
f 108/108/108 110/110/110 109/109/109
f 85/85/85 86/86/86 110/110/110
f 86/86/86 111/111/111 110/110/110
f 110/110/110 111/111/111 112/112/112
f 110/110/110 112/112/112 113/113/113
f 110/110/110 113/113/113 109/109/109
f 113/113/113 112/112/112 114/114/114
f 109/109/109 113/113/113 114/114/114
f 112/112/112 115/115/115 114/114/114
f 114/114/114 115/115/115 116/116/116
f 115/115/115 117/117/117 116/116/116
f 116/116/116 117/117/117 118/118/118
f 119/119/119 114/114/114 116/116/116
f 119/119/119 109/109/109 114/114/114
f 120/120/120 116/116/116 118/118/118
f 116/116/116 120/120/120 119/119/119
f 120/120/120 118/118/118 121/121/121
f 118/118/118 122/122/122 121/121/121
f 123/123/123 121/121/121 122/122/122
f 119/119/119 120/120/120 124/124/124
f 120/120/120 121/121/121 124/124/124
f 121/121/121 123/123/123 125/125/125
f 121/121/121 125/125/125 124/124/124
f 125/125/125 123/123/123 126/126/126
f 125/125/125 126/126/126 127/127/127
f 128/128/128 109/109/109 119/119/119
f 124/124/124 128/128/128 119/119/119
f 129/129/129 125/125/125 127/127/127
f 129/129/129 127/127/127 130/130/130
f 131/131/131 124/124/124 125/125/125
f 128/128/128 124/124/124 131/131/131
f 129/129/129 131/131/131 125/125/125
f 128/128/128 132/132/132 109/109/109
f 132/132/132 107/107/107 109/109/109
f 133/133/133 128/128/128 131/131/131
f 133/133/133 131/131/131 129/129/129
f 133/133/133 132/132/132 128/128/128
f 129/129/129 130/130/130 134/134/134
f 134/134/134 133/133/133 129/129/129
f 130/130/130 135/135/135 134/134/134
f 132/132/132 136/136/136 107/107/107
f 136/136/136 106/106/106 107/107/107
f 133/133/133 137/137/137 132/132/132
f 137/137/137 136/136/136 132/132/132
f 133/133/133 134/134/134 137/137/137
f 137/137/137 106/106/106 136/136/136
f 134/134/134 135/135/135 138/138/138
f 134/134/134 138/138/138 137/137/137
f 137/137/137 138/138/138 106/106/106
f 135/135/135 139/139/139 138/138/138
f 102/102/102 106/106/106 138/138/138
f 138/138/138 139/139/139 102/102/102
f 142/142/142 141/141/141 140/140/140
f 142/142/142 143/143/143 141/141/141
f 141/141/141 144/144/144 140/140/140
f 140/140/140 144/144/144 145/145/145
f 144/144/144 146/146/146 145/145/145
f 147/147/147 145/145/145 146/146/146
f 148/148/148 146/146/146 144/144/144
f 148/148/148 147/147/147 146/146/146
f 149/149/149 144/144/144 141/141/141
f 144/144/144 149/149/149 148/148/148
f 150/150/150 141/141/141 143/143/143
f 150/150/150 149/149/149 141/141/141
f 147/147/147 148/148/148 151/151/151
f 148/148/148 152/152/152 151/151/151
f 147/147/147 151/151/151 153/153/153
f 149/149/149 154/154/154 148/148/148
f 152/152/152 148/148/148 154/154/154
f 155/155/155 154/154/154 149/149/149
f 155/155/155 149/149/149 150/150/150
f 150/150/150 156/156/156 155/155/155
f 143/143/143 157/157/157 150/150/150
f 156/156/156 150/150/150 157/157/157
f 158/158/158 157/157/157 143/143/143
f 159/159/159 154/154/154 155/155/155
f 152/152/152 154/154/154 159/159/159
f 160/160/160 157/157/157 158/158/158
f 161/161/161 160/160/160 158/158/158
f 162/162/162 160/160/160 161/161/161
f 157/157/157 160/160/160 163/163/163
f 163/163/163 160/160/160 162/162/162
f 157/157/157 163/163/163 156/156/156
f 163/163/163 162/162/162 164/164/164
f 163/163/163 164/164/164 165/165/165
f 166/166/166 163/163/163 165/165/165
f 166/166/166 156/156/156 163/163/163
f 166/166/166 165/165/165 167/167/167
f 167/167/167 165/165/165 168/168/168
f 167/167/167 169/169/169 166/166/166
f 166/166/166 169/169/169 156/156/156
f 168/168/168 170/170/170 167/167/167
f 167/167/167 170/170/170 169/169/169
f 168/168/168 171/171/171 170/170/170
f 171/171/171 172/172/172 170/170/170
f 172/172/172 173/173/173 170/170/170
f 174/174/174 173/173/173 172/172/172
f 175/175/175 173/173/173 174/174/174
f 173/173/173 175/175/175 176/176/176
f 170/170/170 173/173/173 177/177/177
f 177/177/177 169/169/169 170/170/170
f 169/169/169 177/177/177 178/178/178
f 173/173/173 179/179/179 177/177/177
f 176/176/176 179/179/179 173/173/173
f 178/178/178 177/177/177 179/179/179
f 169/169/169 180/180/180 156/156/156
f 180/180/180 169/169/169 178/178/178
f 181/181/181 156/156/156 180/180/180
f 155/155/155 156/156/156 181/181/181
f 181/181/181 159/159/159 155/155/155
f 182/182/182 176/176/176 175/175/175
f 183/183/183 182/182/182 175/175/175
f 184/184/184 182/182/182 183/183/183
f 184/184/184 185/185/185 182/182/182
f 184/184/184 186/186/186 185/185/185
f 186/186/186 187/187/187 185/185/185
f 185/185/185 187/187/187 188/188/188
f 189/189/189 180/180/180 178/178/178
f 181/181/181 180/180/180 189/189/189
f 189/189/189 190/190/190 181/181/181
f 190/190/190 191/191/191 181/181/181
f 191/191/191 159/159/159 181/181/181
f 192/192/192 159/159/159 191/191/191
f 152/152/152 159/159/159 192/192/192
f 193/193/193 189/189/189 178/178/178
f 192/192/192 194/194/194 152/152/152
f 193/193/193 178/178/178 195/195/195
f 195/195/195 196/196/196 193/193/193
f 197/197/197 196/196/196 195/195/195
f 178/178/178 198/198/198 195/195/195
f 198/198/198 178/178/178 179/179/179
f 198/198/198 179/179/179 176/176/176
f 195/195/195 198/198/198 199/199/199
f 199/199/199 197/197/197 195/195/195
f 199/199/199 198/198/198 176/176/176
f 197/197/197 199/199/199 200/200/200
f 200/200/200 199/199/199 176/176/176
f 197/197/197 200/200/200 201/201/201
f 176/176/176 202/202/202 200/200/200
f 182/182/182 202/202/202 176/176/176
f 202/202/202 182/182/182 185/185/185
f 200/200/200 202/202/202 185/185/185
f 200/200/200 203/203/203 201/201/201
f 203/203/203 200/200/200 185/185/185
f 203/203/203 188/188/188 201/201/201
f 203/203/203 185/185/185 188/188/188
f 206/206/206 205/205/205 204/204/204
f 204/204/204 205/205/205 207/207/207
f 205/205/205 208/208/208 207/207/207
f 207/207/207 208/208/208 209/209/209
f 209/209/209 208/208/208 210/210/210
f 211/211/211 209/209/209 210/210/210
f 211/211/211 210/210/210 212/212/212
f 205/205/205 206/206/206 213/213/213
f 205/205/205 214/214/214 208/208/208
f 214/214/214 205/205/205 213/213/213
f 214/214/214 213/213/213 215/215/215
f 206/206/206 216/216/216 213/213/213
f 216/216/216 217/217/217 213/213/213
f 206/206/206 218/218/218 216/216/216
f 216/216/216 218/218/218 219/219/219
f 220/220/220 216/216/216 219/219/219
f 217/217/217 216/216/216 220/220/220
f 219/219/219 221/221/221 220/220/220
f 220/220/220 221/221/221 217/217/217
f 222/222/222 221/221/221 219/219/219
f 221/221/221 222/222/222 223/223/223
f 223/223/223 222/222/222 224/224/224
f 221/221/221 223/223/223 225/225/225
f 225/225/225 217/217/217 221/221/221
f 226/226/226 223/223/223 224/224/224
f 225/225/225 223/223/223 226/226/226
f 227/227/227 226/226/226 224/224/224
f 228/228/228 226/226/226 227/227/227
f 228/228/228 229/229/229 226/226/226
f 229/229/229 228/228/228 230/230/230
f 231/231/231 225/225/225 226/226/226
f 231/231/231 226/226/226 229/229/229
f 232/232/232 229/229/229 230/230/230
f 230/230/230 153/153/153 232/232/232
f 233/233/233 231/231/231 229/229/229
f 229/229/229 232/232/232 233/233/233
f 234/234/234 232/232/232 153/153/153
f 232/232/232 234/234/234 233/233/233
f 151/151/151 234/234/234 153/153/153
f 151/151/151 233/233/233 234/234/234
f 233/233/233 151/151/151 152/152/152
f 233/233/233 235/235/235 231/231/231
f 152/152/152 235/235/235 233/233/233
f 225/225/225 231/231/231 235/235/235
f 194/194/194 235/235/235 152/152/152
f 236/236/236 225/225/225 235/235/235
f 236/236/236 235/235/235 194/194/194
f 236/236/236 217/217/217 225/225/225
f 236/236/236 194/194/194 237/237/237
f 236/236/236 237/237/237 217/217/217
f 194/194/194 238/238/238 237/237/237
f 237/237/237 239/239/239 217/217/217
f 237/237/237 238/238/238 239/239/239
f 239/239/239 213/213/213 217/217/217
f 238/238/238 240/240/240 239/239/239
f 240/240/240 241/241/241 239/239/239
f 213/213/213 239/239/239 215/215/215
f 239/239/239 241/241/241 215/215/215
f 215/215/215 241/241/241 242/242/242
f 215/215/215 242/242/242 243/243/243
f 242/242/242 244/244/244 243/243/243
f 245/245/245 215/215/215 243/243/243
f 246/246/246 243/243/243 244/244/244
f 246/246/246 245/245/245 243/243/243
f 247/247/247 215/215/215 245/245/245
f 247/247/247 214/214/214 215/215/215
f 248/248/248 214/214/214 247/247/247
f 247/247/247 245/245/245 248/248/248
f 248/248/248 208/208/208 214/214/214
f 248/248/248 245/245/245 249/249/249
f 249/249/249 245/245/245 246/246/246
f 248/248/248 250/250/250 208/208/208
f 249/249/249 250/250/250 248/248/248
f 250/250/250 249/249/249 251/251/251
f 210/210/210 208/208/208 250/250/250
f 210/210/210 250/250/250 251/251/251
f 246/246/246 244/244/244 252/252/252
f 253/253/253 252/252/252 244/244/244
f 253/253/253 254/254/254 252/252/252
f 254/254/254 255/255/255 252/252/252
f 254/254/254 256/256/256 255/255/255
f 252/252/252 257/257/257 246/246/246
f 252/252/252 255/255/255 257/257/257
f 246/246/246 258/258/258 249/249/249
f 246/246/246 257/257/257 258/258/258
f 258/258/258 259/259/259 249/249/249
f 258/258/258 257/257/257 259/259/259
f 249/249/249 259/259/259 251/251/251
f 256/256/256 260/260/260 255/255/255
f 261/261/261 260/260/260 256/256/256
f 255/255/255 262/262/262 257/257/257
f 257/257/257 262/262/262 259/259/259
f 262/262/262 255/255/255 260/260/260
f 263/263/263 260/260/260 261/261/261
f 264/264/264 263/263/263 261/261/261
f 265/265/265 263/263/263 264/264/264
f 259/259/259 262/262/262 266/266/266
f 259/259/259 266/266/266 251/251/251
f 267/267/267 262/262/262 260/260/260
f 267/267/267 260/260/260 263/263/263
f 266/266/266 262/262/262 267/267/267
f 265/265/265 268/268/268 263/263/263
f 268/268/268 265/265/265 269/269/269
f 269/269/269 270/270/270 268/268/268
f 271/271/271 267/267/267 263/263/263
f 271/271/271 266/266/266 267/267/267
f 263/263/263 268/268/268 271/271/271
f 270/270/270 272/272/272 268/268/268
f 268/268/268 272/272/272 271/271/271
f 266/266/266 271/271/271 273/273/273
f 272/272/272 273/273/273 271/271/271
f 251/251/251 266/266/266 273/273/273
f 274/274/274 272/272/272 270/270/270
f 272/272/272 274/274/274 273/273/273
f 275/275/275 274/274/274 270/270/270
f 275/275/275 276/276/276 274/274/274
f 277/277/277 273/273/273 274/274/274
f 276/276/276 277/277/277 274/274/274
f 251/251/251 273/273/273 277/277/277
f 276/276/276 212/212/212 277/277/277
f 278/278/278 251/251/251 277/277/277
f 212/212/212 278/278/278 277/277/277
f 278/278/278 210/210/210 251/251/251
f 212/212/212 210/210/210 278/278/278
