g S_wpn_funnel_0011_02_lod0
v 0.0060261814 0.006026185 0.023136666
v 0.0062127314 3.900728E-09 0.023942497
v -0 4.05129E-09 0.024866637
v -0 0.0062127355 0.023942497
v 0.012572176 0.0056263297 0.020483395
v 0.012927223 3.4389052E-09 0.021107849
v 0.017118892 0.005418145 0.017074032
v 0.017590215 2.8584932E-09 0.017545303
v 0.021150174 2.0988193E-09 0.01288246
v 0.020525524 0.005626328 0.012528062
v 0.02398164 1.005433E-09 0.006171304
v 0.01569493 0.011108279 0.01565156
v 0.011649973 0.011649975 0.01841479
v 0.023173923 0.0060261814 0.0059846537
v 0.024866642 0 0
v 0.01845826 0.011649973 0.011611078
v 0.005626277 0.012572179 0.020483395
v 0.014364715 0.014364716 0.014318208
v 0.011108327 0.01569493 0.015651558
v 0.02398164 0.006212731 -4.396523E-05
v 0.020525524 0.012572178 0.005584896
v 0.01569493 0.01569493 0.011070776
v 0.011649973 0.01845826 0.011611078
v 0.023107277 0.0060060387 -0.0060060397
v 0.02391241 -1.0087469E-09 -0.006191644
v 0.020459082 0.005607475 -0.012528215
v 0.021082487 -2.09873E-09 -0.012881913
v 0.01706175 0.005400087 -0.01706175
v 0.01753173 -2.8562812E-09 -0.017531727
v 0.012881914 -3.434773E-09 -0.021082487
v 0.012528215 0.0056074737 -0.020459082
v 0.0061916946 -3.8958254E-09 -0.023912407
v 0.015641766 0.0110746045 -0.015641766
v 0.018398132 0.011613464 -0.011613469
v 0.020459082 0.012528209 -0.0056074797
v 0.0060060397 0.0060060364 -0.023107275
v -0 -4.05129E-09 -0.024866637
v -0 0.00619164 -0.023912407
v 0.011613469 0.011613464 -0.018398132
v 0.0143145835 0.014314579 -0.014314584
v 0.0056074774 0.012528208 -0.020459082
v 0.021150174 0.012927221 -4.3966324E-05
v 0.015641766 0.015641762 -0.011074609
v 0.011074608 0.01564176 -0.015641766
v 0.017118892 0.017118892 0.0053763143
v 0.01706175 0.017061748 -0.0054000923
v 0.011613469 0.01839813 -0.01161342
v 0.012572176 0.020525523 0.0055848947
v 0.017590215 0.017590214 -4.3967088E-05
v 0.012927223 0.021150172 -4.396767E-05
v 0.012528215 0.020459076 -0.0056074806
v 0.0062127314 0.023981638 -4.3968124E-05
v 0.0060261814 0.02317392 0.005984651
v -0 0.024866637 -4.05129E-09
v 0.0060060397 0.023107274 -0.006006043
v 0.0056074774 0.020459076 -0.012528216
v 0.005626277 0.020525523 0.012528059
v -0 0.023912407 -0.0061916984
v 0.00540009 0.017061744 -0.017061751
v -0 0.023981638 0.006171299
v 0.005418143 0.017118894 0.01707403
v -0 0.021082481 -0.012881916
v -0 0.01288191 -0.021082489
v -0 0.021150174 0.012882458
v -0 0.012927224 0.021107847
v -0 0.017531725 -0.01753173
v -0.00540009 0.017061744 -0.017061751
v -0.0056074774 0.020459076 -0.012528216
v -0.0056074774 0.012528208 -0.020459082
v -0 0.017590215 0.017545301
v -0.005418143 0.017118894 0.01707403
v -0.005626326 0.012572179 0.020483395
v -0.005626277 0.020525523 0.012528059
v -0.0060060397 0.023107274 -0.006006043
v -0.011074608 0.01564176 -0.015641766
v -0.0060261814 0.02317392 0.005984651
v -0.011108327 0.01569493 0.015651558
v -0.0060261814 0.006026185 0.023136666
v -0 4.05129E-09 0.024866637
v -0.0062127314 3.900728E-09 0.023942497
v -0.011649973 0.011649975 0.01841479
v -0.011649973 0.01845826 0.011611078
v -0.0062127314 0.023981638 -4.3968124E-05
v -0.012572176 0.0056263297 0.020483395
v -0.014364715 0.014364716 0.014318208
v -0.012572176 0.020525523 0.0055848947
v -0.01569493 0.011108279 0.01565156
v -0.01569493 0.01569493 0.011070776
v -0.01845826 0.011649973 0.011611078
v -0.012528215 0.020459076 -0.0056074806
v -0.012927223 0.021150172 -4.396767E-05
v -0.017118892 0.017118892 0.0053763143
v -0.020525524 0.012572178 0.0055848467
v -0.011613469 0.01839813 -0.0116134705
v -0.020525524 0.0056262785 0.012528062
v -0.023173923 0.0060261814 0.0059846537
v -0.017118892 0.005418145 0.017074032
v -0.012927223 3.4389052E-09 0.021107849
v -0.021150174 0.012927221 -4.3966324E-05
v -0.02398164 0.006212731 -4.396523E-05
v -0.017590215 0.017590214 -4.3967088E-05
v -0.01706175 0.017061748 -0.0054000923
v -0.020459082 0.012528209 -0.0056074797
v -0.015641766 0.015641762 -0.011074609
v -0.0143145835 0.014314579 -0.014314584
v -0.018398132 0.011613464 -0.011613469
v -0.023107277 0.0060060387 -0.0060060397
v -0.024866642 0 0
v -0.011613469 0.011613464 -0.018398132
v -0.015641766 0.0110746045 -0.015641766
v -0.020459082 0.005607475 -0.012528215
v -0.0060060397 0.0060060364 -0.023107275
v -0 -4.05129E-09 -0.024866637
v -0.0061916444 -3.8958254E-09 -0.023912407
v -0.012528215 0.0056074737 -0.020459082
v -0.01706175 0.005400087 -0.01706175
v -0.02391241 -1.008755E-09 -0.006191694
v -0.012881914 -3.434773E-09 -0.021082487
v -0.021082487 -2.09873E-09 -0.012881913
v -0.01753173 -2.8562812E-09 -0.017531727
v -0.01706175 -0.0054000923 -0.017061748
v -0.012528215 -0.0056074806 -0.020459076
v -0.020459082 -0.0056074797 -0.012528209
v -0.023107277 -0.0060060397 -0.0060060387
v -0.015641766 -0.011074609 -0.015641762
v -0.0060060397 -0.006006043 -0.023107274
v -0 -4.05129E-09 -0.024866637
v -0 -0.0061916485 -0.023912407
v -0.011613469 -0.01161342 -0.01839813
v -0.018398132 -0.011613469 -0.011613464
v -0.0056074774 -0.012528216 -0.020459076
v -0.0143145835 -0.014314584 -0.014314579
v -0.011074608 -0.015641766 -0.01564176
v -0.015641766 -0.015641766 -0.0110746045
v -0.020459082 -0.012528215 -0.005607475
v -0.011613469 -0.018398132 -0.011613464
v -0.00540009 -0.017061751 -0.017061744
v -0 -0.012881916 -0.021082481
v -0.0056074774 -0.020459082 -0.012528208
v -0.021250335 -0.012740423 2.0756783E-09
v -0.01706175 -0.01706175 -0.005400087
v -0.012528215 -0.020459082 -0.0056074737
v -0.0060060397 -0.023107275 -0.0060060364
v -0.017583303 -0.017583301 2.8646834E-09
v -0.024035005 -0.0060174284 9.803635E-10
v -0.02398164 1.0054249E-09 0.006171253
v -0.023173923 -0.0060261805 0.005984655
v -0.021150174 2.0988193E-09 0.01288246
v -0.012740425 -0.021250334 3.4621188E-09
v -0.020525524 -0.012572174 0.0055848514
v -0.020525524 -0.0056263236 0.012528064
v -0.017590215 2.8584932E-09 0.017545303
v -0.017118892 -0.0054181395 0.017074034
v -0.01845826 -0.01164997 0.0116110835
v -0.017118892 -0.01711889 0.0053763194
v -0.012572176 -0.0056263227 0.020483399
v -0.01569493 -0.011108323 0.015651511
v -0.01569493 -0.015694927 0.01107078
v -0.0060261814 -0.0060261777 0.023136668
v -0 4.05129E-09 0.024866637
v -0 -0.006212727 0.023942497
v -0.011649973 -0.01164997 0.018414792
v -0.014364715 -0.014364709 0.014318213
v -0.012572176 -0.020525519 0.005584853
v -0.005626326 -0.012572173 0.020483399
v -0.011108327 -0.015694926 0.015651513
v -0.011649973 -0.018458258 0.0116110835
v -0.0060261814 -0.023173919 0.005984658
v -0.005626326 -0.020525519 0.012528066
v -0.005418143 -0.017118888 0.017074035
v -0 -0.012927218 0.021107852
v -0.0060174293 -0.024035001 3.9157984E-09
v -0 -0.023912407 -0.00619169
v -0 -0.024866637 4.05129E-09
v -0 -0.023981638 0.0061713075
v -0 -0.021150166 0.012882464
v -0 -0.01759021 0.017545307
v 0.005418143 -0.017118888 0.017074035
v 0.005626326 -0.012572173 0.020483399
v 0.005626326 -0.020525519 0.012528066
v -0 -0.021082489 -0.01288191
v 0.0060261814 -0.0060261777 0.023136668
v -0 4.05129E-09 0.024866637
v 0.0062127314 3.900728E-09 0.023942497
v 0.011108327 -0.015694926 0.015651513
v 0.011649973 -0.01164997 0.018414792
v 0.012572176 -0.0056263227 0.020483399
v 0.012927223 3.4389052E-09 0.021107849
v 0.017118892 -0.0054181395 0.017074034
v 0.017590215 2.8584932E-09 0.017545303
v 0.021150174 2.0988193E-09 0.01288246
v 0.01569493 -0.011108323 0.015651511
v 0.020525524 -0.0056263236 0.012528064
v 0.02398164 1.005433E-09 0.006171304
v 0.014364715 -0.014364709 0.014318213
v 0.011649973 -0.018458258 0.0116110835
v 0.01845826 -0.01164997 0.0116110835
v 0.023173923 -0.0060261805 0.005984655
v 0.024866642 0 0
v 0.01569493 -0.015694927 0.01107078
v 0.0060261814 -0.023173919 0.005984658
v 0.024035005 -0.0060174284 9.803635E-10
v 0.02391241 -1.0087469E-09 -0.006191644
v 0.020525524 -0.012572174 0.0055848514
v 0.012572176 -0.020525519 0.005584853
v 0.0060174293 -0.024035001 3.9157984E-09
v 0.021250335 -0.012740423 2.0756783E-09
v 0.017118892 -0.01711889 0.0053763194
v 0.023107277 -0.0060060397 -0.0060060387
v 0.012740425 -0.021250334 3.4621188E-09
v 0.0060060397 -0.023107275 -0.0060060364
v 0.017583303 -0.017583301 2.8646834E-09
v 0.020459082 -0.012528215 -0.005607475
v 0.020459082 -0.0056074797 -0.012528209
v 0.021082487 -2.09873E-09 -0.012881913
v 0.01706175 -0.01706175 -0.005400087
v 0.018398132 -0.011613469 -0.011613464
v 0.01706175 -0.0054000923 -0.017061748
v 0.01753173 -2.8562812E-09 -0.017531727
v 0.012881914 -3.434773E-09 -0.021082487
v 0.012528215 -0.020459082 -0.0056074737
v 0.015641766 -0.015641766 -0.0110746045
v 0.015641766 -0.011074609 -0.015641762
v 0.012528215 -0.0056074806 -0.020459076
v 0.0061916946 -3.8958254E-09 -0.023912407
v 0.011613469 -0.018398132 -0.011613464
v 0.0143145835 -0.014314584 -0.014314579
v 0.0060060397 -0.006006043 -0.023107274
v -0 -4.05129E-09 -0.024866637
v 0.011613469 -0.01161342 -0.01839813
v 0.0056074774 -0.012528216 -0.020459076
v 0.011074608 -0.015641766 -0.01564176
v 0.005607428 -0.020459082 -0.012528208
v 0.00540009 -0.017061751 -0.017061744
v -0 -0.01753173 -0.017531725
vt 0.1255 0.8852
vt 0.0006 0.9291
vt 0.131 0.9986
vt 0.2505 0.9291
vt 0.0679 0.7998
vt 0.0006 0.8107
vt 0.0491 0.7456
vt 0.0006 0.7524
vt 0.0006 0.6852
vt 0.0432 0.6801
vt 0.0006 0.5884
vt 0.0983 0.7251
vt 0.1255 0.765
vt 0.0411 0.5857
vt 0.0006 0.4988
vt 0.0901 0.6668
vt 0.1832 0.7998
vt 0.1255 0.7059
vt 0.1528 0.7251
vt 0.041 0.4988
vt 0.088 0.58
vt 0.1255 0.659
vt 0.161 0.6668
vt 0.0411 0.412
vt 0.0006 0.4093
vt 0.0432 0.3176
vt 0.0006 0.3125
vt 0.0491 0.2521
vt 0.0006 0.2453
vt 0.0006 0.1789
vt 0.0679 0.1905
vt 0.0006 0.0748
vt 0.0983 0.2726
vt 0.0901 0.3309
vt 0.088 0.4177
vt 0.1262 0.1155
vt 0.121 0.0032
vt 0.2505 0.0673
vt 0.1255 0.2333
vt 0.1255 0.2918
vt 0.1832 0.1903
vt 0.0878 0.4988
vt 0.1255 0.3387
vt 0.1528 0.2726
vt 0.1255 0.577
vt 0.1255 0.4207
vt 0.161 0.3309
vt 0.1631 0.58
vt 0.1255 0.4988
vt 0.1632 0.4988
vt 0.1631 0.4177
vt 0.2101 0.4988
vt 0.21 0.5857
vt 0.2505 0.4988
vt 0.21 0.412
vt 0.2079 0.3176
vt 0.2079 0.6801
vt 0.2505 0.4093
vt 0.2019 0.2521
vt 0.2505 0.5884
vt 0.2019 0.7456
vt 0.2505 0.3125
vt 0.2505 0.1791
vt 0.2505 0.6852
vt 0.2505 0.8107
vt 0.2505 0.2453
vt 0.299 0.2521
vt 0.293 0.3176
vt 0.3177 0.1908
vt 0.2505 0.7524
vt 0.299 0.7456
vt 0.3177 0.7998
vt 0.293 0.6801
vt 0.2909 0.412
vt 0.3481 0.2726
vt 0.2909 0.5857
vt 0.3481 0.7251
vt 0.3754 0.8852
vt 0.3863 0.9986
vt 0.5003 0.9291
vt 0.3754 0.765
vt 0.3399 0.6668
vt 0.2908 0.4988
vt 0.433 0.7998
vt 0.3754 0.7059
vt 0.3378 0.58
vt 0.4026 0.7251
vt 0.3754 0.659
vt 0.4108 0.6668
vt 0.3378 0.4177
vt 0.3377 0.4988
vt 0.3754 0.577
vt 0.4129 0.58
vt 0.3399 0.3309
vt 0.4578 0.6801
vt 0.4598 0.5857
vt 0.4518 0.7456
vt 0.5003 0.8107
vt 0.4131 0.4988
vt 0.46 0.4988
vt 0.3754 0.4988
vt 0.3754 0.4207
vt 0.4129 0.4177
vt 0.3754 0.3387
vt 0.3754 0.2918
vt 0.4108 0.3309
vt 0.4598 0.412
vt 0.5003 0.4988
vt 0.3754 0.2336
vt 0.4026 0.2726
vt 0.4578 0.3176
vt 0.3747 0.1083
vt 0.375 0.0032
vt 0.5003 0.0622
vt 0.433 0.1886
vt 0.4518 0.2521
vt 0.5003 0.4093
vt 0.5003 0.1778
vt 0.5003 0.3125
vt 0.5003 0.2453
vt 0.5488 0.2521
vt 0.5675 0.1897
vt 0.5428 0.3176
vt 0.5407 0.412
vt 0.598 0.2726
vt 0.6204 0.1079
vt 0.624 -0.0011
vt 0.7501 0.0696
vt 0.6252 0.2336
vt 0.5897 0.3309
vt 0.6829 0.1902
vt 0.6252 0.2918
vt 0.6524 0.2726
vt 0.6252 0.3387
vt 0.5876 0.4177
vt 0.6606 0.3309
vt 0.7016 0.2521
vt 0.7501 0.1791
vt 0.7076 0.3176
vt 0.5875 0.4988
vt 0.6252 0.4207
vt 0.6627 0.4177
vt 0.7096 0.412
vt 0.6252 0.4988
vt 0.5406 0.4988
vt 0.5003 0.5884
vt 0.5407 0.5857
vt 0.5003 0.6852
vt 0.6629 0.4988
vt 0.5876 0.58
vt 0.5428 0.6801
vt 0.5003 0.7524
vt 0.5488 0.7456
vt 0.5897 0.6668
vt 0.6252 0.577
vt 0.5675 0.7998
vt 0.598 0.7251
vt 0.6252 0.659
vt 0.6252 0.8852
vt 0.6213 1.0029
vt 0.7502 0.929
vt 0.6252 0.765
vt 0.6252 0.7059
vt 0.6627 0.58
vt 0.6829 0.7998
vt 0.6524 0.7251
vt 0.6606 0.6668
vt 0.7096 0.5857
vt 0.7076 0.6801
vt 0.7016 0.7456
vt 0.7501 0.8107
vt 0.7098 0.4988
vt 0.7501 0.4093
vt 0.7501 0.4988
vt 0.7501 0.5884
vt 0.7501 0.6852
vt 0.7501 0.7524
vt 0.7986 0.7456
vt 0.8173 0.7998
vt 0.7926 0.6801
vt 0.7501 0.3125
vt 0.875 0.8891
vt 0.8766 1
vt 0.9995 0.9266
vt 0.8478 0.7251
vt 0.875 0.765
vt 0.9327 0.7998
vt 0.9999 0.8107
vt 0.9514 0.7456
vt 0.9999 0.7524
vt 0.9999 0.6852
vt 0.9022 0.7251
vt 0.9574 0.6801
vt 0.9999 0.5884
vt 0.875 0.7059
vt 0.8395 0.6668
vt 0.9104 0.6668
vt 0.9594 0.5857
vt 0.9999 0.4988
vt 0.875 0.659
vt 0.7905 0.5857
vt 0.9596 0.4988
vt 0.9999 0.4093
vt 0.9125 0.58
vt 0.8374 0.58
vt 0.7904 0.4988
vt 0.9127 0.4988
vt 0.875 0.577
vt 0.9594 0.412
vt 0.8373 0.4988
vt 0.7905 0.412
vt 0.875 0.4988
vt 0.9125 0.4177
vt 0.9574 0.3176
vt 0.9999 0.3125
vt 0.875 0.4207
vt 0.9104 0.3309
vt 0.9514 0.2521
vt 0.9999 0.2453
vt 0.9999 0.1789
vt 0.8374 0.4177
vt 0.875 0.3387
vt 0.9022 0.2726
vt 0.9327 0.1905
vt 0.9999 0.0683
vt 0.8395 0.3309
vt 0.875 0.2918
vt 0.8798 0.1132
vt 0.8755 0.0017
vt 0.875 0.2333
vt 0.8173 0.1896
vt 0.8478 0.2726
vt 0.7926 0.3176
vt 0.7986 0.2521
vt 0.7501 0.2453
vn 0.25688466 0.25687903 0.9316778
vn 0.26978585 1.568727E-07 0.96292037
vn -0 1.6291725E-07 1
vn -0 0.26977548 0.9629232
vn 0.48609594 0.237058 0.84113866
vn 0.5018718 1.4091891E-07 0.864942
vn 0.6890412 0.22459853 0.6890412
vn 0.70733565 1.15164404E-07 0.7068779
vn 0.865138 0 0.5015339
vn 0.84136295 0.23690198 0.48578387
vn 0.9636893 0 0.26702592
vn 0.64485085 0.40956593 0.64530855
vn 0.44713306 0.44713306 0.7746897
vn 0.9317604 0.2567879 0.25667623
vn 0.9999865 0.0020001575 -0.0048003797
vn 0.7748411 0.44677293 0.44723067
vn 0.23706454 0.48608673 0.84114206
vn 0.57719016 0.57719016 0.5776703
vn 0.4095537 0.6448491 0.64531803
vn 0.96384543 0.26637772 -0.0066977954
vn 0.84136176 0.4857832 0.23690723
vn 0.6450771 0.64508826 0.40955663
vn 0.44677073 0.7748372 0.44723964
vn 0.92976266 0.25708705 -0.26352912
vn 0.96214586 0 -0.2725351
vn 0.84105366 0.236942 -0.48629937
vn 0.86473143 0 -0.50223464
vn 0.68902564 0.22469392 -0.68902564
vn 0.70710677 -1.1520258E-07 -0.70710677
vn 0.50223464 -1.4088272E-07 -0.86473143
vn 0.48629874 0.23694728 -0.8410526
vn 0.2725299 -1.5675528E-07 -0.9621473
vn 0.6449608 0.4099404 -0.6449608
vn 0.7747712 0.44706804 -0.44705686
vn 0.8392594 0.48564726 -0.24452071
vn 0.25716913 0.25716355 -0.93152076
vn -0 -1.6291725E-07 -1
vn -0 0.2725299 -0.9621473
vn 0.44705802 0.44705802 -0.7747763
vn 0.57734656 0.57735777 -0.57734656
vn 0.23694997 0.4863152 -0.8410423
vn 0.865126 0.50149536 -0.007700054
vn 0.6449579 0.6449579 -0.4099497
vn 0.40993452 0.64496267 -0.64496267
vn 0.6890479 0.6890367 0.2245915
vn 0.687684 0.687684 -0.2327691
vn 0.44705293 0.7747757 -0.4470641
vn 0.4857924 0.8413583 0.23690067
vn 0.7070891 0.707078 -0.008099191
vn 0.5014856 0.86513174 -0.007699992
vn 0.48564726 0.8392594 -0.24452071
vn 0.26637772 0.96384543 -0.0066977954
vn 0.2567879 0.9317604 0.25667623
vn -0 0.99998987 -0.0045002797
vn 0.25708663 0.92976135 -0.26353437
vn 0.23694284 0.84105915 -0.48628965
vn 0.23680012 0.8413803 0.48580334
vn -0 0.9621473 -0.2725299
vn 0.22470269 0.6890242 -0.6890242
vn -0 0.96368796 0.26703113
vn 0.22459853 0.6890412 0.6890412
vn -0 0.8647363 -0.50222635
vn -0 0.50222635 -0.8647363
vn -0 0.86514354 0.50152427
vn -0 0.50188017 0.8649372
vn -0 0.70710677 -0.70710677
vn -0.22470269 0.6890242 -0.6890242
vn -0.23694284 0.84105915 -0.48628965
vn -0.23694997 0.4863152 -0.8410423
vn -0 0.7073412 0.7068723
vn -0.22459853 0.6890412 0.6890412
vn -0.23706983 0.48608613 0.841141
vn -0.23680012 0.8413803 0.48580334
vn -0.25708663 0.92976135 -0.26353437
vn -0.40993452 0.64496267 -0.64496267
vn -0.2567879 0.9317604 0.25667623
vn -0.4095537 0.6448491 0.64531803
vn -0.25688466 0.25687903 0.9316778
vn -0 1.6291725E-07 1
vn -0.26978585 1.568727E-07 0.96292037
vn -0.44713306 0.44713306 0.7746897
vn -0.44677073 0.7748372 0.44723964
vn -0.26637772 0.96384543 -0.0066977954
vn -0.48609594 0.237058 0.84113866
vn -0.57719016 0.57719016 0.5776703
vn -0.4857924 0.8413583 0.23690067
vn -0.64485085 0.40956593 0.64530855
vn -0.6450771 0.64508826 0.40955663
vn -0.7748411 0.44677293 0.44723067
vn -0.48564726 0.8392594 -0.24452071
vn -0.5014856 0.86513174 -0.007699992
vn -0.6890479 0.6890367 0.2245915
vn -0.84136176 0.4857832 0.23690723
vn -0.4470552 0.7747795 -0.4470552
vn -0.8413849 0.23680139 0.48579478
vn -0.9317604 0.2567879 0.25667623
vn -0.6890412 0.22459853 0.6890412
vn -0.5018718 1.4091891E-07 0.864942
vn -0.865126 0.50149536 -0.007700054
vn -0.96384543 0.26637772 -0.0066977954
vn -0.7070891 0.707078 -0.008099191
vn -0.687684 0.687684 -0.2327691
vn -0.8392594 0.48564726 -0.24452071
vn -0.6449579 0.6449579 -0.4099497
vn -0.57734656 0.57735777 -0.57734656
vn -0.7747712 0.44706804 -0.44705686
vn -0.92976266 0.25708705 -0.26352912
vn -0.9999865 0.0020001575 -0.0048003797
vn -0.44705802 0.44705802 -0.7747763
vn -0.6449608 0.4099404 -0.6449608
vn -0.84105366 0.236942 -0.48629937
vn -0.25716913 0.25716355 -0.93152076
vn -0 -1.6291725E-07 -1
vn -0.2725351 -1.5675502E-07 -0.96214586
vn -0.48629874 0.23694728 -0.8410526
vn -0.68902564 0.22469392 -0.68902564
vn -0.9621473 0 -0.2725299
vn -0.50223464 -1.4088272E-07 -0.86473143
vn -0.86473143 0 -0.50223464
vn -0.70710677 -1.1520258E-07 -0.70710677
vn -0.68902564 -0.22469392 -0.68902564
vn -0.4862903 -0.23693757 -0.8410603
vn -0.84104913 -0.23694073 -0.48630798
vn -0.92952234 -0.25848907 -0.26300517
vn -0.6449579 -0.4099497 -0.6449579
vn -0.25716913 -0.25716355 -0.93152076
vn -0 -1.6291725E-07 -1
vn -0 -0.2725299 -0.9621473
vn -0.44705293 -0.4470641 -0.7747757
vn -0.7747712 -0.44705686 -0.44706804
vn -0.23694284 -0.48628965 -0.84105915
vn -0.57734656 -0.57734656 -0.57735777
vn -0.40993452 -0.64496267 -0.64496267
vn -0.6449608 -0.6449608 -0.4099404
vn -0.83871555 -0.4871629 -0.24336931
vn -0.44705802 -0.7747763 -0.44705802
vn -0.22470269 -0.6890242 -0.6890242
vn -0 -0.50222635 -0.8647363
vn -0.23694997 -0.8410423 -0.4863152
vn -0.86917835 -0.49445474 -0.006598934
vn -0.6879185 -0.6879185 -0.2313791
vn -0.4871629 -0.83871555 -0.24336931
vn -0.25848907 -0.92952234 -0.26300517
vn -0.7070894 -0.7070894 -0.006998631
vn -0.9658635 -0.258995 -0.0053993333
vn -0.9636604 0 0.26713017
vn -0.9312074 -0.25813466 0.2573308
vn -0.865138 0 0.5015339
vn -0.49445474 -0.86917835 -0.006598872
vn -0.8406712 -0.48701227 0.23683515
vn -0.84136295 -0.23690198 0.48578387
vn -0.70733565 1.15164404E-07 0.7068779
vn -0.6890412 -0.22459853 0.6890412
vn -0.7748449 -0.4467751 0.44722173
vn -0.68909764 -0.6890865 0.22428611
vn -0.48609594 -0.237058 0.84113866
vn -0.6448456 -0.4095474 0.64532566
vn -0.6450771 -0.64508826 0.40955663
vn -0.25687942 -0.25687942 0.9316791
vn -0 1.6291725E-07 1
vn -0 -0.26977548 0.9629232
vn -0.4471253 -0.4471253 0.7746986
vn -0.57718647 -0.5771976 0.5776665
vn -0.48702085 -0.8406667 0.23683387
vn -0.23706983 -0.48608613 0.841141
vn -0.4095596 -0.6448473 0.6453162
vn -0.44677073 -0.7748372 0.44723964
vn -0.25813505 -0.9312088 0.25732562
vn -0.23690067 -0.8413583 0.4857924
vn -0.22459678 -0.68904704 0.6890359
vn -0 -0.5018621 0.8649476
vn -0.2589894 -0.96586514 -0.005399103
vn -0 -0.9621473 -0.2725299
vn -0 -0.9999865 -0.005200132
vn -0 -0.96368796 0.26703113
vn -0 -0.8651428 0.5015256
vn -0 -0.70733565 0.7068779
vn 0.22459678 -0.68904704 0.6890359
vn 0.23706983 -0.48608613 0.841141
vn 0.23690067 -0.8413583 0.4857924
vn -0 -0.8647363 -0.50222635
vn 0.25687942 -0.25687942 0.9316791
vn -0 1.6291725E-07 1
vn 0.26978585 1.568727E-07 0.96292037
vn 0.4095596 -0.6448473 0.6453162
vn 0.4471253 -0.4471253 0.7746986
vn 0.48609594 -0.237058 0.84113866
vn 0.5018718 1.4091891E-07 0.864942
vn 0.6890412 -0.22459853 0.6890412
vn 0.70733565 1.15164404E-07 0.7068779
vn 0.865138 0 0.5015339
vn 0.6448456 -0.4095474 0.64532566
vn 0.84136295 -0.23690198 0.48578387
vn 0.9636893 0 0.26702592
vn 0.57718647 -0.5771976 0.5776665
vn 0.44677073 -0.7748372 0.44723964
vn 0.7748449 -0.4467751 0.44722173
vn 0.9312074 -0.25813466 0.2573308
vn 0.9999865 0.0020001575 -0.0048003797
vn 0.6450771 -0.64508826 0.40955663
vn 0.25813505 -0.9312088 0.25732562
vn 0.9658635 -0.258995 -0.0053993333
vn 0.96214586 0 -0.2725351
vn 0.8406712 -0.48701227 0.23683515
vn 0.48702085 -0.8406667 0.23683387
vn 0.2589894 -0.96586514 -0.005399103
vn 0.86917835 -0.49445474 -0.006598934
vn 0.68909764 -0.6890865 0.22428611
vn 0.92952234 -0.25848907 -0.26300517
vn 0.49445474 -0.86917835 -0.006598872
vn 0.25848907 -0.92952234 -0.26300517
vn 0.7070894 -0.7070894 -0.006998631
vn 0.83871555 -0.4871629 -0.24336931
vn 0.84104913 -0.23694073 -0.48630798
vn 0.86473143 0 -0.50223464
vn 0.6879185 -0.6879185 -0.2313791
vn 0.7747712 -0.44705686 -0.44706804
vn 0.68902564 -0.22469392 -0.68902564
vn 0.70710677 -1.1520258E-07 -0.70710677
vn 0.50223464 -1.4088272E-07 -0.86473143
vn 0.4871629 -0.83871555 -0.24336931
vn 0.6449608 -0.6449608 -0.4099404
vn 0.6449579 -0.4099497 -0.6449579
vn 0.4862903 -0.23693757 -0.8410603
vn 0.2725299 -1.5675528E-07 -0.9621473
vn 0.44705802 -0.7747763 -0.44705802
vn 0.57734656 -0.57734656 -0.57735777
vn 0.25716913 -0.25716355 -0.93152076
vn -0 -1.6291725E-07 -1
vn 0.44705293 -0.4470641 -0.7747757
vn 0.23694284 -0.48628965 -0.84105915
vn 0.40993452 -0.64496267 -0.64496267
vn 0.23694472 -0.8410435 -0.48631585
vn 0.22470269 -0.6890242 -0.6890242
vn -0 -0.70710677 -0.70710677
g S_wpn_funnel_0011_02_lod0_0
f 3/3/3 2/2/2 1/1/1
f 4/4/4 3/3/3 1/1/1
f 1/1/1 2/2/2 5/5/5
f 2/2/2 6/6/6 5/5/5
f 5/5/5 6/6/6 7/7/7
f 6/6/6 8/8/8 7/7/7
f 8/8/8 9/9/9 7/7/7
f 9/9/9 10/10/10 7/7/7
f 10/10/10 9/9/9 11/11/11
f 5/5/5 7/7/7 12/12/12
f 7/7/7 10/10/10 12/12/12
f 5/5/5 13/13/13 1/1/1
f 13/13/13 5/5/5 12/12/12
f 14/14/14 10/10/10 11/11/11
f 11/11/11 15/15/15 14/14/14
f 10/10/10 16/16/16 12/12/12
f 16/16/16 10/10/10 14/14/14
f 4/4/4 1/1/1 17/17/17
f 13/13/13 17/17/17 1/1/1
f 13/13/13 12/12/12 18/18/18
f 12/12/12 16/16/16 18/18/18
f 17/17/17 13/13/13 19/19/19
f 19/19/19 13/13/13 18/18/18
f 15/15/15 20/20/20 14/14/14
f 21/21/21 16/16/16 14/14/14
f 14/14/14 20/20/20 21/21/21
f 16/16/16 22/22/22 18/18/18
f 22/22/22 16/16/16 21/21/21
f 23/23/23 19/19/19 18/18/18
f 22/22/22 23/23/23 18/18/18
f 20/20/20 15/15/15 24/24/24
f 15/15/15 25/25/25 24/24/24
f 24/24/24 25/25/25 26/26/26
f 25/25/25 27/27/27 26/26/26
f 26/26/26 27/27/27 28/28/28
f 27/27/27 29/29/29 28/28/28
f 29/29/29 30/30/30 28/28/28
f 30/30/30 31/31/31 28/28/28
f 30/30/30 32/32/32 31/31/31
f 26/26/26 28/28/28 33/33/33
f 28/28/28 31/31/31 33/33/33
f 26/26/26 34/34/34 24/24/24
f 34/34/34 26/26/26 33/33/33
f 20/20/20 24/24/24 35/35/35
f 34/34/34 35/35/35 24/24/24
f 32/32/32 36/36/36 31/31/31
f 32/32/32 37/37/37 36/36/36
f 37/37/37 38/38/38 36/36/36
f 31/31/31 39/39/39 33/33/33
f 31/31/31 36/36/36 39/39/39
f 34/34/34 33/33/33 40/40/40
f 33/33/33 39/39/39 40/40/40
f 36/36/36 41/41/41 39/39/39
f 36/36/36 38/38/38 41/41/41
f 42/42/42 20/20/20 35/35/35
f 20/20/20 42/42/42 21/21/21
f 35/35/35 34/34/34 43/43/43
f 43/43/43 34/34/34 40/40/40
f 39/39/39 44/44/44 40/40/40
f 39/39/39 41/41/41 44/44/44
f 21/21/21 42/42/42 45/45/45
f 45/45/45 22/22/22 21/21/21
f 42/42/42 35/35/35 46/46/46
f 46/46/46 35/35/35 43/43/43
f 47/47/47 43/43/43 40/40/40
f 44/44/44 47/47/47 40/40/40
f 45/45/45 48/48/48 22/22/22
f 48/48/48 23/23/23 22/22/22
f 42/42/42 49/49/49 45/45/45
f 49/49/49 42/42/42 46/46/46
f 49/49/49 50/50/50 45/45/45
f 50/50/50 49/49/49 46/46/46
f 50/50/50 48/48/48 45/45/45
f 46/46/46 43/43/43 51/51/51
f 51/51/51 50/50/50 46/46/46
f 43/43/43 47/47/47 51/51/51
f 50/50/50 52/52/52 48/48/48
f 52/52/52 50/50/50 51/51/51
f 48/48/48 53/53/53 23/23/23
f 52/52/52 53/53/53 48/48/48
f 52/52/52 54/54/54 53/53/53
f 55/55/55 52/52/52 51/51/51
f 51/51/51 47/47/47 55/55/55
f 54/54/54 52/52/52 55/55/55
f 56/56/56 47/47/47 44/44/44
f 47/47/47 56/56/56 55/55/55
f 53/53/53 57/57/57 23/23/23
f 23/23/23 57/57/57 19/19/19
f 58/58/58 54/54/54 55/55/55
f 55/55/55 56/56/56 58/58/58
f 59/59/59 56/56/56 44/44/44
f 41/41/41 59/59/59 44/44/44
f 54/54/54 60/60/60 53/53/53
f 53/53/53 60/60/60 57/57/57
f 57/57/57 61/61/61 19/19/19
f 61/61/61 17/17/17 19/19/19
f 56/56/56 62/62/62 58/58/58
f 62/62/62 56/56/56 59/59/59
f 41/41/41 63/63/63 59/59/59
f 38/38/38 63/63/63 41/41/41
f 60/60/60 64/64/64 57/57/57
f 57/57/57 64/64/64 61/61/61
f 65/65/65 17/17/17 61/61/61
f 65/65/65 4/4/4 17/17/17
f 66/66/66 62/62/62 59/59/59
f 63/63/63 66/66/66 59/59/59
f 62/62/62 66/66/66 67/67/67
f 66/66/66 63/63/63 67/67/67
f 58/58/58 62/62/62 68/68/68
f 68/68/68 62/62/62 67/67/67
f 69/69/69 63/63/63 38/38/38
f 63/63/63 69/69/69 67/67/67
f 64/64/64 70/70/70 61/61/61
f 70/70/70 65/65/65 61/61/61
f 70/70/70 64/64/64 71/71/71
f 65/65/65 70/70/70 71/71/71
f 4/4/4 65/65/65 72/72/72
f 72/72/72 65/65/65 71/71/71
f 64/64/64 73/73/73 71/71/71
f 73/73/73 64/64/64 60/60/60
f 74/74/74 58/58/58 68/68/68
f 54/54/54 58/58/58 74/74/74
f 68/68/68 67/67/67 75/75/75
f 67/67/67 69/69/69 75/75/75
f 60/60/60 54/54/54 76/76/76
f 76/76/76 73/73/73 60/60/60
f 71/71/71 73/73/73 77/77/77
f 71/71/71 77/77/77 72/72/72
f 78/78/78 4/4/4 72/72/72
f 79/79/79 4/4/4 78/78/78
f 80/80/80 79/79/79 78/78/78
f 72/72/72 81/81/81 78/78/78
f 77/77/77 81/81/81 72/72/72
f 73/73/73 82/82/82 77/77/77
f 82/82/82 73/73/73 76/76/76
f 54/54/54 83/83/83 76/76/76
f 83/83/83 54/54/54 74/74/74
f 78/78/78 84/84/84 80/80/80
f 81/81/81 84/84/84 78/78/78
f 81/81/81 77/77/77 85/85/85
f 77/77/77 82/82/82 85/85/85
f 86/86/86 82/82/82 76/76/76
f 76/76/76 83/83/83 86/86/86
f 84/84/84 81/81/81 87/87/87
f 87/87/87 81/81/81 85/85/85
f 82/82/82 88/88/88 85/85/85
f 88/88/88 82/82/82 86/86/86
f 89/89/89 87/87/87 85/85/85
f 88/88/88 89/89/89 85/85/85
f 83/83/83 74/74/74 90/90/90
f 83/83/83 91/91/91 86/86/86
f 91/91/91 83/83/83 90/90/90
f 92/92/92 88/88/88 86/86/86
f 86/86/86 91/91/91 92/92/92
f 93/93/93 89/89/89 88/88/88
f 92/92/92 93/93/93 88/88/88
f 90/90/90 74/74/74 94/94/94
f 74/74/74 68/68/68 94/94/94
f 94/94/94 68/68/68 75/75/75
f 89/89/89 95/95/95 87/87/87
f 89/89/89 93/93/93 96/96/96
f 95/95/95 89/89/89 96/96/96
f 95/95/95 97/97/97 87/87/87
f 97/97/97 84/84/84 87/87/87
f 98/98/98 84/84/84 97/97/97
f 84/84/84 98/98/98 80/80/80
f 99/99/99 93/93/93 92/92/92
f 100/100/100 96/96/96 93/93/93
f 99/99/99 100/100/100 93/93/93
f 101/101/101 99/99/99 92/92/92
f 91/91/91 101/101/101 92/92/92
f 101/101/101 91/91/91 102/102/102
f 99/99/99 101/101/101 102/102/102
f 91/91/91 90/90/90 102/102/102
f 103/103/103 99/99/99 102/102/102
f 100/100/100 99/99/99 103/103/103
f 102/102/102 90/90/90 104/104/104
f 102/102/102 104/104/104 103/103/103
f 90/90/90 94/94/94 104/104/104
f 104/104/104 94/94/94 105/105/105
f 94/94/94 75/75/75 105/105/105
f 104/104/104 106/106/106 103/103/103
f 106/106/106 104/104/104 105/105/105
f 107/107/107 100/100/100 103/103/103
f 103/103/103 106/106/106 107/107/107
f 100/100/100 108/108/108 96/96/96
f 108/108/108 100/100/100 107/107/107
f 75/75/75 109/109/109 105/105/105
f 69/69/69 109/109/109 75/75/75
f 110/110/110 106/106/106 105/105/105
f 109/109/109 110/110/110 105/105/105
f 106/106/106 111/111/111 107/107/107
f 111/111/111 106/106/106 110/110/110
f 109/109/109 69/69/69 112/112/112
f 112/112/112 69/69/69 38/38/38
f 38/38/38 113/113/113 112/112/112
f 113/113/113 114/114/114 112/112/112
f 115/115/115 109/109/109 112/112/112
f 110/110/110 109/109/109 115/115/115
f 112/112/112 114/114/114 115/115/115
f 116/116/116 110/110/110 115/115/115
f 116/116/116 111/111/111 110/110/110
f 107/107/107 111/111/111 117/117/117
f 117/117/117 108/108/108 107/107/107
f 114/114/114 118/118/118 115/115/115
f 115/115/115 118/118/118 116/116/116
f 119/119/119 111/111/111 116/116/116
f 111/111/111 119/119/119 117/117/117
f 118/118/118 120/120/120 116/116/116
f 120/120/120 119/119/119 116/116/116
f 120/120/120 118/118/118 121/121/121
f 119/119/119 120/120/120 121/121/121
f 118/118/118 114/114/114 122/122/122
f 118/118/118 122/122/122 121/121/121
f 117/117/117 119/119/119 123/123/123
f 123/123/123 119/119/119 121/121/121
f 108/108/108 117/117/117 124/124/124
f 124/124/124 117/117/117 123/123/123
f 123/123/123 121/121/121 125/125/125
f 121/121/121 122/122/122 125/125/125
f 114/114/114 126/126/126 122/122/122
f 114/114/114 127/127/127 126/126/126
f 127/127/127 128/128/128 126/126/126
f 122/122/122 126/126/126 129/129/129
f 122/122/122 129/129/129 125/125/125
f 130/130/130 123/123/123 125/125/125
f 123/123/123 130/130/130 124/124/124
f 126/126/126 128/128/128 131/131/131
f 126/126/126 131/131/131 129/129/129
f 125/125/125 129/129/129 132/132/132
f 130/130/130 125/125/125 132/132/132
f 129/129/129 131/131/131 133/133/133
f 129/129/129 133/133/133 132/132/132
f 134/134/134 130/130/130 132/132/132
f 130/130/130 135/135/135 124/124/124
f 135/135/135 130/130/130 134/134/134
f 133/133/133 136/136/136 132/132/132
f 136/136/136 134/134/134 132/132/132
f 131/131/131 137/137/137 133/133/133
f 128/128/128 138/138/138 131/131/131
f 131/131/131 138/138/138 137/137/137
f 139/139/139 136/136/136 133/133/133
f 137/137/137 139/139/139 133/133/133
f 124/124/124 135/135/135 140/140/140
f 141/141/141 135/135/135 134/134/134
f 140/140/140 135/135/135 141/141/141
f 134/134/134 136/136/136 142/142/142
f 141/141/141 134/134/134 142/142/142
f 136/136/136 139/139/139 143/143/143
f 142/142/142 136/136/136 143/143/143
f 144/144/144 141/141/141 142/142/142
f 144/144/144 140/140/140 141/141/141
f 145/145/145 124/124/124 140/140/140
f 145/145/145 108/108/108 124/124/124
f 108/108/108 145/145/145 146/146/146
f 108/108/108 146/146/146 96/96/96
f 96/96/96 146/146/146 95/95/95
f 145/145/145 140/140/140 147/147/147
f 145/145/145 147/147/147 146/146/146
f 146/146/146 148/148/148 95/95/95
f 95/95/95 148/148/148 97/97/97
f 149/149/149 142/142/142 143/143/143
f 149/149/149 144/144/144 142/142/142
f 140/140/140 144/144/144 150/150/150
f 140/140/140 150/150/150 147/147/147
f 147/147/147 151/151/151 146/146/146
f 151/151/151 148/148/148 146/146/146
f 148/148/148 152/152/152 97/97/97
f 152/152/152 98/98/98 97/97/97
f 152/152/152 148/148/148 153/153/153
f 98/98/98 152/152/152 153/153/153
f 148/148/148 151/151/151 153/153/153
f 154/154/154 151/151/151 147/147/147
f 150/150/150 154/154/154 147/147/147
f 144/144/144 155/155/155 150/150/150
f 144/144/144 149/149/149 155/155/155
f 156/156/156 98/98/98 153/153/153
f 80/80/80 98/98/98 156/156/156
f 153/153/153 151/151/151 157/157/157
f 151/151/151 154/154/154 157/157/157
f 156/156/156 153/153/153 157/157/157
f 158/158/158 154/154/154 150/150/150
f 155/155/155 158/158/158 150/150/150
f 159/159/159 80/80/80 156/156/156
f 160/160/160 80/80/80 159/159/159
f 161/161/161 160/160/160 159/159/159
f 162/162/162 156/156/156 157/157/157
f 156/156/156 162/162/162 159/159/159
f 157/157/157 154/154/154 163/163/163
f 154/154/154 158/158/158 163/163/163
f 162/162/162 157/157/157 163/163/163
f 155/155/155 164/164/164 158/158/158
f 149/149/149 164/164/164 155/155/155
f 162/162/162 165/165/165 159/159/159
f 161/161/161 159/159/159 165/165/165
f 166/166/166 162/162/162 163/163/163
f 165/165/165 162/162/162 166/166/166
f 158/158/158 167/167/167 163/163/163
f 164/164/164 167/167/167 158/158/158
f 167/167/167 166/166/166 163/163/163
f 168/168/168 164/164/164 149/149/149
f 164/164/164 168/168/168 167/167/167
f 167/167/167 169/169/169 166/166/166
f 168/168/168 169/169/169 167/167/167
f 170/170/170 165/165/165 166/166/166
f 169/169/169 170/170/170 166/166/166
f 171/171/171 161/161/161 165/165/165
f 171/171/171 165/165/165 170/170/170
f 172/172/172 168/168/168 149/149/149
f 172/172/172 149/149/149 143/143/143
f 172/172/172 143/143/143 173/173/173
f 143/143/143 139/139/139 173/173/173
f 172/172/172 174/174/174 168/168/168
f 174/174/174 172/172/172 173/173/173
f 168/168/168 175/175/175 169/169/169
f 174/174/174 175/175/175 168/168/168
f 169/169/169 176/176/176 170/170/170
f 175/175/175 176/176/176 169/169/169
f 177/177/177 171/171/171 170/170/170
f 176/176/176 177/177/177 170/170/170
f 171/171/171 177/177/177 178/178/178
f 177/177/177 176/176/176 178/178/178
f 161/161/161 171/171/171 179/179/179
f 179/179/179 171/171/171 178/178/178
f 176/176/176 180/180/180 178/178/178
f 180/180/180 176/176/176 175/175/175
f 139/139/139 181/181/181 173/173/173
f 181/181/181 139/139/139 137/137/137
f 182/182/182 161/161/161 179/179/179
f 183/183/183 161/161/161 182/182/182
f 184/184/184 183/183/183 182/182/182
f 178/178/178 185/185/185 179/179/179
f 178/178/178 180/180/180 185/185/185
f 179/179/179 186/186/186 182/182/182
f 185/185/185 186/186/186 179/179/179
f 182/182/182 187/187/187 184/184/184
f 186/186/186 187/187/187 182/182/182
f 187/187/187 188/188/188 184/184/184
f 188/188/188 187/187/187 189/189/189
f 190/190/190 188/188/188 189/189/189
f 191/191/191 190/190/190 189/189/189
f 187/187/187 186/186/186 192/192/192
f 189/189/189 187/187/187 192/192/192
f 193/193/193 191/191/191 189/189/189
f 193/193/193 189/189/189 192/192/192
f 194/194/194 191/191/191 193/193/193
f 186/186/186 185/185/185 195/195/195
f 192/192/192 186/186/186 195/195/195
f 180/180/180 196/196/196 185/185/185
f 185/185/185 196/196/196 195/195/195
f 197/197/197 193/193/193 192/192/192
f 197/197/197 192/192/192 195/195/195
f 198/198/198 194/194/194 193/193/193
f 193/193/193 197/197/197 198/198/198
f 199/199/199 194/194/194 198/198/198
f 200/200/200 197/197/197 195/195/195
f 196/196/196 200/200/200 195/195/195
f 196/196/196 180/180/180 201/201/201
f 201/201/201 180/180/180 175/175/175
f 202/202/202 199/199/199 198/198/198
f 199/199/199 202/202/202 203/203/203
f 197/197/197 204/204/204 198/198/198
f 204/204/204 197/197/197 200/200/200
f 200/200/200 196/196/196 205/205/205
f 205/205/205 196/196/196 201/201/201
f 206/206/206 201/201/201 175/175/175
f 174/174/174 206/206/206 175/175/175
f 202/202/202 198/198/198 207/207/207
f 198/198/198 204/204/204 207/207/207
f 208/208/208 204/204/204 200/200/200
f 208/208/208 200/200/200 205/205/205
f 207/207/207 204/204/204 208/208/208
f 202/202/202 209/209/209 203/203/203
f 202/202/202 207/207/207 209/209/209
f 210/210/210 205/205/205 201/201/201
f 206/206/206 210/210/210 201/201/201
f 206/206/206 174/174/174 211/211/211
f 206/206/206 211/211/211 210/210/210
f 174/174/174 173/173/173 211/211/211
f 212/212/212 208/208/208 205/205/205
f 212/212/212 207/207/207 208/208/208
f 210/210/210 212/212/212 205/205/205
f 207/207/207 212/212/212 213/213/213
f 207/207/207 213/213/213 209/209/209
f 209/209/209 214/214/214 203/203/203
f 214/214/214 215/215/215 203/203/203
f 212/212/212 210/210/210 216/216/216
f 212/212/212 216/216/216 213/213/213
f 213/213/213 217/217/217 209/209/209
f 217/217/217 214/214/214 209/209/209
f 215/215/215 214/214/214 218/218/218
f 219/219/219 215/215/215 218/218/218
f 220/220/220 219/219/219 218/218/218
f 210/210/210 221/221/221 216/216/216
f 211/211/211 221/221/221 210/210/210
f 216/216/216 222/222/222 213/213/213
f 216/216/216 221/221/221 222/222/222
f 222/222/222 217/217/217 213/213/213
f 214/214/214 217/217/217 223/223/223
f 218/218/218 214/214/214 223/223/223
f 224/224/224 220/220/220 218/218/218
f 218/218/218 223/223/223 224/224/224
f 225/225/225 220/220/220 224/224/224
f 221/221/221 211/211/211 226/226/226
f 221/221/221 226/226/226 222/222/222
f 217/217/217 222/222/222 227/227/227
f 223/223/223 217/217/217 227/227/227
f 222/222/222 226/226/226 227/227/227
f 228/228/228 225/225/225 224/224/224
f 229/229/229 225/225/225 228/228/228
f 128/128/128 229/229/229 228/228/228
f 223/223/223 230/230/230 224/224/224
f 230/230/230 223/223/223 227/227/227
f 224/224/224 230/230/230 228/228/228
f 228/228/228 231/231/231 128/128/128
f 230/230/230 231/231/231 228/228/228
f 231/231/231 138/138/138 128/128/128
f 232/232/232 230/230/230 227/227/227
f 226/226/226 232/232/232 227/227/227
f 231/231/231 230/230/230 232/232/232
f 211/211/211 233/233/233 226/226/226
f 226/226/226 233/233/233 232/232/232
f 211/211/211 173/173/173 233/233/233
f 173/173/173 181/181/181 233/233/233
f 234/234/234 231/231/231 232/232/232
f 233/233/233 234/234/234 232/232/232
f 138/138/138 231/231/231 234/234/234
f 233/233/233 181/181/181 234/234/234
f 235/235/235 138/138/138 234/234/234
f 181/181/181 235/235/235 234/234/234
f 138/138/138 235/235/235 137/137/137
f 235/235/235 181/181/181 137/137/137
