g S_wpn_sword_0006_vfx_01_lod0
v 0.0060379026 -8.3196454E-08 -0.18347298
v 0.0055589867 -0.0023026937 -0.17111099
v 0.00599617 -8.1179024E-08 -0.17109008
v 0.0055782697 -0.002310686 -0.18347298
v 0.00426939 -0.0042695627 -0.18347298
v 0.004254646 -0.0042548226 -0.17111099
v 0.002310524 -0.005578422 -0.18347298
v 0.002302532 -0.005559153 -0.17111099
v -5.7220458E-08 -0.006038036 -0.18347298
v -5.7220458E-08 -0.00601718 -0.17111099
v -0.006038017 -8.3196454E-08 -0.18347298
v -0.0059962654 -8.1179024E-08 -0.17109008
v -0.005559101 -0.0023026918 -0.17111099
v -0.005578365 -0.0023106842 -0.18347298
v -0.0042694854 -0.0042695617 -0.18347298
v -0.0042547416 -0.004254821 -0.17111099
v -0.0023106383 -0.0055784206 -0.18347298
v -0.0023026466 -0.0055591515 -0.17111099
v -5.7220458E-08 -0.006038036 -0.18347298
v -5.7220458E-08 -0.00601718 -0.17111099
v 0.0060379026 -8.3196454E-08 -0.18347298
v 0.00599617 -8.1179024E-08 -0.17109008
v 0.0055589867 0.0023025312 -0.17111099
v 0.0055782697 0.0023105196 -0.18347298
v 0.00426939 0.0042693964 -0.18347298
v 0.004254646 0.00425466 -0.17111099
v 0.002310524 0.0055782557 -0.18347298
v 0.002302532 0.005558991 -0.17111099
v -5.7220458E-08 0.0060378704 -0.18347298
v -5.7220458E-08 0.0060170176 -0.17111099
v -0.006038017 -8.3196454E-08 -0.18347298
v -0.005559101 0.0023025295 -0.17111099
v -0.0059962654 -8.1179024E-08 -0.17109008
v -0.005578365 0.0023105177 -0.18347298
v -0.0042695045 0.004269395 -0.18347298
v -0.0042547416 0.004254659 -0.17111099
v -0.0023106383 0.0055782557 -0.18347298
v -0.0023026466 0.00555899 -0.17111099
v -5.7220458E-08 0.0060378704 -0.18347298
v -5.7220458E-08 0.0060170176 -0.17111099
v 0.04159087 -0.0155706005 0.09268696
v 0.05326926 -0.012875859 0.09366741
v 0.043692816 -0.012983838 0.09064064
v 0.041767836 -0.012945169 0.0886285
v 0.0398686 -0.012986057 0.0903183
v 0.03266692 -0.012889582 0.09194817
v 0.04159087 -0.0155706005 0.09268696
v 0.043859366 -0.012986766 0.094562754
v 0.05326926 -0.012875859 0.09366741
v 0.041782025 -0.012918057 0.09840782
v 0.03966012 -0.012993759 0.094535254
v 0.03266692 -0.012889582 0.09194817
v 0.05326926 -0.012875859 0.09366741
v 0.044007156 -0.008599162 0.09467235
v 0.0534368 -0.008598936 0.09367588
v 0.043859366 -0.012986766 0.094562754
v 0.041782025 -0.012918057 0.09840782
v 0.041796293 -0.008600651 0.09860859
v 0.039776076 -0.008598787 0.090182
v 0.041767836 -0.012945169 0.0886285
v 0.041785765 -0.008601054 0.08842087
v 0.0398686 -0.012986057 0.0903183
v 0.03266692 -0.012889582 0.09194817
v 0.03248164 -0.008599826 0.091942556
v 0.03248164 -0.008599826 0.091942556
v 0.03966012 -0.012993759 0.094535254
v 0.03266692 -0.012889582 0.09194817
v 0.03954854 -0.008598768 0.09465351
v 0.041782025 -0.012918057 0.09840782
v 0.041796293 -0.008600651 0.09860859
v 0.0534368 -0.008598936 0.09367588
v 0.043692816 -0.012983838 0.09064064
v 0.05326926 -0.012875859 0.09366741
v 0.043827046 -0.008599097 0.09052452
v 0.041767836 -0.012945169 0.0886285
v 0.041785765 -0.008601054 0.08842087
v 0.04159087 0.015570493 0.09268696
v 0.043692816 0.012983731 0.09064064
v 0.05326926 0.012875751 0.09366741
v 0.041767836 0.012945062 0.0886285
v 0.0398686 0.01298595 0.0903183
v 0.03266692 0.012889475 0.09194817
v 0.04159087 0.015570493 0.09268696
v 0.05326926 0.012875751 0.09366741
v 0.043859366 0.012986658 0.094562754
v 0.041782025 0.01291795 0.09840782
v 0.03966012 0.012993651 0.094535254
v 0.03266692 0.012889475 0.09194817
v 0.05326926 0.012875751 0.09366741
v 0.0534368 0.008598828 0.09367588
v 0.044007156 0.008599054 0.09467235
v 0.043859366 0.012986658 0.094562754
v 0.041782025 0.01291795 0.09840782
v 0.041796293 0.008600543 0.09860859
v 0.041767836 0.012945062 0.0886285
v 0.039776076 0.008598679 0.090182
v 0.041785765 0.008600946 0.08842087
v 0.0398686 0.01298595 0.0903183
v 0.03266692 0.012889475 0.09194817
v 0.03248164 0.008599719 0.091942556
v 0.03966012 0.012993651 0.094535254
v 0.03248164 0.008599719 0.091942556
v 0.03266692 0.012889475 0.09194817
v 0.03954854 0.00859866 0.09465351
v 0.041782025 0.01291795 0.09840782
v 0.041796293 0.008600543 0.09860859
v 0.043692816 0.012983731 0.09064064
v 0.0534368 0.008598828 0.09367588
v 0.05326926 0.012875751 0.09366741
v 0.043827046 0.008598989 0.09052452
v 0.041767836 0.012945062 0.0886285
v 0.041785765 0.008600946 0.08842087
v -0.041590843 0.015570493 0.09268696
v -0.053269234 0.012875751 0.09366745
v -0.04369278 0.012983731 0.09064064
v -0.041767806 0.012945062 0.0886285
v -0.039868582 0.01298595 0.0903183
v -0.03266689 0.012889475 0.09194817
v -0.041590843 0.015570493 0.09268696
v -0.04385933 0.012986658 0.094562754
v -0.053269234 0.012875751 0.09366745
v -0.041781995 0.01291795 0.09840782
v -0.03966011 0.012993651 0.094535254
v -0.03266689 0.012889475 0.09194817
v -0.053269234 0.012875751 0.09366745
v -0.04400713 0.008599054 0.09467235
v -0.053436775 0.008598828 0.09367592
v -0.04385933 0.012986658 0.094562754
v -0.041781995 0.01291795 0.09840782
v -0.041796263 0.008600543 0.09860859
v -0.039776057 0.008598679 0.090182
v -0.041767806 0.012945062 0.0886285
v -0.041785736 0.008600946 0.08842087
v -0.039868582 0.01298595 0.0903183
v -0.03266689 0.012889475 0.09194817
v -0.032481633 0.008599718 0.091942556
v -0.032481633 0.008599718 0.091942556
v -0.03966011 0.012993651 0.094535254
v -0.03266689 0.012889475 0.09194817
v -0.03954851 0.008598661 0.09465351
v -0.041781995 0.01291795 0.09840782
v -0.041796263 0.008600543 0.09860859
v -0.053436775 0.008598828 0.09367592
v -0.04369278 0.012983731 0.09064064
v -0.053269234 0.012875751 0.09366745
v -0.043827016 0.00859899 0.09052452
v -0.041767806 0.012945062 0.0886285
v -0.041785736 0.008600946 0.08842087
v 0.002270012 0.021602763 0.106708184
v -0 0.021589117 0.10526393
v -0 0.021594884 0.10436474
v 0.0017831802 0.021562064 0.10702949
v 0.003671627 0.02163225 0.10902042
v 0.004370785 0.021656139 0.109019466
v 0.0022984124 0.021702446 0.11148746
v 0.0017848968 0.021653533 0.11113552
v 3.8146972E-08 0.021772295 0.1141291
v 3.8146972E-08 0.021675328 0.113289945
v -0 0.021589117 0.10526393
v 0.0016019249 0.017910624 0.107059665
v -1.9073486E-08 0.017909823 0.10543568
v 0.0017831802 0.021562064 0.10702949
v 0.0035289763 0.017909171 0.10902531
v 0.003671627 0.02163225 0.10902042
v 0.003671627 0.02163225 0.10902042
v 0.0016094208 0.017911416 0.111063875
v 0.0035289763 0.017909171 0.10902531
v 0.0017848968 0.021653533 0.11113552
v 3.8146972E-08 0.021675328 0.113289945
v 3.8146972E-08 0.017909717 0.113127135
v 0.0074952887 0.018244479 0.12834007
v 3.8146972E-08 0.018220387 0.14945854
v 3.8146972E-08 0.020724671 0.12857303
v 3.8146972E-08 0.02150525 0.118437916
v 0.0035807418 0.018168706 0.11689678
v 0.003859005 0.018265802 0.114855684
v 3.8146972E-08 0.021772295 0.1141291
v 0.0022984124 0.021702446 0.11148746
v 0.0055594444 0.018253414 0.1131731
v 0.010381011 0.018243456 0.108650394
v 0.004370785 0.021656139 0.109019466
v 0.002270012 0.021602763 0.106708184
v 0.006457844 0.01825083 0.10466129
v -0 0.021594884 0.10436474
v 0.0033889008 0.018256694 0.10156227
v -0 0.01822835 0.092846446
v -0.0022699928 0.021602763 0.106708184
v -0 0.021594884 0.10436474
v -0 0.021589117 0.10526393
v -0.0017831421 0.021562064 0.10702949
v -0.003671608 0.021632254 0.10902042
v -0.0043707658 0.021656139 0.109019466
v -0.002298355 0.021702446 0.11148746
v -0.0017848396 0.021653533 0.11113552
v 3.8146972E-08 0.021772295 0.1141291
v 3.8146972E-08 0.021675328 0.113289945
v -0.0016019058 0.017910624 0.107059665
v -0 0.021589117 0.10526393
v -1.9073486E-08 0.017909823 0.10543568
v -0.0017831421 0.021562064 0.10702949
v -0.0035289573 0.017909171 0.10902531
v -0.003671608 0.021632254 0.10902042
v -0.0016093635 0.017911416 0.111063875
v -0.003671608 0.021632254 0.10902042
v -0.0035289573 0.017909171 0.10902531
v -0.0017848396 0.021653533 0.11113552
v 3.8146972E-08 0.021675328 0.113289945
v 3.8146972E-08 0.017909717 0.113127135
v -0.0074952124 0.018244479 0.12834007
v 3.8146972E-08 0.020724671 0.12857303
v 3.8146972E-08 0.018220387 0.14945854
v 3.8146972E-08 0.02150525 0.118437916
v -0.0035806845 0.018168706 0.11689678
v -0.0038589477 0.018265802 0.114855684
v 3.8146972E-08 0.021772295 0.1141291
v -0.002298355 0.021702446 0.11148746
v -0.005559387 0.018253414 0.1131731
v -0.010380993 0.018243456 0.108650394
v -0.0043707658 0.021656139 0.109019466
v -0.0022699928 0.021602763 0.106708184
v -0.006457844 0.018250829 0.10466129
v -0 0.021594884 0.10436474
v -0.0033888817 0.018256694 0.10156227
v -0 0.01822835 0.092846446
v -0.041590843 -0.0155706005 0.09268696
v -0.04369278 -0.012983838 0.09064064
v -0.053269234 -0.012875859 0.09366745
v -0.041767806 -0.012945169 0.0886285
v -0.039868582 -0.012986057 0.0903183
v -0.03266689 -0.012889582 0.09194817
v -0.041590843 -0.0155706005 0.09268696
v -0.053269234 -0.012875859 0.09366745
v -0.04385933 -0.012986766 0.094562754
v -0.041781995 -0.012918057 0.09840782
v -0.03966011 -0.012993759 0.094535254
v -0.03266689 -0.012889582 0.09194817
v -0.053269234 -0.012875859 0.09366745
v -0.053436775 -0.008598936 0.09367592
v -0.04400713 -0.008599162 0.09467235
v -0.04385933 -0.012986766 0.094562754
v -0.041781995 -0.012918057 0.09840782
v -0.041796263 -0.008600651 0.09860859
v -0.041767806 -0.012945169 0.0886285
v -0.039776057 -0.008598787 0.090182
v -0.041785736 -0.008601054 0.08842087
v -0.039868582 -0.012986057 0.0903183
v -0.03266689 -0.012889582 0.09194817
v -0.032481633 -0.008599826 0.091942556
v -0.03966011 -0.012993759 0.094535254
v -0.032481633 -0.008599826 0.091942556
v -0.03266689 -0.012889582 0.09194817
v -0.03954851 -0.008598768 0.09465351
v -0.041781995 -0.012918057 0.09840782
v -0.041796263 -0.008600651 0.09860859
v -0.04369278 -0.012983838 0.09064064
v -0.053436775 -0.008598936 0.09367592
v -0.053269234 -0.012875859 0.09366745
v -0.043827016 -0.008599098 0.09052452
v -0.041767806 -0.012945169 0.0886285
v -0.041785736 -0.008601054 0.08842087
v 0.002270012 -0.021602873 0.106708184
v -0 -0.021594994 0.10436474
v -0 -0.021589227 0.10526393
v 0.0017831802 -0.021562172 0.10702949
v 0.003671627 -0.02163236 0.10902042
v 0.004370785 -0.021656249 0.109019466
v 0.0022984124 -0.021702556 0.11148746
v 0.0017848968 -0.021653643 0.11113552
v 3.8146972E-08 -0.021772405 0.1141291
v 3.8146972E-08 -0.021675438 0.113289945
v 0.0016019249 -0.017910732 0.107059665
v -0 -0.021589227 0.10526393
v -1.9073486E-08 -0.01790993 0.10543568
v 0.0017831802 -0.021562172 0.10702949
v 0.0035289763 -0.01790928 0.10902531
v 0.003671627 -0.02163236 0.10902042
v 0.0016094208 -0.017911522 0.111063875
v 0.003671627 -0.02163236 0.10902042
v 0.0035289763 -0.01790928 0.10902531
v 0.0017848968 -0.021653643 0.11113552
v 3.8146972E-08 -0.021675438 0.113289945
v 3.8146972E-08 -0.017909825 0.113127135
v 0.0074952887 -0.018244585 0.12834007
v 3.8146972E-08 -0.02072478 0.12857303
v 3.8146972E-08 -0.018220495 0.14945854
v 3.8146972E-08 -0.02150536 0.118437916
v 0.0035807418 -0.018168814 0.11689678
v 0.003859005 -0.01826591 0.114855684
v 3.8146972E-08 -0.021772405 0.1141291
v 0.0022984124 -0.021702556 0.11148746
v 0.0055594444 -0.01825352 0.1131731
v 0.010381011 -0.018243562 0.108650394
v 0.004370785 -0.021656249 0.109019466
v 0.002270012 -0.021602873 0.106708184
v 0.006457844 -0.018250937 0.10466129
v -0 -0.021594994 0.10436474
v 0.0033889008 -0.0182568 0.10156227
v -0 -0.018228458 0.092846446
v -0.0022699928 -0.021602873 0.106708184
v -0 -0.021589227 0.10526393
v -0 -0.021594994 0.10436474
v -0.0017831421 -0.021562172 0.10702949
v -0.003671608 -0.021632364 0.10902042
v -0.0043707658 -0.021656249 0.109019466
v -0.002298355 -0.021702556 0.11148746
v -0.0017848396 -0.021653643 0.11113552
v 3.8146972E-08 -0.021772405 0.1141291
v 3.8146972E-08 -0.021675438 0.113289945
v -0 -0.021589227 0.10526393
v -0.0016019058 -0.017910732 0.107059665
v -1.9073486E-08 -0.01790993 0.10543568
v -0.0017831421 -0.021562172 0.10702949
v -0.0035289573 -0.01790928 0.10902531
v -0.003671608 -0.021632364 0.10902042
v -0.003671608 -0.021632364 0.10902042
v -0.0016093635 -0.017911522 0.111063875
v -0.0035289573 -0.01790928 0.10902531
v -0.0017848396 -0.021653643 0.11113552
v 3.8146972E-08 -0.021675438 0.113289945
v 3.8146972E-08 -0.017909825 0.113127135
v -0.0074952124 -0.018244585 0.12834007
v 3.8146972E-08 -0.018220495 0.14945854
v 3.8146972E-08 -0.02072478 0.12857303
v 3.8146972E-08 -0.02150536 0.118437916
v -0.0035806845 -0.018168814 0.11689678
v -0.0038589477 -0.01826591 0.114855684
v 3.8146972E-08 -0.021772405 0.1141291
v -0.002298355 -0.021702556 0.11148746
v -0.005559387 -0.018253522 0.1131731
v -0.010380993 -0.018243564 0.108650394
v -0.0043707658 -0.021656249 0.109019466
v -0.0022699928 -0.021602873 0.106708184
v -0.006457844 -0.018250937 0.10466129
v -0 -0.021594994 0.10436474
v -0.0033888817 -0.0182568 0.10156227
v -0 -0.018228458 0.092846446
v 0.0035807418 0.018168706 0.11689678
v 0.0035983084 0.017285477 0.11688911
v 0.0075239753 0.017341437 0.12833515
v 0.0074952887 0.018244479 0.12834007
v 0.0074952887 0.018244479 0.12834007
v 0.0075239753 0.017341437 0.12833515
v 3.8146972E-08 0.017317465 0.14948723
v 3.8146972E-08 0.018220387 0.14945854
v 3.8146972E-08 0.018220387 0.14945854
v 3.8146972E-08 0.017317465 0.14948723
v -0.007523899 0.017341437 0.12833515
v -0.0074952124 0.018244479 0.12834007
v -0.0074952124 0.018244479 0.12834007
v -0.007523899 0.017341437 0.12833515
v -0.0035982511 0.017285477 0.11688911
v -0.0035806845 0.018168706 0.11689678
v -0.0035806845 0.018168706 0.11689678
v -0.0035982511 0.017285477 0.11688911
v -0.003879528 0.017380005 0.114858165
v -0.0038589477 0.018265802 0.114855684
v -0.0038589477 0.018265802 0.114855684
v -0.003879528 0.017380005 0.114858165
v -0.0055701826 0.017376233 0.11318439
v -0.005559387 0.018253414 0.1131731
v -0.010399857 0.017358646 0.10865185
v -0.010380993 0.018243456 0.108650394
v -0.010380993 0.018243456 0.108650394
v -0.010399857 0.017358646 0.10865185
v -0.0064727208 0.017361654 0.104646645
v -0.006457844 0.018250829 0.10466129
v -0.0034078406 0.017363261 0.10154907
v -0.0033888817 0.018256694 0.10156227
v -0.0033888817 0.018256694 0.10156227
v -0.0034078406 0.017363261 0.10154907
v -0 0.017334003 0.09282295
v -0 0.01822835 0.092846446
v -0 0.01822835 0.092846446
v -0 0.017334003 0.09282295
v 0.0034078597 0.017363261 0.10154907
v 0.0033889008 0.018256694 0.10156227
v 0.0033889008 0.018256694 0.10156227
v 0.0034078597 0.017363261 0.10154907
v 0.0064727208 0.017361654 0.104646645
v 0.006457844 0.01825083 0.10466129
v 0.010399875 0.017358646 0.10865185
v 0.010381011 0.018243456 0.108650394
v 0.010381011 0.018243456 0.108650394
v 0.010399875 0.017358646 0.10865185
v 0.00557024 0.017376233 0.11318439
v 0.0055594444 0.018253414 0.1131731
v 0.003879585 0.017380005 0.114858165
v 0.003859005 0.018265802 0.114855684
v 0.003859005 0.018265802 0.114855684
v 0.003879585 0.017380005 0.114858165
v 0.0035983084 0.017285477 0.11688911
v 0.0035807418 0.018168706 0.11689678
v 3.8146972E-08 0.017909717 0.113127135
v 3.8146972E-08 0.017108086 0.113127284
v 0.0016094017 0.0171081 0.111063994
v 0.0016094208 0.017911416 0.111063875
v 0.0016094208 0.017911416 0.111063875
v 0.0016094017 0.0171081 0.111063994
v 0.0035289763 0.017108124 0.109025456
v 0.0035289763 0.017909171 0.10902531
v 0.0035289763 0.017909171 0.10902531
v 0.0035289763 0.017108124 0.109025456
v 0.0016018867 0.017108152 0.107059784
v 0.0016019249 0.017910624 0.107059665
v 1.9073486E-08 0.017108163 0.105435826
v -1.9073486E-08 0.017909823 0.10543568
v -1.9073486E-08 0.017909823 0.10543568
v 1.9073486E-08 0.017108163 0.105435826
v -0.0016018676 0.017108152 0.107059784
v -0.0016019058 0.017910624 0.107059665
v -0.0035289573 0.017108124 0.109025456
v -0.0035289573 0.017909171 0.10902531
v -0.0035289573 0.017909171 0.10902531
v -0.0035289573 0.017108124 0.109025456
v -0.0016093635 0.0171081 0.111063994
v -0.0016093635 0.017911416 0.111063875
v -0.0016093635 0.017911416 0.111063875
v -0.0016093635 0.0171081 0.111063994
v 3.8146972E-08 0.017108086 0.113127284
v 3.8146972E-08 0.017909717 0.113127135
v 0.0074952887 -0.018244585 0.12834007
v 0.0075239753 -0.017341545 0.12833515
v 0.0035983084 -0.017285584 0.11688911
v 0.0035807418 -0.018168814 0.11689678
v 0.0035807418 -0.018168814 0.11689678
v 0.0035983084 -0.017285584 0.11688911
v 0.003879585 -0.017380113 0.114858165
v 0.003859005 -0.01826591 0.114855684
v 0.003859005 -0.01826591 0.114855684
v 0.003879585 -0.017380113 0.114858165
v 0.00557024 -0.01737634 0.11318439
v 0.0055594444 -0.01825352 0.1131731
v 0.010399875 -0.017358754 0.10865185
v 0.010381011 -0.018243562 0.108650394
v 0.010381011 -0.018243562 0.108650394
v 0.010399875 -0.017358754 0.10865185
v 0.0064727208 -0.017361762 0.104646645
v 0.006457844 -0.018250937 0.10466129
v 0.0034078597 -0.017363368 0.10154907
v 0.0033889008 -0.0182568 0.10156227
v 0.0033889008 -0.0182568 0.10156227
v 0.0034078597 -0.017363368 0.10154907
v -0 -0.017334111 0.09282295
v -0 -0.018228458 0.092846446
v -0 -0.018228458 0.092846446
v -0 -0.017334111 0.09282295
v -0.0034078406 -0.017363368 0.10154907
v -0.0033888817 -0.0182568 0.10156227
v -0.0033888817 -0.0182568 0.10156227
v -0.0034078406 -0.017363368 0.10154907
v -0.0064727208 -0.017361762 0.104646645
v -0.006457844 -0.018250937 0.10466129
v -0.010399857 -0.017358754 0.10865185
v -0.010380993 -0.018243564 0.108650394
v -0.010380993 -0.018243564 0.108650394
v -0.010399857 -0.017358754 0.10865185
v -0.0055701826 -0.01737634 0.11318439
v -0.005559387 -0.018253522 0.1131731
v -0.003879528 -0.017380113 0.114858165
v -0.0038589477 -0.01826591 0.114855684
v -0.0038589477 -0.01826591 0.114855684
v -0.003879528 -0.017380113 0.114858165
v -0.0035982511 -0.017285584 0.11688911
v -0.0035806845 -0.018168814 0.11689678
v -0.0035806845 -0.018168814 0.11689678
v -0.0035982511 -0.017285584 0.11688911
v -0.007523899 -0.017341545 0.12833515
v -0.0074952124 -0.018244585 0.12834007
v -0.0074952124 -0.018244585 0.12834007
v -0.007523899 -0.017341545 0.12833515
v 3.8146972E-08 -0.017317573 0.14948723
v 3.8146972E-08 -0.018220495 0.14945854
v 3.8146972E-08 -0.018220495 0.14945854
v 3.8146972E-08 -0.017317573 0.14948723
v 0.0075239753 -0.017341545 0.12833515
v 0.0074952887 -0.018244585 0.12834007
v 0.0016094208 -0.017911522 0.111063875
v 0.0016094017 -0.017108206 0.111063994
v 3.8146972E-08 -0.017108195 0.113127284
v 3.8146972E-08 -0.017909825 0.113127135
v 3.8146972E-08 -0.017909825 0.113127135
v 3.8146972E-08 -0.017108195 0.113127284
v -0.0016093635 -0.017108206 0.111063994
v -0.0016093635 -0.017911522 0.111063875
v -0.0016093635 -0.017911522 0.111063875
v -0.0016093635 -0.017108206 0.111063994
v -0.0035289573 -0.01710823 0.109025456
v -0.0035289573 -0.01790928 0.10902531
v -0.0035289573 -0.01790928 0.10902531
v -0.0035289573 -0.01710823 0.109025456
v -0.0016018676 -0.01710826 0.107059784
v -0.0016019058 -0.017910732 0.107059665
v 1.9073486E-08 -0.01710827 0.105435826
v -1.9073486E-08 -0.01790993 0.10543568
v -1.9073486E-08 -0.01790993 0.10543568
v 1.9073486E-08 -0.01710827 0.105435826
v 0.0016018867 -0.01710826 0.107059784
v 0.0016019249 -0.017910732 0.107059665
v 0.0035289763 -0.01710823 0.109025456
v 0.0035289763 -0.01790928 0.10902531
v 0.0035289763 -0.01790928 0.10902531
v 0.0035289763 -0.01710823 0.109025456
v 0.0016094017 -0.017108206 0.111063994
v 0.0016094208 -0.017911522 0.111063875
vt 0.8350633 0.58891785
vt 0.8282726 0.62396
vt 0.8350633 0.62396
vt 0.8282726 0.58891785
vt 0.8217534 0.58891785
vt 0.8217534 0.62396
vt 0.81500894 0.58891785
vt 0.81500894 0.62396
vt 0.8079004 0.58891785
vt 0.8079004 0.62396
vt 0.8350633 0.58891785
vt 0.8350633 0.62396
vt 0.8282726 0.62396
vt 0.8282726 0.58891785
vt 0.8217534 0.58891785
vt 0.8217534 0.62396
vt 0.81500894 0.58891785
vt 0.81500894 0.62396
vt 0.8079004 0.58891785
vt 0.8079004 0.62396
vt 0.8350633 0.58891785
vt 0.8350633 0.62396
vt 0.8282726 0.62396
vt 0.8282726 0.58891785
vt 0.8217534 0.58891785
vt 0.8217534 0.62396
vt 0.81500894 0.58891785
vt 0.81500894 0.62396
vt 0.8079004 0.58891785
vt 0.8079004 0.62396
vt 0.8350633 0.58891785
vt 0.8282726 0.62396
vt 0.8350633 0.62396
vt 0.8282726 0.58891785
vt 0.8217534 0.58891785
vt 0.8217534 0.62396
vt 0.81500894 0.58891785
vt 0.81500894 0.62396
vt 0.8079004 0.58891785
vt 0.8079004 0.62396
vt 0.5857902 0.9568376
vt 0.64259195 0.9568376
vt 0.59555894 0.94416857
vt 0.5857902 0.9363663
vt 0.5763249 0.9435338
vt 0.5421198 0.9568376
vt 0.5857902 0.96402633
vt 0.5977363 0.9752596
vt 0.64259195 0.96402633
vt 0.5857902 0.99253863
vt 0.5746198 0.9751003
vt 0.5421198 0.96402633
vt 0.17611769 0.08117783
vt 0.20646879 0.06699636
vt 0.17611769 0.06699636
vt 0.20646879 0.08117783
vt 0.2259815 0.08117783
vt 0.2259815 0.06699636
vt 0.062203534 0.108076766
vt 0.074103355 0.12225817
vt 0.074103355 0.108076766
vt 0.062203534 0.12225817
vt 0.040351674 0.12225817
vt 0.040351674 0.108076766
vt 0.07467446 0.08678404
vt 0.042137474 0.10096538
vt 0.07467446 0.10096538
vt 0.042137474 0.08678404
vt 0.018295279 0.10096538
vt 0.018295279 0.08678404
vt 0.7142781 0.21965191
vt 0.6730336 0.23383337
vt 0.7142781 0.23383337
vt 0.6730336 0.21965191
vt 0.6448691 0.23383337
vt 0.6448691 0.21965191
vt 0.5857902 0.9568376
vt 0.59555894 0.94416857
vt 0.64259195 0.9568376
vt 0.5857902 0.9363663
vt 0.5763249 0.9435338
vt 0.5421198 0.9568376
vt 0.5857902 0.96402633
vt 0.64259195 0.96402633
vt 0.5977363 0.9752596
vt 0.5857902 0.99253863
vt 0.5746198 0.9751003
vt 0.5421198 0.96402633
vt 0.17611769 0.08117783
vt 0.17611769 0.06699636
vt 0.20646879 0.06699636
vt 0.20646879 0.08117783
vt 0.2259815 0.08117783
vt 0.2259815 0.06699636
vt 0.074103355 0.12225817
vt 0.062203534 0.108076766
vt 0.074103355 0.108076766
vt 0.062203534 0.12225817
vt 0.040351674 0.12225817
vt 0.040351674 0.108076766
vt 0.042137474 0.10096538
vt 0.07467446 0.08678404
vt 0.07467446 0.10096538
vt 0.042137474 0.08678404
vt 0.018295279 0.10096538
vt 0.018295279 0.08678404
vt 0.6730336 0.23383337
vt 0.7142781 0.21965191
vt 0.7142781 0.23383337
vt 0.6730336 0.21965191
vt 0.6448691 0.23383337
vt 0.6448691 0.21965191
vt 0.5857902 0.9568376
vt 0.64259195 0.9568376
vt 0.59555894 0.94416857
vt 0.5857902 0.9363663
vt 0.5763249 0.9435338
vt 0.5421198 0.9568376
vt 0.5857902 0.96402633
vt 0.5977363 0.9752596
vt 0.64259195 0.96402633
vt 0.5857902 0.99253863
vt 0.5746198 0.9751003
vt 0.5421198 0.96402633
vt 0.17611766 0.08117783
vt 0.20646882 0.06699636
vt 0.17611766 0.06699636
vt 0.20646882 0.08117783
vt 0.22598147 0.08117783
vt 0.22598147 0.06699636
vt 0.062203526 0.108076766
vt 0.074103355 0.12225817
vt 0.074103355 0.108076766
vt 0.062203526 0.12225817
vt 0.04035169 0.12225817
vt 0.04035169 0.108076766
vt 0.07467449 0.08678404
vt 0.042137504 0.10096538
vt 0.07467449 0.10096538
vt 0.042137504 0.08678404
vt 0.018295288 0.10096538
vt 0.018295288 0.08678404
vt 0.7142781 0.21965191
vt 0.6730336 0.23383337
vt 0.7142781 0.23383337
vt 0.6730336 0.21965191
vt 0.6448691 0.23383337
vt 0.6448691 0.21965191
vt 0.35637245 0.73047626
vt 0.35470173 0.72537595
vt 0.35637245 0.7233235
vt 0.35470173 0.73095256
vt 0.35470173 0.73761755
vt 0.35637245 0.7375561
vt 0.35637245 0.7451988
vt 0.35470173 0.7446761
vt 0.35637245 0.7537598
vt 0.35470173 0.7516319
vt 0.6495148 0.45397028
vt 0.64088225 0.44158497
vt 0.6495148 0.44158497
vt 0.6407074 0.45397028
vt 0.6308408 0.44158497
vt 0.6308408 0.45397028
vt 0.6235604 0.45397028
vt 0.61328065 0.44158497
vt 0.6235604 0.44158497
vt 0.61351395 0.45397028
vt 0.60356843 0.45397028
vt 0.60356843 0.44158497
vt 0.98927975 0.710852
vt 0.9668753 0.77171385
vt 0.9668753 0.71074873
vt 0.9668753 0.681096
vt 0.9807097 0.6768163
vt 0.9814677 0.6708146
vt 0.9668753 0.6680615
vt 0.9727056 0.6595928
vt 0.9858271 0.66522425
vt 0.99777555 0.65035933
vt 0.97808146 0.6520329
vt 0.97274196 0.6450298
vt 0.98746896 0.63794214
vt 0.9668753 0.63795453
vt 0.978747 0.6280083
vt 0.9668753 0.6034783
vt 0.34486976 0.7312505
vt 0.34486976 0.7240978
vt 0.34319893 0.7261502
vt 0.34319893 0.7317269
vt 0.34319893 0.7383918
vt 0.34486976 0.73833036
vt 0.34486976 0.74597305
vt 0.34319893 0.7454504
vt 0.34486976 0.75453407
vt 0.34319893 0.7524062
vt 0.6672818 0.44012707
vt 0.67591435 0.45251244
vt 0.67591435 0.44012707
vt 0.6671069 0.45251244
vt 0.65724033 0.44012707
vt 0.65724033 0.45251244
vt 0.5116606 0.4404887
vt 0.52194035 0.45287406
vt 0.52194035 0.4404887
vt 0.51189387 0.45287406
vt 0.50194836 0.45287406
vt 0.50194836 0.4404887
vt 0.9392985 0.710852
vt 0.96170294 0.71074873
vt 0.96170294 0.77171385
vt 0.96170294 0.681096
vt 0.94786847 0.6768163
vt 0.9471104 0.6708146
vt 0.96170294 0.6680615
vt 0.9558724 0.6595928
vt 0.94275117 0.66522425
vt 0.93080246 0.65035933
vt 0.9504967 0.6520329
vt 0.9558363 0.6450298
vt 0.94110906 0.63794214
vt 0.96170294 0.63795453
vt 0.9498309 0.6280083
vt 0.96170294 0.6034783
vt 0.5857902 0.9568376
vt 0.59555894 0.94416857
vt 0.64259195 0.9568376
vt 0.5857902 0.9363663
vt 0.5763249 0.9435338
vt 0.5421198 0.9568376
vt 0.5857902 0.96402633
vt 0.64259195 0.96402633
vt 0.5977363 0.9752596
vt 0.5857902 0.99253863
vt 0.5746198 0.9751003
vt 0.5421198 0.96402633
vt 0.17611766 0.08117783
vt 0.17611766 0.06699636
vt 0.20646882 0.06699636
vt 0.20646882 0.08117783
vt 0.22598147 0.08117783
vt 0.22598147 0.06699636
vt 0.074103355 0.12225817
vt 0.062203526 0.108076766
vt 0.074103355 0.108076766
vt 0.062203526 0.12225817
vt 0.04035169 0.12225817
vt 0.04035169 0.108076766
vt 0.042137504 0.10096538
vt 0.07467449 0.08678404
vt 0.07467449 0.10096538
vt 0.042137504 0.08678404
vt 0.018295288 0.10096538
vt 0.018295288 0.08678404
vt 0.6730336 0.23383337
vt 0.7142781 0.21965191
vt 0.7142781 0.23383337
vt 0.6730336 0.21965191
vt 0.6448691 0.23383337
vt 0.6448691 0.21965191
vt 0.35637245 0.73047626
vt 0.35637245 0.7233235
vt 0.35470173 0.72537595
vt 0.35470173 0.73095256
vt 0.35470173 0.73761755
vt 0.35637245 0.7375561
vt 0.35637245 0.7451988
vt 0.35470173 0.7446761
vt 0.35637245 0.7537598
vt 0.35470173 0.7516319
vt 0.64088225 0.44158497
vt 0.6495148 0.45397028
vt 0.6495148 0.44158497
vt 0.6407074 0.45397028
vt 0.6308408 0.44158497
vt 0.6308408 0.45397028
vt 0.61328065 0.44158497
vt 0.6235604 0.45397028
vt 0.6235604 0.44158497
vt 0.61351395 0.45397028
vt 0.60356843 0.45397028
vt 0.60356843 0.44158497
vt 0.98927975 0.710852
vt 0.9668753 0.71074873
vt 0.9668753 0.77171385
vt 0.9668753 0.681096
vt 0.9807097 0.6768163
vt 0.9814677 0.6708146
vt 0.9668753 0.6680615
vt 0.9727056 0.6595928
vt 0.9858271 0.66522425
vt 0.99777555 0.65035933
vt 0.97808146 0.6520329
vt 0.97274196 0.6450298
vt 0.98746896 0.63794214
vt 0.9668753 0.63795453
vt 0.978747 0.6280083
vt 0.9668753 0.6034783
vt 0.34486976 0.7312505
vt 0.34319893 0.7261502
vt 0.34486976 0.7240978
vt 0.34319893 0.7317269
vt 0.34319893 0.7383918
vt 0.34486976 0.73833036
vt 0.34486976 0.74597305
vt 0.34319893 0.7454504
vt 0.34486976 0.75453407
vt 0.34319893 0.7524062
vt 0.67591435 0.45251244
vt 0.6672818 0.44012707
vt 0.67591435 0.44012707
vt 0.6671069 0.45251244
vt 0.65724033 0.44012707
vt 0.65724033 0.45251244
vt 0.52194035 0.45287406
vt 0.5116606 0.4404887
vt 0.52194035 0.4404887
vt 0.51189387 0.45287406
vt 0.50194836 0.45287406
vt 0.50194836 0.4404887
vt 0.9392985 0.710852
vt 0.96170294 0.77171385
vt 0.96170294 0.71074873
vt 0.96170294 0.681096
vt 0.94786847 0.6768163
vt 0.9471104 0.6708146
vt 0.96170294 0.6680615
vt 0.9558724 0.6595928
vt 0.94275117 0.66522425
vt 0.93080246 0.65035933
vt 0.9504967 0.6520329
vt 0.9558363 0.6450298
vt 0.94110906 0.63794214
vt 0.96170294 0.63795453
vt 0.9498309 0.6280083
vt 0.96170294 0.6034783
vt 0.3302559 0.91136277
vt 0.3302559 0.91136277
vt 0.33352485 0.9222414
vt 0.33352485 0.9222414
vt 0.33352485 0.9222414
vt 0.33352485 0.9222414
vt 0.3274245 0.9421905
vt 0.3274245 0.9421905
vt 0.3274245 0.9421905
vt 0.3274245 0.9421905
vt 0.32132408 0.9222414
vt 0.32132408 0.9222414
vt 0.32132408 0.9222414
vt 0.32132408 0.9222414
vt 0.3245931 0.91136277
vt 0.3245931 0.91136277
vt 0.3245931 0.91136277
vt 0.3245931 0.91136277
vt 0.32434258 0.909326
vt 0.32434258 0.909326
vt 0.32434258 0.909326
vt 0.32434258 0.909326
vt 0.3229002 0.90767914
vt 0.3229002 0.90767914
vt 0.3189287 0.9034976
vt 0.3189287 0.9034976
vt 0.3189287 0.9034976
vt 0.3189287 0.9034976
vt 0.3221512 0.89982194
vt 0.3221512 0.89982194
vt 0.32472625 0.89684117
vt 0.32472625 0.89684117
vt 0.32472625 0.89684117
vt 0.32472625 0.89684117
vt 0.3274245 0.88862085
vt 0.3274245 0.88862085
vt 0.3274245 0.88862085
vt 0.3274245 0.88862085
vt 0.33012268 0.89684117
vt 0.33012268 0.89684117
vt 0.33012268 0.89684117
vt 0.33012268 0.89684117
vt 0.33269766 0.89982194
vt 0.33269766 0.89982194
vt 0.3359203 0.9034976
vt 0.3359203 0.9034976
vt 0.3359203 0.9034976
vt 0.3359203 0.9034976
vt 0.33194873 0.90767914
vt 0.33194873 0.90767914
vt 0.3305064 0.909326
vt 0.3305064 0.909326
vt 0.3305064 0.909326
vt 0.3305064 0.909326
vt 0.3302559 0.91136277
vt 0.3302559 0.91136277
vt 0.3274245 0.90795267
vt 0.3274245 0.90795267
vt 0.32889113 0.90592253
vt 0.32889113 0.90592253
vt 0.32889113 0.90592253
vt 0.32889113 0.90592253
vt 0.33053032 0.9038551
vt 0.33053032 0.9038551
vt 0.33053032 0.9038551
vt 0.33053032 0.9038551
vt 0.32887706 0.9018516
vt 0.32887706 0.9018516
vt 0.3274245 0.9002489
vt 0.3274245 0.9002489
vt 0.3274245 0.9002489
vt 0.3274245 0.9002489
vt 0.32597163 0.9018516
vt 0.32597163 0.9018516
vt 0.3243185 0.9038551
vt 0.3243185 0.9038551
vt 0.3243185 0.9038551
vt 0.3243185 0.9038551
vt 0.32595792 0.90592253
vt 0.32595792 0.90592253
vt 0.32595792 0.90592253
vt 0.32595792 0.90592253
vt 0.3274245 0.90795267
vt 0.3274245 0.90795267
vt 0.33352485 0.9222414
vt 0.33352485 0.9222414
vt 0.3302559 0.91136277
vt 0.3302559 0.91136277
vt 0.3302559 0.91136277
vt 0.3302559 0.91136277
vt 0.3305064 0.909326
vt 0.3305064 0.909326
vt 0.3305064 0.909326
vt 0.3305064 0.909326
vt 0.33194873 0.90767914
vt 0.33194873 0.90767914
vt 0.3359203 0.9034976
vt 0.3359203 0.9034976
vt 0.3359203 0.9034976
vt 0.3359203 0.9034976
vt 0.33269766 0.89982194
vt 0.33269766 0.89982194
vt 0.33012268 0.89684117
vt 0.33012268 0.89684117
vt 0.33012268 0.89684117
vt 0.33012268 0.89684117
vt 0.3274245 0.88862085
vt 0.3274245 0.88862085
vt 0.3274245 0.88862085
vt 0.3274245 0.88862085
vt 0.32472625 0.89684117
vt 0.32472625 0.89684117
vt 0.32472625 0.89684117
vt 0.32472625 0.89684117
vt 0.3221512 0.89982194
vt 0.3221512 0.89982194
vt 0.3189287 0.9034976
vt 0.3189287 0.9034976
vt 0.3189287 0.9034976
vt 0.3189287 0.9034976
vt 0.3229002 0.90767914
vt 0.3229002 0.90767914
vt 0.32434258 0.909326
vt 0.32434258 0.909326
vt 0.32434258 0.909326
vt 0.32434258 0.909326
vt 0.3245931 0.91136277
vt 0.3245931 0.91136277
vt 0.3245931 0.91136277
vt 0.3245931 0.91136277
vt 0.32132408 0.9222414
vt 0.32132408 0.9222414
vt 0.32132408 0.9222414
vt 0.32132408 0.9222414
vt 0.3274245 0.9421905
vt 0.3274245 0.9421905
vt 0.3274245 0.9421905
vt 0.3274245 0.9421905
vt 0.33352485 0.9222414
vt 0.33352485 0.9222414
vt 0.32889113 0.90592253
vt 0.32889113 0.90592253
vt 0.3274245 0.90795267
vt 0.3274245 0.90795267
vt 0.3274245 0.90795267
vt 0.3274245 0.90795267
vt 0.32595792 0.90592253
vt 0.32595792 0.90592253
vt 0.32595792 0.90592253
vt 0.32595792 0.90592253
vt 0.3243185 0.9038551
vt 0.3243185 0.9038551
vt 0.3243185 0.9038551
vt 0.3243185 0.9038551
vt 0.32597163 0.9018516
vt 0.32597163 0.9018516
vt 0.3274245 0.9002489
vt 0.3274245 0.9002489
vt 0.3274245 0.9002489
vt 0.3274245 0.9002489
vt 0.32887706 0.9018516
vt 0.32887706 0.9018516
vt 0.33053032 0.9038551
vt 0.33053032 0.9038551
vt 0.33053032 0.9038551
vt 0.33053032 0.9038551
vt 0.32889113 0.90592253
vt 0.32889113 0.90592253
vn 0.9999968 0 0.0025285769
vn 0.924922 -0.38015082 0.002111281
vn 0.9999968 0 0.0025285766
vn 0.924705 -0.38067833 0.0021100857
vn 0.7071049 -0.7071066 0.0016873118
vn 0.70710486 -0.70710665 0.0016873119
vn 0.3826818 -0.9238787 0.001687128
vn 0.3826816 -0.9238788 0.0016871282
vn -2.4185653E-07 -0.99999857 0.0016872248
vn -2.4175517E-07 -0.99999857 0.0016872251
vn -0.9999968 0 0.0025285766
vn -0.9999968 0 0.0025285769
vn -0.9249214 -0.38015234 0.0021109558
vn -0.92470443 -0.38068002 0.0021097595
vn -0.70710534 -0.7071061 0.0016869835
vn -0.70710534 -0.7071062 0.0016869836
vn -0.38268405 -0.9238777 0.0016871288
vn -0.3826839 -0.9238778 0.0016871286
vn -2.4185653E-07 -0.99999857 0.0016872248
vn -2.4175517E-07 -0.99999857 0.0016872251
vn 0.9999968 0 0.0025285769
vn 0.9999968 0 0.0025285766
vn 0.924922 0.38015082 0.0021111588
vn 0.92470515 0.38067827 0.0021099634
vn 0.7071049 0.70710653 0.0016870826
vn 0.7071049 0.7071066 0.0016870829
vn 0.3826819 0.9238787 0.0016868326
vn 0.3826817 0.9238787 0.0016868329
vn -0 0.99999857 0.0016869236
vn -0 0.99999857 0.0016869233
vn -0.9999968 0 0.0025285766
vn -0.924922 0.38015085 0.0021111534
vn -0.9999968 0 0.0025285769
vn -0.924705 0.38067833 0.0021099574
vn -0.707106 0.70710546 0.001687301
vn -0.70710576 0.70710576 0.0016873007
vn -0.3826831 0.9238781 0.0016870694
vn -0.38268298 0.9238782 0.0016870697
vn -0 0.99999857 0.0016869236
vn -0 0.99999857 0.0016869233
vn 0.039881285 -0.7739023 -0.63204813
vn 0.21983138 -0.70883876 -0.67024
vn 0.33712587 -0.73718137 -0.58558494
vn 0.02365669 -0.8398645 -0.54228026
vn -0.29173324 -0.74461824 -0.60036266
vn -0.16166195 -0.72314626 -0.67150944
vn -0.070602 -0.7899564 0.6090847
vn 0.32271394 -0.7250323 0.6084274
vn 0.08084598 -0.6310703 0.77150124
vn 0.0062744333 -0.9072873 0.42046443
vn -0.44396067 -0.71757 0.536649
vn -0.26193452 -0.6843502 0.68048143
vn 0.10000084 -0.017195288 0.9948388
vn 0.5470742 -0.028549792 0.836597
vn 0.100000836 -0.017195286 0.9948388
vn 0.55366343 -0.028688427 0.8322462
vn 0.87519795 -0.03349971 0.48260352
vn 0.87519795 -0.03349971 0.48260352
vn -0.45771945 -0.030082118 -0.88858765
vn -0.6612197 -0.035167027 -0.7493676
vn -0.6612197 -0.035167027 -0.7493676
vn -0.4587962 -0.03011182 -0.8880312
vn -0.22782269 -0.023213714 -0.9734258
vn -0.2278227 -0.023213716 -0.9734258
vn -0.35266346 -0.024188014 0.9354376
vn -0.65230507 -0.027566653 0.757455
vn -0.35266346 -0.024188014 0.9354376
vn -0.65200824 -0.027564708 0.75771075
vn -0.87271917 -0.02759655 0.48744205
vn -0.87271917 -0.02759655 0.487442
vn 0.3065473 -0.02250682 -0.9515893
vn 0.5302607 -0.031381544 -0.8472537
vn 0.3065473 -0.022506822 -0.9515893
vn 0.52727634 -0.03126762 -0.8491184
vn 0.7193679 -0.03826448 -0.6935746
vn 0.7193679 -0.038264476 -0.6935746
vn 0.039881285 0.7739023 -0.63204813
vn 0.33712587 0.73718137 -0.58558494
vn 0.21983138 0.70883876 -0.67024
vn 0.02365669 0.8398645 -0.54228026
vn -0.29173324 0.74461824 -0.60036266
vn -0.16166195 0.72314626 -0.67150944
vn -0.070602 0.7899564 0.6090847
vn 0.08084598 0.6310703 0.77150124
vn 0.32271394 0.7250323 0.6084274
vn 0.0062744333 0.9072873 0.42046443
vn -0.44396067 0.71757 0.536649
vn -0.26193452 0.6843502 0.68048143
vn 0.10000082 0.017195283 0.9948388
vn 0.100000836 0.017195286 0.9948388
vn 0.5470742 0.028549792 0.836597
vn 0.55366343 0.028688427 0.83224624
vn 0.87519795 0.03349971 0.4826036
vn 0.87519795 0.03349971 0.48260352
vn -0.6612197 0.035167024 -0.7493676
vn -0.45771945 0.030082118 -0.88858765
vn -0.6612197 0.035167024 -0.7493676
vn -0.45879614 0.030111814 -0.8880312
vn -0.22782266 0.023213709 -0.9734258
vn -0.22782266 0.023213709 -0.9734258
vn -0.65230507 0.027566653 0.757455
vn -0.35266346 0.02418802 0.9354376
vn -0.35266346 0.024188017 0.9354375
vn -0.65200824 0.027564708 0.7577107
vn -0.87271917 0.027596546 0.48744196
vn -0.87271917 0.027596544 0.48744196
vn 0.5302607 0.03138154 -0.8472537
vn 0.3065472 0.022506814 -0.9515893
vn 0.30654725 0.022506814 -0.9515893
vn 0.5272762 0.031267613 -0.8491184
vn 0.71936786 0.038264472 -0.6935746
vn 0.7193679 0.038264476 -0.69357455
vn -0.03988225 0.7739021 -0.63204825
vn -0.21983357 0.708839 -0.67023903
vn -0.33712813 0.7371812 -0.5855839
vn -0.023656672 0.8398645 -0.54228026
vn 0.29173434 0.74461794 -0.6003626
vn 0.16166183 0.723146 -0.67150974
vn 0.070603356 0.7899551 0.6090862
vn -0.3227135 0.72503155 0.60842854
vn -0.08084292 0.6310685 0.77150303
vn -0.0062741484 0.90728724 0.42046452
vn 0.44396308 0.7175685 0.53664905
vn 0.26193425 0.684349 0.6804828
vn -0.09999678 0.017195249 0.99483913
vn -0.54707235 0.028550321 0.8365983
vn -0.09999678 0.017195247 0.99483913
vn -0.55366266 0.028688988 0.8322468
vn -0.8751984 0.033500653 0.48260278
vn -0.8751984 0.033500653 0.48260278
vn 0.4577205 0.030081838 -0.8885871
vn 0.66122156 0.03516697 -0.749366
vn 0.66122156 0.03516697 -0.749366
vn 0.45879722 0.030111538 -0.8880306
vn 0.2278227 0.02321321 -0.9734258
vn 0.22782269 0.023213213 -0.9734259
vn 0.35266343 0.024188012 0.9354375
vn 0.6523063 0.027567666 0.757454
vn 0.35266343 0.024188012 0.9354376
vn 0.65200835 0.027565703 0.7577105
vn 0.87272 0.027598416 0.48744038
vn 0.87272 0.027598416 0.48744038
vn -0.30655056 0.022507248 -0.9515882
vn -0.5302629 0.03138217 -0.8472523
vn -0.30655053 0.022507248 -0.9515882
vn -0.527278 0.031268224 -0.8491173
vn -0.7193687 0.038265243 -0.69357365
vn -0.7193687 0.038265247 -0.69357365
vn -0.038285553 0.9990181 0.022297455
vn -0 0.99959546 0.028441861
vn -0 0.99959546 0.02844186
vn -0.03534149 0.9990972 0.023571575
vn -0.047129378 0.99873227 -0.01768292
vn -0.04705587 0.9987174 -0.018687466
vn -0.0610959 0.99574286 -0.069017075
vn -0.06352713 0.995427 -0.07134061
vn -0 0.99617404 -0.08739221
vn -3.426525E-07 0.99617404 -0.0873922
vn -0.7069427 0.03693521 0.7063058
vn -0.7132277 0.035941035 0.7000105
vn -0.7069427 0.03693521 0.7063058
vn -0.7134895 0.03589935 0.6997456
vn -0.7196869 0.0349067 0.6934207
vn -0.7196869 0.0349067 0.6934207
vn -0.73664206 0.037430096 -0.6752463
vn -0.75812757 0.037616853 -0.6510204
vn -0.73664206 0.037430096 -0.6752463
vn -0.7578046 0.0376143 -0.6513965
vn -0.77841127 0.037761603 -0.62661785
vn -0.7784113 0.03776161 -0.62661785
vn 0.36922038 0.9281873 0.046308994
vn 0.31530133 0.9422423 0.11297987
vn 0.31539217 0.9444005 0.092926644
vn 0.5926937 0.8044904 -0.038850673
vn 0.6581885 0.7508825 -0.054436408
vn 0.6099906 0.73317355 0.30061275
vn 0.62467474 0.7356904 0.26180357
vn 0.5073654 0.72084296 0.47219256
vn 0.50126326 0.72558594 0.4714447
vn 0.50737035 0.8617031 -0.006563819
vn 0.510182 0.8592256 0.0380238
vn 0.4315445 0.7976019 -0.42142677
vn 0.4314637 0.79811853 -0.4205305
vn 0.48905107 0.7964296 -0.35570922
vn 0.51411897 0.7944136 -0.32340172
vn 0.5808068 0.7813514 -0.22837126
vn 0.03828447 0.9990181 0.022295937
vn -0 0.99959546 0.02844186
vn -0 0.99959546 0.028441861
vn 0.035340395 0.99909735 0.0235704
vn 0.047127478 0.9987324 -0.017683547
vn 0.047054 0.99871755 -0.018687818
vn 0.061094712 0.995743 -0.06901647
vn 0.063526176 0.995427 -0.07134025
vn -0 0.99617404 -0.08739221
vn -3.426525E-07 0.99617404 -0.0873922
vn 0.7132319 0.035937257 0.7000063
vn 0.7069528 0.036929674 0.7062959
vn 0.7069528 0.036929674 0.7062959
vn 0.7134936 0.035895657 0.6997418
vn 0.71968526 0.03490476 0.6934226
vn 0.71968526 0.03490476 0.6934226
vn 0.7581225 0.037616774 -0.65102637
vn 0.7366353 0.037429865 -0.67525357
vn 0.7366353 0.037429865 -0.67525357
vn 0.7577995 0.037614208 -0.65140235
vn 0.7784079 0.037761666 -0.6266221
vn 0.7784079 0.03776167 -0.62662214
vn -0.36922023 0.92818743 0.0463091
vn -0.31539217 0.9444005 0.092926644
vn -0.31530133 0.9422423 0.11297987
vn -0.5926923 0.8044916 -0.038849972
vn -0.65818685 0.750884 -0.054435764
vn -0.609989 0.7331746 0.3006135
vn -0.62467325 0.7356916 0.26180375
vn -0.5073639 0.72084254 0.47219482
vn -0.50126165 0.72558546 0.4714473
vn -0.50736964 0.8617035 -0.0065627345
vn -0.51018137 0.85922575 0.038027294
vn -0.4315445 0.7976022 -0.42142633
vn -0.4314637 0.7981189 -0.42052984
vn -0.4890518 0.79642904 -0.35570928
vn -0.5141203 0.7944129 -0.32340142
vn -0.58080906 0.78134996 -0.22837082
vn -0.03988225 -0.7739021 -0.63204825
vn -0.33712813 -0.7371812 -0.5855839
vn -0.21983357 -0.708839 -0.67023903
vn -0.023656672 -0.8398645 -0.54228026
vn 0.29173434 -0.74461794 -0.6003626
vn 0.16166183 -0.723146 -0.67150974
vn 0.070603356 -0.7899551 0.6090862
vn -0.08084292 -0.6310685 0.77150303
vn -0.3227135 -0.72503155 0.60842854
vn -0.0062741484 -0.90728724 0.42046452
vn 0.44396308 -0.7175685 0.53664905
vn 0.26193425 -0.684349 0.6804828
vn -0.09999678 -0.01719525 0.99483913
vn -0.09999678 -0.01719525 0.99483913
vn -0.5470724 -0.028550329 0.8365982
vn -0.5536627 -0.028688991 0.8322468
vn -0.8751984 -0.03350065 0.48260272
vn -0.8751984 -0.033500656 0.48260278
vn 0.66122156 -0.03516698 -0.749366
vn 0.45772055 -0.030081844 -0.8885871
vn 0.66122156 -0.03516698 -0.749366
vn 0.45879728 -0.030111546 -0.8880306
vn 0.22782269 -0.023213217 -0.9734259
vn 0.22782269 -0.023213211 -0.9734258
vn 0.6523063 -0.027567666 0.757454
vn 0.35266346 -0.024188017 0.9354375
vn 0.35266343 -0.024188016 0.9354375
vn 0.6520084 -0.027565701 0.75771046
vn 0.87272006 -0.027598413 0.48744032
vn 0.87272 -0.027598416 0.48744032
vn -0.5302629 -0.03138217 -0.8472523
vn -0.3065506 -0.022507256 -0.9515882
vn -0.30655056 -0.022507254 -0.9515882
vn -0.52727807 -0.03126823 -0.8491173
vn -0.71936864 -0.03826525 -0.69357365
vn -0.7193687 -0.038265254 -0.69357365
vn -0.038285557 -0.9990181 0.02229746
vn -0 -0.99959546 0.028441861
vn -0 -0.99959546 0.028441861
vn -0.035341494 -0.9990972 0.02357158
vn -0.047129385 -0.99873227 -0.01768292
vn -0.047055878 -0.9987174 -0.018687466
vn -0.0610959 -0.99574286 -0.069017075
vn -0.06352712 -0.995427 -0.07134061
vn -0 -0.99617404 -0.08739221
vn -3.334743E-07 -0.99617404 -0.08739221
vn -0.7132277 -0.035941012 0.7000105
vn -0.7069427 -0.036935184 0.7063058
vn -0.7069427 -0.036935184 0.7063058
vn -0.71348953 -0.035899322 0.69974554
vn -0.7196869 -0.034906674 0.6934207
vn -0.719687 -0.034906674 0.69342065
vn -0.75812757 -0.03761683 -0.6510204
vn -0.73664206 -0.037430067 -0.6752462
vn -0.7366421 -0.03743006 -0.6752462
vn -0.7578046 -0.037614264 -0.65139645
vn -0.7784113 -0.037761584 -0.62661785
vn -0.7784113 -0.03776158 -0.6266178
vn 0.3692206 -0.9281872 0.046309017
vn 0.31539246 -0.9444005 0.0929267
vn 0.31530157 -0.9422422 0.11297997
vn 0.592694 -0.80449015 -0.038850706
vn 0.6581889 -0.75088227 -0.054436453
vn 0.60999095 -0.7331732 0.30061284
vn 0.62467504 -0.7356901 0.26180375
vn 0.5073656 -0.7208427 0.47219276
vn 0.50126344 -0.7255857 0.47144493
vn 0.50737053 -0.861703 -0.0065638362
vn 0.5101822 -0.85922545 0.03802383
vn 0.43154472 -0.79760176 -0.42142695
vn 0.43146384 -0.7981183 -0.42053068
vn 0.4890513 -0.7964293 -0.35570937
vn 0.51411927 -0.7944134 -0.3234019
vn 0.5808071 -0.78135115 -0.2283713
vn 0.03828447 -0.9990181 0.022295937
vn -0 -0.99959546 0.028441861
vn -0 -0.99959546 0.028441861
vn 0.035340395 -0.99909735 0.0235704
vn 0.047127478 -0.9987324 -0.017683547
vn 0.047054 -0.99871755 -0.018687818
vn 0.061094724 -0.995743 -0.06901647
vn 0.06352618 -0.995427 -0.071340255
vn -0 -0.99617404 -0.08739221
vn -3.334743E-07 -0.99617404 -0.08739221
vn 0.70695275 -0.03692965 0.70629597
vn 0.713232 -0.03593723 0.7000062
vn 0.70695275 -0.036929652 0.70629597
vn 0.7134936 -0.035895627 0.6997418
vn 0.71968526 -0.034904737 0.6934225
vn 0.71968526 -0.034904737 0.6934226
vn 0.7366353 -0.037429832 -0.67525357
vn 0.7581225 -0.037616745 -0.65102625
vn 0.7366353 -0.03742983 -0.6752535
vn 0.7577995 -0.037614178 -0.65140235
vn 0.7784079 -0.03776164 -0.6266221
vn 0.7784079 -0.037761644 -0.6266221
vn -0.3692205 -0.9281873 0.046309132
vn -0.31530157 -0.9422422 0.11297997
vn -0.31539246 -0.9444005 0.0929267
vn -0.59269255 -0.8044912 -0.038850006
vn -0.65818715 -0.7508838 -0.054435823
vn -0.6099892 -0.7331743 0.3006136
vn -0.6246735 -0.73569137 0.2618038
vn -0.50736403 -0.7208423 0.4721949
vn -0.5012618 -0.7255852 0.47144744
vn -0.50736994 -0.86170346 -0.0065627536
vn -0.5101816 -0.8592256 0.038027257
vn -0.43154472 -0.79760194 -0.42142648
vn -0.43146384 -0.79811865 -0.42053
vn -0.48905203 -0.7964288 -0.35570946
vn -0.5141205 -0.7944127 -0.3234016
vn -0.5808093 -0.78134966 -0.22837092
vn 0.94565547 0.026770353 -0.32406664
vn 0.94565547 0.026770351 -0.32406664
vn 0.94565547 0.026770357 -0.32406664
vn 0.94565547 0.026770353 -0.32406664
vn 0.9421037 0.019370044 0.33476183
vn 0.9421037 0.019370044 0.3347618
vn 0.9421037 0.019370042 0.33476177
vn 0.9421037 0.019370044 0.3347618
vn -0.9421037 0.019370044 0.3347618
vn -0.9421037 0.019370044 0.3347618
vn -0.9421037 0.019370044 0.3347618
vn -0.9421037 0.019370044 0.3347618
vn -0.9456559 0.026770327 -0.32406518
vn -0.9456559 0.026770331 -0.32406518
vn -0.9456559 0.02677033 -0.32406518
vn -0.9456559 0.02677033 -0.32406515
vn -0.99033993 0.020953516 0.13706894
vn -0.99033993 0.020953517 0.13706896
vn -0.99033993 0.020953517 0.13706896
vn -0.99033993 0.020953514 0.13706896
vn -0.70338625 0.01806871 0.7105781
vn -0.70338625 0.018068714 0.71057814
vn -0.7033862 0.018068712 0.7105782
vn -0.70338625 0.018068714 0.71057814
vn -0.68415874 0.016788742 0.72913986
vn -0.68415874 0.016788742 0.72913986
vn -0.71339107 0.018780619 -0.7005145
vn -0.71339107 0.018780619 -0.7005143
vn -0.71339107 0.018780623 -0.7005144
vn -0.71339107 0.018780619 -0.7005144
vn -0.7104981 0.024472542 -0.7032734
vn -0.71049803 0.02447254 -0.7032735
vn -0.9315971 0.017332265 -0.3630792
vn -0.9315971 0.017332265 -0.36307922
vn -0.9315971 0.017332267 -0.36307922
vn -0.9315971 0.017332263 -0.3630792
vn 0.9315964 0.017332254 -0.36308095
vn 0.9315964 0.017332254 -0.36308098
vn 0.9315964 0.017332254 -0.36308095
vn 0.9315964 0.017332254 -0.36308098
vn 0.7105003 0.024472507 -0.7032712
vn 0.7105003 0.02447251 -0.7032712
vn 0.71050036 0.024472509 -0.7032712
vn 0.7105003 0.024472507 -0.7032712
vn 0.71338946 0.018780578 -0.70051616
vn 0.71338946 0.018780576 -0.70051616
vn 0.68416166 0.016788835 0.7291372
vn 0.68416166 0.016788835 0.7291371
vn 0.68416166 0.016788833 0.7291372
vn 0.68416166 0.016788833 0.7291372
vn 0.70338625 0.018068725 0.71057814
vn 0.70338625 0.018068725 0.71057814
vn 0.99033993 0.02095352 0.13706894
vn 0.99033993 0.020953521 0.13706894
vn 0.99033993 0.02095352 0.13706896
vn 0.99033993 0.020953521 0.13706894
vn -0.78849876 -9.300629E-05 -0.61503637
vn -0.78849876 -9.3006274E-05 -0.61503637
vn -0.78849876 -9.3006274E-05 -0.61503637
vn -0.78849876 -9.3006274E-05 -0.61503637
vn -0.72803515 -0.00010543953 -0.6855398
vn -0.72803515 -0.00010543952 -0.6855398
vn -0.72803515 -0.00010543952 -0.6855398
vn -0.72803515 -0.00010543952 -0.6855398
vn -0.7140807 0.00013357878 0.70006335
vn -0.71408063 0.00013357878 0.7000634
vn -0.7140807 0.00013357881 0.70006335
vn -0.7140807 0.0001335788 0.70006335
vn -0.7119274 0.000116899675 0.7022531
vn -0.7119274 0.00011689968 0.7022531
vn 0.7119315 0.00015076404 0.7022488
vn 0.7119316 0.00015076404 0.7022488
vn 0.7119316 0.00015076406 0.7022488
vn 0.7119316 0.00015076404 0.7022488
vn 0.71408063 0.00013357878 0.7000634
vn 0.71408063 0.00013357878 0.7000634
vn 0.72803 -0.00011414588 -0.68554527
vn 0.72803 -0.00011414588 -0.68554527
vn 0.72803 -0.00011414587 -0.68554527
vn 0.72803 -0.00011414586 -0.6855452
vn 0.7884934 -0.000102341706 -0.61504316
vn 0.7884934 -0.000102341706 -0.61504316
vn 0.7884934 -0.00010234169 -0.61504316
vn 0.7884934 -0.00010234169 -0.61504316
vn 0.94565535 -0.026770353 -0.3240666
vn 0.94565547 -0.026770357 -0.32406664
vn 0.94565535 -0.02677035 -0.3240666
vn 0.94565547 -0.026770353 -0.32406664
vn 0.99033993 -0.020953521 0.13706894
vn 0.99033993 -0.02095352 0.13706896
vn 0.99033993 -0.020953521 0.13706894
vn 0.99033993 -0.02095352 0.13706894
vn 0.7033862 -0.018068725 0.7105782
vn 0.7033862 -0.018068725 0.7105782
vn 0.7033862 -0.018068725 0.7105782
vn 0.7033862 -0.018068725 0.7105782
vn 0.68416166 -0.016788837 0.7291372
vn 0.6841616 -0.016788833 0.7291372
vn 0.71338946 -0.018780576 -0.70051616
vn 0.71338946 -0.018780576 -0.70051616
vn 0.71338946 -0.018780576 -0.7005161
vn 0.71338946 -0.018780572 -0.7005161
vn 0.71050024 -0.024472555 -0.70327127
vn 0.7105003 -0.024472557 -0.7032712
vn 0.9315964 -0.017332254 -0.36308095
vn 0.9315964 -0.017332252 -0.36308092
vn 0.9315964 -0.017332254 -0.36308095
vn 0.9315964 -0.017332254 -0.36308095
vn -0.9315971 -0.017332222 -0.36307922
vn -0.9315971 -0.017332222 -0.36307922
vn -0.9315971 -0.017332222 -0.36307922
vn -0.9315971 -0.017332222 -0.36307922
vn -0.71049803 -0.02447254 -0.7032735
vn -0.7104981 -0.024472542 -0.7032734
vn -0.71049803 -0.024472542 -0.70327353
vn -0.71049803 -0.024472542 -0.70327353
vn -0.71339107 -0.018780619 -0.7005143
vn -0.71339107 -0.018780617 -0.7005144
vn -0.68415886 -0.016788743 0.72913986
vn -0.68415874 -0.016788742 0.72913986
vn -0.68415874 -0.016788742 0.72913986
vn -0.68415874 -0.016788742 0.72913986
vn -0.70338625 -0.018068714 0.71057814
vn -0.70338625 -0.01806871 0.7105781
vn -0.99033993 -0.020953514 0.13706896
vn -0.99033993 -0.020953517 0.13706896
vn -0.99033993 -0.020953517 0.13706896
vn -0.99033993 -0.020953516 0.13706894
vn -0.9456559 -0.026770364 -0.32406518
vn -0.9456559 -0.026770364 -0.32406518
vn -0.9456559 -0.026770366 -0.3240652
vn -0.9456559 -0.026770364 -0.32406518
vn -0.9421037 -0.019370044 0.33476183
vn -0.9421037 -0.019370044 0.3347618
vn -0.9421037 -0.019370042 0.33476177
vn -0.9421037 -0.019370044 0.3347618
vn 0.9421037 -0.019370044 0.3347618
vn 0.9421037 -0.019370044 0.3347618
vn 0.9421037 -0.019370044 0.3347618
vn 0.9421037 -0.019370044 0.3347618
vn -0.78849876 9.3006274E-05 -0.6150363
vn -0.78849876 9.300627E-05 -0.6150363
vn -0.78849876 9.3006274E-05 -0.6150363
vn -0.7884988 9.3006274E-05 -0.6150363
vn 0.7884934 0.00010234169 -0.61504316
vn 0.7884934 0.00010234169 -0.61504316
vn 0.7884934 0.000102341706 -0.61504316
vn 0.7884934 0.000102341706 -0.61504316
vn 0.72802997 0.000114145885 -0.6855454
vn 0.72802997 0.00011414587 -0.6855453
vn 0.72802997 0.000114145885 -0.6855454
vn 0.72802997 0.00011414589 -0.6855454
vn 0.7140807 -0.00013357878 0.70006335
vn 0.71408063 -0.00013357878 0.7000634
vn 0.7140807 -0.00013357881 0.70006335
vn 0.7140807 -0.0001335788 0.70006335
vn 0.7119316 -0.00015076404 0.7022488
vn 0.7119315 -0.00015076404 0.7022488
vn -0.7119274 -0.00011689968 0.7022531
vn -0.7119274 -0.000116899675 0.7022531
vn -0.71192735 -0.000116899675 0.7022531
vn -0.71192735 -0.00011689966 0.7022531
vn -0.71408063 -0.00013357878 0.7000634
vn -0.71408063 -0.00013357878 0.7000634
vn -0.7280351 0.00010543951 -0.68553984
vn -0.7280351 0.00010543951 -0.68553984
vn -0.7280351 0.00010543951 -0.68553984
vn -0.7280351 0.000105439525 -0.68553984
g S_wpn_sword_0006_vfx_01_lod0_0
f 3/3/3 2/2/2 1/1/1
f 2/2/2 4/4/4 1/1/1
f 5/5/5 4/4/4 2/2/2
f 6/6/6 5/5/5 2/2/2
f 7/7/7 5/5/5 6/6/6
f 8/8/8 7/7/7 6/6/6
f 9/9/9 7/7/7 8/8/8
f 10/10/10 9/9/9 8/8/8
f 13/13/13 12/12/12 11/11/11
f 14/14/14 13/13/13 11/11/11
f 13/13/13 14/14/14 15/15/15
f 16/16/16 13/13/13 15/15/15
f 16/16/16 15/15/15 17/17/17
f 18/18/18 16/16/16 17/17/17
f 18/18/18 17/17/17 19/19/19
f 20/20/20 18/18/18 19/19/19
f 23/23/23 22/22/22 21/21/21
f 24/24/24 23/23/23 21/21/21
f 23/23/23 24/24/24 25/25/25
f 26/26/26 23/23/23 25/25/25
f 26/26/26 25/25/25 27/27/27
f 28/28/28 26/26/26 27/27/27
f 28/28/28 27/27/27 29/29/29
f 30/30/30 28/28/28 29/29/29
f 33/33/33 32/32/32 31/31/31
f 32/32/32 34/34/34 31/31/31
f 35/35/35 34/34/34 32/32/32
f 36/36/36 35/35/35 32/32/32
f 37/37/37 35/35/35 36/36/36
f 38/38/38 37/37/37 36/36/36
f 39/39/39 37/37/37 38/38/38
f 40/40/40 39/39/39 38/38/38
f 43/43/43 42/42/42 41/41/41
f 44/44/44 43/43/43 41/41/41
f 44/44/44 41/41/41 45/45/45
f 46/46/46 45/45/45 41/41/41
f 49/49/49 48/48/48 47/47/47
f 50/50/50 47/47/47 48/48/48
f 50/50/50 51/51/51 47/47/47
f 52/52/52 47/47/47 51/51/51
f 55/55/55 54/54/54 53/53/53
f 54/54/54 56/56/56 53/53/53
f 57/57/57 56/56/56 54/54/54
f 58/58/58 57/57/57 54/54/54
f 61/61/61 60/60/60 59/59/59
f 60/60/60 62/62/62 59/59/59
f 59/59/59 62/62/62 63/63/63
f 64/64/64 59/59/59 63/63/63
f 67/67/67 66/66/66 65/65/65
f 66/66/66 68/68/68 65/65/65
f 66/66/66 69/69/69 68/68/68
f 69/69/69 70/70/70 68/68/68
f 73/73/73 72/72/72 71/71/71
f 72/72/72 74/74/74 71/71/71
f 72/72/72 75/75/75 74/74/74
f 75/75/75 76/76/76 74/74/74
f 79/79/79 78/78/78 77/77/77
f 78/78/78 80/80/80 77/77/77
f 77/77/77 80/80/80 81/81/81
f 81/81/81 82/82/82 77/77/77
f 85/85/85 84/84/84 83/83/83
f 83/83/83 86/86/86 85/85/85
f 87/87/87 86/86/86 83/83/83
f 83/83/83 88/88/88 87/87/87
f 91/91/91 90/90/90 89/89/89
f 92/92/92 91/91/91 89/89/89
f 92/92/92 93/93/93 91/91/91
f 93/93/93 94/94/94 91/91/91
f 97/97/97 96/96/96 95/95/95
f 96/96/96 98/98/98 95/95/95
f 99/99/99 98/98/98 96/96/96
f 100/100/100 99/99/99 96/96/96
f 103/103/103 102/102/102 101/101/101
f 102/102/102 104/104/104 101/101/101
f 101/101/101 104/104/104 105/105/105
f 104/104/104 106/106/106 105/105/105
f 109/109/109 108/108/108 107/107/107
f 108/108/108 110/110/110 107/107/107
f 107/107/107 110/110/110 111/111/111
f 110/110/110 112/112/112 111/111/111
f 115/115/115 114/114/114 113/113/113
f 116/116/116 115/115/115 113/113/113
f 116/116/116 113/113/113 117/117/117
f 118/118/118 117/117/117 113/113/113
f 121/121/121 120/120/120 119/119/119
f 122/122/122 119/119/119 120/120/120
f 122/122/122 123/123/123 119/119/119
f 124/124/124 119/119/119 123/123/123
f 127/127/127 126/126/126 125/125/125
f 126/126/126 128/128/128 125/125/125
f 129/129/129 128/128/128 126/126/126
f 130/130/130 129/129/129 126/126/126
f 133/133/133 132/132/132 131/131/131
f 132/132/132 134/134/134 131/131/131
f 131/131/131 134/134/134 135/135/135
f 136/136/136 131/131/131 135/135/135
f 139/139/139 138/138/138 137/137/137
f 138/138/138 140/140/140 137/137/137
f 138/138/138 141/141/141 140/140/140
f 141/141/141 142/142/142 140/140/140
f 145/145/145 144/144/144 143/143/143
f 144/144/144 146/146/146 143/143/143
f 144/144/144 147/147/147 146/146/146
f 147/147/147 148/148/148 146/146/146
f 151/151/151 150/150/150 149/149/149
f 150/150/150 152/152/152 149/149/149
f 149/149/149 152/152/152 153/153/153
f 154/154/154 149/149/149 153/153/153
f 154/154/154 153/153/153 155/155/155
f 153/153/153 156/156/156 155/155/155
f 157/157/157 155/155/155 156/156/156
f 158/158/158 157/157/157 156/156/156
f 161/161/161 160/160/160 159/159/159
f 160/160/160 162/162/162 159/159/159
f 162/162/162 160/160/160 163/163/163
f 164/164/164 162/162/162 163/163/163
f 167/167/167 166/166/166 165/165/165
f 166/166/166 168/168/168 165/165/165
f 168/168/168 166/166/166 169/169/169
f 166/166/166 170/170/170 169/169/169
f 173/173/173 172/172/172 171/171/171
f 174/174/174 173/173/173 171/171/171
f 174/174/174 171/171/171 175/175/175
f 175/175/175 176/176/176 174/174/174
f 176/176/176 177/177/177 174/174/174
f 178/178/178 177/177/177 176/176/176
f 179/179/179 178/178/178 176/176/176
f 178/178/178 179/179/179 180/180/180
f 181/181/181 178/178/178 180/180/180
f 182/182/182 181/181/181 180/180/180
f 183/183/183 182/182/182 180/180/180
f 184/184/184 182/182/182 183/183/183
f 185/185/185 184/184/184 183/183/183
f 185/185/185 186/186/186 184/184/184
f 189/189/189 188/188/188 187/187/187
f 190/190/190 189/189/189 187/187/187
f 190/190/190 187/187/187 191/191/191
f 187/187/187 192/192/192 191/191/191
f 192/192/192 193/193/193 191/191/191
f 193/193/193 194/194/194 191/191/191
f 194/194/194 193/193/193 195/195/195
f 196/196/196 194/194/194 195/195/195
f 199/199/199 198/198/198 197/197/197
f 198/198/198 200/200/200 197/197/197
f 197/197/197 200/200/200 201/201/201
f 200/200/200 202/202/202 201/201/201
f 205/205/205 204/204/204 203/203/203
f 204/204/204 206/206/206 203/203/203
f 203/203/203 206/206/206 207/207/207
f 208/208/208 203/203/203 207/207/207
f 211/211/211 210/210/210 209/209/209
f 210/210/210 212/212/212 209/209/209
f 209/209/209 212/212/212 213/213/213
f 213/213/213 212/212/212 214/214/214
f 212/212/212 215/215/215 214/214/214
f 214/214/214 215/215/215 216/216/216
f 217/217/217 214/214/214 216/216/216
f 217/217/217 216/216/216 218/218/218
f 216/216/216 219/219/219 218/218/218
f 218/218/218 219/219/219 220/220/220
f 221/221/221 218/218/218 220/220/220
f 221/221/221 220/220/220 222/222/222
f 223/223/223 221/221/221 222/222/222
f 224/224/224 223/223/223 222/222/222
f 227/227/227 226/226/226 225/225/225
f 226/226/226 228/228/228 225/225/225
f 225/225/225 228/228/228 229/229/229
f 229/229/229 230/230/230 225/225/225
f 233/233/233 232/232/232 231/231/231
f 231/231/231 234/234/234 233/233/233
f 235/235/235 234/234/234 231/231/231
f 231/231/231 236/236/236 235/235/235
f 239/239/239 238/238/238 237/237/237
f 240/240/240 239/239/239 237/237/237
f 240/240/240 241/241/241 239/239/239
f 241/241/241 242/242/242 239/239/239
f 245/245/245 244/244/244 243/243/243
f 244/244/244 246/246/246 243/243/243
f 247/247/247 246/246/246 244/244/244
f 248/248/248 247/247/247 244/244/244
f 251/251/251 250/250/250 249/249/249
f 250/250/250 252/252/252 249/249/249
f 249/249/249 252/252/252 253/253/253
f 252/252/252 254/254/254 253/253/253
f 257/257/257 256/256/256 255/255/255
f 256/256/256 258/258/258 255/255/255
f 255/255/255 258/258/258 259/259/259
f 258/258/258 260/260/260 259/259/259
f 263/263/263 262/262/262 261/261/261
f 264/264/264 263/263/263 261/261/261
f 264/264/264 261/261/261 265/265/265
f 261/261/261 266/266/266 265/265/265
f 266/266/266 267/267/267 265/265/265
f 267/267/267 268/268/268 265/265/265
f 268/268/268 267/267/267 269/269/269
f 270/270/270 268/268/268 269/269/269
f 273/273/273 272/272/272 271/271/271
f 272/272/272 274/274/274 271/271/271
f 271/271/271 274/274/274 275/275/275
f 274/274/274 276/276/276 275/275/275
f 279/279/279 278/278/278 277/277/277
f 278/278/278 280/280/280 277/277/277
f 277/277/277 280/280/280 281/281/281
f 282/282/282 277/277/277 281/281/281
f 285/285/285 284/284/284 283/283/283
f 284/284/284 286/286/286 283/283/283
f 283/283/283 286/286/286 287/287/287
f 287/287/287 286/286/286 288/288/288
f 286/286/286 289/289/289 288/288/288
f 288/288/288 289/289/289 290/290/290
f 291/291/291 288/288/288 290/290/290
f 291/291/291 290/290/290 292/292/292
f 290/290/290 293/293/293 292/292/292
f 292/292/292 293/293/293 294/294/294
f 295/295/295 292/292/292 294/294/294
f 295/295/295 294/294/294 296/296/296
f 297/297/297 295/295/295 296/296/296
f 298/298/298 297/297/297 296/296/296
f 301/301/301 300/300/300 299/299/299
f 300/300/300 302/302/302 299/299/299
f 299/299/299 302/302/302 303/303/303
f 304/304/304 299/299/299 303/303/303
f 304/304/304 303/303/303 305/305/305
f 303/303/303 306/306/306 305/305/305
f 307/307/307 305/305/305 306/306/306
f 308/308/308 307/307/307 306/306/306
f 311/311/311 310/310/310 309/309/309
f 310/310/310 312/312/312 309/309/309
f 312/312/312 310/310/310 313/313/313
f 314/314/314 312/312/312 313/313/313
f 317/317/317 316/316/316 315/315/315
f 316/316/316 318/318/318 315/315/315
f 318/318/318 316/316/316 319/319/319
f 316/316/316 320/320/320 319/319/319
f 323/323/323 322/322/322 321/321/321
f 324/324/324 323/323/323 321/321/321
f 324/324/324 321/321/321 325/325/325
f 325/325/325 326/326/326 324/324/324
f 326/326/326 327/327/327 324/324/324
f 328/328/328 327/327/327 326/326/326
f 329/329/329 328/328/328 326/326/326
f 328/328/328 329/329/329 330/330/330
f 331/331/331 328/328/328 330/330/330
f 332/332/332 331/331/331 330/330/330
f 333/333/333 332/332/332 330/330/330
f 334/334/334 332/332/332 333/333/333
f 335/335/335 334/334/334 333/333/333
f 335/335/335 336/336/336 334/334/334
f 339/339/339 338/338/338 337/337/337
f 340/340/340 339/339/339 337/337/337
f 343/343/343 342/342/342 341/341/341
f 344/344/344 343/343/343 341/341/341
f 347/347/347 346/346/346 345/345/345
f 348/348/348 347/347/347 345/345/345
f 351/351/351 350/350/350 349/349/349
f 352/352/352 351/351/351 349/349/349
f 355/355/355 354/354/354 353/353/353
f 356/356/356 355/355/355 353/353/353
f 359/359/359 358/358/358 357/357/357
f 360/360/360 359/359/359 357/357/357
f 361/361/361 359/359/359 360/360/360
f 362/362/362 361/361/361 360/360/360
f 365/365/365 364/364/364 363/363/363
f 366/366/366 365/365/365 363/363/363
f 367/367/367 365/365/365 366/366/366
f 368/368/368 367/367/367 366/366/366
f 371/371/371 370/370/370 369/369/369
f 372/372/372 371/371/371 369/369/369
f 375/375/375 374/374/374 373/373/373
f 376/376/376 375/375/375 373/373/373
f 379/379/379 378/378/378 377/377/377
f 380/380/380 379/379/379 377/377/377
f 381/381/381 379/379/379 380/380/380
f 382/382/382 381/381/381 380/380/380
f 385/385/385 384/384/384 383/383/383
f 386/386/386 385/385/385 383/383/383
f 387/387/387 385/385/385 386/386/386
f 388/388/388 387/387/387 386/386/386
f 391/391/391 390/390/390 389/389/389
f 392/392/392 391/391/391 389/389/389
f 395/395/395 394/394/394 393/393/393
f 396/396/396 395/395/395 393/393/393
f 399/399/399 398/398/398 397/397/397
f 400/400/400 399/399/399 397/397/397
f 403/403/403 402/402/402 401/401/401
f 404/404/404 403/403/403 401/401/401
f 405/405/405 403/403/403 404/404/404
f 406/406/406 405/405/405 404/404/404
f 409/409/409 408/408/408 407/407/407
f 410/410/410 409/409/409 407/407/407
f 411/411/411 409/409/409 410/410/410
f 412/412/412 411/411/411 410/410/410
f 415/415/415 414/414/414 413/413/413
f 416/416/416 415/415/415 413/413/413
f 419/419/419 418/418/418 417/417/417
f 420/420/420 419/419/419 417/417/417
f 423/423/423 422/422/422 421/421/421
f 424/424/424 423/423/423 421/421/421
f 427/427/427 426/426/426 425/425/425
f 428/428/428 427/427/427 425/425/425
f 431/431/431 430/430/430 429/429/429
f 432/432/432 431/431/431 429/429/429
f 433/433/433 431/431/431 432/432/432
f 434/434/434 433/433/433 432/432/432
f 437/437/437 436/436/436 435/435/435
f 438/438/438 437/437/437 435/435/435
f 439/439/439 437/437/437 438/438/438
f 440/440/440 439/439/439 438/438/438
f 443/443/443 442/442/442 441/441/441
f 444/444/444 443/443/443 441/441/441
f 447/447/447 446/446/446 445/445/445
f 448/448/448 447/447/447 445/445/445
f 451/451/451 450/450/450 449/449/449
f 452/452/452 451/451/451 449/449/449
f 453/453/453 451/451/451 452/452/452
f 454/454/454 453/453/453 452/452/452
f 457/457/457 456/456/456 455/455/455
f 458/458/458 457/457/457 455/455/455
f 459/459/459 457/457/457 458/458/458
f 460/460/460 459/459/459 458/458/458
f 463/463/463 462/462/462 461/461/461
f 464/464/464 463/463/463 461/461/461
f 467/467/467 466/466/466 465/465/465
f 468/468/468 467/467/467 465/465/465
f 471/471/471 470/470/470 469/469/469
f 472/472/472 471/471/471 469/469/469
f 475/475/475 474/474/474 473/473/473
f 476/476/476 475/475/475 473/473/473
f 479/479/479 478/478/478 477/477/477
f 480/480/480 479/479/479 477/477/477
f 483/483/483 482/482/482 481/481/481
f 484/484/484 483/483/483 481/481/481
f 487/487/487 486/486/486 485/485/485
f 488/488/488 487/487/487 485/485/485
f 491/491/491 490/490/490 489/489/489
f 492/492/492 491/491/491 489/489/489
f 493/493/493 491/491/491 492/492/492
f 494/494/494 493/493/493 492/492/492
f 497/497/497 496/496/496 495/495/495
f 498/498/498 497/497/497 495/495/495
f 499/499/499 497/497/497 498/498/498
f 500/500/500 499/499/499 498/498/498
f 503/503/503 502/502/502 501/501/501
f 504/504/504 503/503/503 501/501/501
