g S_wpn_funnel_0006_03_lod0
v 0.033228565 -1.7590133E-09 -0.010796748
v 0.030064788 0.0089138625 -0.0154064065
v 0.02826663 -3.3458485E-09 -0.020536672
v 0.033515066 0.008121248 -0.005611857
v 0.034938656 0 0
v 0.02394347 0.008913862 -0.023833113
v 0.020536672 -4.6052184E-09 -0.02826663
v 0.033515066 0.00812125 0.0056118546
v 0.033228565 1.7590133E-09 0.010796748
v 0.015694022 0.008121244 -0.030140597
v 0.010796748 -5.4136198E-09 -0.033228565
v 0.030064788 0.008913868 0.015406405
v 0.02826663 3.3458485E-09 0.020536672
v 0.0050199023 0.008121244 -0.033609822
v -0 -5.692229E-09 -0.034938656
v 0.02394347 0.00891387 0.023831991
v 0.020536672 4.6052184E-09 0.02826663
v -0.005362143 0.00891386 -0.03335454
v -0.010796748 -5.4136198E-09 -0.033228565
v 0.015694022 0.008121254 0.030140597
v 0.010796748 5.4136198E-09 0.033228565
v -0.015267058 0.008913861 -0.030136136
v -0.020536672 -4.6052184E-09 -0.02826663
v 0.0050199023 0.008121255 0.03360871
v -0 5.692229E-09 0.034938656
v -0.023816386 0.008121245 -0.024240008
v -0.02826663 -3.3458485E-09 -0.020536672
v -0.005362143 0.008913871 0.033354536
v -0.010796748 5.4136198E-09 0.033228565
v -0.030412605 0.0081212465 -0.015160038
v -0.033228565 -1.7590133E-09 -0.010796748
v -0.015267058 0.00891387 0.03013613
v -0.020536672 4.6052184E-09 0.02826663
v -0.03337906 0.008913865 -0.005207188
v -0.034938656 0 0
v -0.023816386 0.008121253 0.024240008
v -0.02826663 3.3458485E-09 0.020536672
v -0.03337906 0.008913866 0.005207185
v -0.033228565 1.7590133E-09 0.010796748
v -0.030412605 0.008121252 0.015160035
v -0.025282335 0.015624903 -0.018368406
v -0.028589917 0.01766943 -0.009548184
v -0.029721433 0.018368404 -2.9925928E-09
v -0.028589917 0.017669434 0.009547063
v -0.025282335 0.015624909 0.0183684
v -0.017914684 0.017669436 0.024240004
v -0.017914684 0.017669426 -0.02424001
v -0.020865535 0.023570014 -0.015160041
v -0.022900028 0.025868714 -0.005207191
v -0.020865535 0.02357002 0.015160033
v -0.022900028 0.025868714 0.005207183
v -0.00918476 0.018368408 0.028266627
v -0.00918476 0.0183684 -0.028266635
v -0.012029705 0.02586871 -0.02016991
v -0.014860158 0.029721431 -0.010796753
v -0.012029705 0.025868718 0.0201699
v -0.014860158 0.029721435 0.010796743
v -0.015624906 0.03125092 -5.0914215E-09
v 0.00024525393 0.017669437 0.030140592
v -0.002123676 0.025868718 0.023388302
v -0.004828158 0.031250924 0.014860153
v -0.007724384 0.03360871 0.0056118504
v -0.007724384 0.03360871 -0.005611861
v 0.00965743 0.015624911 0.029720312
v 0.007969638 0.02357002 0.024528734
v 0.01751782 0.017669436 0.024528734
v 0.005676514 0.029721435 0.017469881
v 0.0029508506 0.03360871 0.009079964
v 0.01546549 0.025868718 0.017672772
v 0.024044922 0.018368406 0.017469881
v 0.01264061 0.031250924 0.00918364
v -0 0.034938656 -5.692229E-09
v 0.02158792 0.025868718 0.009247183
v 0.028741533 0.017669434 0.009079967
v 0.009548182 0.03360871 -5.475554E-09
v 0.0029508506 0.033608705 -0.009079975
v 0.018368404 0.029721433 -4.8422355E-09
v 0.025790678 0.023570018 -3.840043E-09
v 0.03125092 0.015624906 -2.5456202E-09
v 0.028741533 0.01766943 -0.009079972
v 0.01264061 0.03125092 -0.009184765
v 0.02158792 0.02586871 -0.009247192
v 0.024044922 0.0183684 -0.017469887
v 0.01546549 0.02586871 -0.017673895
v 0.01751782 0.017669426 -0.024528738
v 0.005676514 0.029721431 -0.017469889
v 0.007969638 0.023570014 -0.024528738
v 0.00965743 0.015624902 -0.029721435
v 0.00024525393 0.017669426 -0.0301406
v -0.002123676 0.02586871 -0.023388311
v -0.004828158 0.03125092 -0.014860163
v 0.033228565 -1.7590133E-09 -0.010796748
v 0.02826663 -3.3458485E-09 -0.020536672
v 0.030064788 -0.008913868 -0.015406405
v 0.033515066 -0.00812125 -0.0056118546
v 0.034938656 0 0
v 0.02394347 -0.00891387 -0.023833105
v 0.020536672 -4.6052184E-09 -0.02826663
v 0.033515066 -0.008121248 0.005611857
v 0.033228565 1.7590133E-09 0.010796748
v 0.015694022 -0.008121254 -0.030140597
v 0.010796748 -5.4136198E-09 -0.033228565
v 0.030064788 -0.0089138625 0.0154064065
v 0.02826663 3.3458485E-09 0.020536672
v 0.0050199023 -0.008121255 -0.033609822
v -0 -5.692229E-09 -0.034938656
v 0.02394347 -0.008913862 0.023831997
v 0.020536672 4.6052184E-09 0.02826663
v -0.005362143 -0.008913871 -0.033354536
v -0.010796748 -5.4136198E-09 -0.033228565
v 0.015694022 -0.008121244 0.030140597
v 0.010796748 5.4136198E-09 0.033228565
v -0.015267058 -0.00891387 -0.03013613
v -0.020536672 -4.6052184E-09 -0.02826663
v 0.0050199023 -0.008121244 0.03360871
v -0 5.692229E-09 0.034938656
v -0.023816386 -0.008121253 -0.024240008
v -0.02826663 -3.3458485E-09 -0.020536672
v -0.005362143 -0.00891386 0.03335454
v -0.010796748 5.4136198E-09 0.033228565
v -0.030412605 -0.008121252 -0.015160035
v -0.033228565 -1.7590133E-09 -0.010796748
v -0.015267058 -0.008913861 0.030136136
v -0.020536672 4.6052184E-09 0.02826663
v -0.03337906 -0.008913866 -0.005207185
v -0.034938656 0 0
v -0.023816386 -0.008121245 0.024240008
v -0.02826663 3.3458485E-09 0.020536672
v -0.03337906 -0.008913865 0.005207188
v -0.033228565 1.7590133E-09 0.010796748
v -0.030412605 -0.0081212465 0.015160038
v -0.025282335 -0.015624909 -0.0183684
v -0.028589917 -0.017669434 -0.009548179
v -0.029721433 -0.018368404 2.9925928E-09
v -0.028589917 -0.01766943 0.009547069
v -0.025282335 -0.015624903 0.018368406
v -0.017914684 -0.017669426 0.02424001
v -0.017914684 -0.017669436 -0.024240004
v -0.020865535 -0.02357002 -0.015160033
v -0.022900028 -0.025868714 -0.005207183
v -0.020865535 -0.023570014 0.015160041
v -0.022900028 -0.025868714 0.005207191
v -0.00918476 -0.0183684 0.028266635
v -0.00918476 -0.018368408 -0.028266627
v -0.012029705 -0.025868718 -0.0201699
v -0.014860158 -0.029721435 -0.010796743
v -0.012029705 -0.02586871 0.02016991
v -0.014860158 -0.029721431 0.010796753
v -0.015624906 -0.03125092 5.0914215E-09
v 0.00024525393 -0.017669426 0.0301406
v -0.002123676 -0.02586871 0.023388311
v -0.004828158 -0.03125092 0.014860163
v -0.007724384 -0.03360871 0.005611861
v -0.007724384 -0.03360871 -0.0056118504
v 0.00965743 -0.015624902 0.02972032
v 0.007969638 -0.023570014 0.024528738
v 0.01751782 -0.017669426 0.024528738
v 0.005676514 -0.029721431 0.017469889
v 0.0029508506 -0.033608705 0.009079975
v 0.024044922 -0.0183684 0.017469887
v 0.01546549 -0.02586871 0.017672779
v 0.028741533 -0.01766943 0.009079972
v 0.01264061 -0.03125092 0.00918365
v 0.02158792 -0.02586871 0.009247192
v -0 -0.034938656 5.692229E-09
v 0.03125092 -0.015624906 2.5456202E-09
v 0.009548182 -0.03360871 5.475554E-09
v 0.018368404 -0.029721433 4.8422355E-09
v 0.025790678 -0.023570018 3.840043E-09
v 0.028741533 -0.017669434 -0.009079967
v 0.0029508506 -0.03360871 -0.009079964
v 0.01264061 -0.031250924 -0.009184754
v 0.02158792 -0.025868718 -0.009247183
v 0.024044922 -0.018368406 -0.017469881
v -0.004828158 -0.031250924 -0.014860153
v 0.005676514 -0.029721435 -0.017469881
v 0.01546549 -0.025868718 -0.017673887
v 0.01751782 -0.017669436 -0.024528734
v -0.002123676 -0.025868718 -0.023388302
v 0.007969638 -0.02357002 -0.024528734
v 0.00965743 -0.015624911 -0.029721431
v 0.00024525393 -0.017669437 -0.030140592
vt 0.02 0.6917194
vt 0.0734 0.6569194
vt 0.0372 0.6059194
vt 0.0663 0.7281194
vt 0.0302 0.7786194
vt 0.0984 0.5897194
vt 0.0801 0.5296194
vt 0.0867 0.8013194
vt 0.0667 0.85811937
vt 0.1397 0.53121936
vt 0.1444 0.4703194
vt 0.1296 0.8586194
vt 0.126 0.9225194
vt 0.203 0.4892194
vt 0.224 0.43381938
vt 0.1857 0.9032194
vt 0.2023 0.9653194
vt 0.2729 0.4739194
vt 0.3109 0.4236194
vt 0.2513 0.9319194
vt 0.2881 0.9825194
vt 0.3445 0.47691938
vt 0.3967 0.44081938
vt 0.3272 0.9351194
vt 0.3751 0.9724194
vt 0.4129 0.49811938
vt 0.473 0.48371938
vt 0.395 0.9120194
vt 0.4546 0.9358194
vt 0.4724 0.5453194
vt 0.5323 0.5480194
vt 0.4547 0.8724194
vt 0.5189 0.8765194
vt 0.5086 0.6071194
vt 0.5688 0.62751937
vt 0.5023 0.8189194
vt 0.5618 0.8002194
vt 0.5278 0.6761194
vt 0.5789 0.71441936
vt 0.5288 0.7477194
vt 0.418 0.5528194
vt 0.4483 0.6019194
vt 0.4689 0.6554194
vt 0.4789 0.7118194
vt 0.4784 0.7695194
vt 0.441 0.8135194
vt 0.3632 0.5345194
vt 0.3875 0.5913194
vt 0.4102 0.6428194
vt 0.4324 0.7523194
vt 0.4252 0.6965194
vt 0.3965 0.8496194
vt 0.3065 0.5266194
vt 0.3321 0.5809194
vt 0.3583 0.6281194
vt 0.3904 0.7899194
vt 0.3883 0.7359194
vt 0.3752 0.6815194
vt 0.346 0.8765194
vt 0.3439 0.8207194
vt 0.3428 0.7686194
vt 0.3443 0.7196194
vt 0.3291 0.6648194
vt 0.291 0.8939194
vt 0.293 0.84481937
vt 0.2376 0.8719194
vt 0.295 0.7979194
vt 0.297 0.7510194
vt 0.2443 0.8165194
vt 0.1895 0.8408194
vt 0.2499 0.7646194
vt 0.2991 0.7027194
vt 0.2007 0.7818194
vt 0.1483 0.8011194
vt 0.2525 0.7157194
vt 0.2723 0.6624194
vt 0.2073 0.7283194
vt 0.162 0.7409194
vt 0.1147 0.7541194
vt 0.1191 0.6965194
vt 0.225 0.6751194
vt 0.174 0.6858194
vt 0.1339 0.6412194
vt 0.1934 0.63361937
vt 0.1589 0.5897194
vt 0.2464 0.6233194
vt 0.2204 0.5842194
vt 0.1933 0.5433194
vt 0.2494 0.5297194
vt 0.2765 0.5785194
vt 0.3024 0.6237194
vt 0.4273961 0.28509647
vt 0.44456646 0.19929056
vt 0.480684 0.25017807
vt 0.47370863 0.32148048
vt 0.4375261 0.37199298
vt 0.50566083 0.18306947
vt 0.48734012 0.12297579
vt 0.49413395 0.39467347
vt 0.47415355 0.45148036
vt 0.5469406 0.124555215
vt 0.5517196 0.06365356
vt 0.5369537 0.4519587
vt 0.5334757 0.5157598
vt 0.61022615 0.08253336
vt 0.6312069 0.027026113
vt 0.593069 0.4964393
vt 0.60979056 0.5586335
vt 0.6801208 0.06710923
vt 0.7181035 0.016896108
vt 0.65867895 0.5251166
vt 0.69559646 0.5758039
vt 0.7517219 0.07018451
vt 0.8039095 0.034066483
vt 0.7346801 0.5283904
vt 0.78249294 0.5655739
vt 0.8201292 0.09136088
vt 0.88022417 0.07684013
vt 0.8023721 0.505267
vt 0.8619803 0.5290464
vt 0.8796455 0.13854034
vt 0.9395464 0.14121965
vt 0.86205846 0.46564645
vt 0.9262598 0.46972427
vt 0.91586685 0.20032783
vt 0.9760739 0.22070704
vt 0.90964 0.41213
vt 0.9691335 0.39340946
vt 0.9350907 0.2693212
vt 0.98630387 0.3076035
vt 0.9361154 0.34092084
vt 0.82524806 0.14605911
vt 0.8555651 0.19514865
vt 0.8761835 0.24854155
vt 0.886203 0.30493808
vt 0.8857229 0.36263824
vt 0.84833807 0.40665114
vt 0.7705418 0.127678
vt 0.79476136 0.18446964
vt 0.8174792 0.23606181
vt 0.839717 0.34555414
vt 0.83249766 0.2896566
vt 0.80395055 0.4427665
vt 0.71383905 0.11979759
vt 0.73935777 0.17408878
vt 0.7655741 0.22127974
vt 0.7977299 0.38306862
vt 0.7956113 0.32916936
vt 0.7824925 0.27467388
vt 0.75335985 0.46978396
vt 0.75134057 0.41388464
vt 0.7501226 0.36178505
vt 0.75170565 0.3127845
vt 0.7363868 0.2580898
vt 0.69836587 0.48710296
vt 0.70044893 0.43810225
vt 0.6449583 0.4652214
vt 0.7024327 0.39110154
vt 0.7043165 0.34420088
vt 0.5968476 0.434138
vt 0.6517391 0.40971905
vt 0.5556338 0.39435223
vt 0.6573212 0.3579171
vt 0.60802716 0.3751341
vt 0.70639986 0.29600015
vt 0.52211756 0.34736377
vt 0.6598043 0.30891624
vt 0.61460865 0.32153186
vt 0.569413 0.33414745
vt 0.5264977 0.28986225
vt 0.67968595 0.25570938
vt 0.63229036 0.26842576
vt 0.58129406 0.27914336
vt 0.5411786 0.23445721
vt 0.7096726 0.21699902
vt 0.65367246 0.21661836
vt 0.600676 0.22693665
vt 0.5661608 0.18294857
vt 0.68375695 0.17170797
vt 0.6276589 0.17742734
vt 0.6005448 0.1365367
vt 0.6566401 0.12291734
vn 0.9496643 0 -0.31326935
vn 0.85882336 0.25950006 -0.44168103
vn 0.8090467 -1.6468002E-07 -0.58774436
vn 0.9584217 0.23527744 -0.16146971
vn 1 0 0
vn 0.6854835 0.2595053 -0.68027145
vn 0.5913746 -1.4863257E-07 -0.806397
vn 0.9584217 0.23527744 0.16146961
vn 0.9496643 0 0.31326938
vn 0.4497227 0.23528868 -0.8616198
vn 0.3090297 0 -0.95105237
vn 0.85881364 0.25950122 0.44169942
vn 0.80903244 1.1466707E-07 0.5877641
vn 0.14261298 0.2352678 -0.96141076
vn -0.004513728 -1.3522785E-07 -0.99998987
vn 0.6854922 0.2595116 0.6802604
vn 0.59139514 1.03556495E-07 0.806382
vn -0.15473095 0.25947538 -0.9532738
vn -0.30900237 -2.5616268E-07 -0.9510613
vn 0.4497049 0.23531677 0.8616214
vn 0.30899477 0 0.9510638
vn -0.4351386 0.25949505 -0.8621581
vn -0.58411634 -1.1452015E-07 -0.81166995
vn 0.14263354 0.23530477 0.96139866
vn -0.0044755023 1.2913827E-07 0.99999
vn -0.6804737 0.23532586 -0.69395757
vn -0.80904263 0 -0.5877499
vn -0.15469728 0.2594762 0.95327896
vn -0.30900243 2.6226175E-07 0.9510613
vn -0.87028515 0.23529424 -0.43271285
vn -0.9524372 0 -0.30473486
vn -0.43513846 0.25949535 0.8621581
vn -0.58411634 1.2182993E-07 0.81166995
vn -0.95443124 0.25946343 -0.14744371
vn -1 0 0
vn -0.6804736 0.23532608 0.69395757
vn -0.8090427 0 0.5877499
vn -0.9544291 0.25946912 0.14744815
vn -0.9524372 0 0.30473486
vn -0.8702848 0.23530439 0.43270802
vn -0.72361064 0.44719645 -0.52574056
vn -0.8186855 0.5059681 -0.27157056
vn -0.8506473 0.5257369 5.4514458E-06
vn -0.8186892 0.5059706 0.27155432
vn -0.7236189 0.44720182 0.5257244
vn -0.51125157 0.50597584 0.6947016
vn -0.5112517 0.50597554 -0.6947018
vn -0.5982115 0.6732261 -0.43463737
vn -0.6589349 0.73761314 -0.14741652
vn -0.5982202 0.6732215 0.4346324
vn -0.658939 0.7376086 0.14742085
vn -0.26286998 0.52573454 0.8090133
vn -0.26286998 0.5257343 -0.80901337
vn -0.34383965 0.73760396 -0.58113223
vn -0.4247565 0.8510859 -0.30860132
vn -0.34383956 0.73760414 0.58113205
vn -0.42475647 0.85108596 0.308601
vn -0.44965184 0.893204 -1.2920401E-07
vn 0.005300686 0.5059738 0.86253256
vn -0.063408785 0.7375981 0.6722562
vn -0.13894625 0.8932086 0.42763576
vn -0.21944685 0.9625084 0.15943886
vn -0.21944684 0.96250826 -0.15943916
vn 0.27639452 0.44719642 0.8506594
vn 0.22850072 0.67320913 0.7032616
vn 0.50270605 0.5059774 0.700909
vn 0.1622621 0.8510744 0.499343
vn 0.0838289 0.9625117 0.25796124
vn 0.44643965 0.7376068 0.50658435
vn 0.6881936 0.5257232 0.5000047
vn 0.36377314 0.89320636 0.2642945
vn -3.1949614E-06 1 -1.934497E-07
vn 0.6197559 0.73760206 0.26804063
vn 0.82195467 0.50596577 0.2615133
vn 0.27126172 0.96250564 4.481337E-06
vn 0.08381882 0.96251327 -0.25795886
vn 0.5250401 0.8510775 3.851097E-06
vn 0.7394348 0.6732282 -1.8646867E-07
vn 0.89443576 0.44719636 0
vn 0.8219546 0.50596577 -0.26151347
vn 0.36376655 0.8932074 -0.2643002
vn 0.6197702 0.737595 -0.2680267
vn 0.6882036 0.5257253 -0.4999886
vn 0.4464379 0.73759145 -0.5066084
vn 0.50271106 0.5059812 -0.70090276
vn 0.16223606 0.85107595 -0.49934885
vn 0.22847798 0.67322206 -0.7032566
vn 0.2764083 0.4472183 -0.8506434
vn 0.0052588624 0.50600076 -0.86251706
vn -0.06340875 0.7375979 -0.6722563
vn -0.13894624 0.89320844 -0.42763606
vn 0.9496643 0 -0.31326935
vn 0.8090467 -1.6468002E-07 -0.58774436
vn 0.85882336 -0.2595002 -0.44168106
vn 0.9584217 -0.23527744 -0.16146961
vn 1 0 0
vn 0.6854837 -0.25950557 -0.68027127
vn 0.5913746 -1.4863257E-07 -0.806397
vn 0.9584217 -0.23527741 0.16146971
vn 0.9496643 0 0.31326938
vn 0.4497229 -0.23528892 -0.8616197
vn 0.3090297 0 -0.95105237
vn 0.8588135 -0.25950104 0.44169945
vn 0.80903244 1.1466707E-07 0.5877641
vn 0.14261281 -0.23526807 -0.96141064
vn -0.004513728 -1.3522785E-07 -0.99998987
vn 0.6854921 -0.25951138 0.6802606
vn 0.59139514 1.03556495E-07 0.806382
vn -0.1547311 -0.25947577 -0.95327365
vn -0.30900237 -2.5616268E-07 -0.9510613
vn 0.44970492 -0.23531646 0.8616215
vn 0.30899477 0 0.9510638
vn -0.4351385 -0.25949535 -0.8621581
vn -0.58411634 -1.1452015E-07 -0.81166995
vn 0.14263366 -0.23530443 0.9613988
vn -0.0044755023 1.2913827E-07 0.99999
vn -0.6804736 -0.23532608 -0.69395757
vn -0.80904263 0 -0.5877499
vn -0.15469714 -0.25947577 0.9532792
vn -0.30900243 2.6226175E-07 0.9510613
vn -0.87028515 -0.23529442 -0.43271273
vn -0.9524372 0 -0.30473486
vn -0.4351386 -0.25949502 0.8621581
vn -0.58411634 1.2182993E-07 0.81166995
vn -0.95443124 -0.25946352 -0.1474436
vn -1 0 0
vn -0.6804736 -0.23532589 0.6939577
vn -0.8090427 0 0.5877499
vn -0.9544291 -0.2594691 0.14744827
vn -0.9524372 0 0.30473486
vn -0.8702848 -0.23530419 0.4327082
vn -0.72361064 -0.4471967 -0.52574027
vn -0.81868535 -0.5059682 -0.27157035
vn -0.8506473 -0.5257369 5.561354E-06
vn -0.8186892 -0.5059704 0.2715545
vn -0.72361887 -0.44720158 0.52572477
vn -0.5112516 -0.5059756 0.69470173
vn -0.51125157 -0.50597584 -0.6947016
vn -0.5982115 -0.6732263 -0.43463704
vn -0.65893495 -0.73761314 -0.14741632
vn -0.5982202 -0.6732214 0.4346327
vn -0.65893894 -0.7376086 0.14742103
vn -0.26287007 -0.52573436 0.8090135
vn -0.26286998 -0.5257346 -0.8090133
vn -0.34383956 -0.73760414 -0.58113205
vn -0.4247565 -0.8510861 -0.30860102
vn -0.34383965 -0.73760396 0.58113223
vn -0.4247565 -0.8510858 0.30860132
vn -0.44965184 -0.893204 1.3164181E-07
vn 0.0053007556 -0.50597346 0.86253273
vn -0.06340875 -0.73759794 0.6722563
vn -0.13894622 -0.89320844 0.42763603
vn -0.21944684 -0.96250826 0.15943916
vn -0.21944685 -0.9625084 -0.15943886
vn 0.2763946 -0.4471961 0.8506596
vn 0.2285008 -0.6732089 0.7032618
vn 0.50270617 -0.5059772 0.70090914
vn 0.1622622 -0.8510742 0.49934322
vn 0.08382898 -0.9625116 0.2579615
vn 0.68819356 -0.5257231 0.50000477
vn 0.4464398 -0.7376067 0.5065845
vn 0.8219546 -0.5059658 0.26151353
vn 0.3637732 -0.89320624 0.2642948
vn 0.61975604 -0.73760194 0.26804096
vn -3.1949614E-06 -1 1.9223302E-07
vn 0.89443576 -0.44719636 0
vn 0.27126172 -0.96250564 4.9891405E-06
vn 0.52504015 -0.8510775 4.3993396E-06
vn 0.7394348 -0.6732282 1.8403117E-07
vn 0.82195467 -0.50596577 -0.26151326
vn 0.083818704 -0.9625133 -0.25795853
vn 0.3637665 -0.8932075 -0.26429987
vn 0.6197703 -0.7375952 -0.26802644
vn 0.68820363 -0.52572536 -0.49998853
vn -0.13894625 -0.8932086 -0.42763576
vn 0.16223599 -0.85107607 -0.49934867
vn 0.4464378 -0.73759156 -0.50660837
vn 0.5027111 -0.5059814 -0.7009026
vn -0.06340878 -0.7375981 -0.6722562
vn 0.2284779 -0.67322224 -0.7032564
vn 0.27640826 -0.44721872 -0.8506432
vn 0.005258744 -0.5060011 -0.8625167
g S_wpn_funnel_0006_03_lod0_0
f 3/3/3 2/2/2 1/1/1
f 2/2/2 4/4/4 1/1/1
f 5/5/5 1/1/1 4/4/4
f 6/6/6 2/2/2 3/3/3
f 7/7/7 6/6/6 3/3/3
f 8/8/8 5/5/5 4/4/4
f 9/9/9 5/5/5 8/8/8
f 10/10/10 6/6/6 7/7/7
f 7/7/7 11/11/11 10/10/10
f 8/8/8 12/12/12 9/9/9
f 9/9/9 12/12/12 13/13/13
f 10/10/10 11/11/11 14/14/14
f 11/11/11 15/15/15 14/14/14
f 12/12/12 16/16/16 13/13/13
f 13/13/13 16/16/16 17/17/17
f 18/18/18 14/14/14 15/15/15
f 19/19/19 18/18/18 15/15/15
f 16/16/16 20/20/20 17/17/17
f 21/21/21 17/17/17 20/20/20
f 22/22/22 18/18/18 19/19/19
f 23/23/23 22/22/22 19/19/19
f 24/24/24 21/21/21 20/20/20
f 25/25/25 21/21/21 24/24/24
f 26/26/26 22/22/22 23/23/23
f 23/23/23 27/27/27 26/26/26
f 24/24/24 28/28/28 25/25/25
f 25/25/25 28/28/28 29/29/29
f 26/26/26 27/27/27 30/30/30
f 27/27/27 31/31/31 30/30/30
f 28/28/28 32/32/32 29/29/29
f 29/29/29 32/32/32 33/33/33
f 34/34/34 30/30/30 31/31/31
f 35/35/35 34/34/34 31/31/31
f 32/32/32 36/36/36 33/33/33
f 37/37/37 33/33/33 36/36/36
f 38/38/38 34/34/34 35/35/35
f 39/39/39 38/38/38 35/35/35
f 39/39/39 37/37/37 40/40/40
f 40/40/40 37/37/37 36/36/36
f 40/40/40 38/38/38 39/39/39
f 26/26/26 30/30/30 41/41/41
f 34/34/34 42/42/42 30/30/30
f 42/42/42 41/41/41 30/30/30
f 38/38/38 43/43/43 34/34/34
f 43/43/43 42/42/42 34/34/34
f 40/40/40 44/44/44 38/38/38
f 44/44/44 43/43/43 38/38/38
f 40/40/40 36/36/36 45/45/45
f 45/45/45 44/44/44 40/40/40
f 32/32/32 46/46/46 36/36/36
f 46/46/46 45/45/45 36/36/36
f 41/41/41 47/47/47 26/26/26
f 26/26/26 47/47/47 22/22/22
f 41/41/41 42/42/42 48/48/48
f 47/47/47 41/41/41 48/48/48
f 42/42/42 43/43/43 49/49/49
f 48/48/48 42/42/42 49/49/49
f 44/44/44 45/45/45 50/50/50
f 45/45/45 46/46/46 50/50/50
f 43/43/43 44/44/44 51/51/51
f 49/49/49 43/43/43 51/51/51
f 51/51/51 44/44/44 50/50/50
f 52/52/52 46/46/46 32/32/32
f 28/28/28 52/52/52 32/32/32
f 47/47/47 53/53/53 22/22/22
f 22/22/22 53/53/53 18/18/18
f 54/54/54 47/47/47 48/48/48
f 53/53/53 47/47/47 54/54/54
f 48/48/48 49/49/49 55/55/55
f 54/54/54 48/48/48 55/55/55
f 50/50/50 46/46/46 56/56/56
f 46/46/46 52/52/52 56/56/56
f 51/51/51 50/50/50 57/57/57
f 50/50/50 56/56/56 57/57/57
f 49/49/49 51/51/51 58/58/58
f 55/55/55 49/49/49 58/58/58
f 58/58/58 51/51/51 57/57/57
f 59/59/59 52/52/52 28/28/28
f 24/24/24 59/59/59 28/28/28
f 56/56/56 52/52/52 60/60/60
f 52/52/52 59/59/59 60/60/60
f 57/57/57 56/56/56 61/61/61
f 56/56/56 60/60/60 61/61/61
f 58/58/58 57/57/57 62/62/62
f 57/57/57 61/61/61 62/62/62
f 55/55/55 58/58/58 63/63/63
f 63/63/63 58/58/58 62/62/62
f 64/64/64 59/59/59 24/24/24
f 24/24/24 20/20/20 64/64/64
f 60/60/60 59/59/59 65/65/65
f 59/59/59 64/64/64 65/65/65
f 66/66/66 64/64/64 20/20/20
f 64/64/64 66/66/66 65/65/65
f 16/16/16 66/66/66 20/20/20
f 61/61/61 60/60/60 67/67/67
f 60/60/60 65/65/65 67/67/67
f 62/62/62 61/61/61 68/68/68
f 61/61/61 67/67/67 68/68/68
f 65/65/65 66/66/66 69/69/69
f 65/65/65 69/69/69 67/67/67
f 70/70/70 66/66/66 16/16/16
f 66/66/66 70/70/70 69/69/69
f 12/12/12 70/70/70 16/16/16
f 67/67/67 69/69/69 71/71/71
f 67/67/67 71/71/71 68/68/68
f 62/62/62 68/68/68 72/72/72
f 63/63/63 62/62/62 72/72/72
f 69/69/69 70/70/70 73/73/73
f 69/69/69 73/73/73 71/71/71
f 74/74/74 70/70/70 12/12/12
f 70/70/70 74/74/74 73/73/73
f 8/8/8 74/74/74 12/12/12
f 68/68/68 75/75/75 72/72/72
f 68/68/68 71/71/71 75/75/75
f 76/76/76 63/63/63 72/72/72
f 75/75/75 76/76/76 72/72/72
f 71/71/71 73/73/73 77/77/77
f 71/71/71 77/77/77 75/75/75
f 73/73/73 74/74/74 78/78/78
f 73/73/73 78/78/78 77/77/77
f 79/79/79 74/74/74 8/8/8
f 74/74/74 79/79/79 78/78/78
f 8/8/8 4/4/4 79/79/79
f 80/80/80 79/79/79 4/4/4
f 79/79/79 80/80/80 78/78/78
f 2/2/2 80/80/80 4/4/4
f 77/77/77 81/81/81 75/75/75
f 75/75/75 81/81/81 76/76/76
f 78/78/78 82/82/82 77/77/77
f 78/78/78 80/80/80 82/82/82
f 77/77/77 82/82/82 81/81/81
f 83/83/83 80/80/80 2/2/2
f 80/80/80 83/83/83 82/82/82
f 6/6/6 83/83/83 2/2/2
f 82/82/82 84/84/84 81/81/81
f 82/82/82 83/83/83 84/84/84
f 85/85/85 83/83/83 6/6/6
f 83/83/83 85/85/85 84/84/84
f 10/10/10 85/85/85 6/6/6
f 81/81/81 86/86/86 76/76/76
f 81/81/81 84/84/84 86/86/86
f 84/84/84 85/85/85 87/87/87
f 84/84/84 87/87/87 86/86/86
f 88/88/88 85/85/85 10/10/10
f 85/85/85 88/88/88 87/87/87
f 10/10/10 14/14/14 88/88/88
f 89/89/89 88/88/88 14/14/14
f 88/88/88 89/89/89 87/87/87
f 18/18/18 89/89/89 14/14/14
f 53/53/53 89/89/89 18/18/18
f 87/87/87 89/89/89 90/90/90
f 89/89/89 53/53/53 90/90/90
f 87/87/87 90/90/90 86/86/86
f 90/90/90 53/53/53 54/54/54
f 86/86/86 91/91/91 76/76/76
f 86/86/86 90/90/90 91/91/91
f 90/90/90 54/54/54 91/91/91
f 76/76/76 91/91/91 63/63/63
f 91/91/91 54/54/54 55/55/55
f 91/91/91 55/55/55 63/63/63
f 94/94/94 93/93/93 92/92/92
f 95/95/95 94/94/94 92/92/92
f 92/92/92 96/96/96 95/95/95
f 94/94/94 97/97/97 93/93/93
f 97/97/97 98/98/98 93/93/93
f 96/96/96 99/99/99 95/95/95
f 96/96/96 100/100/100 99/99/99
f 97/97/97 101/101/101 98/98/98
f 102/102/102 98/98/98 101/101/101
f 103/103/103 99/99/99 100/100/100
f 103/103/103 100/100/100 104/104/104
f 102/102/102 101/101/101 105/105/105
f 106/106/106 102/102/102 105/105/105
f 107/107/107 103/103/103 104/104/104
f 107/107/107 104/104/104 108/108/108
f 105/105/105 109/109/109 106/106/106
f 109/109/109 110/110/110 106/106/106
f 111/111/111 107/107/107 108/108/108
f 108/108/108 112/112/112 111/111/111
f 109/109/109 113/113/113 110/110/110
f 113/113/113 114/114/114 110/110/110
f 112/112/112 115/115/115 111/111/111
f 112/112/112 116/116/116 115/115/115
f 113/113/113 117/117/117 114/114/114
f 118/118/118 114/114/114 117/117/117
f 119/119/119 115/115/115 116/116/116
f 119/119/119 116/116/116 120/120/120
f 118/118/118 117/117/117 121/121/121
f 122/122/122 118/118/118 121/121/121
f 123/123/123 119/119/119 120/120/120
f 123/123/123 120/120/120 124/124/124
f 121/121/121 125/125/125 122/122/122
f 125/125/125 126/126/126 122/122/122
f 127/127/127 123/123/123 124/124/124
f 124/124/124 128/128/128 127/127/127
f 125/125/125 129/129/129 126/126/126
f 129/129/129 130/130/130 126/126/126
f 128/128/128 130/130/130 131/131/131
f 128/128/128 131/131/131 127/127/127
f 129/129/129 131/131/131 130/130/130
f 121/121/121 117/117/117 132/132/132
f 133/133/133 125/125/125 121/121/121
f 132/132/132 133/133/133 121/121/121
f 134/134/134 129/129/129 125/125/125
f 133/133/133 134/134/134 125/125/125
f 135/135/135 131/131/131 129/129/129
f 134/134/134 135/135/135 129/129/129
f 127/127/127 131/131/131 136/136/136
f 135/135/135 136/136/136 131/131/131
f 137/137/137 123/123/123 127/127/127
f 136/136/136 137/137/137 127/127/127
f 138/138/138 132/132/132 117/117/117
f 138/138/138 117/117/117 113/113/113
f 133/133/133 132/132/132 139/139/139
f 132/132/132 138/138/138 139/139/139
f 134/134/134 133/133/133 140/140/140
f 133/133/133 139/139/139 140/140/140
f 136/136/136 135/135/135 141/141/141
f 137/137/137 136/136/136 141/141/141
f 135/135/135 134/134/134 142/142/142
f 134/134/134 140/140/140 142/142/142
f 135/135/135 142/142/142 141/141/141
f 137/137/137 143/143/143 123/123/123
f 143/143/143 119/119/119 123/123/123
f 144/144/144 138/138/138 113/113/113
f 144/144/144 113/113/113 109/109/109
f 138/138/138 145/145/145 139/139/139
f 138/138/138 144/144/144 145/145/145
f 140/140/140 139/139/139 146/146/146
f 139/139/139 145/145/145 146/146/146
f 137/137/137 141/141/141 147/147/147
f 143/143/143 137/137/137 147/147/147
f 141/141/141 142/142/142 148/148/148
f 147/147/147 141/141/141 148/148/148
f 142/142/142 140/140/140 149/149/149
f 140/140/140 146/146/146 149/149/149
f 142/142/142 149/149/149 148/148/148
f 143/143/143 150/150/150 119/119/119
f 150/150/150 115/115/115 119/119/119
f 143/143/143 147/147/147 151/151/151
f 150/150/150 143/143/143 151/151/151
f 147/147/147 148/148/148 152/152/152
f 151/151/151 147/147/147 152/152/152
f 148/148/148 149/149/149 153/153/153
f 152/152/152 148/148/148 153/153/153
f 149/149/149 146/146/146 154/154/154
f 149/149/149 154/154/154 153/153/153
f 150/150/150 155/155/155 115/115/115
f 111/111/111 115/115/115 155/155/155
f 150/150/150 151/151/151 156/156/156
f 155/155/155 150/150/150 156/156/156
f 155/155/155 157/157/157 111/111/111
f 157/157/157 155/155/155 156/156/156
f 157/157/157 107/107/107 111/111/111
f 151/151/151 152/152/152 158/158/158
f 156/156/156 151/151/151 158/158/158
f 152/152/152 153/153/153 159/159/159
f 158/158/158 152/152/152 159/159/159
f 157/157/157 160/160/160 107/107/107
f 160/160/160 103/103/103 107/107/107
f 157/157/157 156/156/156 161/161/161
f 161/161/161 156/156/156 158/158/158
f 160/160/160 157/157/157 161/161/161
f 160/160/160 162/162/162 103/103/103
f 162/162/162 99/99/99 103/103/103
f 161/161/161 158/158/158 163/163/163
f 163/163/163 158/158/158 159/159/159
f 160/160/160 161/161/161 164/164/164
f 162/162/162 160/160/160 164/164/164
f 164/164/164 161/161/161 163/163/163
f 159/159/159 153/153/153 165/165/165
f 153/153/153 154/154/154 165/165/165
f 162/162/162 166/166/166 99/99/99
f 95/95/95 99/99/99 166/166/166
f 163/163/163 159/159/159 167/167/167
f 167/167/167 159/159/159 165/165/165
f 164/164/164 163/163/163 168/168/168
f 168/168/168 163/163/163 167/167/167
f 162/162/162 164/164/164 169/169/169
f 166/166/166 162/162/162 169/169/169
f 169/169/169 164/164/164 168/168/168
f 166/166/166 170/170/170 95/95/95
f 170/170/170 166/166/166 169/169/169
f 170/170/170 94/94/94 95/95/95
f 154/154/154 171/171/171 165/165/165
f 171/171/171 167/167/167 165/165/165
f 172/172/172 168/168/168 167/167/167
f 172/172/172 167/167/167 171/171/171
f 173/173/173 169/169/169 168/168/168
f 170/170/170 169/169/169 173/173/173
f 173/173/173 168/168/168 172/172/172
f 170/170/170 174/174/174 94/94/94
f 174/174/174 170/170/170 173/173/173
f 174/174/174 97/97/97 94/94/94
f 175/175/175 171/171/171 154/154/154
f 146/146/146 175/175/175 154/154/154
f 145/145/145 175/175/175 146/146/146
f 176/176/176 172/172/172 171/171/171
f 175/175/175 176/176/176 171/171/171
f 177/177/177 173/173/173 172/172/172
f 174/174/174 173/173/173 177/177/177
f 177/177/177 172/172/172 176/176/176
f 174/174/174 178/178/178 97/97/97
f 178/178/178 174/174/174 177/177/177
f 178/178/178 101/101/101 97/97/97
f 145/145/145 179/179/179 175/175/175
f 179/179/179 176/176/176 175/175/175
f 144/144/144 179/179/179 145/145/145
f 180/180/180 177/177/177 176/176/176
f 178/178/178 177/177/177 180/180/180
f 179/179/179 180/180/180 176/176/176
f 178/178/178 181/181/181 101/101/101
f 181/181/181 178/178/178 180/180/180
f 105/105/105 101/101/101 181/181/181
f 144/144/144 182/182/182 179/179/179
f 182/182/182 180/180/180 179/179/179
f 182/182/182 181/181/181 180/180/180
f 181/181/181 182/182/182 105/105/105
f 182/182/182 144/144/144 109/109/109
f 182/182/182 109/109/109 105/105/105
