g S_wpn_misc_0021_02_lod0
v -0.053650845 -0.04743595 0.33974585
v -0.061319795 -0.04256603 0.3424199
v -0.054274194 -0.042492967 0.35368106
v -0.066605024 -0.036817335 0.34777695
v -0.04634198 -0.046587404 0.3520548
v -0.04723909 -0.04079608 0.36276507
v -0.04476575 -0.05068572 0.34016204
v -0.03601722 -0.051820654 0.3436052
v -0.058355577 -0.036865644 0.3595214
v -0.068702 -0.031065166 0.35500145
v -0.06729144 -0.026185121 0.36299354
v -0.038767174 -0.046240963 0.3570167
v -0.028737148 -0.050667934 0.34955078
v -0.024033792 -0.04740296 0.3570938
v -0.05488429 -0.03316763 0.36705372
v -0.06258809 -0.022920184 0.3705367
v -0.05577298 -0.021841044 0.37610257
v -0.035271015 -0.042439356 0.36445725
v -0.022623211 -0.042522967 0.3650858
v -0.024939617 -0.03653205 0.37253284
v -0.04724634 -0.03272498 0.37193742
v -0.046559438 -0.022902338 0.37992525
v -0.037674364 -0.026152156 0.38034132
v -0.039372068 -0.0369327 0.37036696
v -0.030005459 -0.031022089 0.37766746
v 0.053650845 -0.04743595 0.33974585
v 0.054274194 -0.042492967 0.35368106
v 0.061319795 -0.04256603 0.3424199
v 0.066605024 -0.036817335 0.34777695
v 0.04634198 -0.046587404 0.3520548
v 0.04723909 -0.04079608 0.36276507
v 0.04476575 -0.05068572 0.34016204
v 0.03601722 -0.051820654 0.3436052
v 0.058355577 -0.036865644 0.3595214
v 0.068702 -0.031065166 0.35500145
v 0.06729144 -0.026185121 0.36299354
v 0.038767174 -0.046240963 0.3570167
v 0.028737148 -0.050667934 0.34955078
v 0.024033792 -0.04740296 0.3570938
v 0.05488429 -0.03316763 0.36705372
v 0.06258809 -0.022920184 0.3705367
v 0.05577298 -0.021841044 0.37610257
v 0.035271015 -0.042439356 0.36445725
v 0.022623211 -0.042522967 0.3650858
v 0.024939617 -0.03653205 0.37253284
v 0.04724634 -0.03272498 0.37193742
v 0.046559438 -0.022902338 0.37992525
v 0.037674364 -0.026152156 0.38034132
v 0.039372068 -0.0369327 0.37036696
v 0.030005459 -0.031022089 0.37766746
vt 0.95979017 0.7200584
vt 0.97786313 0.73205173
vt 0.9572602 0.7527586
vt 0.98997146 0.75005305
vt 0.93857414 0.74367744
vt 0.93864524 0.7714626
vt 0.9385031 0.7158921
vt 0.91724116 0.72018814
vt 0.9664576 0.77138716
vt 0.9942698 0.7713117
vt 0.99010134 0.7926003
vt 0.9199447 0.7528723
vt 0.8992424 0.7322932
vt 0.8872491 0.75036436
vt 0.9573757 0.7900729
vt 0.9781081 0.81067324
vt 0.9601094 0.8227766
vt 0.91086274 0.7715587
vt 0.88308054 0.7716549
vt 0.8873787 0.792915
vt 0.9387462 0.79926866
vt 0.93884724 0.82707435
vt 0.9175602 0.8229081
vt 0.92005956 0.7901876
vt 0.8994836 0.81091416
vt 0.95979017 0.7200584
vt 0.9572602 0.7527586
vt 0.97786313 0.73205173
vt 0.98997146 0.75005305
vt 0.93857414 0.74367744
vt 0.93864524 0.7714626
vt 0.9385031 0.7158921
vt 0.91724116 0.72018814
vt 0.9664576 0.77138716
vt 0.9942698 0.7713117
vt 0.99010134 0.7926003
vt 0.9199447 0.7528723
vt 0.8992424 0.7322932
vt 0.8872491 0.75036436
vt 0.9573757 0.7900729
vt 0.9781081 0.81067324
vt 0.9601094 0.8227766
vt 0.91086274 0.7715587
vt 0.88308054 0.7716549
vt 0.8873787 0.792915
vt 0.9387462 0.79926866
vt 0.93884724 0.82707435
vt 0.9175602 0.8229081
vt 0.92005956 0.7901876
vt 0.8994836 0.81091416
vn -0.39282638 -0.87646025 0.27839705
vn -0.48222148 -0.8204856 0.30702722
vn -0.43468118 -0.8199116 0.37255502
vn -0.5438481 -0.75490224 0.36654037
vn -0.29317942 -0.8886867 0.3525362
vn -0.30493885 -0.7876975 0.535299
vn -0.2886118 -0.9163423 0.2775249
vn -0.18755418 -0.92589664 0.32793093
vn -0.50401455 -0.7188717 0.4787409
vn -0.57814187 -0.6808567 0.44965103
vn -0.55270475 -0.6267306 0.549296
vn -0.16074137 -0.8847971 0.43737444
vn -0.10849605 -0.9121943 0.39513326
vn -0.057028405 -0.87548643 0.4798659
vn -0.44619778 -0.6504401 0.6146831
vn -0.49776894 -0.590215 0.6355095
vn -0.41611153 -0.57738173 0.70248234
vn -0.10665772 -0.81742895 0.56606895
vn -0.033889975 -0.8188704 0.5729769
vn -0.064228326 -0.7527009 0.65522206
vn -0.3092562 -0.6486791 0.6953963
vn -0.31248763 -0.58607733 0.7475726
vn -0.20549968 -0.63371897 0.74576813
vn -0.1702341 -0.7226864 0.6698841
vn -0.121967755 -0.6890629 0.7143641
vn 0.39282638 -0.87646025 0.27839705
vn 0.43468118 -0.8199116 0.37255502
vn 0.48222148 -0.8204856 0.30702722
vn 0.5438481 -0.75490224 0.36654037
vn 0.29317942 -0.8886867 0.3525362
vn 0.30493885 -0.7876975 0.535299
vn 0.2886118 -0.9163423 0.2775249
vn 0.18755418 -0.92589664 0.32793093
vn 0.50401455 -0.7188717 0.4787409
vn 0.57814187 -0.6808567 0.44965103
vn 0.55270475 -0.6267306 0.549296
vn 0.16074137 -0.8847971 0.43737444
vn 0.10849605 -0.9121943 0.39513326
vn 0.057028405 -0.87548643 0.4798659
vn 0.44619778 -0.6504401 0.6146831
vn 0.49776894 -0.590215 0.6355095
vn 0.41611153 -0.57738173 0.70248234
vn 0.10665772 -0.81742895 0.56606895
vn 0.033889975 -0.8188704 0.5729769
vn 0.064228326 -0.7527009 0.65522206
vn 0.3092562 -0.6486791 0.6953963
vn 0.31248763 -0.58607733 0.7475726
vn 0.20549968 -0.63371897 0.74576813
vn 0.1702341 -0.7226864 0.6698841
vn 0.121967755 -0.6890629 0.7143641
g S_wpn_misc_0021_02_lod0_0
f 3/3/3 2/2/2 1/1/1
f 3/3/3 4/4/4 2/2/2
f 5/5/5 3/3/3 1/1/1
f 5/5/5 6/6/6 3/3/3
f 5/5/5 1/1/1 7/7/7
f 5/5/5 7/7/7 8/8/8
f 3/3/3 9/9/9 4/4/4
f 6/6/6 9/9/9 3/3/3
f 9/9/9 10/10/10 4/4/4
f 9/9/9 11/11/11 10/10/10
f 12/12/12 5/5/5 8/8/8
f 6/6/6 5/5/5 12/12/12
f 12/12/12 8/8/8 13/13/13
f 12/12/12 13/13/13 14/14/14
f 9/9/9 15/15/15 11/11/11
f 9/9/9 6/6/6 15/15/15
f 15/15/15 16/16/16 11/11/11
f 15/15/15 17/17/17 16/16/16
f 18/18/18 12/12/12 14/14/14
f 18/18/18 6/6/6 12/12/12
f 18/18/18 14/14/14 19/19/19
f 18/18/18 19/19/19 20/20/20
f 15/15/15 21/21/21 17/17/17
f 6/6/6 21/21/21 15/15/15
f 21/21/21 22/22/22 17/17/17
f 21/21/21 23/23/23 22/22/22
f 24/24/24 18/18/18 20/20/20
f 6/6/6 18/18/18 24/24/24
f 21/21/21 6/6/6 24/24/24
f 21/21/21 24/24/24 23/23/23
f 24/24/24 20/20/20 25/25/25
f 24/24/24 25/25/25 23/23/23
f 28/28/28 27/27/27 26/26/26
f 29/29/29 27/27/27 28/28/28
f 27/27/27 30/30/30 26/26/26
f 31/31/31 30/30/30 27/27/27
f 26/26/26 30/30/30 32/32/32
f 32/32/32 30/30/30 33/33/33
f 34/34/34 27/27/27 29/29/29
f 34/34/34 31/31/31 27/27/27
f 35/35/35 34/34/34 29/29/29
f 36/36/36 34/34/34 35/35/35
f 30/30/30 37/37/37 33/33/33
f 30/30/30 31/31/31 37/37/37
f 33/33/33 37/37/37 38/38/38
f 38/38/38 37/37/37 39/39/39
f 40/40/40 34/34/34 36/36/36
f 31/31/31 34/34/34 40/40/40
f 41/41/41 40/40/40 36/36/36
f 42/42/42 40/40/40 41/41/41
f 37/37/37 43/43/43 39/39/39
f 31/31/31 43/43/43 37/37/37
f 39/39/39 43/43/43 44/44/44
f 44/44/44 43/43/43 45/45/45
f 46/46/46 40/40/40 42/42/42
f 46/46/46 31/31/31 40/40/40
f 47/47/47 46/46/46 42/42/42
f 48/48/48 46/46/46 47/47/47
f 43/43/43 49/49/49 45/45/45
f 43/43/43 31/31/31 49/49/49
f 31/31/31 46/46/46 49/49/49
f 49/49/49 46/46/46 48/48/48
f 45/45/45 49/49/49 50/50/50
f 50/50/50 49/49/49 48/48/48
