g S_wpn_sword_0022_vfx_01_lod0
v -0.017572574 0.021411618 0.1492494
v -0.029984586 0.021411628 0.15058704
v -0.017439928 0.021411626 0.1286209
v -0.032161515 0.021411628 0.15791038
v -0.019163877 0.021411618 0.1561481
v -0.03197552 0.021411628 0.16644306
v -0.029962013 0.021411631 0.17874011
v -0.017572574 -0.021411667 0.14924939
v -0.017439928 -0.02141165 0.1286209
v -0.029984586 -0.021411667 0.15058702
v -0.032161515 -0.021411667 0.15791036
v -0.019163877 -0.021411667 0.15614809
v -0.03197552 -0.021411667 0.16644306
v -0.029962013 -0.021411665 0.17874011
vt 0.3236192 0.5002332
vt 0.5928517 0.37323177
vt 0.06675689 0.08297788
vt 0.7269549 0.48905414
vt 0.44165593 0.6186953
vt 0.8354798 0.6551624
vt 0.9542895 0.9181494
vt 0.3236192 0.5002332
vt 0.06675689 0.08297788
vt 0.5928517 0.37323177
vt 0.7269549 0.48905414
vt 0.44165593 0.6186953
vt 0.8354798 0.6551624
vt 0.9542895 0.9181494
vn 7.93777E-07 1 1.7238428E-07
vn 7.937771E-07 1 1.723843E-07
vn 8.187383E-07 1 4.0400076E-07
vn 7.937771E-07 1 1.723843E-07
vn 7.5741707E-07 1 1.1113801E-07
vn 6.578277E-07 1 -1.7128501E-07
vn 6.578277E-07 1 -1.7128501E-07
vn -0 -1 0
vn -0 -1 -8.616869E-07
vn -0 -1 0
vn -0 -1 0
vn -0 -1 0
vn -0 -1 0
vn -0 -1 0
g S_wpn_sword_0022_vfx_01_lod0_0
f 3/3/3 2/2/2 1/1/1
f 2/2/2 4/4/4 1/1/1
f 5/5/5 1/1/1 4/4/4
f 5/5/5 4/4/4 6/6/6
f 5/5/5 6/6/6 7/7/7
f 10/10/10 9/9/9 8/8/8
f 11/11/11 10/10/10 8/8/8
f 8/8/8 12/12/12 11/11/11
f 11/11/11 12/12/12 13/13/13
f 13/13/13 12/12/12 14/14/14
