g S_wpn_sword_0021_vfx_01_lod0
v -0.006458877 0.031677507 0.14855325
v -0.0064077303 0.03176071 0.14459057
v -1.6391277E-09 0.033832837 0.14452842
v -1.6391277E-09 0.033826336 0.16658473
v -0.0068801497 0.031514168 0.14886269
v -0.003497076 0.032663483 0.1665489
v -0.010964676 0.030218093 0.15991743
v -0.010946195 0.030328788 0.14889659
v -0.003497076 0.023577156 0.16654888
v -0.003497076 0.032663483 0.1665489
v -1.6391277E-09 0.033826336 0.16658473
v -1.6391277E-09 0.023577156 0.16658477
v 0.003497073 0.023577156 0.16654888
v 0.003497073 0.032663483 0.1665489
v -0.003497076 0.032663483 0.1665489
v -0.003497076 0.023577156 0.16654888
v -0.010964676 0.023577156 0.15991743
v -0.010964676 0.030218093 0.15991743
v -1.6391277E-09 0.022251522 0.14452845
v -0.0064077303 0.03176071 0.14459057
v -0.0064077303 0.022251522 0.14459057
v -1.6391277E-09 0.033832837 0.14452842
v 0.0064077275 0.022251522 0.14459057
v 0.0064077275 0.03176071 0.14459057
v 0.0064588734 0.031677507 0.14855325
v -1.6391277E-09 0.033832837 0.14452842
v 0.0064077275 0.03176071 0.14459057
v -1.6391277E-09 0.033826336 0.16658473
v 0.006880147 0.031514168 0.14886269
v 0.003497073 0.032663483 0.1665489
v 0.010964676 0.030218093 0.15991743
v 0.010946191 0.030328788 0.14889659
v 0.003497073 0.032663483 0.1665489
v 0.010964676 0.030218093 0.15991743
v 0.010964676 0.023577156 0.15991743
v 0.003497073 0.023577156 0.16654888
v -0.0025109393 0.023705887 0.29732153
v 0.0023139922 0.023705887 0.29452485
v 0.0025009662 0.023705887 0.29732153
v -0.0023239648 0.023705887 0.29452485
v -0.001350013 0.023705887 0.2918714
v 0.0013400404 0.023705887 0.2918714
v -0.001861532 0.023705876 0.20877954
v 0.001851559 0.023705876 0.20877954
v 0.0052052024 0.023705876 0.20300895
v -0.0052151745 0.023705876 0.20300895
v 0.0052052024 0.023705874 0.19864418
v -0.0052151745 0.023705874 0.19864418
v -0.006458877 -0.031174868 0.14855325
v -1.6391277E-09 -0.033330202 0.14452842
v -0.0064077303 -0.031258073 0.14459057
v -1.6391277E-09 -0.033323694 0.16658473
v -0.003497076 -0.032160837 0.1665489
v -0.0068801497 -0.031011527 0.14886269
v -0.010964676 -0.029715449 0.15991743
v -0.010946195 -0.02982615 0.14889659
v -1.6391277E-09 -0.023074511 0.16658477
v -0.003497076 -0.032160837 0.1665489
v -0.003497076 -0.023074511 0.16654888
v -1.6391277E-09 -0.033323694 0.16658473
v 0.003497073 -0.032160837 0.1665489
v 0.003497073 -0.023074511 0.16654888
v -0.010964676 -0.023074511 0.15991743
v -0.003497076 -0.023074511 0.16654888
v -0.003497076 -0.032160837 0.1665489
v -0.010964676 -0.029715449 0.15991743
v -1.6391277E-09 -0.033330202 0.14452842
v -0.0064077303 -0.021748886 0.14459057
v -0.0064077303 -0.031258073 0.14459057
v -1.6391277E-09 -0.021748886 0.14452845
v 0.0064077275 -0.031258073 0.14459057
v 0.0064077275 -0.021748886 0.14459057
v 0.0064588734 -0.031174868 0.14855325
v 0.0064077275 -0.031258073 0.14459057
v -1.6391277E-09 -0.033330202 0.14452842
v -1.6391277E-09 -0.033323694 0.16658473
v 0.006880147 -0.031011527 0.14886269
v 0.003497073 -0.032160837 0.1665489
v 0.010964676 -0.029715449 0.15991743
v 0.010946191 -0.02982615 0.14889659
v 0.010964676 -0.029715449 0.15991743
v 0.003497073 -0.032160837 0.1665489
v 0.003497073 -0.023074511 0.16654888
v 0.010964676 -0.023074511 0.15991743
v 0.0025009662 -0.023203205 0.29732153
v -0.0023239648 -0.023203205 0.29452485
v -0.0025109393 -0.023203205 0.29732153
v 0.0023139922 -0.023203205 0.29452485
v 0.0013400404 -0.023203205 0.2918714
v -0.001350013 -0.023203205 0.2918714
v -0.001861532 -0.023203218 0.20877954
v 0.001851559 -0.023203218 0.20877954
v -0.0052151745 -0.023203218 0.20300895
v 0.0052052024 -0.023203218 0.20300895
v 0.0052052024 -0.02320322 0.19864418
v -0.0052151745 -0.02320322 0.19864418
v 0.008723798 -0.025658391 0.26984438
v 0.008412155 -0.025710229 0.26862678
v 0.008421854 -0.025749154 0.26939425
v 0.008702606 -0.025572833 0.26815796
v 0.009297535 -0.025447309 0.27000397
v 0.00927463 -0.025342776 0.26796442
v 0.01297139 -0.024132656 0.27006668
v 0.013051543 -0.023964325 0.2678919
v 0.00957848 -0.024855336 0.23554367
v 0.009889656 -0.024775727 0.2345071
v 0.009576961 -0.0248613 0.23495582
v 0.009892812 -0.024760509 0.23604293
v 0.010448239 -0.02459916 0.23624778
v 0.010441577 -0.024619289 0.23430221
v 0.0141860135 -0.023437133 0.23635146
v 0.01426704 -0.023427023 0.23427589
v -0.0084121525 -0.025710229 0.26862678
v -0.008723797 -0.025658391 0.26984438
v -0.008421854 -0.025749154 0.26939425
v -0.008702606 -0.025572833 0.26815796
v -0.009297532 -0.025447309 0.27000397
v -0.009274627 -0.025342776 0.26796442
v -0.012971386 -0.024132656 0.27006668
v -0.013051543 -0.023964325 0.2678919
v -0.009889656 -0.024775727 0.2345071
v -0.009578481 -0.024855336 0.23554367
v -0.00957696 -0.0248613 0.23495582
v -0.009892812 -0.024760509 0.23604293
v -0.010448239 -0.02459916 0.23624778
v -0.010441576 -0.024619289 0.23430221
v -0.01418601 -0.023437133 0.23635146
v -0.01426704 -0.023427023 0.23427589
vt 0.274754 0.093293
vt 0.276375 0.016158
vt 0.406482 0.016158
vt 0.406482 0.441754
vt 0.266025 0.099278
vt 0.335255 0.44108
vt 0.183328 0.312967
vt 0.184186 0.099962
vt 0.454248 0.756588
vt 0.454249 0.581046
vt 0.521813 0.558582
vt 0.521811 0.756588
vt 0.589373 0.75659
vt 0.589375 0.581047
vt 0.891745 0.547966
vt 0.891747 0.723509
vt 0.698802 0.723511
vt 0.698805 0.595208
vt 0.814503 0.031099
vt 0.690695 0.214832
vt 0.690695 0.031099
vt 0.814503 0.254869
vt 0.938319 0.031099
vt 0.938319 0.214832
vt 0.538206 0.093293
vt 0.406482 0.016158
vt 0.536581 0.016158
vt 0.406482 0.441754
vt 0.546934 0.099278
vt 0.477709 0.441081
vt 0.629634 0.312966
vt 0.628778 0.099965
vt 0.2261 0.54788
vt 0.419041 0.595124
vt 0.419042 0.723424
vt 0.226097 0.723424
vt 0.068355 0.982781
vt 0.113945 0.955289
vt 0.113945 0.982781
vt 0.068355 0.955289
vt 0.078289 0.93222
vt 0.104012 0.93222
vt 0.078289 0.112393
vt 0.104012 0.112393
vt 0.140388 0.055372
vt 0.04191 0.055372
vt 0.140388 0.016745
vt 0.041912 0.016745
vt 0.274754 0.093293
vt 0.406482 0.016158
vt 0.276375 0.016158
vt 0.406482 0.441754
vt 0.335255 0.44108
vt 0.266025 0.099278
vt 0.183328 0.312967
vt 0.184186 0.099962
vt 0.521811 0.756588
vt 0.454249 0.581046
vt 0.454248 0.756588
vt 0.521813 0.558582
vt 0.589375 0.581047
vt 0.589373 0.75659
vt 0.698802 0.723511
vt 0.891747 0.723509
vt 0.891745 0.547966
vt 0.698805 0.595208
vt 0.814503 0.254869
vt 0.690695 0.031099
vt 0.690695 0.214832
vt 0.814503 0.031099
vt 0.938319 0.214832
vt 0.938319 0.031099
vt 0.538206 0.093293
vt 0.536581 0.016158
vt 0.406482 0.016158
vt 0.406482 0.441754
vt 0.546934 0.099278
vt 0.477709 0.441081
vt 0.629634 0.312966
vt 0.628778 0.099965
vt 0.419041 0.595124
vt 0.2261 0.54788
vt 0.226097 0.723424
vt 0.419042 0.723424
vt 0.113945 0.982779
vt 0.068355 0.955287
vt 0.068355 0.982779
vt 0.113945 0.955288
vt 0.104012 0.932218
vt 0.078289 0.932218
vt 0.078289 0.112394
vt 0.104012 0.112394
vt 0.041911 0.055373
vt 0.140388 0.055373
vt 0.140388 0.016746
vt 0.041912 0.016746
vt 0.78113914 0.8222746
vt 0.76911306 0.77873236
vt 0.76950514 0.80632824
vt 0.78025746 0.7616517
vt 0.80320466 0.8275531
vt 0.8022393 0.7542308
vt 0.9449209 0.8270348
vt 0.9449209 0.7542308
vt 0.33426893 0.8626243
vt 0.34575033 0.8241637
vt 0.33393347 0.840881
vt 0.3466041 0.88096476
vt 0.3680669 0.88832974
vt 0.3668908 0.8163656
vt 0.51289153 0.88832974
vt 0.51289153 0.8163656
vt 0.96588016 0.9066575
vt 0.9539238 0.95021385
vt 0.9655299 0.9342535
vt 0.95470786 0.8895909
vt 0.9318721 0.95553416
vt 0.9327128 0.8821979
vt 0.7900722 0.95522577
vt 0.7900722 0.8821979
vt 0.7189863 0.7947724
vt 0.7306063 0.83319116
vt 0.73087204 0.81144786
vt 0.7183417 0.85157335
vt 0.696892 0.8590081
vt 0.6978164 0.78704405
vt 0.5520822 0.8590081
vt 0.5520822 0.78704405
vn -0.3155394 0.94890237 0.0043800618
vn -0.30751103 0.9514098 0.01600738
vn -0.3134145 0.9496001 0.0055645565
vn -0.31957862 0.9475594 0.0007234739
vn -0.30583006 0.9520815 0.002974604
vn -0.3173999 0.9482918 -0.00011260603
vn -0.30435854 0.95255715 -0.0007757339
vn -0.27979785 0.96001506 0.009173378
vn -0.35994577 0 0.93297327
vn -0.2985413 2.1626782E-07 0.9543967
vn -0.01025611 9.863785E-07 0.9999474
vn -0.010256111 9.863786E-07 0.9999474
vn 0.35994565 0 0.93297327
vn 0.29854122 2.1835466E-07 0.9543967
vn -0.2985413 2.1626782E-07 0.9543967
vn -0.35994577 0 0.93297327
vn -0.66400534 -9.1075304E-07 0.7477278
vn -0.6640053 -9.1075304E-07 0.7477278
vn -0.009695794 -9.042848E-07 -0.99995303
vn -0.0096957935 -9.042847E-07 -0.99995303
vn -0.009695794 -9.042848E-07 -0.99995303
vn -0.009695794 -9.042847E-07 -0.99995303
vn 0.009695795 -9.042848E-07 -0.99995303
vn 0.009695794 -9.042847E-07 -0.99995303
vn 0.31553933 0.94890237 0.0043800655
vn 0.31341448 0.9496001 0.0055645737
vn 0.30751103 0.95140994 0.016007427
vn 0.3195786 0.94755954 0.0007234548
vn 0.30582997 0.9520815 0.0029745586
vn 0.31739977 0.9482918 -0.00011262952
vn 0.30435842 0.95255727 -0.00077576435
vn 0.27979788 0.96001506 0.009173289
vn 0.29854122 2.1835466E-07 0.9543967
vn 0.66400516 -9.0600935E-07 0.74772793
vn 0.66400516 -9.0600935E-07 0.74772793
vn 0.35994565 0 0.93297327
vn -0 1 0
vn -0 1 0
vn -0 1 0
vn -0 1 0
vn -0 1 0
vn -0 1 0
vn -0 1 0
vn -0 1 0
vn -0 1 -3.2809757E-07
vn -0 1 -3.2809757E-07
vn -0 1 -5.462332E-07
vn -0 1 -5.462332E-07
vn -0.31553957 -0.94890237 0.004380491
vn -0.31341457 -0.9496001 0.0055649593
vn -0.307511 -0.9514098 0.016007954
vn -0.31957906 -0.9475593 0.00072390377
vn -0.31740025 -0.94829166 -0.00011215999
vn -0.30583033 -0.9520814 0.0029750422
vn -0.30435854 -0.95255715 -0.0007753306
vn -0.27979782 -0.96001506 0.009173793
vn -0.010256111 -9.864217E-07 0.9999474
vn -0.29854125 -2.1629484E-07 0.9543967
vn -0.35994577 0 0.93297327
vn -0.010256111 -9.864217E-07 0.9999474
vn 0.29854122 -2.1835481E-07 0.9543967
vn 0.35994563 0 0.93297327
vn -0.6640052 9.107533E-07 0.74772793
vn -0.35994577 0 0.93297327
vn -0.29854125 -2.1629484E-07 0.9543967
vn -0.6640053 9.1075316E-07 0.7477279
vn -0.009695794 9.042847E-07 -0.99995303
vn -0.009695794 9.042848E-07 -0.99995303
vn -0.0096957935 9.042847E-07 -0.99995303
vn -0.009695794 9.042848E-07 -0.99995303
vn 0.0096957935 9.042847E-07 -0.99995303
vn 0.009695794 9.042848E-07 -0.99995303
vn 0.31553957 -0.94890237 0.0043804944
vn 0.30751097 -0.95140994 0.016008
vn 0.31341463 -0.9496001 0.0055649756
vn 0.319579 -0.9475593 0.0007238845
vn 0.30583024 -0.9520814 0.002974995
vn 0.31740013 -0.94829166 -0.00011218692
vn 0.30435842 -0.95255727 -0.0007753726
vn 0.27979785 -0.96001506 0.009173702
vn 0.66400516 9.060094E-07 0.747728
vn 0.29854122 -2.1835481E-07 0.9543967
vn 0.35994563 0 0.93297327
vn 0.66400516 9.0600946E-07 0.74772793
vn -0 -1 0
vn -0 -1 0
vn -0 -1 0
vn -0 -1 0
vn -0 -1 0
vn -0 -1 0
vn -0 -1 0
vn -0 -1 0
vn -0 -1 3.2809757E-07
vn -0 -1 3.2809757E-07
vn -0 -1 5.462332E-07
vn -0 -1 5.462332E-07
vn 0.35749197 -0.93247837 -0.05180394
vn 0.35750222 -0.93247443 -0.05180329
vn 0.3575022 -0.93247443 -0.051803283
vn 0.35749173 -0.9324785 -0.05180394
vn 0.34761986 -0.9360681 -0.054192558
vn 0.34735066 -0.9361643 -0.0542575
vn 0.33932644 -0.93898904 -0.056187402
vn 0.33932647 -0.93898904 -0.056187402
vn 0.27581456 -0.961169 0.0089794155
vn 0.27583063 -0.96116424 0.008980769
vn 0.2758146 -0.961169 0.008979417
vn 0.27583095 -0.9611641 0.0089807995
vn 0.2879297 -0.95761514 0.008354069
vn 0.28778106 -0.9576597 0.008361795
vn 0.2971316 -0.9548041 0.007874388
vn 0.29713157 -0.9548041 0.007874387
vn -0.35750088 -0.932475 -0.05180363
vn -0.35749263 -0.9324781 -0.051803935
vn -0.3575009 -0.932475 -0.051803637
vn -0.35749245 -0.93247813 -0.051803935
vn -0.3476204 -0.936068 -0.05419233
vn -0.3473512 -0.9361641 -0.05425726
vn -0.3393264 -0.93898916 -0.056187063
vn -0.3393264 -0.93898916 -0.056187067
vn -0.2758307 -0.96116424 0.008980601
vn -0.27581385 -0.9611692 0.008979033
vn -0.27581388 -0.96116906 0.008979032
vn -0.27583104 -0.9611641 0.008980637
vn -0.2879299 -0.957615 0.008354123
vn -0.28778127 -0.9576596 0.00836185
vn -0.2971317 -0.954804 0.00787456
vn -0.29713166 -0.954804 0.00787456
g S_wpn_sword_0021_vfx_01_lod0_0
f 3/3/3 2/2/2 1/1/1
f 4/4/4 3/3/3 1/1/1
f 1/1/1 5/5/5 4/4/4
f 5/5/5 6/6/6 4/4/4
f 6/6/6 5/5/5 7/7/7
f 5/5/5 8/8/8 7/7/7
f 11/11/11 10/10/10 9/9/9
f 12/12/12 11/11/11 9/9/9
f 12/12/12 13/13/13 11/11/11
f 13/13/13 14/14/14 11/11/11
f 17/17/17 16/16/16 15/15/15
f 18/18/18 17/17/17 15/15/15
f 21/21/21 20/20/20 19/19/19
f 20/20/20 22/22/22 19/19/19
f 23/23/23 19/19/19 22/22/22
f 24/24/24 23/23/23 22/22/22
f 27/27/27 26/26/26 25/25/25
f 26/26/26 28/28/28 25/25/25
f 29/29/29 25/25/25 28/28/28
f 30/30/30 29/29/29 28/28/28
f 29/29/29 30/30/30 31/31/31
f 32/32/32 29/29/29 31/31/31
f 35/35/35 34/34/34 33/33/33
f 36/36/36 35/35/35 33/33/33
f 39/39/39 38/38/38 37/37/37
f 38/38/38 40/40/40 37/37/37
f 41/41/41 40/40/40 38/38/38
f 42/42/42 41/41/41 38/38/38
f 43/43/43 41/41/41 42/42/42
f 44/44/44 43/43/43 42/42/42
f 44/44/44 45/45/45 43/43/43
f 45/45/45 46/46/46 43/43/43
f 45/45/45 47/47/47 46/46/46
f 47/47/47 48/48/48 46/46/46
f 51/51/51 50/50/50 49/49/49
f 50/50/50 52/52/52 49/49/49
f 49/49/49 52/52/52 53/53/53
f 54/54/54 49/49/49 53/53/53
f 54/54/54 53/53/53 55/55/55
f 56/56/56 54/54/54 55/55/55
f 59/59/59 58/58/58 57/57/57
f 58/58/58 60/60/60 57/57/57
f 60/60/60 61/61/61 57/57/57
f 61/61/61 62/62/62 57/57/57
f 65/65/65 64/64/64 63/63/63
f 66/66/66 65/65/65 63/63/63
f 69/69/69 68/68/68 67/67/67
f 68/68/68 70/70/70 67/67/67
f 71/71/71 67/67/67 70/70/70
f 72/72/72 71/71/71 70/70/70
f 75/75/75 74/74/74 73/73/73
f 76/76/76 75/75/75 73/73/73
f 76/76/76 73/73/73 77/77/77
f 78/78/78 76/76/76 77/77/77
f 78/78/78 77/77/77 79/79/79
f 77/77/77 80/80/80 79/79/79
f 83/83/83 82/82/82 81/81/81
f 84/84/84 83/83/83 81/81/81
f 87/87/87 86/86/86 85/85/85
f 86/86/86 88/88/88 85/85/85
f 89/89/89 88/88/88 86/86/86
f 90/90/90 89/89/89 86/86/86
f 90/90/90 91/91/91 89/89/89
f 91/91/91 92/92/92 89/89/89
f 92/92/92 91/91/91 93/93/93
f 94/94/94 92/92/92 93/93/93
f 95/95/95 94/94/94 93/93/93
f 96/96/96 95/95/95 93/93/93
f 99/99/99 98/98/98 97/97/97
f 98/98/98 100/100/100 97/97/97
f 97/97/97 100/100/100 101/101/101
f 100/100/100 102/102/102 101/101/101
f 101/101/101 102/102/102 103/103/103
f 102/102/102 104/104/104 103/103/103
f 107/107/107 106/106/106 105/105/105
f 106/106/106 108/108/108 105/105/105
f 109/109/109 108/108/108 106/106/106
f 110/110/110 109/109/109 106/106/106
f 111/111/111 109/109/109 110/110/110
f 112/112/112 111/111/111 110/110/110
f 115/115/115 114/114/114 113/113/113
f 114/114/114 116/116/116 113/113/113
f 114/114/114 117/117/117 116/116/116
f 117/117/117 118/118/118 116/116/116
f 118/118/118 117/117/117 119/119/119
f 120/120/120 118/118/118 119/119/119
f 123/123/123 122/122/122 121/121/121
f 122/122/122 124/124/124 121/121/121
f 121/121/121 124/124/124 125/125/125
f 126/126/126 121/121/121 125/125/125
f 126/126/126 125/125/125 127/127/127
f 128/128/128 126/126/126 127/127/127
