g S_wpn_misc_0022_05_lod0
v 0.18756126 -0.28927836 0.19238548
v 0.03911086 -0.29356578 0.29389557
v 0.2256749 -0.2887673 0.40276748
v -0.18756126 -0.28927836 0.19238548
v -0.2256749 -0.2887673 0.40276748
v -0.03911086 -0.29356578 0.29389557
v 0.091304526 -0.27509195 0.41434333
v 0.04791677 -0.27509192 0.41041183
v 0.07295708 -0.27509195 0.4460621
v 0.11634488 -0.27509195 0.44999358
v -0.091304526 -0.27509195 0.41434333
v -0.11634488 -0.27509195 0.44999358
v -0.07295708 -0.27509195 0.4460621
v -0.04791677 -0.27509192 0.41041183
vt 0.62088346 0.7196766
vt 0.68023205 0.59412307
vt 0.51343405 0.5943817
vt 0.62088346 0.7196766
vt 0.51343405 0.5943817
vt 0.68023205 0.59412307
vt 0.83645 0.7044169
vt 0.7722802 0.70441693
vt 0.81268907 0.75428516
vt 0.87685853 0.7542851
vt 0.83645 0.7044169
vt 0.8768585 0.7542851
vt 0.81268907 0.75428516
vt 0.7722802 0.70441693
vn 0.027165677 -0.9996278 -0.0024931696
vn 0.02716568 -0.9996278 -0.0024931696
vn 0.027165681 -0.9996278 -0.0024931696
vn -0.027165677 -0.9996278 -0.0024931696
vn -0.027165681 -0.9996278 -0.0024931696
vn -0.02716568 -0.9996278 -0.0024931696
vn -4.17711E-07 -1 -2.4162142E-07
vn -4.17711E-07 -1 -2.4162142E-07
vn -4.17711E-07 -1 -2.4162142E-07
vn -4.17711E-07 -1 -2.416214E-07
vn 4.17711E-07 -1 -2.4162142E-07
vn 4.17711E-07 -1 -2.416214E-07
vn 4.17711E-07 -1 -2.4162142E-07
vn 4.17711E-07 -1 -2.4162142E-07
g S_wpn_misc_0022_05_lod0_0
f 3/3/3 2/2/2 1/1/1
f 6/6/6 5/5/5 4/4/4
f 9/9/9 8/8/8 7/7/7
f 10/10/10 9/9/9 7/7/7
f 13/13/13 12/12/12 11/11/11
f 14/14/14 13/13/13 11/11/11
