g S_wpn_pistol_0009_02_lod0
v 0.09652882 -0.010615307 0.12433544
v 0.09652691 -0.014513048 0.12433473
v 0.09347062 -0.015636336 0.120128736
v 0.09347062 -1.2615423E-08 0.120123334
v 0.09132018 -0.014795625 0.11723622
v 0.10023051 -1.3501876E-08 0.12951514
v 0.09724784 -0.010633251 0.1253396
v 0.10018819 -0.012512523 0.12951308
v 0.09974688 -0.0133295925 0.12876962
v 0.09724961 -0.014247426 0.12533909
v 0.09086976 -1.2274362E-08 0.11609105
v 0.09088565 -0.013981072 0.11613761
v 0.09132018 0.014795599 0.11723622
v 0.09088565 0.013981046 0.11613761
v 0.09347062 0.015636312 0.120128736
v 0.09652882 0.010615283 0.12433544
v 0.09652691 0.014513025 0.12433473
v 0.09724784 0.010633224 0.1253396
v 0.10018819 0.012512497 0.12951308
v 0.09974688 0.013329566 0.12876962
v 0.09724961 0.014247399 0.12533909
v 0.09652691 -0.014513048 0.12433473
v 0.097710006 -0.0143856155 0.124334104
v 0.09429618 -0.015636513 0.11962224
v 0.09347062 -0.015636336 0.120128736
v 0.09218756 -0.0147995325 0.11677191
v 0.09132018 -0.014795625 0.11723622
v 0.091748685 -0.013981228 0.115677536
v 0.09088565 -0.013981072 0.11613761
v 0.09173279 -1.23875346E-08 0.11563098
v 0.09086976 -1.2274362E-08 0.11609105
v 0.09088565 0.013981046 0.11613761
v 0.091748685 0.013981202 0.115677536
v 0.09132018 0.014795599 0.11723622
v 0.09218756 0.014799506 0.11677191
v 0.09347062 0.015636312 0.120128736
v 0.09429618 0.015636489 0.11962224
v 0.09652691 0.014513025 0.12433473
v 0.097710006 0.014385589 0.124334104
v 0.09837041 -0.010626001 0.12533905
v 0.09847472 -0.014105407 0.12534018
v 0.10059245 -0.013329422 0.12828529
v 0.10103396 -0.01251269 0.12902784
v 0.101076305 -1.3612789E-08 0.12903267
v 0.094405524 -1.2738021E-08 0.119758144
v 0.09765605 -0.010629829 0.12433438
v 0.09429618 -0.015636513 0.11962224
v 0.097710006 -0.0143856155 0.124334104
v 0.09218756 -0.0147995325 0.11677191
v 0.09837041 0.010625975 0.12533905
v 0.10103396 0.012512664 0.12902784
v 0.10059245 0.013329396 0.12828529
v 0.09847472 0.0141053805 0.12534018
v 0.09765605 0.010629803 0.12433438
v 0.09429618 0.015636489 0.11962224
v 0.097710006 0.014385589 0.124334104
v 0.09218756 0.014799506 0.11677191
v 0.09173279 -1.23875346E-08 0.11563098
v 0.091748685 -0.013981228 0.115677536
v 0.091748685 0.013981202 0.115677536
v 0.09847472 -0.014105407 0.12534018
v 0.09724961 -0.014247426 0.12533909
v 0.09974688 -0.0133295925 0.12876962
v 0.10059245 -0.013329422 0.12828529
v 0.10018819 -0.012512523 0.12951308
v 0.10103396 -0.01251269 0.12902784
v 0.10023051 -1.3501876E-08 0.12951514
v 0.101076305 -1.3612789E-08 0.12903267
v 0.10103396 0.012512664 0.12902784
v 0.10018819 0.012512497 0.12951308
v 0.10059245 0.013329396 0.12828529
v 0.09974688 0.013329566 0.12876962
v 0.09847472 0.0141053805 0.12534018
v 0.09724961 0.014247399 0.12533909
vt 0.3774671 0.03676886
vt 0.37747025 0.03078197
vt 0.36426955 0.029050373
vt 0.3642288 0.053067587
vt 0.35511974 0.030337308
vt 0.393619 0.0530814
vt 0.38060424 0.036742777
vt 0.39357844 0.033862233
vt 0.3913856 0.03260632
vt 0.38061243 0.031191427
vt 0.35203505 0.05306229
vt 0.35218206 0.031587563
vt 0.35506436 0.07578911
vt 0.35212976 0.07453708
vt 0.36421093 0.07708483
vt 0.37742734 0.06937883
vt 0.37741584 0.07536571
vt 0.38056442 0.06940785
vt 0.39353162 0.0723004
vt 0.39133573 0.073554516
vt 0.3805591 0.07495919
vt 0.33477306 0.045658823
vt 0.33477306 0.041436076
vt 0.32777277 0.041436076
vt 0.32777277 0.045658823
vt 0.3232176 0.041436076
vt 0.3232176 0.045658823
vt 0.3214263 0.041436076
vt 0.3214263 0.045658823
vt 0.30390343 0.041436076
vt 0.30390343 0.045658823
vt 0.2863805 0.045658823
vt 0.2863805 0.041436076
vt 0.28458935 0.045658823
vt 0.28458935 0.041436076
vt 0.28003374 0.045658823
vt 0.28003374 0.041436076
vt 0.27303267 0.045658823
vt 0.27303267 0.041436076
vt 0.30350193 0.10774616
vt 0.30365005 0.11291581
vt 0.3125055 0.11175993
vt 0.31461206 0.11054581
vt 0.3146638 0.09195398
vt 0.28677133 0.09196305
vt 0.30049166 0.10775278
vt 0.28636634 0.11519647
vt 0.300569 0.1133332
vt 0.27771378 0.11395575
vt 0.3034754 0.0761692
vt 0.31458098 0.07336226
vt 0.31247237 0.07214932
vt 0.30361497 0.070999235
vt 0.30046523 0.076164484
vt 0.28632736 0.06872994
vt 0.3005332 0.07058393
vt 0.2776769 0.06997644
vt 0.2747605 0.0919667
vt 0.27489406 0.112740465
vt 0.2748593 0.07119292
vt 0.33553576 0.052948497
vt 0.33553576 0.04771987
vt 0.32837468 0.04771987
vt 0.32837468 0.052948497
vt 0.3262573 0.04771987
vt 0.3262573 0.052948497
vt 0.30395693 0.04771987
vt 0.30395693 0.052948497
vt 0.2816566 0.052948497
vt 0.2816566 0.04771987
vt 0.2795392 0.052948497
vt 0.2795392 0.04771987
vt 0.2723781 0.052948497
vt 0.2723781 0.04771987
vn -0.81018317 -0.000682315 0.5861764
vn -0.80901164 0.00028946274 0.5877926
vn -0.81652796 0.00470242 0.5772868
vn -0.8175543 0 0.5758516
vn -0.8626434 0.006361178 0.5057725
vn -0.8132426 0 0.5819248
vn -0.81351405 -0.0027678828 0.5815387
vn -0.8228572 -0.02690995 0.5676106
vn -0.8228412 -0.041680638 0.5667406
vn -0.8084117 -0.00047753355 0.58861727
vn -0.8304186 0 0.55714005
vn -0.92986107 0.00016847762 0.3679107
vn -0.8626434 -0.00636118 0.50577253
vn -0.92986107 -0.00016847765 0.3679107
vn -0.81652796 -0.00470242 0.57728684
vn -0.81018317 0.00068231433 0.5861764
vn -0.80901164 -0.00028946274 0.5877926
vn -0.813514 0.0027678825 0.5815387
vn -0.8228572 0.02690995 0.5676106
vn -0.8228412 0.041680638 0.5667406
vn -0.8084117 0.00047753355 0.58861727
vn 0.10785842 -0.97737426 0.18195048
vn 0.10785841 -0.97737426 0.18195045
vn 0.0016418438 -0.9999975 0.0015490042
vn -0.010129258 -0.9997787 -0.018440016
vn -0.19560368 -0.9143485 -0.35455042
vn -0.19829829 -0.91168916 -0.35986215
vn -0.42093387 -0.4509315 -0.7870676
vn -0.41439614 -0.4776945 -0.7746509
vn -0.4704175 0 -0.882444
vn -0.4704174 0 -0.882444
vn -0.41439614 0.4776945 -0.7746509
vn -0.42093387 0.4509315 -0.7870676
vn -0.1982984 0.911689 -0.35986233
vn -0.19560386 0.9143484 -0.35455075
vn -0.010128906 0.9997787 -0.018440552
vn 0.0016422633 0.9999975 0.0015484677
vn 0.10785947 0.97737426 0.18195
vn 0.10785946 0.97737426 0.18194996
vn 0.8115545 0.005768572 -0.5842482
vn 0.8086449 0.024053132 -0.58780515
vn 0.81960964 0.051847246 -0.5705714
vn 0.81780565 0.030991288 -0.57465935
vn 0.8116141 0 -0.584194
vn 0.8186377 0 -0.57431024
vn 0.8123582 0.0004016755 -0.58315873
vn 0.81836116 -0.0027099962 -0.57469785
vn 0.8082683 0.011655635 -0.58869886
vn 0.86196774 -0.0064510317 -0.5069221
vn 0.8115545 -0.005768572 -0.5842482
vn 0.81780565 -0.030991288 -0.57465935
vn 0.81960964 -0.051847246 -0.5705714
vn 0.8086449 -0.024053132 -0.58780515
vn 0.8123582 -0.00040167486 -0.5831588
vn 0.81836116 0.002709994 -0.5746979
vn 0.8082683 -0.011655635 -0.58869886
vn 0.86196774 0.006451031 -0.5069221
vn 0.8305888 0 -0.55688626
vn 0.92809707 -0.00018522289 -0.37233818
vn 0.92809707 0.00018522292 -0.37233818
vn 0.109266795 -0.97746986 0.18059196
vn 0.1092668 -0.97746986 0.180592
vn 0.2296762 -0.8893898 0.39526537
vn 0.23853777 -0.8798248 0.41110575
vn 0.4557925 -0.39816937 0.7960618
vn 0.45651925 -0.3947685 0.79733807
vn 0.4965646 0 0.8679998
vn 0.4965646 0 0.8679998
vn 0.45651934 0.3947685 0.79733807
vn 0.4557925 0.39816937 0.7960618
vn 0.2385378 0.8798248 0.41110572
vn 0.22967622 0.8893897 0.39526534
vn 0.109266795 0.97746986 0.18059199
vn 0.1092668 0.97746986 0.18059202
g S_wpn_pistol_0009_02_lod0_0
f 3/3/3 2/2/2 1/1/1
f 4/4/4 3/3/3 1/1/1
f 5/5/5 3/3/3 4/4/4
f 6/6/6 4/4/4 1/1/1
f 7/7/7 6/6/6 1/1/1
f 8/8/8 6/6/6 7/7/7
f 9/9/9 8/8/8 7/7/7
f 10/10/10 9/9/9 7/7/7
f 11/11/11 5/5/5 4/4/4
f 12/12/12 5/5/5 11/11/11
f 13/13/13 11/11/11 4/4/4
f 13/13/13 14/14/14 11/11/11
f 15/15/15 13/13/13 4/4/4
f 15/15/15 4/4/4 16/16/16
f 4/4/4 6/6/6 16/16/16
f 17/17/17 15/15/15 16/16/16
f 6/6/6 18/18/18 16/16/16
f 6/6/6 19/19/19 18/18/18
f 19/19/19 20/20/20 18/18/18
f 20/20/20 21/21/21 18/18/18
f 24/24/24 23/23/23 22/22/22
f 25/25/25 24/24/24 22/22/22
f 24/24/24 25/25/25 26/26/26
f 25/25/25 27/27/27 26/26/26
f 26/26/26 27/27/27 28/28/28
f 27/27/27 29/29/29 28/28/28
f 28/28/28 29/29/29 30/30/30
f 29/29/29 31/31/31 30/30/30
f 31/31/31 32/32/32 30/30/30
f 32/32/32 33/33/33 30/30/30
f 32/32/32 34/34/34 33/33/33
f 34/34/34 35/35/35 33/33/33
f 34/34/34 36/36/36 35/35/35
f 36/36/36 37/37/37 35/35/35
f 37/37/37 36/36/36 38/38/38
f 39/39/39 37/37/37 38/38/38
f 42/42/42 41/41/41 40/40/40
f 43/43/43 42/42/42 40/40/40
f 44/44/44 43/43/43 40/40/40
f 45/45/45 44/44/44 40/40/40
f 46/46/46 45/45/45 40/40/40
f 47/47/47 45/45/45 46/46/46
f 48/48/48 47/47/47 46/46/46
f 45/45/45 47/47/47 49/49/49
f 44/44/44 45/45/45 50/50/50
f 51/51/51 44/44/44 50/50/50
f 52/52/52 51/51/51 50/50/50
f 53/53/53 52/52/52 50/50/50
f 45/45/45 54/54/54 50/50/50
f 45/45/45 55/55/55 54/54/54
f 55/55/55 56/56/56 54/54/54
f 55/55/55 45/45/45 57/57/57
f 58/58/58 45/45/45 49/49/49
f 45/45/45 58/58/58 57/57/57
f 59/59/59 58/58/58 49/49/49
f 58/58/58 60/60/60 57/57/57
f 63/63/63 62/62/62 61/61/61
f 64/64/64 63/63/63 61/61/61
f 63/63/63 64/64/64 65/65/65
f 64/64/64 66/66/66 65/65/65
f 67/67/67 65/65/65 66/66/66
f 68/68/68 67/67/67 66/66/66
f 67/67/67 68/68/68 69/69/69
f 70/70/70 67/67/67 69/69/69
f 69/69/69 71/71/71 70/70/70
f 71/71/71 72/72/72 70/70/70
f 72/72/72 71/71/71 73/73/73
f 74/74/74 72/72/72 73/73/73
