g S_wpn_misc_0040vfx_01_lod0
v -0.047102317 0.19360614 0.0036630407
v -0.23420572 0.12323076 0.2185676
v -0.020443857 -0.036465023 0.002274737
v -0.03270691 0.19519539 0.01671659
v 0.0070582605 -0.033428878 -1.3890469E-09
v -0.21981011 0.12482 0.23162116
v 0.047102317 0.19360614 0.0036630402
v 0.020443859 -0.036465034 0.002274737
v 0.23420572 0.12323078 0.2185676
v 0.03270691 0.19519535 0.01671659
v 0.21981011 0.12481998 0.23162116
v -0.0070582605 -0.033428878 -1.3890469E-09
v -0.047102317 0.19360614 -0.0036630407
v -0.020443857 -0.036465023 -0.002274737
v -0.23420572 0.12323076 -0.2185676
v -0.03270691 0.19519539 -0.01671659
v -0.21981011 0.12482 -0.23162116
v 0.0070582605 -0.033428878 1.3891197E-09
v 0.047102317 0.19360614 -0.0036630402
v 0.23420572 0.12323078 -0.2185676
v 0.020443859 -0.036465034 -0.002274737
v 0.03270691 0.19519535 -0.01671659
v -0.0070582605 -0.033428878 1.3891197E-09
v 0.21981011 0.12481998 -0.23162116
v -0.21599913 0.13018359 0.2310508
v -0.23201461 0.13018359 0.21503533
v -0.035516873 0.09431335 -0.05081707
v 0.048709188 0.09431335 0.033409044
v 0.21599913 0.13018359 0.2310508
v -0.048709188 0.09431335 0.033409044
v 0.035516873 0.09431335 -0.05081707
v 0.23201461 0.13018359 0.21503533
v -0.21599913 0.13018359 -0.2310508
v 0.048709188 0.09431335 -0.033409044
v -0.035516873 0.09431335 0.05081707
v -0.23201461 0.13018359 -0.21503533
v 0.21599913 0.13018359 -0.2310508
v 0.23201461 0.13018359 -0.21503533
v 0.035516873 0.09431335 0.05081707
v -0.048709188 0.09431335 -0.033409044
v -0.084081 -0.15920928 -0.0146349985
v -0.085378 -0.15920928 5.989379E-19
v -0.087978 -0.15920928 5.989379E-19
v -0.086642 -0.15920928 -0.015086998
v -0.08022899 -0.15920928 -0.029010996
v -0.089279 -0.16146128 7.368331E-19
v -0.082673 -0.15920928 -0.029899998
v -0.07394 -0.15920928 -0.042498995
v -0.087922 -0.16146128 -0.015312998
v -0.087978 -0.16371328 8.747283E-19
v -0.076192 -0.15920928 -0.043798994
v -0.065403 -0.15920928 -0.054688998
v -0.086642 -0.16371328 -0.015086998
v -0.085378 -0.16371328 8.747283E-19
v -0.08389399 -0.16146128 -0.030344997
v -0.067395 -0.15920928 -0.056360994
v -0.054879997 -0.15920928 -0.065212995
v -0.084081 -0.16371328 -0.0146349985
v -0.084078 -0.16146128 7.368331E-19
v -0.082673 -0.16371328 -0.029899998
v -0.077318 -0.16146128 -0.044448994
v -0.056551 -0.15920928 -0.067205
v -0.042689 -0.15920928 -0.07374899
v -0.082801 -0.16146128 -0.014409998
v -0.085378 -0.15920928 5.989379E-19
v -0.084081 -0.15920928 -0.0146349985
v -0.068390995 -0.16146128 -0.057196993
v -0.08022899 -0.16371328 -0.029010996
v -0.079007 -0.16146128 -0.028565997
v -0.08022899 -0.15920928 -0.029010996
v -0.076192 -0.16371328 -0.043798994
v -0.043989 -0.15920928 -0.076000996
v -0.029200999 -0.15920928 -0.08003899
v -0.07394 -0.16371328 -0.042498995
v -0.072814 -0.16146128 -0.041847996
v -0.07394 -0.15920928 -0.042498995
v -0.067395 -0.16371328 -0.056360994
v -0.057386998 -0.16146128 -0.06820099
v -0.03009 -0.15920928 -0.082481995
v -0.014826 -0.15920928 -0.08389099
v -0.065403 -0.16371328 -0.054688998
v -0.064407 -0.16146128 -0.053853992
v -0.065403 -0.15920928 -0.054688998
v -0.056551 -0.16371328 -0.067205
v -0.044639 -0.16146128 -0.077126995
v -0.015276999 -0.15920928 -0.08645099
v -0 -0.15920928 -0.08518799
v -0 -0.15920928 -0.087787986
v -0.054879997 -0.16371328 -0.065212995
v -0.054043997 -0.16146128 -0.064216994
v -0.054879997 -0.15920928 -0.065212995
v -0.043989 -0.16371328 -0.076000996
v -0.030535 -0.16146128 -0.083703995
v -0.015503 -0.16146128 -0.08773199
v -0 -0.16146128 -0.08908799
v -0.042689 -0.16371328 -0.07374899
v -0.042039 -0.16146128 -0.07262299
v -0.042689 -0.15920928 -0.07374899
v -0.03009 -0.16371328 -0.082481995
v -0.015276999 -0.16371328 -0.08645099
v -0 -0.16371328 -0.087787986
v -0.029200999 -0.16371328 -0.08003899
v -0.028756 -0.16146128 -0.078816995
v -0.029200999 -0.15920928 -0.08003899
v -0.014826 -0.16371328 -0.08389099
v -0 -0.16371328 -0.08518799
v -0.0146 -0.16146128 -0.08260999
v -0.014826 -0.15920928 -0.08389099
v -0 -0.16146128 -0.08388698
v -0 -0.15920928 -0.08518799
v 0.084081 -0.15920928 -0.0146349985
v 0.087978 -0.15920928 5.989379E-19
v 0.085378 -0.15920928 5.989379E-19
v 0.086642 -0.15920928 -0.015086998
v 0.08022899 -0.15920928 -0.029010996
v 0.089279 -0.16146128 7.368331E-19
v 0.082673 -0.15920928 -0.029899998
v 0.07394 -0.15920928 -0.042498995
v 0.087922 -0.16146128 -0.015312998
v 0.087978 -0.16371328 8.747283E-19
v 0.076192 -0.15920928 -0.043798994
v 0.065403 -0.15920928 -0.054688998
v 0.086642 -0.16371328 -0.015086998
v 0.085378 -0.16371328 8.747283E-19
v 0.08389399 -0.16146128 -0.030344997
v 0.067395 -0.15920928 -0.056360994
v 0.054879997 -0.15920928 -0.065212995
v 0.084081 -0.16371328 -0.0146349985
v 0.084078 -0.16146128 7.368331E-19
v 0.082673 -0.16371328 -0.029899998
v 0.077318 -0.16146128 -0.044448994
v 0.056551 -0.15920928 -0.067205
v 0.042689 -0.15920928 -0.07374899
v 0.082801 -0.16146128 -0.014409998
v 0.085378 -0.15920928 5.989379E-19
v 0.084081 -0.15920928 -0.0146349985
v 0.068390995 -0.16146128 -0.057196993
v 0.08022899 -0.16371328 -0.029010996
v 0.079007 -0.16146128 -0.028565997
v 0.08022899 -0.15920928 -0.029010996
v 0.076192 -0.16371328 -0.043798994
v 0.043989 -0.15920928 -0.076000996
v 0.029200999 -0.15920928 -0.08003899
v 0.07394 -0.16371328 -0.042498995
v 0.072814 -0.16146128 -0.041847996
v 0.07394 -0.15920928 -0.042498995
v 0.067395 -0.16371328 -0.056360994
v 0.057386998 -0.16146128 -0.06820099
v 0.03009 -0.15920928 -0.082481995
v 0.014826 -0.15920928 -0.08389099
v 0.065403 -0.16371328 -0.054688998
v 0.064407 -0.16146128 -0.053853992
v 0.065403 -0.15920928 -0.054688998
v 0.056551 -0.16371328 -0.067205
v 0.044639 -0.16146128 -0.077126995
v 0.015276999 -0.15920928 -0.08645099
v -0 -0.15920928 -0.08518799
v -0 -0.15920928 -0.087787986
v 0.054879997 -0.16371328 -0.065212995
v 0.054043997 -0.16146128 -0.064216994
v 0.054879997 -0.15920928 -0.065212995
v 0.043989 -0.16371328 -0.076000996
v 0.030535 -0.16146128 -0.083703995
v 0.015503 -0.16146128 -0.08773199
v -0 -0.16146128 -0.08908799
v 0.042689 -0.16371328 -0.07374899
v 0.042039 -0.16146128 -0.07262299
v 0.042689 -0.15920928 -0.07374899
v 0.03009 -0.16371328 -0.082481995
v 0.015276999 -0.16371328 -0.08645099
v -0 -0.16371328 -0.087787986
v 0.029200999 -0.16371328 -0.08003899
v 0.028756 -0.16146128 -0.078816995
v 0.029200999 -0.15920928 -0.08003899
v 0.014826 -0.16371328 -0.08389099
v -0 -0.16371328 -0.08518799
v 0.0146 -0.16146128 -0.08260999
v 0.014826 -0.15920928 -0.08389099
v -0 -0.16146128 -0.08388698
v -0 -0.15920928 -0.08518799
v -0.084081 -0.15920928 0.0146349985
v -0.087978 -0.15920928 5.989379E-19
v -0.085378 -0.15920928 5.989379E-19
v -0.086642 -0.15920928 0.015086998
v -0.08022899 -0.15920928 0.029010996
v -0.089279 -0.16146128 7.368331E-19
v -0.082673 -0.15920928 0.029899998
v -0.07394 -0.15920928 0.042498995
v -0.087922 -0.16146128 0.015312998
v -0.087978 -0.16371328 8.747283E-19
v -0.076192 -0.15920928 0.043798994
v -0.065403 -0.15920928 0.054688998
v -0.086642 -0.16371328 0.015086998
v -0.085378 -0.16371328 8.747283E-19
v -0.08389399 -0.16146128 0.030344997
v -0.067395 -0.15920928 0.056360994
v -0.054879997 -0.15920928 0.065212995
v -0.084081 -0.16371328 0.0146349985
v -0.084078 -0.16146128 7.368331E-19
v -0.082673 -0.16371328 0.029899998
v -0.077318 -0.16146128 0.044448994
v -0.056551 -0.15920928 0.067205
v -0.042689 -0.15920928 0.07374899
v -0.082801 -0.16146128 0.014409998
v -0.085378 -0.15920928 5.989379E-19
v -0.084081 -0.15920928 0.0146349985
v -0.068390995 -0.16146128 0.057196993
v -0.08022899 -0.16371328 0.029010996
v -0.079007 -0.16146128 0.028565997
v -0.08022899 -0.15920928 0.029010996
v -0.076192 -0.16371328 0.043798994
v -0.043989 -0.15920928 0.076000996
v -0.029200999 -0.15920928 0.08003899
v -0.07394 -0.16371328 0.042498995
v -0.072814 -0.16146128 0.041847996
v -0.07394 -0.15920928 0.042498995
v -0.067395 -0.16371328 0.056360994
v -0.057386998 -0.16146128 0.06820099
v -0.03009 -0.15920928 0.082481995
v -0.014826 -0.15920928 0.08389099
v -0.065403 -0.16371328 0.054688998
v -0.064407 -0.16146128 0.053853992
v -0.065403 -0.15920928 0.054688998
v -0.056551 -0.16371328 0.067205
v -0.044639 -0.16146128 0.077126995
v -0.015276999 -0.15920928 0.08645099
v -0 -0.15920928 0.08518799
v -0 -0.15920928 0.087787986
v -0.054879997 -0.16371328 0.065212995
v -0.054043997 -0.16146128 0.064216994
v -0.054879997 -0.15920928 0.065212995
v -0.043989 -0.16371328 0.076000996
v -0.030535 -0.16146128 0.083703995
v -0.015503 -0.16146128 0.08773199
v -0 -0.16146128 0.08908799
v -0.042689 -0.16371328 0.07374899
v -0.042039 -0.16146128 0.07262299
v -0.042689 -0.15920928 0.07374899
v -0.03009 -0.16371328 0.082481995
v -0.015276999 -0.16371328 0.08645099
v -0 -0.16371328 0.087787986
v -0.029200999 -0.16371328 0.08003899
v -0.028756 -0.16146128 0.078816995
v -0.029200999 -0.15920928 0.08003899
v -0.014826 -0.16371328 0.08389099
v -0 -0.16371328 0.08518799
v -0.0146 -0.16146128 0.08260999
v -0.014826 -0.15920928 0.08389099
v -0 -0.16146128 0.08388698
v -0 -0.15920928 0.08518799
v 0.084081 -0.15920928 0.0146349985
v 0.085378 -0.15920928 5.989379E-19
v 0.087978 -0.15920928 5.989379E-19
v 0.086642 -0.15920928 0.015086998
v 0.08022899 -0.15920928 0.029010996
v 0.089279 -0.16146128 7.368331E-19
v 0.082673 -0.15920928 0.029899998
v 0.07394 -0.15920928 0.042498995
v 0.087922 -0.16146128 0.015312998
v 0.087978 -0.16371328 8.747283E-19
v 0.076192 -0.15920928 0.043798994
v 0.065403 -0.15920928 0.054688998
v 0.086642 -0.16371328 0.015086998
v 0.085378 -0.16371328 8.747283E-19
v 0.08389399 -0.16146128 0.030344997
v 0.067395 -0.15920928 0.056360994
v 0.054879997 -0.15920928 0.065212995
v 0.084081 -0.16371328 0.0146349985
v 0.084078 -0.16146128 7.368331E-19
v 0.082673 -0.16371328 0.029899998
v 0.077318 -0.16146128 0.044448994
v 0.056551 -0.15920928 0.067205
v 0.042689 -0.15920928 0.07374899
v 0.082801 -0.16146128 0.014409998
v 0.085378 -0.15920928 5.989379E-19
v 0.084081 -0.15920928 0.0146349985
v 0.068390995 -0.16146128 0.057196993
v 0.08022899 -0.16371328 0.029010996
v 0.079007 -0.16146128 0.028565997
v 0.08022899 -0.15920928 0.029010996
v 0.076192 -0.16371328 0.043798994
v 0.043989 -0.15920928 0.076000996
v 0.029200999 -0.15920928 0.08003899
v 0.07394 -0.16371328 0.042498995
v 0.072814 -0.16146128 0.041847996
v 0.07394 -0.15920928 0.042498995
v 0.067395 -0.16371328 0.056360994
v 0.057386998 -0.16146128 0.06820099
v 0.03009 -0.15920928 0.082481995
v 0.014826 -0.15920928 0.08389099
v 0.065403 -0.16371328 0.054688998
v 0.064407 -0.16146128 0.053853992
v 0.065403 -0.15920928 0.054688998
v 0.056551 -0.16371328 0.067205
v 0.044639 -0.16146128 0.077126995
v 0.015276999 -0.15920928 0.08645099
v -0 -0.15920928 0.08518799
v -0 -0.15920928 0.087787986
v 0.054879997 -0.16371328 0.065212995
v 0.054043997 -0.16146128 0.064216994
v 0.054879997 -0.15920928 0.065212995
v 0.043989 -0.16371328 0.076000996
v 0.030535 -0.16146128 0.083703995
v 0.015503 -0.16146128 0.08773199
v -0 -0.16146128 0.08908799
v 0.042689 -0.16371328 0.07374899
v 0.042039 -0.16146128 0.07262299
v 0.042689 -0.15920928 0.07374899
v 0.03009 -0.16371328 0.082481995
v 0.015276999 -0.16371328 0.08645099
v -0 -0.16371328 0.087787986
v 0.029200999 -0.16371328 0.08003899
v 0.028756 -0.16146128 0.078816995
v 0.029200999 -0.15920928 0.08003899
v 0.014826 -0.16371328 0.08389099
v -0 -0.16371328 0.08518799
v 0.0146 -0.16146128 0.08260999
v 0.014826 -0.15920928 0.08389099
v -0 -0.16146128 0.08388698
v -0 -0.15920928 0.08518799
vt 0.375 0
vt 0.59958 0.22458
vt 0.375 0.22458
vt 0.375 0
vt 0.375 0.22458
vt 0.59958 0.22458
vt 0.375 0
vt 0.375 0.22458
vt 0.59958 0.22458
vt 0.375 0
vt 0.59958 0.22458
vt 0.375 0.22458
vt 0.375 0
vt 0.375 0.22458
vt 0.59958 0.22458
vt 0.375 0
vt 0.59958 0.22458
vt 0.375 0.22458
vt 0.375 0
vt 0.59958 0.22458
vt 0.375 0.22458
vt 0.375 0
vt 0.375 0.22458
vt 0.59958 0.22458
vt 0 0
vt 0 1
vt 1 1
vt 1 0
vt 0 0
vt 1 0
vt 1 1
vt 0 1
vt 0 0
vt 1 0
vt 1 1
vt 0 1
vt 0 0
vt 0 1
vt 1 1
vt 1 0
vt 0.9681001 0.1918
vt 0.99600005 0.1918
vt 0.99600005 0.1869
vt 0.9681001 0.1869
vt 0.9403 0.1918
vt 0.99600005 0.1821
vt 0.9403 0.1869
vt 0.9125 0.1918
vt 0.9681001 0.1821
vt 0.99600005 0.1772
vt 0.9125 0.1869
vt 0.88470006 0.1918
vt 0.9681001 0.1772
vt 0.99600005 0.1724
vt 0.9403 0.1821
vt 0.88470006 0.1869
vt 0.8569 0.1918
vt 0.9681001 0.1724
vt 0.99600005 0.1677
vt 0.9403 0.1772
vt 0.9125 0.1821
vt 0.8569 0.1869
vt 0.8291 0.1918
vt 0.9681001 0.1677
vt 0.99600005 0.1628
vt 0.9681001 0.1628
vt 0.88470006 0.1821
vt 0.9403 0.1724
vt 0.9403 0.1677
vt 0.9403 0.1628
vt 0.9125 0.1772
vt 0.8291 0.1869
vt 0.80130005 0.1918
vt 0.9125 0.1724
vt 0.9125 0.1677
vt 0.9125 0.1628
vt 0.88470006 0.1772
vt 0.8569 0.1821
vt 0.80130005 0.187
vt 0.77349997 0.1918
vt 0.88470006 0.1724
vt 0.88470006 0.1677
vt 0.88470006 0.1628
vt 0.8569 0.1772
vt 0.8291 0.1821
vt 0.77349997 0.187
vt 0.7457 0.1918
vt 0.7457 0.187
vt 0.8569 0.1724
vt 0.8569 0.1677
vt 0.8569 0.1628
vt 0.8291 0.1772
vt 0.80130005 0.1821
vt 0.77349997 0.1821
vt 0.7457 0.1821
vt 0.8291 0.1724
vt 0.8291 0.1677
vt 0.8291 0.1628
vt 0.80130005 0.1772
vt 0.77349997 0.1772
vt 0.7457 0.1772
vt 0.80130005 0.1724
vt 0.80130005 0.1677
vt 0.80130005 0.1628
vt 0.77349997 0.1724
vt 0.7457 0.1724
vt 0.77349997 0.1677
vt 0.77349997 0.1628
vt 0.7457 0.1677
vt 0.7457 0.1628
vt 0.9681001 0.1918
vt 0.99600005 0.1869
vt 0.99600005 0.1918
vt 0.9681001 0.1869
vt 0.9403 0.1918
vt 0.99600005 0.1821
vt 0.9403 0.1869
vt 0.9125 0.1918
vt 0.9681001 0.1821
vt 0.99600005 0.1772
vt 0.9125 0.1869
vt 0.88470006 0.1918
vt 0.9681001 0.1772
vt 0.99600005 0.1724
vt 0.9403 0.1821
vt 0.88470006 0.1869
vt 0.8569 0.1918
vt 0.9681001 0.1724
vt 0.99600005 0.1677
vt 0.9403 0.1772
vt 0.9125 0.1821
vt 0.8569 0.1869
vt 0.8291 0.1918
vt 0.9681001 0.1677
vt 0.99600005 0.1628
vt 0.9681001 0.1628
vt 0.88470006 0.1821
vt 0.9403 0.1724
vt 0.9403 0.1677
vt 0.9403 0.1628
vt 0.9125 0.1772
vt 0.8291 0.1869
vt 0.80130005 0.1918
vt 0.9125 0.1724
vt 0.9125 0.1677
vt 0.9125 0.1628
vt 0.88470006 0.1772
vt 0.8569 0.1821
vt 0.80130005 0.187
vt 0.77349997 0.1918
vt 0.88470006 0.1724
vt 0.88470006 0.1677
vt 0.88470006 0.1628
vt 0.8569 0.1772
vt 0.8291 0.1821
vt 0.77349997 0.187
vt 0.7457 0.1918
vt 0.7457 0.187
vt 0.8569 0.1724
vt 0.8569 0.1677
vt 0.8569 0.1628
vt 0.8291 0.1772
vt 0.80130005 0.1821
vt 0.77349997 0.1821
vt 0.7457 0.1821
vt 0.8291 0.1724
vt 0.8291 0.1677
vt 0.8291 0.1628
vt 0.80130005 0.1772
vt 0.77349997 0.1772
vt 0.7457 0.1772
vt 0.80130005 0.1724
vt 0.80130005 0.1677
vt 0.80130005 0.1628
vt 0.77349997 0.1724
vt 0.7457 0.1724
vt 0.77349997 0.1677
vt 0.77349997 0.1628
vt 0.7457 0.1677
vt 0.7457 0.1628
vt 0.9681001 0.1918
vt 0.99600005 0.1869
vt 0.99600005 0.1918
vt 0.9681001 0.1869
vt 0.9403 0.1918
vt 0.99600005 0.1821
vt 0.9403 0.1869
vt 0.9125 0.1918
vt 0.9681001 0.1821
vt 0.99600005 0.1772
vt 0.9125 0.1869
vt 0.88470006 0.1918
vt 0.9681001 0.1772
vt 0.99600005 0.1724
vt 0.9403 0.1821
vt 0.88470006 0.1869
vt 0.8569 0.1918
vt 0.9681001 0.1724
vt 0.99600005 0.1677
vt 0.9403 0.1772
vt 0.9125 0.1821
vt 0.8569 0.1869
vt 0.8291 0.1918
vt 0.9681001 0.1677
vt 0.99600005 0.1628
vt 0.9681001 0.1628
vt 0.88470006 0.1821
vt 0.9403 0.1724
vt 0.9403 0.1677
vt 0.9403 0.1628
vt 0.9125 0.1772
vt 0.8291 0.1869
vt 0.80130005 0.1918
vt 0.9125 0.1724
vt 0.9125 0.1677
vt 0.9125 0.1628
vt 0.88470006 0.1772
vt 0.8569 0.1821
vt 0.80130005 0.187
vt 0.77349997 0.1918
vt 0.88470006 0.1724
vt 0.88470006 0.1677
vt 0.88470006 0.1628
vt 0.8569 0.1772
vt 0.8291 0.1821
vt 0.77349997 0.187
vt 0.7457 0.1918
vt 0.7457 0.187
vt 0.8569 0.1724
vt 0.8569 0.1677
vt 0.8569 0.1628
vt 0.8291 0.1772
vt 0.80130005 0.1821
vt 0.77349997 0.1821
vt 0.7457 0.1821
vt 0.8291 0.1724
vt 0.8291 0.1677
vt 0.8291 0.1628
vt 0.80130005 0.1772
vt 0.77349997 0.1772
vt 0.7457 0.1772
vt 0.80130005 0.1724
vt 0.80130005 0.1677
vt 0.80130005 0.1628
vt 0.77349997 0.1724
vt 0.7457 0.1724
vt 0.77349997 0.1677
vt 0.77349997 0.1628
vt 0.7457 0.1677
vt 0.7457 0.1628
vt 0.9681 0.1918
vt 0.996 0.1918
vt 0.996 0.1869
vt 0.9681 0.1869
vt 0.9403 0.1918
vt 0.996 0.1821
vt 0.9403 0.1869
vt 0.9125 0.1918
vt 0.9681 0.1821
vt 0.996 0.1772
vt 0.9125 0.1869
vt 0.8847 0.1918
vt 0.9681 0.1772
vt 0.996 0.1724
vt 0.9403 0.1821
vt 0.8847 0.1869
vt 0.8569 0.1918
vt 0.9681 0.1724
vt 0.996 0.1677
vt 0.9403 0.1772
vt 0.9125 0.1821
vt 0.8569 0.1869
vt 0.8291 0.1918
vt 0.9681 0.1677
vt 0.996 0.1628
vt 0.9681 0.1628
vt 0.8847 0.1821
vt 0.9403 0.1724
vt 0.9403 0.1677
vt 0.9403 0.1628
vt 0.9125 0.1772
vt 0.8291 0.1869
vt 0.8013 0.1918
vt 0.9125 0.1724
vt 0.9125 0.1677
vt 0.9125 0.1628
vt 0.8847 0.1772
vt 0.8569 0.1821
vt 0.8013 0.187
vt 0.7735 0.1918
vt 0.8847 0.1724
vt 0.8847 0.1677
vt 0.8847 0.1628
vt 0.8569 0.1772
vt 0.8291 0.1821
vt 0.7735 0.187
vt 0.7457 0.1918
vt 0.7457 0.187
vt 0.8569 0.1724
vt 0.8569 0.1677
vt 0.8569 0.1628
vt 0.8291 0.1772
vt 0.8013 0.1821
vt 0.7735 0.1821
vt 0.7457 0.1821
vt 0.8291 0.1724
vt 0.8291 0.1677
vt 0.8291 0.1628
vt 0.8013 0.1772
vt 0.7735 0.1772
vt 0.7457 0.1772
vt 0.8013 0.1724
vt 0.8013 0.1677
vt 0.8013 0.1628
vt 0.7735 0.1724
vt 0.7457 0.1724
vt 0.7735 0.1677
vt 0.7735 0.1628
vt 0.7457 0.1677
vt 0.7457 0.1628
vn -0.7383238 -0.081510015 -0.6695028
vn -0.7383239 -0.08151002 -0.66950285
vn -0.7383239 -0.08151002 -0.66950285
vn 0.73876625 0.07956114 0.6692491
vn 0.73876625 0.07956114 0.6692492
vn 0.73876625 0.07956113 0.6692491
vn 0.7383238 -0.08151001 -0.6695028
vn 0.7383239 -0.08151002 -0.66950285
vn 0.7383239 -0.081510015 -0.66950285
vn -0.73876625 0.079561114 0.6692491
vn -0.7387663 0.079561114 0.6692492
vn -0.73876625 0.079561114 0.6692492
vn -0.7383238 -0.081510015 0.6695028
vn -0.7383239 -0.08151002 0.66950285
vn -0.7383239 -0.08151002 0.66950285
vn 0.7387663 0.0795611 -0.66924906
vn 0.7387663 0.07956109 -0.6692491
vn 0.7387663 0.07956109 -0.66924906
vn 0.7383238 -0.081510015 0.6695028
vn 0.7383239 -0.08151002 0.66950285
vn 0.7383239 -0.08151002 0.66950285
vn -0.73876625 0.07956114 -0.6692491
vn -0.7387663 0.07956114 -0.6692492
vn -0.7387663 0.07956113 -0.6692491
vn 0.07711976 0.9940348 -0.07711961
vn 0.07711977 0.9940348 -0.07711961
vn 0.07711976 0.9940348 -0.07711961
vn 0.07711975 0.9940348 -0.07711962
vn -0.077119395 0.9940348 -0.07711961
vn -0.07711939 0.9940348 -0.07711962
vn -0.077119395 0.9940348 -0.07711961
vn -0.077119395 0.9940348 -0.07711961
vn 0.077119395 0.9940348 0.07711961
vn 0.07711939 0.9940348 0.07711962
vn 0.077119395 0.9940348 0.07711961
vn 0.077119395 0.9940348 0.07711961
vn -0.07711976 0.9940348 0.07711961
vn -0.07711977 0.9940348 0.07711961
vn -0.07711976 0.9940348 0.07711961
vn -0.07711975 0.9940348 0.07711962
vn 0.4714695 0.87793016 0.083397105
vn 0.47834834 0.87817013 0
vn -0.5204546 0.85388935 0
vn -0.51222074 0.85406035 -0.090613715
vn 0.44972888 0.8780378 0.16368735
vn -1 0 0
vn -0.4889474 0.85397035 -0.17794697
vn 0.41443557 0.8780567 0.23928967
vn -0.9847135 0 -0.17418154
vn -0.52045465 -0.85388935 0
vn -0.450581 0.8539906 -0.2601475
vn 0.36664993 0.8780178 0.3076569
vn -0.51222086 -0.85406035 -0.09061373
vn 0.47834834 -0.87817013 0
vn -0.9396937 0 -0.34201723
vn -0.39852107 0.8540198 -0.33441153
vn 0.30764464 0.8780321 0.36662573
vn 0.47146964 -0.87793016 0.08339713
vn 1 0 0
vn -0.48894745 -0.8539703 -0.177947
vn -0.86602366 0 -0.50000304
vn -0.33440432 0.8540164 -0.39853442
vn 0.2392978 0.87803686 0.41447303
vn 0.9847025 1.06894966E-07 0.17424361
vn 0.47834834 0.87817013 0
vn 0.4714695 0.87793016 0.083397105
vn -0.7660278 0 -0.6428074
vn 0.44972897 -0.8780377 0.16368738
vn 0.9396962 0 0.34201032
vn 0.44972888 0.8780378 0.16368735
vn -0.450581 -0.8539906 -0.26014754
vn -0.26012412 0.85401464 -0.45054922
vn 0.16368356 0.87805635 0.4496941
vn 0.41443565 -0.8780567 0.23928969
vn 0.86602813 0 0.49999532
vn 0.41443557 0.8780567 0.23928967
vn -0.39852107 -0.8540198 -0.33441153
vn -0.6427877 0 -0.7660444
vn -0.17792434 0.85403347 -0.48884544
vn 0.08309324 0.8780787 0.47124663
vn 0.36664996 -0.87801766 0.30765688
vn 0.7660274 0 0.6428079
vn 0.36664993 0.8780178 0.3076569
vn -0.33440432 -0.8540164 -0.39853448
vn -0.4999963 0 -0.8660276
vn -0.090332694 0.85403764 -0.51230824
vn -0 0.8780857 0.47850338
vn -0 0.85402113 -0.5202383
vn 0.30764467 -0.8780321 0.36662573
vn 0.64279276 0 0.7660402
vn 0.30764464 0.8780321 0.36662573
vn -0.2601242 -0.8540145 -0.4505493
vn -0.34202725 0 -0.93969
vn -0.17365123 0 -0.98480725
vn -0 0 -1
vn 0.23929779 -0.8780368 0.41447303
vn 0.50000596 0 0.86602193
vn 0.2392978 0.87803686 0.41447303
vn -0.17792436 -0.8540334 -0.4888455
vn -0.090332694 -0.85403764 -0.51230824
vn -0 -0.85402113 -0.52023834
vn 0.16368358 -0.87805635 0.4496941
vn 0.34202737 0 0.93969
vn 0.16368356 0.87805635 0.4496941
vn 0.083093256 -0.8780787 0.4712467
vn -0 -0.8780857 0.47850338
vn 0.17364226 0 0.98480874
vn 0.08309324 0.8780787 0.47124663
vn -0 1.0690044E-07 1
vn -0 0.8780857 0.47850338
vn -0.4714695 0.87793016 0.083397105
vn 0.5204546 0.85388935 0
vn -0.47834834 0.87817013 0
vn 0.5122207 0.85406035 -0.09061371
vn -0.44972888 0.8780378 0.16368738
vn 1 0 0
vn 0.4889474 0.85397035 -0.177947
vn -0.41443557 0.8780567 0.23928967
vn 0.9847135 0 -0.17418154
vn 0.52045465 -0.85388935 0
vn 0.450581 0.8539906 -0.2601475
vn -0.36664996 0.8780178 0.3076569
vn 0.5122208 -0.85406035 -0.090613715
vn -0.47834834 -0.87817013 0
vn 0.9396937 0 -0.34201723
vn 0.39852107 0.8540198 -0.33441153
vn -0.30764467 0.8780321 0.36662573
vn -0.47146964 -0.87793016 0.08339713
vn -1 0 0
vn 0.4889474 -0.85397035 -0.17794697
vn 0.86602366 0 -0.50000304
vn 0.33440432 0.8540164 -0.39853442
vn -0.2392978 0.87803686 0.41447303
vn -0.9847025 1.06894966E-07 0.17424361
vn -0.47834834 0.87817013 0
vn -0.4714695 0.87793016 0.083397105
vn 0.7660278 0 -0.6428074
vn -0.44972897 -0.8780377 0.16368738
vn -0.9396962 0 0.34201038
vn -0.44972888 0.8780378 0.16368738
vn 0.450581 -0.8539906 -0.26014757
vn 0.26012412 0.8540145 -0.45054913
vn -0.16368356 0.87805635 0.4496941
vn -0.41443565 -0.8780567 0.23928972
vn -0.86602813 0 0.49999532
vn -0.41443557 0.8780567 0.23928967
vn 0.39852107 -0.8540198 -0.33441153
vn 0.64278775 1.1299165E-07 -0.7660443
vn 0.17792432 0.85403347 -0.48884544
vn -0.08309324 0.8780787 0.47124663
vn -0.36664996 -0.87801766 0.30765688
vn -0.7660274 0 0.6428079
vn -0.36664996 0.8780178 0.3076569
vn 0.33440435 -0.8540164 -0.39853448
vn 0.4999963 0 -0.8660276
vn 0.09033268 0.85403764 -0.51230824
vn -0 0.8780857 0.47850338
vn -0 0.85402113 -0.5202383
vn -0.30764467 -0.8780321 0.36662576
vn -0.64279276 0 0.7660402
vn -0.30764467 0.8780321 0.36662573
vn 0.26012415 -0.8540145 -0.4505493
vn 0.34202725 0 -0.93969
vn 0.17365123 0 -0.98480725
vn -0 0 -1
vn -0.23929782 -0.8780368 0.41447303
vn -0.5000059 0 0.86602205
vn -0.2392978 0.87803686 0.41447303
vn 0.17792435 -0.8540334 -0.4888455
vn 0.090332694 -0.85403764 -0.51230824
vn -0 -0.85402113 -0.52023834
vn -0.16368356 -0.87805635 0.4496941
vn -0.34202737 0 0.93969
vn -0.16368356 0.87805635 0.4496941
vn -0.083093256 -0.8780787 0.4712467
vn -0 -0.8780857 0.47850338
vn -0.17364225 0 0.98480874
vn -0.08309324 0.8780787 0.47124663
vn -0 1.0690044E-07 1
vn -0 0.8780857 0.47850338
vn 0.4714695 0.87793016 -0.083397105
vn -0.5204546 0.85388935 0
vn 0.47834834 0.87817013 0
vn -0.5122207 0.85406035 0.09061371
vn 0.44972888 0.8780378 -0.16368738
vn -1 0 0
vn -0.4889474 0.85397035 0.177947
vn 0.41443557 0.8780567 -0.23928967
vn -0.9847135 0 0.17418154
vn -0.52045465 -0.85388935 0
vn -0.450581 0.8539906 0.2601475
vn 0.36664996 0.8780178 -0.3076569
vn -0.5122208 -0.85406035 0.090613715
vn 0.47834834 -0.87817013 0
vn -0.9396937 0 0.34201723
vn -0.39852107 0.8540198 0.33441153
vn 0.30764467 0.8780321 -0.36662573
vn 0.47146964 -0.87793016 -0.08339713
vn 1 0 0
vn -0.4889474 -0.85397035 0.17794697
vn -0.86602366 0 0.50000304
vn -0.33440432 0.8540164 0.39853442
vn 0.2392978 0.87803686 -0.41447303
vn 0.9847025 1.06894966E-07 -0.17424361
vn 0.47834834 0.87817013 0
vn 0.4714695 0.87793016 -0.083397105
vn -0.7660278 0 0.6428074
vn 0.44972897 -0.8780377 -0.16368738
vn 0.9396962 0 -0.34201038
vn 0.44972888 0.8780378 -0.16368738
vn -0.450581 -0.8539906 0.26014757
vn -0.26012412 0.8540145 0.45054913
vn 0.16368356 0.87805635 -0.4496941
vn 0.41443565 -0.8780567 -0.23928972
vn 0.86602813 0 -0.49999532
vn 0.41443557 0.8780567 -0.23928967
vn -0.39852107 -0.8540198 0.33441153
vn -0.64278775 1.1299165E-07 0.7660443
vn -0.17792432 0.85403347 0.48884544
vn 0.08309324 0.8780787 -0.47124663
vn 0.36664996 -0.87801766 -0.30765688
vn 0.7660274 0 -0.6428079
vn 0.36664996 0.8780178 -0.3076569
vn -0.33440435 -0.8540164 0.39853448
vn -0.4999963 0 0.8660276
vn -0.09033268 0.85403764 0.51230824
vn -0 0.8780857 -0.47850338
vn -0 0.85402113 0.5202383
vn 0.30764467 -0.8780321 -0.36662576
vn 0.64279276 0 -0.7660402
vn 0.30764467 0.8780321 -0.36662573
vn -0.26012415 -0.8540145 0.4505493
vn -0.34202725 0 0.93969
vn -0.17365123 0 0.98480725
vn -0 0 1
vn 0.23929782 -0.8780368 -0.41447303
vn 0.5000059 0 -0.86602205
vn 0.2392978 0.87803686 -0.41447303
vn -0.17792435 -0.8540334 0.4888455
vn -0.090332694 -0.85403764 0.51230824
vn -0 -0.85402113 0.52023834
vn 0.16368356 -0.87805635 -0.4496941
vn 0.34202737 0 -0.93969
vn 0.16368356 0.87805635 -0.4496941
vn 0.083093256 -0.8780787 -0.4712467
vn -0 -0.8780857 -0.47850338
vn 0.17364225 0 -0.98480874
vn 0.08309324 0.8780787 -0.47124663
vn -0 1.06900444E-07 -1
vn -0 0.8780857 -0.47850338
vn -0.4714695 0.87793016 -0.083397105
vn -0.47834834 0.87817013 0
vn 0.5204546 0.85388935 0
vn 0.51222074 0.85406035 0.090613715
vn -0.44972888 0.8780378 -0.16368735
vn 1 0 0
vn 0.4889474 0.85397035 0.17794697
vn -0.41443557 0.8780567 -0.23928967
vn 0.9847135 0 0.17418154
vn 0.52045465 -0.85388935 0
vn 0.450581 0.8539906 0.2601475
vn -0.36664993 0.8780178 -0.3076569
vn 0.51222086 -0.85406035 0.09061373
vn -0.47834834 -0.87817013 0
vn 0.9396937 0 0.34201723
vn 0.39852107 0.8540198 0.33441153
vn -0.30764464 0.8780321 -0.36662573
vn -0.47146964 -0.87793016 -0.08339713
vn -1 0 0
vn 0.48894745 -0.8539703 0.177947
vn 0.86602366 0 0.50000304
vn 0.33440432 0.8540164 0.39853442
vn -0.2392978 0.87803686 -0.41447303
vn -0.9847025 1.06894966E-07 -0.17424361
vn -0.47834834 0.87817013 0
vn -0.4714695 0.87793016 -0.083397105
vn 0.7660278 0 0.6428074
vn -0.44972897 -0.8780377 -0.16368738
vn -0.9396962 0 -0.34201032
vn -0.44972888 0.8780378 -0.16368735
vn 0.450581 -0.8539906 0.26014754
vn 0.26012412 0.85401464 0.45054922
vn -0.16368356 0.87805635 -0.4496941
vn -0.41443565 -0.8780567 -0.23928969
vn -0.86602813 0 -0.49999532
vn -0.41443557 0.8780567 -0.23928967
vn 0.39852107 -0.8540198 0.33441153
vn 0.6427877 0 0.7660444
vn 0.17792434 0.85403347 0.48884544
vn -0.08309324 0.8780787 -0.47124663
vn -0.36664996 -0.87801766 -0.30765688
vn -0.7660274 0 -0.6428079
vn -0.36664993 0.8780178 -0.3076569
vn 0.33440432 -0.8540164 0.39853448
vn 0.4999963 0 0.8660276
vn 0.090332694 0.85403764 0.51230824
vn -0 0.8780857 -0.47850338
vn -0 0.85402113 0.5202383
vn -0.30764467 -0.8780321 -0.36662573
vn -0.64279276 0 -0.7660402
vn -0.30764464 0.8780321 -0.36662573
vn 0.2601242 -0.8540145 0.4505493
vn 0.34202725 0 0.93969
vn 0.17365123 0 0.98480725
vn -0 0 1
vn -0.23929779 -0.8780368 -0.41447303
vn -0.50000596 0 -0.86602193
vn -0.2392978 0.87803686 -0.41447303
vn 0.17792436 -0.8540334 0.4888455
vn 0.090332694 -0.85403764 0.51230824
vn -0 -0.85402113 0.52023834
vn -0.16368358 -0.87805635 -0.4496941
vn -0.34202737 0 -0.93969
vn -0.16368356 0.87805635 -0.4496941
vn -0.083093256 -0.8780787 -0.4712467
vn -0 -0.8780857 -0.47850338
vn -0.17364226 0 -0.98480874
vn -0.08309324 0.8780787 -0.47124663
vn -0 1.06900444E-07 -1
vn -0 0.8780857 -0.47850338
g S_wpn_misc_0040vfx_01_lod0_0
f 3/3/3 2/2/2 1/1/1
f 6/6/6 5/5/5 4/4/4
f 9/9/9 8/8/8 7/7/7
f 12/12/12 11/11/11 10/10/10
f 15/15/15 14/14/14 13/13/13
f 18/18/18 17/17/17 16/16/16
f 21/21/21 20/20/20 19/19/19
f 24/24/24 23/23/23 22/22/22
f 27/27/27 26/26/26 25/25/25
f 28/28/28 27/27/27 25/25/25
f 31/31/31 30/30/30 29/29/29
f 32/32/32 31/31/31 29/29/29
f 35/35/35 34/34/34 33/33/33
f 36/36/36 35/35/35 33/33/33
f 39/39/39 38/38/38 37/37/37
f 40/40/40 39/39/39 37/37/37
f 43/43/43 42/42/42 41/41/41
f 44/44/44 43/43/43 41/41/41
f 44/44/44 41/41/41 45/45/45
f 46/46/46 43/43/43 44/44/44
f 47/47/47 44/44/44 45/45/45
f 47/47/47 45/45/45 48/48/48
f 49/49/49 46/46/46 44/44/44
f 49/49/49 44/44/44 47/47/47
f 50/50/50 46/46/46 49/49/49
f 51/51/51 47/47/47 48/48/48
f 51/51/51 48/48/48 52/52/52
f 53/53/53 50/50/50 49/49/49
f 54/54/54 50/50/50 53/53/53
f 55/55/55 49/49/49 47/47/47
f 55/55/55 47/47/47 51/51/51
f 53/53/53 49/49/49 55/55/55
f 56/56/56 51/51/51 52/52/52
f 56/56/56 52/52/52 57/57/57
f 58/58/58 54/54/54 53/53/53
f 59/59/59 54/54/54 58/58/58
f 60/60/60 53/53/53 55/55/55
f 58/58/58 53/53/53 60/60/60
f 61/61/61 55/55/55 51/51/51
f 61/61/61 51/51/51 56/56/56
f 60/60/60 55/55/55 61/61/61
f 62/62/62 56/56/56 57/57/57
f 62/62/62 57/57/57 63/63/63
f 64/64/64 59/59/59 58/58/58
f 65/65/65 59/59/59 64/64/64
f 66/66/66 65/65/65 64/64/64
f 67/67/67 61/61/61 56/56/56
f 67/67/67 56/56/56 62/62/62
f 68/68/68 58/58/58 60/60/60
f 64/64/64 58/58/58 68/68/68
f 66/66/66 64/64/64 69/69/69
f 69/69/69 64/64/64 68/68/68
f 70/70/70 66/66/66 69/69/69
f 71/71/71 60/60/60 61/61/61
f 68/68/68 60/60/60 71/71/71
f 71/71/71 61/61/61 67/67/67
f 72/72/72 62/62/62 63/63/63
f 72/72/72 63/63/63 73/73/73
f 69/69/69 68/68/68 74/74/74
f 74/74/74 68/68/68 71/71/71
f 70/70/70 69/69/69 75/75/75
f 75/75/75 69/69/69 74/74/74
f 76/76/76 70/70/70 75/75/75
f 77/77/77 71/71/71 67/67/67
f 74/74/74 71/71/71 77/77/77
f 78/78/78 67/67/67 62/62/62
f 78/78/78 62/62/62 72/72/72
f 77/77/77 67/67/67 78/78/78
f 79/79/79 72/72/72 73/73/73
f 79/79/79 73/73/73 80/80/80
f 75/75/75 74/74/74 81/81/81
f 81/81/81 74/74/74 77/77/77
f 76/76/76 75/75/75 82/82/82
f 82/82/82 75/75/75 81/81/81
f 83/83/83 76/76/76 82/82/82
f 84/84/84 77/77/77 78/78/78
f 81/81/81 77/77/77 84/84/84
f 85/85/85 78/78/78 72/72/72
f 85/85/85 72/72/72 79/79/79
f 84/84/84 78/78/78 85/85/85
f 86/86/86 79/79/79 80/80/80
f 86/86/86 80/80/80 87/87/87
f 88/88/88 86/86/86 87/87/87
f 82/82/82 81/81/81 89/89/89
f 89/89/89 81/81/81 84/84/84
f 83/83/83 82/82/82 90/90/90
f 90/90/90 82/82/82 89/89/89
f 91/91/91 83/83/83 90/90/90
f 92/92/92 84/84/84 85/85/85
f 89/89/89 84/84/84 92/92/92
f 93/93/93 85/85/85 79/79/79
f 93/93/93 79/79/79 86/86/86
f 92/92/92 85/85/85 93/93/93
f 94/94/94 86/86/86 88/88/88
f 94/94/94 93/93/93 86/86/86
f 95/95/95 94/94/94 88/88/88
f 90/90/90 89/89/89 96/96/96
f 96/96/96 89/89/89 92/92/92
f 91/91/91 90/90/90 97/97/97
f 97/97/97 90/90/90 96/96/96
f 98/98/98 91/91/91 97/97/97
f 99/99/99 92/92/92 93/93/93
f 99/99/99 93/93/93 94/94/94
f 96/96/96 92/92/92 99/99/99
f 100/100/100 94/94/94 95/95/95
f 100/100/100 99/99/99 94/94/94
f 101/101/101 100/100/100 95/95/95
f 102/102/102 96/96/96 99/99/99
f 97/97/97 96/96/96 102/102/102
f 102/102/102 99/99/99 100/100/100
f 98/98/98 97/97/97 103/103/103
f 103/103/103 97/97/97 102/102/102
f 104/104/104 98/98/98 103/103/103
f 105/105/105 100/100/100 101/101/101
f 105/105/105 102/102/102 100/100/100
f 103/103/103 102/102/102 105/105/105
f 106/106/106 105/105/105 101/101/101
f 104/104/104 103/103/103 107/107/107
f 107/107/107 103/103/103 105/105/105
f 107/107/107 105/105/105 106/106/106
f 108/108/108 104/104/104 107/107/107
f 109/109/109 107/107/107 106/106/106
f 108/108/108 107/107/107 109/109/109
f 110/110/110 108/108/108 109/109/109
f 113/113/113 112/112/112 111/111/111
f 112/112/112 114/114/114 111/111/111
f 111/111/111 114/114/114 115/115/115
f 112/112/112 116/116/116 114/114/114
f 114/114/114 117/117/117 115/115/115
f 115/115/115 117/117/117 118/118/118
f 116/116/116 119/119/119 114/114/114
f 114/114/114 119/119/119 117/117/117
f 116/116/116 120/120/120 119/119/119
f 117/117/117 121/121/121 118/118/118
f 118/118/118 121/121/121 122/122/122
f 120/120/120 123/123/123 119/119/119
f 120/120/120 124/124/124 123/123/123
f 119/119/119 125/125/125 117/117/117
f 117/117/117 125/125/125 121/121/121
f 119/119/119 123/123/123 125/125/125
f 121/121/121 126/126/126 122/122/122
f 122/122/122 126/126/126 127/127/127
f 124/124/124 128/128/128 123/123/123
f 124/124/124 129/129/129 128/128/128
f 123/123/123 130/130/130 125/125/125
f 123/123/123 128/128/128 130/130/130
f 125/125/125 131/131/131 121/121/121
f 121/121/121 131/131/131 126/126/126
f 125/125/125 130/130/130 131/131/131
f 126/126/126 132/132/132 127/127/127
f 127/127/127 132/132/132 133/133/133
f 129/129/129 134/134/134 128/128/128
f 129/129/129 135/135/135 134/134/134
f 135/135/135 136/136/136 134/134/134
f 131/131/131 137/137/137 126/126/126
f 126/126/126 137/137/137 132/132/132
f 128/128/128 138/138/138 130/130/130
f 128/128/128 134/134/134 138/138/138
f 134/134/134 136/136/136 139/139/139
f 134/134/134 139/139/139 138/138/138
f 136/136/136 140/140/140 139/139/139
f 130/130/130 141/141/141 131/131/131
f 130/130/130 138/138/138 141/141/141
f 131/131/131 141/141/141 137/137/137
f 132/132/132 142/142/142 133/133/133
f 133/133/133 142/142/142 143/143/143
f 138/138/138 139/139/139 144/144/144
f 138/138/138 144/144/144 141/141/141
f 139/139/139 140/140/140 145/145/145
f 139/139/139 145/145/145 144/144/144
f 140/140/140 146/146/146 145/145/145
f 141/141/141 147/147/147 137/137/137
f 141/141/141 144/144/144 147/147/147
f 137/137/137 148/148/148 132/132/132
f 132/132/132 148/148/148 142/142/142
f 137/137/137 147/147/147 148/148/148
f 142/142/142 149/149/149 143/143/143
f 143/143/143 149/149/149 150/150/150
f 144/144/144 145/145/145 151/151/151
f 144/144/144 151/151/151 147/147/147
f 145/145/145 146/146/146 152/152/152
f 145/145/145 152/152/152 151/151/151
f 146/146/146 153/153/153 152/152/152
f 147/147/147 154/154/154 148/148/148
f 147/147/147 151/151/151 154/154/154
f 148/148/148 155/155/155 142/142/142
f 142/142/142 155/155/155 149/149/149
f 148/148/148 154/154/154 155/155/155
f 149/149/149 156/156/156 150/150/150
f 150/150/150 156/156/156 157/157/157
f 156/156/156 158/158/158 157/157/157
f 151/151/151 152/152/152 159/159/159
f 151/151/151 159/159/159 154/154/154
f 152/152/152 153/153/153 160/160/160
f 152/152/152 160/160/160 159/159/159
f 153/153/153 161/161/161 160/160/160
f 154/154/154 162/162/162 155/155/155
f 154/154/154 159/159/159 162/162/162
f 155/155/155 163/163/163 149/149/149
f 149/149/149 163/163/163 156/156/156
f 155/155/155 162/162/162 163/163/163
f 156/156/156 164/164/164 158/158/158
f 163/163/163 164/164/164 156/156/156
f 164/164/164 165/165/165 158/158/158
f 159/159/159 160/160/160 166/166/166
f 159/159/159 166/166/166 162/162/162
f 160/160/160 161/161/161 167/167/167
f 160/160/160 167/167/167 166/166/166
f 161/161/161 168/168/168 167/167/167
f 162/162/162 169/169/169 163/163/163
f 163/163/163 169/169/169 164/164/164
f 162/162/162 166/166/166 169/169/169
f 164/164/164 170/170/170 165/165/165
f 169/169/169 170/170/170 164/164/164
f 170/170/170 171/171/171 165/165/165
f 166/166/166 172/172/172 169/169/169
f 166/166/166 167/167/167 172/172/172
f 169/169/169 172/172/172 170/170/170
f 167/167/167 168/168/168 173/173/173
f 167/167/167 173/173/173 172/172/172
f 168/168/168 174/174/174 173/173/173
f 170/170/170 175/175/175 171/171/171
f 172/172/172 175/175/175 170/170/170
f 172/172/172 173/173/173 175/175/175
f 175/175/175 176/176/176 171/171/171
f 173/173/173 174/174/174 177/177/177
f 173/173/173 177/177/177 175/175/175
f 175/175/175 177/177/177 176/176/176
f 174/174/174 178/178/178 177/177/177
f 177/177/177 179/179/179 176/176/176
f 177/177/177 178/178/178 179/179/179
f 178/178/178 180/180/180 179/179/179
f 183/183/183 182/182/182 181/181/181
f 182/182/182 184/184/184 181/181/181
f 181/181/181 184/184/184 185/185/185
f 182/182/182 186/186/186 184/184/184
f 184/184/184 187/187/187 185/185/185
f 185/185/185 187/187/187 188/188/188
f 186/186/186 189/189/189 184/184/184
f 184/184/184 189/189/189 187/187/187
f 186/186/186 190/190/190 189/189/189
f 187/187/187 191/191/191 188/188/188
f 188/188/188 191/191/191 192/192/192
f 190/190/190 193/193/193 189/189/189
f 190/190/190 194/194/194 193/193/193
f 189/189/189 195/195/195 187/187/187
f 187/187/187 195/195/195 191/191/191
f 189/189/189 193/193/193 195/195/195
f 191/191/191 196/196/196 192/192/192
f 192/192/192 196/196/196 197/197/197
f 194/194/194 198/198/198 193/193/193
f 194/194/194 199/199/199 198/198/198
f 193/193/193 200/200/200 195/195/195
f 193/193/193 198/198/198 200/200/200
f 195/195/195 201/201/201 191/191/191
f 191/191/191 201/201/201 196/196/196
f 195/195/195 200/200/200 201/201/201
f 196/196/196 202/202/202 197/197/197
f 197/197/197 202/202/202 203/203/203
f 199/199/199 204/204/204 198/198/198
f 199/199/199 205/205/205 204/204/204
f 205/205/205 206/206/206 204/204/204
f 201/201/201 207/207/207 196/196/196
f 196/196/196 207/207/207 202/202/202
f 198/198/198 208/208/208 200/200/200
f 198/198/198 204/204/204 208/208/208
f 204/204/204 206/206/206 209/209/209
f 204/204/204 209/209/209 208/208/208
f 206/206/206 210/210/210 209/209/209
f 200/200/200 211/211/211 201/201/201
f 200/200/200 208/208/208 211/211/211
f 201/201/201 211/211/211 207/207/207
f 202/202/202 212/212/212 203/203/203
f 203/203/203 212/212/212 213/213/213
f 208/208/208 209/209/209 214/214/214
f 208/208/208 214/214/214 211/211/211
f 209/209/209 210/210/210 215/215/215
f 209/209/209 215/215/215 214/214/214
f 210/210/210 216/216/216 215/215/215
f 211/211/211 217/217/217 207/207/207
f 211/211/211 214/214/214 217/217/217
f 207/207/207 218/218/218 202/202/202
f 202/202/202 218/218/218 212/212/212
f 207/207/207 217/217/217 218/218/218
f 212/212/212 219/219/219 213/213/213
f 213/213/213 219/219/219 220/220/220
f 214/214/214 215/215/215 221/221/221
f 214/214/214 221/221/221 217/217/217
f 215/215/215 216/216/216 222/222/222
f 215/215/215 222/222/222 221/221/221
f 216/216/216 223/223/223 222/222/222
f 217/217/217 224/224/224 218/218/218
f 217/217/217 221/221/221 224/224/224
f 218/218/218 225/225/225 212/212/212
f 212/212/212 225/225/225 219/219/219
f 218/218/218 224/224/224 225/225/225
f 219/219/219 226/226/226 220/220/220
f 220/220/220 226/226/226 227/227/227
f 226/226/226 228/228/228 227/227/227
f 221/221/221 222/222/222 229/229/229
f 221/221/221 229/229/229 224/224/224
f 222/222/222 223/223/223 230/230/230
f 222/222/222 230/230/230 229/229/229
f 223/223/223 231/231/231 230/230/230
f 224/224/224 232/232/232 225/225/225
f 224/224/224 229/229/229 232/232/232
f 225/225/225 233/233/233 219/219/219
f 219/219/219 233/233/233 226/226/226
f 225/225/225 232/232/232 233/233/233
f 226/226/226 234/234/234 228/228/228
f 233/233/233 234/234/234 226/226/226
f 234/234/234 235/235/235 228/228/228
f 229/229/229 230/230/230 236/236/236
f 229/229/229 236/236/236 232/232/232
f 230/230/230 231/231/231 237/237/237
f 230/230/230 237/237/237 236/236/236
f 231/231/231 238/238/238 237/237/237
f 232/232/232 239/239/239 233/233/233
f 233/233/233 239/239/239 234/234/234
f 232/232/232 236/236/236 239/239/239
f 234/234/234 240/240/240 235/235/235
f 239/239/239 240/240/240 234/234/234
f 240/240/240 241/241/241 235/235/235
f 236/236/236 242/242/242 239/239/239
f 236/236/236 237/237/237 242/242/242
f 239/239/239 242/242/242 240/240/240
f 237/237/237 238/238/238 243/243/243
f 237/237/237 243/243/243 242/242/242
f 238/238/238 244/244/244 243/243/243
f 240/240/240 245/245/245 241/241/241
f 242/242/242 245/245/245 240/240/240
f 242/242/242 243/243/243 245/245/245
f 245/245/245 246/246/246 241/241/241
f 243/243/243 244/244/244 247/247/247
f 243/243/243 247/247/247 245/245/245
f 245/245/245 247/247/247 246/246/246
f 244/244/244 248/248/248 247/247/247
f 247/247/247 249/249/249 246/246/246
f 247/247/247 248/248/248 249/249/249
f 248/248/248 250/250/250 249/249/249
f 253/253/253 252/252/252 251/251/251
f 254/254/254 253/253/253 251/251/251
f 254/254/254 251/251/251 255/255/255
f 256/256/256 253/253/253 254/254/254
f 257/257/257 254/254/254 255/255/255
f 257/257/257 255/255/255 258/258/258
f 259/259/259 256/256/256 254/254/254
f 259/259/259 254/254/254 257/257/257
f 260/260/260 256/256/256 259/259/259
f 261/261/261 257/257/257 258/258/258
f 261/261/261 258/258/258 262/262/262
f 263/263/263 260/260/260 259/259/259
f 264/264/264 260/260/260 263/263/263
f 265/265/265 259/259/259 257/257/257
f 265/265/265 257/257/257 261/261/261
f 263/263/263 259/259/259 265/265/265
f 266/266/266 261/261/261 262/262/262
f 266/266/266 262/262/262 267/267/267
f 268/268/268 264/264/264 263/263/263
f 269/269/269 264/264/264 268/268/268
f 270/270/270 263/263/263 265/265/265
f 268/268/268 263/263/263 270/270/270
f 271/271/271 265/265/265 261/261/261
f 271/271/271 261/261/261 266/266/266
f 270/270/270 265/265/265 271/271/271
f 272/272/272 266/266/266 267/267/267
f 272/272/272 267/267/267 273/273/273
f 274/274/274 269/269/269 268/268/268
f 275/275/275 269/269/269 274/274/274
f 276/276/276 275/275/275 274/274/274
f 277/277/277 271/271/271 266/266/266
f 277/277/277 266/266/266 272/272/272
f 278/278/278 268/268/268 270/270/270
f 274/274/274 268/268/268 278/278/278
f 276/276/276 274/274/274 279/279/279
f 279/279/279 274/274/274 278/278/278
f 280/280/280 276/276/276 279/279/279
f 281/281/281 270/270/270 271/271/271
f 278/278/278 270/270/270 281/281/281
f 281/281/281 271/271/271 277/277/277
f 282/282/282 272/272/272 273/273/273
f 282/282/282 273/273/273 283/283/283
f 279/279/279 278/278/278 284/284/284
f 284/284/284 278/278/278 281/281/281
f 280/280/280 279/279/279 285/285/285
f 285/285/285 279/279/279 284/284/284
f 286/286/286 280/280/280 285/285/285
f 287/287/287 281/281/281 277/277/277
f 284/284/284 281/281/281 287/287/287
f 288/288/288 277/277/277 272/272/272
f 288/288/288 272/272/272 282/282/282
f 287/287/287 277/277/277 288/288/288
f 289/289/289 282/282/282 283/283/283
f 289/289/289 283/283/283 290/290/290
f 285/285/285 284/284/284 291/291/291
f 291/291/291 284/284/284 287/287/287
f 286/286/286 285/285/285 292/292/292
f 292/292/292 285/285/285 291/291/291
f 293/293/293 286/286/286 292/292/292
f 294/294/294 287/287/287 288/288/288
f 291/291/291 287/287/287 294/294/294
f 295/295/295 288/288/288 282/282/282
f 295/295/295 282/282/282 289/289/289
f 294/294/294 288/288/288 295/295/295
f 296/296/296 289/289/289 290/290/290
f 296/296/296 290/290/290 297/297/297
f 298/298/298 296/296/296 297/297/297
f 292/292/292 291/291/291 299/299/299
f 299/299/299 291/291/291 294/294/294
f 293/293/293 292/292/292 300/300/300
f 300/300/300 292/292/292 299/299/299
f 301/301/301 293/293/293 300/300/300
f 302/302/302 294/294/294 295/295/295
f 299/299/299 294/294/294 302/302/302
f 303/303/303 295/295/295 289/289/289
f 303/303/303 289/289/289 296/296/296
f 302/302/302 295/295/295 303/303/303
f 304/304/304 296/296/296 298/298/298
f 304/304/304 303/303/303 296/296/296
f 305/305/305 304/304/304 298/298/298
f 300/300/300 299/299/299 306/306/306
f 306/306/306 299/299/299 302/302/302
f 301/301/301 300/300/300 307/307/307
f 307/307/307 300/300/300 306/306/306
f 308/308/308 301/301/301 307/307/307
f 309/309/309 302/302/302 303/303/303
f 309/309/309 303/303/303 304/304/304
f 306/306/306 302/302/302 309/309/309
f 310/310/310 304/304/304 305/305/305
f 310/310/310 309/309/309 304/304/304
f 311/311/311 310/310/310 305/305/305
f 312/312/312 306/306/306 309/309/309
f 307/307/307 306/306/306 312/312/312
f 312/312/312 309/309/309 310/310/310
f 308/308/308 307/307/307 313/313/313
f 313/313/313 307/307/307 312/312/312
f 314/314/314 308/308/308 313/313/313
f 315/315/315 310/310/310 311/311/311
f 315/315/315 312/312/312 310/310/310
f 313/313/313 312/312/312 315/315/315
f 316/316/316 315/315/315 311/311/311
f 314/314/314 313/313/313 317/317/317
f 317/317/317 313/313/313 315/315/315
f 317/317/317 315/315/315 316/316/316
f 318/318/318 314/314/314 317/317/317
f 319/319/319 317/317/317 316/316/316
f 318/318/318 317/317/317 319/319/319
f 320/320/320 318/318/318 319/319/319
