g S_wpn_misc_0036_04_lod0
v -0.04246319 -0.004068897 0.011937122
v -0.034414027 -0.004069073 -0.013332043
v -0.034414027 0.0040418934 -0.0133319665
v -0.04246321 0.0040416545 0.011937275
v -0.04962741 -0.0040689255 0.037206363
v -0.04962741 0.004041626 0.037206437
v -0.053172655 -0.004068849 0.062475603
v -0.05317258 0.0040415972 0.06247568
v -0.054655723 -0.004068983 0.08774492
v -0.054655716 0.004041569 0.08774492
v -0.055929903 -0.0040690163 0.11301409
v -0.0559299 0.0040415404 0.11301409
v -0.057476804 -0.0040689926 0.13828333
v -0.057476796 0.004041507 0.13828333
v -0.0584896 -0.004069021 0.1635525
v -0.0584896 0.004041478 0.16355252
v -0.057052117 0.0040411786 0.42378592
v -0.057052117 -0.004069373 0.42378592
v -0.056957014 -0.004069388 0.4372597
v -0.05695701 0.0040411637 0.4372597
v -0.054976385 0.0040406324 0.7178593
v -0.054976385 -0.004069919 0.7178593
v -0.05487179 -0.0040697227 0.7326775
v -0.05487179 0.0040406147 0.7326775
v -0.052441373 0.004040333 1.0770006
v -0.052441373 -0.004069926 1.0770006
v -0.052350402 -0.004069941 1.0898885
v -0.052350402 0.004040739 1.0898885
v -0.05069158 0.0040407027 1.3248969
v -0.05069158 -0.0040710126 1.3248968
v -0.050613888 -0.0040706918 1.3359033
v -0.050613888 0.0040400196 1.3359034
v -0.048769012 -0.004071346 1.5972722
v -0.048769012 0.0040404145 1.5972722
v -0.048722237 0.0040404242 1.6038983
v -0.048722237 -0.0040713623 1.6038983
v -0.03967463 5.126676E-06 0.011917515
v -0.03162546 1.9266442E-06 -0.01335165
v -0.03720259 1.9266529E-06 -0.013312358
v -0.045251753 5.1266816E-06 0.011956806
v -0.046810523 4.5119946E-06 0.037186604
v -0.05241597 4.5120064E-06 0.037226047
v -0.05037071 3.897326E-06 0.06245592
v -0.05596655 3.8973344E-06 0.062495362
v -0.051867146 3.2826545E-06 0.08772516
v -0.057444286 3.2826597E-06 0.087764606
v -0.05314133 2.6679807E-06 0.1129944
v -0.058718465 2.6679866E-06 0.11303377
v -0.054688234 2.0533098E-06 0.13826364
v -0.06026537 2.0533146E-06 0.13830301
v -0.055701032 1.4386346E-06 0.16353288
v -0.06127816 1.4386369E-06 0.16357225
v -0.05984082 -4.89105E-06 0.42378592
v -0.054263413 -4.8920147E-06 0.42378592
v -0.054168314 -5.2197634E-06 0.4372597
v -0.05974572 -5.2187993E-06 0.4372597
v -0.057764955 -1.2044847E-05 0.7178789
v -0.052187823 -1.20448585E-05 0.71783966
v -0.052083228 -1.240531E-05 0.73265785
v -0.057660352 -1.2405302E-05 0.7326972
v -0.055229936 -2.0780953E-05 1.0770204
v -0.049652804 -2.078096E-05 1.0769811
v -0.049561832 -2.1094458E-05 1.0898689
v -0.055138964 -2.109445E-05 1.0899082
v -0.05348014 -2.6811016E-05 1.3249165
v -0.047903016 -2.6811025E-05 1.3248771
v -0.047825325 -2.7078757E-05 1.3358836
v -0.05340245 -2.707875E-05 1.335923
v -0.0459803 -3.343703E-05 1.5972722
v -0.051557705 -3.3436067E-05 1.5972722
v -0.0515108 -3.3597724E-05 1.6039178
v -0.04593367 -3.3597727E-05 1.6038785
vt 0.99958867 0.016492128
vt 0.99958867 1.3411045E-06
vt 0.0021790266 1.8179417E-06
vt 0.0021800995 0.016492873
vt 0.99958915 0.032089323
vt 0.0021805763 0.0320898
vt 0.99955475 0.047687095
vt 0.0022285809 0.047687653
vt 0.9995901 0.063283175
vt 0.00218153 0.06328392
vt 0.9995906 0.0788801
vt 0.0021820068 0.07888085
vt 0.9995908 0.094477296
vt 0.0021824837 0.09447777
vt 0.9995913 0.11007422
vt 0.0021829605 0.11007497
vt 0.0021878711 0.27069968
vt 0.99959636 0.2706991
vt 0.9995967 0.2790156
vt 0.0021881254 0.2790162
vt 0.0022425135 0.45221168
vt 0.9995656 0.4522111
vt 0.99957305 0.4613574
vt 0.0022295823 0.461358
vt 0.0022640326 0.6738859
vt 0.99956375 0.6738853
vt 0.9995437 0.6818402
vt 0.0022753212 0.68184066
vt 0.002186498 0.82689583
vt 0.99958426 0.8268951
vt 0.99956506 0.8336686
vt 0.002214032 0.83366925
vt 0.9996191 0.9958856
vt 0.0022086087 0.99588615
vt 0.0022084713 0.99999857
vt 0.9996205 0.9999981
vt 0.9995925 0.01648897
vt 0.9995921 -1.8179417E-06
vt 0.0021835566 -1.3411045E-06
vt 0.0021839142 0.016489446
vt 0.99959284 0.032086134
vt 0.0021842718 0.03208664
vt 0.8571686 0.04767991
vt -0.1324797 0.04768064
vt 0.99959356 0.06328049
vt 0.002184987 0.063281
vt 0.9995939 0.07887742
vt 0.0021853447 0.078878164
vt 0.9995943 0.09447461
vt 0.0021857023 0.09447509
vt 0.9995946 0.11007178
vt 0.00218606 0.110072285
vt 0.0021897426 0.27068597
vt 0.99959826 0.2707098
vt 0.9995985 0.27902636
vt 0.0021899333 0.27900252
vt 0.0022936831 0.4522113
vt 0.99950224 0.45221087
vt 0.9995222 0.4613572
vt 0.0022743044 0.4613577
vt 0.0022988871 0.673887
vt 0.99950707 0.6738865
vt 0.9995024 0.6818413
vt 0.0023041915 0.68184185
vt 0.002362437 0.82689786
vt 0.99945134 0.8268973
vt 0.9994913 0.83367074
vt 0.0023232196 0.83367133
vt 0.99961185 0.99590105
vt 0.0022093405 0.99587727
vt 0.0022064447 1.0000019
vt 0.9996149 1.0000012
vn -1 0 0
vn -1 0 0
vn -1 0 0
vn -1 0 0
vn -1 0 0
vn -1 0 0
vn -1 0 0
vn -1 0 0
vn -1 0 0
vn -1 0 0
vn -1 0 0
vn -1 0 0
vn -1 0 0
vn -1 0 0
vn -1 0 0
vn -1 0 0
vn -0.9999844 0 0.0055992645
vn -0.9999844 0 0.005599265
vn -0.9999751 2.9363045E-07 0.0070583685
vn -0.9999751 2.9363042E-07 0.0070583685
vn -1 0 0
vn -1 0 0
vn -1 0 0
vn -1 0 0
vn -1 0 0
vn -1 0 0
vn -1 0 0
vn -1 0 0
vn -1 0 0
vn -1 0 0
vn -1 0 0
vn -1 0 0
vn -0.9999751 0 0.0070583504
vn -0.9999751 0 0.0070583504
vn -1 0 0
vn -1 0 0
vn -0 -1 0
vn -0 -1 0
vn -0 -1 0
vn -0 -1 0
vn -0 -1 0
vn -0 -1 0
vn -0 -1 0
vn -0 -1 0
vn -0 -1 0
vn -0 -1 0
vn -0 -1 0
vn -0 -1 0
vn -0 -1 0
vn -0 -1 0
vn -0 -1 0
vn -0 -1 0
vn -1.7252934E-07 -1 -2.4324016E-05
vn -1.7252962E-07 -1 -2.4324017E-05
vn -1.7302746E-07 -1 -2.4323737E-05
vn -1.7302735E-07 -1 -2.4323737E-05
vn -0 -1 0
vn -0 -1 0
vn -0 -1 0
vn -0 -1 0
vn -0 -1 0
vn -0 -1 0
vn -0 -1 0
vn -0 -1 0
vn -0 -1 0
vn -0 -1 0
vn -0 -1 0
vn -0 -1 0
vn -1.7274793E-07 -1 -2.4323752E-05
vn -1.7274797E-07 -1 -2.4323754E-05
vn -0 -1 0
vn -0 -1 0
g S_wpn_misc_0036_04_lod0_0
f 3/3/3 2/2/2 1/1/1
f 4/4/4 3/3/3 1/1/1
f 4/4/4 1/1/1 5/5/5
f 6/6/6 4/4/4 5/5/5
f 6/6/6 5/5/5 7/7/7
f 8/8/8 6/6/6 7/7/7
f 8/8/8 7/7/7 9/9/9
f 10/10/10 8/8/8 9/9/9
f 10/10/10 9/9/9 11/11/11
f 12/12/12 10/10/10 11/11/11
f 12/12/12 11/11/11 13/13/13
f 14/14/14 12/12/12 13/13/13
f 14/14/14 13/13/13 15/15/15
f 16/16/16 14/14/14 15/15/15
f 16/16/16 15/15/15 17/17/17
f 15/15/15 18/18/18 17/17/17
f 17/17/17 18/18/18 19/19/19
f 20/20/20 17/17/17 19/19/19
f 20/20/20 19/19/19 21/21/21
f 19/19/19 22/22/22 21/21/21
f 21/21/21 22/22/22 23/23/23
f 24/24/24 21/21/21 23/23/23
f 24/24/24 23/23/23 25/25/25
f 23/23/23 26/26/26 25/25/25
f 25/25/25 26/26/26 27/27/27
f 28/28/28 25/25/25 27/27/27
f 28/28/28 27/27/27 29/29/29
f 27/27/27 30/30/30 29/29/29
f 29/29/29 30/30/30 31/31/31
f 32/32/32 29/29/29 31/31/31
f 32/32/32 31/31/31 33/33/33
f 34/34/34 32/32/32 33/33/33
f 34/34/34 33/33/33 35/35/35
f 33/33/33 36/36/36 35/35/35
f 39/39/39 38/38/38 37/37/37
f 40/40/40 39/39/39 37/37/37
f 40/40/40 37/37/37 41/41/41
f 42/42/42 40/40/40 41/41/41
f 42/42/42 41/41/41 43/43/43
f 44/44/44 42/42/42 43/43/43
f 44/44/44 43/43/43 45/45/45
f 46/46/46 44/44/44 45/45/45
f 46/46/46 45/45/45 47/47/47
f 48/48/48 46/46/46 47/47/47
f 48/48/48 47/47/47 49/49/49
f 50/50/50 48/48/48 49/49/49
f 50/50/50 49/49/49 51/51/51
f 52/52/52 50/50/50 51/51/51
f 52/52/52 51/51/51 53/53/53
f 51/51/51 54/54/54 53/53/53
f 53/53/53 54/54/54 55/55/55
f 56/56/56 53/53/53 55/55/55
f 56/56/56 55/55/55 57/57/57
f 55/55/55 58/58/58 57/57/57
f 57/57/57 58/58/58 59/59/59
f 60/60/60 57/57/57 59/59/59
f 60/60/60 59/59/59 61/61/61
f 59/59/59 62/62/62 61/61/61
f 61/61/61 62/62/62 63/63/63
f 64/64/64 61/61/61 63/63/63
f 64/64/64 63/63/63 65/65/65
f 63/63/63 66/66/66 65/65/65
f 65/65/65 66/66/66 67/67/67
f 68/68/68 65/65/65 67/67/67
f 68/68/68 67/67/67 69/69/69
f 70/70/70 68/68/68 69/69/69
f 70/70/70 69/69/69 71/71/71
f 69/69/69 72/72/72 71/71/71
