g S_wpn_misc_0022_06_lod0
v 0.2122832 -0.28725377 0.31810737
v 0.044456847 -0.2917657 0.32187012
v 0.046612605 -0.29162952 0.3863821
v 0.2151928 -0.2870555 0.384893
v 0.076540075 -0.27509195 0.44690993
v 0.03882963 -0.27509192 0.4637593
v 0.07494616 -0.27509195 0.48351607
v 0.11265663 -0.27509195 0.46666676
v -0.2122832 -0.28725377 0.31810737
v -0.2151928 -0.2870555 0.384893
v -0.046612605 -0.29162952 0.3863821
v -0.044456847 -0.2917657 0.32187012
v -0.076540075 -0.27509195 0.44690993
v -0.11265663 -0.27509195 0.46666676
v -0.07494616 -0.27509195 0.48351607
v -0.03882963 -0.27509192 0.4637593
vt 0.6845757 0.5089698
vt 0.50742996 0.50896996
vt 0.5074301 0.5839592
vt 0.6845758 0.58395904
vt 0.83645 0.7044169
vt 0.7722802 0.70441693
vt 0.81268907 0.75428516
vt 0.87685853 0.7542851
vt 0.6845757 0.5089698
vt 0.6845758 0.58395904
vt 0.5074301 0.5839592
vt 0.50742996 0.50896996
vt 0.83645 0.7044169
vt 0.87685853 0.7542851
vt 0.81268907 0.75428516
vt 0.7722802 0.70441693
vn 0.027022447 -0.99963367 0.0015037098
vn 0.027022447 -0.99963367 0.0015037098
vn 0.027022447 -0.99963367 0.0015037099
vn 0.027022447 -0.99963367 0.0015037098
vn -5.1582305E-07 -1 0
vn -5.158231E-07 -1 0
vn -5.1582305E-07 -1 0
vn -5.158231E-07 -1 0
vn -0.027022447 -0.99963367 0.0015037087
vn -0.027022447 -0.99963367 0.0015037088
vn -0.02702245 -0.99963367 0.0015037088
vn -0.027022447 -0.99963367 0.0015037087
vn 5.1582305E-07 -1 0
vn 5.158231E-07 -1 0
vn 5.1582305E-07 -1 0
vn 5.158231E-07 -1 0
g S_wpn_misc_0022_06_lod0_0
f 3/3/3 2/2/2 1/1/1
f 4/4/4 3/3/3 1/1/1
f 7/7/7 6/6/6 5/5/5
f 8/8/8 7/7/7 5/5/5
f 11/11/11 10/10/10 9/9/9
f 12/12/12 11/11/11 9/9/9
f 15/15/15 14/14/14 13/13/13
f 16/16/16 15/15/15 13/13/13
