g S_wpn_misc_0038_01_lod0
v 0.050154693 6.425389E-09 0.12720597
v 0.047700148 0.015498638 0.12720597
v 0.047700107 -0.015498625 0.12720597
v 0.040058937 -0.02968451 0.127896
v 0.040058937 0.029684504 0.127896
v 0.035659544 -0.042459946 0.13464811
v 0.035659544 0.042460047 0.13464811
v 0.034153417 -0.049914636 0.14956932
v 0.034153417 0.04991472 0.14956932
v 0.040875424 -0.052483406 0.16799526
v 0.040875424 0.05248351 0.16799526
v 0.05021632 -0.049914636 0.18160772
v 0.05021632 0.04991472 0.18160772
v 0.05849422 -0.042459946 0.19367139
v 0.05849422 0.042460047 0.19367139
v 0.06506381 -0.03084901 0.20324516
v 0.06506381 0.030848991 0.20324516
v 0.06928177 -0.01621827 0.20939188
v 0.06928177 0.016218282 0.20939188
v 0.070735246 6.425389E-09 0.21150994
v 0.047700107 -0.015498625 0.12720597
v 0.048800927 6.425389E-09 0.12512597
v 0.050154693 6.425389E-09 0.12720597
v 0.04641258 -0.015080273 0.12512597
v 0.048800927 -1.3480123E-08 0.006103614
v 0.040058937 -0.02968451 0.127896
v 0.04641258 -0.015080273 0.006103629
v 0.039480805 -0.028684434 0.12512593
v 0.029480312 -0.04057597 0.12950604
v 0.03948077 -0.028684502 0.006103629
v 0.02868453 -0.039480727 0.12512599
v 0.015498681 -0.047699913 0.12950604
v 0.02868453 -0.039480727 0.006103654
v 0.015080267 -0.046412364 0.12512597
v 9.579856E-09 -0.050154693 0.12950604
v 0.015080308 -0.046412364 0.006103654
v 9.579856E-09 -0.048800886 0.12512597
v -0.015498623 -0.047699895 0.12950604
v -3.0231188E-08 -0.048800886 0.0061036837
v -0.015080248 -0.046412364 0.12512593
v -0.029480053 -0.04057597 0.12950604
v -0.01508021 -0.046412364 0.0061037033
v -0.028684353 -0.039480727 0.12512597
v -0.04057599 -0.029480219 0.12950604
v -0.028684432 -0.039480712 0.0061036632
v -0.039480742 -0.028684458 0.12512597
v -0.047699846 -0.015498668 0.12950604
v -0.039480705 -0.028684482 0.0061036837
v -0.046412323 -0.015080334 0.12512597
v -0.05015464 6.425389E-09 0.12950604
v -0.046412364 -0.0150803095 0.0061036786
v -0.04880082 6.425389E-09 0.12512597
v -0.04880082 2.6330902E-08 0.0061036837
v -0.047699846 0.015498666 0.12950604
v -0.04880082 6.425389E-09 0.12512597
v -0.05015464 6.425389E-09 0.12950604
v -0.046412323 0.015080342 0.12512597
v -0.04880082 2.6330902E-08 0.0061036837
v -0.04057599 0.02948021 0.12950604
v -0.046412323 0.015080283 0.0061037033
v -0.039480705 0.028684488 0.12512597
v -0.029480053 0.040576056 0.129506
v -0.039480705 0.028684454 0.0061036786
v -0.02868439 0.039480794 0.12512597
v -0.015498623 0.047699966 0.12950604
v -0.028684353 0.03948082 0.006103614
v -0.01508021 0.04641246 0.12512597
v 9.579856E-09 0.05015477 0.12950604
v -0.015080248 0.04641244 0.0061036786
v 9.579856E-09 0.048800968 0.12512599
v 0.015498681 0.04769998 0.12950604
v 9.579856E-09 0.048800964 0.0061036632
v 0.015080308 0.04641245 0.12512597
v 0.029480312 0.040576056 0.12950604
v 0.015080308 0.04641245 0.0061036632
v 0.02868453 0.039480805 0.12512597
v 0.040058937 0.029684504 0.127896
v 0.02868453 0.039480805 0.0061036632
v 0.039480805 0.02868444 0.12512599
v 0.047700148 0.015498638 0.12720597
v 0.039480843 0.028684428 0.0061036632
v 0.04641262 0.015080313 0.12512599
v 0.050154693 6.425389E-09 0.12720597
v 0.04641254 0.015080452 0.0061036837
v 0.048800927 6.425389E-09 0.12512597
v 0.048800927 -1.3480123E-08 0.006103614
v 0.05248339 6.425389E-09 0.12950604
v 0.049914874 -0.01621827 0.12950604
v 0.04991491 0.01621829 0.12950604
v 0.042459983 -0.03084901 0.12950604
v 0.042459983 0.030848991 0.12950604
v 0.037882905 -0.042459946 0.13552427
v 0.037882905 0.042460047 0.13552427
v 0.036494777 -0.049914636 0.14927605
v 0.036494777 0.04991472 0.14927605
v 0.042936556 -0.052483406 0.16693373
v 0.042936556 0.05248351 0.16693373
v 0.05211284 -0.049914636 0.18030636
v 0.05211284 0.04991472 0.18030636
v 0.060390748 -0.042459946 0.19237004
v 0.060390748 0.042460047 0.19237004
v 0.06696031 -0.03084901 0.20194377
v 0.06696031 0.030848991 0.20194377
v 0.07117825 -0.01621827 0.20809044
v 0.07117825 0.016218282 0.20809044
v 0.07263172 6.425389E-09 0.21020852
v -0.0499146 -0.01621827 1.490116E-09
v -0.052483346 6.425389E-09 1.490116E-09
v -0.052483346 6.425389E-09 0.12950604
v -0.0499146 -0.01621827 0.12950604
v -0.042459965 -0.03084901 1.490116E-09
v -0.042459965 -0.03084901 0.12950604
v -0.030848837 -0.042459946 1.490116E-09
v -0.030848837 -0.042459946 0.12950604
v -0.016218245 -0.049914636 1.490116E-09
v -0.016218245 -0.049914636 0.12950604
v 9.579856E-09 -0.052483406 0.12950604
v 9.579856E-09 -0.052483406 1.490116E-09
v 0.016218266 -0.049914636 1.490116E-09
v 0.016218266 -0.049914636 0.12950604
v 0.030849095 -0.042459946 1.490116E-09
v 0.030849095 -0.042459946 0.12950604
v 0.042459983 -0.03084901 1.490116E-09
v 0.042459983 -0.03084901 0.12950604
v 0.049914874 -0.01621827 1.490116E-09
v 0.049914874 -0.01621827 0.12950604
v 0.05248339 6.425389E-09 1.490116E-09
v 0.05248339 6.425389E-09 0.12950604
v -0.052483346 6.425389E-09 1.490116E-09
v -0.0499146 0.016218282 0.12950604
v -0.052483346 6.425389E-09 0.12950604
v -0.0499146 0.016218282 1.490116E-09
v -0.042459965 0.030848991 0.12950604
v -0.04245992 0.030848991 6.556511E-09
v -0.030848837 0.042460047 0.129506
v -0.030848837 0.042460047 -2.324581E-08
v -0.016218245 0.04991472 0.12950604
v -0.016218245 0.04991472 1.490116E-09
v 9.579856E-09 0.05248351 0.12950604
v 9.579856E-09 0.05248351 1.490116E-09
v 0.016218266 0.04991472 0.12950604
v 0.016218266 0.04991472 1.490116E-09
v 0.030849095 0.042460047 0.12950604
v 0.030849095 0.042460047 1.490116E-09
v 0.042459983 0.030848991 0.12950604
v 0.042459983 0.030848991 1.490116E-09
v 0.04991491 0.01621829 0.12950604
v 0.04991491 0.01621829 1.490116E-09
v 0.05248339 6.425389E-09 0.12950604
v 0.05248339 6.425389E-09 1.490116E-09
v 0.042459983 0.030848991 0.12950604
v 0.035659544 0.042460047 0.13464811
v 0.040058937 0.029684504 0.127896
v 0.037882905 0.042460047 0.13552427
v 0.034153417 0.04991472 0.14956932
v 0.036494777 0.04991472 0.14927605
v 0.040875424 0.05248351 0.16799526
v 0.042936556 0.05248351 0.16693373
v 0.05021632 0.04991472 0.18160772
v 0.05211284 0.04991472 0.18030636
v 0.05849422 0.042460047 0.19367139
v 0.060390748 0.042460047 0.19237004
v 0.06506381 0.030848991 0.20324516
v 0.06696031 0.030848991 0.20194377
v 0.06928177 0.016218282 0.20939188
v 0.07117825 0.016218282 0.20809044
v 0.070735246 6.425389E-09 0.21150994
v 0.07263172 6.425389E-09 0.21020852
v 0.06928177 -0.01621827 0.20939188
v 0.07117825 -0.01621827 0.20809044
v 0.06506381 -0.03084901 0.20324516
v 0.06696031 -0.03084901 0.20194377
v 0.05849422 -0.042459946 0.19367139
v 0.060390748 -0.042459946 0.19237004
v 0.05021632 -0.049914636 0.18160772
v 0.05211284 -0.049914636 0.18030636
v 0.040875424 -0.052483406 0.16799526
v 0.042936556 -0.052483406 0.16693373
v 0.034153417 -0.049914636 0.14956932
v 0.036494777 -0.049914636 0.14927605
v 0.035659544 -0.042459946 0.13464811
v 0.037882905 -0.042459946 0.13552427
v 0.040058937 -0.02968451 0.127896
v 0.042459983 -0.03084901 0.12950604
v 0.042459983 -0.03084901 0.12950604
v 0.029480312 -0.04057597 0.12950604
v 0.040058937 -0.02968451 0.127896
v 0.030849095 -0.042459946 0.12950604
v 0.015498681 -0.047699913 0.12950604
v 0.016218266 -0.049914636 0.12950604
v 9.579856E-09 -0.050154693 0.12950604
v 9.579856E-09 -0.052483406 0.12950604
v -0.015498623 -0.047699895 0.12950604
v -0.016218245 -0.049914636 0.12950604
v -0.029480053 -0.04057597 0.12950604
v -0.030848837 -0.042459946 0.12950604
v -0.04057599 -0.029480219 0.12950604
v -0.042459965 -0.03084901 0.12950604
v -0.047699846 -0.015498668 0.12950604
v -0.0499146 -0.01621827 0.12950604
v -0.05015464 6.425389E-09 0.12950604
v -0.052483346 6.425389E-09 0.12950604
v -0.047699846 0.015498666 0.12950604
v -0.0499146 0.016218282 0.12950604
v -0.04057599 0.02948021 0.12950604
v -0.042459965 0.030848991 0.12950604
v -0.029480053 0.040576056 0.129506
v -0.030848837 0.042460047 0.129506
v -0.015498623 0.047699966 0.12950604
v -0.016218245 0.04991472 0.12950604
v 9.579856E-09 0.05015477 0.12950604
v 9.579856E-09 0.05248351 0.12950604
v 0.015498681 0.04769998 0.12950604
v 0.016218266 0.04991472 0.12950604
v 0.029480312 0.040576056 0.12950604
v 0.030849095 0.042460047 0.12950604
v 0.040058937 0.029684504 0.127896
v 0.042459983 0.030848991 0.12950604
v -0.016218245 -0.049914636 1.490116E-09
v 9.579856E-09 -0.052483406 1.490116E-09
v 0.016218266 -0.049914636 1.490116E-09
v -0.030848837 -0.042459946 1.490116E-09
v 0.030849095 -0.042459946 1.490116E-09
v 0.042459983 -0.03084901 1.490116E-09
v -0.042459965 -0.03084901 1.490116E-09
v -0.0499146 -0.01621827 1.490116E-09
v 0.049914874 -0.01621827 1.490116E-09
v -0.052483346 6.425389E-09 1.490116E-09
v 0.05248339 6.425389E-09 1.490116E-09
v -0.015080248 0.04641244 0.0061036786
v 9.579856E-09 0.048800964 0.0061036632
v 0.015080308 0.04641245 0.0061036632
v -0.028684353 0.03948082 0.006103614
v 0.02868453 0.039480805 0.0061036632
v 0.039480843 0.028684428 0.0061036632
v -0.039480705 0.028684454 0.0061036786
v -0.046412323 0.015080283 0.0061037033
v 0.04641254 0.015080452 0.0061036837
v -0.04880082 2.6330902E-08 0.0061036837
v 0.048800927 -1.3480123E-08 0.006103614
v 0.048800927 -1.3480123E-08 0.006103614
v -0.046412364 -0.0150803095 0.0061036786
v -0.04880082 2.6330902E-08 0.0061036837
v 0.04641258 -0.015080273 0.006103629
v -0.039480705 -0.028684482 0.0061036837
v 0.03948077 -0.028684502 0.006103629
v -0.028684432 -0.039480712 0.0061036632
v 0.02868453 -0.039480727 0.006103654
v -0.01508021 -0.046412364 0.0061037033
v 0.015080308 -0.046412364 0.006103654
v -3.0231188E-08 -0.048800886 0.0061036837
v 0.016218266 0.04991472 1.490116E-09
v 9.579856E-09 0.05248351 1.490116E-09
v -0.016218245 0.04991472 1.490116E-09
v 0.030849095 0.042460047 1.490116E-09
v -0.030848837 0.042460047 -2.324581E-08
v 0.042459983 0.030848991 1.490116E-09
v -0.04245992 0.030848991 6.556511E-09
v 0.04991491 0.01621829 1.490116E-09
v -0.0499146 0.016218282 1.490116E-09
v 0.05248339 6.425389E-09 1.490116E-09
v -0.052483346 6.425389E-09 1.490116E-09
vt 0.8358009 0.861502
vt 0.8393123 0.8852533
vt 0.83980095 0.83782893
vt 0.8517627 0.81624603
vt 0.85082674 0.90707815
vt 0.8642944 0.7968272
vt 0.8629548 0.9267513
vt 0.88735676 0.7856586
vt 0.88578224 0.9383929
vt 0.9174053 0.78203773
vt 0.91574943 0.9426325
vt 0.9426229 0.7862283
vt 0.9410484 0.9389629
vt 0.9648899 0.79786456
vt 0.96355027 0.92778826
vt 0.9824712 0.8158117
vt 0.98149765 0.91020703
vt 0.9936458 0.83831376
vt 0.993134 0.8879401
vt 0.9973202 0.8631675
vt -0.85567105 0.7126294
vt -0.84000945 0.7062504
vt -0.84000945 0.7126294
vt -0.85567105 0.7069576
vt -0.84000945 0.5855805
vt -0.8712546 0.7126294
vt -0.85567105 0.5858311
vt -0.8712546 0.7071681
vt -0.8867561 0.7126294
vt -0.8712546 0.58606595
vt -0.8867561 0.7073271
vt -0.9022902 0.7126294
vt -0.8867561 0.58626485
vt -0.9022902 0.7074881
vt -0.91782427 0.7126294
vt -0.9022902 0.5864376
vt -0.91782427 0.70763224
vt -0.9333589 0.7126294
vt -0.91782427 0.5865846
vt -0.9333589 0.707752
vt -0.94889385 0.7126294
vt -0.9333589 0.5867052
vt -0.94889385 0.7078463
vt -0.964429 0.7126294
vt -0.94889385 0.5867995
vt -0.964429 0.70791477
vt -0.97996426 0.7126294
vt -0.964429 0.5868678
vt -0.97996426 0.70795697
vt -0.9954994 0.7126294
vt -0.97996426 0.58690995
vt -0.9954994 0.707973
vt -0.9954994 0.5869259
vt 0.019969642 0.71264076
vt 0.0044334233 0.7079839
vt 0.0044334233 0.71264076
vt 0.019969642 0.70797414
vt 0.0044334233 0.58692753
vt 0.03550613 0.71264076
vt 0.019969642 0.58691716
vt 0.03550613 0.70793766
vt 0.05104235 0.71264076
vt 0.03550613 0.5868807
vt 0.05104235 0.70787555
vt 0.06657854 0.71264076
vt 0.05104235 0.58681756
vt 0.06657854 0.7077869
vt 0.082114756 0.71264076
vt 0.06657854 0.5867289
vt 0.082114756 0.7076716
vt 0.097650945 0.71264076
vt 0.082114756 0.5866133
vt 0.097650945 0.7075286
vt 0.11318931 0.71264076
vt 0.097650945 0.5864714
vt 0.11318931 0.707351
vt 0.12869325 0.71264076
vt 0.11318931 0.5863024
vt 0.12869325 0.7071834
vt 0.14427857 0.71264076
vt 0.12869325 0.5861042
vt 0.14427857 0.70694447
vt 0.15994258 0.71264076
vt 0.14427857 0.5858768
vt 0.15994258 0.7061924
vt 0.15994258 0.58561575
vt 0.37525845 0.8063122
vt 0.3787641 0.82825
vt 0.37870285 0.78436476
vt 0.38887787 0.8480306
vt 0.38876143 0.764556
vt 0.3991295 0.8637254
vt 0.39896917 0.74883246
vt 0.41784364 0.87378526
vt 0.41765526 0.73872054
vt 0.4432787 0.87722516
vt 0.4430805 0.73520964
vt 0.46521637 0.87371916
vt 0.465028 0.73865443
vt 0.48499694 0.8636057
vt 0.48483667 0.7487127
vt 0.50068426 0.84787464
vt 0.50056773 0.7644
vt 0.51074255 0.8280659
vt 0.5106813 0.78418064
vt 0.51418734 0.8061184
vt -0.9744927 0.898281
vt -0.9967088 0.8982842
vt -0.9967349 0.7230685
vt -0.9745187 0.72306514
vt -0.95227677 0.8982775
vt -0.95230275 0.7230618
vt -0.9300605 0.8982742
vt -0.9300866 0.72305846
vt -0.90784466 0.8982711
vt -0.90787065 0.72305524
vt -0.8856546 0.7230518
vt -0.8856286 0.8982675
vt -0.86341244 0.8982645
vt -0.8634386 0.72304857
vt -0.8411962 0.8982611
vt -0.8412223 0.72304535
vt -0.81898034 0.89825785
vt -0.81900644 0.723042
vt -0.7967641 0.8982545
vt -0.7967902 0.72303855
vt -0.77454805 0.89825106
vt -0.77457416 0.72303534
vt 0.0032648444 0.89825153
vt 0.025507033 0.72303855
vt 0.0032909513 0.7230352
vt 0.025480926 0.89825463
vt 0.047723114 0.72304165
vt 0.047697008 0.898258
vt 0.069939494 0.72304523
vt 0.06991339 0.8982613
vt 0.09215528 0.72304845
vt 0.09212929 0.89826465
vt 0.11437154 0.7230518
vt 0.11434536 0.898268
vt 0.13658756 0.7230549
vt 0.13656153 0.8982711
vt 0.15880387 0.72305834
vt 0.15877783 0.8982743
vt 0.18102002 0.7230617
vt 0.18099385 0.89827764
vt 0.20323618 0.7230649
vt 0.20321012 0.8982811
vt 0.22545232 0.72306824
vt 0.2254262 0.89828444
vt 0.69679296 0.9972431
vt 0.7130126 0.99220854
vt 0.69679296 0.99220854
vt 0.7130126 0.99724287
vt 0.73142433 0.99220914
vt 0.73142445 0.99724334
vt 0.7532352 0.992209
vt 0.7532352 0.99724287
vt 0.7716968 0.9922096
vt 0.7716968 0.9972431
vt 0.7898327 0.99220985
vt 0.7898327 0.99724334
vt 0.8079671 0.992209
vt 0.8079673 0.99724287
vt 0.82610214 0.99220985
vt 0.82610214 0.99724334
vt 0.84423685 0.9922096
vt 0.84423697 0.99724287
vt 0.8623718 0.9922096
vt 0.8623719 0.99724287
vt 0.88050663 0.9922102
vt 0.8805064 0.99724334
vt 0.8986405 0.9922096
vt 0.8986405 0.99724287
vt 0.9167778 0.99221
vt 0.91677773 0.99724287
vt 0.9352387 0.99221
vt 0.9352387 0.99724287
vt 0.9570496 0.99221057
vt 0.9570495 0.99724334
vt 0.9754615 0.99221
vt 0.9754615 0.9972431
vt 0.991681 0.99221045
vt 0.99168086 0.99724287
vt 0.99168086 0.992212
vt 0.973765 0.9972401
vt 0.99071527 0.9972399
vt 0.9738177 0.99221176
vt 0.95595455 0.9972399
vt 0.95595455 0.99221176
vt 0.9380915 0.9972401
vt 0.93809086 0.9922126
vt 0.92022777 0.9972401
vt 0.92022735 0.9922126
vt 0.90236485 0.9972399
vt 0.90236455 0.9922127
vt 0.8845012 0.9972401
vt 0.88450104 0.9922127
vt 0.86663806 0.9972399
vt 0.8666378 0.992212
vt 0.8487747 0.9972399
vt 0.8487748 0.99221176
vt 0.83091116 0.9972399
vt 0.830911 0.99221176
vt 0.81304824 0.9972405
vt 0.81304747 0.99221176
vt 0.79518485 0.9972405
vt 0.795184 0.99221164
vt 0.7773211 0.9972405
vt 0.777321 0.99221176
vt 0.75945747 0.9972405
vt 0.7594577 0.99221164
vt 0.74159515 0.9972405
vt 0.7415941 0.9922126
vt 0.723783 0.9972399
vt 0.7237306 0.99221236
vt 0.7068337 0.9972399
vt 0.7058676 0.99221236
vt 0.91517055 0.67070943
vt 0.91101575 0.6969414
vt 0.91517067 0.72317374
vt 0.92722857 0.6470451
vt 0.9272285 0.7468382
vt 0.94600785 0.7656182
vt 0.9460082 0.6282649
vt 0.96967286 0.6162075
vt 0.96967286 0.777676
vt 0.99590504 0.6120529
vt 0.99590486 0.78183055
vt 0.9203976 0.493724
vt 0.9165345 0.51811576
vt 0.9203976 0.54250693
vt 0.93160915 0.47172028
vt 0.93160915 0.56451106
vt 0.949072 0.5819737
vt 0.9490719 0.45425797
vt 0.9710759 0.44304642
vt 0.97107553 0.59318495
vt 0.995467 0.43918324
vt 0.9954673 0.59704787
vt -0.004532844 0.59704816
vt -0.02892451 0.44304642
vt -0.004532844 0.43918303
vt -0.028924376 0.5931852
vt -0.05092814 0.4542579
vt -0.05092811 0.58197314
vt -0.0683906 0.47172034
vt -0.0683906 0.5645112
vt -0.07960228 0.4937244
vt -0.07960204 0.5425072
vt -0.083465435 0.5181159
vt -0.08482894 0.72317374
vt -0.08898425 0.69694173
vt -0.08482918 0.67070943
vt -0.07277149 0.74683833
vt -0.07277146 0.6470454
vt -0.053991646 0.7656181
vt -0.053991526 0.628265
vt -0.030327052 0.7776761
vt -0.030327052 0.6162077
vt -0.004095152 0.78183067
vt -0.004094988 0.6120529
vn -0 6.2671717E-07 -1
vn -0.08935834 0 -0.9959996
vn -0.08935833 0 -0.9959996
vn -0.7891749 0 -0.61416847
vn -0.78917474 0 -0.6141687
vn -0.9889326 0 -0.14836556
vn -0.9889326 0 -0.14836529
vn -0.977758 0 0.20973638
vn -0.977758 0 0.20973635
vn -0.8944132 0 0.4472416
vn -0.8944132 0 0.44724154
vn -0.82454365 0 0.56579834
vn -0.82454365 0 0.5657984
vn -0.82454646 0 0.5657943
vn -0.82454634 0 0.56579435
vn -0.8245389 0 0.5658054
vn -0.8245388 0 0.5658054
vn -0.82453644 0 0.5658089
vn -0.8245364 0 0.56580895
vn -0.8245337 0 0.5658128
vn -0.82222915 0.2914056 0.4888987
vn -0.99992883 -1.3281019E-07 0.011935323
vn -0.8381164 1.0244908E-06 0.5454914
vn -0.95084256 0.30947277 0.011176744
vn -1 1.1838857E-07 1.2253159E-07
vn -0.716119 0.5940667 0.36641273
vn -0.95105654 0.30901673 0
vn -0.8085414 0.5883488 0.010326102
vn -0.5373152 0.78456926 0.30942437
vn -0.80901575 0.58778715 0
vn -0.5871402 0.8094118 0.010904948
vn -0.2952363 0.9086431 0.2953018
vn -0.587783 0.8090187 0
vn -0.3089964 0.95099443 0.011431643
vn 2.7887634E-07 0.95540494 0.29529908
vn -0.3090168 0.95105654 0
vn -2.3614827E-07 0.9999347 0.01143164
vn 0.2952386 0.9086443 0.29529604
vn -2.367779E-07 1 0
vn 0.30899817 0.9509939 0.011431426
vn 0.56157076 0.7729417 0.2952954
vn 0.30901834 0.951056 0
vn 0.5877446 0.8089658 0.011431355
vn 0.7729385 0.56157464 0.29529664
vn 0.587783 0.8090186 0
vn 0.8089638 0.58774734 0.011431407
vn 0.9086451 0.29523492 0.2952971
vn 0.8090165 0.5877859 0
vn 0.9509949 0.30899507 0.011431402
vn 0.9554051 0 0.29529837
vn 0.9510571 0.3090152 0
vn 0.9999347 -5.944394E-07 0.011431492
vn 1 -5.6657365E-07 0
vn 0.9086449 -0.2952349 0.29529765
vn 0.9999347 -5.944394E-07 0.011431492
vn 0.9554051 0 0.29529837
vn 0.9509947 -0.30899596 0.011431605
vn 1 -5.6657365E-07 0
vn 0.7729404 -0.5615719 0.29529655
vn 0.9510568 -0.30901608 0
vn 0.8089648 -0.58774596 0.0114316
vn 0.5615721 -0.7729405 0.2952962
vn 0.80901754 -0.5877846 1.5928613E-07
vn 0.58774674 -0.80896413 0.011431452
vn 0.2952393 -0.9086439 0.29529634
vn 0.5877851 -0.8090171 0
vn 0.30899784 -0.950994 0.011431438
vn -0 -0.95540535 0.29529756
vn 0.30901834 -0.9510561 0
vn -0 -0.9999347 0.011431572
vn -0.2952368 -0.90864384 0.2952993
vn -0 -1 0
vn -0.30899647 -0.95099443 0.011431574
vn -0.5373176 -0.78456813 0.3094232
vn -0.30901676 -0.95105654 0
vn -0.58714277 -0.80941004 0.010904863
vn -0.7161193 -0.5940658 0.36641377
vn -0.5877853 -0.8090169 0
vn -0.80854124 -0.588349 0.010326065
vn -0.8222275 -0.29140544 0.48890167
vn -0.8090154 -0.58778745 0
vn -0.9508429 -0.30947196 0.011176806
vn -0.8381164 1.0244908E-06 0.5454914
vn -0.9510569 -0.3090158 0
vn -0.99992883 -1.3281019E-07 0.011935323
vn -1 1.1838857E-07 1.2253159E-07
vn -0 0 1
vn -0 0 1
vn -0 0 1
vn 0.7408256 0 0.6716975
vn 0.7408253 0 0.67169774
vn 0.9875485 0 0.15731473
vn 0.9875486 0 0.15731436
vn 0.97626966 0 -0.21655832
vn 0.97626966 0 -0.21655826
vn 0.8936604 0 -0.44874385
vn 0.8936604 0 -0.44874382
vn 0.82454455 0 -0.5657971
vn 0.82454455 0 -0.56579703
vn 0.8245465 0 -0.5657942
vn 0.82454646 0 -0.5657943
vn 0.82453847 0 -0.5658059
vn 0.82453847 0 -0.5658059
vn 0.8245359 0 -0.5658097
vn 0.8245359 0 -0.5658096
vn 0.82453823 0 -0.56580615
vn -0.9510571 -0.30901507 0
vn -1 0 0
vn -1 0 0
vn -0.9510571 -0.30901507 0
vn -0.80901605 -0.5877866 0
vn -0.80901605 -0.5877866 0
vn -0.5877833 -0.8090184 0
vn -0.5877833 -0.8090184 0
vn -0.30901873 -0.95105594 0
vn -0.30901873 -0.95105594 0
vn -0 -1 0
vn -0 -1 0
vn 0.30901653 -0.95105666 0
vn 0.30901653 -0.95105666 0
vn 0.5877833 -0.8090184 0
vn 0.5877833 -0.8090184 0
vn 0.8090158 -0.587787 0
vn 0.8090158 -0.587787 0
vn 0.9510569 -0.30901572 0
vn 0.9510569 -0.30901572 0
vn 1 -1.1779123E-06 0
vn 1 -1.1779123E-06 0
vn -1 0 0
vn -0.9510569 0.30901596 0
vn -1 0 0
vn -0.9510569 0.30901596 0
vn -0.809017 0.58778524 -1.475666E-07
vn -0.8090169 0.5877854 -1.4756658E-07
vn -0.5877858 0.80901664 0
vn -0.5877858 0.80901664 0
vn -0.30901894 0.95105594 0
vn -0.30901903 0.9510558 0
vn -0 1 0
vn -0 1 0
vn 0.30901673 0.95105654 0
vn 0.30901673 0.95105654 0
vn 0.5877854 0.8090169 0
vn 0.5877854 0.8090169 0
vn 0.80901605 0.58778656 0
vn 0.80901605 0.58778656 0
vn 0.9510568 0.30901602 0
vn 0.9510568 0.30901602 0
vn 1 -1.1779123E-06 0
vn 1 -1.1779123E-06 0
vn 0.29598904 0.5263534 -0.7970838
vn 0.19248794 0.72298366 -0.6635082
vn 0.29598904 0.5263534 -0.7970838
vn 0.18316355 0.73735446 -0.6501997
vn 0.0057641 0.9591921 -0.28269634
vn 0.0050201956 0.9599379 -0.2801681
vn 0.015832704 0.9998504 -0.006964452
vn 0.015817808 0.9998504 -0.006997111
vn 0.16998206 0.9514705 0.25653473
vn 0.16998255 0.95147026 0.2565354
vn 0.33256304 0.80901885 0.48465487
vn 0.33256406 0.8090176 0.4846563
vn 0.4577448 0.58778733 0.66706514
vn 0.457745 0.5877867 0.6670655
vn 0.53812367 0.3090202 0.78417444
vn 0.5381234 0.30902112 0.78417414
vn 0.5658209 0 0.8245283
vn 0.56582075 0 0.8245283
vn 0.53812295 -0.30901942 0.78417516
vn 0.5381228 -0.30902034 0.78417486
vn 0.45774445 -0.5877871 0.6670656
vn 0.45774466 -0.58778644 0.66706586
vn 0.33256182 -0.8090201 0.48465365
vn 0.3325628 -0.8090187 0.48465517
vn 0.1699817 -0.9514704 0.25653514
vn 0.16998221 -0.95147014 0.25653586
vn 0.015831718 -0.9998504 -0.0069642602
vn 0.015816817 -0.9998504 -0.00699692
vn 0.005763555 -0.9591921 -0.28269628
vn 0.0050196205 -0.9599379 -0.28016803
vn 0.19248638 -0.7229856 -0.6635064
vn 0.18316226 -0.7373561 -0.6501981
vn 0.29598635 -0.52635753 -0.797082
vn 0.29598635 -0.52635753 -0.797082
vn -0.19433667 0.2593263 0.94603544
vn -0.10317862 0.13768339 0.9850876
vn -0.1943367 0.2593263 0.94603544
vn -0.10279378 0.13716985 0.98519945
vn -0 0 1
vn -0 0 1
vn -0 0 1
vn -0 0 1
vn -0 0 1
vn -0 0 1
vn -0 0 1
vn -0 0 1
vn -0 1.2911928E-06 1
vn -0 1.2911926E-06 1
vn -0 1.2911981E-06 1
vn -0 1.2911911E-06 1
vn -0 0 1
vn -0 0 1
vn -0 -1.2911954E-06 1
vn -0 -1.2911968E-06 1
vn 6.299925E-07 1.2911919E-06 1
vn 6.2999175E-07 1.2911871E-06 1
vn -1.6384297E-07 0 1
vn -1.6385015E-07 0 1
vn -7.9383926E-07 -2.5823847E-06 1
vn -7.938386E-07 -2.5823826E-06 1
vn -0 0 1
vn -0 0 1
vn -0 0 1
vn -0 0 1
vn -0.10317949 -0.13768175 0.9850877
vn -0.10279396 -0.1371673 0.9851998
vn -0.19433802 -0.25932285 0.9460361
vn -0.194338 -0.25932282 0.9460361
vn -0 0 -1
vn -0 0 -1
vn -0 0 -1
vn -0 0 -1
vn -0 0 -1
vn -0 0 -1
vn -0 0 -1
vn -0 0 -1
vn -0 0 -1
vn -0 0 -1
vn -0 0 -1
vn -3.8189452E-07 -4.659881E-06 1
vn 5.13823E-07 3.309572E-06 1
vn -3.8189467E-07 -4.659882E-06 1
vn -2.5978974E-07 2.3943346E-06 1
vn -2.597897E-07 2.3943378E-06 1
vn 1.161965E-07 1.8603006E-06 1
vn 1.1619632E-07 1.8603013E-06 1
vn 3.7916544E-07 -1.3654419E-06 1
vn 3.7916527E-07 -1.3654403E-06 1
vn 5.493261E-07 -1.2930909E-06 1
vn 5.4932616E-07 -1.2930918E-06 1
vn 5.4932616E-07 -1.2930918E-06 1
vn 6.2283806E-07 2.5682797E-07 1
vn 5.493261E-07 -1.2930909E-06 1
vn 6.22838E-07 2.568281E-07 1
vn 5.8366265E-07 1.789379E-07 1
vn 5.836627E-07 1.7893787E-07 1
vn 4.875668E-07 4.7438186E-07 1
vn 4.8756675E-07 4.7438192E-07 1
vn 6.808584E-07 2.8808565E-06 1
vn 6.808583E-07 2.8808565E-06 1
vn 1.6402837E-06 1.8202634E-06 1
vn 2.6094955E-07 1.6475842E-06 -1
vn -0 0 -1
vn 2.6094952E-07 1.6475843E-06 -1
vn 1.4395086E-07 -1.0592566E-06 -1
vn 1.4395096E-07 -1.0592545E-06 -1
vn -0 -1.1087562E-07 -1
vn -0 -1.10874716E-07 -1
vn -0 0 -1
vn -0 0 -1
vn -0 0 -1
vn -0 0 -1
g S_wpn_misc_0038_01_lod0_0
f 3/3/3 2/2/2 1/1/1
f 3/3/3 4/4/4 2/2/2
f 4/4/4 5/5/5 2/2/2
f 4/4/4 6/6/6 5/5/5
f 6/6/6 7/7/7 5/5/5
f 6/6/6 8/8/8 7/7/7
f 8/8/8 9/9/9 7/7/7
f 8/8/8 10/10/10 9/9/9
f 10/10/10 11/11/11 9/9/9
f 10/10/10 12/12/12 11/11/11
f 12/12/12 13/13/13 11/11/11
f 12/12/12 14/14/14 13/13/13
f 14/14/14 15/15/15 13/13/13
f 14/14/14 16/16/16 15/15/15
f 16/16/16 17/17/17 15/15/15
f 16/16/16 18/18/18 17/17/17
f 18/18/18 19/19/19 17/17/17
f 19/19/19 18/18/18 20/20/20
f 23/23/23 22/22/22 21/21/21
f 22/22/22 24/24/24 21/21/21
f 24/24/24 22/22/22 25/25/25
f 21/21/21 24/24/24 26/26/26
f 27/27/27 24/24/24 25/25/25
f 24/24/24 28/28/28 26/26/26
f 28/28/28 24/24/24 27/27/27
f 26/26/26 28/28/28 29/29/29
f 30/30/30 28/28/28 27/27/27
f 28/28/28 31/31/31 29/29/29
f 31/31/31 28/28/28 30/30/30
f 29/29/29 31/31/31 32/32/32
f 33/33/33 31/31/31 30/30/30
f 31/31/31 34/34/34 32/32/32
f 34/34/34 31/31/31 33/33/33
f 32/32/32 34/34/34 35/35/35
f 36/36/36 34/34/34 33/33/33
f 34/34/34 37/37/37 35/35/35
f 34/34/34 36/36/36 37/37/37
f 35/35/35 37/37/37 38/38/38
f 36/36/36 39/39/39 37/37/37
f 37/37/37 40/40/40 38/38/38
f 40/40/40 37/37/37 39/39/39
f 38/38/38 40/40/40 41/41/41
f 42/42/42 40/40/40 39/39/39
f 40/40/40 43/43/43 41/41/41
f 43/43/43 40/40/40 42/42/42
f 41/41/41 43/43/43 44/44/44
f 45/45/45 43/43/43 42/42/42
f 43/43/43 46/46/46 44/44/44
f 46/46/46 43/43/43 45/45/45
f 44/44/44 46/46/46 47/47/47
f 48/48/48 46/46/46 45/45/45
f 46/46/46 49/49/49 47/47/47
f 49/49/49 46/46/46 48/48/48
f 47/47/47 49/49/49 50/50/50
f 51/51/51 49/49/49 48/48/48
f 49/49/49 52/52/52 50/50/50
f 52/52/52 49/49/49 51/51/51
f 53/53/53 52/52/52 51/51/51
f 56/56/56 55/55/55 54/54/54
f 55/55/55 57/57/57 54/54/54
f 57/57/57 55/55/55 58/58/58
f 54/54/54 57/57/57 59/59/59
f 60/60/60 57/57/57 58/58/58
f 57/57/57 61/61/61 59/59/59
f 61/61/61 57/57/57 60/60/60
f 59/59/59 61/61/61 62/62/62
f 63/63/63 61/61/61 60/60/60
f 61/61/61 64/64/64 62/62/62
f 64/64/64 61/61/61 63/63/63
f 62/62/62 64/64/64 65/65/65
f 66/66/66 64/64/64 63/63/63
f 64/64/64 67/67/67 65/65/65
f 67/67/67 64/64/64 66/66/66
f 65/65/65 67/67/67 68/68/68
f 69/69/69 67/67/67 66/66/66
f 67/67/67 70/70/70 68/68/68
f 70/70/70 67/67/67 69/69/69
f 68/68/68 70/70/70 71/71/71
f 72/72/72 70/70/70 69/69/69
f 70/70/70 73/73/73 71/71/71
f 73/73/73 70/70/70 72/72/72
f 71/71/71 73/73/73 74/74/74
f 75/75/75 73/73/73 72/72/72
f 73/73/73 76/76/76 74/74/74
f 76/76/76 73/73/73 75/75/75
f 74/74/74 76/76/76 77/77/77
f 78/78/78 76/76/76 75/75/75
f 76/76/76 79/79/79 77/77/77
f 79/79/79 76/76/76 78/78/78
f 77/77/77 79/79/79 80/80/80
f 81/81/81 79/79/79 78/78/78
f 79/79/79 82/82/82 80/80/80
f 82/82/82 79/79/79 81/81/81
f 80/80/80 82/82/82 83/83/83
f 84/84/84 82/82/82 81/81/81
f 82/82/82 85/85/85 83/83/83
f 85/85/85 82/82/82 84/84/84
f 86/86/86 85/85/85 84/84/84
f 89/89/89 88/88/88 87/87/87
f 90/90/90 88/88/88 89/89/89
f 91/91/91 90/90/90 89/89/89
f 92/92/92 90/90/90 91/91/91
f 93/93/93 92/92/92 91/91/91
f 94/94/94 92/92/92 93/93/93
f 95/95/95 94/94/94 93/93/93
f 96/96/96 94/94/94 95/95/95
f 97/97/97 96/96/96 95/95/95
f 98/98/98 96/96/96 97/97/97
f 99/99/99 98/98/98 97/97/97
f 100/100/100 98/98/98 99/99/99
f 101/101/101 100/100/100 99/99/99
f 102/102/102 100/100/100 101/101/101
f 103/103/103 102/102/102 101/101/101
f 104/104/104 102/102/102 103/103/103
f 105/105/105 104/104/104 103/103/103
f 104/104/104 105/105/105 106/106/106
f 109/109/109 108/108/108 107/107/107
f 110/110/110 109/109/109 107/107/107
f 110/110/110 107/107/107 111/111/111
f 112/112/112 110/110/110 111/111/111
f 112/112/112 111/111/111 113/113/113
f 114/114/114 112/112/112 113/113/113
f 114/114/114 113/113/113 115/115/115
f 116/116/116 114/114/114 115/115/115
f 116/116/116 115/115/115 117/117/117
f 115/115/115 118/118/118 117/117/117
f 118/118/118 119/119/119 117/117/117
f 119/119/119 120/120/120 117/117/117
f 120/120/120 119/119/119 121/121/121
f 122/122/122 120/120/120 121/121/121
f 122/122/122 121/121/121 123/123/123
f 124/124/124 122/122/122 123/123/123
f 124/124/124 123/123/123 125/125/125
f 126/126/126 124/124/124 125/125/125
f 126/126/126 125/125/125 127/127/127
f 128/128/128 126/126/126 127/127/127
f 131/131/131 130/130/130 129/129/129
f 130/130/130 132/132/132 129/129/129
f 130/130/130 133/133/133 132/132/132
f 133/133/133 134/134/134 132/132/132
f 133/133/133 135/135/135 134/134/134
f 135/135/135 136/136/136 134/134/134
f 135/135/135 137/137/137 136/136/136
f 137/137/137 138/138/138 136/136/136
f 137/137/137 139/139/139 138/138/138
f 139/139/139 140/140/140 138/138/138
f 139/139/139 141/141/141 140/140/140
f 141/141/141 142/142/142 140/140/140
f 141/141/141 143/143/143 142/142/142
f 143/143/143 144/144/144 142/142/142
f 143/143/143 145/145/145 144/144/144
f 145/145/145 146/146/146 144/144/144
f 145/145/145 147/147/147 146/146/146
f 147/147/147 148/148/148 146/146/146
f 147/147/147 149/149/149 148/148/148
f 149/149/149 150/150/150 148/148/148
f 153/153/153 152/152/152 151/151/151
f 152/152/152 154/154/154 151/151/151
f 152/152/152 155/155/155 154/154/154
f 155/155/155 156/156/156 154/154/154
f 155/155/155 157/157/157 156/156/156
f 157/157/157 158/158/158 156/156/156
f 157/157/157 159/159/159 158/158/158
f 159/159/159 160/160/160 158/158/158
f 159/159/159 161/161/161 160/160/160
f 161/161/161 162/162/162 160/160/160
f 161/161/161 163/163/163 162/162/162
f 163/163/163 164/164/164 162/162/162
f 163/163/163 165/165/165 164/164/164
f 165/165/165 166/166/166 164/164/164
f 165/165/165 167/167/167 166/166/166
f 167/167/167 168/168/168 166/166/166
f 167/167/167 169/169/169 168/168/168
f 169/169/169 170/170/170 168/168/168
f 169/169/169 171/171/171 170/170/170
f 171/171/171 172/172/172 170/170/170
f 171/171/171 173/173/173 172/172/172
f 173/173/173 174/174/174 172/172/172
f 173/173/173 175/175/175 174/174/174
f 175/175/175 176/176/176 174/174/174
f 175/175/175 177/177/177 176/176/176
f 177/177/177 178/178/178 176/176/176
f 177/177/177 179/179/179 178/178/178
f 179/179/179 180/180/180 178/178/178
f 179/179/179 181/181/181 180/180/180
f 181/181/181 182/182/182 180/180/180
f 181/181/181 183/183/183 182/182/182
f 183/183/183 184/184/184 182/182/182
f 187/187/187 186/186/186 185/185/185
f 186/186/186 188/188/188 185/185/185
f 186/186/186 189/189/189 188/188/188
f 189/189/189 190/190/190 188/188/188
f 189/189/189 191/191/191 190/190/190
f 191/191/191 192/192/192 190/190/190
f 191/191/191 193/193/193 192/192/192
f 193/193/193 194/194/194 192/192/192
f 193/193/193 195/195/195 194/194/194
f 195/195/195 196/196/196 194/194/194
f 195/195/195 197/197/197 196/196/196
f 197/197/197 198/198/198 196/196/196
f 197/197/197 199/199/199 198/198/198
f 199/199/199 200/200/200 198/198/198
f 199/199/199 201/201/201 200/200/200
f 201/201/201 202/202/202 200/200/200
f 201/201/201 203/203/203 202/202/202
f 203/203/203 204/204/204 202/202/202
f 203/203/203 205/205/205 204/204/204
f 205/205/205 206/206/206 204/204/204
f 205/205/205 207/207/207 206/206/206
f 207/207/207 208/208/208 206/206/206
f 207/207/207 209/209/209 208/208/208
f 209/209/209 210/210/210 208/208/208
f 209/209/209 211/211/211 210/210/210
f 211/211/211 212/212/212 210/210/210
f 211/211/211 213/213/213 212/212/212
f 213/213/213 214/214/214 212/212/212
f 213/213/213 215/215/215 214/214/214
f 215/215/215 216/216/216 214/214/214
f 215/215/215 217/217/217 216/216/216
f 217/217/217 218/218/218 216/216/216
f 221/221/221 220/220/220 219/219/219
f 221/221/221 219/219/219 222/222/222
f 223/223/223 221/221/221 222/222/222
f 223/223/223 222/222/222 224/224/224
f 222/222/222 225/225/225 224/224/224
f 225/225/225 226/226/226 224/224/224
f 226/226/226 227/227/227 224/224/224
f 226/226/226 228/228/228 227/227/227
f 228/228/228 229/229/229 227/227/227
f 232/232/232 231/231/231 230/230/230
f 232/232/232 230/230/230 233/233/233
f 234/234/234 232/232/232 233/233/233
f 234/234/234 233/233/233 235/235/235
f 233/233/233 236/236/236 235/235/235
f 236/236/236 237/237/237 235/235/235
f 237/237/237 238/238/238 235/235/235
f 237/237/237 239/239/239 238/238/238
f 239/239/239 240/240/240 238/238/238
f 243/243/243 242/242/242 241/241/241
f 242/242/242 244/244/244 241/241/241
f 242/242/242 245/245/245 244/244/244
f 245/245/245 246/246/246 244/244/244
f 245/245/245 247/247/247 246/246/246
f 247/247/247 248/248/248 246/246/246
f 247/247/247 249/249/249 248/248/248
f 249/249/249 250/250/250 248/248/248
f 249/249/249 251/251/251 250/250/250
f 254/254/254 253/253/253 252/252/252
f 254/254/254 252/252/252 255/255/255
f 256/256/256 254/254/254 255/255/255
f 256/256/256 255/255/255 257/257/257
f 258/258/258 256/256/256 257/257/257
f 258/258/258 257/257/257 259/259/259
f 260/260/260 258/258/258 259/259/259
f 260/260/260 259/259/259 261/261/261
f 262/262/262 260/260/260 261/261/261
