g S_wpn_misc_0022_02_lod0
v 0.091304526 -0.27509195 0.41434333
v 0.04791677 -0.27509192 0.41041183
v 0.07295708 -0.27509195 0.4460621
v 0.11634488 -0.27509195 0.44999358
v -0.091304526 -0.27509195 0.41434333
v -0.11634488 -0.27509195 0.44999358
v -0.07295708 -0.27509195 0.4460621
v -0.04791677 -0.27509192 0.41041183
v 0.20233907 -0.2893001 0.19515702
v 0.014836661 -0.2941639 0.19315585
v 0.012940879 -0.29378134 0.3486521
v 0.19961882 -0.28874302 0.42365134
v -0.20233907 -0.2893001 0.19515702
v -0.19961882 -0.28874302 0.42365134
v -0.012940879 -0.29378134 0.3486521
v -0.014836661 -0.2941639 0.19315585
vt 0.83645 0.7044169
vt 0.7722802 0.70441693
vt 0.81268907 0.75428516
vt 0.87685853 0.7542851
vt 0.83645 0.7044169
vt 0.8768585 0.7542851
vt 0.81268907 0.75428516
vt 0.7722802 0.70441693
vt 0.9881276 0.76124644
vt 0.8375522 0.76124644
vt 0.8375522 0.88037014
vt 0.9881277 0.9417041
vt 0.9881276 0.76124644
vt 0.9881277 0.9417041
vt 0.8375522 0.88037014
vt 0.8375522 0.76124644
vn -4.17711E-07 -1 -2.4162142E-07
vn -4.17711E-07 -1 -2.4162142E-07
vn -4.17711E-07 -1 -2.4162142E-07
vn -4.17711E-07 -1 -2.416214E-07
vn 4.17711E-07 -1 -2.4162142E-07
vn 4.17711E-07 -1 -2.416214E-07
vn 4.17711E-07 -1 -2.4162142E-07
vn 4.17711E-07 -1 -2.4162142E-07
vn 0.025887065 -0.9996611 0.002757494
vn 0.025887065 -0.9996611 0.0027574939
vn 0.025887063 -0.9996611 0.0027574939
vn 0.02588706 -0.9996611 0.0027574939
vn -0.025887066 -0.9996611 0.002757494
vn -0.025887066 -0.9996611 0.0027574939
vn -0.025887065 -0.9996611 0.0027574939
vn -0.025887066 -0.9996611 0.0027574939
g S_wpn_misc_0022_02_lod0_0
f 3/3/3 2/2/2 1/1/1
f 4/4/4 3/3/3 1/1/1
f 7/7/7 6/6/6 5/5/5
f 8/8/8 7/7/7 5/5/5
f 11/11/11 10/10/10 9/9/9
f 12/12/12 11/11/11 9/9/9
f 15/15/15 14/14/14 13/13/13
f 16/16/16 15/15/15 13/13/13
