g S_wpn_funnel_0008_02_lod0
v -0.006390768 0.006390768 0.024536448
v -0 0.0065886043 0.02539103
v -0 0 0.026371082
v -0.0065886043 0 0.02539103
v -0.013332798 0.005966721 0.021722652
v -0.0123548005 0.0123548005 0.019528896
v -0.005966721 0.013332798 0.021722652
v -0.015233783 0.015233783 0.01518447
v -0.011780385 0.016644478 0.016598487
v -0.016644478 0.011780332 0.016598487
v -0.0123548005 0.01957499 0.012313557
v -0.01957499 0.0123548005 0.012313557
v -0.016644478 0.016644478 0.011740565
v -0.013332798 0.021767326 0.005922787
v -0.021767326 0.013332798 0.0059227347
v -0.018154591 0.018154591 0.0057015866
v -0.006390768 0.024575952 0.0063467287
v -0.0059666685 0.021767326 0.013286016
v -0.011780385 0.016644478 0.016598487
v -0.024575952 0.006390768 0.0063467287
v -0.021767326 0.0059666685 0.013286016
v -0.016644478 0.011780332 0.016598487
v -0.022429766 0.013709324 -4.6624074E-05
v -0.025432536 0.0065886043 -4.6624074E-05
v -0.013709324 0.022429766 -4.6624074E-05
v -0.0065886043 0.025432536 -4.6624074E-05
v -0 0.026371082 0
v -0 0.025432536 0.00654467
v -0.01865443 0.01865443 -4.6624074E-05
v -0.01809399 0.01809399 -0.0057267975
v -0.013286174 0.021696862 -0.005946732
v -0.021696862 0.013286174 -0.005946732
v -0.0063694078 0.024505276 -0.0063694078
v -0.016588097 0.016588097 -0.011744625
v -0.012316087 0.019511227 -0.012316087
v -0.005946732 0.021696862 -0.013286174
v -0.011744625 0.016588097 -0.016588097
v -0 0.02535912 -0.0065662945
v -0.024505276 0.0063694078 -0.0063694078
v -0.019511227 0.012316087 -0.012316087
v -0.026371082 0 0
v -0.021696862 0.005946732 -0.013286174
v -0.016588097 0.011744625 -0.016588097
v -0.025432536 0 0.0065446175
v -0.02535912 0 -0.0065662945
v -0.01809399 0.0057267975 -0.01809399
v -0.022357985 0 -0.013661276
v -0.013286174 0.005946732 -0.021696862
v -0.012316087 0.012316087 -0.019511227
v -0.024505276 -0.0063694078 -0.0063694078
v -0.02548913 -0.006381485 0
v -0.021696862 -0.005946732 -0.013286174
v -0.018592404 0 -0.018592404
v -0.013661276 0 -0.022357985
v -0.01809399 -0.0057267975 -0.01809399
v -0.019511227 -0.012316087 -0.012316087
v -0.016588097 -0.011744625 -0.016588097
v -0.021696862 -0.013286174 -0.005946732
v -0.013286174 -0.005946732 -0.021696862
v -0.012316087 -0.012316035 -0.019511227
v -0.022535989 -0.013511225 0
v -0.006566242 0 -0.02535912
v -0.0063694078 -0.0063694078 -0.024505276
v -0.0063694078 0.0063694078 -0.024505276
v -0 0 -0.026371082
v -0 0 -0.026371082
v -0 -0.006566242 -0.02535912
v -0 0.006566242 -0.02535912
v -0.024575952 -0.006390768 0.0063467287
v -0.005946732 -0.013286174 -0.021696862
v -0.005946732 0.013286174 -0.021696862
v -0.0057267975 0.01809399 -0.01809399
v -0 0.013661276 -0.022357985
v -0 0.022357985 -0.013661276
v -0 0.018592404 -0.018592404
v 0.0057267975 0.01809399 -0.01809399
v 0.005946732 0.013286174 -0.021696862
v 0.005946732 0.021696862 -0.013286174
v 0.0063694078 0.0063694078 -0.024505276
v -0 0 -0.026371082
v 0.0065662945 0 -0.02535912
v 0.011744625 0.016588097 -0.016588097
v 0.012316087 0.012316087 -0.019511227
v 0.012316087 0.019511227 -0.012316035
v 0.0063694078 0.024505276 -0.0063694078
v 0.013286174 0.005946732 -0.021696862
v 0.013661276 0 -0.022357985
v 0.013286174 0.021696862 -0.005946732
v 0.016588097 0.016588097 -0.011744625
v 0.0065886043 0.025432536 -4.6624074E-05
v 0.01809399 0.0057267975 -0.01809399
v 0.018592404 0 -0.018592404
v 0.022357985 0 -0.013661276
v 0.016588097 0.011744625 -0.016588097
v 0.021696862 0.005946732 -0.013286174
v 0.02535912 0 -0.006566242
v 0.019511227 0.012316087 -0.012316087
v 0.024505276 0.0063694078 -0.0063694078
v 0.026371082 0 0
v 0.021696862 0.013286174 -0.005946732
v 0.025432536 0.0065886043 -4.6624074E-05
v 0.024575952 0.006390768 0.0063467287
v 0.025432536 0 0.00654467
v 0.021767326 0.005966721 0.013286016
v 0.022429766 0 0.013661857
v 0.018154591 0.0057459422 0.01810702
v 0.01865443 0 0.018606804
v 0.013709324 0 0.022384884
v 0.013332798 0.005966721 0.021722652
v 0.016644478 0.011780332 0.016598487
v 0.013332798 0.005966721 0.021722652
v 0.0123548005 0.0123548005 0.019528896
v 0.01957499 0.0123548005 0.012313557
v 0.021767326 0.013332798 0.005922787
v 0.022429766 0.013709324 -4.6624074E-05
v 0.01809399 0.01809399 -0.0057267975
v 0.016644478 0.016644478 0.011740565
v 0.018154591 0.018154591 0.0057015866
v 0.01865443 0.01865443 -4.6624074E-05
v 0.013709324 0.022429766 -4.6624074E-05
v 0.013332798 0.021767326 0.005922787
v 0.015233783 0.015233783 0.01518447
v 0.016644478 0.011780332 0.016598487
v 0.0123548005 0.0123548005 0.019528896
v 0.011780385 0.016644478 0.016598487
v 0.0123548005 0.01957499 0.012313557
v 0.006390768 0.024575952 0.0063467287
v 0.0059666685 0.021767326 0.013286016
v 0.011780385 0.016644478 0.016598487
v -0 0.022429766 0.013661857
v 0.0057459422 0.018154591 0.01810702
v 0.0059666685 0.013332798 0.021722652
v 0.0123548005 0.0123548005 0.019528896
v -0.0057459422 0.018154591 0.01810702
v -0.005966721 0.013332798 0.021722652
v -0.0123548005 0.0123548005 0.019528896
v -0 0.01865443 0.018606804
v -0 0.013709324 0.022384884
v 0.0059666685 0.013332798 0.021722652
v -0.005966721 0.013332798 0.021722652
v -0 0.0065886043 0.02539103
v 0.006390768 0.006390768 0.024536448
v -0.006390768 0.006390768 0.024536448
v -0.016644478 -0.011780385 0.016598433
v -0.013332798 -0.005966721 0.021722652
v -0.0123548005 -0.0123548005 0.019528896
v -0.018154591 -0.0057459422 0.01810702
v -0.021767326 -0.005966721 0.013286016
v -0.01957499 -0.0123548005 0.012313557
v -0.022429766 0 0.013661857
v -0.018154591 0.0057459422 0.01810702
v -0.013332798 0.005966721 0.021722652
v -0.0123548005 0.0123548005 0.019528896
v -0.01865443 0 0.018606804
v -0.013709324 0 0.022384884
v -0.013332798 -0.005966721 0.021722652
v -0.013332798 0.005966721 0.021722652
v -0.0065886043 0 0.02539103
v -0.006390768 -0.006390768 0.024536448
v -0.006390768 0.006390768 0.024536448
v -0.015233783 -0.015233783 0.01518447
v -0.016644478 -0.011780385 0.016598433
v -0.0123548005 -0.0123548005 0.019528896
v -0.011780385 -0.016644478 0.016598433
v -0.0123548005 -0.01957499 0.012313557
v -0.016644478 -0.016644478 0.011740565
v -0.021767326 -0.013332798 0.0059227347
v -0.018154591 -0.018154591 0.0057015866
v -0.018647099 -0.018647099 0
v -0.013332798 -0.021767326 0.0059227347
v -0.013511225 -0.022535989 0
v -0.01809399 -0.01809399 -0.0057267975
v -0.006390768 -0.024575952 0.0063467287
v -0.013286174 -0.021696862 -0.005946732
v -0.016588097 -0.016588097 -0.011744625
v -0.019511227 -0.012316087 -0.012316087
v -0.012316087 -0.019511227 -0.012316087
v -0.015180619 -0.015180619 -0.015180619
v -0.016588097 -0.011744625 -0.016588097
v -0.011744625 -0.016588097 -0.016588097
v -0.005966721 -0.021767326 0.013286016
v -0.011780385 -0.016644478 0.016598433
v -0.006381485 -0.02548913 0
v -0.0063694078 -0.024505276 -0.0063694078
v -0.013286174 -0.021696862 -0.005946732
v -0.012316087 -0.019511227 -0.012316087
v -0.005946732 -0.021696862 -0.013286174
v -0.011744625 -0.016588097 -0.016588097
v -0 -0.02535912 -0.0065662945
v -0 -0.026371082 0
v -0 -0.025432536 0.00654467
v -0 -0.025432536 0.00654467
v -0.0057267975 -0.01809399 -0.01809399
v -0 -0.022357985 -0.013661276
v -0 -0.013661276 -0.022357985
v -0 -0.018592404 -0.018592404
v 0.0057267975 -0.01809399 -0.01809399
v 0.005946679 -0.021696862 -0.013286174
v 0.0063694078 -0.024505276 -0.0063694078
v 0.005946732 -0.013286174 -0.021696862
v 0.011744625 -0.016588097 -0.016588097
v 0.012316087 -0.019511227 -0.012316087
v 0.012316087 -0.012316035 -0.019511227
v 0.013286174 -0.021696862 -0.005946732
v 0.0063694078 -0.0063694078 -0.024505276
v -0 0 -0.026371082
v 0.0065662945 0 -0.02535912
v 0.013286174 -0.005946732 -0.021696862
v 0.013661276 0 -0.022357985
v 0.01809399 -0.0057267975 -0.01809399
v 0.018592404 0 -0.018592404
v 0.022357985 0 -0.013661276
v 0.016588097 -0.011744625 -0.016588097
v 0.021696862 -0.005946732 -0.013286174
v 0.019511227 -0.012316087 -0.012316087
v 0.02535912 0 -0.006566242
v 0.024505276 -0.0063694078 -0.0063694078
v 0.021696862 -0.013286174 -0.005946732
v 0.022535989 -0.013511225 0
v 0.02548913 -0.006381485 0
v 0.026371082 0 0
v 0.024575952 -0.006390768 0.0063467287
v 0.025432536 0 0.00654467
v 0.021767326 -0.005966721 0.013286016
v 0.022429766 0 0.013661857
v 0.018154591 -0.0057459422 0.01810702
v 0.01865443 0 0.018606804
v 0.013709324 0 0.022384884
v 0.013332798 -0.005966721 0.021722652
v 0.016644478 -0.011780385 0.016598433
v 0.013332798 -0.005966721 0.021722652
v 0.0123548005 -0.0123548005 0.019528896
v 0.01957499 -0.0123548005 0.012313557
v 0.021767326 -0.013332798 0.0059227347
v 0.018154591 -0.018154591 0.0057015866
v 0.016644478 -0.016644478 0.011740565
v 0.018647099 -0.018647099 0
v 0.021696862 -0.013286174 -0.005946732
v 0.015233783 -0.015233783 0.01518447
v 0.016644478 -0.011780385 0.016598433
v 0.0123548005 -0.0123548005 0.019528896
v 0.011780385 -0.016644478 0.016598433
v 0.0123548005 -0.01957499 0.012313557
v 0.013332798 -0.021767326 0.0059227347
v 0.01809399 -0.01809399 -0.0057267975
v 0.013511225 -0.022535989 0
v 0.006390768 -0.024575952 0.0063467287
v 0.016588097 -0.016588097 -0.011744625
v 0.019511227 -0.012316087 -0.012316087
v 0.005966721 -0.021767326 0.013286016
v 0.011780385 -0.016644478 0.016598433
v 0.012316087 -0.019511227 -0.012316087
v 0.015180619 -0.015180619 -0.015180619
v 0.016588097 -0.011744625 -0.016588097
v 0.011744625 -0.016588097 -0.016588097
v 0.006381485 -0.02548913 0
v -0 -0.022429766 0.013661857
v 0.0057459422 -0.018154591 0.01810702
v 0.005966721 -0.013332798 0.021722652
v 0.0123548005 -0.0123548005 0.019528896
v -0.0057459422 -0.018154591 0.01810702
v -0.005966721 -0.013332798 0.021722652
v -0.0123548005 -0.0123548005 0.019528896
v -0 -0.01865443 0.018606804
v -0 -0.013709324 0.022384884
v 0.005966721 -0.013332798 0.021722652
v -0.005966721 -0.013332798 0.021722652
v -0.006390768 -0.006390768 0.024536448
v -0 -0.0065886043 0.02539103
v -0 -0.013709324 0.022384884
v 0.005966721 -0.013332798 0.021722652
v 0.006390768 -0.006390768 0.024536448
v -0.006390768 -0.006390768 0.024536448
v -0.0065886043 0 0.02539103
v -0 0 0.026371082
v -0 -0.0065886043 0.02539103
v -0.005966721 -0.013332798 0.021722652
v -0.013332798 -0.005966721 0.021722652
v 0.006390768 -0.006390768 0.024536448
v -0 -0.0065886043 0.02539103
v -0 0 0.026371082
v 0.0065886043 0 0.02539103
v 0.013332798 -0.005966721 0.021722652
v 0.005966721 -0.013332798 0.021722652
v 0.006390768 0.006390768 0.024536448
v 0.0065886043 0 0.02539103
v -0 0 0.026371082
v -0 0.0065886043 0.02539103
v 0.0059666685 0.013332798 0.021722652
v 0.013332798 0.005966721 0.021722652
v 0.0065886043 0 0.02539103
v 0.013709324 0 0.022384884
v 0.006390768 -0.006390768 0.024536448
v 0.013709324 0 0.022384884
v 0.0065886043 0 0.02539103
v 0.006390768 0.006390768 0.024536448
v 0.015180619 0.015180619 -0.015180619
v 0.019511227 0.012316087 -0.012316087
v 0.016588097 0.011744625 -0.016588097
v 0.012316087 0.019511227 -0.012316035
v 0.011744625 0.016588097 -0.016588097
v -0.015180619 0.015180619 -0.015180619
v -0.016588097 0.011744625 -0.016588097
v -0.011744625 0.016588097 -0.016588097
v -0.019511227 0.012316087 -0.012316087
v -0.012316087 0.019511227 -0.012316087
vt 0.3754 0.8852
vt 0.2505 0.9291
vt 0.3863 0.9986
vt 0.5003 0.9291
vt 0.433 0.7998
vt 0.3754 0.765
vt 0.3177 0.7998
vt 0.3754 0.7059
vt 0.3481 0.7251
vt 0.4026 0.7251
vt 0.3399 0.6668
vt 0.4108 0.6668
vt 0.3754 0.659
vt 0.3378 0.58
vt 0.4129 0.58
vt 0.3754 0.577
vt 0.2909 0.5857
vt 0.293 0.6801
vt 0.3481 0.7251
vt 0.4598 0.5857
vt 0.4578 0.6801
vt 0.4026 0.7251
vt 0.4131 0.4988
vt 0.46 0.4988
vt 0.3377 0.4988
vt 0.2908 0.4988
vt 0.2505 0.4988
vt 0.2505 0.5884
vt 0.3754 0.4988
vt 0.3754 0.4207
vt 0.3378 0.4177
vt 0.4129 0.4177
vt 0.2909 0.412
vt 0.3754 0.3387
vt 0.3399 0.3309
vt 0.293 0.3176
vt 0.3481 0.2726
vt 0.2505 0.4093
vt 0.4598 0.412
vt 0.4108 0.3309
vt 0.5003 0.4988
vt 0.4578 0.3176
vt 0.4026 0.2726
vt 0.5003 0.5884
vt 0.5003 0.4093
vt 0.4518 0.2521
vt 0.5003 0.3125
vt 0.433 0.1886
vt 0.3754 0.2336
vt 0.5407 0.412
vt 0.5406 0.4988
vt 0.5428 0.3176
vt 0.5003 0.2453
vt 0.5003 0.1778
vt 0.5488 0.2521
vt 0.5897 0.3309
vt 0.598 0.2726
vt 0.5876 0.4177
vt 0.5675 0.1897
vt 0.6252 0.2336
vt 0.5875 0.4988
vt 0.5003 0.0622
vt 0.6204 0.1079
vt 0.3747 0.1083
vt 0.624 -0.0011
vt 0.375 0.0032
vt 0.7501 0.0696
vt 0.2505 0.0673
vt 0.5407 0.5857
vt 0.6829 0.1902
vt 0.3177 0.1908
vt 0.299 0.2521
vt 0.2505 0.1791
vt 0.2505 0.3125
vt 0.2505 0.2453
vt 0.2019 0.2521
vt 0.1832 0.1903
vt 0.2079 0.3176
vt 0.1262 0.1155
vt 0.121 0.0032
vt 0.0006 0.0748
vt 0.1528 0.2726
vt 0.1255 0.2333
vt 0.161 0.3309
vt 0.21 0.412
vt 0.0679 0.1905
vt 0.0006 0.1789
vt 0.1631 0.4177
vt 0.1255 0.3387
vt 0.2101 0.4988
vt 0.0491 0.2521
vt 0.0006 0.2453
vt 0.0006 0.3125
vt 0.0983 0.2726
vt 0.0432 0.3176
vt 0.0006 0.4093
vt 0.0901 0.3309
vt 0.0411 0.412
vt 0.0006 0.4988
vt 0.088 0.4177
vt 0.041 0.4988
vt 0.0411 0.5857
vt 0.0006 0.5884
vt 0.0432 0.6801
vt 0.0006 0.6852
vt 0.0491 0.7456
vt 0.0006 0.7524
vt 0.0006 0.8107
vt 0.0679 0.7998
vt 0.0983 0.7251
vt 0.0679 0.7998
vt 0.1255 0.765
vt 0.0901 0.6668
vt 0.088 0.58
vt 0.0878 0.4988
vt 0.1255 0.4207
vt 0.1255 0.659
vt 0.1255 0.577
vt 0.1255 0.4988
vt 0.1632 0.4988
vt 0.1631 0.58
vt 0.1255 0.7059
vt 0.0983 0.7251
vt 0.1255 0.765
vt 0.1528 0.7251
vt 0.161 0.6668
vt 0.21 0.5857
vt 0.2079 0.6801
vt 0.1528 0.7251
vt 0.2505 0.6852
vt 0.2019 0.7456
vt 0.1832 0.7998
vt 0.1255 0.765
vt 0.299 0.7456
vt 0.3177 0.7998
vt 0.3754 0.765
vt 0.2505 0.7524
vt 0.2505 0.8107
vt 0.1832 0.7998
vt 0.3177 0.7998
vt 0.2505 0.9291
vt 0.1255 0.8852
vt 0.3754 0.8852
vt 0.598 0.7251
vt 0.5675 0.7998
vt 0.6252 0.765
vt 0.5488 0.7456
vt 0.5428 0.6801
vt 0.5897 0.6668
vt 0.5003 0.6852
vt 0.4518 0.7456
vt 0.433 0.7998
vt 0.3754 0.765
vt 0.5003 0.7524
vt 0.5003 0.8107
vt 0.5675 0.7998
vt 0.433 0.7998
vt 0.5003 0.9291
vt 0.6252 0.8852
vt 0.3754 0.8852
vt 0.6252 0.7059
vt 0.598 0.7251
vt 0.6252 0.765
vt 0.6524 0.7251
vt 0.6606 0.6668
vt 0.6252 0.659
vt 0.5876 0.58
vt 0.6252 0.577
vt 0.6252 0.4988
vt 0.6627 0.58
vt 0.6629 0.4988
vt 0.6252 0.4207
vt 0.7096 0.5857
vt 0.6627 0.4177
vt 0.6252 0.3387
vt 0.5897 0.3309
vt 0.6606 0.3309
vt 0.6252 0.2918
vt 0.598 0.2726
vt 0.6524 0.2726
vt 0.7076 0.6801
vt 0.6524 0.7251
vt 0.7098 0.4988
vt 0.7096 0.412
vt 0.6627 0.4177
vt 0.6606 0.3309
vt 0.7076 0.3176
vt 0.6524 0.2726
vt 0.7501 0.4093
vt 0.7501 0.4988
vt 0.7501 0.5884
vt 0.7501 0.5884
vt 0.7016 0.2521
vt 0.7501 0.3125
vt 0.7501 0.1791
vt 0.7501 0.2453
vt 0.7986 0.2521
vt 0.7926 0.3176
vt 0.7905 0.412
vt 0.8173 0.1896
vt 0.8478 0.2726
vt 0.8395 0.3309
vt 0.875 0.2333
vt 0.8374 0.4177
vt 0.8798 0.1132
vt 0.8755 0.0017
vt 0.9999 0.0683
vt 0.9327 0.1905
vt 0.9999 0.1789
vt 0.9514 0.2521
vt 0.9999 0.2453
vt 0.9999 0.3125
vt 0.9022 0.2726
vt 0.9574 0.3176
vt 0.9104 0.3309
vt 0.9999 0.4093
vt 0.9594 0.412
vt 0.9125 0.4177
vt 0.9127 0.4988
vt 0.9596 0.4988
vt 0.9999 0.4988
vt 0.9594 0.5857
vt 0.9999 0.5884
vt 0.9574 0.6801
vt 0.9999 0.6852
vt 0.9514 0.7456
vt 0.9999 0.7524
vt 0.9999 0.8107
vt 0.9327 0.7998
vt 0.9022 0.7251
vt 0.9327 0.7998
vt 0.875 0.765
vt 0.9104 0.6668
vt 0.9125 0.58
vt 0.875 0.577
vt 0.875 0.659
vt 0.875 0.4988
vt 0.9125 0.4177
vt 0.875 0.7059
vt 0.9022 0.7251
vt 0.875 0.765
vt 0.8478 0.7251
vt 0.8395 0.6668
vt 0.8374 0.58
vt 0.875 0.4207
vt 0.8373 0.4988
vt 0.7905 0.5857
vt 0.875 0.3387
vt 0.9104 0.3309
vt 0.7926 0.6801
vt 0.8478 0.7251
vt 0.8395 0.3309
vt 0.875 0.2918
vt 0.9022 0.2726
vt 0.8478 0.2726
vt 0.7904 0.4988
vt 0.7501 0.6852
vt 0.7986 0.7456
vt 0.8173 0.7998
vt 0.875 0.765
vt 0.7016 0.7456
vt 0.6829 0.7998
vt 0.6252 0.765
vt 0.7501 0.7524
vt 0.7501 0.8107
vt 0.8173 0.7998
vt 0.6829 0.7998
vt 0.6252 0.8852
vt 0.7502 0.929
vt 0.7501 0.8107
vt 0.8173 0.7998
vt 0.875 0.8891
vt 0.6252 0.8852
vt 0.5003 0.9291
vt 0.6213 1.0029
vt 0.7502 0.929
vt 0.6829 0.7998
vt 0.5675 0.7998
vt 0.875 0.8891
vt 0.7502 0.929
vt 0.8766 1
vt 0.9995 0.9266
vt 0.9327 0.7998
vt 0.8173 0.7998
vt 0.1255 0.8852
vt 0.0006 0.9291
vt 0.131 0.9986
vt 0.2505 0.9291
vt 0.1832 0.7998
vt 0.0679 0.7998
vt 0.9995 0.9266
vt 0.9999 0.8107
vt 0.875 0.8891
vt 0.0006 0.8107
vt 0.0006 0.9291
vt 0.1255 0.8852
vt 0.1255 0.2918
vt 0.0901 0.3309
vt 0.0983 0.2726
vt 0.161 0.3309
vt 0.1528 0.2726
vt 0.3754 0.2918
vt 0.4026 0.2726
vt 0.3481 0.2726
vt 0.4108 0.3309
vt 0.3399 0.3309
vn -0.25687864 0.25687864 0.9316795
vn -0 0.26978934 0.9629194
vn -0 0 1
vn -0.26978934 0 0.9629194
vn -0.48610345 0.23706298 0.84113294
vn -0.44713503 0.44713503 0.7746874
vn -0.23706298 0.48610345 0.84113294
vn -0.5771996 0.5771996 0.57765156
vn -0.40956104 0.6448552 0.64530724
vn -0.6448552 0.40956104 0.64530724
vn -0.4467732 0.774844 0.4472254
vn -0.774844 0.4467732 0.4472254
vn -0.6450813 0.6450813 0.4095611
vn -0.48578414 0.8413628 0.23690173
vn -0.8413628 0.48578414 0.23690173
vn -0.68904185 0.68904185 0.22459418
vn -0.256788 0.9317606 0.25667498
vn -0.23679504 0.8413853 0.4857972
vn -0.40956104 0.6448552 0.64530724
vn -0.9317606 0.256788 0.25667498
vn -0.8413853 0.23679504 0.4857972
vn -0.6448552 0.40956104 0.64530724
vn -0.8651272 0.5014936 -0.007699884
vn -0.9638451 0.26637912 -0.0066977805
vn -0.5014936 0.8651272 -0.007699884
vn -0.26637912 0.9638451 -0.0066977805
vn -0 0.99998987 -0.0045002936
vn -0 0.9636893 0.267026
vn -0.7070836 0.7070836 -0.008098997
vn -0.6876841 0.6876841 -0.23276852
vn -0.48564866 0.8392588 -0.24452002
vn -0.8392588 0.48564866 -0.24452002
vn -0.25708655 0.92976236 -0.26353064
vn -0.64496183 0.64496183 -0.40993723
vn -0.4470567 0.77477777 -0.4470567
vn -0.23693974 0.8410457 -0.4863143
vn -0.40993723 0.64496183 -0.64496183
vn -0 0.9621485 -0.27252585
vn -0.92976236 0.25708655 -0.26353064
vn -0.77477777 0.4470567 -0.4470567
vn -0.9999865 0.002000124 -0.0048002973
vn -0.8410457 0.23693974 -0.4863143
vn -0.64496183 0.40993723 -0.64496183
vn -0.9636603 0 0.26713097
vn -0.9621485 0 -0.27252585
vn -0.6890244 0.22470152 -0.6890244
vn -0.8647446 0 -0.5022119
vn -0.4863143 0.23693974 -0.8410457
vn -0.4470567 0.4470567 -0.77477777
vn -0.92952085 -0.2584891 -0.2630101
vn -0.96586734 -0.25898084 -0.0053991405
vn -0.8410457 -0.23693974 -0.4863143
vn -0.70710677 0 -0.70710677
vn -0.5022119 0 -0.8647446
vn -0.6890244 -0.22470152 -0.6890244
vn -0.77477777 -0.4470567 -0.4470567
vn -0.64496183 -0.40993723 -0.64496183
vn -0.8387104 -0.48717546 -0.24336167
vn -0.4863143 -0.23693974 -0.8410457
vn -0.4470567 -0.4470567 -0.77477777
vn -0.86916834 -0.4944723 -0.006599127
vn -0.27252585 0 -0.9621485
vn -0.25717288 -0.25717288 -0.9315171
vn -0.25717288 0.25717288 -0.9315171
vn -0 0 -1
vn -0 0 -1
vn -0 -0.27252585 -0.9621485
vn -0 0.27252585 -0.9621485
vn -0.9312074 -0.25812852 0.25733703
vn -0.23693974 -0.4863143 -0.8410457
vn -0.23693974 0.4863143 -0.8410457
vn -0.22470152 0.6890244 -0.6890244
vn -0 0.5022119 -0.8647446
vn -0 0.8647446 -0.5022119
vn -0 0.70710677 -0.70710677
vn 0.22470152 0.6890244 -0.6890244
vn 0.23693974 0.4863143 -0.8410457
vn 0.23693974 0.8410457 -0.4863143
vn 0.25717288 0.25717288 -0.9315171
vn -0 0 -1
vn 0.27252585 0 -0.9621485
vn 0.40993723 0.64496183 -0.64496183
vn 0.4470567 0.4470567 -0.77477777
vn 0.4470567 0.77477777 -0.4470567
vn 0.25708655 0.92976236 -0.26353064
vn 0.4863143 0.23693974 -0.8410457
vn 0.5022119 0 -0.8647446
vn 0.48564866 0.8392588 -0.24452002
vn 0.64496183 0.64496183 -0.40993723
vn 0.26637912 0.9638451 -0.0066977805
vn 0.6890244 0.22470152 -0.6890244
vn 0.70710677 0 -0.70710677
vn 0.8647446 0 -0.5022119
vn 0.64496183 0.40993723 -0.64496183
vn 0.8410457 0.23693974 -0.4863143
vn 0.9621485 0 -0.27252585
vn 0.77477777 0.4470567 -0.4470567
vn 0.92976236 0.25708655 -0.26353064
vn 0.9999865 0.002000124 -0.0048002973
vn 0.8392588 0.48564866 -0.24452002
vn 0.9638451 0.26637912 -0.0066977805
vn 0.9317606 0.256788 0.25667498
vn 0.9636893 0 0.267026
vn 0.8413628 0.23690173 0.48578414
vn 0.8651528 0 0.50150836
vn 0.68904185 0.22459418 0.68904185
vn 0.7073328 0 0.70688075
vn 0.50187373 0 0.86494094
vn 0.48610345 0.23706298 0.84113294
vn 0.6448552 0.40956104 0.64530724
vn 0.48610345 0.237063 0.84113294
vn 0.44713503 0.44713503 0.7746874
vn 0.774844 0.4467732 0.4472254
vn 0.8413628 0.48578414 0.23690173
vn 0.8651272 0.5014936 -0.007699884
vn 0.6876841 0.6876841 -0.23276852
vn 0.6450813 0.6450813 0.4095611
vn 0.68904185 0.68904185 0.22459418
vn 0.7070836 0.7070836 -0.008098997
vn 0.5014936 0.8651272 -0.007699884
vn 0.48578414 0.8413628 0.23690173
vn 0.5771996 0.5771996 0.57765156
vn 0.6448552 0.40956104 0.64530724
vn 0.44713503 0.44713503 0.7746874
vn 0.40956104 0.6448552 0.64530724
vn 0.4467732 0.774844 0.4472254
vn 0.256788 0.9317606 0.25667498
vn 0.23679504 0.8413853 0.4857972
vn 0.40956104 0.6448552 0.64530724
vn -0 0.8651528 0.50150836
vn 0.22459418 0.68904185 0.68904185
vn 0.237063 0.48610345 0.84113294
vn 0.44713503 0.44713503 0.7746874
vn -0.22459418 0.68904185 0.68904185
vn -0.237063 0.48610345 0.84113294
vn -0.44713503 0.44713503 0.7746874
vn -0 0.7073328 0.70688075
vn -0 0.50187373 0.86494094
vn 0.23706298 0.48610345 0.84113294
vn -0.23706298 0.48610345 0.84113294
vn -0 0.26978934 0.9629194
vn 0.25687864 0.25687864 0.9316795
vn -0.25687864 0.25687864 0.9316795
vn -0.6448552 -0.40956104 0.64530724
vn -0.48610345 -0.237063 0.84113294
vn -0.44713503 -0.44713503 0.7746874
vn -0.68904185 -0.22459418 0.68904185
vn -0.8413628 -0.23690173 0.48578414
vn -0.774844 -0.4467732 0.4472254
vn -0.8651528 0 0.50150836
vn -0.68904185 0.22459418 0.68904185
vn -0.48610345 0.237063 0.84113294
vn -0.44713503 0.44713503 0.7746874
vn -0.7073328 0 0.70688075
vn -0.50187373 0 0.86494094
vn -0.48610345 -0.23706298 0.84113294
vn -0.48610345 0.23706298 0.84113294
vn -0.26978934 0 0.9629194
vn -0.25687864 -0.25687864 0.9316795
vn -0.25687864 0.25687864 0.9316795
vn -0.5771996 -0.5771996 0.57765156
vn -0.6448552 -0.40956104 0.64530724
vn -0.44713503 -0.44713503 0.7746874
vn -0.40956104 -0.6448552 0.64530724
vn -0.4467732 -0.774844 0.4472254
vn -0.6450813 -0.6450813 0.4095611
vn -0.8406757 -0.48700434 0.23683552
vn -0.68909436 -0.68909436 0.22427218
vn -0.7070894 -0.7070894 -0.0069986572
vn -0.48700434 -0.8406757 0.23683552
vn -0.4944723 -0.86916834 -0.006599127
vn -0.6879186 -0.6879186 -0.23137845
vn -0.25812852 -0.9312074 0.25733703
vn -0.48717546 -0.8387104 -0.24336164
vn -0.64496183 -0.64496183 -0.40993723
vn -0.77477777 -0.4470567 -0.4470567
vn -0.4470567 -0.77477777 -0.4470567
vn -0.57735026 -0.57735026 -0.57735026
vn -0.64496183 -0.40993723 -0.64496183
vn -0.40993723 -0.64496183 -0.64496183
vn -0.23690173 -0.8413628 0.48578414
vn -0.40956104 -0.6448552 0.64530724
vn -0.25898084 -0.96586734 -0.0053991405
vn -0.2584891 -0.92952085 -0.2630101
vn -0.48717546 -0.8387104 -0.24336167
vn -0.4470567 -0.77477777 -0.4470567
vn -0.23693974 -0.8410457 -0.4863143
vn -0.40993723 -0.64496183 -0.64496183
vn -0 -0.9621485 -0.27252585
vn -0 -0.9999865 -0.0052003223
vn -0 -0.9636893 0.267026
vn -0 -0.9636893 0.267026
vn -0.22470152 -0.6890244 -0.6890244
vn -0 -0.8647446 -0.5022119
vn -0 -0.5022119 -0.8647446
vn -0 -0.70710677 -0.70710677
vn 0.22470152 -0.6890244 -0.6890244
vn 0.23693974 -0.8410457 -0.4863143
vn 0.2584891 -0.92952085 -0.2630101
vn 0.23693974 -0.4863143 -0.8410457
vn 0.40993723 -0.64496183 -0.64496183
vn 0.4470567 -0.77477777 -0.4470567
vn 0.4470567 -0.4470567 -0.77477777
vn 0.48717546 -0.8387104 -0.24336167
vn 0.25717288 -0.25717288 -0.9315171
vn -0 0 -1
vn 0.27252585 0 -0.9621485
vn 0.4863143 -0.23693974 -0.8410457
vn 0.5022119 0 -0.8647446
vn 0.6890244 -0.22470152 -0.6890244
vn 0.70710677 0 -0.70710677
vn 0.8647446 0 -0.5022119
vn 0.64496183 -0.40993723 -0.64496183
vn 0.8410457 -0.23693974 -0.4863143
vn 0.77477777 -0.4470567 -0.4470567
vn 0.9621485 0 -0.27252585
vn 0.92952085 -0.2584891 -0.2630101
vn 0.8387104 -0.48717546 -0.24336167
vn 0.86916834 -0.4944723 -0.006599127
vn 0.96586734 -0.25898084 -0.0053991405
vn 0.9999865 0.002000124 -0.0048002973
vn 0.9312074 -0.25812852 0.25733703
vn 0.9636893 0 0.267026
vn 0.8413628 -0.23690173 0.48578414
vn 0.8651528 0 0.50150836
vn 0.68904185 -0.22459418 0.68904185
vn 0.7073328 0 0.70688075
vn 0.50187373 0 0.86494094
vn 0.48610345 -0.23706298 0.84113294
vn 0.6448552 -0.40956104 0.64530724
vn 0.48610345 -0.237063 0.84113294
vn 0.44713503 -0.44713503 0.7746874
vn 0.774844 -0.4467732 0.4472254
vn 0.8406757 -0.48700434 0.23683552
vn 0.68909436 -0.68909436 0.22427218
vn 0.6450813 -0.6450813 0.4095611
vn 0.7070894 -0.7070894 -0.0069986572
vn 0.8387104 -0.48717546 -0.24336164
vn 0.5771996 -0.5771996 0.57765156
vn 0.6448552 -0.40956104 0.64530724
vn 0.44713503 -0.44713503 0.7746874
vn 0.40956104 -0.6448552 0.64530724
vn 0.4467732 -0.774844 0.4472254
vn 0.48700434 -0.8406757 0.23683552
vn 0.6879186 -0.6879186 -0.23137845
vn 0.4944723 -0.86916834 -0.006599127
vn 0.25812852 -0.9312074 0.25733703
vn 0.64496183 -0.64496183 -0.40993723
vn 0.77477777 -0.4470567 -0.4470567
vn 0.23690173 -0.8413628 0.48578414
vn 0.40956104 -0.6448552 0.64530724
vn 0.4470567 -0.77477777 -0.4470567
vn 0.57735026 -0.57735026 -0.57735026
vn 0.64496183 -0.40993723 -0.64496183
vn 0.40993723 -0.64496183 -0.64496183
vn 0.25898084 -0.96586734 -0.0053991405
vn -0 -0.8651528 0.50150836
vn 0.22459418 -0.68904185 0.68904185
vn 0.237063 -0.48610345 0.84113294
vn 0.44713503 -0.44713503 0.7746874
vn -0.22459418 -0.68904185 0.68904185
vn -0.237063 -0.48610345 0.84113294
vn -0.44713503 -0.44713503 0.7746874
vn -0 -0.7073328 0.70688075
vn -0 -0.50187373 0.86494094
vn 0.23706298 -0.48610345 0.84113294
vn -0.23706298 -0.48610345 0.84113294
vn -0.25687864 -0.25687864 0.9316795
vn -0 -0.26978934 0.9629194
vn -0 -0.50187373 0.86494094
vn 0.237063 -0.48610345 0.84113294
vn 0.25687864 -0.25687864 0.9316795
vn -0.25687864 -0.25687864 0.9316795
vn -0.26978934 0 0.9629194
vn -0 0 1
vn -0 -0.26978934 0.9629194
vn -0.23706298 -0.48610345 0.84113294
vn -0.48610345 -0.23706298 0.84113294
vn 0.25687864 -0.25687864 0.9316795
vn -0 -0.26978934 0.9629194
vn -0 0 1
vn 0.26978934 0 0.9629194
vn 0.48610345 -0.23706298 0.84113294
vn 0.23706298 -0.48610345 0.84113294
vn 0.25687864 0.25687864 0.9316795
vn 0.26978934 0 0.9629194
vn -0 0 1
vn -0 0.26978934 0.9629194
vn 0.23706298 0.48610345 0.84113294
vn 0.48610345 0.23706298 0.84113294
vn 0.26978934 0 0.9629194
vn 0.50187373 0 0.86494094
vn 0.25687864 -0.25687864 0.9316795
vn 0.50187373 0 0.86494094
vn 0.26978934 0 0.9629194
vn 0.25687864 0.25687864 0.9316795
vn 0.57735026 0.57735026 -0.57735026
vn 0.77477777 0.4470567 -0.4470567
vn 0.64496183 0.40993723 -0.64496183
vn 0.4470567 0.77477777 -0.4470567
vn 0.40993723 0.64496183 -0.64496183
vn -0.57735026 0.57735026 -0.57735026
vn -0.64496183 0.40993723 -0.64496183
vn -0.40993723 0.64496183 -0.64496183
vn -0.77477777 0.4470567 -0.4470567
vn -0.4470567 0.77477777 -0.4470567
g S_wpn_funnel_0008_02_lod0_0
f 3/3/3 2/2/2 1/1/1
f 4/4/4 3/3/3 1/1/1
f 6/6/6 5/5/5 1/1/1
f 7/7/7 6/6/6 1/1/1
f 6/6/6 9/9/9 8/8/8
f 10/10/10 6/6/6 8/8/8
f 9/9/9 11/11/11 8/8/8
f 12/12/12 10/10/10 8/8/8
f 11/11/11 13/13/13 8/8/8
f 13/13/13 12/12/12 8/8/8
f 13/13/13 11/11/11 14/14/14
f 15/15/15 12/12/12 13/13/13
f 16/16/16 13/13/13 14/14/14
f 16/16/16 15/15/15 13/13/13
f 14/14/14 11/11/11 17/17/17
f 11/11/11 18/18/18 17/17/17
f 18/18/18 11/11/11 19/19/19
f 12/12/12 15/15/15 20/20/20
f 21/21/21 12/12/12 20/20/20
f 12/12/12 21/21/21 22/22/22
f 23/23/23 15/15/15 16/16/16
f 24/24/24 20/20/20 15/15/15
f 23/23/23 24/24/24 15/15/15
f 14/14/14 25/25/25 16/16/16
f 17/17/17 26/26/26 14/14/14
f 26/26/26 25/25/25 14/14/14
f 27/27/27 26/26/26 17/17/17
f 17/17/17 18/18/18 28/28/28
f 28/28/28 27/27/27 17/17/17
f 29/29/29 23/23/23 16/16/16
f 25/25/25 29/29/29 16/16/16
f 23/23/23 29/29/29 30/30/30
f 29/29/29 25/25/25 30/30/30
f 25/25/25 26/26/26 31/31/31
f 25/25/25 31/31/31 30/30/30
f 32/32/32 23/23/23 30/30/30
f 24/24/24 23/23/23 32/32/32
f 26/26/26 27/27/27 33/33/33
f 26/26/26 33/33/33 31/31/31
f 30/30/30 31/31/31 34/34/34
f 30/30/30 34/34/34 32/32/32
f 31/31/31 33/33/33 35/35/35
f 31/31/31 35/35/35 34/34/34
f 33/33/33 36/36/36 35/35/35
f 35/35/35 36/36/36 37/37/37
f 27/27/27 38/38/38 33/33/33
f 33/33/33 38/38/38 36/36/36
f 39/39/39 24/24/24 32/32/32
f 34/34/34 40/40/40 32/32/32
f 32/32/32 40/40/40 39/39/39
f 41/41/41 24/24/24 39/39/39
f 24/24/24 41/41/41 20/20/20
f 40/40/40 42/42/42 39/39/39
f 42/42/42 40/40/40 43/43/43
f 41/41/41 44/44/44 20/20/20
f 20/20/20 44/44/44 21/21/21
f 45/45/45 41/41/41 39/39/39
f 39/39/39 42/42/42 45/45/45
f 46/46/46 42/42/42 43/43/43
f 42/42/42 47/47/47 45/45/45
f 47/47/47 42/42/42 46/46/46
f 46/46/46 43/43/43 48/48/48
f 43/43/43 49/49/49 48/48/48
f 41/41/41 45/45/45 50/50/50
f 41/41/41 51/51/51 44/44/44
f 51/51/51 41/41/41 50/50/50
f 45/45/45 47/47/47 52/52/52
f 50/50/50 45/45/45 52/52/52
f 53/53/53 47/47/47 46/46/46
f 54/54/54 53/53/53 46/46/46
f 48/48/48 54/54/54 46/46/46
f 47/47/47 53/53/53 55/55/55
f 52/52/52 47/47/47 55/55/55
f 53/53/53 54/54/54 55/55/55
f 52/52/52 56/56/56 50/50/50
f 56/56/56 52/52/52 57/57/57
f 52/52/52 55/55/55 57/57/57
f 56/56/56 58/58/58 50/50/50
f 55/55/55 59/59/59 57/57/57
f 54/54/54 59/59/59 55/55/55
f 59/59/59 60/60/60 57/57/57
f 51/51/51 50/50/50 61/61/61
f 50/50/50 58/58/58 61/61/61
f 62/62/62 54/54/54 48/48/48
f 54/54/54 62/62/62 59/59/59
f 59/59/59 63/63/63 60/60/60
f 62/62/62 63/63/63 59/59/59
f 64/64/64 62/62/62 48/48/48
f 48/48/48 49/49/49 64/64/64
f 62/62/62 65/65/65 63/63/63
f 66/66/66 62/62/62 64/64/64
f 65/65/65 67/67/67 63/63/63
f 68/68/68 66/66/66 64/64/64
f 51/51/51 61/61/61 69/69/69
f 51/51/51 69/69/69 44/44/44
f 63/63/63 70/70/70 60/60/60
f 63/63/63 67/67/67 70/70/70
f 49/49/49 71/71/71 64/64/64
f 64/64/64 71/71/71 68/68/68
f 71/71/71 49/49/49 37/37/37
f 72/72/72 71/71/71 37/37/37
f 36/36/36 72/72/72 37/37/37
f 71/71/71 73/73/73 68/68/68
f 73/73/73 71/71/71 72/72/72
f 36/36/36 74/74/74 72/72/72
f 38/38/38 74/74/74 36/36/36
f 75/75/75 73/73/73 72/72/72
f 74/74/74 75/75/75 72/72/72
f 73/73/73 75/75/75 76/76/76
f 75/75/75 74/74/74 76/76/76
f 68/68/68 73/73/73 77/77/77
f 77/77/77 73/73/73 76/76/76
f 78/78/78 74/74/74 38/38/38
f 74/74/74 78/78/78 76/76/76
f 79/79/79 68/68/68 77/77/77
f 80/80/80 68/68/68 79/79/79
f 81/81/81 80/80/80 79/79/79
f 77/77/77 76/76/76 82/82/82
f 76/76/76 78/78/78 82/82/82
f 83/83/83 77/77/77 82/82/82
f 79/79/79 77/77/77 83/83/83
f 78/78/78 84/84/84 82/82/82
f 85/85/85 78/78/78 38/38/38
f 84/84/84 78/78/78 85/85/85
f 38/38/38 27/27/27 85/85/85
f 81/81/81 79/79/79 86/86/86
f 86/86/86 79/79/79 83/83/83
f 87/87/87 81/81/81 86/86/86
f 88/88/88 84/84/84 85/85/85
f 89/89/89 84/84/84 88/88/88
f 27/27/27 90/90/90 85/85/85
f 85/85/85 90/90/90 88/88/88
f 87/87/87 86/86/86 91/91/91
f 92/92/92 87/87/87 91/91/91
f 93/93/93 92/92/92 91/91/91
f 86/86/86 83/83/83 94/94/94
f 91/91/91 86/86/86 94/94/94
f 95/95/95 93/93/93 91/91/91
f 95/95/95 91/91/91 94/94/94
f 96/96/96 93/93/93 95/95/95
f 97/97/97 95/95/95 94/94/94
f 98/98/98 96/96/96 95/95/95
f 95/95/95 97/97/97 98/98/98
f 99/99/99 96/96/96 98/98/98
f 97/97/97 100/100/100 98/98/98
f 100/100/100 97/97/97 89/89/89
f 101/101/101 99/99/99 98/98/98
f 101/101/101 98/98/98 100/100/100
f 99/99/99 101/101/101 102/102/102
f 103/103/103 99/99/99 102/102/102
f 102/102/102 104/104/104 103/103/103
f 104/104/104 105/105/105 103/103/103
f 105/105/105 104/104/104 106/106/106
f 107/107/107 105/105/105 106/106/106
f 108/108/108 107/107/107 106/106/106
f 109/109/109 108/108/108 106/106/106
f 106/106/106 104/104/104 110/110/110
f 111/111/111 106/106/106 110/110/110
f 112/112/112 111/111/111 110/110/110
f 104/104/104 113/113/113 110/110/110
f 113/113/113 104/104/104 102/102/102
f 102/102/102 101/101/101 114/114/114
f 114/114/114 113/113/113 102/102/102
f 101/101/101 115/115/115 114/114/114
f 115/115/115 101/101/101 100/100/100
f 115/115/115 100/100/100 116/116/116
f 116/116/116 100/100/100 89/89/89
f 117/117/117 113/113/113 114/114/114
f 114/114/114 115/115/115 118/118/118
f 118/118/118 117/117/117 114/114/114
f 119/119/119 115/115/115 116/116/116
f 115/115/115 119/119/119 118/118/118
f 120/120/120 119/119/119 116/116/116
f 119/119/119 120/120/120 118/118/118
f 116/116/116 89/89/89 88/88/88
f 88/88/88 120/120/120 116/116/116
f 90/90/90 120/120/120 88/88/88
f 120/120/120 121/121/121 118/118/118
f 120/120/120 90/90/90 121/121/121
f 118/118/118 121/121/121 117/117/117
f 113/113/113 117/117/117 122/122/122
f 123/123/123 113/113/113 122/122/122
f 124/124/124 123/123/123 122/122/122
f 125/125/125 124/124/124 122/122/122
f 126/126/126 125/125/125 122/122/122
f 117/117/117 126/126/126 122/122/122
f 121/121/121 126/126/126 117/117/117
f 90/90/90 127/127/127 121/121/121
f 121/121/121 127/127/127 126/126/126
f 90/90/90 27/27/27 127/127/127
f 27/27/27 28/28/28 127/127/127
f 127/127/127 128/128/128 126/126/126
f 127/127/127 28/28/28 128/128/128
f 126/126/126 128/128/128 129/129/129
f 28/28/28 130/130/130 128/128/128
f 18/18/18 130/130/130 28/28/28
f 128/128/128 131/131/131 129/129/129
f 128/128/128 130/130/130 131/131/131
f 131/131/131 132/132/132 129/129/129
f 132/132/132 133/133/133 129/129/129
f 130/130/130 18/18/18 134/134/134
f 134/134/134 18/18/18 19/19/19
f 134/134/134 19/19/19 135/135/135
f 19/19/19 136/136/136 135/135/135
f 130/130/130 137/137/137 131/131/131
f 137/137/137 130/130/130 134/134/134
f 137/137/137 138/138/138 131/131/131
f 138/138/138 137/137/137 134/134/134
f 138/138/138 139/139/139 131/131/131
f 140/140/140 138/138/138 134/134/134
f 138/138/138 141/141/141 139/139/139
f 141/141/141 138/138/138 140/140/140
f 141/141/141 142/142/142 139/139/139
f 143/143/143 141/141/141 140/140/140
f 146/146/146 145/145/145 144/144/144
f 145/145/145 147/147/147 144/144/144
f 147/147/147 148/148/148 144/144/144
f 148/148/148 149/149/149 144/144/144
f 150/150/150 148/148/148 147/147/147
f 148/148/148 150/150/150 44/44/44
f 69/69/69 148/148/148 44/44/44
f 149/149/149 148/148/148 69/69/69
f 44/44/44 150/150/150 21/21/21
f 21/21/21 150/150/150 151/151/151
f 21/21/21 151/151/151 22/22/22
f 151/151/151 152/152/152 22/22/22
f 152/152/152 153/153/153 22/22/22
f 154/154/154 150/150/150 147/147/147
f 150/150/150 154/154/154 151/151/151
f 155/155/155 154/154/154 147/147/147
f 154/154/154 155/155/155 151/151/151
f 156/156/156 155/155/155 147/147/147
f 155/155/155 157/157/157 151/151/151
f 158/158/158 155/155/155 156/156/156
f 157/157/157 155/155/155 158/158/158
f 159/159/159 158/158/158 156/156/156
f 160/160/160 157/157/157 158/158/158
f 162/162/162 149/149/149 161/161/161
f 163/163/163 162/162/162 161/161/161
f 164/164/164 163/163/163 161/161/161
f 165/165/165 164/164/164 161/161/161
f 149/149/149 166/166/166 161/161/161
f 166/166/166 165/165/165 161/161/161
f 166/166/166 149/149/149 167/167/167
f 167/167/167 149/149/149 69/69/69
f 61/61/61 167/167/167 69/69/69
f 168/168/168 166/166/166 167/167/167
f 61/61/61 169/169/169 167/167/167
f 169/169/169 168/168/168 167/167/167
f 168/168/168 170/170/170 166/166/166
f 170/170/170 165/165/165 166/166/166
f 171/171/171 170/170/170 168/168/168
f 169/169/169 171/171/171 168/168/168
f 169/169/169 61/61/61 172/172/172
f 61/61/61 58/58/58 172/172/172
f 170/170/170 173/173/173 165/165/165
f 173/173/173 170/170/170 171/171/171
f 169/169/169 172/172/172 174/174/174
f 171/171/171 169/169/169 174/174/174
f 172/172/172 58/58/58 175/175/175
f 172/172/172 175/175/175 174/174/174
f 58/58/58 176/176/176 175/175/175
f 175/175/175 177/177/177 174/174/174
f 175/175/175 176/176/176 178/178/178
f 177/177/177 175/175/175 178/178/178
f 176/176/176 179/179/179 178/178/178
f 180/180/180 177/177/177 178/178/178
f 179/179/179 60/60/60 178/178/178
f 60/60/60 180/180/180 178/178/178
f 173/173/173 181/181/181 165/165/165
f 165/165/165 181/181/181 182/182/182
f 183/183/183 173/173/173 171/171/171
f 183/183/183 171/171/171 184/184/184
f 171/171/171 185/185/185 184/184/184
f 185/185/185 186/186/186 184/184/184
f 186/186/186 187/187/187 184/184/184
f 187/187/187 186/186/186 188/188/188
f 60/60/60 70/70/70 188/188/188
f 183/183/183 184/184/184 189/189/189
f 184/184/184 187/187/187 189/189/189
f 183/183/183 190/190/190 173/173/173
f 190/190/190 183/183/183 189/189/189
f 190/190/190 191/191/191 173/173/173
f 173/173/173 192/192/192 181/181/181
f 70/70/70 193/193/193 188/188/188
f 193/193/193 187/187/187 188/188/188
f 187/187/187 194/194/194 189/189/189
f 194/194/194 187/187/187 193/193/193
f 70/70/70 195/195/195 193/193/193
f 67/67/67 195/195/195 70/70/70
f 196/196/196 194/194/194 193/193/193
f 195/195/195 196/196/196 193/193/193
f 194/194/194 196/196/196 197/197/197
f 196/196/196 195/195/195 197/197/197
f 189/189/189 194/194/194 198/198/198
f 198/198/198 194/194/194 197/197/197
f 190/190/190 189/189/189 199/199/199
f 199/199/199 189/189/189 198/198/198
f 200/200/200 195/195/195 67/67/67
f 195/195/195 200/200/200 197/197/197
f 198/198/198 197/197/197 201/201/201
f 197/197/197 200/200/200 201/201/201
f 202/202/202 198/198/198 201/201/201
f 199/199/199 198/198/198 202/202/202
f 200/200/200 203/203/203 201/201/201
f 204/204/204 199/199/199 202/202/202
f 205/205/205 200/200/200 67/67/67
f 203/203/203 200/200/200 205/205/205
f 67/67/67 206/206/206 205/205/205
f 206/206/206 207/207/207 205/205/205
f 205/205/205 207/207/207 208/208/208
f 208/208/208 203/203/203 205/205/205
f 207/207/207 209/209/209 208/208/208
f 208/208/208 209/209/209 210/210/210
f 209/209/209 211/211/211 210/210/210
f 211/211/211 212/212/212 210/210/210
f 213/213/213 203/203/203 208/208/208
f 210/210/210 213/213/213 208/208/208
f 212/212/212 214/214/214 210/210/210
f 210/210/210 214/214/214 213/213/213
f 214/214/214 215/215/215 213/213/213
f 214/214/214 212/212/212 216/216/216
f 215/215/215 214/214/214 217/217/217
f 217/217/217 214/214/214 216/216/216
f 218/218/218 215/215/215 217/217/217
f 219/219/219 218/218/218 217/217/217
f 220/220/220 217/217/217 216/216/216
f 220/220/220 219/219/219 217/217/217
f 221/221/221 220/220/220 216/216/216
f 220/220/220 221/221/221 222/222/222
f 220/220/220 222/222/222 219/219/219
f 221/221/221 223/223/223 222/222/222
f 222/222/222 223/223/223 224/224/224
f 223/223/223 225/225/225 224/224/224
f 224/224/224 225/225/225 226/226/226
f 225/225/225 227/227/227 226/226/226
f 227/227/227 228/228/228 226/226/226
f 228/228/228 229/229/229 226/226/226
f 224/224/224 226/226/226 230/230/230
f 226/226/226 231/231/231 230/230/230
f 231/231/231 232/232/232 230/230/230
f 233/233/233 224/224/224 230/230/230
f 224/224/224 233/233/233 222/222/222
f 222/222/222 234/234/234 219/219/219
f 233/233/233 234/234/234 222/222/222
f 219/219/219 234/234/234 235/235/235
f 234/234/234 233/233/233 236/236/236
f 235/235/235 234/234/234 236/236/236
f 237/237/237 219/219/219 235/235/235
f 219/219/219 237/237/237 238/238/238
f 236/236/236 233/233/233 239/239/239
f 233/233/233 240/240/240 239/239/239
f 240/240/240 241/241/241 239/239/239
f 241/241/241 242/242/242 239/239/239
f 242/242/242 243/243/243 239/239/239
f 243/243/243 236/236/236 239/239/239
f 235/235/235 236/236/236 244/244/244
f 237/237/237 235/235/235 244/244/244
f 236/236/236 243/243/243 244/244/244
f 237/237/237 245/245/245 238/238/238
f 246/246/246 237/237/237 244/244/244
f 237/237/237 246/246/246 245/245/245
f 244/244/244 243/243/243 247/247/247
f 246/246/246 244/244/244 247/247/247
f 245/245/245 248/248/248 238/238/238
f 248/248/248 249/249/249 238/238/238
f 243/243/243 250/250/250 247/247/247
f 250/250/250 243/243/243 251/251/251
f 246/246/246 204/204/204 245/245/245
f 245/245/245 204/204/204 248/248/248
f 199/199/199 204/204/204 246/246/246
f 204/204/204 252/252/252 248/248/248
f 249/249/249 248/248/248 253/253/253
f 248/248/248 252/252/252 253/253/253
f 254/254/254 249/249/249 253/253/253
f 252/252/252 255/255/255 253/253/253
f 203/203/203 254/254/254 253/253/253
f 255/255/255 203/203/203 253/253/253
f 256/256/256 199/199/199 246/246/246
f 256/256/256 246/246/246 247/247/247
f 256/256/256 190/190/190 199/199/199
f 190/190/190 256/256/256 192/192/192
f 256/256/256 247/247/247 192/192/192
f 247/247/247 250/250/250 192/192/192
f 250/250/250 257/257/257 192/192/192
f 192/192/192 257/257/257 181/181/181
f 257/257/257 250/250/250 258/258/258
f 258/258/258 250/250/250 251/251/251
f 258/258/258 251/251/251 259/259/259
f 251/251/251 260/260/260 259/259/259
f 181/181/181 257/257/257 261/261/261
f 181/181/181 261/261/261 182/182/182
f 261/261/261 262/262/262 182/182/182
f 262/262/262 263/263/263 182/182/182
f 264/264/264 257/257/257 258/258/258
f 257/257/257 264/264/264 261/261/261
f 265/265/265 264/264/264 258/258/258
f 264/264/264 265/265/265 261/261/261
f 266/266/266 265/265/265 258/258/258
f 265/265/265 267/267/267 261/261/261
f 269/269/269 268/268/268 267/267/267
f 270/270/270 269/269/269 267/267/267
f 269/269/269 270/270/270 271/271/271
f 272/272/272 269/269/269 271/271/271
f 275/275/275 274/274/274 273/273/273
f 276/276/276 275/275/275 273/273/273
f 163/163/163 277/277/277 273/273/273
f 278/278/278 163/163/163 273/273/273
f 281/281/281 280/280/280 279/279/279
f 282/282/282 281/281/281 279/279/279
f 241/241/241 283/283/283 279/279/279
f 284/284/284 241/241/241 279/279/279
f 287/287/287 286/286/286 285/285/285
f 288/288/288 287/287/287 285/285/285
f 124/124/124 289/289/289 285/285/285
f 290/290/290 124/124/124 285/285/285
f 229/229/229 292/292/292 291/291/291
f 293/293/293 229/229/229 291/291/291
f 295/295/295 294/294/294 109/109/109
f 296/296/296 295/295/295 109/109/109
f 89/89/89 298/298/298 297/297/297
f 298/298/298 299/299/299 297/297/297
f 300/300/300 89/89/89 297/297/297
f 299/299/299 83/83/83 297/297/297
f 301/301/301 300/300/300 297/297/297
f 83/83/83 301/301/301 297/297/297
f 49/49/49 303/303/303 302/302/302
f 304/304/304 49/49/49 302/302/302
f 303/303/303 305/305/305 302/302/302
f 306/306/306 304/304/304 302/302/302
f 305/305/305 34/34/34 302/302/302
f 34/34/34 306/306/306 302/302/302
