g S_wpn_misc_0025_02_lod0
v 0.045652263 -0.13754594 0.20717166
v 0.023958385 -0.13754593 0.20520592
v 0.03647854 -0.13754594 0.22303104
v 0.05817244 -0.13754594 0.22499679
v -0.045652263 -0.13754594 0.20717166
v -0.05817244 -0.13754594 0.22499679
v -0.03647854 -0.13754594 0.22303104
v -0.023958385 -0.13754593 0.20520592
v 0.101169534 -0.14465003 0.097578526
v 0.0074183303 -0.14708194 0.09657793
v 0.0064704395 -0.14689064 0.17432605
v 0.09980941 -0.1443715 0.21182567
v -0.101169534 -0.14465003 0.097578526
v -0.09980941 -0.1443715 0.21182567
v -0.0064704395 -0.14689064 0.17432605
v -0.0074183303 -0.14708194 0.09657793
vt 0.83645 0.7044169
vt 0.7722802 0.70441693
vt 0.81268907 0.75428516
vt 0.87685853 0.7542851
vt 0.83645 0.7044169
vt 0.8768585 0.7542851
vt 0.81268907 0.75428516
vt 0.7722802 0.70441693
vt 0.9881276 0.76124644
vt 0.8375522 0.76124644
vt 0.8375522 0.88037014
vt 0.9881277 0.9417041
vt 0.9881276 0.76124644
vt 0.9881277 0.9417041
vt 0.8375522 0.88037014
vt 0.8375522 0.76124644
vn -0 -1 0
vn -0 -1 0
vn -0 -1 0
vn -0 -1 0
vn -0 -1 0
vn -0 -1 0
vn -0 -1 0
vn -0 -1 0
vn 0.02589276 -0.99966085 0.002765709
vn 0.025886806 -0.9996611 0.00276571
vn 0.025886806 -0.9996611 0.00276571
vn 0.02589276 -0.99966085 0.002765709
vn -0.02589276 -0.99966085 0.002765709
vn -0.02589276 -0.99966085 0.002765709
vn -0.025886806 -0.9996611 0.00276571
vn -0.025886806 -0.9996611 0.00276571
g S_wpn_misc_0025_02_lod0_0
f 3/3/3 2/2/2 1/1/1
f 4/4/4 3/3/3 1/1/1
f 7/7/7 6/6/6 5/5/5
f 8/8/8 7/7/7 5/5/5
f 11/11/11 10/10/10 9/9/9
f 12/12/12 11/11/11 9/9/9
f 15/15/15 14/14/14 13/13/13
f 16/16/16 15/15/15 13/13/13
