g S_wpn_funnel_0009_02_lod0
v 0.0052692154 0.005269219 0.020230405
v 0.005432332 3.4107466E-09 0.020935012
v -0 3.542396E-09 0.02174307
v -0 0.0054323357 0.020935012
v 0.010992949 0.00491959 0.017910419
v 0.011303396 3.0069347E-09 0.018456433
v 0.014968538 0.0047375564 0.014929313
v 0.015380656 2.4994298E-09 0.015341389
v 0.018493438 1.8351808E-09 0.011264258
v 0.017947253 0.0049195886 0.010954375
v 0.020969233 8.7913776E-10 0.0053961086
v 0.013723443 0.009712936 0.013685523
v 0.010186585 0.010186587 0.016101656
v 0.020262977 0.0052692164 0.0052329046
v 0.02174307 0 0
v 0.016139664 0.0101865865 0.010152578
v 0.004919544 0.010992951 0.017910417
v 0.012560319 0.012560322 0.012519658
v 0.009712977 0.013723446 0.013685522
v 0.020969233 0.005432332 -3.844263E-05
v 0.017947253 0.01099295 0.0048833615
v 0.013723443 0.013723444 0.009680144
v 0.010186585 0.016139664 0.0101525765
v 0.020204704 0.005251603 -0.005251604
v 0.020908704 -8.820354E-10 -0.0054138945
v 0.017889155 0.004903104 -0.010954509
v 0.018434254 -1.8351027E-09 -0.01126378
v 0.014918572 0.004721767 -0.014918574
v 0.0153295165 -2.4974953E-09 -0.0153295165
v 0.01126378 -3.0033214E-09 -0.018434254
v 0.010954508 0.004903103 -0.017889157
v 0.0054139374 -3.40646E-09 -0.020908704
v 0.013676956 0.009683492 -0.013676958
v 0.016087089 0.010154665 -0.010154668
v 0.017889155 0.010954506 -0.004903108
v 0.0052516037 0.0052516 -0.020204704
v -0 -3.542396E-09 -0.02174307
v -0 0.005413891 -0.020908704
v 0.010154666 0.0101546645 -0.01608709
v 0.0125164855 0.012516483 -0.012516487
v 0.004903106 0.010954505 -0.017889157
v 0.018493438 0.011303396 -3.8443588E-05
v 0.013676956 0.013676955 -0.009683496
v 0.0096834935 0.013676954 -0.013676959
v 0.014968538 0.01496854 0.00470098
v 0.014918572 0.014918571 -0.0047217715
v 0.010154666 0.016087089 -0.010154625
v 0.010992949 0.017947255 0.00488336
v 0.015380656 0.015380656 -3.8444254E-05
v 0.011303396 0.018493438 -3.844476E-05
v 0.010954508 0.017889155 -0.004903109
v 0.005432332 0.020969233 -3.8445163E-05
v 0.0052692154 0.020262977 0.0052329013
v -0 0.02174307 -3.542396E-09
v 0.0052516037 0.020204704 -0.0052516074
v 0.004903106 0.017889155 -0.0109545095
v 0.004919544 0.017947255 0.0109543735
v -0 0.020908704 -0.005413941
v 0.004721769 0.01491857 -0.014918575
v -0 0.020969233 0.005396105
v 0.004737554 0.0149685405 0.014929312
v -0 0.018434253 -0.011263784
v -0 0.011263777 -0.018434256
v -0 0.01849344 0.011264254
v -0 0.0113034 0.01845643
v -0 0.015329515 -0.015329519
v -0.004721769 0.01491857 -0.014918575
v -0.004903106 0.017889155 -0.0109545095
v -0.004903106 0.010954505 -0.017889157
v -0 0.015380659 0.015341386
v -0.004737554 0.0149685405 0.014929312
v -0.004919587 0.010992951 0.017910417
v -0.004919544 0.017947255 0.0109543735
v -0.0052516037 0.020204704 -0.0052516074
v -0.0096834935 0.013676954 -0.013676959
v -0.0052692154 0.020262977 0.0052329013
v -0.009712977 0.013723446 0.013685522
v -0.0052692154 0.005269219 0.020230405
v -0 3.542396E-09 0.02174307
v -0.005432332 3.4107466E-09 0.020935012
v -0.010186585 0.010186587 0.016101656
v -0.010186585 0.016139664 0.0101525765
v -0.005432332 0.020969233 -3.8445163E-05
v -0.010992949 0.00491959 0.017910419
v -0.012560319 0.012560322 0.012519658
v -0.010992949 0.017947255 0.00488336
v -0.013723443 0.009712936 0.013685523
v -0.013723443 0.013723444 0.009680144
v -0.016139664 0.0101865865 0.010152578
v -0.010954508 0.017889155 -0.004903109
v -0.011303396 0.018493438 -3.844476E-05
v -0.014968538 0.01496854 0.00470098
v -0.017947253 0.01099295 0.004883318
v -0.010154666 0.016087089 -0.010154669
v -0.017947253 0.0049195457 0.010954375
v -0.020262977 0.0052692164 0.0052329046
v -0.014968538 0.0047375564 0.014929313
v -0.011303396 3.0069347E-09 0.018456433
v -0.018493438 0.011303396 -3.8443588E-05
v -0.020969233 0.005432332 -3.844263E-05
v -0.015380656 0.015380656 -3.8444254E-05
v -0.014918572 0.014918571 -0.0047217715
v -0.017889155 0.010954506 -0.004903108
v -0.013676956 0.013676955 -0.009683496
v -0.0125164855 0.012516483 -0.012516487
v -0.016087089 0.010154665 -0.010154668
v -0.020204704 0.005251603 -0.005251604
v -0.02174307 0 0
v -0.010154666 0.0101546645 -0.01608709
v -0.013676956 0.009683492 -0.013676958
v -0.017889155 0.004903104 -0.010954509
v -0.0052516037 0.0052516 -0.020204704
v -0 -3.542396E-09 -0.02174307
v -0.0054138945 -3.40646E-09 -0.020908704
v -0.010954508 0.004903103 -0.017889157
v -0.014918572 0.004721767 -0.014918574
v -0.020908704 -8.8204244E-10 -0.0054139374
v -0.01126378 -3.0033214E-09 -0.018434254
v -0.018434254 -1.8351027E-09 -0.01126378
v -0.0153295165 -2.4974953E-09 -0.0153295165
v -0.014918572 -0.0047217715 -0.014918571
v -0.010954508 -0.004903109 -0.017889155
v -0.017889155 -0.004903108 -0.010954506
v -0.020204704 -0.005251604 -0.005251603
v -0.013676956 -0.009683496 -0.013676955
v -0.0052516037 -0.0052516074 -0.020204704
v -0 -3.542396E-09 -0.02174307
v -0 -0.0054138983 -0.020908704
v -0.010154666 -0.010154625 -0.016087089
v -0.016087089 -0.010154668 -0.010154665
v -0.004903106 -0.0109545095 -0.017889155
v -0.0125164855 -0.012516487 -0.012516483
v -0.0096834935 -0.013676959 -0.013676954
v -0.013676956 -0.013676958 -0.009683492
v -0.017889155 -0.010954509 -0.004903104
v -0.010154666 -0.01608709 -0.0101546645
v -0.004721769 -0.014918575 -0.01491857
v -0 -0.011263784 -0.018434253
v -0.004903106 -0.017889157 -0.010954505
v -0.01858102 -0.0111400625 1.8149466E-09
v -0.014918572 -0.014918574 -0.004721767
v -0.010954508 -0.017889157 -0.004903103
v -0.0052516037 -0.020204704 -0.0052516
v -0.015374612 -0.015374612 2.5048423E-09
v -0.021015896 -0.005261562 8.572173E-10
v -0.020969233 8.7913055E-10 0.005396065
v -0.020262977 -0.005269215 0.0052329055
v -0.018493438 1.8351808E-09 0.011264258
v -0.0111400625 -0.01858102 3.0272322E-09
v -0.017947253 -0.010992948 0.004883322
v -0.017947253 -0.0049195853 0.010954377
v -0.015380656 2.4994298E-09 0.015341389
v -0.014968538 -0.004737552 0.014929316
v -0.016139664 -0.010186584 0.01015258
v -0.014968538 -0.014968537 0.004700985
v -0.010992949 -0.004919584 0.01791042
v -0.013723443 -0.009712975 0.013685482
v -0.013723443 -0.013723442 0.009680148
v -0.0052692154 -0.005269212 0.020230405
v -0 3.542396E-09 0.02174307
v -0 -0.0054323287 0.020935012
v -0.010186585 -0.010186583 0.016101658
v -0.012560319 -0.012560317 0.012519662
v -0.010992949 -0.017947251 0.004883323
v -0.004919587 -0.010992946 0.01791042
v -0.009712977 -0.013723441 0.013685483
v -0.010186585 -0.016139662 0.010152582
v -0.0052692154 -0.020262977 0.0052329088
v -0.004919587 -0.017947251 0.010954378
v -0.004737554 -0.014968536 0.014929317
v -0 -0.011303392 0.018456435
v -0.005261562 -0.021015896 3.4239243E-09
v -0 -0.020908704 -0.0054139337
v -0 -0.02174307 3.542396E-09
v -0 -0.020969233 0.005396112
v -0 -0.018493434 0.011264262
v -0 -0.015380654 0.015341391
v 0.004737554 -0.014968536 0.014929317
v 0.004919587 -0.010992946 0.01791042
v 0.004919587 -0.017947251 0.010954378
v -0 -0.018434256 -0.011263777
v 0.0052692154 -0.005269212 0.020230405
v -0 3.542396E-09 0.02174307
v 0.005432332 3.4107466E-09 0.020935012
v 0.009712977 -0.013723441 0.013685483
v 0.010186585 -0.010186583 0.016101658
v 0.010992949 -0.004919584 0.01791042
v 0.011303396 3.0069347E-09 0.018456433
v 0.014968538 -0.004737552 0.014929316
v 0.015380656 2.4994298E-09 0.015341389
v 0.018493438 1.8351808E-09 0.011264258
v 0.013723443 -0.009712975 0.013685482
v 0.017947253 -0.0049195853 0.010954377
v 0.020969233 8.7913776E-10 0.0053961086
v 0.012560319 -0.012560317 0.012519662
v 0.010186585 -0.016139662 0.010152582
v 0.016139664 -0.010186584 0.01015258
v 0.020262977 -0.005269215 0.0052329055
v 0.02174307 0 0
v 0.013723443 -0.013723442 0.009680148
v 0.0052692154 -0.020262977 0.0052329088
v 0.021015896 -0.005261562 8.572173E-10
v 0.020908704 -8.820354E-10 -0.0054138945
v 0.017947253 -0.010992948 0.004883322
v 0.010992949 -0.017947251 0.004883323
v 0.005261562 -0.021015896 3.4239243E-09
v 0.01858102 -0.0111400625 1.8149466E-09
v 0.014968538 -0.014968537 0.004700985
v 0.020204704 -0.005251604 -0.005251603
v 0.0111400625 -0.01858102 3.0272322E-09
v 0.0052516037 -0.020204704 -0.0052516
v 0.015374612 -0.015374612 2.5048423E-09
v 0.017889155 -0.010954509 -0.004903104
v 0.017889155 -0.004903108 -0.010954506
v 0.018434254 -1.8351027E-09 -0.01126378
v 0.014918572 -0.014918574 -0.004721767
v 0.016087089 -0.010154668 -0.010154665
v 0.014918572 -0.0047217715 -0.014918571
v 0.0153295165 -2.4974953E-09 -0.0153295165
v 0.01126378 -3.0033214E-09 -0.018434254
v 0.010954508 -0.017889157 -0.004903103
v 0.013676956 -0.013676958 -0.009683492
v 0.013676956 -0.009683496 -0.013676955
v 0.010954508 -0.004903109 -0.017889155
v 0.0054139374 -3.40646E-09 -0.020908704
v 0.010154666 -0.01608709 -0.0101546645
v 0.0125164855 -0.012516487 -0.012516483
v 0.0052516037 -0.0052516074 -0.020204704
v -0 -3.542396E-09 -0.02174307
v 0.010154666 -0.010154625 -0.016087089
v 0.004903106 -0.0109545095 -0.017889155
v 0.0096834935 -0.013676959 -0.013676954
v 0.0049030622 -0.017889157 -0.010954505
v 0.004721769 -0.014918575 -0.01491857
v -0 -0.015329519 -0.015329515
vt 0.1255 0.8852
vt 0.0006 0.9291
vt 0.131 0.9986
vt 0.2505 0.9291
vt 0.0679 0.7998
vt 0.0006 0.8107
vt 0.0491 0.7456
vt 0.0006 0.7524
vt 0.0006 0.6852
vt 0.0432 0.6801
vt 0.0006 0.5884
vt 0.0983 0.7251
vt 0.1255 0.765
vt 0.0411 0.5857
vt 0.0006 0.4988
vt 0.0901 0.6668
vt 0.1832 0.7998
vt 0.1255 0.7059
vt 0.1528 0.7251
vt 0.041 0.4988
vt 0.088 0.58
vt 0.1255 0.659
vt 0.161 0.6668
vt 0.0411 0.412
vt 0.0006 0.4093
vt 0.0432 0.3176
vt 0.0006 0.3125
vt 0.0491 0.2521
vt 0.0006 0.2453
vt 0.0006 0.1789
vt 0.0679 0.1905
vt 0.0006 0.0748
vt 0.0983 0.2726
vt 0.0901 0.3309
vt 0.088 0.4177
vt 0.1262 0.1155
vt 0.121 0.0032
vt 0.2505 0.0673
vt 0.1255 0.2333
vt 0.1255 0.2918
vt 0.1832 0.1903
vt 0.0878 0.4988
vt 0.1255 0.3387
vt 0.1528 0.2726
vt 0.1255 0.577
vt 0.1255 0.4207
vt 0.161 0.3309
vt 0.1631 0.58
vt 0.1255 0.4988
vt 0.1632 0.4988
vt 0.1631 0.4177
vt 0.2101 0.4988
vt 0.21 0.5857
vt 0.2505 0.4988
vt 0.21 0.412
vt 0.2079 0.3176
vt 0.2079 0.6801
vt 0.2505 0.4093
vt 0.2019 0.2521
vt 0.2505 0.5884
vt 0.2019 0.7456
vt 0.2505 0.3125
vt 0.2505 0.1791
vt 0.2505 0.6852
vt 0.2505 0.8107
vt 0.2505 0.2453
vt 0.299 0.2521
vt 0.293 0.3176
vt 0.3177 0.1908
vt 0.2505 0.7524
vt 0.299 0.7456
vt 0.3177 0.7998
vt 0.293 0.6801
vt 0.2909 0.412
vt 0.3481 0.2726
vt 0.2909 0.5857
vt 0.3481 0.7251
vt 0.3754 0.8852
vt 0.3863 0.9986
vt 0.5003 0.9291
vt 0.3754 0.765
vt 0.3399 0.6668
vt 0.2908 0.4988
vt 0.433 0.7998
vt 0.3754 0.7059
vt 0.3378 0.58
vt 0.4026 0.7251
vt 0.3754 0.659
vt 0.4108 0.6668
vt 0.3378 0.4177
vt 0.3377 0.4988
vt 0.3754 0.577
vt 0.4129 0.58
vt 0.3399 0.3309
vt 0.4578 0.6801
vt 0.4598 0.5857
vt 0.4518 0.7456
vt 0.5003 0.8107
vt 0.4131 0.4988
vt 0.46 0.4988
vt 0.3754 0.4988
vt 0.3754 0.4207
vt 0.4129 0.4177
vt 0.3754 0.3387
vt 0.3754 0.2918
vt 0.4108 0.3309
vt 0.4598 0.412
vt 0.5003 0.4988
vt 0.3754 0.2336
vt 0.4026 0.2726
vt 0.4578 0.3176
vt 0.3747 0.1083
vt 0.375 0.0032
vt 0.5003 0.0622
vt 0.433 0.1886
vt 0.4518 0.2521
vt 0.5003 0.4093
vt 0.5003 0.1778
vt 0.5003 0.3125
vt 0.5003 0.2453
vt 0.5488 0.2521
vt 0.5675 0.1897
vt 0.5428 0.3176
vt 0.5407 0.412
vt 0.598 0.2726
vt 0.6204 0.1079
vt 0.624 -0.0011
vt 0.7501 0.0696
vt 0.6252 0.2336
vt 0.5897 0.3309
vt 0.6829 0.1902
vt 0.6252 0.2918
vt 0.6524 0.2726
vt 0.6252 0.3387
vt 0.5876 0.4177
vt 0.6606 0.3309
vt 0.7016 0.2521
vt 0.7501 0.1791
vt 0.7076 0.3176
vt 0.5875 0.4988
vt 0.6252 0.4207
vt 0.6627 0.4177
vt 0.7096 0.412
vt 0.6252 0.4988
vt 0.5406 0.4988
vt 0.5003 0.5884
vt 0.5407 0.5857
vt 0.5003 0.6852
vt 0.6629 0.4988
vt 0.5876 0.58
vt 0.5428 0.6801
vt 0.5003 0.7524
vt 0.5488 0.7456
vt 0.5897 0.6668
vt 0.6252 0.577
vt 0.5675 0.7998
vt 0.598 0.7251
vt 0.6252 0.659
vt 0.6252 0.8852
vt 0.6213 1.0029
vt 0.7502 0.929
vt 0.6252 0.765
vt 0.6252 0.7059
vt 0.6627 0.58
vt 0.6829 0.7998
vt 0.6524 0.7251
vt 0.6606 0.6668
vt 0.7096 0.5857
vt 0.7076 0.6801
vt 0.7016 0.7456
vt 0.7501 0.8107
vt 0.7098 0.4988
vt 0.7501 0.4093
vt 0.7501 0.4988
vt 0.7501 0.5884
vt 0.7501 0.6852
vt 0.7501 0.7524
vt 0.7986 0.7456
vt 0.8173 0.7998
vt 0.7926 0.6801
vt 0.7501 0.3125
vt 0.875 0.8891
vt 0.8766 1
vt 0.9995 0.9266
vt 0.8478 0.7251
vt 0.875 0.765
vt 0.9327 0.7998
vt 0.9999 0.8107
vt 0.9514 0.7456
vt 0.9999 0.7524
vt 0.9999 0.6852
vt 0.9022 0.7251
vt 0.9574 0.6801
vt 0.9999 0.5884
vt 0.875 0.7059
vt 0.8395 0.6668
vt 0.9104 0.6668
vt 0.9594 0.5857
vt 0.9999 0.4988
vt 0.875 0.659
vt 0.7905 0.5857
vt 0.9596 0.4988
vt 0.9999 0.4093
vt 0.9125 0.58
vt 0.8374 0.58
vt 0.7904 0.4988
vt 0.9127 0.4988
vt 0.875 0.577
vt 0.9594 0.412
vt 0.8373 0.4988
vt 0.7905 0.412
vt 0.875 0.4988
vt 0.9125 0.4177
vt 0.9574 0.3176
vt 0.9999 0.3125
vt 0.875 0.4207
vt 0.9104 0.3309
vt 0.9514 0.2521
vt 0.9999 0.2453
vt 0.9999 0.1789
vt 0.8374 0.4177
vt 0.875 0.3387
vt 0.9022 0.2726
vt 0.9327 0.1905
vt 0.9999 0.0683
vt 0.8395 0.3309
vt 0.875 0.2918
vt 0.8798 0.1132
vt 0.8755 0.0017
vt 0.875 0.2333
vt 0.8173 0.1896
vt 0.8478 0.2726
vt 0.7926 0.3176
vt 0.7986 0.2521
vt 0.7501 0.2453
vn 0.25688404 0.25688404 0.93167645
vn 0.2697908 1.5687816E-07 0.96291894
vn -0 1.6292259E-07 1
vn -0 0.2697908 0.96291894
vn 0.48609933 0.23706397 0.8411351
vn 0.501883 1.4091692E-07 0.8649356
vn 0.6890416 0.22459601 0.6890416
vn 0.7073308 1.15161946E-07 0.70688266
vn 0.86515063 0 0.5015121
vn 0.8413508 0.23690505 0.4858034
vn 0.9636892 0 0.26702636
vn 0.64485705 0.40956172 0.64530516
vn 0.44713542 0.44713542 0.7746868
vn 0.9317644 0.25678247 0.25666678
vn 0.9999865 0.0020001666 -0.004800402
vn 0.77484554 0.4467739 0.44722205
vn 0.23706397 0.48609933 0.8411351
vn 0.577196 0.577196 0.57765865
vn 0.40955567 0.64485884 0.64530706
vn 0.9638472 0.2663715 -0.0066976566
vn 0.8413567 0.48579237 0.23690674
vn 0.64508176 0.64508176 0.40955958
vn 0.4467739 0.77484554 0.44722205
vn 0.92976433 0.25708473 -0.26352578
vn 0.96214616 0 -0.27253386
vn 0.841042 0.23693974 -0.48632088
vn 0.86474377 0 -0.5022133
vn 0.68902403 0.22470345 -0.68902403
vn 0.70710677 -1.1520448E-07 -0.70710677
vn 0.5022133 -1.4088529E-07 -0.86474377
vn 0.48632088 0.23693974 -0.841042
vn 0.27253386 -1.5676005E-07 -0.96214616
vn 0.6449611 0.4099395 -0.6449611
vn 0.77478164 0.44705337 -0.44705337
vn 0.83925825 0.48564664 -0.2445258
vn 0.25716275 0.25716275 -0.93152285
vn -0 -1.6292259E-07 -1
vn -0 0.27253386 -0.96214616
vn 0.44705337 0.44705337 -0.77478164
vn 0.57735026 0.57735026 -0.57735026
vn 0.23693685 0.48631498 -0.8410461
vn 0.86513025 0.50148815 -0.0077000363
vn 0.6449611 0.6449611 -0.4099395
vn 0.4099395 0.6449611 -0.6449611
vn 0.6890416 0.6890416 0.22459601
vn 0.687684 0.687684 -0.23276909
vn 0.44705042 0.77477664 -0.44706494
vn 0.48579237 0.8413567 0.23690674
vn 0.7070836 0.7070836 -0.008099167
vn 0.50148815 0.86513025 -0.0077001206
vn 0.48564664 0.83925825 -0.2445258
vn 0.2663715 0.9638472 -0.0066977697
vn 0.25678247 0.9317644 0.25666678
vn -0 0.99998987 -0.0045004394
vn 0.25708473 0.92976433 -0.26352578
vn 0.23694262 0.84103763 -0.48632678
vn 0.23679407 0.84138507 0.48579812
vn -0 0.96214616 -0.27253386
vn 0.22470345 0.68902403 -0.68902403
vn -0 0.9636892 0.26702636
vn 0.22459601 0.6890416 0.6890416
vn -0 0.86474377 -0.5022133
vn -0 0.5022133 -0.86474377
vn -0 0.86515063 0.5015121
vn -0 0.501883 0.8649356
vn -0 0.70710677 -0.70710677
vn -0.22470345 0.68902403 -0.68902403
vn -0.23694262 0.84103763 -0.48632678
vn -0.23693685 0.48631498 -0.8410461
vn -0 0.7073308 0.70688266
vn -0.22459601 0.6890416 0.6890416
vn -0.23706397 0.48609933 0.8411351
vn -0.23679407 0.84138507 0.48579812
vn -0.25708473 0.92976433 -0.26352578
vn -0.4099395 0.6449611 -0.6449611
vn -0.25678247 0.9317644 0.25666678
vn -0.40955567 0.64485884 0.64530706
vn -0.25688404 0.25688404 0.93167645
vn -0 1.6292259E-07 1
vn -0.2697908 1.5687816E-07 0.96291894
vn -0.44713542 0.44713542 0.7746868
vn -0.4467739 0.77484554 0.44722205
vn -0.2663715 0.9638472 -0.0066977697
vn -0.48609933 0.23706397 0.8411351
vn -0.577196 0.577196 0.57765865
vn -0.48579237 0.8413567 0.23690674
vn -0.64485705 0.40956172 0.64530516
vn -0.64508176 0.64508176 0.40955958
vn -0.77484554 0.4467739 0.44722205
vn -0.48564664 0.83925825 -0.2445258
vn -0.50148815 0.86513025 -0.0077001206
vn -0.6890416 0.6890416 0.22459601
vn -0.8413567 0.48579237 0.23690674
vn -0.44705337 0.77478164 -0.44705337
vn -0.84138083 0.23679696 0.48580408
vn -0.9317644 0.25678247 0.25666678
vn -0.6890416 0.22459601 0.6890416
vn -0.501883 1.4091692E-07 0.8649356
vn -0.86513025 0.50148815 -0.0077000363
vn -0.9638472 0.2663715 -0.0066976566
vn -0.7070836 0.7070836 -0.008099167
vn -0.687684 0.687684 -0.23276909
vn -0.83925825 0.48564664 -0.2445258
vn -0.6449611 0.6449611 -0.4099395
vn -0.57735026 0.57735026 -0.57735026
vn -0.77478164 0.44705337 -0.44705337
vn -0.92976433 0.25708473 -0.26352578
vn -0.9999865 0.0020001666 -0.004800402
vn -0.44705337 0.44705337 -0.77478164
vn -0.6449611 0.4099395 -0.6449611
vn -0.841042 0.23693974 -0.48632088
vn -0.25716275 0.25716275 -0.93152285
vn -0 -1.6292259E-07 -1
vn -0.27253386 -1.5676005E-07 -0.96214616
vn -0.48632088 0.23693974 -0.841042
vn -0.68902403 0.22470345 -0.68902403
vn -0.96214616 0 -0.27253386
vn -0.5022133 -1.4088529E-07 -0.86474377
vn -0.86474377 0 -0.5022133
vn -0.70710677 -1.1520448E-07 -0.70710677
vn -0.68902403 -0.22470345 -0.68902403
vn -0.48632088 -0.23693974 -0.841042
vn -0.841042 -0.23693974 -0.48632088
vn -0.92952204 -0.25848493 -0.26301035
vn -0.6449611 -0.4099395 -0.6449611
vn -0.25716275 -0.25716275 -0.93152285
vn -0 -1.6292259E-07 -1
vn -0 -0.27253386 -0.96214616
vn -0.44705042 -0.44706494 -0.77477664
vn -0.77478164 -0.44705337 -0.44705337
vn -0.23694262 -0.48632678 -0.84103763
vn -0.57735026 -0.57735026 -0.57735026
vn -0.4099395 -0.6449611 -0.6449611
vn -0.6449611 -0.6449611 -0.4099395
vn -0.8387126 -0.487173 -0.24335879
vn -0.44705337 -0.77478164 -0.44705337
vn -0.22470345 -0.68902403 -0.68902403
vn -0 -0.5022133 -0.86474377
vn -0.23693685 -0.8410461 -0.48631498
vn -0.86917555 -0.4944596 -0.0065990495
vn -0.6879193 -0.6879193 -0.23137395
vn -0.487173 -0.8387126 -0.24335879
vn -0.25848493 -0.92952204 -0.26301035
vn -0.7070894 -0.7070894 -0.0069984617
vn -0.9658649 -0.25899008 -0.0053992197
vn -0.963663 0 0.2671211
vn -0.93121004 -0.25812566 0.25733048
vn -0.86515063 0 0.5015121
vn -0.4944596 -0.86917555 -0.006598988
vn -0.8406687 -0.48701644 0.23683567
vn -0.8413508 -0.23690505 0.4858034
vn -0.7073308 1.15161946E-07 0.70688266
vn -0.6890416 -0.22459601 0.6890416
vn -0.77484554 -0.4467739 0.44722205
vn -0.68909353 -0.68909353 0.2242771
vn -0.48609933 -0.23706397 0.8411351
vn -0.64485884 -0.40955567 0.64530706
vn -0.64508176 -0.64508176 0.40955958
vn -0.25688404 -0.25688404 0.93167645
vn -0 1.6292259E-07 1
vn -0 -0.2697908 0.96291894
vn -0.44713542 -0.44713542 0.7746868
vn -0.577196 -0.577196 0.57765865
vn -0.48701644 -0.8406687 0.23683567
vn -0.23706397 -0.48609933 0.8411351
vn -0.40955567 -0.64485884 0.64530706
vn -0.4467739 -0.77484554 0.44722205
vn -0.25812566 -0.93121004 0.25733048
vn -0.23690794 -0.84134656 0.48580927
vn -0.22459601 -0.6890416 0.6890416
vn -0 -0.501883 0.8649356
vn -0.25899008 -0.9658649 -0.005399104
vn -0 -0.96214616 -0.27253386
vn -0 -0.9999865 -0.0052002715
vn -0 -0.9636892 0.26702636
vn -0 -0.86515063 0.5015121
vn -0 -0.7073308 0.70688266
vn 0.22459601 -0.6890416 0.6890416
vn 0.23706397 -0.48609933 0.8411351
vn 0.23690794 -0.84134656 0.48580927
vn -0 -0.86474377 -0.5022133
vn 0.25688404 -0.25688404 0.93167645
vn -0 1.6292259E-07 1
vn 0.2697908 1.5687816E-07 0.96291894
vn 0.40955567 -0.64485884 0.64530706
vn 0.44713542 -0.44713542 0.7746868
vn 0.48609933 -0.23706397 0.8411351
vn 0.501883 1.4091692E-07 0.8649356
vn 0.6890416 -0.22459601 0.6890416
vn 0.7073308 1.15161946E-07 0.70688266
vn 0.86515063 0 0.5015121
vn 0.64485884 -0.40955567 0.64530706
vn 0.8413508 -0.23690505 0.4858034
vn 0.9636892 0 0.26702636
vn 0.577196 -0.577196 0.57765865
vn 0.4467739 -0.77484554 0.44722205
vn 0.77484554 -0.4467739 0.44722205
vn 0.93121004 -0.25812566 0.25733048
vn 0.9999865 0.0020001666 -0.004800402
vn 0.64508176 -0.64508176 0.40955958
vn 0.25812566 -0.93121004 0.25733048
vn 0.9658649 -0.25899008 -0.0053992197
vn 0.96214616 0 -0.27253386
vn 0.8406687 -0.48701644 0.23683567
vn 0.48701644 -0.8406687 0.23683567
vn 0.25899008 -0.9658649 -0.005399104
vn 0.86917555 -0.4944596 -0.0065990495
vn 0.68909353 -0.68909353 0.2242771
vn 0.92952204 -0.25848493 -0.26301035
vn 0.4944596 -0.86917555 -0.006598988
vn 0.25848493 -0.92952204 -0.26301035
vn 0.7070894 -0.7070894 -0.0069984617
vn 0.8387126 -0.487173 -0.24335879
vn 0.841042 -0.23693974 -0.48632088
vn 0.86474377 0 -0.5022133
vn 0.6879193 -0.6879193 -0.23137395
vn 0.77478164 -0.44705337 -0.44705337
vn 0.68902403 -0.22470345 -0.68902403
vn 0.70710677 -1.1520448E-07 -0.70710677
vn 0.5022133 -1.4088529E-07 -0.86474377
vn 0.487173 -0.8387126 -0.24335879
vn 0.6449611 -0.6449611 -0.4099395
vn 0.6449611 -0.4099395 -0.6449611
vn 0.48632088 -0.23693974 -0.841042
vn 0.27253386 -1.5676005E-07 -0.96214616
vn 0.44705337 -0.77478164 -0.44705337
vn 0.57735026 -0.57735026 -0.57735026
vn 0.25716275 -0.25716275 -0.93152285
vn -0 -1.6292259E-07 -1
vn 0.44705042 -0.44706494 -0.77477664
vn 0.23694262 -0.48632678 -0.84103763
vn 0.4099395 -0.6449611 -0.6449611
vn 0.23693685 -0.8410461 -0.48631498
vn 0.22470345 -0.68902403 -0.68902403
vn -0 -0.70710677 -0.70710677
g S_wpn_funnel_0009_02_lod0_0
f 3/3/3 2/2/2 1/1/1
f 4/4/4 3/3/3 1/1/1
f 1/1/1 2/2/2 5/5/5
f 2/2/2 6/6/6 5/5/5
f 5/5/5 6/6/6 7/7/7
f 6/6/6 8/8/8 7/7/7
f 8/8/8 9/9/9 7/7/7
f 9/9/9 10/10/10 7/7/7
f 10/10/10 9/9/9 11/11/11
f 5/5/5 7/7/7 12/12/12
f 7/7/7 10/10/10 12/12/12
f 5/5/5 13/13/13 1/1/1
f 13/13/13 5/5/5 12/12/12
f 14/14/14 10/10/10 11/11/11
f 11/11/11 15/15/15 14/14/14
f 10/10/10 16/16/16 12/12/12
f 16/16/16 10/10/10 14/14/14
f 4/4/4 1/1/1 17/17/17
f 13/13/13 17/17/17 1/1/1
f 13/13/13 12/12/12 18/18/18
f 12/12/12 16/16/16 18/18/18
f 17/17/17 13/13/13 19/19/19
f 19/19/19 13/13/13 18/18/18
f 15/15/15 20/20/20 14/14/14
f 21/21/21 16/16/16 14/14/14
f 14/14/14 20/20/20 21/21/21
f 16/16/16 22/22/22 18/18/18
f 22/22/22 16/16/16 21/21/21
f 23/23/23 19/19/19 18/18/18
f 22/22/22 23/23/23 18/18/18
f 20/20/20 15/15/15 24/24/24
f 15/15/15 25/25/25 24/24/24
f 24/24/24 25/25/25 26/26/26
f 25/25/25 27/27/27 26/26/26
f 26/26/26 27/27/27 28/28/28
f 27/27/27 29/29/29 28/28/28
f 29/29/29 30/30/30 28/28/28
f 30/30/30 31/31/31 28/28/28
f 30/30/30 32/32/32 31/31/31
f 26/26/26 28/28/28 33/33/33
f 28/28/28 31/31/31 33/33/33
f 26/26/26 34/34/34 24/24/24
f 34/34/34 26/26/26 33/33/33
f 20/20/20 24/24/24 35/35/35
f 34/34/34 35/35/35 24/24/24
f 32/32/32 36/36/36 31/31/31
f 32/32/32 37/37/37 36/36/36
f 37/37/37 38/38/38 36/36/36
f 31/31/31 39/39/39 33/33/33
f 31/31/31 36/36/36 39/39/39
f 34/34/34 33/33/33 40/40/40
f 33/33/33 39/39/39 40/40/40
f 36/36/36 41/41/41 39/39/39
f 36/36/36 38/38/38 41/41/41
f 42/42/42 20/20/20 35/35/35
f 20/20/20 42/42/42 21/21/21
f 35/35/35 34/34/34 43/43/43
f 43/43/43 34/34/34 40/40/40
f 39/39/39 44/44/44 40/40/40
f 39/39/39 41/41/41 44/44/44
f 21/21/21 42/42/42 45/45/45
f 45/45/45 22/22/22 21/21/21
f 42/42/42 35/35/35 46/46/46
f 46/46/46 35/35/35 43/43/43
f 47/47/47 43/43/43 40/40/40
f 44/44/44 47/47/47 40/40/40
f 45/45/45 48/48/48 22/22/22
f 48/48/48 23/23/23 22/22/22
f 42/42/42 49/49/49 45/45/45
f 49/49/49 42/42/42 46/46/46
f 49/49/49 50/50/50 45/45/45
f 50/50/50 49/49/49 46/46/46
f 50/50/50 48/48/48 45/45/45
f 46/46/46 43/43/43 51/51/51
f 51/51/51 50/50/50 46/46/46
f 43/43/43 47/47/47 51/51/51
f 50/50/50 52/52/52 48/48/48
f 52/52/52 50/50/50 51/51/51
f 48/48/48 53/53/53 23/23/23
f 52/52/52 53/53/53 48/48/48
f 52/52/52 54/54/54 53/53/53
f 55/55/55 52/52/52 51/51/51
f 51/51/51 47/47/47 55/55/55
f 54/54/54 52/52/52 55/55/55
f 56/56/56 47/47/47 44/44/44
f 47/47/47 56/56/56 55/55/55
f 53/53/53 57/57/57 23/23/23
f 23/23/23 57/57/57 19/19/19
f 58/58/58 54/54/54 55/55/55
f 55/55/55 56/56/56 58/58/58
f 59/59/59 56/56/56 44/44/44
f 41/41/41 59/59/59 44/44/44
f 54/54/54 60/60/60 53/53/53
f 53/53/53 60/60/60 57/57/57
f 57/57/57 61/61/61 19/19/19
f 61/61/61 17/17/17 19/19/19
f 56/56/56 62/62/62 58/58/58
f 62/62/62 56/56/56 59/59/59
f 41/41/41 63/63/63 59/59/59
f 38/38/38 63/63/63 41/41/41
f 60/60/60 64/64/64 57/57/57
f 57/57/57 64/64/64 61/61/61
f 65/65/65 17/17/17 61/61/61
f 65/65/65 4/4/4 17/17/17
f 66/66/66 62/62/62 59/59/59
f 63/63/63 66/66/66 59/59/59
f 62/62/62 66/66/66 67/67/67
f 66/66/66 63/63/63 67/67/67
f 58/58/58 62/62/62 68/68/68
f 68/68/68 62/62/62 67/67/67
f 69/69/69 63/63/63 38/38/38
f 63/63/63 69/69/69 67/67/67
f 64/64/64 70/70/70 61/61/61
f 70/70/70 65/65/65 61/61/61
f 70/70/70 64/64/64 71/71/71
f 65/65/65 70/70/70 71/71/71
f 4/4/4 65/65/65 72/72/72
f 72/72/72 65/65/65 71/71/71
f 64/64/64 73/73/73 71/71/71
f 73/73/73 64/64/64 60/60/60
f 74/74/74 58/58/58 68/68/68
f 54/54/54 58/58/58 74/74/74
f 68/68/68 67/67/67 75/75/75
f 67/67/67 69/69/69 75/75/75
f 60/60/60 54/54/54 76/76/76
f 76/76/76 73/73/73 60/60/60
f 71/71/71 73/73/73 77/77/77
f 71/71/71 77/77/77 72/72/72
f 78/78/78 4/4/4 72/72/72
f 79/79/79 4/4/4 78/78/78
f 80/80/80 79/79/79 78/78/78
f 72/72/72 81/81/81 78/78/78
f 77/77/77 81/81/81 72/72/72
f 73/73/73 82/82/82 77/77/77
f 82/82/82 73/73/73 76/76/76
f 54/54/54 83/83/83 76/76/76
f 83/83/83 54/54/54 74/74/74
f 78/78/78 84/84/84 80/80/80
f 81/81/81 84/84/84 78/78/78
f 81/81/81 77/77/77 85/85/85
f 77/77/77 82/82/82 85/85/85
f 86/86/86 82/82/82 76/76/76
f 76/76/76 83/83/83 86/86/86
f 84/84/84 81/81/81 87/87/87
f 87/87/87 81/81/81 85/85/85
f 82/82/82 88/88/88 85/85/85
f 88/88/88 82/82/82 86/86/86
f 89/89/89 87/87/87 85/85/85
f 88/88/88 89/89/89 85/85/85
f 83/83/83 74/74/74 90/90/90
f 83/83/83 91/91/91 86/86/86
f 91/91/91 83/83/83 90/90/90
f 92/92/92 88/88/88 86/86/86
f 86/86/86 91/91/91 92/92/92
f 93/93/93 89/89/89 88/88/88
f 92/92/92 93/93/93 88/88/88
f 90/90/90 74/74/74 94/94/94
f 74/74/74 68/68/68 94/94/94
f 94/94/94 68/68/68 75/75/75
f 89/89/89 95/95/95 87/87/87
f 89/89/89 93/93/93 96/96/96
f 95/95/95 89/89/89 96/96/96
f 95/95/95 97/97/97 87/87/87
f 97/97/97 84/84/84 87/87/87
f 98/98/98 84/84/84 97/97/97
f 84/84/84 98/98/98 80/80/80
f 99/99/99 93/93/93 92/92/92
f 100/100/100 96/96/96 93/93/93
f 99/99/99 100/100/100 93/93/93
f 101/101/101 99/99/99 92/92/92
f 91/91/91 101/101/101 92/92/92
f 101/101/101 91/91/91 102/102/102
f 99/99/99 101/101/101 102/102/102
f 91/91/91 90/90/90 102/102/102
f 103/103/103 99/99/99 102/102/102
f 100/100/100 99/99/99 103/103/103
f 102/102/102 90/90/90 104/104/104
f 102/102/102 104/104/104 103/103/103
f 90/90/90 94/94/94 104/104/104
f 104/104/104 94/94/94 105/105/105
f 94/94/94 75/75/75 105/105/105
f 104/104/104 106/106/106 103/103/103
f 106/106/106 104/104/104 105/105/105
f 107/107/107 100/100/100 103/103/103
f 103/103/103 106/106/106 107/107/107
f 100/100/100 108/108/108 96/96/96
f 108/108/108 100/100/100 107/107/107
f 75/75/75 109/109/109 105/105/105
f 69/69/69 109/109/109 75/75/75
f 110/110/110 106/106/106 105/105/105
f 109/109/109 110/110/110 105/105/105
f 106/106/106 111/111/111 107/107/107
f 111/111/111 106/106/106 110/110/110
f 109/109/109 69/69/69 112/112/112
f 112/112/112 69/69/69 38/38/38
f 38/38/38 113/113/113 112/112/112
f 113/113/113 114/114/114 112/112/112
f 115/115/115 109/109/109 112/112/112
f 110/110/110 109/109/109 115/115/115
f 112/112/112 114/114/114 115/115/115
f 116/116/116 110/110/110 115/115/115
f 116/116/116 111/111/111 110/110/110
f 107/107/107 111/111/111 117/117/117
f 117/117/117 108/108/108 107/107/107
f 114/114/114 118/118/118 115/115/115
f 115/115/115 118/118/118 116/116/116
f 119/119/119 111/111/111 116/116/116
f 111/111/111 119/119/119 117/117/117
f 118/118/118 120/120/120 116/116/116
f 120/120/120 119/119/119 116/116/116
f 120/120/120 118/118/118 121/121/121
f 119/119/119 120/120/120 121/121/121
f 118/118/118 114/114/114 122/122/122
f 118/118/118 122/122/122 121/121/121
f 117/117/117 119/119/119 123/123/123
f 123/123/123 119/119/119 121/121/121
f 108/108/108 117/117/117 124/124/124
f 124/124/124 117/117/117 123/123/123
f 123/123/123 121/121/121 125/125/125
f 121/121/121 122/122/122 125/125/125
f 114/114/114 126/126/126 122/122/122
f 114/114/114 127/127/127 126/126/126
f 127/127/127 128/128/128 126/126/126
f 122/122/122 126/126/126 129/129/129
f 122/122/122 129/129/129 125/125/125
f 130/130/130 123/123/123 125/125/125
f 123/123/123 130/130/130 124/124/124
f 126/126/126 128/128/128 131/131/131
f 126/126/126 131/131/131 129/129/129
f 125/125/125 129/129/129 132/132/132
f 130/130/130 125/125/125 132/132/132
f 129/129/129 131/131/131 133/133/133
f 129/129/129 133/133/133 132/132/132
f 134/134/134 130/130/130 132/132/132
f 130/130/130 135/135/135 124/124/124
f 135/135/135 130/130/130 134/134/134
f 133/133/133 136/136/136 132/132/132
f 136/136/136 134/134/134 132/132/132
f 131/131/131 137/137/137 133/133/133
f 128/128/128 138/138/138 131/131/131
f 131/131/131 138/138/138 137/137/137
f 139/139/139 136/136/136 133/133/133
f 137/137/137 139/139/139 133/133/133
f 124/124/124 135/135/135 140/140/140
f 141/141/141 135/135/135 134/134/134
f 140/140/140 135/135/135 141/141/141
f 134/134/134 136/136/136 142/142/142
f 141/141/141 134/134/134 142/142/142
f 136/136/136 139/139/139 143/143/143
f 142/142/142 136/136/136 143/143/143
f 144/144/144 141/141/141 142/142/142
f 144/144/144 140/140/140 141/141/141
f 145/145/145 124/124/124 140/140/140
f 145/145/145 108/108/108 124/124/124
f 108/108/108 145/145/145 146/146/146
f 108/108/108 146/146/146 96/96/96
f 96/96/96 146/146/146 95/95/95
f 145/145/145 140/140/140 147/147/147
f 145/145/145 147/147/147 146/146/146
f 146/146/146 148/148/148 95/95/95
f 95/95/95 148/148/148 97/97/97
f 149/149/149 142/142/142 143/143/143
f 149/149/149 144/144/144 142/142/142
f 140/140/140 144/144/144 150/150/150
f 140/140/140 150/150/150 147/147/147
f 147/147/147 151/151/151 146/146/146
f 151/151/151 148/148/148 146/146/146
f 148/148/148 152/152/152 97/97/97
f 152/152/152 98/98/98 97/97/97
f 152/152/152 148/148/148 153/153/153
f 98/98/98 152/152/152 153/153/153
f 148/148/148 151/151/151 153/153/153
f 154/154/154 151/151/151 147/147/147
f 150/150/150 154/154/154 147/147/147
f 144/144/144 155/155/155 150/150/150
f 144/144/144 149/149/149 155/155/155
f 156/156/156 98/98/98 153/153/153
f 80/80/80 98/98/98 156/156/156
f 153/153/153 151/151/151 157/157/157
f 151/151/151 154/154/154 157/157/157
f 156/156/156 153/153/153 157/157/157
f 158/158/158 154/154/154 150/150/150
f 155/155/155 158/158/158 150/150/150
f 159/159/159 80/80/80 156/156/156
f 160/160/160 80/80/80 159/159/159
f 161/161/161 160/160/160 159/159/159
f 162/162/162 156/156/156 157/157/157
f 156/156/156 162/162/162 159/159/159
f 157/157/157 154/154/154 163/163/163
f 154/154/154 158/158/158 163/163/163
f 162/162/162 157/157/157 163/163/163
f 155/155/155 164/164/164 158/158/158
f 149/149/149 164/164/164 155/155/155
f 162/162/162 165/165/165 159/159/159
f 161/161/161 159/159/159 165/165/165
f 166/166/166 162/162/162 163/163/163
f 165/165/165 162/162/162 166/166/166
f 158/158/158 167/167/167 163/163/163
f 164/164/164 167/167/167 158/158/158
f 167/167/167 166/166/166 163/163/163
f 168/168/168 164/164/164 149/149/149
f 164/164/164 168/168/168 167/167/167
f 167/167/167 169/169/169 166/166/166
f 168/168/168 169/169/169 167/167/167
f 170/170/170 165/165/165 166/166/166
f 169/169/169 170/170/170 166/166/166
f 171/171/171 161/161/161 165/165/165
f 171/171/171 165/165/165 170/170/170
f 172/172/172 168/168/168 149/149/149
f 172/172/172 149/149/149 143/143/143
f 172/172/172 143/143/143 173/173/173
f 143/143/143 139/139/139 173/173/173
f 172/172/172 174/174/174 168/168/168
f 174/174/174 172/172/172 173/173/173
f 168/168/168 175/175/175 169/169/169
f 174/174/174 175/175/175 168/168/168
f 169/169/169 176/176/176 170/170/170
f 175/175/175 176/176/176 169/169/169
f 177/177/177 171/171/171 170/170/170
f 176/176/176 177/177/177 170/170/170
f 171/171/171 177/177/177 178/178/178
f 177/177/177 176/176/176 178/178/178
f 161/161/161 171/171/171 179/179/179
f 179/179/179 171/171/171 178/178/178
f 176/176/176 180/180/180 178/178/178
f 180/180/180 176/176/176 175/175/175
f 139/139/139 181/181/181 173/173/173
f 181/181/181 139/139/139 137/137/137
f 182/182/182 161/161/161 179/179/179
f 183/183/183 161/161/161 182/182/182
f 184/184/184 183/183/183 182/182/182
f 178/178/178 185/185/185 179/179/179
f 178/178/178 180/180/180 185/185/185
f 179/179/179 186/186/186 182/182/182
f 185/185/185 186/186/186 179/179/179
f 182/182/182 187/187/187 184/184/184
f 186/186/186 187/187/187 182/182/182
f 187/187/187 188/188/188 184/184/184
f 188/188/188 187/187/187 189/189/189
f 190/190/190 188/188/188 189/189/189
f 191/191/191 190/190/190 189/189/189
f 187/187/187 186/186/186 192/192/192
f 189/189/189 187/187/187 192/192/192
f 193/193/193 191/191/191 189/189/189
f 193/193/193 189/189/189 192/192/192
f 194/194/194 191/191/191 193/193/193
f 186/186/186 185/185/185 195/195/195
f 192/192/192 186/186/186 195/195/195
f 180/180/180 196/196/196 185/185/185
f 185/185/185 196/196/196 195/195/195
f 197/197/197 193/193/193 192/192/192
f 197/197/197 192/192/192 195/195/195
f 198/198/198 194/194/194 193/193/193
f 193/193/193 197/197/197 198/198/198
f 199/199/199 194/194/194 198/198/198
f 200/200/200 197/197/197 195/195/195
f 196/196/196 200/200/200 195/195/195
f 196/196/196 180/180/180 201/201/201
f 201/201/201 180/180/180 175/175/175
f 202/202/202 199/199/199 198/198/198
f 199/199/199 202/202/202 203/203/203
f 197/197/197 204/204/204 198/198/198
f 204/204/204 197/197/197 200/200/200
f 200/200/200 196/196/196 205/205/205
f 205/205/205 196/196/196 201/201/201
f 206/206/206 201/201/201 175/175/175
f 174/174/174 206/206/206 175/175/175
f 202/202/202 198/198/198 207/207/207
f 198/198/198 204/204/204 207/207/207
f 208/208/208 204/204/204 200/200/200
f 208/208/208 200/200/200 205/205/205
f 207/207/207 204/204/204 208/208/208
f 202/202/202 209/209/209 203/203/203
f 202/202/202 207/207/207 209/209/209
f 210/210/210 205/205/205 201/201/201
f 206/206/206 210/210/210 201/201/201
f 206/206/206 174/174/174 211/211/211
f 206/206/206 211/211/211 210/210/210
f 174/174/174 173/173/173 211/211/211
f 212/212/212 208/208/208 205/205/205
f 212/212/212 207/207/207 208/208/208
f 210/210/210 212/212/212 205/205/205
f 207/207/207 212/212/212 213/213/213
f 207/207/207 213/213/213 209/209/209
f 209/209/209 214/214/214 203/203/203
f 214/214/214 215/215/215 203/203/203
f 212/212/212 210/210/210 216/216/216
f 212/212/212 216/216/216 213/213/213
f 213/213/213 217/217/217 209/209/209
f 217/217/217 214/214/214 209/209/209
f 215/215/215 214/214/214 218/218/218
f 219/219/219 215/215/215 218/218/218
f 220/220/220 219/219/219 218/218/218
f 210/210/210 221/221/221 216/216/216
f 211/211/211 221/221/221 210/210/210
f 216/216/216 222/222/222 213/213/213
f 216/216/216 221/221/221 222/222/222
f 222/222/222 217/217/217 213/213/213
f 214/214/214 217/217/217 223/223/223
f 218/218/218 214/214/214 223/223/223
f 224/224/224 220/220/220 218/218/218
f 218/218/218 223/223/223 224/224/224
f 225/225/225 220/220/220 224/224/224
f 221/221/221 211/211/211 226/226/226
f 221/221/221 226/226/226 222/222/222
f 217/217/217 222/222/222 227/227/227
f 223/223/223 217/217/217 227/227/227
f 222/222/222 226/226/226 227/227/227
f 228/228/228 225/225/225 224/224/224
f 229/229/229 225/225/225 228/228/228
f 128/128/128 229/229/229 228/228/228
f 223/223/223 230/230/230 224/224/224
f 230/230/230 223/223/223 227/227/227
f 224/224/224 230/230/230 228/228/228
f 228/228/228 231/231/231 128/128/128
f 230/230/230 231/231/231 228/228/228
f 231/231/231 138/138/138 128/128/128
f 232/232/232 230/230/230 227/227/227
f 226/226/226 232/232/232 227/227/227
f 231/231/231 230/230/230 232/232/232
f 211/211/211 233/233/233 226/226/226
f 226/226/226 233/233/233 232/232/232
f 211/211/211 173/173/173 233/233/233
f 173/173/173 181/181/181 233/233/233
f 234/234/234 231/231/231 232/232/232
f 233/233/233 234/234/234 232/232/232
f 138/138/138 231/231/231 234/234/234
f 233/233/233 181/181/181 234/234/234
f 235/235/235 138/138/138 234/234/234
f 181/181/181 235/235/235 234/234/234
f 138/138/138 235/235/235 137/137/137
f 235/235/235 181/181/181 137/137/137
